<svg id="Layer_1" data-name="Layer 1" xmlns="http://www.w3.org/2000/svg" viewBox="0 0 1611.18 83.08">
  <g id="unveiling">
    <path d="M1551.56,57.59a15.39,15.39,0,0,0-1.67.61,3.15,3.15,0,0,1-2.28,0c-.45-.11-.9-.19-1.35-.28a3.09,3.09,0,0,1-2.2-1.2c0-.06-.1-.16-.16-.17-.46-.14-.67-.53-1-.86a3.45,3.45,0,0,1-.7-1.18,1.31,1.31,0,0,0-.46-.67,1.29,1.29,0,0,1-.42-.64,11.71,11.71,0,0,1-.28-1.17.54.54,0,0,1,0-.18c0-.22.35-.37.11-.64a1.72,1.72,0,0,1-.34-.56,8.48,8.48,0,0,1-.23-1.32,7.74,7.74,0,0,1,.07-.83,1.67,1.67,0,0,1,.27-1.15A.78.78,0,0,0,1541,47c.09-.57.13-1.14.26-1.69a15,15,0,0,0,.48-1.53,5.4,5.4,0,0,1,1-2,4.54,4.54,0,0,1,1.29-1.16,3.58,3.58,0,0,1,1.79-.92c.22,0,.42-.21.65-.3a5.68,5.68,0,0,1,3-.15,4,4,0,0,1,1.6.45.58.58,0,0,0,.29.06.84.84,0,0,1,.81.4.87.87,0,0,0,.62.31,1.25,1.25,0,0,1,.94.45,1.32,1.32,0,0,0,.49.31.43.43,0,0,0,.62-.46c0-.43,0-.86,0-1.3a2.89,2.89,0,0,1,1.43-.22c.11,0,.24-.06.35,0,.32,0,.63.06.94.11s.78.17,1.17.21c.71.06.93.36.68,1a1.72,1.72,0,0,0-.08.87,2.61,2.61,0,0,1-.16,1.24,2.17,2.17,0,0,0-.11.86,12.33,12.33,0,0,0,.13,1.35.27.27,0,0,1,0,.16c-.37.31-.14.65-.1,1a8.89,8.89,0,0,1,0,1.86c-.08.9-.21,1.8-.23,2.71a14.42,14.42,0,0,1-.49,3.51.62.62,0,0,0-.07.29,11.94,11.94,0,0,1-.09,3.58,13.05,13.05,0,0,1-.54,2.49,7.18,7.18,0,0,1-.34,1,11.86,11.86,0,0,1-1.47,2.24c-.44.63-1.16.87-1.68,1.37a.42.42,0,0,1-.27.09,9.32,9.32,0,0,0-2.2.73,1.38,1.38,0,0,1-1.31,0,.38.38,0,0,0-.24,0,4,4,0,0,1-1.46-.12c-.42-.1-.88-.08-1.31-.14a1.36,1.36,0,0,0-1,.06c-.08.05-.27,0-.38-.09a.84.84,0,0,0-.85-.12.33.33,0,0,1-.24,0,3.15,3.15,0,0,0-1.24-.31,1.87,1.87,0,0,0-.75-.07c-.36.1-.69-.31-.65-.75.06-.75.15-1.51.24-2.27a1,1,0,0,1,.13-.32c.11-.26.26-.5.35-.75.16-.47.33-.58.84-.54a4.64,4.64,0,0,0,.53,0,2.86,2.86,0,0,1,1.37.39c.13.07.33.16.45.11a2.15,2.15,0,0,1,1.18.08,2.81,2.81,0,0,0,.65.07c.74,0,1.48,0,2.21-.13a3.83,3.83,0,0,0,2.65-2.55.63.63,0,0,0,0-.36.74.74,0,0,1,.13-.78c.13-.18.19-.38,0-.55s-.36-.12-.55,0-.21.17-.31.16C1551.73,56.92,1551.59,57.19,1551.56,57.59Zm-6.63-15.79c.14-.07.37-.1.42-.21a.35.35,0,0,0-.18-.53.54.54,0,0,0-.34.63l-.32.09C1544.69,42,1544.81,42.11,1544.93,41.8Zm8.2,6.68c-.05-1,0-1.78-.13-2.53a2.55,2.55,0,0,0-1.51-2.1,1.29,1.29,0,0,0-.55-.19,7.14,7.14,0,0,0-1.2.26c-.33.11-.63.33-1,.43a1.25,1.25,0,0,0-.6.46c-.38.4-.06,1-.54,1.4-.18.72-.37,1.44-.56,2.16a1,1,0,0,0,0,.24,7.83,7.83,0,0,1,.07,1.08,5.27,5.27,0,0,0,.57,2.81,1.75,1.75,0,0,0,.67.73c.37.26.8.19,1.19.31a1.3,1.3,0,0,0,1-.07,2.5,2.5,0,0,0,1.33-1.15c.16-.34.3-.69.48-1A7.7,7.7,0,0,0,1553.13,48.48Zm-5.64-6.19c-.32.35-.53.62-.78.84a.32.32,0,0,0-.06.51,2.69,2.69,0,0,1,.34.49c.22.48.27.52.74.29a1.81,1.81,0,0,0,.29-.19l-.1,0,.41-1.41Zm-1.71,12.54.22-.1c0-.21,0-.43,0-.65,0-.52-.39-1-.27-1.55,0-.25-.27-.34-.47-.13a3.47,3.47,0,0,0-.37.51l.18.61a.69.69,0,0,0-.39,1c0,.07-.05.19-.05.28a5.15,5.15,0,0,0,0,.54c.63-.11.21-.9.76-1Zm2.49-14,.26-.32c.13-.15.18-.34,0-.47a.53.53,0,0,0-.43-.05c-.33.1-.47.34-.31.64a.63.63,0,0,1,0,.61.49.49,0,0,0,.17.64c.28.15.48.6,1,.26Zm-5.46,2.63.53-.32a.58.58,0,0,0,.33-.77.43.43,0,0,0-.23-.23c-.07,0-.19.06-.25.13A1.77,1.77,0,0,0,1542.81,43.45Zm13,15.8a3,3,0,0,0,.28-.73,1.1,1.1,0,0,0-.18-.59s-.22-.08-.3,0a.36.36,0,0,0-.19.5.42.42,0,0,1,0,.29C1555.36,59,1555.58,59.13,1555.82,59.25ZM1544,64.36c0-.38.09-.6.1-.81a.3.3,0,0,0-.12-.24.29.29,0,0,0-.26.06c-.19.14-.42.33-.3.58S1543.73,64.19,1544,64.36Zm13.19-8.68a.67.67,0,0,0,.15-.79c-.1-.19-.25-.28-.45-.18s-.2.27-.06.45S1557.05,55.48,1557.19,55.68Zm-3.34,6.75c.62-.45.65-.68.12-1C1554,61.8,1553.45,62,1553.85,62.43Zm4.39-12c.22-.4-.07-.6-.29-.85C1557.54,50,1557.62,50.2,1558.24,50.44Zm-13.94,5-.22-1C1543.79,55.06,1543.8,55.09,1544.3,55.47Zm11.36-1.92-.14,0c-.27.29-.27.29,0,.64Zm.26,3.76h.15c.1-.19.13-.37-.15-.64ZM1544.63,46.8l-.11-.15-.23-.13a1.3,1.3,0,0,0-.14.29s.11.13.15.12A1.33,1.33,0,0,0,1544.63,46.8Zm13.85,2.45-.24-.21c-.06.07-.17.14-.17.21s.11.14.17.21Zm-7.68-7,.06.2a2.75,2.75,0,0,0,.3-.14.8.8,0,0,0,0-.16Zm-6.66,19.43c-.05.12-.11.19-.09.22a1.1,1.1,0,0,0,.2.23s.12-.08.11-.09A2.66,2.66,0,0,0,1544.14,61.72Zm-2.44-12,.06.51C1542,50,1542,49.92,1541.7,49.7Zm14.68,8a.64.64,0,0,0-.13-.12s-.1,0-.09.05a.34.34,0,0,0,0,.14Z"/>
    <path d="M1393.05,54a3.79,3.79,0,0,0-.47.66,2.38,2.38,0,0,1-1,1l-1.23.85a2.08,2.08,0,0,1-.36.2,5.47,5.47,0,0,0-1.06.4,1.89,1.89,0,0,1-1,.12c-.38,0-.76-.11-1.14-.13s-.95,0-1.43,0a1.65,1.65,0,0,1-.59-.23c-.29-.15-.56-.32-.83-.48,0,0-.14,0-.16-.07-.21-.38-.61-.5-.91-.76a2.06,2.06,0,0,1-.76-1.17c-.21-.94-.56-1.83-.84-2.75a3,3,0,0,1-.16-.89,29,29,0,0,0-.47-3.08c-.07-.56-.08-1.12-.11-1.68,0-.87-.13-1.75-.15-2.63s0-1.55.07-2.33c0-.48,0-1,0-1.45,0-.74.12-.84.87-.9.41,0,.82-.11,1.28-.18.36.38.39.37,1,.16a1.18,1.18,0,0,1,1.14,0c.12.09.35,0,.53,0s.34-.12.51-.16c.43-.09.61,0,.67.44.08.63.09,1.27.13,1.9,0,.2,0,.4,0,.6,0,.88.07,1.76.11,2.64s.07,2,.14,3a6.67,6.67,0,0,0,.25,1.16c.14.53.3,1.07.47,1.6a1.47,1.47,0,0,0,.26.37,2.14,2.14,0,0,1,.35.4c.21.44.64.59,1,.85a1.2,1.2,0,0,0,1-.15.56.56,0,0,1,.57-.25.62.62,0,0,0,.62-.38,7.54,7.54,0,0,1,.53-.73,2.82,2.82,0,0,0,.48-1.93,8,8,0,0,0-.23-3,.28.28,0,0,1,0-.18,8.55,8.55,0,0,0,0-2.81,22.61,22.61,0,0,1,0-2.47.89.89,0,0,1,.92-.92l3-.26c.5,0,1-.06,1.49-.07a.78.78,0,0,1,.66.8c-.14.82.08,1.63,0,2.45a4.59,4.59,0,0,0,.1.83c.05.42.11.84.13,1.26.06,1.2.09,2.41.13,3.61,0,.82.07,1.64.12,2.47,0,.58.09,1.15.15,1.73,0,.28.06.56.09.84s.08.83.1,1.25a3,3,0,0,1,0,.79,6.62,6.62,0,0,0,0,2.39.37.37,0,0,1-.27.47.92.92,0,0,1-.28.09c-1.21.09-2.42.19-3.63.24-.7,0-.7,0-.88-.68s-.43-1.54-.65-2.31A3.29,3.29,0,0,0,1393.05,54Zm-5.23,0-.55-.58c-.22,0-.41.22-.62,0s-.44-.08-.55.11-.32.53-.13.81l1.28.15Zm9.92-1.58c-.07-.24-.1-.41-.17-.58-.15-.34-.47-.36-.69,0a.62.62,0,0,0,.15.85c.12.09.32.18.42.14S1397.65,52.49,1397.74,52.38Zm-12.71-.1a.82.82,0,0,0-.25-1.12c-.16.14-.33.28-.48.44s-.47.35-.27.59.41-.14.65-.2Zm11.12.46c-.2.18-.39.26-.42.39-.12.39.45.91.93.85C1396.83,53.44,1396.21,53.29,1396.15,52.74Zm-8.36-.86a.68.68,0,0,0-.42.89.25.25,0,0,0,.46.12.69.69,0,0,0,.18-.41A3,3,0,0,0,1387.79,51.88Zm-1.42,3.37c.17-.24.17-.24.08-.53C1386.07,54.94,1386.07,54.94,1386.37,55.25Zm11-1.6c.29.14.44.08.5-.15a.21.21,0,0,0-.09-.19C1397.53,53.23,1397.49,53.44,1397.39,53.65Zm-.2-4.68.11,0c0-.09-.06-.18-.1-.27l-.1,0Z"/>
    <path d="M1453.21,53.27a4.38,4.38,0,0,1-1.45-2.67c-.07-.82-.26-1.62-.4-2.43a1.59,1.59,0,0,1-.06-.3c.17-1.17,0-2.41.66-3.5.28-.46.39-1,.63-1.54a4.29,4.29,0,0,1,1.51-1.89,1,1,0,0,0,.34-.37,2.19,2.19,0,0,1,1.38-1.24,4.57,4.57,0,0,0,1.56-.71,3.37,3.37,0,0,1,1.8-.57c.6-.06,1.2-.11,1.8-.11a8.4,8.4,0,0,1,1.32.11,7.73,7.73,0,0,1,2.62.84,4.43,4.43,0,0,1,2.06,2c.14.26.36.49.49.75s.28.7.42,1.05a3.27,3.27,0,0,0,.14.33c.25.4.53.79.77,1.19a1.34,1.34,0,0,1,.17.51c.06.58.1,1.16.13,1.74.05.9.1,1.81.12,2.71s-.38,1.14-1.16,1.12-1.8,0-2.7,0-1.81-.11-2.71-.11c-1.09,0-2.17.06-3.25.12-.92.06-1.25.66-.63,1.32s1.26,1.61,2.44,1.55a.36.36,0,0,1,.18,0,1.83,1.83,0,0,0,1.82-.15c.56-.25,1.11-.54,1.68-.75a1.31,1.31,0,0,1,1.91,1.21c0,.29,0,.54.4.66.11,0,.19.23.25.38.13.33.21.68.35,1a.47.47,0,0,1-.23.66,5.62,5.62,0,0,1-1.69.76,9.26,9.26,0,0,0-1.74.62,7.62,7.62,0,0,1-1.88.31,5.87,5.87,0,0,1-1,.1,11,11,0,0,1-1.13-.09,5.07,5.07,0,0,1-2.45-.73,1.18,1.18,0,0,0-.33-.12,2.62,2.62,0,0,1-1.34-.64.81.81,0,0,0-.42-.22c-.8-.16-1.15-.82-1.55-1.41a8.52,8.52,0,0,1-.53-.8A4.59,4.59,0,0,1,1453.21,53.27Zm4.56-7.71c.63.2,1.17.65,1.86.37.06,0,.15,0,.23,0h1.68l.41,0c.53,0,1.06,0,1.59,0a1.2,1.2,0,0,0,.53-.11c.1-.06.24-.27.21-.35-.16-.39-.14-.89-.64-1.1-.11,0-.18-.2-.27-.31-.25-.27-.48-.59-.94-.53a.27.27,0,0,1-.2-.09c-.49-.63-1.21-.2-1.79-.38-.69.35-1.39.69-2.07,1.06A1.3,1.3,0,0,0,1457.77,45.56Zm-2.37.77-.13.05c0,.15-.06.31-.11.46s-.12.33-.19.51a3.45,3.45,0,0,0,.49.27.38.38,0,0,0,.31,0,.34.34,0,0,0,0-.27,5.27,5.27,0,0,0-.19-.68A1.21,1.21,0,0,0,1455.4,46.33Zm.94,3.5c.24.22.42.21.55,0a.34.34,0,0,0-.08-.29C1456.54,49.41,1456.45,49.62,1456.34,49.83Zm4.13-7.92s-.09-.1-.12-.1-.08.07-.12.11l.15.14Z"/>
    <path d="M1528.21,58.13a.87.87,0,0,1-.08-.85.59.59,0,0,0,.08-.34,7,7,0,0,1,.23-1.88.65.65,0,0,0,0-.24c0-1.22-.08-2.45-.1-3.67a10.35,10.35,0,0,1,0-1.67,4.88,4.88,0,0,0-.16-1.12,3.46,3.46,0,0,1,0-1,1.82,1.82,0,0,0-.41-1.67c-.31-.35-.57-.76-.86-1.14a.37.37,0,0,0-.17-.16,2.69,2.69,0,0,0-1-.36,1.31,1.31,0,0,1-.77-.28c-.38.55-.49.72-1.11.54a7.86,7.86,0,0,1-.76,1.07,3,3,0,0,0-.7,1.94c-.14,1.11-.17,2.23-.23,3.35,0,.34.06.68.05,1,0,.68,0,1.35-.07,2,0,.22,0,.43,0,.65a3.36,3.36,0,0,0-.08.71c0,.61.13,1.23.21,1.84s-.13,1-.59,1.1a1.37,1.37,0,0,1-1.34-.66c0-.07-.07-.14-.15-.31a2.27,2.27,0,0,1-.13.38c-.06.11-.14.29-.24.3-.38.06-.76.3-1.17.09a1,1,0,0,0-.86,0,1.48,1.48,0,0,1-1.44-.05.55.55,0,0,1-.25-.35,3,3,0,0,1,0-.84,12.4,12.4,0,0,0,0-3.22,6.08,6.08,0,0,1-.06-2.33,1.06,1.06,0,0,0,0-.29,3.38,3.38,0,0,1,.07-1.61,1,1,0,0,0,.09-.41c-.07-.75-.16-1.51-.22-2.27a6.59,6.59,0,0,1,0-.77c0-1.58.09-3.16.13-4.73a1.57,1.57,0,0,1,.62-1.35l-.55-.48.76-.13a4.94,4.94,0,0,1,.65-.12c.62-.06,1.24-.07,1.86-.13s1.45.2,2.19.15c.09,0,.25.14.29.24a4.63,4.63,0,0,1,.13.83,9,9,0,0,0,.22,2.22c.09-.07.18-.1.2-.16a4.64,4.64,0,0,1,1.23-1.45,7.1,7.1,0,0,1,1.92-1.22,1.42,1.42,0,0,1,.46-.06,1.38,1.38,0,0,0,.41,0,3.31,3.31,0,0,1,2,0c.53.1,1,.23,1.57.37.17,0,.4.1.48.23a3.48,3.48,0,0,0,1.56,1.17,1.42,1.42,0,0,1,.69.72,3.52,3.52,0,0,0,.28.46c.35.63.71,1.24,1,1.88a4.24,4.24,0,0,1,.08,2.18,9.29,9.29,0,0,0,0,1.06c0,.3.12.6.12.89,0,.8-.08,1.59-.1,2.39s0,1.79,0,2.68a5.31,5.31,0,0,1-.16.87s0,0,0,.05c.23.43-.08.84-.06,1.26a8,8,0,0,1,0,1.19c0,.12-.05.23-.05.35,0,.68,0,.68-.65.83a1.46,1.46,0,0,1-.42,0c-.55,0-1.1-.09-1.65-.08a6.77,6.77,0,0,0-.87.19c-.27,0-.55.06-.82.09l-.41,0Zm-8.55-3.79a1.59,1.59,0,0,0-.57,1.25.23.23,0,0,0,.36.17A.89.89,0,0,0,1519.66,54.34ZM1531.09,57c0,.05,0,.16,0,.23a.67.67,0,0,0,.75.15.73.73,0,0,0,.44-.65c0-.2-.18-.26-.4-.15Zm.7-6.94c-.28-.15-.46-.08-.56.17a2.87,2.87,0,0,0-.17.57c0,.17,0,.38.21.43s.41-.08.45-.36S1531.77,50.33,1531.79,50Zm-2.19-5.39s.07.2.17.23.24-.12.27-.28a7.27,7.27,0,0,0,.18-.93c0-.1-.11-.21-.17-.32-.11.07-.28.12-.3.21A9.28,9.28,0,0,0,1529.6,44.64Zm-1.47-4-.8-.6c-.18.45-.13.85.11,1S1527.92,40.92,1528.13,40.61Zm-3.24,1.14.11.15a2.18,2.18,0,0,0,.52-.29c.35-.29.32-.39-.14-.7Zm6.27.69c.28-.39.28-.54,0-.89C1530.73,42,1530.74,42.13,1531.16,42.44Zm-4.35-1.1c.18.16.3.33.47.39s.26-.09.39-.14c-.06-.11-.09-.3-.17-.32S1527.09,41.08,1526.81,41.34Zm6.78,5.33a.47.47,0,0,0-.57-.37c-.06,0-.12.28-.08.39S1533.25,46.9,1533.59,46.67Zm-1.93.13c.12.26.23.46.54.38,0,0,.11-.15.09-.19C1532.18,46.74,1532,46.61,1531.66,46.8Zm1.08,9.33c.11-.32,0-.47-.31-.58C1532.27,56,1532.27,56,1532.74,56.13Zm-6.86-13.71.06.87C1526.31,42.72,1526.31,42.72,1525.88,42.42Zm.15-1.1c-.1.14-.21.22-.22.31s.12.16.19.24c.08-.08.21-.14.22-.23S1526.12,41.46,1526,41.32Zm4.68,2.1,0-.5s-.13,0-.16,0S1530.38,43.24,1530.71,43.42Zm-13,6.55c-.13-.06-.2-.11-.24-.1s-.15.09-.15.15.1.16.13.15A1.13,1.13,0,0,0,1517.73,50Zm15.72,5.27a.94.94,0,0,0-.21-.15s-.1.08-.09.12a.76.76,0,0,0,.09.18Zm-2.25-3.19.11-.1-.2-.23a.91.91,0,0,0-.11.12Zm-12.14,4.47,0,.11.27.07,0-.1Zm6.45-12.7,0-.09s0,0,0,0,0,.06,0,.09Zm-1.71-.56,0,0,0,0,0,0Zm2-2.53,0,0,0,0,0,0Z"/>
    <path d="M1405.81,43.93l1,.2c-.15-.53-.38-.89-.93-.83a1.8,1.8,0,0,1-.32-1.68,5.4,5.4,0,0,0-.1-2c-.08-.52.23-.87.26-1.32,0-.06.15-.14.23-.15a7.08,7.08,0,0,1,.89-.13,8.47,8.47,0,0,0,1,0,1.92,1.92,0,0,1,1.16.11c.48.2.64.35.66.86,0,.25,0,.49,0,.73a1.6,1.6,0,0,0,.19.36c.16-.15.34-.25.41-.39a3.73,3.73,0,0,1,3-1.9c.29-.06.57-.2.86-.23a8,8,0,0,1,1.31-.08c.36,0,.77-.07,1.16,0a2.75,2.75,0,0,1,.79.23c.45.18.82.54,1.39.45.2,0,.49.24.69.43.56.52,1.09,1.07,1.63,1.62a2,2,0,0,1,.21.35,6.3,6.3,0,0,0,.53.87,4,4,0,0,1,.63,1.41A3.34,3.34,0,0,0,1423,44a.2.2,0,0,1,0,.11,17.07,17.07,0,0,0,.39,2.48c.06.86.16,1.72.22,2.58,0,.25-.07.51-.06.77,0,.44.12.89.13,1.33s0,1.15,0,1.73,0,1,0,1.45c0,.21-.09.42-.12.64a2.56,2.56,0,0,0,0,.39,7.89,7.89,0,0,1,0,1c0,.15-.12.4-.22.42a2.18,2.18,0,0,1-.76,0s-.08-.17-.08-.26.07-.22,0-.29a1.38,1.38,0,0,0-.27-.27c-.07.1-.21.2-.22.3,0,.63,0,.66-.63.74a3.5,3.5,0,0,1-1.67,0,.2.2,0,0,0-.17,0c-.39.32-.82,0-1.22.07-.24,0-.37-.13-.38-.38v-.12c.06-.82.13-1.63.18-2.45a10.84,10.84,0,0,0,0-1.14c0-.2-.06-.4,0-.6.11-1.14,0-2.28,0-3.42a23.72,23.72,0,0,0-.13-2.38,6.93,6.93,0,0,0-.22-.87,6.57,6.57,0,0,1-.29-1.53c0-.23-.2-.46-.32-.69s-.19-.19-.2-.29c0-.34-.12-.59-.54-.68a2.41,2.41,0,0,0-.85-.14,4.33,4.33,0,0,0-1.24.06,5.11,5.11,0,0,0-2.1,1c-.21.22-.5.36-.37.74a.33.33,0,0,1,0,.17,5.54,5.54,0,0,0-.4,2,.82.82,0,0,0,0,.35,12,12,0,0,1,.36,4.47.57.57,0,0,0,0,.29,4.06,4.06,0,0,1,.16,1.55l.12,3.19a2,2,0,0,1,0,.42c0,.32-.21.43-.55.36a17.58,17.58,0,0,0-2.81-.14,9.4,9.4,0,0,0-1.76.07c-.42.07-.91-.49-.94-1,0-.34,0-.68,0-1s-.09-.72-.09-1.08A3.73,3.73,0,0,1,1406,53a1,1,0,0,0,0-.81,1.28,1.28,0,0,1-.11-.58c0-.62.07-1.24.08-1.86,0-.28-.09-.56-.1-.84a5.61,5.61,0,0,1,0-1.53,6.18,6.18,0,0,0,0-1.87C1405.78,45,1405.81,44.52,1405.81,43.93ZM1418,42.84c.24.53.67.56,1.15.56l.3-.61a3.53,3.53,0,0,0-.39-.69c-.25-.28-.51,0-.76,0Zm-2.53-2.52c.44.17.78.24,1.09,0a.42.42,0,0,0,.1-.31.26.26,0,0,0-.23-.11c-.26,0-.37-.07-.43-.3a2.54,2.54,0,0,0-.21-.36Zm-4.64,9.14a3.6,3.6,0,0,0-.4-.39c-.07,0-.29,0-.3,0a2.66,2.66,0,0,0-.17.79c0,.12.19.25.33.42Zm1.08-8.61-.7.74c.3.23.56.28.78.09S1412.14,41.19,1411.87,40.85Zm-2.2,9.39c-.45.21-.58.37-.54.65s.23.33.43.18S1409.82,50.64,1409.67,50.24Zm-2.73.66c.12.24.21.43.31.61s.17,0,.22,0c.23-.17.1-.39,0-.6a.13.13,0,0,0,0-.06l-.26-.25Zm10-12.16a1.48,1.48,0,0,0,.27.31c.19.13.34,0,.48-.11s.2-.34,0-.47a.55.55,0,0,0-.42,0A1.42,1.42,0,0,0,1416.89,38.74Zm-7,12.88c-.15.29-.29.5-.39.73a.26.26,0,0,0,.07.25.29.29,0,0,0,.27,0C1410.2,52.45,1410.23,52.13,1409.91,51.62Zm-1.81-8.87c.38-.24.89-.14,1.06-.64-.32-.22-.37-.26-.44-.14C1408.56,42.25,1408,42.19,1408.1,42.75Zm11.68-1c-.16.16-.32.25-.34.35a.27.27,0,0,0,.35.3c.13,0,.24-.16.36-.24Zm-.8,3.88-.16.68c.26.13.42.07.49-.13S1419.37,45.72,1419,45.6Zm-9.9-4.71c-.1.3-.17.54.14.71C1409.5,41.2,1409.5,41.19,1409.08,40.89Zm-.62-.79c-.12.13-.27.23-.25.29a.52.52,0,0,0,.24.27s.22-.13.22-.18A1.49,1.49,0,0,0,1408.46,40.1Zm-1.12.6c-.11.15-.24.26-.22.31a.49.49,0,0,0,.26.25s.21-.14.2-.2A1.39,1.39,0,0,0,1407.34,40.7Zm2.24,5.74c.38-.14.48-.24.39-.42s-.13-.13-.17-.11C1409.58,46,1409.39,46.15,1409.58,46.44Zm1.71-5.69V40.6c-.2-.11-.39-.18-.58.15Zm5.28.39v.51C1417,41.38,1417,41.38,1416.57,41.14ZM1408.83,39c-.31,0-.51.09-.51.39C1408.66,39.56,1408.72,39.32,1408.83,39Zm-.29,9.24h.14c.12-.25.12-.25-.09-.5Zm9.73-4.6c-.08.15-.18.26-.15.31s.16.13.24.2.13-.14.11-.18A1.92,1.92,0,0,0,1418.27,43.64Zm-10.85,6.3c-.11-.09-.19-.2-.24-.18a.28.28,0,0,0-.19.19c0,.07.1.15.15.22Zm2,0-.09-.13a2.73,2.73,0,0,0-.25.2s0,.09.06.14Zm1.19,5.7a1.61,1.61,0,0,0,.13-.28s-.11-.1-.12-.09a.55.55,0,0,0-.18.19S1410.5,55.59,1410.58,55.68Zm-3.1-8.59-.3-.12a.42.42,0,0,0,0,.15.11.11,0,0,0,.09,0A1.76,1.76,0,0,0,1407.48,47.09Zm3,7.12a1.76,1.76,0,0,0,.12-.23s-.09-.07-.11-.06a.17.17,0,0,0-.1.12S1410.42,54.12,1410.47,54.21ZM1421,51.85l0,0,0,0s0,0,0,0ZM1406.46,39l0,0s0,0,0,0l0,0Z"/>
    <path d="M1430.4,44.7l.42-.35-.29-.26c-.26-.28-.21-.52.12-.73a2,2,0,0,0,.46-.37.41.41,0,0,0-.06-.59c-.22-.13-.34.05-.45.18a3.58,3.58,0,0,1-.47.51c-.13-.82-.85-1.3-1-2.07a1.86,1.86,0,0,0-.31-.57,3,3,0,0,1-.33-1.62.51.51,0,0,1,.79-.39,2.32,2.32,0,0,0,1.22.09q1.41-.08,2.82-.12c.38,0,.77,0,1.15,0s.46.15.56.51a15.79,15.79,0,0,0,.52,1.65c.08.21.31.35.51.56a3.86,3.86,0,0,0,.42,2,8.87,8.87,0,0,1,.39,1.2,5.8,5.8,0,0,1,.41,1.12,11.33,11.33,0,0,0,.9,2.26c0,.07,0,.17.09.22a1.3,1.3,0,0,1,.42,1s0,.09.1.16c.42-.12.47-.51.51-.81a9.32,9.32,0,0,1,.62-2.07c.35-.93.58-1.91.87-2.87.17-.53.34-1.06.55-1.57.12-.31,0-.6.09-.93s.17-.87.57-1.19c.07-.06.06-.25.07-.39,0-.62.3-.83.91-.81a5.71,5.71,0,0,0,1.31-.12,4.2,4.2,0,0,1,1.73,0,1,1,0,0,0,.48,0c.49-.18.89.07,1.41.19a5.14,5.14,0,0,1-.29,1,9.76,9.76,0,0,0-.88,2.46c-.1.5-.3,1-.45,1.48a7.56,7.56,0,0,1-.4,1.19,22.69,22.69,0,0,0-.73,2.25c-.31.71-.65,1.41-1,2.12-.1.24-.13.51-.24.75-.21.46-.19,1-.63,1.4-.11.09-.12.33-.16.5a2.05,2.05,0,0,1-.15.68c-.52.79-.67,1.74-1.15,2.55a.68.68,0,0,0-.11.34,5.35,5.35,0,0,1-.67,1.85.6.6,0,0,1-.52.43c-.13,0-.26.1-.39.12a1.11,1.11,0,0,1-.51,0,2.91,2.91,0,0,0-1.82-.17,1.82,1.82,0,0,1-.66,0l-1.56-.11a.51.51,0,0,1-.54-.36c-.33-.86-.74-1.68-1-2.54-.25-.69-.39-1.42-.62-2.12a9.19,9.19,0,0,0-.66-1.59,4.69,4.69,0,0,1-.55-1.76,5,5,0,0,0-.47-1.52,5.65,5.65,0,0,0-.66-1,.79.79,0,0,1-.18-.79.6.6,0,0,0-.25-.77C1430.52,45,1430.48,44.83,1430.4,44.7Zm13,4.84a10.16,10.16,0,0,0-.09-1.11c0-.1-.18-.18-.27-.26-.08.1-.23.2-.23.3a7.36,7.36,0,0,0,.14,1.05c0,.08.18.21.25.19S1443.34,49.55,1443.36,49.54Zm-5,1.85,0,.16c.35.27.72,0,1.05-.11s.45-.62.41-1a1,1,0,0,0-.32.44.61.61,0,0,1-.63.44A2.4,2.4,0,0,0,1438.33,51.39Zm-3.24-6c.33-.53.25-.85-.2-1a.39.39,0,0,0-.31.06.29.29,0,0,0,0,.27A7.61,7.61,0,0,0,1435.09,45.4Zm8.41-.89a.57.57,0,0,0,.06-.75c-.12-.17-.28-.28-.5-.15C1443,44.12,1443,44.12,1443.5,44.51Zm-.29,1.13a.59.59,0,0,0,.33-.61c0-.43-.16-.49-.6-.23Zm-3.72,3.81c-.14-.1-.24-.22-.31-.2s-.19.13-.28.2c.09.09.16.25.26.26S1439.34,49.57,1439.49,49.45Zm3.36-3.23c.12-.26,0-.4-.14-.49s-.29-.17-.4.13Zm2.38-3.11-.15.07c0,.23,0,.41.38.43Zm-10.17,2.56a1.16,1.16,0,0,0-.14.25s0,.1.07.15.15-.07.16-.12S1435.11,45.82,1435.06,45.67Zm1,2.08c0,.11-.1.17-.1.23s0,.08.09.12a1.92,1.92,0,0,0,.13-.17S1436.18,47.85,1436.11,47.75Zm.43,3.26a1,1,0,0,0-.14.18s.08.1.1.1a1,1,0,0,0,.17-.14Zm-4.14-3.46a1.65,1.65,0,0,0-.16-.09s-.08,0-.07.07,0,.1.08.11S1432.33,47.6,1432.4,47.55Zm8.2,2.74-.13-.06s-.06.07,0,.08l.13.1Zm-4.53,4.94-.09,0,0,0s0,.06.06.06S1436.05,55.25,1436.07,55.23Zm6.82-8.15-.06-.07s0,0,0,0a.32.32,0,0,0,0,.09ZM1433.53,42l0,0s0,0,0,0,0,0,0,0Z"/>
    <path d="M1489.36,53.36a29.05,29.05,0,0,0,.21-2.94,32.65,32.65,0,0,0,.08-3.28c0-.33.09-.68.08-1,0-.58-.1-1.16-.15-1.74a.84.84,0,0,1,0-.45,1.86,1.86,0,0,0,0-1.41,1.65,1.65,0,0,1,0-.63c0-.35.12-.7.16-1.06s.07-.75.1-1.13c0-.08,0-.18,0-.24-.36-.57,0-1.12,0-1.68,0-.75,0-1.49,0-2.24,0-.32-.06-.63-.09-.95s-.08-.76-.1-1.14a1.47,1.47,0,0,1,0-.66,2.9,2.9,0,0,0,.11-1.46c0-.65.15-.73.74-.94a10.11,10.11,0,0,1,2.16-.39,6.4,6.4,0,0,1,2.14-.09c.61.13.69.24.67.84,0,1.06-.09,2.12-.12,3.19,0,.67,0,1.35,0,2,0,.86-.11,1.72-.11,2.59,0,.69.12,1.39.12,2.08,0,1,0,2-.09,2.94,0,.21,0,.41,0,.61A23.32,23.32,0,0,1,1495,48a9.64,9.64,0,0,0,0,2.15,8.75,8.75,0,0,1,0,1.14c0,.81,0,1.63,0,2.44,0,.58,0,1.16,0,1.75a7.69,7.69,0,0,0,0,.83c0,.37.15.75-.12,1.1a1.27,1.27,0,0,1-1.13.41c-.42,0-.84,0-1.26,0a4,4,0,0,1-.59-.07,2.84,2.84,0,0,0-1.5.06c-.37.15-.93-.31-1-.71a3,3,0,0,1-.08-.77,5.56,5.56,0,0,0,0-1.82,6.13,6.13,0,0,1,.11-1.19Zm3.78-9.28c.8-.89.91-1.27.54-1.86-.29.22-.57.41-1,.15s-.44.08-.61.25a.47.47,0,0,0-.17.57C1492.14,43.77,1492.63,43.91,1493.14,44.08Zm.09,1.11c-.06.1-.15.25-.23.41a.6.6,0,0,0,.13.72,1.1,1.1,0,0,0,.74.24.44.44,0,0,0,.29-.62c-.1-.28.06-.49.18-.72a.88.88,0,0,0,.06-.28Zm-1.44-10.34a.73.73,0,0,0-.14-1.08c-.22-.18-.35-.07-.6.19C1491.71,34,1491.25,34.74,1491.79,34.85Zm1.62-.51a4.51,4.51,0,0,1-.17.68,1.8,1.8,0,0,0,0,.4c.14,0,.32,0,.42-.1C1494,35.05,1493.91,34.67,1493.41,34.34Zm-.88,16.16-.66.48c.34.35.44.4.58.31S1492.68,50.86,1492.53,50.5Zm.89-2.61c.3.2.54.29.72,0a.39.39,0,0,0-.07-.39C1493.73,47.33,1493.65,47.65,1493.42,47.89Zm-1.29-.59c-.15-.16-.27-.34-.31-.33a1.66,1.66,0,0,0-.41.3c.1.1.19.27.3.28S1492,47.42,1492.13,47.3ZM1491,41.53c-.27.35-.26.36.25.57C1491.38,41.8,1491.22,41.65,1491,41.53Zm.15,14.66c-.13-.19-.28-.25-.42,0a.28.28,0,0,0,0,.25C1491,56.56,1491.06,56.35,1491.14,56.19Zm1.29-2c-.1.15-.12.3.07.39a.27.27,0,0,0,.22-.11C1492.76,54.31,1492.64,54.22,1492.43,54.23Zm-.49-9.85h.19l0-.42h-.15Zm1.34-5.66c-.11-.09-.19-.2-.25-.19a.27.27,0,0,0-.16.2.25.25,0,0,0,.18.19C1493.11,38.92,1493.18,38.81,1493.28,38.72Zm-.14,17.78,0-.14-.37-.11c0,.14,0,.22.1.24A.53.53,0,0,0,1493.14,56.5Zm-.66.6.3.11a.83.83,0,0,0,0-.15.15.15,0,0,0-.09,0A.93.93,0,0,0,1492.48,57.1Zm-1-.34a.63.63,0,0,0-.15-.1s-.09,0-.09.05,0,.11.07.13S1491.35,56.8,1491.43,56.76Zm-.49-24.9a.64.64,0,0,0-.13-.12s-.1,0-.09,0a.44.44,0,0,0,0,.15Zm-.76,21.85.3.11a.83.83,0,0,0,0-.15.15.15,0,0,0-.09,0Zm1.73-3.75-.12.3a.83.83,0,0,0,.15,0,.11.11,0,0,0,0-.09A1.24,1.24,0,0,0,1491.91,50Zm.68-10.72-.15-.13-.13.17s.1.06.15,0S1492.54,39.28,1492.59,39.24Zm-2.16,13.52-.06-.07,0,0a.36.36,0,0,0,0,.09Zm3.83,1.76,0-.09,0,0s-.06,0,0,.06S1494.24,54.49,1494.26,54.52Zm-.13-13.2-.09,0,0,0s0,.06,0,.06S1494.11,41.34,1494.13,41.32Zm-1.54,3.15,0,0,0,0s0,0,0,0Z"/>
    <path d="M1508.55,51.56c.68.53.7.58.45,1.22l-.31-.13c-.23-.08-.43,0-.48.21a1.2,1.2,0,0,1-.5.72c-.29.24-.23.49.11.64.13.06.27.08.4.13.43.18.57.1.64-.36,0-.19,0-.39.05-.63.33.11.37.28.32.53a6.48,6.48,0,0,0-.08.77c-.05.94-.08,1.89-.13,2.83,0,.55-.16.67-.7.66a2,2,0,0,1-.54,0,.71.71,0,0,0-.67.11,1,1,0,0,1-1,0,1.19,1.19,0,0,0-1-.07,1.63,1.63,0,0,1-1.27-.09,1.08,1.08,0,0,1-.44-1.11c0-.45.14-.91.19-1.36,0-.14-.05-.28-.05-.41a2,2,0,0,1,.07-.65,2.8,2.8,0,0,0,0-1.41,6.64,6.64,0,0,1,0-2,1.82,1.82,0,0,0-.37-1.63,4.83,4.83,0,0,0,.33-1.95,7.81,7.81,0,0,1,.1-1,11.29,11.29,0,0,0,0-1.84,6.51,6.51,0,0,1,.13-1.07,2.07,2.07,0,0,0,.07-.41,9.28,9.28,0,0,1-.17-1.72,10.41,10.41,0,0,0,0-1.37c0-.54.21-.77.73-.82.26,0,.5-.11.76-.14a3.25,3.25,0,0,1,.82,0,4.93,4.93,0,0,0,1.67.05,1.41,1.41,0,0,1,.5,0c.2,0,.39.08.59.08.37,0,.48,0,.51.4a7.75,7.75,0,0,1,0,2.8c-.11.43-.1.85-.17,1.27a2.54,2.54,0,0,0,.17,1,1.08,1.08,0,0,1,0,.81.76.76,0,0,0,0,.59c.3.64,0,1.3.07,2a4.49,4.49,0,0,1,0,.82,3.21,3.21,0,0,1-.07.53A6.94,6.94,0,0,1,1508.55,51.56Zm-3-10.42h-.22c-.24.25,0,.54,0,.89.16-.07.37-.12.37-.15A6.22,6.22,0,0,0,1505.57,41.14Zm1,.12-.14-.15-.53.32c.24.09.39.2.45.16S1506.5,41.38,1506.57,41.26Zm1.29,15.68-.1,0a1.07,1.07,0,0,0-.15.22c0,.05,0,.12.06.18h.11ZM1505,43.47a.64.64,0,0,0-.13-.12s-.1,0-.09,0a.39.39,0,0,0,0,.14Zm1.27-2.7-.06-.1a.54.54,0,0,0-.12.09s0,.06,0,.1Z"/>
    <path d="M1481.75,39.92l-.25,0c-.39,0-.46.14-.26.47a5,5,0,0,1,.66,2.8c0,.78-.09,1.56-.08,2.34a1,1,0,0,0,0,.3,3.87,3.87,0,0,1-.1,1.66,2.4,2.4,0,0,0,0,.6c.07.55.19,1.11.21,1.66s-.09,1-.1,1.44c0,.32.06.63.09.95a3,3,0,0,1,0,.42c0,.66-.07,1.32-.1,2,0,0,0,.09,0,.12.37.72-.21,1.27-.32,1.89a5.65,5.65,0,0,1-1,.48,5,5,0,0,1-2.61.17c-.17,0-.38.08-.55.12a4.6,4.6,0,0,1-.76-.29c-.16-.09-.4-.27-.39-.39.06-.73-.19-1.43-.14-2.14a1.63,1.63,0,0,1,.13-.4c.45.53,1,.25,1.51.41.17-.43.11-.6-.24-.58a1,1,0,0,1-1-.48.62.62,0,0,0-.27-.24c-.32-.15-.31-.38-.26-.69.07-.52.06-1.06.08-1.58a.13.13,0,0,0,0-.12c-.44-.42-.3-1-.29-1.48,0-1,.07-2.09.12-3.13,0-.13.09-.26.11-.4a3.16,3.16,0,0,0,.08-1.17,9,9,0,0,1-.31-2.24,15.63,15.63,0,0,1,0-1.81,6.54,6.54,0,0,1,.2-1.24c0-.25.59-.55.87-.53s.68.09,1,.13a.47.47,0,0,0,.29,0,1.78,1.78,0,0,1,1.11-.18,7.06,7.06,0,0,1,1.72,0c.67.13.73.12.81.79C1481.71,39.66,1481.73,39.77,1481.75,39.92Zm-2.44,15.46c.61.41.68.41,1,.1l-.39-.78s-.16,0-.19,0c-.35-.37-.69-.18-1,0a1.93,1.93,0,0,1-.45.06l-.13,1.07C1478.56,56,1478.56,56,1479.31,55.38Zm.9-12.57-.26-.58s0,0,0-.06a.52.52,0,0,0-.7-.27c-.34.22-.5.65-.3.9a2,2,0,0,1,.37.87,1.82,1.82,0,0,0,.39.65s.22,0,.3,0a.31.31,0,0,0,0-.26,1.4,1.4,0,0,0-.33-.24,2.26,2.26,0,0,0,.07-.43,3.22,3.22,0,0,0,0-.5Zm-1.08,4.74c.11-.59-.08-.76-.86-.79C1478.25,47.3,1478.36,47.4,1479.13,47.55Zm1.41,6.16-.37-.7-.66.68A.83.83,0,0,0,1480.54,53.71Zm-2.1-8c-.47.52-.47.62,0,.82A1,1,0,0,0,1478.44,45.72Zm-.22,5.1c-.13-.29-.28-.27-.46-.17s-.2.23,0,.45Zm.71.28c-.26-.07-.35.08-.43.25s0,.13.08.13c.23.06.3-.1.36-.28C1479,51.19,1478.94,51.16,1478.93,51.1Zm1.11-2c0-.11.11-.18.09-.21a1.11,1.11,0,0,0-.2-.24s-.12.08-.11.09A2.16,2.16,0,0,0,1480,49.11ZM1478,43c-.08-.07-.13-.16-.18-.16a.2.2,0,0,0-.16.12s.07.15.12.16S1477.9,43.1,1478,43Zm-1.73,12.12.3.11a.74.74,0,0,0,0-.14s-.06-.05-.09-.05Zm2.39-1.19a.75.75,0,0,0-.06.13s.07.06.08,0a.64.64,0,0,0,.1-.13Zm2-8.36.09,0s0,0,0,0l-.09,0Zm-1.37-.91-.09,0s0,0,0,0l.07.06S1479.23,44.72,1479.25,44.7Zm-2.63,6.79,0,0,0,0,0,0Z"/>
    <path d="M1478.9,37.2l-1.19-.32c-.23-.06-.47-.08-.7-.14a4.35,4.35,0,0,1-.61-.2,1.47,1.47,0,0,1-.91-1.15,8.77,8.77,0,0,0-.5-1.14,3.38,3.38,0,0,1,.4-2.65.71.71,0,0,1,.22-.2l1.45-.94a2.22,2.22,0,0,1,1.66-.37c.41.08.83.11,1.24.22a1.91,1.91,0,0,1,1.15.78c.38.63.69,1.31,1,2a.93.93,0,0,1,0,.24,4,4,0,0,1-.87,2.78A2.82,2.82,0,0,1,1478.9,37.2Zm.12-5.81a4.46,4.46,0,0,0-.65.23.29.29,0,0,0,0,.53,5.16,5.16,0,0,0,1.22.29c.13,0,.31-.2.41-.35a.36.36,0,0,0-.1-.35A9.29,9.29,0,0,0,1479,31.39Zm-3,.6c-.09.33-.16.56-.2.79s0,.38.22.34.58.24.74-.14a.36.36,0,0,0,0-.32C1476.51,32.44,1476.29,32.26,1476,32Zm4.75,2.5c-.66.19-.76.35-.65.92l.84-.41Zm-3.33-2.19c.44-.35.44-.35,0-.58C1477.31,31.88,1477.13,32,1477.41,32.3Zm2,3.22v.54C1479.86,35.86,1479.86,35.86,1479.46,35.52Z"/>
    <path d="M1505.71,31a.34.34,0,0,0,.21,0A.89.89,0,0,1,1507,31a9.63,9.63,0,0,0,1.06.4.51.51,0,0,1,.21.1,13.5,13.5,0,0,1,1.06,1.21,2.42,2.42,0,0,1,.27.9,3.4,3.4,0,0,1-.43,2.51.68.68,0,0,1-.38.35,1.12,1.12,0,0,0-.73.57.79.79,0,0,1-.8.44.38.38,0,0,0-.24,0c-.76.45-1.49,0-2.22-.09a1.28,1.28,0,0,1-.86-.62,1.3,1.3,0,0,0-.22-.29,2.16,2.16,0,0,1-.76-1.64c0-.16-.06-.31-.08-.47a2.47,2.47,0,0,1,.14-1.23,2.87,2.87,0,0,1,1.5-1.77A2.05,2.05,0,0,1,1505.71,31Zm.69,5.38a8.44,8.44,0,0,0,.93-.31c.28-.13.7-.17.64-.69l-.7-.15-.83.66C1506.19,36.06,1506.22,36.23,1506.4,36.37Zm-2-1.85c0-.36,0-.61-.06-.85a1,1,0,0,0-.16-.38.35.35,0,0,0-.3-.09.37.37,0,0,0-.14.29,3.91,3.91,0,0,0,.07.76,2.37,2.37,0,0,0,.2.47Zm.06,1.37c.26.47.37.51.7.2C1505,35.91,1504.8,35.69,1504.48,35.89Zm2.51-3.65a1,1,0,0,0-.38-.06c-.08,0-.13.15-.2.23s.14.15.22.16S1507,32.52,1507,32.24Zm-1.31-.64,0,.17c.13.1.26.13.38,0s0-.13,0-.2Zm-.37.35-.15-.14c-.06.09-.13.18-.19.28l.07.08Z"/>
    <path d="M1492.81,43.13a.45.45,0,0,1-.18,0s-.06-.07-.05-.08a.58.58,0,0,1,.12-.1Z"/>
  </g>
  <path d="M1374.24,31.79a4.79,4.79,0,0,1-.3,1.19c-1.09,2-.91,4.38-2.14,6.45-1.42,2.39-2,5.25-3,7.88-.79,2-1.67,3.95-2.59,5.89-.81,1.71-1.76,3.36-2.6,5.06-.33.67-.57,1.2-1.52.91a1.62,1.62,0,0,1-1.18-1.8c0-.56,0-1.12,0-1.68a2.57,2.57,0,0,1,.14-.92c1.23-2.81,2.51-5.61,3.72-8.43.35-.81.43-1.73.76-2.54.88-2.17,1.86-4.3,2.75-6.46.7-1.73,1.34-3.5,2-5.26a2.38,2.38,0,0,1,3.66-1.09C1374.1,31.19,1374.15,31.58,1374.24,31.79Z"/>
</svg>
