<svg id="Layer_1" data-name="Layer 1" xmlns="http://www.w3.org/2000/svg" viewBox="0 0 1609.81 309.6">
  <g id="left-speaker">
    <path id="speaker-l" class="purple" d="M157.22,223.23a30.76,30.76,0,0,1-.76-4.63c-.06-4,.09-8.06.11-12.09,0-3.79,0-7.59,0-11.38a32,32,0,0,1,.09-4.6c.25-1.69-.47-3.43,0-4.93s.07-3,.12-4.46c0-1,.46-2.17-.56-3.22a2.57,2.57,0,0,1,0-2.72,1.43,1.43,0,0,0,.18-1.29,2.41,2.41,0,0,1-.19-1.68c.48-1-.44-2,0-2.73.68-1.07-.12-1.79-.22-2.66a3.9,3.9,0,0,1,.26-1.36c.08-.33.37-.79.25-1-.69-.92-.25-1.78-.07-2.7a8.54,8.54,0,0,0-.2-3.51,33.65,33.65,0,0,1-.86-7.91c0-2.88.23-5.93-1.25-8.25.31-1.56.56-2.8.81-4-.9-1.43-.09-3.05-.5-4.51a8.45,8.45,0,0,1,.08-3.47c.37-2.87.92-5.7.3-8.66a7.35,7.35,0,0,1,.23-5.07c.24-.46,0-1.17.5-1.61-.14-1.69.76-3.49-.68-5.05a1.65,1.65,0,0,1,0-2c.17-.29.38-.77.25-1a2,2,0,0,1,0-2.3.69.69,0,0,0-.11-.65c-.92-.75-.49-1.77-.54-2.67a21.14,21.14,0,0,0-.19-4.23,19.89,19.89,0,0,1-.51-7.06c.26-2.59-.51-4.87-1.15-7.26l-2.45-.28a17.6,17.6,0,0,0-2.47,1.9c-.34.4-.3,1.11-.51,1.64a2,2,0,0,1-.63.84c-.93.72-1.87,1.42-2.86,2.07-.7.46-1.49.89-1.69,1.73a4,4,0,0,1-2.84,2.88c-1,.37-1.87,1-2.84,1.46a3.07,3.07,0,0,0-1.73,1.66,7.11,7.11,0,0,1-1.1,1.34c-1.91,2.38-4.44,4.25-5.79,7.1-.14.3-.5.49-.76.74A100,100,0,0,0,117.12,116a14.51,14.51,0,0,1-1.67,1.83c-2,1.92-4.25,3.67-5.88,6a7.47,7.47,0,0,1-7.4,3.22,34,34,0,0,0-11.25.62,4.53,4.53,0,0,1-3.11-.28c-.65.49-1.15,1.16-2.13,1.1a13.72,13.72,0,0,0-3.07.15,4.29,4.29,0,0,0-1.37.8,10.76,10.76,0,0,1,.43,2.94c-.28,2-.82,3.91-.26,5.92a6.91,6.91,0,0,0-.18,4.21c.38,1.5-.67,3,.33,4.47.15.22,0,.71-.11,1a4.58,4.58,0,0,0-.13,2.41,42.23,42.23,0,0,1,.13,6.65,7.58,7.58,0,0,0,0,3.11,2,2,0,0,1-.27,1.67c-1.08,1.25-.85,2.62-.65,4,.12.81.27,1.62.36,2.44a30.18,30.18,0,0,0,1.55,7.54c-.78,2.44-.86,3.49-.49,7.4l1.86.8c.1-.17.18-.36.32-.42a1.17,1.17,0,0,1,1.73.64c.24.55.54,1,1.33,1l1.28-1.54a3.06,3.06,0,0,1,.74-.23q5.34,0,10.68,0a2.68,2.68,0,0,1,1,.21,4.28,4.28,0,0,0,3.92-.11c2.29.87,3.58,2.64,5,4.18.94,1,1.09,2.52,1.27,3.91a14.21,14.21,0,0,1,4.39,3,27.8,27.8,0,0,0,5.2,4.2,11.23,11.23,0,0,1,4.58,5.79l3,1.12c1.61,1.71,3.1,3.2,4.49,4.78,1.08,1.21,2.51,2.17,3,3.88a1.34,1.34,0,0,0,.64.82,6.8,6.8,0,0,1,3.36,2.41c1.79,0,2.26,1.37,2.84,2.7a14.6,14.6,0,0,0,1.32,2.09l1.75-.25,2.84,3.74c1.74.47,3.38.8,4.92,1.37,1,.35,1.8.64,2.6-.14s-.23-1.57,0-2.48ZM84,139.51c1.24-.44,2.07-.31,2.22,1.19Zm2,33.76a4.76,4.76,0,0,1-.61-.19l.25-.23.62.23C86.22,173.14,86.12,173.28,86,173.27Zm1.68,2.78c0-.13,0-.27,0-.41.06.08.12.15.17.23ZM88.88,133v-2.23c1.61-.53,3.1-1.59,5-.37C93,132.68,90.81,132,88.88,133Zm1,22.37a3.7,3.7,0,0,1-.16-.57c0-.06.12-.15.19-.22a2.84,2.84,0,0,1,.16.57C90.11,155.18,90,155.27,89.91,155.34Zm1.48,6.73c.38.2.65.26.75.42a.64.64,0,0,1,0,.58,9.27,9.27,0,0,1-1.55.57s-.34-.49-.29-.54C90.63,162.71,91,162.38,91.39,162.07Zm-.49,9c-.17,0-.54-.11-.55-.21a4.57,4.57,0,0,1,.18-1.11,7,7,0,0,1,.72.89C91.29,170.73,91.05,171.05,90.9,171.08Zm.34,7.59c-.06-.12.12-.34.2-.51a1.48,1.48,0,0,1,.14.32,4.73,4.73,0,0,1,0,.53A1,1,0,0,1,91.24,178.67Zm.57.68,0-.08.22.14C91.94,179.39,91.84,179.39,91.81,179.35Zm.3-12.67c-.18.06-.47.15-.57.06a2,2,0,0,1-.52-.81c0-.16.14-.41.25-.59a.33.33,0,0,1,.29,0c.3.3.57.62.82.89C92.22,166.51,92.19,166.66,92.11,166.68Zm1.23-11.76a7.77,7.77,0,0,1-1.12-.33c.54-.16.82-.26,1.11-.32.07,0,.24.15.22.21S93.39,154.93,93.34,154.92Zm-.29-1.67c.12-.42.22-.73.33-1.11l2.71,1.11Zm4-1.43-.07-.2.19,0Zm.92,22.84c-.07,0-.16-.13-.24-.2l.57-.21.24.21A3.85,3.85,0,0,1,97.94,174.66Zm-.15-24.16-1.39-.87c.14-.69.66-.39,1-.42a7.07,7.07,0,0,1,1.32.18Zm.37-2.26a.72.72,0,0,1-.52-.36.77.77,0,0,1,.15-.63,1,1,0,0,1,1.52,0C99.28,148,98.8,148.24,98.16,148.24Zm2.68,10.3a2.78,2.78,0,0,1-.55.59l-.56-.41.89-.74C100.7,158.17,100.9,158.41,100.84,158.54Zm5.92-3.65c.63,1,.09,1.55-.41,2.17l-.86-.38Zm-5.46-19.53s-.18-.16-.19-.26a.49.49,0,0,1,.08-.33c.59-.92,1.59-.26,2.3-.75C103,135,102.06,135,101.3,135.36Zm1.81,29.55c1-1.2,1.87-1.58,2.94-1.34.24.05.4.44.67.76C105.57,165,104.49,164.65,103.11,164.91Zm4.53-2.66a1.59,1.59,0,0,1-.93.34,18.06,18.06,0,0,1-2-.49c-.18-.7.39-.85.67-1.16s.69-.75,1-.74a3.52,3.52,0,0,1,1.53.56C108.31,161,108.16,161.9,107.64,162.25Zm1.67-30.37a.88.88,0,0,1,0,.27c0,.06-.11.1-.17.14s-.12-.19-.09-.25S109.23,131.93,109.31,131.88Zm.58,17.45c.12.89.12.89-1,.92Zm.24,8.35c-.14,0-.26-.23-.4-.36a1.64,1.64,0,0,1,.63-.2c.14,0,.26.23.39.36A2,2,0,0,1,110.13,157.68Zm.86-13.59a5,5,0,0,1-.94,0c0-.2,0-.37,0-.38a7.5,7.5,0,0,1,.93-.15c.09,0,.19.12.29.18C111.2,143.85,111.11,144.07,111,144.09Zm-.7-11.73.8-1c1,.92,1.18,1.27.74,1.54C111.18,133.33,110.77,132.92,110.29,132.36Zm1.82,58.41-.2.07a1,1,0,0,1-.09-.32c0-.1.1-.19.15-.28.06.07.15.13.17.2A1.23,1.23,0,0,1,112.11,190.77Zm1.29-33.41c-.24,0-.52-.2-.79-.31.19-.23.33-.57.56-.66s.62,0,1.46.1C113.92,157,113.68,157.31,113.4,157.36Zm2.09-28.48.11-.16.07.18Zm1.4,57.05.13-.21.1.23Zm.79-2-.08-.25.21,0Zm1.72,1.89-.49,0c0-.43-.09-.85-.11-1.28,0-.07.18-.23.23-.21s.45.17.45.27A8.88,8.88,0,0,1,119.4,185.87Zm-1.68-5.57c-.48-1.39-.48-1.39.66-2.4l1.39,1Zm2.67-28c.07-.07.16-.19.23-.18s.14.13.2.21-.16.19-.23.18S120.45,152.42,120.39,152.35Zm.4,21.47s0-.12-.06-.18l.27-.09c0,.11,0,.21.07.31A1.18,1.18,0,0,1,120.79,173.82Zm7.38,21.59a1.79,1.79,0,0,1-1.58-1.14c-.08-.89,1.07-1.82,1.83-1.46a.82.82,0,0,1,.42.5C128.89,194.09,129.05,194.94,128.17,195.41Zm6,7a1.14,1.14,0,0,1,1.51-.24C134.93,203.18,134.93,203.18,134.16,202.39ZM137.47,125c.12,0,.23.23.34.37-.2.08-.39.23-.57.21s-.22-.24-.33-.38C137.09,125.08,137.29,124.93,137.47,125Zm1,75.71c-.85.46-1.56.17-2.38-.47.24-1.39.59-2.48,2.09-2.61a1,1,0,0,1,1.17,1C139.4,199.39,139.37,200.19,138.49,200.66Zm2-16.1.13-.18.06.22Zm1.62,27.49a5.83,5.83,0,0,1-1.12.52c.45-.54.62-.76.8-1a.9.9,0,0,1,.24-.12C142,211.68,142.16,212,142.09,212.05Zm5-59.23.08,0L147,153C147.06,152.94,147.08,152.85,147.13,152.82Zm-1.44,18.72c-.45.44-.45.1-.47-.21Zm-.71-.77c.06.16.11.32.17.47l-.5-.15Zm.29,29.27,1,.06C146.07,200.67,145.78,200.33,145.27,200ZM145,157.6c-.59-1.4-.51-1.75.53-2a8,8,0,0,1,1.49,0C146.6,156.73,146.21,157.57,145,157.6Zm3.16-4.7.17.15c-.05,0-.13-.05-.16-.1A.11.11,0,0,1,148.16,152.9Zm.17,3.49a6.72,6.72,0,0,1-.14-1.2,2.56,2.56,0,0,1,.24-.57,2.65,2.65,0,0,1,.17.64A5.81,5.81,0,0,1,148.33,156.39Zm-.13-5c-.08.41-.13.83-.19,1.24l-.63,0c-.17-1.11-.09-2.13,1.09-2.75C149.06,150.62,148.3,151,148.2,151.43Z"/>
    <path id="third-wave-l" class="third wave purple" d="M247.75,139.6a14.62,14.62,0,0,1-.68-4.54,4.05,4.05,0,0,1-.85-2.49c-.12-.86.56-1.25.5-1.76a10.24,10.24,0,0,0-.95-2.23c-.26-.64-.42-1.32-.66-2a38.47,38.47,0,0,1-2.46-8.29l-1.49-.74c0-.09-.17-.24-.15-.26,1.22-1.46-.21-2.7-.39-4a6.37,6.37,0,0,0-1.45-3.17,5.7,5.7,0,0,1-1.24-2.51c-.18-1.09-1.3-1.23-1.66-2.16a13.2,13.2,0,0,0-4-5.71c-.51-.41-.54-1-.73-1.54A29.63,29.63,0,0,0,230,94.65a2.67,2.67,0,0,0-.83-1.07,8.41,8.41,0,0,1-2.83-3.6,10,10,0,0,0-2.75-3.58c-.36-.3-.63-.7-1-1A12.89,12.89,0,0,0,220,83.09a15.1,15.1,0,0,0-3.76-.92,3.3,3.3,0,0,0-1.4,0c-1.4.36-3.94,3.57-4,5.08,0,1.18.1,2.36.15,3.55.2.31.33.7.6.88,2.64,1.8,3.92,4.53,5.21,7.31a8.9,8.9,0,0,0,3.11,4.15c.25,3.24,2.1,5.73,3.55,8.37a6.7,6.7,0,0,1,.93,1.85,15.21,15.21,0,0,0,.88,2.29c0,.11.16.2.18.3.6,4,3,7.4,3.87,11.31a29.71,29.71,0,0,0,1.21,3.63,38.61,38.61,0,0,1,2.12,10.6c.06,1-.21,2.11.75,2.89a19.23,19.23,0,0,1-.23,2.74,2.15,2.15,0,0,0,.13,2,2.77,2.77,0,0,1,.32,2.72c-.83,2.05,0,4.11-.27,6.14.79,2-.13,3.38-1.8,4.52a48.33,48.33,0,0,1-1.65,11.74,20.19,20.19,0,0,1-1.31,3.26,21.88,21.88,0,0,0-1.86,4.52c-.29,1.66-1.43,2.69-2.09,4-1,2-1.8,4.11-2.77,6.13s-2.15,4.22-3.25,6.31a4,4,0,0,1-.64.85c-1.35,1.43-3.63,1.92-4.18,4.16-1.5,1.33-3,2.68-4.53,4a3.92,3.92,0,0,1-1.16.79c-1.93.72-3,2.28-3.92,4-.41.71-.8,1.43-1.19,2.16a4.57,4.57,0,0,0,.59,5.84,12,12,0,0,0,1,.9c1,0,2.16.08,3.32,0a2.91,2.91,0,0,0,1.92-.71c1-1.35,2.45-1.3,3.82-1.61a14.89,14.89,0,0,1,4.81-3.52,11.67,11.67,0,0,0,4.25-4.16c.33-.48.6-1.1,1.07-1.37,2.93-1.67,4.26-4.66,6.06-7.25.19-.29.16-.78.4-1,2-1.61,2.87-4,4.3-6a53.22,53.22,0,0,0,4.31-7.36c.52-1,.7-2.25,1.7-3.05a2.27,2.27,0,0,0,.61-1.26,22.15,22.15,0,0,1,1.92-5,13.49,13.49,0,0,0,.44-2.26c.17-.68.53-1.33.65-2a19.85,19.85,0,0,0,.14-2.44,4.58,4.58,0,0,1,.16-1.76c1.08-2,1-4.31,1.67-6.44.18-.61-.12-1.35,0-2a13.18,13.18,0,0,1,.84-2,1.52,1.52,0,0,0,.11-.7,9.37,9.37,0,0,1,.1-3.76c.36-1.31-.14-2.84.15-4.19s-.2-2.54-.14-3.8c.11-2-.25-4,.45-6A4,4,0,0,0,247.75,139.6ZM214.89,86.09a1,1,0,0,1-.86-.24,1.06,1.06,0,0,1,.08-.91c.51-.78.67-.78,2-.3C215.5,85.89,215.51,85.94,214.89,86.09ZM220,95.68c-.05-.85-.1-1.68-.15-2.51,1.74-.54,2.53.8,3.92,1.89Zm7.49,1.88,0-.17.21,0Zm-11.3,112-.95-.63a6.1,6.1,0,0,1,1-.43c.07,0,.29.32.28.49S216.33,209.38,216.22,209.57ZM239.06,121a4.42,4.42,0,0,1,.93-.25c.1,0,.2.06.51.17a2.4,2.4,0,0,1-.22.44c-.33.33-.69.59-1.1.16A.83.83,0,0,1,239.06,121Zm-.05,9.92,0,.18-.23-.07Zm-1.7-3c.13,0,.25.21.38.32l-.6.22-.37-.36A2,2,0,0,1,237.31,127.87Zm-.37,42a1,1,0,0,1,.93,1.17c-.07.7-.55.95-1.16,1a.73.73,0,0,1-.89-.74A1.22,1.22,0,0,1,236.94,169.92Zm-5.1-54.47c-.4-1.59-.64-3.07.38-4.53l3,.32a16.67,16.67,0,0,1-.63,1.73,2.59,2.59,0,0,0,.21,3c.13.16-.11.61-.22,1.14Zm1.55,2.91c-.35-.07-.36-.28,0-.39a1.31,1.31,0,0,1,.57.08s0,.14,0,.21A1.49,1.49,0,0,1,233.39,118.36Zm.68,7,.15.23a.23.23,0,0,1-.1,0S234.08,125.37,234.07,125.31Zm.33.33,1.86-1.17c0,1.53-.33,2-1.34,1.86C234.73,126.31,234.57,125.89,234.4,125.64Zm1,55.33a.62.62,0,0,1-.25-.53.64.64,0,0,1,1-.38c.13.08.17.33.24.51A.63.63,0,0,1,235.37,181Zm.39-2.52c-.12,0-.25-.27-.38-.42l.88-.62c.22-.73-.78-1.17,0-1.71,1.52.11,1.71,1.27,2,2.58C237.36,178.34,236.56,178.42,235.76,178.45Zm3-45a.62.62,0,0,1,.29-.53c.17-.07.43.07.66.13a2.76,2.76,0,0,1-.32.49C239.19,133.79,238.89,134,238.79,133.46Zm.52,22.24v.51l-.43-.28Zm.52,1.51c-.13-.09-.35-.15-.39-.27a1.64,1.64,0,0,1,0-.5,6.41,6.41,0,0,1,.55.49S239.88,157.11,239.83,157.21Zm-.37-1.68c.22-.53.58-.62,1.21-.15Zm6.14-9.4c0,.71,0,1.43-.1,1.46a10.19,10.19,0,0,1-2.13,0Zm-.75,6.42c-.54.42-.85.3-1.2-.55-.14-.32-.26-.64-.44-1.09l2.38-.8c.18.16.29.22.34.31s.21.4.49,1C246,151.71,245.4,152.12,244.85,152.55Z"/>
    <path id="second-wave-l" class="second wave purple" d="M203.36,191.78l4.5-5a16.78,16.78,0,0,0,.22-2.11,5.07,5.07,0,0,1,.85-2.65c.82-1.42,1.81-2.78,1.93-4.53a1.39,1.39,0,0,1,.53-.88,2.08,2.08,0,0,0,.86-1.83,6.4,6.4,0,0,1,2.19-4.79l-.6-1.35a6.71,6.71,0,0,0,1.89-4.68c0-.94.35-1.86.42-2.79.1-1.37.1-2.73.31-4.1a33.18,33.18,0,0,1,.92-5.22,3.86,3.86,0,0,0,0-1.36,39.51,39.51,0,0,1-.29-5c.27-4.18-.73-8.21-1.25-12.29a3,3,0,0,0-.31-1c-1.2-2.33-1.32-4.93-1.9-7.41a12.12,12.12,0,0,0-.88-2.67c-1.57-3-3.2-6.06-4.86-9a16.62,16.62,0,0,0-1.5-2,6,6,0,0,1-1-1.46c-.43-1.34-.5-2.85-2-3.54a7.19,7.19,0,0,0-2.42-3c-1.11-.89-1.85-2.09-2.94-3a8.49,8.49,0,0,0-5.1-2.2c-.47,0-.94-.1-1.35-.15-2.16,1-2.18,3.18-3.5,4.27a47,47,0,0,0,.61,5.35,13.27,13.27,0,0,0,1.72,4.61c1,1.49,1.87,3,2.71,4.57a9.55,9.55,0,0,0,1.5,2.37c2.59,2.48,3.43,5.86,4.82,9,.43,1,.8,1.95,1.16,2.95s.73,2.24,1.09,3.37a1.34,1.34,0,0,1,0,.35c.19,2,1.44,3.76,1.23,5.87-.2,1.91.57,3.73.77,5.6.14,1.24.71,2.46.13,3.82-.28.64.32,1.61.26,2.4a11.35,11.35,0,0,1-.72,2.35c.9,1.54-.16,2.68-.77,3.94a5.75,5.75,0,0,0-.29,1.73,24.63,24.63,0,0,1-2.11,8.2,32.68,32.68,0,0,0-1.39,3.65,7.34,7.34,0,0,1-.48,1.34c-2,3.45-3.84,7.07-6.72,10a17.36,17.36,0,0,0-1.95,2.86c-.58.88-1.13,1.78-1.62,2.56a3.48,3.48,0,0,0,.09.59,15.63,15.63,0,0,0-4.56,8.37c-.12.82,0,1.89.83,2.08.35.08.74,0,1,.17a.75.75,0,0,1,.25.33c-.14.22-.29.44-.44.65.84,2,.88,2.08,2.16,1.85,2-.34,3.9-.84,5.85-1.28,1.93-1.81,4.9-2.53,5.69-5.59.27-1.07,2.07-2.48,3.66-3.59A5.66,5.66,0,0,0,203.36,191.78Zm-9.29-87.7c-.09,0-.18-.12-.27-.19.08-.08.16-.22.25-.23s.18.13.27.2C194.24,103.94,194.16,104.08,194.07,104.08Zm3.34,6.44c-.11,0-.29.11-.33.06-1.06-1.12-1.3-2.71-2.41-3.83l1.18-1.25c1,.72,2,1.13,2.25,2.51A2.8,2.8,0,0,1,197.41,110.52Zm2.29,9.15c-.18-.12-.5-.24-.5-.36a2.2,2.2,0,0,1,.27-.75l.72.33Zm1.54-8.63c-.07,0-.2,0-.21-.09a.5.5,0,0,1,0-.32c.11-.27.24-.23.31.11C201.35,110.83,201.27,110.94,201.24,111Zm-12.15,81.67a15.56,15.56,0,0,1-1.38,1c.42,1-.72,2.09-.26,3.08a.53.53,0,0,0-.1.06c-.53.47-.69,1.57-1.39,1.44a3.09,3.09,0,0,1,1.68-3.35c-.24.11-.84-.51-.91-.6.75-1.07,2-2.17,2.33-3.39a6.7,6.7,0,0,0,.86.66A8.83,8.83,0,0,1,189.09,192.71Zm7.88-7.26c-.08,0-.17-.13-.25-.21L197,185l.25.23C197.13,185.31,197.05,185.45,197,185.45Zm7.77-5.08c-.1-.15-.19-.31-.28-.46C204.76,179.86,205,179.89,204.74,180.37Zm2.28-18c.23-.72.45-1.45.7-2.16,0-.08.18-.11.28-.17.9.14.7,1.11,1.18,1.57C208.65,162.35,208.05,162.87,207,162.41Zm.53-19.46s.17.13.26.2c-.08.08-.19.24-.24.22C207.22,143.26,207.21,143.09,207.55,143Zm-.59-1.39,0,.19-.21-.07Zm1.09,11.55c0-.11.33-.19.54-.31a1.41,1.41,0,0,1,.81,1.41,5.17,5.17,0,0,1-.18,1c-.23.76-.5,1.51-.77,2.3l-1.71.37C206.59,155.94,207.94,154.71,208.05,153.11Zm-1.41,11.2c.12,0,.25.19.39.31a4,4,0,0,1-.59.16c-.08,0-.18-.12-.26-.18C206.33,164.49,206.48,164.32,206.64,164.31Zm-3.51-42.85.06,0s.05.11.07.17Zm-.15-.19c-.83-.63-.84-.7-.39-1.12a2.51,2.51,0,0,1,3.13-.56c0,.49,0,1-.68.72A1.45,1.45,0,0,0,203,121.27Zm1.93,7.34-.25-.21.18-.12C204.86,128.39,204.89,128.5,204.91,128.61Zm.66,39.82c.9-.06,1.33-1,2.19-.83.25.43.49.82.81,1.36l-1.25.89L206.6,172c-.17.5-.34,1-.55,1.65l-3-.31C204,171.77,205.47,170.52,205.57,168.43Zm-2.71,5.16v0c0,.06-.11.08-.16.12Zm-5,14.37,3.17.8C198.85,189.33,198.36,189.18,197.87,188ZM202,175.63c.39,0,1-.17,1.23.05s.29.8.46,1.36c.64-.73,1.13-1.36,1.71-1.9.16-.15.59,0,1,0-.32.94-.57,1.7-.79,2.36l-1.4.46c0,.63.07,1.22.11,1.8a8.73,8.73,0,0,1-2.61-3.37C201.64,176.23,201.83,176,202,175.63Z"/>
    <path id="first-wave-l" class="first wave purple" d="M186.78,162.41a4,4,0,0,0,1.34-2.77,8.89,8.89,0,0,1,.58-2,3.66,3.66,0,0,0,.19-2.73,2.82,2.82,0,0,1,.06-2.08c.82-1.62.09-3.2.1-4.79,0-1.28-.42-2.57-.4-3.86a27.49,27.49,0,0,0-.62-3.79,18,18,0,0,0-.77-3.4,40,40,0,0,1-1-4.77,8.38,8.38,0,0,1-1.59-1.39,8.48,8.48,0,0,1-.75-2c-.84-2.14-2.62-3.57-4-5.3-1.6-2-3.13-4.14-5.86-4.81-.4-.1-.72-.56-1-.83l-2.44.79c-2.07,2.49-2.08,5.41-1.86,8,.63,1.39,1,2.5,1.6,3.5s.76,2.15,1.66,3.07c1.12,1.16,1.11,3.1,2.3,4.33a.58.58,0,0,1,.09.33c0,1.88.63,3.69.83,5.52a24,24,0,0,0,1.24,5.87,17.57,17.57,0,0,0-1.2,6.89,3.24,3.24,0,0,1-.64,2c-1.6,2.22-2.45,4.83-3.86,7.15-.61,1-1,2.14-1.72,3.08a7.37,7.37,0,0,0-.52,8.88,6.1,6.1,0,0,0,.4.59,6.54,6.54,0,0,0,6,1c.92-.68,2.07-1.51,3.19-2.38a5.48,5.48,0,0,0,1.24-1.21c.5-.77.68-1.9,1.35-2.37s1-1.26,1.59-1.82c.76-.75,0-2,1.08-2.81.77-.6.92-1.82,1.24-2.84A8.58,8.58,0,0,1,186.78,162.41Zm-13.37,10.31a27.72,27.72,0,0,1-1-2.72,1,1,0,0,1,.46-.8,1,1,0,0,1,1,.05,1.57,1.57,0,0,1,.55,1.15A12.66,12.66,0,0,1,173.41,172.72Zm2.66-3.7a3.33,3.33,0,0,1-.61-.09c.09-.13.17-.27.25-.4l.59.26C176.23,168.87,176.15,169,176.07,169Zm3.66-27.92-.13-.16.23,0Zm2.2,18.68c-.12.28-.47.46-.82.78a3.72,3.72,0,0,1-.11-1.13c.05-.26.33-.49.53-.71,0,0,.26.07.27.14A1.69,1.69,0,0,1,181.93,159.78Zm2-15a3.55,3.55,0,0,1-.68-.49c.11-.12.28-.38.33-.36a6.56,6.56,0,0,1,.83.52C184.18,144.62,184,144.83,183.91,144.8Z"/>
  </g>
  <g id="right-speaker">
    <path id="speaker-r" class="purple" d="M1452.56,222.71l1.2,2.09-.42,1.69a1.67,1.67,0,0,0,2,1.09c2-.58,4-1.31,6-2l2.72-3.53h1.53a2.38,2.38,0,0,0,.57-.49c.47-.81.86-1.66,1.36-2.45a3.46,3.46,0,0,1,1.15-1.27,7.67,7.67,0,0,1,2-.43c-.33-.95.45-1.38,1-1.54a3.51,3.51,0,0,0,2.73-2.51c.38-1.38,1.65-2,2.47-2.95,1.2-1.39,2.8-2.43,3.71-4.13a1.85,1.85,0,0,1,1.11-.79,5.4,5.4,0,0,0,4.1-3.5,7.34,7.34,0,0,1,3.41-3.46c2.12-1,3.49-2.84,5.21-4.25,1.28-1.05,2.42-2.19,4.17-2.57.2-3.94,2.75-6.15,5.68-8.2,1.47-.1,2.94.45,4.49,0a19.92,19.92,0,0,1,4.25-.24c1.54-.07,3.08-.07,4.61-.24,1.87-.2,3.52.05,4.77,1.61.12.15.42.16.76.28a5.76,5.76,0,0,1,1.34-1.4c.47-.24,1.16,0,1.73-.07A12.39,12.39,0,0,0,1528,183c-.19-2.3.42-4.54-.5-6.72a2.35,2.35,0,0,1,.1-1.35,30.33,30.33,0,0,0,1.28-7.68,15.47,15.47,0,0,1,.38-1.71,8.52,8.52,0,0,0,.13-2.46c-1.2-6.58-1.24-7.14-1.05-11.92.05-1.24.8-2.53-.16-3.74.63-1.46.13-3,.31-4.48a12.54,12.54,0,0,0,0-4.57,5.71,5.71,0,0,1,.08-1.36,7.71,7.71,0,0,0,0-2.8,7.22,7.22,0,0,1,0-4.77,4.28,4.28,0,0,0-3.93-1.18,3.25,3.25,0,0,1-2.6-1,8.24,8.24,0,0,1-3.37.13c-2.67-.34-5.31-1.05-8-.87-.83.06-1.66.07-2.47.21a7,7,0,0,1-7.48-2.75c-.2-.27-.64-.39-.8-.67-1.36-2.43-3.65-3.94-5.58-5.82a13.59,13.59,0,0,1-2.35-2.63,18.27,18.27,0,0,0-3.29-3.67c-.93-.9-1.79-1.88-2.68-2.83a10,10,0,0,0-1.22-1.29,18.76,18.76,0,0,1-4.8-5.58,8.65,8.65,0,0,0-1.2-1.3,16.83,16.83,0,0,0-2.48-2.51c-1.14-.77-1.12-2.38-2.47-2.94-1.18-.5-2.28-1.23-3.46-1.74s-2-1-2.33-2.41a3.45,3.45,0,0,0-1.3-1.62c-.63-.53-1.41-.86-2.08-1.35s-1.08-.91-1.82-1.56c-.1-.44-.25-1.12-.45-2l-1.94-1.91-3.11.35c-.74,2.51-1.5,4.81-1.21,7.4a19.41,19.41,0,0,1-.54,7.06,13.44,13.44,0,0,0-.21,3.18c0,1.28.31,2.55-.54,3.78-.28.41.4,1.46.13,1.93-.6,1.07.22,1.81.32,2.68.12,1.06-1.41,1.4-.92,2.5-.52,2.11.14,4.12.7,6.08a4.83,4.83,0,0,1,.09,2.74,15.35,15.35,0,0,0-.38,3.46,10.13,10.13,0,0,0,.13,3.86c.43,1.13-.07,2.26.51,3.33a3.41,3.41,0,0,1,.08,2.35c-.39,1.83-.13,3.73-.45,5.62-.18,1.06.46,2.27.74,3.45-.53,1.55-1.42,3.15-1.12,5,.22,1.39-.57,2.66-.12,4.15.35,1.13-.13,2.53-.31,3.8a25.08,25.08,0,0,1-.63,3.46,6.78,6.78,0,0,0,0,3.84,2.25,2.25,0,0,1,.07,1.35,1.72,1.72,0,0,0,.09,2,1.72,1.72,0,0,1,.19,1c0,.9-1,1.65-.33,2.67.61.85-.19,1.75.07,2.74.36,1.38-.38,2.93.27,4.4a1.46,1.46,0,0,1-.24,1.35c-1,.85-.51,1.9-.58,2.88a18.37,18.37,0,0,1-.15,2.1,2.59,2.59,0,0,0,.17,2,2.22,2.22,0,0,1,.18,1.38c-.54,3.64,0,7.29-.07,10.94s.11,7.31.15,11,.09,7.35,0,11A22,22,0,0,1,1452.56,222.71Zm71-49.59c.11,0,.22-.08.33-.1s.07.13.11.19a1.32,1.32,0,0,1-.33.08S1523.64,173.18,1523.6,173.12Zm-.43-33a.91.91,0,0,1,.47-.73,7.29,7.29,0,0,1,1.71,0l-1.46,1C1523.53,140.62,1523.2,140.45,1523.17,140.12Zm-1.27,35.16a1.58,1.58,0,0,1,.59-.11c.37.07.38.28,0,.4a1.51,1.51,0,0,1-.59,0A.69.69,0,0,1,1521.9,175.28Zm-2.14-20.13.12-.5a.5.5,0,0,1,.06.57Zm-2.83-23.71c-.45-.31-1-.65-.85-1.47,1.73-1.26,3.18.15,4.82.41v1.75A5.52,5.52,0,0,1,1516.93,131.44Zm2.26,32.13a12.27,12.27,0,0,1-1.29-.58c-.17-.09-.24-.34-.37-.53a1.21,1.21,0,0,1,2,.18C1519.59,162.77,1519.32,163.2,1519.19,163.57Zm-.74,1.57c.26,1,.26,1-.77,1.61C1517.3,165.91,1517.68,165.42,1518.45,165.14Zm-.08,5.08.81-.54c.11.19.32.38.31.56,0,.36-.26.61-.66.45C1518.67,170.63,1518.56,170.43,1518.37,170.22Zm-.84,8.64c.29-.24.56-.46.83-.66,0,0,.23.21.22.24a3.41,3.41,0,0,1-.54.71S1517.73,179,1517.53,178.86Zm-1.32-24.37c.21-.08.41-.23.59-.21s.23.25.34.39c-.19.08-.39.23-.57.22S1516.33,154.64,1516.21,154.49Zm-2.32-2.11a9.89,9.89,0,0,1,2.24-.22c.55.07.66.55.18,1-.53-.1-1.1-.19-1.64-.34A4.2,4.2,0,0,1,1513.89,152.38Zm-.34-3.32-.41.18C1513.13,149,1513.12,148.73,1513.55,149.06Zm-2,.66c0-.07.15-.46.25-.46a10,10,0,0,1,1.21.09,8.35,8.35,0,0,1-.94.75C1512,150.15,1511.63,149.9,1511.52,149.72Zm-.38,24.24.24-.21v.38Zm-.66-27.16a1.08,1.08,0,0,1,1.72.33c-.08.2-.1.49-.24.57a1.07,1.07,0,0,1-1.52-.3A.64.64,0,0,1,1510.48,146.8ZM1509,158.6a2.73,2.73,0,0,1,.48-.66c.09-.06.37.15.56.24l-.44.73Zm-5.89-2.95-.45-.27.44-.25C1503.06,155.31,1503.06,155.48,1503.07,155.65Zm.33-.93-.19.14s0,0,0-.05S1503.34,154.75,1503.4,154.72Zm.69,1.75a.58.58,0,0,1-.31.48c-.16,0-.5-.1-.54-.24a3.58,3.58,0,0,1-.08-.93A.8.8,0,0,1,1504.09,156.47Zm2.36-22.61c0,.12.07.24.1.35l-.33-.19Zm.4.54a10.51,10.51,0,0,1,1.12-.06c.67,0,.73.17.42,1.12Zm-3.53,29.4c1.94-.46,1.94-.46,3.77,1.11-1.67-.32-2.53-.46-3.38-.66C1503.55,164.21,1503.45,164,1503.32,163.8Zm-1.64-3.5,2.73-.19c-.22.78.9,1,.45,1.84a20,20,0,0,1-2,.32C1502.15,162.31,1501.84,161.8,1501.68,160.3Zm-.94-28.48-.2.14,0-.22Zm-.18,17.82a1.54,1.54,0,0,1-.55.29c-.1,0-.22-.24-.35-.39a3.9,3.9,0,0,1,.63-.1C1500.38,149.44,1500.47,149.57,1500.56,149.64Zm-1.42,7.88c.17-.23.35-.45.52-.67l.55.42c-.3.15-.54.29-.79.39C1499.36,157.69,1499.24,157.57,1499.14,157.52Zm-.24-14a3.43,3.43,0,0,1,.55-.6l.5.48-.69.58C1499.13,143.86,1498.87,143.63,1498.9,143.56Zm-1.11-10.91a5.51,5.51,0,0,1,.14-.92,4.47,4.47,0,0,1,.56-.79c.36.38.69.6.79.89s-.08.77-.22.81A4.5,4.5,0,0,1,1497.79,132.65Zm-.17,58.29a3.42,3.42,0,0,1,.18-.54,3.54,3.54,0,0,1,.18.55c0,.07-.11.15-.17.22S1497.61,191,1497.62,190.94Zm-2-34.58c0-.15.31-.24.54-.39a4.39,4.39,0,0,1,.86.39c.11.08.1.37.09.55s-.19.18-.28.17a2.76,2.76,0,0,1-1-.18A.62.62,0,0,1,1495.6,156.36Zm-3.74,27.5c0-.07.11-.14.17-.21s.18.12.18.19-.1.14-.16.21S1491.86,183.92,1491.86,183.86Zm-.73-4.35a5.51,5.51,0,0,1-.77-.68c.74-1,1.1-1.18,1.57-.76a1.65,1.65,0,0,1,.58.85c0,.29-.24.62-.4,1A6.44,6.44,0,0,1,1491.13,179.51Zm-.58,4.39c.42.75.42.75,0,1.9C1490.34,185.16,1490,184.52,1490.55,183.9ZM1489.22,152l-.11-.21h.18Zm-.87,21.27.36-.33.49.3c-.09.07-.18.2-.26.19A3,3,0,0,1,1488.35,173.3Zm-7.41,19.95a1,1,0,0,1,1.32-.64,7.88,7.88,0,0,1,1.1,1c-.34,1-.83,1.58-1.74,1.7C1480.77,194.85,1480.87,194,1480.94,193.25Zm-6.57,8.34,1.64.87C1474.09,202.85,1474.05,202.83,1474.37,201.59ZM1472.94,125l-.69.46-.41-.62a3.47,3.47,0,0,1,.79-.29C1472.71,124.51,1472.84,124.81,1472.94,125Zm-2.11,72.36c1.15-.33,1.8.36,2.5,1.08.06.56.12,1.15.21,2-1.88.31-2.23.27-2.58-.14A2.21,2.21,0,0,1,1470.83,197.33ZM1466.94,211c1.09.14,1.06.17,1.36.42s.31.36,0,.49c-.1.05-.26.09-.32,0C1467.64,211.67,1467.37,211.39,1466.94,211Zm-2.74-39.86a1.68,1.68,0,0,1,.5-.35c.08,0,.23.22.35.34a2.86,2.86,0,0,1-.61.24C1464.38,171.37,1464.28,171.21,1464.2,171.12Zm-1.49-15.9c2,.36,2.09.32,2.31.8a6.85,6.85,0,0,1,.25,1.59A2.83,2.83,0,0,1,1462.71,155.22Zm-1.57-.11c.06-.19.13-.38.19-.56.08,0,.22.08.22.14a3.47,3.47,0,0,1,0,.56Zm-.14-5.32c1.26.82,1.28.81,1.65,2.88-.21,0-.57,0-.61-.1C1461.66,151.66,1461.34,150.72,1461,149.79Z"/>
    <path id="third-wave-r" class="purple third wave" d="M1362.06,163.75a14.22,14.22,0,0,1,.68,4.53,4,4,0,0,1,.85,2.49c.13.86-.56,1.25-.49,1.76a9.73,9.73,0,0,0,.94,2.23c.26.64.42,1.32.67,2a38.21,38.21,0,0,1,2.46,8.28l1.48.74c0,.09.18.24.15.27-1.21,1.45.21,2.69.39,4a6.52,6.52,0,0,0,1.45,3.16,5.65,5.65,0,0,1,1.24,2.51c.18,1.1,1.3,1.23,1.66,2.16a13.23,13.23,0,0,0,4,5.71,2.79,2.79,0,0,1,.72,1.54,29.69,29.69,0,0,0,1.54,3.58,2.74,2.74,0,0,0,.82,1.07,8.53,8.53,0,0,1,2.83,3.6,10.26,10.26,0,0,0,2.75,3.59c.36.29.63.7,1,1a12.39,12.39,0,0,0,2.65,2.29,14.92,14.92,0,0,0,3.75.92,3.36,3.36,0,0,0,1.41,0c1.39-.35,3.93-3.57,4-5.08,0-1.18-.09-2.36-.15-3.55-.2-.3-.32-.7-.59-.88-2.64-1.8-3.92-4.53-5.22-7.31a8.76,8.76,0,0,0-3.11-4.14c-.25-3.25-2.1-5.74-3.55-8.38a7,7,0,0,1-.93-1.85,16.31,16.31,0,0,0-.87-2.29c0-.11-.17-.19-.19-.3-.6-4-3-7.4-3.87-11.31a29.67,29.67,0,0,0-1.2-3.63,38.61,38.61,0,0,1-2.12-10.6c-.06-1,.2-2.11-.76-2.88a17.67,17.67,0,0,1,.24-2.74,2.17,2.17,0,0,0-.14-2,2.79,2.79,0,0,1-.32-2.72c.83-2,0-4.11.28-6.14-.79-2,.13-3.38,1.8-4.52a47.84,47.84,0,0,1,1.65-11.74,19.31,19.31,0,0,1,1.31-3.26,22.4,22.4,0,0,0,1.85-4.52c.29-1.66,1.43-2.69,2.09-4,1-2,1.8-4.11,2.78-6.13s2.14-4.21,3.24-6.31a3.77,3.77,0,0,1,.65-.85c1.34-1.43,3.63-1.91,4.17-4.15,1.51-1.34,3-2.68,4.53-4a4.31,4.31,0,0,1,1.17-.79c1.92-.72,3-2.28,3.92-3.95.4-.71.79-1.43,1.18-2.15a4.57,4.57,0,0,0-.59-5.85,11.79,11.79,0,0,0-1-.89,31.22,31.22,0,0,0-3.33,0,2.88,2.88,0,0,0-1.92.7c-1,1.35-2.45,1.31-3.82,1.61a15,15,0,0,1-4.8,3.53,11.49,11.49,0,0,0-4.25,4.15c-.34.48-.61,1.1-1.08,1.37-2.93,1.68-4.26,4.66-6,7.26-.2.28-.17.77-.4,1-2,1.61-2.87,4-4.31,6a52.54,52.54,0,0,0-4.31,7.35c-.51,1-.7,2.25-1.7,3a2.2,2.2,0,0,0-.6,1.26,21.79,21.79,0,0,1-1.92,5,12.74,12.74,0,0,0-.45,2.26c-.17.69-.53,1.33-.65,2s-.09,1.63-.14,2.44a4.57,4.57,0,0,1-.15,1.76c-1.09,2-1,4.32-1.68,6.44-.18.61.13,1.35,0,2a12.8,12.8,0,0,1-.85,2,1.39,1.39,0,0,0-.1.7,9.2,9.2,0,0,1-.11,3.76c-.35,1.31.14,2.84-.14,4.19s.2,2.54.13,3.8c-.1,2,.25,4-.45,6A4.15,4.15,0,0,0,1362.06,163.75Zm31.22-69.41c0-.19.2-.38.32-.57l1,.63a5.06,5.06,0,0,1-1,.43C1393.5,94.85,1393.27,94.51,1393.28,94.34Zm.42,124.37c.62-1.26.6-1.3,1.22-1.46a.71.71,0,0,1,.78,1.15C1395.2,219.19,1395,219.18,1393.7,218.71ZM1386,208.29l3.77-.63c.06.86.11,1.69.16,2.51C1388.2,210.72,1387.41,209.38,1386,208.29Zm-3.89-2.39.17-.12,0,.17Zm-11.71-59a6.3,6.3,0,0,1-.55-.48s.08-.19.12-.29c.14.09.35.15.4.27A1.38,1.38,0,0,1,1370.41,146.9Zm.52.51-.43.23v-.51Zm3.76-24.51a.63.63,0,0,1-1,.38c-.14-.08-.17-.33-.25-.51a.63.63,0,0,1,1-.4A.64.64,0,0,1,1374.69,122.9Zm1,55.13c0-.07-.09-.15-.14-.23l.1,0S1375.73,178,1375.74,178Zm.71,7.34a1.34,1.34,0,0,1-.58-.08s0-.14,0-.21a1.46,1.46,0,0,1,.57-.1C1376.77,185.06,1376.78,185.26,1376.45,185.37Zm-1.86,6.73a16.18,16.18,0,0,1,.62-1.73,2.58,2.58,0,0,0-.21-3c-.12-.16.11-.61.23-1.14l2.74,1.65c.4,1.59.64,3.08-.37,4.53Zm-1-13.22c0-1.54.33-2,1.34-1.87.2,0,.35.44.52.69Zm-1.42-3.73.59-.21.38.35a1.72,1.72,0,0,1-.6.18C1372.37,175.46,1372.25,175.26,1372.13,175.15Zm-.19-42.9c.08-.7.56-.94,1.16-1s.88.18.89.74c0,.83-.44,1.41-1.11,1.42A1,1,0,0,1,1371.94,132.25Zm-.31-7.19c.82-.06,1.62-.14,2.42-.16.12,0,.25.26.39.41l-.89.62c-.22.74.78,1.17,0,1.71C1372.06,127.53,1371.87,126.37,1371.63,125.06Zm-.61,44.82a.65.65,0,0,1-.28.54c-.18.06-.43-.08-.67-.14a3.34,3.34,0,0,1,.32-.48C1370.63,169.55,1370.92,169.36,1371,169.88Zm-.23,2.4.22.08-.2.11Zm-1.48,10.18a3,3,0,0,1,.23-.44c.32-.33.68-.59,1.1-.16a.81.81,0,0,1,.11.52,4.26,4.26,0,0,1-.93.25C1369.73,182.65,1369.62,182.57,1369.31,182.46Zm-.17-34.5,1.22-.15C1370.14,148.34,1369.78,148.44,1369.14,148Zm-4.93,9.25c0-.71,0-1.43.1-1.46a9.82,9.82,0,0,1,2.14,0Zm-.82-5.23c.46-.35,1-.76,1.57-1.19s.85-.3,1.21.55l.44,1.09-2.38.8a2.56,2.56,0,0,1-.35-.31C1363.76,152.73,1363.67,152.52,1363.39,152Z"/>
    <path id="second-wave-r" class="purple second wave" d="M1423.45,100.36a1.84,1.84,0,0,0-1,0c-2,.34-3.9.85-5.85,1.28-1.94,1.82-4.9,2.53-5.69,5.6-.28,1.06-2.07,2.47-3.66,3.58a5.11,5.11,0,0,0-.74.73l-4.51,5a17,17,0,0,0-.22,2.11,5,5,0,0,1-.85,2.65c-.82,1.42-1.81,2.78-1.92,4.53a1.39,1.39,0,0,1-.53.88,2.1,2.1,0,0,0-.87,1.83,6.42,6.42,0,0,1-2.18,4.79c.17.41.36.83.59,1.35a6.72,6.72,0,0,0-1.89,4.69c0,.93-.35,1.85-.41,2.78-.1,1.37-.11,2.73-.32,4.1a33.18,33.18,0,0,1-.92,5.22,3.87,3.87,0,0,0,0,1.36,41.49,41.49,0,0,1,.29,5c-.28,4.18.72,8.21,1.24,12.29a3,3,0,0,0,.31,1c1.21,2.32,1.32,4.92,1.91,7.4a11.15,11.15,0,0,0,.88,2.67c1.56,3,3.19,6.06,4.85,9a20.32,20.32,0,0,0,1.5,2,5.31,5.31,0,0,1,1,1.45c.43,1.34.5,2.85,2,3.54a7.27,7.27,0,0,0,2.42,2.95c1.11.89,1.86,2.09,2.94,3a8.55,8.55,0,0,0,5.1,2.2c.47,0,.94.1,1.35.15,2.16-1,2.18-3.18,3.5-4.27a47,47,0,0,0-.6-5.35,13.77,13.77,0,0,0-1.72-4.61,50.45,50.45,0,0,1-2.72-4.57,9.17,9.17,0,0,0-1.5-2.37c-2.58-2.48-3.43-5.86-4.81-9-.43-1-.81-2-1.16-2.95s-.74-2.25-1.1-3.38a2,2,0,0,1,0-.35c-.18-2-1.44-3.76-1.22-5.87.19-1.91-.58-3.73-.78-5.6-.14-1.24-.7-2.46-.12-3.82.27-.64-.33-1.61-.26-2.4a10.25,10.25,0,0,1,.72-2.35c-.9-1.54.15-2.68.76-3.94a5.7,5.7,0,0,0,.29-1.73,24.65,24.65,0,0,1,2.12-8.2,32.63,32.63,0,0,0,1.38-3.65,8.17,8.17,0,0,1,.48-1.34c2.06-3.45,3.85-7.07,6.73-10a17.36,17.36,0,0,0,2-2.86c.57-.88,1.13-1.78,1.62-2.56a3.41,3.41,0,0,0-.19-.9,15.45,15.45,0,0,0,2.84-4.78,3.73,3.73,0,0,1,.56-1.13c.26-.32.65-.54.87-.9a2.29,2.29,0,0,0,.24-.93C1426.17,104.7,1425.38,99.44,1423.45,100.36Zm-7.71,98.9c.09,0,.18.13.27.2-.08.08-.16.21-.24.22s-.18-.13-.27-.2C1415.58,199.4,1415.66,199.26,1415.74,199.26Zm-3.34-6.44c.12,0,.3-.11.34-.06,1,1.12,1.3,2.71,2.41,3.83l-1.19,1.26c-1-.73-2-1.14-2.25-2.52A2.84,2.84,0,0,1,1412.4,192.82Zm-2.28-9.15c.17.12.5.24.5.36a2.27,2.27,0,0,1-.27.75l-.73-.33Zm-1.55,8.63c.08,0,.2,0,.22.1a.47.47,0,0,1,0,.31c-.11.27-.23.23-.3-.11C1408.47,192.51,1408.54,192.4,1408.57,192.3ZM1405.08,123l.28.47C1405.05,123.48,1404.82,123.45,1405.08,123Zm-2.28,18c-.23.72-.46,1.45-.7,2.17,0,.07-.19.11-.28.16-.9-.14-.7-1.11-1.19-1.57C1401.16,141,1401.76,140.47,1402.8,140.93Zm-.54,19.47s-.17-.13-.25-.21c.08-.08.18-.24.23-.22C1402.59,160.08,1402.6,160.25,1402.26,160.4Zm.6,1.38,0-.19.21.07Zm-1.1-11.55c0,.11-.33.19-.53.31a1.39,1.39,0,0,1-.81-1.4,5.83,5.83,0,0,1,.17-1c.23-.77.51-1.52.77-2.31l1.72-.36C1403.22,147.4,1401.88,148.63,1401.76,150.23Zm1.41-11.2c-.11,0-.24-.19-.38-.31a3.47,3.47,0,0,1,.59-.16c.08,0,.17.12.26.18C1403.48,138.85,1403.34,139,1403.17,139Zm3.51,42.85-.06,0s0-.11-.07-.17Zm.15.2c.84.62.84.7.4,1.11a2.51,2.51,0,0,1-3.13.56c0-.48,0-1,.67-.72A1.45,1.45,0,0,0,1406.83,182.08Zm-1.93-7.35.26.21-.18.12C1405,175,1404.93,174.84,1404.9,174.73Zm-.65-39.82c-.91.06-1.34,1-2.19.83l-.82-1.36,1.25-.89c.25-.72.49-1.45.73-2.17.17-.5.33-1,.54-1.65l3,.31C1405.85,131.57,1404.34,132.82,1404.25,134.91Zm2.7-5.15s0,0,0,0,.1-.08.16-.12Zm.92-2c-.39,0-1,.17-1.24,0s-.29-.81-.46-1.37c-.64.73-1.13,1.36-1.71,1.9-.16.15-.58,0-1,0,.32-.95.57-1.7.8-2.37l1.39-.46c0-.63-.07-1.21-.11-1.8a8.78,8.78,0,0,1,2.61,3.37C1408.18,127.11,1408,127.37,1407.87,127.71Zm.9-13.13c2.19-.57,2.68-.42,3.18.8Zm4.08,3.75-.25-.23c.08-.07.16-.21.25-.21s.16.13.25.21Zm8.31-5.55a5.19,5.19,0,0,0-1.26-1.09,7.19,7.19,0,0,1,.83-1.06,15.64,15.64,0,0,1,1.36-1Zm1-3.32,0,.11a2.72,2.72,0,0,1,.23-1.78A4.15,4.15,0,0,1,1422.13,109.46Z"/>
    <path id="first-wave-r" class="purple first wave" d="M1421.16,159.18a26.06,26.06,0,0,0,.63,3.79,17.1,17.1,0,0,0,.77,3.4,44.38,44.38,0,0,1,1,4.77,8.37,8.37,0,0,1,1.58,1.39,8.23,8.23,0,0,1,.76,2c.83,2.14,2.62,3.58,4,5.31,1.59,2,3.13,4.13,5.86,4.8.4.1.71.56,1,.83l2.44-.78c2.07-2.5,2.07-5.42,1.85-8-.62-1.39-1-2.5-1.59-3.5s-.77-2.15-1.66-3.07c-1.13-1.16-1.11-3.09-2.31-4.33a.51.51,0,0,1-.08-.33c0-1.88-.64-3.69-.83-5.51a24.45,24.45,0,0,0-1.25-5.88,17.22,17.22,0,0,0,1.2-6.89,3.25,3.25,0,0,1,.65-2c1.59-2.22,2.44-4.83,3.86-7.14.61-1,1-2.15,1.71-3.09a7.37,7.37,0,0,0,.53-8.88c-.12-.21-.27-.4-.4-.59a6.59,6.59,0,0,0-6-1c-.91.68-2.06,1.51-3.18,2.38a5.28,5.28,0,0,0-1.24,1.21c-.51.77-.69,1.91-1.36,2.38s-1,1.25-1.59,1.81c-.76.75,0,2-1.08,2.81-.77.6-.91,1.82-1.24,2.84a8.49,8.49,0,0,1-2.27,3.05,4,4,0,0,0-1.34,2.77,8.75,8.75,0,0,1-.58,2,3.76,3.76,0,0,0-.19,2.73,2.77,2.77,0,0,1-.06,2.08c-.81,1.62-.08,3.2-.09,4.79C1420.75,156.61,1421.18,157.9,1421.16,159.18Zm14.24-26.24a13.41,13.41,0,0,1,1-2.32c.45,1.23.78,2,1,2.73a1,1,0,0,1-.46.79,1.07,1.07,0,0,1-1,0A1.67,1.67,0,0,1,1435.4,132.94Zm-1.89,1.62c.08-.09.15-.24.23-.24a3.21,3.21,0,0,1,.61.09c-.08.14-.17.27-.25.4ZM1430,162.42l.1-.18.13.16Zm-2.09-18.85c.11-.29.47-.47.82-.79a4.1,4.1,0,0,1,.11,1.13c-.06.27-.33.49-.53.71,0,0-.26-.07-.28-.13C1427.94,144.18,1427.78,143.82,1427.89,143.57Zm-2.46,15.31c.2-.15.39-.37.47-.34a4,4,0,0,1,.69.49c-.12.13-.29.38-.34.36A6.81,6.81,0,0,1,1425.43,158.88Z"/>
  </g>
  <g id="unveiling">
    <path class="purple" d="M1010.39,135.81a43.17,43.17,0,0,0-4.62,1.7c-2.15,1.07-4.19.46-6.28,0-1.23-.29-2.48-.52-3.72-.77-2.37-.47-4.64-1.12-6.07-3.3-.12-.19-.26-.43-.44-.49-1.27-.37-1.85-1.45-2.65-2.35a9.49,9.49,0,0,1-1.93-3.24,3.66,3.66,0,0,0-1.29-1.86,3.83,3.83,0,0,1-1.14-1.77,29,29,0,0,1-.77-3.22,1.61,1.61,0,0,1,0-.49c.06-.6,1-1,.32-1.78a4.29,4.29,0,0,1-.93-1.53,22.56,22.56,0,0,1-.64-3.64,22.26,22.26,0,0,1,.18-2.3,4.69,4.69,0,0,1,.75-3.17,2.14,2.14,0,0,0,.25-.94c.24-1.55.36-3.13.72-4.65s1.16-2.79,1.32-4.22c.25-2.23,1.7-3.81,2.7-5.58.75-1.31,2.26-2.25,3.55-3.19,1.49-1.1,2.91-2.38,4.93-2.56.62,0,1.18-.58,1.79-.8a15.83,15.83,0,0,1,8.14-.44,11.1,11.1,0,0,1,4.41,1.26,1.46,1.46,0,0,0,.8.15,2.33,2.33,0,0,1,2.24,1.12,2.35,2.35,0,0,0,1.68.84,3.44,3.44,0,0,1,2.6,1.25,4,4,0,0,0,1.37.85,1.18,1.18,0,0,0,1.7-1.27c-.05-1.18,0-2.37,0-3.6,1.37-.38,2.59-.9,4-.58.29.07.65-.18,1-.15.86.06,1.72.17,2.57.3,1.09.18,2.15.48,3.24.58,2,.18,2.57,1,1.87,2.88a5,5,0,0,0-.23,2.4,7.21,7.21,0,0,1-.42,3.39A5.74,5.74,0,0,0,1031,97a35.79,35.79,0,0,0,.35,3.71.63.63,0,0,1-.12.46c-1,.85-.36,1.77-.25,2.74a26.67,26.67,0,0,1,.13,5.13c-.23,2.49-.58,5-.64,7.48a39.41,39.41,0,0,1-1.35,9.65c-.07.27-.25.56-.19.8.82,3.31-.08,6.59-.24,9.87a36.21,36.21,0,0,1-1.49,6.87,21.65,21.65,0,0,1-1,2.81c-.91,2.35-2.64,4.15-4,6.17-1.21,1.75-3.19,2.39-4.61,3.78a1.34,1.34,0,0,1-.77.26c-2.18.17-4,1.3-6,2-1.15.41-2.39.92-3.63.11a1,1,0,0,0-.64-.1,11,11,0,0,1-4-.31c-1.17-.3-2.42-.22-3.62-.41a3.82,3.82,0,0,0-2.72.18c-.23.13-.73-.08-1-.26a2.37,2.37,0,0,0-2.35-.33.87.87,0,0,1-.65,0,9.23,9.23,0,0,0-3.43-.86,5.25,5.25,0,0,0-2.07-.17c-1,.26-1.9-.86-1.79-2.07.18-2.09.42-4.17.66-6.25a3.09,3.09,0,0,1,.36-.91c.32-.69.71-1.35,1-2.06.46-1.29.91-1.6,2.33-1.47.48,0,1,0,1.47,0a7.84,7.84,0,0,1,3.77,1.06c.36.21.9.45,1.22.32,1.15-.43,2.18,0,3.25.21a8.58,8.58,0,0,0,1.81.2c2-.08,4.06-.16,6.08-.35,3.09-.31,6.58-4.22,7.32-7a1.67,1.67,0,0,0,0-1,2.07,2.07,0,0,1,.37-2.17,1.1,1.1,0,0,0,.08-1.51c-.45-.49-1-.32-1.51,0-.29.17-.59.45-.87.44C1010.84,134,1010.45,134.71,1010.39,135.81ZM992.1,92.29c.41-.18,1-.26,1.17-.57a1,1,0,0,0-.51-1.47,1.55,1.55,0,0,0-.94,1.75l-.88.24C991.44,92.91,991.78,93.17,992.1,92.29Zm22.61,18.42c-.13-2.78-.08-4.9-.37-7a7,7,0,0,0-4.14-5.8,3.45,3.45,0,0,0-1.53-.5,17,17,0,0,0-3.3.7c-.92.3-1.75.92-2.68,1.18a3.59,3.59,0,0,0-1.65,1.26c-1,1.11-.17,2.9-1.48,3.86-.51,2-1,4-1.54,6a1.78,1.78,0,0,0-.06.65,19.82,19.82,0,0,1,.18,3,14.68,14.68,0,0,0,1.58,7.75,4.8,4.8,0,0,0,1.84,2c1,.7,2.21.51,3.27.84a3.66,3.66,0,0,0,2.87-.18,6.94,6.94,0,0,0,3.68-3.17c.44-.94.82-1.91,1.32-2.82A21.15,21.15,0,0,0,1014.71,110.71ZM999.16,93.65A31.54,31.54,0,0,1,997,96a.88.88,0,0,0-.16,1.4,8,8,0,0,1,.93,1.34c.6,1.35.76,1.45,2,.82a7,7,0,0,0,.81-.53l-.28-.13c.34-1.2.69-2.4,1.12-3.9Zm-4.71,34.58.6-.29c0-.59,0-1.19,0-1.78-.11-1.45-1.08-2.71-.76-4.29.14-.68-.73-.94-1.28-.37a10.64,10.64,0,0,0-1,1.41l.5,1.69a1.89,1.89,0,0,0-1.09,2.64c.08.21-.14.52-.14.79,0,.46,0,.93,0,1.47,1.74-.29.58-2.46,2.12-2.71Zm6.86-38.64.71-.86c.37-.43.52-1,0-1.3a1.51,1.51,0,0,0-1.18-.16c-.92.28-1.31,1-.87,1.79a1.71,1.71,0,0,1-.06,1.66,1.32,1.32,0,0,0,.45,1.77c.76.41,1.33,1.65,2.63.72C1002.49,92.06,1002,91,1001.31,89.59Zm-15,7.25c.62-.37,1-.63,1.46-.86a1.63,1.63,0,0,0,.91-2.13,1.18,1.18,0,0,0-.65-.63c-.17-.06-.52.16-.67.34A4.84,4.84,0,0,0,986.27,96.84Zm35.85,43.55a8.52,8.52,0,0,0,.77-2,3.2,3.2,0,0,0-.48-1.62c-.07-.15-.63-.22-.84-.1A1,1,0,0,0,1021,138a1.29,1.29,0,0,1,.06.8C1020.84,139.78,1021.46,140.07,1022.12,140.39Zm-32.59,14.1c.15-1.06.26-1.66.29-2.25a.87.87,0,0,0-.32-.65.89.89,0,0,0-.73.14c-.52.41-1.16.92-.82,1.63C988.15,153.78,988.81,154,989.53,154.49Zm36.37-23.93a1.84,1.84,0,0,0,.4-2.2.86.86,0,0,0-1.23-.47c-.58.3-.56.73-.17,1.22S1025.52,130,1025.9,130.56Zm-9.2,18.58c1.69-1.23,1.78-1.85.33-2.65C1017.14,147.42,1015.59,148,1016.7,149.14Zm12.1-33c.6-1.11-.21-1.65-.8-2.33C1026.85,114.84,1027.08,115.44,1028.8,116.11ZM990.37,130c-.22-1-.38-1.7-.6-2.72C989,128.83,989,128.94,990.37,130Zm31.32-5.28-.38-.12c-.77.8-.77.8-.14,1.76Zm.7,10.37h.42c.28-.52.37-1-.42-1.78Zm-31.12-29-.28-.42-.64-.36a3.7,3.7,0,0,0-.39.8c0,.08.3.37.42.34A3.78,3.78,0,0,0,991.27,106.08Zm38.18,6.75-.66-.58c-.17.19-.47.39-.47.58s.3.39.46.58Zm-21.16-19.17.17.54a6,6,0,0,0,.81-.38c.05,0,0-.29-.09-.44Zm-18.35,53.55c-.15.32-.31.51-.26.59a3.11,3.11,0,0,0,.56.65,1.22,1.22,0,0,0,.31-.25C990.42,147.94,990.26,147.71,989.94,147.21Zm-6.72-33.15c.07.65.11,1,.15,1.41C984.07,115,984.1,114.69,983.22,114.06Zm40.45,22.17a1.82,1.82,0,0,0-.38-.32c-.06,0-.25.1-.25.13a3.12,3.12,0,0,0,.15.39Z"/>
    <path class="purple" d="M573.53,125.83a11.31,11.31,0,0,0-1.29,1.84,6.63,6.63,0,0,1-2.67,2.85c-1.14.76-2.25,1.57-3.38,2.34a5.18,5.18,0,0,1-1,.55,16.86,16.86,0,0,0-2.9,1.1,5.27,5.27,0,0,1-2.75.35c-1,0-2.08-.31-3.12-.38-1.31-.08-2.64,0-3.95-.12a4.75,4.75,0,0,1-1.64-.64c-.78-.41-1.52-.88-2.28-1.33-.14-.08-.38-.08-.45-.19-.57-1-1.67-1.38-2.5-2.08a5.77,5.77,0,0,1-2.09-3.24c-.57-2.57-1.55-5-2.32-7.57a9.34,9.34,0,0,1-.43-2.44c0-2.91-1-5.66-1.31-8.5-.18-1.53-.21-3.08-.3-4.63-.14-2.41-.35-4.82-.39-7.24,0-2.14.11-4.28.17-6.43,0-1.33.09-2.66.11-4,0-2,.32-2.33,2.41-2.48,1.13-.08,2.25-.31,3.52-.49,1,1,1.09,1,2.66.44,1-.36,2-.81,3.15-.08.35.22,1,.07,1.45,0s.94-.34,1.43-.44c1.17-.25,1.66,0,1.83,1.21.24,1.73.27,3.49.36,5.23,0,.55,0,1.11,0,1.66.09,2.42.21,4.84.31,7.26.12,2.76.18,5.53.37,8.28a17.63,17.63,0,0,0,.69,3.19c.4,1.48.82,3,1.3,4.4a3.45,3.45,0,0,0,.73,1,6.53,6.53,0,0,1,1,1.1c.56,1.21,1.75,1.63,2.71,2.33a3.34,3.34,0,0,0,2.73-.39,1.51,1.51,0,0,1,1.56-.71,1.7,1.7,0,0,0,1.71-1.05,18.56,18.56,0,0,1,1.46-2,7.76,7.76,0,0,0,1.32-5.32c-.08-2.8.53-5.66-.63-8.38a.82.82,0,0,1,0-.49,23.38,23.38,0,0,0,.07-7.74,57.62,57.62,0,0,1,0-6.83,2.44,2.44,0,0,1,2.53-2.52c2.75-.23,5.5-.49,8.25-.7,1.37-.11,2.73-.17,4.1-.22a2.16,2.16,0,0,1,1.82,2.21c-.38,2.27.23,4.51.06,6.77a13,13,0,0,0,.27,2.29c.13,1.15.31,2.3.36,3.45.15,3.32.24,6.64.37,10,.08,2.26.18,4.53.32,6.79.1,1.6.26,3.19.4,4.79.07.77.18,1.53.25,2.3.11,1.15.22,2.3.29,3.46a8.67,8.67,0,0,1,0,2.16,18,18,0,0,0,0,6.59,1,1,0,0,1-.73,1.31,2.85,2.85,0,0,1-.79.23c-3.34.25-6.67.52-10,.68-1.92.09-1.91,0-2.43-1.89-.58-2.12-1.17-4.24-1.79-6.36A7,7,0,0,0,573.53,125.83Zm-14.4,0-1.52-1.6c-.61.12-1.13.63-1.71,0s-1.22-.21-1.52.3c-.39.68-.86,1.45-.34,2.24l3.51.42Zm27.33-4.34a16.05,16.05,0,0,0-.47-1.59c-.41-1-1.29-1-1.9-.15a1.69,1.69,0,0,0,.43,2.34c.31.25.86.52,1.14.4S586.22,121.78,586.46,121.46Zm-35-.28c.63-1.14.41-2.08-.69-3.08-.43.39-.9.77-1.31,1.21s-1.29,1-.75,1.62c.71.89,1.14-.37,1.8-.55Zm30.64,1.27c-.55.49-1.05.72-1.15,1.07-.33,1.09,1.25,2.51,2.56,2.35C583.94,124.39,582.25,124,582.07,122.45Zm-23-2.36a1.88,1.88,0,0,0-1.14,2.45.69.69,0,0,0,1.25.33,1.76,1.76,0,0,0,.5-1.14A6.8,6.8,0,0,0,559,120.09Zm-3.9,9.29c.48-.67.48-.67.22-1.48C554.3,128.51,554.3,128.51,555.13,129.38ZM585.5,125c.79.4,1.21.22,1.39-.42a.58.58,0,0,0-.27-.51C585.89,123.81,585.77,124.38,585.5,125Zm-.56-12.89.3-.1c-.08-.25-.16-.49-.26-.73l-.28.08Z"/>
    <path class="purple" d="M739.35,123.9c-2-2.15-3.78-4.24-4-7.36-.18-2.24-.71-4.46-1.08-6.69a2.8,2.8,0,0,1-.17-.81c.47-3.24-.07-6.64,1.8-9.66a41.61,41.61,0,0,0,1.73-4.23,11.84,11.84,0,0,1,4.18-5.21,2.93,2.93,0,0,0,.94-1,6,6,0,0,1,3.8-3.39,13,13,0,0,0,4.3-2,9.41,9.41,0,0,1,5-1.59c1.65-.17,3.31-.29,5-.31a29.61,29.61,0,0,1,3.63.3,21.23,21.23,0,0,1,7.21,2.32,12.33,12.33,0,0,1,5.71,5.57c.36.74,1,1.35,1.33,2.08.47.93.79,1.93,1.18,2.89a5.49,5.49,0,0,0,.37.9c.7,1.1,1.45,2.17,2.12,3.29a3.55,3.55,0,0,1,.46,1.41c.17,1.6.29,3.2.38,4.8.14,2.48.27,5,.33,7.46,0,2.21-1.05,3.14-3.22,3.07-2.48-.08-5,0-7.44,0s-5-.31-7.46-.3c-3,0-6,.16-9,.34-2.52.15-3.44,1.82-1.74,3.61s3.49,4.46,6.73,4.28a1,1,0,0,1,.49.08c1.78,1.08,3.41.31,5-.4s3-1.5,4.62-2.08c2.77-1,4.92.22,5.27,3.33.1.82.12,1.51,1.09,1.82.31.11.54.66.69,1.05.36.92.59,1.9,1,2.81a1.27,1.27,0,0,1-.65,1.79,15.42,15.42,0,0,1-4.63,2.1,24.28,24.28,0,0,0-4.82,1.72c-1.68.78-3.46.53-5.18.85a15.42,15.42,0,0,1-2.79.27,29.76,29.76,0,0,1-3.13-.24,14,14,0,0,1-6.74-2,3.11,3.11,0,0,0-.93-.33,7.11,7.11,0,0,1-3.68-1.76,2.22,2.22,0,0,0-1.16-.61c-2.21-.46-3.16-2.26-4.27-3.89a23.92,23.92,0,0,1-1.47-2.19A14.19,14.19,0,0,1,739.35,123.9Zm12.56-21.23c1.73.55,3.2,1.78,5.11,1,.16-.07.42.14.63.14,1.54,0,3.09,0,4.63,0,.38,0,.76-.06,1.13,0,1.47,0,2.94.09,4.4.08a3,3,0,0,0,1.44-.31c.3-.17.68-.74.6-1-.43-1.09-.4-2.46-1.77-3-.31-.13-.49-.57-.75-.85-.69-.77-1.33-1.64-2.57-1.47a.74.74,0,0,1-.58-.25c-1.34-1.75-3.31-.54-4.91-1.06-1.91,1-3.84,1.91-5.72,2.95C752.06,99.67,751.77,101.08,751.91,102.67Zm-6.54,2.13-.36.12c-.1.42-.16.85-.29,1.26s-.33.92-.52,1.43a8.56,8.56,0,0,0,1.33.74,1.09,1.09,0,0,0,.86-.13c.14-.1.16-.49.11-.72a12.17,12.17,0,0,0-.52-1.88A3.36,3.36,0,0,0,745.37,104.8Zm2.59,9.64c.67.6,1.17.58,1.51,0a.82.82,0,0,0-.22-.79C748.5,113.28,748.26,113.85,748,114.44Zm11.4-21.84c-.13-.11-.26-.28-.33-.26s-.23.19-.35.29l.42.4Z"/>
    <path class="purple" d="M946,137.31a2.38,2.38,0,0,1-.22-2.33A1.93,1.93,0,0,0,946,134c-.23-1.79.37-3.46.63-5.18a3.65,3.65,0,0,0,0-.66c-.1-3.38-.22-6.75-.29-10.13a28.22,28.22,0,0,1-.07-4.6,13.57,13.57,0,0,0-.45-3.09,9.4,9.4,0,0,1-.09-2.64,4.93,4.93,0,0,0-1.11-4.59c-.88-1-1.58-2.1-2.37-3.15a1.37,1.37,0,0,0-.48-.45,7.58,7.58,0,0,0-2.75-1,3.8,3.8,0,0,1-2.14-.78c-1.05,1.5-1.33,2-3.05,1.47a21.16,21.16,0,0,1-2.1,3c-1.52,1.51-1.7,3.47-1.92,5.34-.38,3.06-.48,6.16-.64,9.25,0,.92.17,1.86.16,2.79,0,1.85-.12,3.7-.2,5.56,0,.59-.07,1.18-.13,1.78a10.89,10.89,0,0,0-.22,1.95c.14,1.71.36,3.4.6,5.09s-.38,2.77-1.63,3a3.74,3.74,0,0,1-3.71-1.81l-.4-.84a6.25,6.25,0,0,1-.35,1c-.19.32-.41.82-.67.86-1.06.14-2.09.8-3.23.24a2.68,2.68,0,0,0-2.37.09,4.18,4.18,0,0,1-4-.14,1.54,1.54,0,0,1-.68-1,7,7,0,0,1,0-2.33c.64-3,.14-5.9,0-8.86-.07-2.13-.9-4.26-.18-6.42.08-.23-.07-.54-.11-.81a9.24,9.24,0,0,1,.22-4.43,2.79,2.79,0,0,0,.22-1.12c-.18-2.09-.42-4.17-.6-6.26a16.82,16.82,0,0,1,0-2.13q.16-6.52.34-13a4.34,4.34,0,0,1,1.73-3.72L912.59,85l2.1-.36c.6-.11,1.19-.29,1.79-.34,1.7-.14,3.42-.19,5.12-.36,2-.2,4,.56,6,.41.26,0,.71.39.79.69a10.16,10.16,0,0,1,.38,2.27c.15,2-.08,4,.59,6.11.25-.18.5-.26.57-.43.7-1.7,2.12-2.75,3.39-4a19.07,19.07,0,0,1,5.3-3.35,3.64,3.64,0,0,1,1.25-.18,3.81,3.81,0,0,0,1.13,0c1.88-.85,3.76-.37,5.63,0,1.45.26,2.89.63,4.33,1a2.29,2.29,0,0,1,1.3.64c1,1.65,2.7,2.42,4.31,3.25a3.86,3.86,0,0,1,1.91,2,14,14,0,0,0,.77,1.28c1,1.71,2,3.41,2.85,5.17,1,2,.26,4,.21,6a28.85,28.85,0,0,0,.13,2.93,22.82,22.82,0,0,1,.32,2.45c0,2.19-.21,4.37-.26,6.56-.06,2.47,0,4.94-.07,7.4a15.51,15.51,0,0,1-.43,2.4s-.08.12-.06.15c.64,1.17-.23,2.29-.15,3.45a27.69,27.69,0,0,1-.14,3.28c0,.33-.16.65-.16,1,0,1.86,0,1.87-1.77,2.27a4.5,4.5,0,0,1-1.15.12c-1.52-.06-3-.24-4.56-.22a15.84,15.84,0,0,0-2.4.52c-.75.13-1.5.17-2.26.24-.37,0-.75.07-1.12.07Zm-23.55-10.44a4.38,4.38,0,0,0-1.58,3.45.63.63,0,0,0,1,.45C923.31,130,923.59,128.4,922.48,126.87ZM954,134.11a1.3,1.3,0,0,0,.07.63,1.87,1.87,0,0,0,2.08.42,2.05,2.05,0,0,0,1.22-1.79c-.09-.56-.51-.72-1.12-.41ZM955.9,115c-.77-.41-1.27-.22-1.55.46a7.35,7.35,0,0,0-.47,1.58c-.07.47-.11,1,.58,1.18s1.12-.24,1.23-1S955.83,115.8,955.9,115Zm-6-14.86c.07.11.21.56.47.64.61.2.68-.34.77-.77.17-.86.38-1.7.47-2.56,0-.29-.3-.6-.47-.91-.28.2-.76.35-.82.6C950.07,98,950,99,949.85,100.13Zm-4-11.11-2.2-1.66c-.49,1.25-.37,2.34.31,2.66S945.23,89.87,945.81,89Zm-8.94,3.15.33.41a8.58,8.58,0,0,0,1.43-.79c.94-.8.88-1.1-.4-1.94Zm17.29,1.89c.78-1.07.77-1.47,0-2.44C953,92.8,953,93.22,954.16,94.06Zm-12-3a5.77,5.77,0,0,0,1.29,1.08c.26.1.71-.25,1.08-.4-.16-.31-.27-.82-.49-.87C943.54,90.72,943,90.31,942.18,91Zm18.69,14.68a1.31,1.31,0,0,0-1.58-1c-.16,0-.34.78-.22,1.08C959.32,106.39,959.91,106.35,960.87,105.72Zm-5.32.35c.31.72.63,1.27,1.47,1.05a.63.63,0,0,0,.25-.53C957,105.91,956.49,105.56,955.55,106.07Zm3,25.73c.3-.89-.1-1.3-.85-1.6C957.23,131.29,957.23,131.29,958.52,131.8ZM939.61,94l.16,2.4C940.8,94.83,940.8,94.83,939.61,94Zm.4-3c-.28.38-.58.62-.58.87s.32.43.51.65c.22-.2.58-.39.62-.62S940.27,91.37,940,91Zm12.91,5.81.09-1.4c-.15,0-.35-.08-.44,0C952.07,95.79,952,96.26,952.92,96.78Zm-35.79,18c-.33-.14-.52-.31-.65-.27a.67.67,0,0,0-.42.42c0,.13.3.44.37.41S916.81,115.09,917.13,114.81Zm43.35,14.52a3.21,3.21,0,0,0-.58-.4c-.06,0-.28.22-.27.32a2,2,0,0,0,.27.5Zm-6.21-8.79.31-.26-.56-.64a2.32,2.32,0,0,0-.3.32A5,5,0,0,0,954.27,120.54ZM920.8,132.86l-.08.32.75.17a1.34,1.34,0,0,0,.07-.27Zm17.78-35-.13-.25s-.11.06-.11.09a2,2,0,0,0,0,.26Zm-4.71-1.54s0-.09-.08-.09-.07,0-.1.07l.08.1Zm5.66-7-.08-.1s-.09.05-.09.08,0,.09.07.09S939.5,89.37,939.53,89.34Z"/>
    <path class="purple" d="M608.7,98.17l2.87.54c-.42-1.45-1-2.45-2.56-2.28a4.94,4.94,0,0,1-.88-4.63,14.87,14.87,0,0,0-.27-5.42c-.22-1.43.63-2.41.7-3.64,0-.16.41-.38.65-.42a18.53,18.53,0,0,1,2.45-.35,23.2,23.2,0,0,0,2.77-.06,5.29,5.29,0,0,1,3.19.3c1.33.56,1.77,1,1.84,2.39,0,.66,0,1.33.06,2a3.66,3.66,0,0,0,.5,1c.45-.42.94-.68,1.14-1.08,1.67-3.42,4.76-4.55,8.17-5.24a22.82,22.82,0,0,1,2.36-.62,21.37,21.37,0,0,1,3.6-.22c1,.08,2.14-.21,3.21-.12a7.81,7.81,0,0,1,2.17.64c1.24.5,2.26,1.49,3.84,1.24.56-.08,1.34.67,1.89,1.18,1.54,1.45,3,3,4.49,4.47a5,5,0,0,1,.6,1,14.35,14.35,0,0,0,1.45,2.39c1,1.12,1.24,2.56,1.72,3.88.41,1.13.48,2.38,1.33,3.34a.48.48,0,0,1,.1.31c-.14,2.36.88,4.53,1,6.84s.46,4.72.63,7.09c.05.7-.2,1.42-.16,2.13.06,1.23.31,2.45.33,3.68,0,1.58-.1,3.16-.13,4.75,0,1.33,0,2.66,0,4,0,.58-.24,1.17-.33,1.75a5.88,5.88,0,0,0-.08,1.1c0,.89.12,1.78,0,2.65,0,.43-.33,1.13-.61,1.18a5.93,5.93,0,0,1-2.09-.13c-.12,0-.22-.46-.23-.72s.21-.59.11-.79-.48-.5-.73-.74c-.21.27-.59.54-.6.82-.08,1.74-.14,1.82-1.75,2s-3,.59-4.59.07a.57.57,0,0,0-.48,0c-1.08.87-2.25,0-3.36.18-.66.08-1-.36-1-1a1.82,1.82,0,0,1,0-.33c.16-2.26.36-4.51.49-6.77.06-1,0-2.09,0-3.13a15.52,15.52,0,0,1-.14-1.65c.29-3.14-.11-6.28,0-9.43a65.66,65.66,0,0,0-.34-6.56,14.86,14.86,0,0,0-.62-2.4,18.52,18.52,0,0,1-.78-4.21,4.85,4.85,0,0,0-.9-1.9c-.16-.29-.52-.52-.55-.81-.12-.95-.33-1.62-1.48-1.87a6.7,6.7,0,0,0-2.35-.39c-1.12.12-2.27-.28-3.42.16-2,.75-4.18,1-5.78,2.69-.58.6-1.37,1-1,2a.69.69,0,0,1-.05.49c-1,1.76-.82,3.74-1.1,5.64a2.43,2.43,0,0,0,0,1,32.77,32.77,0,0,1,1,12.31,1.66,1.66,0,0,0,0,.8,11.62,11.62,0,0,1,.45,4.27c.09,2.93.22,5.86.33,8.79a5.61,5.61,0,0,1,0,1.16c-.14.88-.58,1.19-1.51,1a48,48,0,0,0-7.75-.41,26.15,26.15,0,0,0-4.85.2c-1.15.18-2.5-1.35-2.59-2.77-.06-.94,0-1.89,0-2.83s-.25-2-.24-3a10.36,10.36,0,0,1,.34-2.6,2.84,2.84,0,0,0-.09-2.23,3.46,3.46,0,0,1-.32-1.59c0-1.71.21-3.42.23-5.13,0-.77-.24-1.53-.28-2.3a16.6,16.6,0,0,1,0-4.22,17.87,17.87,0,0,0,.09-5.16C608.62,101.15,608.7,99.78,608.7,98.17Zm33.5-3c.64,1.46,1.83,1.56,3.15,1.54l.84-1.66a10.14,10.14,0,0,0-1.08-1.9c-.69-.79-1.4.08-2.1,0Zm-7-6.92c1.22.46,2.17.64,3-.12a1.1,1.1,0,0,0,.26-.85c0-.14-.43-.36-.63-.33-.72.14-1-.18-1.18-.82a5.55,5.55,0,0,0-.58-1C635.74,86.37,635.5,87.23,635.21,88.24Zm-12.79,25.18a7.24,7.24,0,0,0-1.09-1.07c-.2-.13-.8,0-.83.06a7.26,7.26,0,0,0-.46,2.19c0,.34.51.68.91,1.16C621.49,114.89,621.89,114.26,622.42,113.42Zm3-23.74-1.9,2.06c.82.61,1.54.76,2.13.24S626.16,90.63,625.39,89.68Zm-6,25.89c-1.24.56-1.61,1-1.49,1.8a.69.69,0,0,0,1.19.49C619.68,117.39,619.77,116.67,619.34,115.57Zm-7.52,1.81c.33.67.57,1.2.87,1.69,0,.08.44,0,.58-.06.65-.48.3-1.08.13-1.65,0,0,0-.13,0-.16-.23-.24-.47-.48-.71-.71Zm27.41-33.51a5,5,0,0,0,.76.86c.52.34.94.08,1.31-.31s.56-.94.09-1.3a1.49,1.49,0,0,0-1.16,0C639.9,83.19,639.64,83.53,639.23,83.87ZM620,119.36c-.43.79-.8,1.38-1.07,2a.77.77,0,0,0,.19.71.89.89,0,0,0,.75,0C620.8,121.64,620.9,120.76,620,119.36Zm-5-24.44c1-.67,2.45-.38,2.92-1.78-.89-.6-1-.69-1.23-.37C616.28,93.53,614.74,93.37,615,94.92Zm32.17-2.83c-.43.43-.89.67-.92,1a.74.74,0,0,0,1,.82c.36-.06.66-.42,1-.65ZM645,102.78c-.17.68-.31,1.28-.45,1.87.72.35,1.16.18,1.36-.36S646.07,103.1,645,102.78Zm-27.28-13c-.28.85-.46,1.51.38,2C618.88,90.65,618.88,90.62,617.72,89.78ZM616,87.61c-.34.37-.74.65-.7.8a1.43,1.43,0,0,0,.66.74c.1,0,.62-.35.6-.5C616.54,88.34,616.27,88.06,616,87.61Zm-3.08,1.67c-.3.4-.68.71-.62.85a1.47,1.47,0,0,0,.72.69c.09,0,.57-.4.54-.56S613.22,89.7,612.93,89.28Zm6.16,15.81c1-.38,1.33-.66,1.09-1.15-.08-.15-.38-.36-.47-.32C619.1,103.92,618.58,104.3,619.09,105.09Zm4.72-15.67V89c-.54-.31-1.06-.5-1.6.43Zm14.56,1.07v1.4C639.43,91.13,639.43,91.13,638.37,90.49ZM617,84.59c-.87.11-1.39.25-1.42,1.08C616.56,86.13,616.72,85.48,617,84.59Zm-.8,25.45.38,0c.35-.69.35-.69-.24-1.38ZM643,97.38c-.21.41-.47.71-.4.84s.44.38.67.56c.11-.17.34-.37.3-.5A4.33,4.33,0,0,0,643,97.38Zm-29.88,17.34c-.31-.24-.54-.53-.67-.49a.81.81,0,0,0-.52.53c0,.19.26.41.41.62Zm5.42.12-.24-.35a6.4,6.4,0,0,0-.71.55s.12.26.19.39Zm3.29,15.72a5.47,5.47,0,0,0,.34-.79c0-.05-.29-.26-.32-.24a1.43,1.43,0,0,0-.49.52C621.36,130.11,621.63,130.31,621.86,130.56Zm-8.55-23.69-.83-.31a1.59,1.59,0,0,0-.12.41s.17.12.25.12A5.53,5.53,0,0,0,613.31,106.87Zm8.24,19.64a5,5,0,0,0,.33-.64s-.25-.21-.31-.17a.55.55,0,0,0-.28.35C621.26,126.14,621.4,126.27,621.55,126.51Zm29-6.5-.08-.1s-.09,0-.09.08,0,.09.07.09S650.48,120,650.51,120Zm-40-35.34-.08-.09s-.09,0-.09.08,0,.08.07.09S610.47,84.7,610.51,84.67Z"/>
    <path class="purple" d="M676.48,100.28l1.16-1c-.33-.29-.59-.48-.81-.72-.71-.76-.58-1.41.33-2a5.46,5.46,0,0,0,1.26-1,1.11,1.11,0,0,0-.16-1.62c-.61-.37-.93.14-1.24.49a12.25,12.25,0,0,1-1.28,1.4c-.38-2.24-2.36-3.57-2.85-5.7a5.32,5.32,0,0,0-.86-1.58c-.92-1.36-.83-2.95-.91-4.47,0-.92,1.11-1.57,2.18-1.06a6.23,6.23,0,0,0,3.35.24q3.9-.19,7.79-.32c1.06,0,2.12,0,3.17,0s1.28.41,1.54,1.39a40,40,0,0,0,1.42,4.55c.23.57.87,1,1.43,1.55A10.49,10.49,0,0,0,693.14,96a23.15,23.15,0,0,1,1.07,3.3,16.72,16.72,0,0,1,1.14,3.09c.31,2.31,1.73,4.12,2.47,6.23.08.21.11.47.25.6a3.54,3.54,0,0,1,1.16,2.81c0,.13.16.26.28.45,1.16-.33,1.3-1.41,1.42-2.23a26.23,26.23,0,0,1,1.69-5.69c1-2.58,1.6-5.28,2.42-7.91.45-1.47.92-2.93,1.5-4.35.34-.84-.13-1.64.24-2.55.45-1.14.49-2.41,1.57-3.27.22-.18.19-.71.2-1.08.08-1.71.82-2.29,2.52-2.25a15.64,15.64,0,0,0,3.61-.31,11.45,11.45,0,0,1,4.77,0,2.43,2.43,0,0,0,1.31,0c1.35-.5,2.46.2,3.9.54a17.86,17.86,0,0,1-.8,2.74,27.2,27.2,0,0,0-2.44,6.78A40,40,0,0,1,720.18,97a18.78,18.78,0,0,1-1.11,3.27c-1.07,1.95-1.16,4.2-2,6.19s-1.79,3.91-2.66,5.87c-.28.65-.35,1.4-.65,2-.61,1.28-.53,2.83-1.75,3.86-.32.27-.32.92-.44,1.4a6,6,0,0,1-.43,1.86c-1.42,2.18-1.82,4.81-3.15,7a2.15,2.15,0,0,0-.32.93c-.09,1.89-1.09,3.45-1.82,5.1a1.7,1.7,0,0,1-1.44,1.19c-.37,0-.71.28-1.08.34a3.19,3.19,0,0,1-1.4.06,8,8,0,0,0-5-.47,5.28,5.28,0,0,1-1.82,0c-1.44-.09-2.87-.24-4.3-.3a1.41,1.41,0,0,1-1.48-1c-.91-2.36-2-4.63-2.91-7-.69-1.9-1.08-3.91-1.71-5.83a25.4,25.4,0,0,0-1.81-4.38,13.19,13.19,0,0,1-1.53-4.86,13.28,13.28,0,0,0-1.28-4.18,14.6,14.6,0,0,0-1.84-2.65,2.23,2.23,0,0,1-.49-2.17,1.62,1.62,0,0,0-.67-2.13C676.81,101,676.7,100.64,676.48,100.28Zm35.71,13.34c-.08-1.22-.09-2.15-.24-3.06-.05-.27-.49-.47-.75-.7-.22.27-.64.55-.63.82a18.86,18.86,0,0,0,.37,2.9.88.88,0,0,0,.69.52C711.92,114,712.14,113.67,712.19,113.62Zm-13.87,5.11.06.45c1,.73,2,0,2.89-.31,1.33-.47,1.25-1.7,1.14-2.9a2.89,2.89,0,0,0-.9,1.21,1.65,1.65,0,0,1-1.73,1.22A7,7,0,0,0,698.32,118.73Zm-8.93-16.49c.93-1.46.7-2.37-.53-2.7a1.1,1.1,0,0,0-.86.19c-.13.09-.11.56,0,.74C688.39,101,688.86,101.56,689.39,102.24Zm23.18-2.47a1.55,1.55,0,0,0,.16-2.06c-.32-.47-.76-.79-1.37-.42C711.19,98.7,711.19,98.7,712.57,99.77Zm-.79,3.11a1.64,1.64,0,0,0,.92-1.68c0-1.18-.45-1.35-1.67-.62Zm-10.25,10.51c-.4-.28-.66-.61-.85-.57s-.52.37-.77.57c.23.25.44.68.69.7S701.12,113.72,701.53,113.39Zm9.26-8.9c.32-.72.11-1.12-.38-1.36s-.8-.46-1.12.36Zm6.56-8.58-.41.18c-.16.66,0,1.13,1,1.19Zm-28,7c-.23.38-.37.54-.39.71s.13.27.2.41c.16-.11.39-.2.44-.34S689.47,103.39,689.32,103Zm2.89,5.75a2.63,2.63,0,0,0-.29.62c0,.1.16.22.25.32a2.21,2.21,0,0,0,.37-.45C692.57,109.13,692.39,109,692.21,108.71Zm1.19,9a2.59,2.59,0,0,0-.4.48s.24.3.28.28a2.4,2.4,0,0,0,.47-.37ZM682,108.15a1.67,1.67,0,0,0-.45-.24s-.21.14-.2.17.12.3.23.33S681.78,108.29,682,108.15Zm22.59,7.56a2.48,2.48,0,0,0-.37-.17s-.14.19-.12.22a3,3,0,0,0,.34.28Zm-12.47,13.6a1.63,1.63,0,0,0-.25-.1s-.07,0-.11.09.11.16.16.15S692,129.36,692.11,129.31Zm18.78-22.47-.15-.19s-.11.07-.11.1a2.5,2.5,0,0,0,.09.25A1.29,1.29,0,0,0,710.89,106.84ZM685.1,92.91S685,93,685,93s0,.06.07.09.09,0,.09-.08S685.13,92.94,685.1,92.91Z"/>
    <path class="purple" d="M839,124.15c.21-2.7.63-5.4.58-8.1-.07-3,.57-6,.2-9-.11-.9.26-1.86.22-2.79-.06-1.59-.28-3.18-.4-4.77a2.63,2.63,0,0,1,.1-1.26,5,5,0,0,0,0-3.86,4.29,4.29,0,0,1-.12-1.75c.1-1,.34-1.94.46-2.92s.19-2.08.28-3.13c0-.22.09-.49,0-.65-1-1.56-.09-3.09,0-4.64.09-2,.05-4.1,0-6.16,0-.87-.17-1.75-.25-2.63-.1-1-.21-2.08-.28-3.13a3.94,3.94,0,0,1,0-1.81,7.82,7.82,0,0,0,.29-4c-.13-1.79.42-2,2-2.6a29.37,29.37,0,0,1,6-1.06,17.69,17.69,0,0,1,5.9-.24c1.68.35,1.9.65,1.82,2.32-.12,2.92-.24,5.84-.32,8.77,0,1.86,0,3.73,0,5.6-.07,2.38-.29,4.75-.29,7.13,0,1.92.31,3.84.32,5.76,0,2.7-.15,5.4-.24,8.1a15.37,15.37,0,0,0-.1,1.65,64,64,0,0,1-.59,10.54,25,25,0,0,0-.14,5.93,20.78,20.78,0,0,1-.13,3.14c0,2.24.1,4.48.11,6.72,0,1.61-.06,3.21-.08,4.82,0,.76,0,1.52,0,2.28.07,1,.41,2.08-.32,3a3.45,3.45,0,0,1-3.12,1.13c-1.15,0-2.31.07-3.47.06a11.15,11.15,0,0,1-1.62-.18,7.58,7.58,0,0,0-4.14.17c-1,.4-2.55-.87-2.64-2a8.84,8.84,0,0,1-.23-2.13,15.47,15.47,0,0,0,0-5,14.68,14.68,0,0,1,.3-3.28Zm10.41-25.57c2.21-2.44,2.51-3.51,1.47-5.11-.79.61-1.56,1.13-2.63.41-.7-.46-1.21.22-1.68.67a1.33,1.33,0,0,0-.47,1.59C846.63,97.74,848,98.11,849.38,98.58Zm.24,3.07c-.15.27-.41.69-.62,1.13a1.59,1.59,0,0,0,.35,2,3,3,0,0,0,2,.68,1.22,1.22,0,0,0,.8-1.71c-.27-.79.16-1.36.5-2a3,3,0,0,0,.16-.78Zm-4-28.5c.73-1.27.6-2.11-.4-3-.59-.5-1-.18-1.63.51C845.44,70.76,844.18,72.84,845.66,73.15Zm4.46-1.4a14.26,14.26,0,0,1-.46,1.88,4,4,0,0,0,.08,1.08c.39-.08.89,0,1.15-.25C851.78,73.69,851.51,72.66,850.12,71.75Zm-2.42,44.53-1.81,1.31c.93,1,1.2,1.12,1.6.86C848.24,118,848.11,117.27,847.7,116.28Zm2.44-7.2c.85.55,1.5.8,2,0a1.16,1.16,0,0,0-.22-1.1C851,107.53,850.79,108.43,850.14,109.08Zm-3.55-1.61c-.4-.44-.74-1-.86-.91a5,5,0,0,0-1.12.81c.28.28.53.76.82.79S846.1,107.79,846.59,107.47Zm-3.14-15.91c-.73,1-.71,1,.7,1.57C844.53,92.31,844.09,91.9,843.45,91.56Zm.43,40.39c-.37-.52-.77-.68-1.16-.09a.72.72,0,0,0,.11.7C843.48,133,843.65,132.41,843.88,132Zm3.54-5.39c-.27.42-.34.83.2,1.08a.69.69,0,0,0,.59-.32C848.32,126.77,848,126.52,847.42,126.56ZM846.06,99.4l.55,0-.13-1.14-.42,0Zm3.71-15.59c-.3-.24-.52-.55-.68-.52a.74.74,0,0,0-.45.56.69.69,0,0,0,.49.51C849.31,84.37,849.5,84.06,849.77,83.81Zm-.4,49,.14-.37-1-.32c0,.39.1.61.27.68A1.71,1.71,0,0,0,849.37,132.81Zm-1.82,1.65.83.31a2.12,2.12,0,0,0,.12-.41.42.42,0,0,0-.26-.12A5.59,5.59,0,0,0,847.55,134.46Zm-2.89-.92a1.76,1.76,0,0,0-.4-.3c-.07,0-.25.11-.25.14s.09.31.19.36S844.44,133.65,844.66,133.54Zm-1.34-68.65a2.14,2.14,0,0,0-.37-.32c-.07,0-.26.1-.25.13a1.56,1.56,0,0,0,.15.39Zm-2.1,60.23.82.32a1.59,1.59,0,0,0,.12-.41s-.17-.13-.25-.12A3.8,3.8,0,0,0,841.22,125.12ZM846,114.78l-.31.83a2,2,0,0,0,.4.11s.13-.17.12-.25A3.8,3.8,0,0,0,846,114.78Zm1.89-29.53-.43-.35-.36.47a1.27,1.27,0,0,0,.43.14C847.62,85.5,847.72,85.36,847.87,85.25Zm-6,37.26-.15-.19s-.11.07-.11.09a2.67,2.67,0,0,0,.09.26Zm10.56,4.84a1.3,1.3,0,0,0,.1-.25s-.06-.07-.09-.11-.16.11-.15.16S852.41,127.28,852.46,127.35ZM852.12,91a1.86,1.86,0,0,0-.25-.1s-.07.06-.1.09.11.16.15.16S852.05,91,852.12,91Zm-4.26,8.7-.08-.09s-.09,0-.09.08,0,.08.07.09S847.82,99.7,847.86,99.67Z"/>
    <path class="purple" d="M891.86,119.19c1.86,1.46,1.92,1.62,1.23,3.37l-.86-.35c-.63-.24-1.19-.07-1.31.58a3.32,3.32,0,0,1-1.39,2c-.79.66-.64,1.35.31,1.77.35.15.75.2,1.1.35,1.18.48,1.57.28,1.76-1,.07-.53.09-1.06.14-1.73a1.11,1.11,0,0,1,.89,1.46,18.75,18.75,0,0,0-.24,2.13c-.13,2.59-.21,5.19-.35,7.79-.09,1.53-.44,1.84-1.92,1.83a5.21,5.21,0,0,1-1.48-.16,2,2,0,0,0-1.86.31,2.68,2.68,0,0,1-2.76.07,3.2,3.2,0,0,0-2.63-.19,4.61,4.61,0,0,1-3.52-.25c-1-.46-1.34-1.84-1.2-3.06s.37-2.5.52-3.76c0-.37-.15-.76-.14-1.13a5.53,5.53,0,0,1,.19-1.78,7.88,7.88,0,0,0,.15-3.89,18,18,0,0,1,0-5.49,5,5,0,0,0-1-4.5,13.21,13.21,0,0,0,.93-5.37,19.5,19.5,0,0,1,.25-2.63,29.71,29.71,0,0,0,.1-5.08,16.49,16.49,0,0,1,.35-2.95,5.71,5.71,0,0,0,.19-1.12,27.67,27.67,0,0,1-.45-4.76,29.32,29.32,0,0,0-.1-3.76c-.08-1.49.58-2.12,2-2.26.7-.07,1.39-.31,2.09-.4a9.15,9.15,0,0,1,2.27-.09,13.6,13.6,0,0,0,4.59.12,4.77,4.77,0,0,1,1.4.08,12.55,12.55,0,0,0,1.6.22c1,0,1.32.14,1.41,1.1.24,2.59.6,5.21-.06,7.74-.31,1.17-.29,2.34-.48,3.5a7.2,7.2,0,0,0,.45,2.74,3,3,0,0,1,0,2.24,2.11,2.11,0,0,0-.1,1.61c.83,1.79,0,3.6.21,5.38a17.19,17.19,0,0,1,0,2.27,14.62,14.62,0,0,1-.2,1.46A19.28,19.28,0,0,1,891.86,119.19Zm-8.22-28.71-.6,0c-.68.7-.12,1.48,0,2.45.44-.18,1-.33,1-.42A18.3,18.3,0,0,0,883.64,90.48Zm2.76.33-.4-.4-1.46.86c.67.27,1.08.57,1.25.47S886.21,91.13,886.4,90.81ZM890,134l-.28-.11a2.76,2.76,0,0,0-.42.61c0,.13.1.33.16.5h.29ZM882,96.9c-.17-.16-.26-.28-.38-.32s-.25.09-.24.12a1.49,1.49,0,0,0,.15.4Zm3.48-7.43-.15-.28a1.37,1.37,0,0,0-.33.25s.07.17.11.26Z"/>
    <path class="purple" d="M818,87.13l-.7.06c-1.09.08-1.28.36-.72,1.29a13.63,13.63,0,0,1,1.82,7.72c-.11,2.15-.26,4.29-.22,6.45a3.21,3.21,0,0,0,0,.82c.44,1.56,0,3-.28,4.56a6.58,6.58,0,0,0,0,1.66c.17,1.53.51,3,.57,4.59.05,1.31-.23,2.63-.26,4a25.93,25.93,0,0,0,.23,2.63,7.53,7.53,0,0,1,0,1.16l-.27,5.46a.61.61,0,0,0,0,.33c1,2-.58,3.47-.88,5.21a15.58,15.58,0,0,1-2.62,1.3,13.61,13.61,0,0,1-7.19.47c-.46-.12-1,.23-1.51.35a15.65,15.65,0,0,1-2.11-.82c-.44-.24-1.08-.74-1.06-1.08.15-2-.52-3.92-.4-5.9a5.5,5.5,0,0,1,.38-1.09c1.22,1.47,2.82.68,4.15,1.14.47-1.18.31-1.65-.65-1.6a2.92,2.92,0,0,1-2.78-1.33,2,2,0,0,0-.73-.67c-.89-.41-.86-1-.73-1.9a42,42,0,0,0,.24-4.35.43.43,0,0,0-.08-.32c-1.22-1.17-.83-2.69-.8-4.09,0-2.87.19-5.74.33-8.62,0-.37.25-.73.29-1.1.12-1.08.54-2.29.22-3.23A25.08,25.08,0,0,1,801.4,94a46,46,0,0,1-.15-5,19.18,19.18,0,0,1,.55-3.42,2.92,2.92,0,0,1,2.42-1.45c.93.09,1.86.24,2.79.34.27,0,.62.1.8,0,1-.7,2-.48,3.06-.51a19.92,19.92,0,0,1,4.76,0c1.83.36,2,.33,2.22,2.18C817.88,86.4,817.94,86.71,818,87.13Zm-6.73,42.6c1.67,1.12,1.86,1.14,2.88.27l-1.07-2.15c-.12,0-.43.09-.53,0-.95-1-1.89-.51-2.88-.07a4.14,4.14,0,0,1-1.24.17c-.14,1.09-.26,2-.37,3C809.2,131.3,809.2,131.3,811.27,129.73Zm2.47-34.65L813,93.49a1,1,0,0,0,0-.16c-.48-.82-1.32-1.15-1.93-.76-.94.61-1.38,1.8-.82,2.5a5.47,5.47,0,0,1,1,2.4,4.82,4.82,0,0,0,1.08,1.78c.09.11.59,0,.83-.14.08,0,0-.54-.09-.7a4.94,4.94,0,0,0-.91-.69,8.83,8.83,0,0,0,.2-1.16,12.69,12.69,0,0,0-.13-1.38Zm-3,13.06c.31-1.63-.22-2.08-2.38-2.17C808.35,107.47,808.64,107.74,810.77,108.14Zm3.9,17-1-1.94-1.84,1.88A2.31,2.31,0,0,0,814.67,125.13Zm-5.82-22c-1.28,1.42-1.28,1.7-.05,2.26C809,104.67,809.37,104,808.85,103.11Zm-.59,14c-.36-.78-.77-.74-1.27-.45s-.55.62-.1,1.22Zm2,.78c-.71-.18-1,.23-1.17.68,0,.08.11.36.21.38.62.14.84-.29,1-.77C810.26,118.17,810.23,118.11,810.21,117.93Zm3.06-5.47c.15-.32.31-.52.27-.59a3.49,3.49,0,0,0-.56-.65s-.33.22-.31.25A10.33,10.33,0,0,0,813.27,112.46Zm-5.61-16.73c-.23-.21-.37-.45-.51-.45a.53.53,0,0,0-.43.34.55.55,0,0,0,.34.43C807.2,96.08,807.39,95.89,807.66,95.73Zm-4.78,33.39.83.32a2.12,2.12,0,0,0,.12-.41s-.17-.13-.26-.12A3.8,3.8,0,0,0,802.88,129.12Zm6.6-3.28a2.48,2.48,0,0,0-.17.37s.19.14.22.12a1.88,1.88,0,0,0,.28-.34Zm5.41-23,.24-.13s-.06-.11-.09-.11a2.34,2.34,0,0,0-.26,0Zm-3.78-2.5a1.39,1.39,0,0,0-.26-.1s-.06.07-.1.1.13.14.19.15S811.05,100.36,811.11,100.3ZM803.86,119s-.05-.09-.08-.09-.07,0-.1.07l.08.1Z"/>
    <path class="purple" d="M1055.12,111.91c-.46-1.48.67-3.14-.49-4.62-.34-.44-.07-1.35-.13-2-.13-1.54-.19-3.1-.45-4.61-.49-2.84-.13-5.73-.85-8.56a24.42,24.42,0,0,1-.21-4.78c0-.93-.16-1.85-.28-2.78-.08-.71-.24-1.41-.3-2.12-.25-3-.44-6.05-.72-9.08-.1-1.08-.53-2.15-.59-3.23-.07-1.41.16-1.51,1.62-1.53.71,0,1.42-.28,2.12-.25a23.33,23.33,0,0,1,4.28.36,8.21,8.21,0,0,0,3.43-.13,18.45,18.45,0,0,1,6.75.08c.94.17,1.25.54,1,1.49a25.91,25.91,0,0,0-.49,6.27c0,.88-.19,1.75-.23,2.63a2.4,2.4,0,0,0,.21,1.26,2.21,2.21,0,0,1,.1,2.06,8.58,8.58,0,0,0-.39,2.09,33.28,33.28,0,0,0-.31,4.45,19.42,19.42,0,0,1-.59,6.53,3.43,3.43,0,0,0,.19,1.77,4.11,4.11,0,0,1,.11,2.91,1,1,0,0,0-.06.49c.16,3.69-.91,7.3-.71,11a9,9,0,0,1-.37,2.62,1.51,1.51,0,0,1-.85.85,10.54,10.54,0,0,1-5.14.76,15.48,15.48,0,0,0-4.1.38c-1.62.25-2.17-.13-2.28-1.67C1055.34,113.64,1055.22,112.77,1055.12,111.91Zm2.28-35.85h.42c.26-.53.37-1-.42-1.75Z"/>
    <path class="purple" d="M1053.38,129.81a20.41,20.41,0,0,1,1.43-4.5c.75-1.35,2.14-2.33,3.24-3.48,2.34-.19,4.42-1.54,7-1.09,2,.37,3.43,1.7,5.2,2.42a.53.53,0,0,1,.24.23c1,1.84,2,3.64,1.84,5.87a8.76,8.76,0,0,0,0,2.8,9.29,9.29,0,0,1-.17,3.93c-.24,1.26-1.42,1.64-2.11,2.47s-1,1.62-2.19,2.07c-1.73.67-3.53.27-5.21.84a3.87,3.87,0,0,1-1.29.24,4,4,0,0,1-1.55-.33c-.92-.49-1.73-1.18-2.66-1.64-2.36-1.17-3.1-3.28-3.39-5.66C1053.6,132.78,1053.53,131.57,1053.38,129.81Zm9.59,6.92a2.34,2.34,0,0,0,2.56,0,2.57,2.57,0,0,0,1.29-2.36C1065.5,135.27,1063.76,135.08,1063,136.73Zm6.91-3.81c-.41-.35-.79-.76-.85-.71a5.59,5.59,0,0,0-1.08,1s.45.61.53.58A12,12,0,0,0,1069.88,132.92Zm-2.39-5.92-.47-.18-.81,1,.2.35c.34-.09.77-.09,1-.3S1067.47,127.3,1067.49,127Zm.19,4.27.09.59,1.08-.3c0-.13-.06-.27-.08-.4ZM1057,133.82a1.67,1.67,0,0,0-.45-.24c-.06,0-.21.14-.2.17s.12.3.22.33S1056.81,134,1057,133.82Zm2.23-1-.15-.19s-.11.07-.11.1a1.84,1.84,0,0,0,.09.25A1.29,1.29,0,0,0,1059.25,132.84Zm.21,2.13a1.39,1.39,0,0,0-.26-.1s-.06.07-.1.1.13.14.19.15S1059.41,135,1059.46,135Z"/>
    <path class="purple" d="M810.13,79.62c-1.09-.3-2.17-.61-3.27-.88-.64-.16-1.3-.21-1.94-.38a10,10,0,0,1-1.67-.57,4,4,0,0,1-2.52-3.16c-.19-1.09-1-2-1.36-3.13-.84-2.6-.09-5,1.1-7.32a1.73,1.73,0,0,1,.6-.53l4-2.59a6.06,6.06,0,0,1,4.56-1c1.14.21,2.3.31,3.41.62a5.18,5.18,0,0,1,3.19,2.14c1,1.74,1.9,3.59,2.82,5.41a1.56,1.56,0,0,1,.09.65,11.27,11.27,0,0,1-2.38,7.67A7.77,7.77,0,0,1,810.13,79.62Zm.32-16a13.12,13.12,0,0,0-1.78.63.82.82,0,0,0,0,1.48,15.08,15.08,0,0,0,3.36.8c.35,0,.86-.56,1.13-1a1,1,0,0,0-.27-1A23.1,23.1,0,0,0,810.45,63.61Zm-8.34,1.64c-.24.93-.43,1.55-.55,2.18-.09.48.1,1.07.6.94.7-.18,1.6.68,2.06-.37a1,1,0,0,0-.13-.9C803.56,66.51,802.93,66,802.11,65.25Zm13.09,6.9c-1.8.53-2.1,1-1.78,2.53l2.32-1.12Zm-9.17-6c1.2-1,1.2-1,.08-1.62C805.74,65,805.25,65.41,806,66.13ZM811.67,75v1.49C812.79,75.92,812.79,75.92,811.67,75Z"/>
    <path class="purple" d="M884,62.51a.76.76,0,0,0,.57-.1c1-.74,1.92-.41,2.93.12a23.72,23.72,0,0,0,2.92,1.1,1.54,1.54,0,0,1,.57.29,32.93,32.93,0,0,1,2.92,3.34,7,7,0,0,1,.76,2.46,9.49,9.49,0,0,1-1.2,6.94,1.93,1.93,0,0,1-1,1,3,3,0,0,0-2,1.58,2.22,2.22,0,0,1-2.21,1.19,1,1,0,0,0-.66.06c-2.09,1.23-4.1.07-6.12-.25a3.51,3.51,0,0,1-2.37-1.71,2.75,2.75,0,0,0-.6-.78c-1.52-1.15-1.9-2.78-2.09-4.53,0-.44-.17-.86-.24-1.3a6.86,6.86,0,0,1,.4-3.4,7.88,7.88,0,0,1,4.13-4.86C881.66,63.16,882.45,62.39,884,62.51Zm1.89,14.82a22.58,22.58,0,0,0,2.56-.85c.78-.36,1.94-.45,1.76-1.89l-1.91-.43c-.84.67-1.56,1.26-2.31,1.82S885.42,76.94,885.92,77.33Zm-5.44-5.1c-.07-1-.09-1.67-.19-2.33a2.15,2.15,0,0,0-.44-1,.93.93,0,0,0-.82-.25,1,1,0,0,0-.38.78,10.6,10.6,0,0,0,.2,2.1,6.54,6.54,0,0,0,.54,1.29Zm.16,3.78c.7,1.31,1,1.4,1.91.56C882,76.07,881.51,75.47,880.64,76ZM887.56,66a3.07,3.07,0,0,0-1-.15c-.22,0-.37.41-.55.63.2.15.38.4.59.43C887.11,67,887.51,66.72,887.56,66ZM884,64.2l0,.46c.35.27.72.35,1-.08.08-.11,0-.36,0-.54Zm-1,1-.41-.38c-.18.25-.36.49-.52.75,0,0,.12.15.18.23Z"/>
    <path class="purple" d="M848.46,96a1.55,1.55,0,0,1-.49.09c-.05,0-.16-.21-.13-.24a1.35,1.35,0,0,1,.32-.26Z"/>
  </g>
  <g id="date">
    <path class="white" d="M745.83,184c-.27.79-.53,1.58-.82,2.36-.66,1.78-1.38,3.54-2,5.35-.41,1.26-.62,2.59-1,3.88-.21.71-.74,1.3-1.5.94s-1.86-1-1.91-1.53a8.7,8.7,0,0,0-1.2-2.92c-.83-1.86-1.45-3.81-2.21-5.7-.3-.77-.72-1.49-1.22-2.48a7.2,7.2,0,0,0-.49.81c-.62,1.47-1.24,2.94-1.83,4.42a10.06,10.06,0,0,0-.39,5.3c.18,1.24-.69,1.86-1.48,2.35-.58.35-1.21,1.31-2.1.59s-.78-1.56-.53-2.58c1-4.05,1.83-8.15,2.88-12.18.52-2,1.4-3.94,2.09-5.92a27.54,27.54,0,0,1,.91-2.92,2.51,2.51,0,0,1,1.41-1.17c.3-.1,1,.39,1.2.78a36.86,36.86,0,0,1,1.47,4c.54,1.64,1,3.29,1.49,4.95.29,1,.45,2.08.72,3.12s.62,2.09,1.06,3.55a5.82,5.82,0,0,0,.85-1.2c1.12-3.57,2.17-7.15,3.31-10.7.53-1.68,1.17-3.32,1.83-5,.14-.35.58-.58,1.19-1.15.62,1.41,1.15,2.54,1.62,3.71a8.06,8.06,0,0,1,.55,1.79c.19,1.12.22,2.28.44,3.4s.71,2.28.92,3.45c.43,2.37.71,4.76,1.13,7.12.26,1.45.65,2.87,1,4.31s0,2.39-.93,2.63c-1.36.36-3.45-.56-3.62-1.72-.31-2.09-.48-4.21-.74-6.31a8.65,8.65,0,0,0-.39-1.73c-.41-1.21-.86-2.4-1.3-3.61Z"/>
    <path class="white" d="M944,181.89l3.24-1.91-1.43-.53c.41-.38.7-.86,1.12-1a5.16,5.16,0,0,1,6.54,2,2.93,2.93,0,0,0,1.1,1.11c.46.18,1.36.24,1.57,0,2-2.57,4.84-2.68,7.69-2.68,1.89,0,2.8,1.53,3.83,2.76,1.3,1.57,1.27,3.54,1.29,5.4,0,2.08-.27,4.17-.43,6.25-.09,1.21-.13,2.44-.3,3.64-.07.44-.42,1.16-.7,1.19a29.51,29.51,0,0,1-4.1.07c-.23,0-.66-.51-.62-.71.26-1.37.62-2.72.88-3.8,0-1.31-.09-2.41-.06-3.51a31.62,31.62,0,0,0,.2-3.88c-.15-1.54-.75-3.13-2.34-3.62s-3.11.27-4.45,1.52c-1,.95-1.36,1.55-.65,2.8a3.39,3.39,0,0,1,0,2c-.3,1.94-.72,3.86-1,5.79a7.14,7.14,0,0,0-.06,2.21c.24,1.45-.39,2.42-1.85,2.41a4.74,4.74,0,0,1-2.13-.51c-.58-.31-.9-.73-.53-1.71A16.88,16.88,0,0,0,952,191.7a21.45,21.45,0,0,0-.63-6.7c-.32-1.09-1.84-2-3-2.57-.44-.21-1.45.82-2.23,1.23-.49.25-1.07.34-1.56.6s-.94.57-.94.86c0,1.44.16,2.88.26,4.32a4.44,4.44,0,0,1,.09,1.39,4.44,4.44,0,0,0,.45,4c.32.49,0,1.66-.43,2.31-.27.43-1.15.5-1.77.67-.18,0-.42-.2-.62-.2-2.22.07-3-1.11-2.18-3.24a5.21,5.21,0,0,0,.3-1.71c0-3.82,0-7.65.05-11.47,0-1,.22-2.3,1.79-2a2.77,2.77,0,0,1,1.54.84A8,8,0,0,1,944,181.89Z"/>
    <path class="white" d="M1008.49,174.93c.31-.23.77-.48.74-.58-.41-1.39.6-1,1.31-1.18a14.26,14.26,0,0,0,1.34-.58,4,4,0,0,1,1.56-.2,8.92,8.92,0,0,1,2.15.54,16.41,16.41,0,0,1,3,1.36,24.24,24.24,0,0,1,4.91,3.66,6.58,6.58,0,0,1,1.68,6.22,1.51,1.51,0,0,0-.12.38c-.1,2.11-.13,4.22-.31,6.31s-1.62,3.51-3.11,4.72-3.36,2.34-5,3.49a1.67,1.67,0,0,1-2.29-.06,1.76,1.76,0,0,0-2.53.24,1.3,1.3,0,0,1-1.8.32,2.88,2.88,0,0,0-1.42-.29c-1.17.05-1.62-.43-1.63-1.61-.06-4.51.18-9,.53-13.51a54.74,54.74,0,0,0-.26-7.12c0-.87-.19-1.73-.25-2.6a4.3,4.3,0,0,1,.15-.92,4.71,4.71,0,0,1,.93.54A3.36,3.36,0,0,1,1008.49,174.93Zm3.14,21.39c1.08-.36,2.19-.42,2.84-1a21.87,21.87,0,0,0,3.86-4.19,13,13,0,0,0,2-4.75c.65-3.77-1-6.82-4-9-1.18-.88-2.46-2.4-4.7-1.45Z"/>
    <path class="white" d="M658.11,181.54c0-1.45.07-3.13,0-4.79a3.14,3.14,0,0,1,3.08-3.58,1.21,1.21,0,0,1,1.3,1.6c-.87,2.36.09,4.63.2,6.94.09,1.91.07,3.82.14,5.73.05,1.28.28,2.57.22,3.85-.08,1.93-.32,3.86-.53,5.78-.15,1.4-2.25,3-3.24,2.24-1.51-1.09-2.71-.3-4,.17-2.31.83-4.21.28-6.22-1.15a10.24,10.24,0,0,1-4-6.67c-.67-3.07-.47-6.2,1.79-8.62,1.47-1.57,3.39-2.92,5.7-2.77A36.51,36.51,0,0,1,658.11,181.54Zm-.4,5.61c.32-2.33.17-2.69-1.75-3.37a5.53,5.53,0,0,0-2.48-.4,3.38,3.38,0,0,0-2.84,1.89c-1.13,2.18-.89,4.46-.95,6.71,0,.91.51,2.45,1.14,2.66,2,.64,4.17,1.45,6.06-.34a2.34,2.34,0,0,0,.78-1.38C657.76,191,657.71,189.08,657.71,187.15Z"/>
    <path class="white" d="M589.25,199c-1.08,0-2.16.07-3.24,0a7.67,7.67,0,0,1-1.88-.57c-.33-.12-.66-.51-1-.46-2.84.46-3.2-2-4.06-3.61s-.56-2.3,1-3.33c.7-.47,2-.26,2.23.51.73,2.54,2.87,2.6,4.82,2.59.68,0,1.35-1.15,2-1.77a1.55,1.55,0,0,0,.27-2.4c-.87-1.28-1.32-2.79-3.06-3.33-.54-.17-.88-1-1.32-1.49a18.63,18.63,0,0,1-1.87-2.22,22.7,22.7,0,0,1-2.12-4.13c-.54-1.52.35-2.86,1.11-4.14a18.76,18.76,0,0,1,1.34-2.14,5.48,5.48,0,0,1,4.79-2c1.71.1,3.41.31,5.1.58,1.07.18,2.49,1.92,2.06,2.66a10.22,10.22,0,0,1-2.49,2.46c-.14.12-.74-.19-1-.41a4.79,4.79,0,0,0-5.67-.06,1.79,1.79,0,0,0-.35,1.46,12.5,12.5,0,0,0,.89,3.19,5.36,5.36,0,0,0,1.68,1.87c1.19.86,2.61,1.43,3.71,2.38a8,8,0,0,1,2.75,5.6,44.4,44.4,0,0,1-.17,5,1.24,1.24,0,0,1-.38.84q-2.11,1.51-4.28,2.92a2.41,2.41,0,0,1-.87.18Z"/>
    <path class="white" d="M918.08,180.44l1.19.91a25.57,25.57,0,0,1,1.4-2.66c.14-.22.9-.26,1.16-.08s.37.73.43,1.14a2.83,2.83,0,0,1-.16.88l.33.16a15.23,15.23,0,0,1,1.08-1.66,2.22,2.22,0,0,1,1-.68,7.2,7.2,0,0,1,6.67.14c2.66,1,3.65,3.23,4.08,5.81a23.55,23.55,0,0,1,.51,4c0,1.22,0,2.72-.68,3.59-.91,1.18-.76,2.73-1.56,3.69a21.8,21.8,0,0,1-4.17,3.28c-.2.15-.69,0-1-.16-1.61-.56-3.2-1.17-4.81-1.72-1.16-.4-1.63-.08-1.7,1.19-.12,2-.22,4.06-.27,6.09a1.83,1.83,0,0,1-1.28,2c-1,.3-1.39-.52-1.84-1.23a4.68,4.68,0,0,1-.52-3.58,40.07,40.07,0,0,0,.23-5.49c0-.61.12-1.21.1-1.81-.16-4.16-.35-8.32-.51-12.48A5.36,5.36,0,0,1,918.08,180.44Zm3.79,1.17a25.19,25.19,0,0,0-.11,3.18c.17,2.42,1,4.86,0,7.26-.4,1-.18,1.62.77,2,.8.35,1.74,1.11,2.41.93,3.07-.83,6.91-3.66,6.6-8-.21-3-3.73-5.87-6.75-5.31A14.57,14.57,0,0,1,921.87,181.61Z"/>
    <path class="white" d="M694.91,193.73c.26-.53.57-1,.78-1.6,1.26-3.35,2.07-6.85,3.94-10a2.68,2.68,0,0,1,2.47-1.6c.41,0,.79-.44,1.21-.53a2.77,2.77,0,0,1,1.65-.08c.24.1.21.93.23,1.43a12.14,12.14,0,0,1-.12,1.47c0,.43.07,1-.16,1.25-1.77,1.83-2.35,4.15-3,6.49-.14.54-.65,1-.86,1.51a61,61,0,0,1-5.16,9.45c-.95,1.51-1.42,3.4-2.88,4.56a4.76,4.76,0,0,1-4.73,1.13c-.94-.33-1.53-.85-1.36-1.86s.22-1.94,1.65-2.05c2.12-.18,2.65-2.06,3.26-3.64.46-1.2-.31-2.09-1.18-2.91-.42-.4-.55-1.1-.87-1.63a25.08,25.08,0,0,1-2-3.26c-.87-2.13-1.52-4.35-2.24-6.54-.14-.42-.15-.88-.28-1.31a2.73,2.73,0,0,1,1.11-3.5,1.78,1.78,0,0,1,1.71.37,34.63,34.63,0,0,1,2.19,4c1,2,2,4,3,6,.45.94.81,1.93,1.22,2.9Z"/>
    <path class="white" d="M988.73,175.92v7.17c1.66,0,3.47-.06,5.27,0a2.18,2.18,0,0,1,1.59.73,4.54,4.54,0,0,1,.54,2.6c-.06.34-1.28.64-2,.7a11,11,0,0,1-2.67-.25,23.69,23.69,0,0,1-2.37-.69,4.84,4.84,0,0,0-.27,1.12c0,1.74,0,3.48,0,5.21,0,1.07.21,1.94,1.71,1.67.69-.13,1.45.3,2.19.38,1.92.22,3.87.26,5.77.61.77.15,1.43.9,2.11,1.4.15.12.16.41.28.59,1.19,1.66,1,2.14-1.07,2.64a16.83,16.83,0,0,1-7.89.08,17.33,17.33,0,0,0-3.82-.09,3.29,3.29,0,0,1-3.32-4.32A2.84,2.84,0,0,0,985,195c.1-3.23.15-6.46.31-9.69.07-1.49.6-3,.46-4.44-.21-2.27.33-4.61-.67-6.84-.15-.33.56-1.49,1-1.56a10,10,0,0,1,5.47.4,8.87,8.87,0,0,0,3.07.32c1.33,0,2.65.51,4-.41.89-.63,1.78.21,2.08.95a10,10,0,0,1,.33,2.82.18.18,0,0,1-.1.09c-2-.06-3.72,1.8-5.83.52a6.78,6.78,0,0,0-2.3-.65C991.5,176.28,990.26,176.14,988.73,175.92Z"/>
    <path class="white" d="M849.69,171.21c.9-.16,1.66-.53,2.21-.33.79.28.65,1.08.58,1.92-.17,2.21-.06,4.46-.06,6.92a13.83,13.83,0,0,0,3.56-1c1.54-1,2.64-.06,3.84.5a7.86,7.86,0,0,1,1.92,1.23,5.78,5.78,0,0,1,1.1,1.56,11.38,11.38,0,0,1,1.2,5.71c0,1.87-.09,3.74-.07,5.61,0,1.07.16,2.15.21,3.23,0,.84.33,1.9-.78,2.21-.86.23-1.6,1.53-2.63.53a2.38,2.38,0,0,1-.64-1.52,71.45,71.45,0,0,1,0-7.17c.22-2.9-1.33-5.05-2.77-7.23-.74-1.1-2-.53-2.79,0-1.52,1.13-2.62,2.34-2.27,4.72a37,37,0,0,1-.2,8.34c-.19,2.25-2.85,3.56-4.46,2.42-1-.68-.76-1.56-.64-2.43.31-2.18.77-4.35,1-6.54.28-2.71.4-5.43.56-8.15,0-.68-.06-1.37,0-2.05.08-1.79.18-3.59.33-5.38,0-.26.25-.67.46-.72C850.77,173.24,850.87,173,849.69,171.21Z"/>
    <path class="white" d="M827.71,181.64c-.6,2.46.23,5.45-1.57,8-.27.39-.17,1-.36,1.5s-.43,1-.72,1c-1.32.2-1.81,1.21-2.6,2.07a20.6,20.6,0,0,1-4,3.17,3.4,3.4,0,0,1-3.78-.49c-.68-.61-.34-1.16.52-1.9,2.13-1.84,4.77-3.17,6.09-5.84a3.83,3.83,0,0,0,.2-1.08l-1-.06c-2-.06-3.94-.11-5.91-.2a1.76,1.76,0,0,1-.85-.38,7.86,7.86,0,0,1-3-7.88,21.9,21.9,0,0,1,2-5.31c1.88-3.27,5.79-4.54,9-1.79,1,.85,2.05,1.65,3.05,2.5A8.4,8.4,0,0,1,827.71,181.64Zm-9.81-6.73a3.29,3.29,0,0,0-.84.12c-2.28.79-3.19,2.45-3.11,4.86,0,1.63,1,2.74,1.77,4,.58,1,3.38,1.86,4.15,1.41a10.18,10.18,0,0,0,3.77-3.88c.63-1.1-.32-1.75-.57-2.6C822.28,176.1,820.85,175,817.9,174.91Z"/>
    <path class="white" d="M769.43,184.53c.37-1.43-.71-1.84-1.41-2.48a4.86,4.86,0,0,0-5-.68,2.46,2.46,0,0,1-3,0c-.55-.44-.72-3.11-.2-3.69a2.27,2.27,0,0,1,2.81-.42,4.31,4.31,0,0,0,3.21.48c.59-.16,1.38.4,2.08.65a5.85,5.85,0,0,0,1.54.62c2,.1,2.46.45,2.81,2.47.05.3,0,.71.22.88.93.86.82,1.86.62,3a7.12,7.12,0,0,0,.09,1.89,29.17,29.17,0,0,0,.43,3.52c.45,1.93,1.11,3.8,1.56,5.73a2,2,0,0,1-.32,1.61,1.63,1.63,0,0,1-1.54.22,9.29,9.29,0,0,1-2.67-2c-.77-.91-1.32-1.26-2.44-.54-4.05,2.58-8.1.74-10.39-2-1.11-1.31-.73-3-.52-4.57a4.82,4.82,0,0,1,3.51-4.32,11.11,11.11,0,0,1,2.76-.35C765.52,184.49,767.44,184.53,769.43,184.53Zm-7.85,6.77a1.44,1.44,0,0,0,1.59,1.42,29.14,29.14,0,0,0,4.42-1.1,1.85,1.85,0,0,0,.81-1.22c.14-.66,0-1.38.06-2.06s0-1.1-.89-1.4a4,4,0,0,0-3.76.81C762.78,188.5,761.5,189.33,761.58,191.3Z"/>
    <path class="white" d="M1028.74,176.76c-.3-.75.15-1.45,1.45-1.43-.15-1.38.9-1.43,1.83-1.58,1.14-.19,2.28-.41,3.43-.52a11.17,11.17,0,0,1,2.71,0,20.83,20.83,0,0,0,4.68-.33c2.16-.18,4.49-.55,6.51.83.79.55,1,2.33.35,3.63-.45,1-1.27.78-2.11.72-1.15-.07-2.31,0-3.46,0h-2.57c0,.46,0,.94-.07,1.41-.18,3.21-.53,6.42-.47,9.62a16.65,16.65,0,0,1-.45,4.68c0,.18.06.4.09.6.18,1.28.43,2.56.5,3.85.07,1.05-.8,1.65-2,1.62a8.26,8.26,0,0,0-1.71.22,1.37,1.37,0,0,1-1.62-1.66c.42-2.56.85-5.13,1.09-7.71a47.88,47.88,0,0,0,.11-6c-.07-1.9-.37-3.79-.52-5.69,0-.66,0-1.07-1-1a16.43,16.43,0,0,1-3.35-.19,8.7,8.7,0,0,1-1.51-.46Z"/>
    <path class="white" d="M681,189.39c0,2.12-.06,4.25,0,6.36,0,.61.59,1.17.76,1.8a4.94,4.94,0,0,1,.35,2.38c-.25.91-1.25.82-2.07.66a3.22,3.22,0,0,1-1-.28c-1.68-1-3.4-.47-5.17-.34a21.72,21.72,0,0,1-5-.34c-1.1-.19-3.2-3.63-3-4.82a14.9,14.9,0,0,1,1-3.81,5.72,5.72,0,0,1,5.45-3.64,5.43,5.43,0,0,1,1.49.22,12.06,12.06,0,0,0,2.22.62c.52,0,1.45-.27,1.54-.61a2.15,2.15,0,0,0-.72-2.4c-1.77-1.55-3.81-1.5-5.9-1.32-.95.08-1.77-.23-1.95-1.05-.09-.37.73-1,1.25-1.43,3.32-2.37,6.12-.23,8.74,1.37,1,.63,1.45,2.45,1.92,3.81a10.94,10.94,0,0,1,.23,2.82Zm-9.72,5.31c-.16,1,.38,1.56,1.35,1.9a3.41,3.41,0,0,0,3.46-1.21c.21-.34.4-.8.72-.95.58-.28,1.23-.45.89-1.27s-.68-2-2.05-1.77a11.82,11.82,0,0,1-1.32.14C672.27,191.58,671.29,192.55,671.29,194.7Z"/>
    <path class="white" d="M786.1,190.29c.7-2.11,1.33-4.25,2.12-6.33.66-1.74,1.5-3.42,2.27-5.12a.63.63,0,0,1,.19-.21c.9-.65,3.71.09,4.14,1.14a1.74,1.74,0,0,1,.11,1.14c-.84,2.38-1.68,4.78-2.65,7.12a27.2,27.2,0,0,1-1.8,3.13c-.09.15-.3.28-.31.43-.22,2.52-2,4.33-3,6.44a16.29,16.29,0,0,1-5.79,6.24,2,2,0,0,1-2.64-.89,1.34,1.34,0,0,1,1-2c2.57-.38,2.68-2.87,4-4.34.11-.14,0-.52-.05-.75-.57-1.54-1.16-3.07-1.75-4.6a2.41,2.41,0,0,1-.08-.25c-.71-2.35-1.39-4.7-2.15-7a17.91,17.91,0,0,0-1-1.89c-.34-.76-.58-1.57-.92-2.33-.15-.32-.46-.57-.64-.89s-.7-1.05-.56-1.29a2.1,2.1,0,0,1,1.37-.89c1.43-.16,2.27.87,2.81,2s.67,2.4,1.2,3.52c1.2,2.57,2.53,5.09,3.81,7.62Z"/>
    <path class="white" d="M623.07,187.25c-.12-1.64-.23-3.3-.35-5-.06-.78,0-1.57.93-1.71a3,3,0,0,1,2.08.22,1.47,1.47,0,0,0,2,.14c.92-.54,1.89-1,2.86-1.45a5.51,5.51,0,0,1,6.14,1.55,19.46,19.46,0,0,1,2.85,4.64,10.4,10.4,0,0,1,.45,6.12,27.2,27.2,0,0,0-.57,5.11c-.07,1-.12,2-1.24,2.29-.84.26-3.06-.85-3.27-1.61a1.34,1.34,0,0,1,.21-1.05,5,5,0,0,0,.79-4.66c-.26-1.12,0-2.35-.16-3.51a9.74,9.74,0,0,0-.73-1.94c-.26-.76-.4-1.56-.72-2.29a2.28,2.28,0,0,0-2.77-1.36,7.29,7.29,0,0,0-4.54,2.69,1.15,1.15,0,0,0-.2.74,23.7,23.7,0,0,1-.54,7.22,17.29,17.29,0,0,0,0,2.79c0,1.14-.3,2.15-1.6,2.24s-1.83-1.11-1.9-2a51.84,51.84,0,0,1,.06-6.23C622.88,189.27,623,188.27,623.07,187.25Z"/>
    <path class="white" d="M607.67,194.82a5.92,5.92,0,0,0,5.11-4.81,37,37,0,0,0,.35-5.39,25.42,25.42,0,0,1,.31-3.49,1.56,1.56,0,0,1,1.69-1.41c1.85,0,2.18.33,2,2.16-.34,3.48-.74,7-1,10.45-.08,1.23.38,2.48.41,3.73a5.59,5.59,0,0,1-.46,2.81c-.19.33-1.68.37-2.19,0-1.69-1.24-3.17-.31-4.62.24-1.63.63-4.79-.49-5.7-1.6-.17-.21-.26-.58-.46-.64-1.81-.59-2-2.31-2.48-3.72-.28-.85.1-1.88.09-2.83-.06-3.07-.19-6.14-.24-9.21,0-1,.66-1.36,1.6-1.37s1.77.46,1.8,1.55c.08,2.94,0,5.88.18,8.81a6.89,6.89,0,0,0,.93,3.44C605.51,194.24,606.76,194.41,607.67,194.82Z"/>
    <path class="white" d="M837.93,177.89a41.6,41.6,0,0,1,4.69.41,1.79,1.79,0,0,1,1.58,1.92,4.92,4.92,0,0,0,.22,1.17,1.43,1.43,0,0,1-1.76,1.77c-1.27-.19-2.59,0-3.8-.77-.21-.14-1.43.62-1.47,1-.22,2.69-.27,5.39-.31,8.1a2.15,2.15,0,0,0,.5,1.06c.17.26.53.42.65.7a2.93,2.93,0,0,0,3.75,1.89c.36-.08,1.13.57,1.32,1a1.29,1.29,0,0,1-.8,1.77c-.91.38-1.79.81-2.69,1.21a1.2,1.2,0,0,1-.51.13c-1.39-.09-3.71-2-4.21-3.37-1.15-3.11-1.14-6.41-1.58-9.64a10.59,10.59,0,0,1,.24-2.41c.08-.77-.13-1.13-1-1.39-.68-.2-1.66-1.22-1.6-1.76.13-.93-.21-2.54,1.65-2.6.24,0,.72-.9.65-1.31-.37-2.15-.42-2.14,1.81-2.47,1.94-.28,2.7.43,2.58,2.4A6.74,6.74,0,0,0,837.93,177.89Z"/>
    <path class="white" d="M908.59,172.87a4.06,4.06,0,0,0-.32,3.83,19.27,19.27,0,0,1,.41,4.71q.17,3.6.24,7.2a14.62,14.62,0,0,1-.26,1.59c-.11,1.17-.21,2.34-.25,3.52,0,.43.22.88.19,1.3-.2,2.28-1.55,3.15-3.8,2.37a2,2,0,0,1-1-1.35,11.71,11.71,0,0,1,.21-2c0-2.39-.15-4.78-.09-7.17.05-1.65.35-3.29.53-4.93.09-.79.15-1.58.25-2.53-1.41.36-2.49.66-3.6.9a2.12,2.12,0,0,1-1.25,0,2.71,2.71,0,0,1-1.23-1.1c-.11-.24.41-.82.73-1.16a8.23,8.23,0,0,1,2.11-2.06,19.79,19.79,0,0,0,5.21-3.76C906.86,172,907.84,172.6,908.59,172.87Zm-1.93,12.74h-.36c-.07,1.29-.63,2.61.36,4.21Z"/>
    <path class="white" d="M573.87,173.5a5.32,5.32,0,0,1-.28,1.13c-1,1.92-.87,4.17-2,6.14-1.35,2.27-1.92,5-2.91,7.49-.75,1.89-1.58,3.76-2.45,5.6-.77,1.63-1.67,3.2-2.47,4.81-.32.64-.55,1.14-1.46.86s-1.09-.91-1.11-1.71c0-.53,0-1.06,0-1.59a2.38,2.38,0,0,1,.13-.88c1.17-2.67,2.39-5.33,3.54-8,.33-.76.41-1.64.72-2.41.84-2.06,1.77-4.08,2.61-6.14.67-1.65,1.28-3.32,1.88-5a2.26,2.26,0,0,1,3.49-1C573.73,172.93,573.78,173.3,573.87,173.5Z"/>
    <path class="white" d="M706.33,202.43c-1.67-.5-2.12-1.14-1.79-2.34L706,200l-.67-1.67-.31,0,.54-1.25c1.3.43,2.55.81,3.77,1.25a2.09,2.09,0,0,1,1.29,2.51c-.32,1.82-.91,3.6-1.41,5.39a3.33,3.33,0,0,1-2.5,2.23,2.13,2.13,0,0,1-1.61-.44c-.21-.15-.13-.86,0-1.28C705.44,205.33,705.9,203.89,706.33,202.43Z"/>
    <path class="white" d="M877.37,197.87c-1.18,1.2-.68,2.93-1.41,4.2a18.6,18.6,0,0,1-3.07,3.74,2,2,0,0,1-1.84.38c-.81-.52-.56-1.36.05-2.08a9.28,9.28,0,0,0,2.5-5.23c.07-.8-.14-1.23-.78-1.4-.86-.23-1-.52-.47-1.27.23-.29.2-.76.35-1.13.4-.92.89-1.33,1.8-.44.57.56,1.37.88,1.92,1.45A7.66,7.66,0,0,1,877.37,197.87Z"/>
    <path class="white" d="M849.52,243.91c-.17-4.52-.34-8.78-.46-13a1.85,1.85,0,0,1,.52-1.3c1-.84,4.44-.15,5,.95a1.13,1.13,0,0,1,.16.56c0,2.19-.07,4.38.05,6.56a40.75,40.75,0,0,0,.68,4.1c.23,1.4,1.19,1.47,2.29,1.3a4.74,4.74,0,0,1,1.16-.18,1.66,1.66,0,0,1,1.19,2.55c-1.34,1.91-2.76,3.77-4.11,5.68-.23.32-.22.81-.42,1.15a4.35,4.35,0,0,1-1.21,1.58,1.77,1.77,0,0,1-1.63-.24c-1.59-1.54-3.07-3.19-4.58-4.82A28.92,28.92,0,0,1,845.8,246c-.84-1.16-.5-1.68.92-1.75C847.55,244.17,848.38,244,849.52,243.91Z"/>
    <path class="white" d="M764.5,236.48s0,0,0,0c.56-1.73,1.93-2.17,3.54-2.23a10,10,0,0,0,1.34-.18c.87-.15,2-.76,2.56-.4a7.15,7.15,0,0,1,2.83,3.13,24.42,24.42,0,0,1,.79,5.71c.14,1.48.2,3,.23,4.46a23.9,23.9,0,0,1-.06,4,1.41,1.41,0,0,1-2,1.15,13.2,13.2,0,0,0-2.31-.49c-1.62-.16-2-.93-1.56-2.49.85-2.9,1.85-5.78,1.11-8.91-.23-1,.58-2.25-.75-2.84a3.91,3.91,0,0,0-2.43-.38c-1,.3-2.34.45-2.11,2.28.3,2.38.13,4.83.33,7.23a5.4,5.4,0,0,1-1.69,4.88c-.78.71-1.28.58-2.07,0-1.73-1.36-1.58-3.3-1.64-5.09-.14-4.22-.51-7.07-1.45-9-.55.1-1.11.23-1.68.3-1.8.22-2,.48-1.86,2.28q.25,4.26.37,8.52a3.15,3.15,0,0,1-3.58,2.9c-.76-.17-1.41-.51-1.3-1.53.22-2,.44-4,.56-5.95.07-1.16-.06-2.33-.1-3.5s0-2.42-.16-3.62c-.1-.94-.37-1.85-.66-3.22a10.5,10.5,0,0,1,1.9-1.47c1.42-.71,2.64.33,2.76,2.16a4.24,4.24,0,0,0,.53,1.28,4.93,4.93,0,0,0,.93-.75c1.31-1.78,3-1.86,4.71-.29A35.11,35.11,0,0,0,764.5,236.48Z"/>
    <path class="white" d="M819.23,243.87c1.22,1.85,2.38,3.09,4.48,3.49,1.86.34,3.55,1.44,5.6,1.21.62-.07,1.25.54.83,1.51a3.82,3.82,0,0,1-4,2.69,9.69,9.69,0,0,1-6.67-2.39c-1.48-1.25-3.16-2.17-3.58-4.27-.62-3.09-1.21-6.17.72-9.06,1-1.54,2.19-3.12,4.12-3.35a10.52,10.52,0,0,1,7.25,1.43,5.87,5.87,0,0,1,1.71,2.7,19.13,19.13,0,0,1,.67,3c.36,1.58-.14,2.3-1.65,2.35-.09,0-.22-.13-.27-.1-2.35,1.39-4.8-.18-7.17.22C820.65,243.44,820.07,243.64,819.23,243.87Zm7.06-3c.11-2-.52-3-1.82-3.38-1.83-.46-3.1.35-4.24,2.85Z"/>
    <path class="white" d="M797.55,244c-.13,1.58-1.28,3.47-3,5.29-2,2.11-4.6,2.31-7,2.76-3.85.71-7.81-3.39-7.34-7.25a25.63,25.63,0,0,1,.66-4.41c.91-3,2.5-5.62,5.74-6.32s5.71-.53,7.66,2.6a8.09,8.09,0,0,0,1.23,1.33C796.88,239.46,797.54,241.07,797.55,244Zm-5-.67a5.7,5.7,0,0,0-4.94-5.78c-1.51-.19-3.54.93-3.47,2.11a26.82,26.82,0,0,0,.75,6c.8,2.76,3.05,3.36,5.35,2.23S791.7,244.68,792.59,243.36Z"/>
    <path class="white" d="M806.55,235.17c1.44-.29,2.83-.67,4.23-.81.55-.05,1.54.3,1.65.68a5.73,5.73,0,0,1,0,2.67c0,.22-.94.53-1.34.42-3-.8-4.82.72-4.67,3.83.09,1.73,0,3.47,0,5.21,0,.69.17,1.37.23,2.06a1.67,1.67,0,0,1-.06.74c-.3,1-2.29,1.9-3.69,1.54-1.19-.31-1-1.34-1-2.34.12-4,.16-8,.23-12.08,0-.88-.21-1.86,1-2.22a2,2,0,0,0,.4-.18,1.12,1.12,0,0,1,1.19-1.55c.66.23,1.09,1.12,1.6,1.73A1.08,1.08,0,0,1,806.55,235.17Z"/>
  </g>
</svg>
