<svg id="Layer_1" data-name="Layer 1" xmlns="http://www.w3.org/2000/svg" viewBox="0 0 309.6 309.6">
  <path d="M181.79,199.19c-2.34-.49-2.52-2.46-2.41-4,.16-2.35-.19-4.65-.13-7,.09-3.92,0-7.84,1-11.69a3.82,3.82,0,0,0,0-1.43,35.52,35.52,0,0,1-.11-7.22c.18-3.58-.48-7.2-.82-10.8-.13-1.33.53-3.82,1.25-4.1,1-.4,2-.71,3-1.07,2.24-.81,4.41-1.36,6.81-.25.84.39,2.12,0,3.13-.25a2,2,0,0,0,1-1.34c.69-3,1.31-6.09,1.9-9.15a15.23,15.23,0,0,0,.05-2.14c.08-1.88.17-3.75.25-5.51-2.17-.45-4.44-1.09-6.75-1.35-1.45-.15-2.95.34-4.44.41a39.88,39.88,0,0,1-5,0,1.85,1.85,0,0,1-1.74-2.13c0-2.17.05-4.35,0-6.52,0-1.25-.28-2.48-.42-3.72,0-.16,0-.32,0-.48-.27-3.92,3-8.83,6.78-10.08a8.44,8.44,0,0,1,2.27-.43,26.27,26.27,0,0,1,4.61,0,39,39,0,0,1,4.75,1.23c.08-.79.21-1.53.21-2.27,0-3.74,0-7.49,0-11.23,0-1.18.73-2.31-.17-3.58-.64-.9-1.25-1.25-2.08-.72-1.38.88-2.87.77-4.36.74-2.61-.07-5.16.73-7.69.79-3.45.08-6.32,1.65-9.41,2.59a13.42,13.42,0,0,0-9.79,10.87c-.43,2.12-1.31,4.14-1.81,6.25-1.16,5-2.28,9.93-.72,15.05a9.1,9.1,0,0,1,.16,3.3c-.16,1.79-1.3,2.41-3.11,1.88a7,7,0,0,0-3.85-.22c-1.69.41-3.58,0-5.38-.09-1.09-.06-2.18-.26-3.27-.23-1.36,0-1.72.67-1.53,2a23.78,23.78,0,0,1,.09,2.93c0,3.34-.1,6.69,0,10a14.12,14.12,0,0,0,.88,3.86c.15.47.78,1.11,1.21,1.12,1.81,0,3.64-.25,5.44-.15a16.27,16.27,0,0,0,6-1.18,5.17,5.17,0,0,1,1.67,0c1.11,0,1.65.57,1.32,1.69a31.18,31.18,0,0,0-1,13.88c.2,1.3-.34,2.7-.31,4.05.1,4.11.32,8.22.45,12.33,0,1.67,0,3.35,0,5a24.62,24.62,0,0,0,.88,7c.54,2.09-1.13,3.46-2.37,4.77a4.53,4.53,0,0,1-5.41,1,6.21,6.21,0,0,0-3-.48c-4.05.44-8-.9-11.91-.84-3.53.06-7-.22-10.56-.12-2.36.07-4.72.29-7.07.44-.08,0-.18,0-.24,0-2.51-1.63-5.2-.32-7.79-.46-3.41-.18-6.82-.84-9.42-3s-6-4.18-7.54-7.66a6.76,6.76,0,0,1-.86-1.86c-.51-5.8-1.75-11.55-1.14-17.42.21-2,.76-4,.87-6,.13-2.19.36-4.43-.61-6.54a3.41,3.41,0,0,1-.28-1.13c-.18-2.12-.42-4.24-.46-6.36,0-1.31.37-2.64.37-4s.6-2.77.2-4.36.19-3.42.25-5.14a39.42,39.42,0,0,0,0-6.43,7.13,7.13,0,0,1,.08-2.44,23.66,23.66,0,0,0,.51-4.66c0-4.65.26-9.29-.81-13.93-.46-2,.32-4.34.55-6.53,0-.38.25-.75.27-1.13.18-3.08.32-6.15.5-9.23a53.24,53.24,0,0,1,.55-6.58A9.31,9.31,0,0,1,97,82.35c1.4-1.9,2.33-4.1,4.71-5.31a11.57,11.57,0,0,1,5.72-1.21,27,27,0,0,0,7.63-1c1.66-.44,3.43-.5,5.11-.86a15.86,15.86,0,0,1,6.51-.06c2.91.55,5.88,0,8.84-.25a59.88,59.88,0,0,1,7.08.17c.39,0,.78.14,1.17.15,6.1.17,12.2.42,18.3.45,4.27,0,8.54-.42,12.8-.41,5.63,0,11.26.15,16.87.49,3.5.22,7,.89,10.45,1.4a4.53,4.53,0,0,1,1.75.62c2.4,1.57,5.12,2.55,7.45,4.33a5.38,5.38,0,0,1,2.21,3.39,81.87,81.87,0,0,1,1.58,14.5c0,2,.8,3.93,1.15,5.92a12.15,12.15,0,0,1,.08,2.56c-.09,1.83-.26,3.66-.37,5.49-.16,2.43-.32,4.87-.43,7.3a34.37,34.37,0,0,0,0,3.66c.08,1.4.43,2.8.4,4.19-.07,3.71-.26,7.42-.46,11.13,0,1.09-.29,2.17-.41,3.25a5.86,5.86,0,0,0,0,1.67,53.3,53.3,0,0,1,.32,14.54,33.38,33.38,0,0,0,1,10.39,9.16,9.16,0,0,1,.14,1.89,31.85,31.85,0,0,0,.11,5.95c.4,1.93-.35,3.69-.16,5.55a8.1,8.1,0,0,1-1.71,6.19,7.88,7.88,0,0,0-.67,1.73,3.46,3.46,0,0,1-.83,1.36c-1.72,1.34-3.54,2.56-5.28,3.88-2.46,1.87-5.45,2.2-8.32,2.83a36.34,36.34,0,0,1-6.72.92,20.25,20.25,0,0,1-7-.59A4.63,4.63,0,0,0,181.79,199.19Zm-65.47-48.78c-.31.61-.8,1.61.21,2.36a10.42,10.42,0,0,0,2.87,1.43,2.1,2.1,0,0,0,1.35-.53c-.23-1,1-2.36-.61-2.78Zm-6.21,19c2.72-1.1,3.67-3.94,2.11-6.65C110.73,164.83,109.48,166.82,110.11,169.45Zm24.17-81.32c1.26.3,2.22.34,3.1-.64.69-.76,1.11-1.46.5-2.48C135.62,84.82,135.07,86.49,134.28,88.13Zm-32,85.67c1.52-2.55.73-5.54-1.35-6.54Zm2,9.83c1.2,2.78,2.76,4.13,3.72,3.38v-2.07ZM105.78,109v3.08c1.17.35,2.42.16,2.63-.82C108.79,109.47,106.85,110.06,105.78,109Zm91.76-24.5-.08.52a8.74,8.74,0,0,0,2.12.86c.28,0,.68-.63,1-1-.4-.37-.79-1-1.2-1A5.54,5.54,0,0,0,197.54,84.48ZM125.31,98.41c1.82-.56,2.32-2,3.26-3.4A3.77,3.77,0,0,0,125.31,98.41Zm15.7-6-.51-.38-2.87,4C139.14,95.16,140.63,94.23,141,92.46Zm61.64,33c2.25-.23,2.53-1,1.29-3.08C203.53,123.37,203.13,124.32,202.65,125.48Zm-89.59,57.71c.58-.86,1-1.4,1.32-2,.11-.19.07-.67,0-.72a1.39,1.39,0,0,0-1-.12C112.14,180.92,112.8,181.87,113.06,183.19Zm71,4.14c-.71,1.12-.71,1.12-.13,2.61C185.27,188.53,185.27,188.53,184.05,187.33ZM166.77,81.25c.2.68.36,1.2.6,2l1.9-2Zm-62.75,96c.31,1.71.93,2.15,2.79,1.9Zm93,9c-.13-1-.21-1.7-.33-2.67C195.27,185.3,195.27,185.3,197.06,186.3ZM127.38,164l-.46-.12c-.26.88-1.39,1.68,0,3C127.13,165.78,127.26,164.91,127.38,164ZM108.81,87c-2.14-.61-2.14-.61-2.33.65Zm37.59,33.62-1.31,1.56h2.06Zm-.77,70h1.85l-.1-1.32-.48-.16Zm-23.76-20.84-.85-.17c.37.75-1,1.34.24,2.28.12-.46.21-.82.31-1.18S121.77,170.09,121.87,169.78Zm86.54-47.59L209,122l-.55-2-.55.15Zm-5.34-11.6-.43.1c.22.9.45,1.79.67,2.69l.42-.09Z"/>
  <path d="M119.44,247.39c1.09,2.39,2.17,4.37,2.91,6.47a11.7,11.7,0,0,0,3.55,5.55,3.38,3.38,0,0,1,.57,4.8,3.32,3.32,0,0,1-4.66.15c-2.33-1.86-4.61-3.77-5.2-7a36.2,36.2,0,0,0-1.75-5.24,5.17,5.17,0,0,0-6-3.63c-1.37.18-1.46,1.27-1.76,2.19a6.87,6.87,0,0,0-.15,1.88c0,2.25-.34,4.52.23,6.73s.12,4-1.45,5.16-2.55.86-3.44-.65c-.51-.87-.92-1.81-1.45-2.87,1.55-1.62.34-3.57.38-5.44,0-.36-.34-.81-.21-1.06,1.43-2.92.17-5.73-.25-8.58a22.48,22.48,0,0,1-.09-3.67c0-1.66.18-3.32.13-5-.06-1.88-.36-3.76-.41-5.64a3,3,0,0,1,3.24-3.14q3.25,0,6.53,0a13.84,13.84,0,0,1,9.57,3.82c.45.41,1.12.64,1.47,1.11a5.26,5.26,0,0,1,1.1,2.25,29.6,29.6,0,0,1,.29,5.4,4,4,0,0,1-1.09,2.3c-1,1.07-2,2.05-1.77,3.71C119.81,247.18,119.39,247.44,119.44,247.39Zm-12.72-13a3.73,3.73,0,0,0-.47,1.41c.23,2.32.53,4.65.89,7,.07.47.45,1.25.76,1.28a17.65,17.65,0,0,0,3.33,0c2.58-.16,4.14-2.1,5.82-3.64a2.89,2.89,0,0,0,.7-2.94c-.57-2.25-3.63-3.82-5.58-3.75C110.46,233.75,108.75,234.11,106.72,234.38Z"/>
  <path d="M188.92,252.3c.14-4.27.49-8.54.33-12.79-.11-2.89.22-5.75,0-8.62a2,2,0,0,1,2-2.4,5.29,5.29,0,0,0,3-1.12c2.27-1.65,4.49-.51,6.72,0a29.3,29.3,0,0,1,6.47,2.45c1.67.82,3,1.69,3.54,3.66a37.19,37.19,0,0,0,1.77,4.55c2.42,5.88-3,11.5-7.34,11.89-.39,0-.89,0-1.15.17-2.52,2-5.21,1-7.86.5-1.33-.25-1.7,0-1.84,1.3-.24,2.3-.67,4.6.74,6.76.48.73-.64,3.4-1.68,3.82a10.87,10.87,0,0,1-3.83.74,2,2,0,0,1-1.86-1.81,10.6,10.6,0,0,1,0-3.08c.32-2,.77-4,1.17-5.94Zm6.14-7.18c1.47,0,2.65.06,3.82,0a36.31,36.31,0,0,0,4.65-.5c2.81-.56,4.34-4.43,3.29-6.34-1.37-2.49-3.17-4.79-6.23-5.73a1.89,1.89,0,0,0-2.41.65c-.76.9-1.54,1.77-2.23,2.72a3.77,3.77,0,0,0-.85,1.81C195,240.23,195.06,242.77,195.06,245.12Z"/>
  <path d="M131.54,259.8c2.2-2.59,2.18-2.56,4.88-.94a3.65,3.65,0,0,0,2,.51c1.51-.06,3-.3,4.67-.49.8-1.92.25-3.74-1.6-5.19q-3.33-2.62-6.52-5.42a2.62,2.62,0,0,1-.73-1.68,2.33,2.33,0,0,0-.78-1.72,6.29,6.29,0,0,1-1.91-5.58c0-.37.41-.81.3-1.09-1.22-3.25.67-4.61,3.27-5.61a8.76,8.76,0,0,0,1.58-1c4.56-3.21,8.27-1.92,12,.44.82.53,1,2,1.48,3a1.07,1.07,0,0,1-.24.86c-.61.72-3.93,1-4.81.51q-.49-.3-1-.57a4.71,4.71,0,0,0-6.81,4.29c0,1.45,1.07,2,2.09,2.6,3.06,1.87,6,3.91,9.19,5.59,3.58,1.91,5.12,5.05,5.89,8.73.86,4.05-2.94,8.53-7.12,8.61-2.44.05-4.87.31-7.3.42a4.65,4.65,0,0,1-1.56-.39C136.18,265,132.38,261.71,131.54,259.8Z"/>
  <path d="M156.48,231.57l4.91-2.09c.86.29,1.17,1.18,1.19,2.43a14.13,14.13,0,0,0,3,8.9,8.05,8.05,0,0,1,1,1.87c1,2.24,1.94,4.5,3,7.1a23.91,23.91,0,0,0,4.37-8.21,28.47,28.47,0,0,1,2.65-7.44c.24-.4.66-.87.6-1.25-.37-2.37,1.81-2.9,3-4.11a1.92,1.92,0,0,1,1.89-.07,9.93,9.93,0,0,1,2.1,2.49,1.67,1.67,0,0,1,0,1.49c-2.78,3.85-3.92,8.45-5.74,12.72-1.54,3.61-2.4,7.51-3.58,11.28-.34,1.11-.79,2.18-1.16,3.29-.78,2.32-3,2.74-4.86,3.14-1.27.28-2.21-1.13-3-2.25-1.78-2.38-2.24-5.27-3.3-7.92-2.16-5.4-3.38-11.1-5.27-16.58C156.77,234.81,155.91,233.33,156.48,231.57Z"/>
</svg>
