<svg id="Layer_1" data-name="Layer 1" xmlns="http://www.w3.org/2000/svg" viewBox="0 0 385.9 157.68"><defs><style>.estonia-class-1{fill:#0f6eb6;}</style></defs><path class="estonia-class-1" d="M67.72,28.36c-.91,1.8-.55,2.32,1.29,2.91a12.08,12.08,0,0,1,4,2c2.26,1.91,2,4.83-.5,6.46a24.59,24.59,0,0,1-3.43,1.57c.64,1.29,1.32,2.55,3.22,2.19,1.33-.24,1.67.81,2.33,1.82H71.47A1.9,1.9,0,0,0,73.8,47c1.3-.11,2.56-.09,3,1.67H73.74c.26,1.14.81,1.6,1.86,1.55a5.87,5.87,0,0,1,2.05.2,1.87,1.87,0,0,1,1.25,2.33l-1.64-.5c.31,1.79.55,3.35.85,4.91.25,1.34-.63,2.21-2.32,2.48a15.86,15.86,0,0,0-2.75.92c-.29-1-1.89-2-.42-3.67l-.51-.18-1.56,2.57-2.91,1.37c-.61-1.06.11-3.34,1.43-4.28l-.23-.29a19.18,19.18,0,0,0-1.59,1.4c-.67.72-1.26,1.52-1.89,2.29l-.61-.33a32.72,32.72,0,0,1,1.55-4,2.6,2.6,0,0,1,2.82-1.08c.33,0,.65.06,1,.07,1.62,0,2-.47,1.57-2.12-1.93-1-3,1.52-4.71,1.17l.21-.35A10.65,10.65,0,0,0,65,51.58c-3.14-1.23-4.22-3.1-3.49-6.38a2.38,2.38,0,0,0-1.46-3,7.58,7.58,0,0,0-4-.47,27.47,27.47,0,0,0-5.4,2.17c-4.07,1.89-8.1,3.86-12.16,5.78-1.08.51-1.16,1-.25,1.95-1.37.93-4.18.33-4.81-1.14a2.57,2.57,0,0,1,.21-1.78,18.22,18.22,0,0,1,1.13-1.57c1.24-2.12.83-3.79-1.64-5.77a7,7,0,0,0,.25,2.12c.89,1.67.85,2.19-.7,3.66l-.95-1.51a1.86,1.86,0,0,0-.39,2.48,2.08,2.08,0,0,1,.35,1.19c-.36,2.17.88,3.25,2.74,4-2.09,1.35-2.8,1.32-4.49-.22a1.15,1.15,0,0,1-.35-.67c-.17-1.17-.29-2.36-.45-3.69-1.06.65-1.52,1.26-1.27,2.39a9.62,9.62,0,0,1-.2,2.49l2.38,1.59c-1.84,1.13-3,1.25-3.65-.07-.57-1.15-.42-2.65-.62-4.25-1.75.57-.54,2.17-1.12,3-1.61-.46-2.1-1.14-1.78-2.76A1.88,1.88,0,0,0,22,48.91c-1.31,2.25-1.15,4.16.49,5.87-1.33,2.7-1.52,2.81-4.13,2.51L19.83,55l-.32-.42c-.59.36-1.4.58-1.71,1.1-.84,1.4-1.81,2.21-3.57,1.6,0-.25.06-.72-.13-.9a4.67,4.67,0,0,0-1.23-.59c-.14.42-.51.93-.38,1.22a1.77,1.77,0,0,1-.73,2.4c-.72.54-1.4,1.14-2,1.62-.47-.61-.78-1.11-1.18-1.53-1-1-.36-1.84.37-2.65-1.45.31-1.77.91-1.52,2.53L3.39,60.48c-.37-.63.55-3.15,2-4.56C4.08,56,3.6,56.48,3.28,58c-.14.69-.23,1.08-1.15.85-.54-.13-1.22.28-1.87.46-.09-.17,0-.59.59-2.13A6.83,6.83,0,0,1,2,54.81a8.39,8.39,0,0,1,2.53-1.2L3,53.42a2.39,2.39,0,0,1,3-.86c2.35.92,4.33.32,6.25-1.08,1-.73,2.09-1.31,2.94-1.83l-2.65-1.5.15-.33,1.83-.47.13-.38c-.64-.22-1.38-.77-1.91-.61-1.45.44-2.29-.15-3.09-1.35l2-.51.12-.36c-.67-.22-1.42-.77-2-.6-1.59.47-2.4-.35-3.21-1.42.1-.1.16-.19.23-.21.83-.17,1.85-.3,1.46-1.49S7,39.8,6.25,40.11a2.36,2.36,0,0,1-2.79-.66c-.62-.65-1.27-1.27-2-2,.7-.23,1.28-.25,1.38-.48a1.31,1.31,0,0,1,2-.78c.15.07.43-.16.65-.25-.19-.18-.36-.51-.57-.54-2.9-.35-3.33-1-2.35-4.09l-1.3-.86c1.94-1.06,3.54.31,5.42.35l-1.34-1L4.94,27.5c1.29-.62,2.93.59,4,3.54l.26-3.74a1.35,1.35,0,0,1,.45.13,5.15,5.15,0,0,1,1.28,5.85c-1.05,1.92-1,2.3.59,3.82.87.82,1.84,1.54,2.72,2.27l-.47,2.94c1-1.14,1.9-2,2.6-3a7.81,7.81,0,0,0,.75-2l-.39-.21-1.11.59a11.81,11.81,0,0,1,.47-2.94,5.6,5.6,0,0,0,.54-4.1,4.45,4.45,0,0,1,.13-1.32L19,32c1.1-1.17,1-1.78-.61-2.47a9.13,9.13,0,0,1-1.3-.85c2.47-.85,4.73-1.77,7.07-2.39,1.69-.45,3.33.14,5,.87a35.67,35.67,0,0,0,4.78,1.4,9.89,9.89,0,0,1-1.38,1c-1.62.71-1.74,1.18-.65,2.56l2-2.52.35,0a28.61,28.61,0,0,0,0,3.93,33.91,33.91,0,0,0,1.18,4.14l-1.33-.43a1.64,1.64,0,0,0,.49,2.3,28.43,28.43,0,0,1,2.44,2.8l-.56-3.25c1.16.15,2.46.38,3.77.47,4.76.33,9.34-.74,13.84-2a23.8,23.8,0,0,1,13.71,0,3.27,3.27,0,0,0,1.77.13,2.07,2.07,0,0,0,1.25-1.15c.09-.35-.55-.89-.86-1.34-.47.33-1,.65-1.42,1-.13.1-.16.31-.23.45-1.83-.32-2.22-1.23-1.32-3l-.35-.21-1.3,2.11c-.23-.09-1-.19-1-.44a9.91,9.91,0,0,1,.07-2.32l-1.74,2.36-3.84.5-.22-.28c1.37-1,2.75-2.07,4.1-3.13.32-.25.72-.6.77-.94C63.77,28.84,65.12,27.86,67.72,28.36ZM19.17,33.43a2.84,2.84,0,0,0,.95,4.2c.32.19.8.27.94.54.93,1.78,2.12,3.47,1.49,5.72-.39,1.42.45,2.19,1.92,2a8,8,0,0,1,1.38-.08c2.24.2,2.77-.38,2.33-2.57a6.4,6.4,0,0,1,2.45-5.62,2.76,2.76,0,0,0,.95-4.26c.06,1.78-.49,3.06-2.37,3.44-.24,0-.43.6-.54.95-.5,1.47-1.66,1.7-2.76.57l.75-1.91H24.17l.77,2c-1.58,1.2-2.36.79-3-1.55C19.78,36.34,19.6,36.12,19.17,33.43ZM17.75,41.5c-2.83,2.14-3,4.08-1.19,6.54a25,25,0,0,1,1.19,2.23,13.7,13.7,0,0,0,1,1.34,23.6,23.6,0,0,1,.74-3.54,1.93,1.93,0,0,0-.46-2.37l-1,1.51c-1.48-1.54-1.53-2.21-.65-3.83A5.88,5.88,0,0,0,17.75,41.5Zm2.48-8.77a17.83,17.83,0,0,0,1.86,2.5c.55.53,1.17.23,1.48-.56a10.09,10.09,0,0,1,.9-1.44C23.38,32.16,21.62,33.35,20.23,32.73Zm10.47,0c-1.45.59-3.26-.66-4.34.53a12.52,12.52,0,0,0,.89,1.28c.28.32.62.78.95.8s.66-.46.95-.76.48-.6.72-.89Zm-7.11-4.6c1.38,1.06,1.32,3.27,3.89,3C26.11,30.1,26,28.05,23.59,28.17Zm3.54.58c.9.94,1.16,2.41,3,2.13C29.18,30,29,28.49,27.13,28.75Zm-6.33,0c1.07.88,1.35,2.32,2.92,2C22.91,30.07,22.81,28.46,20.8,28.78Z"/><path class="estonia-class-1" d="M5.25,126.17a2.63,2.63,0,0,0-2,2.31,1.31,1.31,0,0,1-.76.83,18.38,18.38,0,0,1-2.47.33,11.87,11.87,0,0,1,1.18-3.45A7.92,7.92,0,0,1,4.53,124L3,123.84A2.48,2.48,0,0,1,6.18,123a5.69,5.69,0,0,0,5.63-.89c1.24-.88,2.59-1.6,3.9-2.5-1.53.58-2.36-.27-3.16-1.38l1.93-.48.13-.37c-.63-.23-1.35-.76-1.89-.62a2.54,2.54,0,0,1-3.1-1.34l1.89-.54.11-.42c-.66-.2-1.4-.68-2-.52-1.61.46-2.39-.45-3.29-1.54.38-.09.74-.06.88-.22.38-.42,1-1,.91-1.38-.12-.79-.82-.85-1.53-.49a2.48,2.48,0,0,1-3.42-.79,12.09,12.09,0,0,0-1.56-1.45,7,7,0,0,1,1.42-1.22,10.78,10.78,0,0,1,1.73-.3,2.6,2.6,0,0,0,.68-.39c-.19-.16-.36-.44-.57-.46-2.92-.33-3.4-1.11-2.36-4l-1.32-.88c2-1,3.54.3,5.38.34l-1.28-1-.4-2.3c1.21-.64,2.86.56,4,3.49l.22-3.69c1.81.94,2.91,4,1.85,5.7-1.33,2.16-1.08,2.68.86,4.48.74.69,1.58,1.28,2.35,1.9l-.5,3c1.09-1.19,2-2.08,2.79-3.1a7.77,7.77,0,0,0,.62-2.24l-1.6.83a15.26,15.26,0,0,1,.68-3.3,4.76,4.76,0,0,0,.41-3.44,8,8,0,0,1,0-1.77l2.38,2.7c1.07-1.14.95-1.75-.54-2.41a16,16,0,0,1-1.75-1.06c.64-.19.89-.36,1.11-.33,1.87.28,3.26-1.09,4.94-1.39a15.53,15.53,0,0,1,4.6-.29c1.26.18,2.41,1.1,3.66,1.51a12.81,12.81,0,0,0,2.65.28l.15.35a10,10,0,0,1-1.36.9c-1.59.71-1.71,1.24-.62,2.49L33.92,100l.51,0c-1.5,2.84,1,5.18.62,8l-.9-.43c-.59,1-.31,1.66.54,2.39a27.1,27.1,0,0,1,2.39,2.75l-.6-3.3,1.91.31c5,.8,9.82-.19,14.55-1.57C58,106.72,63,106.34,68.13,108a2.47,2.47,0,0,0,1.63,0,2.38,2.38,0,0,0,1.09-1.34c.07-.26-.57-1.07-.79-1a4.18,4.18,0,0,0-1.49.83c-.12.08-.14.32-.2.47-1.79-.16-2.23-1.06-1.44-2.9l-.31-.2-1.26,2c-.23-.09-1-.17-1-.41a10.38,10.38,0,0,1,.06-2.38l-1.7,2.41L58.8,106l-.21-.24c1.33-1,2.64-2.09,4-3.06.55-.39.91-.63.92-1.45,0-1.9,1.73-2.88,3.91-2.56,0,.76-.27,1.65.07,2.15s1.28.55,1.92.88a17.45,17.45,0,0,1,3.8,2.17,3.73,3.73,0,0,1-.46,6.1,23.47,23.47,0,0,1-3.63,1.76c.56,1.3,1.31,2.43,3.27,2.26.7-.06,1.46.7,2.19,1.09l-.18.54h-3a1.92,1.92,0,0,0,2.37,1.74c1.41-.18,2.58.1,3.06,1.8H73.79c.3,1.69,1.51,1.46,2.6,1.47,1.89,0,2.57.72,2.46,2.49l-1.58-.42c.29,1.72.49,3.24.82,4.73s-.54,2.32-2.3,2.63A18.56,18.56,0,0,0,73,131c-.31-1-1.94-2.17-.23-3.75-1.38.3-1.63.63-1.89,2.32l-3.28,1.55c-.54-1.45.11-3.14,1.64-4.73a12.47,12.47,0,0,0-1.9,1.38,28.16,28.16,0,0,0-2,2.52c-.27-.27-.4-.35-.38-.39a23.21,23.21,0,0,1,1.09-3.73c.67-1.46,2.07-1.47,3.49-1.36,2.15.18,2.6-.33,1.94-2.52L66.94,124c-.09-1.39-1-1.78-2.06-2.17-3-1.1-4.07-3.07-3.36-6.17A3,3,0,0,0,58.64,112a8.55,8.55,0,0,0-3.8.44c-2.36.94-4.6,2.19-6.9,3.28q-4.57,2.17-9.2,4.27c-1.3.58-1.43,1-.46,2.1a3.64,3.64,0,0,1-4.68-1.07,2.79,2.79,0,0,1,0-1.89c.11-.41.59-.71.85-1.08,1.6-2.28,1.33-4-1.27-6a5.59,5.59,0,0,0,.27,1.91c.84,1.57.75,2.27-.8,3.57l-.92-1.5c-1.64,1.55.41,3,.06,4.42-.55,2.27,1.64,2.29,2.55,3.35-1.29.93-2.52,1.21-3.87,0a1.79,1.79,0,0,1-.87-1.65,13.33,13.33,0,0,0-.55-3,2,2,0,0,0-1.16,2.37,8.51,8.51,0,0,1-.24,2.4l2.47,1.64c-1.12.61-2.09,1.42-3.19.33a3.54,3.54,0,0,1-.9-1.67,20.34,20.34,0,0,1-.07-2.22c0-.25-.37-.47-.57-.7-.2.24-.53.47-.56.74-.07.73,0,1.47,0,2.23-1.72-.46-2.24-1.16-1.93-2.77a1.79,1.79,0,0,0-1-2.25c-1.17,2.93-1.05,4.12.58,5.87-1.37,2.72-1.58,2.85-4.09,2.5l1.48-2.37a1.49,1.49,0,0,0-2.13.78,2.6,2.6,0,0,1-3.47,1.6c0-.23.06-.69-.13-.88a4.83,4.83,0,0,0-1.22-.62c-.16.4-.57.92-.44,1.18.54,1.15.08,1.84-.8,2.49-.72.52-1.38,1.11-1.89,1.52A10.57,10.57,0,0,0,8.71,130c-.89-.8-.84-1.47.29-2.8-1.51.4-1.82,1-1.48,2.91-1.44,0-3-.33-4.08,1.19C3.36,129.31,4.38,127.83,5.25,126.17ZM25,108.9c-1.66.93-2.38.65-2.85-1-.07-.26-.26-.65-.45-.69-1.89-.39-2.54-1.64-2.33-3.63a2.9,2.9,0,0,0,.8,4.42c.32.18.8.27.94.54.93,1.78,2.12,3.47,1.48,5.73-.4,1.41.45,2.17,1.94,2a6.4,6.4,0,0,1,1.38-.08c2.25.19,2.75-.36,2.3-2.57a6.4,6.4,0,0,1,2.49-5.61,2.92,2.92,0,0,0,1.05-4.25c-.43,2.31-.43,2.3-2.54,3.43a1.39,1.39,0,0,0-.45.73c-.52,1.66-1.44,1.94-2.84.86l.8-2H24.17Zm-7.22,3c-2.88,2.28-3,4.17-1,6.69a18.06,18.06,0,0,1,1,2,15,15,0,0,0,1,1.37l.4-.2c-1.08-1.88,1.61-3.68-.05-5.71l-1,1.54c-1.49-1.5-1.54-2.19-.65-3.83A5.6,5.6,0,0,0,17.74,111.88Zm6.66-8.31c-1.08-1-2.78,0-4.28-.69.36,1.34,1.77,1.45,2,2.72.09.56,1.09.27,1.43-.49C23.74,104.69,24,104.29,24.4,103.57Zm6.33-.3-.21-.35c-1.29.77-3.14-.54-4.56,1.29h1.27l-.24.32,1.16,1.32c.34-.4.67-.8,1-1.2a3.48,3.48,0,0,1,.48-.46Zm-3.26-1.71c-1.32-1.09-1.48-3-3.49-2.89C25,99.66,25,101.79,27.47,101.56ZM24,101.31c-1-.88-1.19-2.37-3-2.2C21.84,100.14,22.15,101.53,24,101.31Zm6.35,0c-1.19-.85-1.35-2.44-3.19-2.19C28,100.15,28.34,101.48,30.34,101.33Z"/><path class="estonia-class-1" d="M66.75,68.54c-.32.43-.61.88-1,1.29s-.6.59-.89.88a5.15,5.15,0,0,1-.79-1.29c-.08-.28.22-.68.35-1l-.3-.21-1.48,2.15L59,70.76l-.24-.31c1.28-1,2.53-2,3.85-2.94.53-.38.95-.58,1-1.42,0-2,2-3.11,4.08-2.52-.1.64-.47,1.42-.23,1.86s1.09.68,1.68,1a21.53,21.53,0,0,1,3.81,1.91c2.46,2,2.22,5.06-.45,6.74a24.3,24.3,0,0,1-3.29,1.45,3.09,3.09,0,0,0,3.47,2.32c.64,0,1.35.76,2,1.18l-.18.46L73,80.52c-.51,0-1,0-1.61,0a1.94,1.94,0,0,0,2.33,1.69c1.28-.13,2.56-.17,3,1.69l-3,.13c.38,1.7,1.63,1.45,2.76,1.46,1.79,0,2.45.74,2.29,2.45l-1.57-.46c.3,1.75.54,3.32.85,4.87.24,1.26-.52,2.14-2,2.44-1,.21-2,.59-3.09.92-.3-.95-2-2.08,0-3.87a2.36,2.36,0,0,0-2,2.5l-3.31,1.53c-.57-1.29.05-3.09,1.64-4.34l-.21-.3a13.75,13.75,0,0,0-1.74,1.36c-.71.76-1.3,1.63-2.08,2.61-.6-2,.78-5,2.31-5.49a6.73,6.73,0,0,1,2.33-.06c1.74.12,2.27-.53,1.64-2.56l-4.46,1.65.15-.47a12.77,12.77,0,0,0-2.3-1.56c-3-1.23-4.16-3.14-3.39-6.19a2.6,2.6,0,0,0-1.3-3.07,5,5,0,0,0-4.81-.37c-2.39,1-4.71,2.17-7,3.27-3.23,1.51-6.45,3-9.7,4.52-1.17.53-1.3.88-.5,2-1.3.86-4.11.22-4.69-1.2a2.86,2.86,0,0,1,.3-1.88c.26-.62.84-1.1,1.16-1.71,1.08-2.05.65-3.58-1.75-5.53a6.78,6.78,0,0,0,.24,2.12c.89,1.7.87,2.13-.68,3.7l-1-1.54a1.86,1.86,0,0,0-.39,2.47,2.28,2.28,0,0,1,.38,1.32c-.43,2.11.88,3,2.55,3.76a2.89,2.89,0,0,1-4.56-.34c-.15-.22,0-.61-.08-.91-.17-1-.36-2.08-.56-3.19a2,2,0,0,0-1.18,2.46,9,9,0,0,1-.24,2.36l2.77,1.8a8.53,8.53,0,0,1-2.84.51A1.82,1.82,0,0,1,26,89a25.23,25.23,0,0,0,0-2.75c-1.06-.12-1.06-.12-1.25,2.77-1.5-.25-2.19-1.09-1.89-2.53a1.94,1.94,0,0,0-1.06-2.47c-.65,2.1-1.42,4.13.62,5.87-1.16,2.66-1.44,2.85-4,2.53l1.42-2.35a1.58,1.58,0,0,0-2.21.94c-.67,1.49-1.82,1.82-3.33,1.44-.07-.33,0-.82-.23-1a1.93,1.93,0,0,0-1.26-.41c-.16,0-.5.82-.37,1.06.62,1.21.08,1.91-.84,2.58-.69.49-1.32,1.05-1.81,1.45a10.27,10.27,0,0,0-1.09-1.4c-1.11-1-.55-1.84.3-2.74-1.52.38-1.8.9-1.52,2.88-1.45-.1-3-.39-3.88,1.34C3.12,95,3.94,92.71,5.33,91a2.31,2.31,0,0,0-2.05,2.18C3.17,94,3,94.29,2,94c-.51-.13-1.18.38-1.86.62,0-.11-.2-.35-.15-.51a11.37,11.37,0,0,1,1.35-3.48,10,10,0,0,1,2.86-1.86L3,88.54a2.65,2.65,0,0,1,3.27-.71A5.37,5.37,0,0,0,11.66,87c1.26-.87,2.6-1.6,3.62-2.22l-2.74-1.31.13-.42,1.8-.52.12-.39c-.61-.23-1.3-.76-1.8-.61a2.56,2.56,0,0,1-3.16-1.27l1.89-.62.09-.35c-.59-.22-1.3-.77-1.75-.61-1.57.55-2.47-.18-3.38-1.39A6.8,6.8,0,0,1,7.32,77c.78-.19,1.23-.7.84-1.39a1.61,1.61,0,0,0-1.45-.45A4.26,4.26,0,0,1,1.79,73a1.53,1.53,0,0,1-.05-.52c.4-.15,1-.19,1.09-.45a1.27,1.27,0,0,1,1.91-.72c.17.07.49-.21.74-.33-.18-.16-.38-.46-.54-.45-1.07.11-2.22.14-2.59-1a12,12,0,0,1-.05-3.15l-.8-.61c1.07-.89,3.6-.51,5.28.51L5.05,64.67c.73-.71.38-1.35-.59-1.83,1.75-.74,3.26.35,4.54,3.33,0-.92,0-1.46,0-2s.14-1.07.22-1.65c.08,0,.23,0,.32.06a4.92,4.92,0,0,1,1.29,6.05c-.95,1.68-.93,2.09.42,3.4.95.93,2,1.75,3,2.56l-.46,3.08a19.28,19.28,0,0,1,2.31-2.76,1.78,1.78,0,0,0,.63-2.53L15.56,73a15.43,15.43,0,0,1,.66-3.32,4.75,4.75,0,0,0,.42-3.44,8.38,8.38,0,0,1,0-1.81L19,67.24c1.08-1.29.95-1.81-.67-2.53a13.07,13.07,0,0,1-1.52-.94c.48-.23.68-.42.87-.4,2,.19,3.62-1.06,5.43-1.54a9.59,9.59,0,0,1,3.95-.2,20.14,20.14,0,0,1,3.81,1.51,3.56,3.56,0,0,0,1,.21c.58,0,1.17,0,1.75,0l.17.48a8.75,8.75,0,0,1-1.33.88c-1.62.72-1.74,1.23-.64,2.54l2.06-2.5h.45c-1.21,2.84.93,5.25.74,8.15l-1-.48a1.66,1.66,0,0,0,.45,2.33,29.08,29.08,0,0,1,2.54,2.89l-.73-3.45c6.13,1.6,12.18.09,18.18-1.58a23,23,0,0,1,12.89,0,3.67,3.67,0,0,0,1.89.27,2.86,2.86,0,0,0,1.48-1.29c.11-.19-.59-.84-.92-1.28-.47.4-1,.79-1.42,1.2a1,1,0,0,0-.2.31C66.48,71.43,66.14,70.61,66.75,68.54ZM22,72c-2.22-.16-2.83-1.56-2.75-3.63a3,3,0,0,0,.92,4.46c.31.19.78.29.92.57.95,1.79,2.08,3.5,1.44,5.75-.37,1.28.4,2,1.76,1.94.55,0,1.11-.06,1.66,0,2.17.1,2.65-.45,2.22-2.58a6.39,6.39,0,0,1,2.47-5.63,2.91,2.91,0,0,0,1-4.36c0,1.89-.53,3.22-2.49,3.56-.19,0-.33.58-.44.91-.48,1.45-1.67,1.69-2.76.58l.76-1.89H24.18a5.5,5.5,0,0,0,.46,1.23c.61.88.15,1.16-.64,1.29C22.4,74.44,22.18,73.3,22,72Zm-4.28,4.39c-2.8,2.2-3.05,4.36-1.17,6.81a21.29,21.29,0,0,1,1.14,2.11c.3.5.67,1,1,1.42l.51-.19c-1.2-1.9,1.57-3.68-.13-5.73l-1,1.57c-1.52-1.45-1.57-2.14-.63-3.88A6.71,6.71,0,0,0,17.73,76.41Zm6.76-8c-1.18-1.13-2.89,0-4.51-.91.83,1.2,1.35,2,2,2.82.48.59,1.28.28,1.6-.5A12.46,12.46,0,0,1,24.49,68.45Zm1.88.06a14.49,14.49,0,0,0,.87,1.27c.29.32.6.74,1,.82s.87-.4.88-.64c0-.68.36-.89.9-1.14.32-.14.5-.59.74-.9C29.29,68.63,27.44,67.19,26.37,68.51Zm1-2.21c-1.24-1.12-1.39-3.07-3.84-3C25,64.34,24.85,66.57,27.35,66.3Zm-3.46-.22c-.89-1-1.19-2.38-3-2.19C21.79,64.84,22.07,66.25,23.89,66.08Zm3.17-2.18c.92.94,1.23,2.32,3.11,2.2C29.13,65.08,28.86,63.67,27.06,63.9Z"/><path class="estonia-class-1" d="M104.05,0h2.45V157.68h-2.45Z"/><path d="M131.7,84.17h3.7q2.41,8.35,4.82,16.73h.25q2.42-8.36,4.82-16.71H149V105h-2.75V89.57c-.2.52-.35.86-.46,1.22q-2.07,6.55-4.12,13.12c-.21.69-.35,1.24-1.33,1.24s-1.16-.46-1.38-1.19c-1.32-4.3-2.67-8.58-4-12.87a2.6,2.6,0,0,0-.55-1V105H131.7Z"/><path class="estonia-class-1" d="M57.27,86.57l-.65-2.78c-1.33.57-1.29,1.59-.95,2.65a2.2,2.2,0,0,1-1.16,2.94l-.64-2.74c-1.28.56-1.31,1.51-1,2.54a2.36,2.36,0,0,1-1.29,3.15L51,90.16a28,28,0,0,0-2.14,2.62,3.11,3.11,0,0,1-2.73,1.59l-.61-2.18c-.56,1-.82,2-1.46,2.44s-1.67.17-2.5.35a15.24,15.24,0,0,0-2.18.83l.86-3.28-3.68,3.4c-.53-2.62,1.72-3.26,2.55-5.19L34.9,94.21,34.58,94c.05-.48-.06-1.06.17-1.41a11.7,11.7,0,0,1,2.32-3,6.24,6.24,0,0,1,3-.92,5.63,5.63,0,0,1,2,.51c1.9.53,2.89.15,4-1.47a13.29,13.29,0,0,1,1-1.09L45,86.86c1-3.94,3.16-6.39,7.32-6.76,1.14-.1,2.67,0,2.73-1.88,0-.11.27-.23.43-.31a4.65,4.65,0,0,1,4.6.56c1,.91,1,1.79-.14,2.54s-1.77,1.59-1.39,2.91S58.31,85.93,57.27,86.57Z"/><path class="estonia-class-1" d="M53.86,121.78a1.81,1.81,0,0,0-1,2.51,2.41,2.41,0,0,1-1.25,3.24L51,125.3c-.87,1.11-1.57,2-2.2,2.84a2.71,2.71,0,0,1-2.64,1.37l-.6-2c-1,2.58-1.08,2.63-3.94,2.62a7.23,7.23,0,0,0-2.16.84l.72-3.17-3.36,3.11c-.7-1.53-.26-2.3,2.17-4.83l-4,3.24-.46-.2a8.18,8.18,0,0,1,.53-1.74c.35-.65.94-1.16,1.33-1.8a3.38,3.38,0,0,1,3.51-1.71,19.9,19.9,0,0,1,2,.51c2.09.59,3,.28,4.28-1.49a12.13,12.13,0,0,1,1.07-1.1c-.66.08-1.25.15-1.84.2a2.38,2.38,0,0,1-.56-.07c.33-.76.67-1.47.94-2.2a6.25,6.25,0,0,1,4.87-4.11c1-.22,2-.33,3-.61.45-.13,1.13-.52,1.15-.83.1-1.36,1.11-1.45,2-1.36a7.91,7.91,0,0,1,3.24.9c1.13.69.95,1.71-.16,2.49s-1.73,1.55-1.38,2.79a2.19,2.19,0,0,1-1.21,2.74l-.63-2.7c-1.29.79-1.41.94-1,2.58a2.27,2.27,0,0,1-1.16,3Z"/><path class="estonia-class-1" d="M57.24,51.27l-.62-2.69a1.86,1.86,0,0,0-1,2.61,2.25,2.25,0,0,1-1.12,3l-.67-2.8a1.8,1.8,0,0,0-1,2.55,2.36,2.36,0,0,1-1.27,3.17L51,54.89c-.87,1.13-1.56,2-2.21,2.91a2.64,2.64,0,0,1-2.6,1.3l-.6-2c-1,2.64-1.17,2.7-3.9,2.63a7.55,7.55,0,0,0-2.2.81l.76-3.19-3.64,3.37c-.51-2.68,1.77-3.33,2.69-5.28L34.9,59l-.4-.23a5.72,5.72,0,0,1,.42-1.59,23.51,23.51,0,0,1,1.74-2.36,3.38,3.38,0,0,1,3.72-1.25c.72.16,1.43.39,2.14.61a3,3,0,0,0,3.15-.92c.57-.58,1-1.24,1.53-1.82l-2.39.21c.52-1.17.92-2.19,1.4-3.18a6.28,6.28,0,0,1,4.73-3.29,18.77,18.77,0,0,0,2.72-.58c.5-.19.86-.78,1.26-1.21.13-.16.14-.44.3-.56,1.31-1.09,4.61-.39,5.34,1.13.33.7.35,1.3-.47,1.76a2.9,2.9,0,0,0-1.6,3.35c.12.73-.47,1.58-.74,2.38Z"/><path d="M163.64,94v11H160.9V88.5c2.42-.55,2.68-.44,3.82,1.63,1.73,3.11,3.45,6.22,5.44,9.3v-11h2.89v16.52c-2.6.51-2.66.48-3.9-1.76L164.63,95c-.22-.39-.46-.76-.69-1.14Z"/><path d="M212.67,88.34c2.21,0,4.3-.08,6.38,0a4.57,4.57,0,0,1,4.42,3.23c.65,2.2.07,3.83-2,5.51,3.49,1.73,1.81,5.15,2.57,7.77-.09.07-.16.17-.23.17-3,.32-3,.32-3-2.61v-.7c0-2.82-.6-3.39-3.45-3.4h-1.84V105h-2.87Zm3,2.28V96c4,.28,5.1-.33,5.12-2.64S219.57,90.33,215.63,90.62Z"/><path d="M360.51,88.32c2,0,3.93,0,5.83,0,2.53,0,4.29,1.18,4.93,3.11.73,2.22.16,3.92-1.95,5.66,3.55,1.73,1.64,5.18,2.65,7.9h-3.25c0-1.11,0-2.2,0-3.3,0-2.67-.72-3.36-3.37-3.37h-1.93V105h-2.91Zm3,7.78c1.67-.2,3.5.66,4.66-1a3,3,0,0,0-.07-3.53c-1.21-1.67-3-.75-4.59-1Z"/><path class="estonia-class-1" d="M50.8,100.35a9.38,9.38,0,0,1-5.39,2.79l-1.62-1.93c.09,1,.46,1.94.14,2.48s-1.33.73-1.92,1a3.76,3.76,0,0,1-.45-.37,7.92,7.92,0,0,0-.81-1.23c0-.06-.82.3-.82.46,0,.55.08,1.44.39,1.57a6.5,6.5,0,0,0,3.25.81c3-.47,5.88-1.2,8.78-2,3.18-.82,6.32-1.78,9.49-2.67a4.18,4.18,0,0,1,1,0,4.62,4.62,0,0,1-.6.73c-1.27.92-2.56,1.83-3.84,2.73a1.91,1.91,0,0,1-.59.36c-4.52,1.15-9,2.41-13.59,3.37a10,10,0,0,1-4.38-.38A4.49,4.49,0,0,1,36.37,104a4.54,4.54,0,0,1,3.23-4.25,7.52,7.52,0,0,1,3-.46C45.32,99.56,48,100,50.8,100.35Z"/><path class="estonia-class-1" d="M50.78,65.16A9.67,9.67,0,0,1,45.38,68L44,66.18c.77,2.22.13,3.13-2.44,3.15,0-.19.09-.49,0-.58a12.2,12.2,0,0,0-1.15-.85c-.18.46-.61,1-.5,1.37a2.18,2.18,0,0,0,2.42,1.48,31.33,31.33,0,0,0,5.9-.74c4.39-1.15,8.72-2.53,13.08-3.8a1.91,1.91,0,0,1,1.4.13,4.36,4.36,0,0,1-.64.58c-.46.31-1,.55-1.42.88-5.06,3.75-11.07,4.65-17.06,5.5a9.74,9.74,0,0,1-4.34-.62,4,4,0,0,1-2.84-3.92A4.29,4.29,0,0,1,39,64.82a7.69,7.69,0,0,1,4.89-.58C46.2,64.58,48.48,64.85,50.78,65.16Z"/><path d="M295.28,98.81h2.61a5.68,5.68,0,0,1-4.09,6.36,6.68,6.68,0,0,1-8.07-3.28c-1.23-2.51-1.24-12,0-14.5,1.38-2.87,4.39-4.18,7.76-3.38,3,.69,4.55,2.94,4.46,6.42H295.3c-.09-.48-.18-1-.3-1.53-.4-1.79-1.26-2.64-2.81-2.81a3.35,3.35,0,0,0-3.8,2.14,3.87,3.87,0,0,0-.42,1.46c0,3.29-.12,6.58,0,9.86a3.63,3.63,0,0,0,2.43,3.44,3.27,3.27,0,0,0,4.58-2.63C295.11,99.86,295.19,99.36,295.28,98.81Z"/><path class="estonia-class-1" d="M62.74,31.32a9.33,9.33,0,0,0-1.44.87c-4,3.56-9.2,4.15-14.07,5.42a19.46,19.46,0,0,1-6.6.3,4.58,4.58,0,0,1-4.26-4.39,4.91,4.91,0,0,1,4.42-4.47,14.85,14.85,0,0,1,3.46.06c2.19.23,4.37.56,6.4.83a7.89,7.89,0,0,1-5.2,2.78l-1.82-1.95c.19,1,.69,1.92.4,2.35-.43.63-1.41.88-2.41,1.44,0-.66,0-1-.08-1.07a11,11,0,0,0-1.08-.82c-.22.45-.73,1.12-.59,1.31.43.59,1.1,1.39,1.69,1.39a24.42,24.42,0,0,0,6.17-.44c4-1,7.9-2.35,11.86-3.51.95-.28,1.94-.42,2.92-.63Z"/><path d="M260.76,96.78a31,31,0,0,1-.39,3.86,6.09,6.09,0,0,1-12-.43,32.09,32.09,0,0,1-.06-6.5,5.9,5.9,0,0,1,6.22-5.64,6.15,6.15,0,0,1,6,5.93c.08.92,0,1.85,0,2.77Zm-9.73,0a31.72,31.72,0,0,0,.51,4,2.85,2.85,0,0,0,3,2.25,2.55,2.55,0,0,0,2.79-2.22,48.13,48.13,0,0,0,0-8.23,2.7,2.7,0,0,0-2.86-2.35,2.93,2.93,0,0,0-3,2.44A36.36,36.36,0,0,0,251,96.83Z"/><path d="M301.43,88.37h2.92v7.39c0,1.3,0,2.6,0,3.9.08,2.16,1.26,3.42,3.19,3.45a3.07,3.07,0,0,0,3.3-3.32c.09-3.29,0-6.58.06-9.88V88.37h2.94v6.95c0,1.39,0,2.78,0,4.17a5.58,5.58,0,0,1-5.62,5.84c-3.93.19-6.54-1.64-6.75-5.18C301.25,96.27,301.43,92.38,301.43,88.37Z"/><path d="M343.88,88.37h2.87v3c0,2.74,0,5.47,0,8.2,0,2.16,1.25,3.46,3.14,3.51a3,3,0,0,0,3.36-3.25c.15-3,.07-6.11.09-9.17V88.4h2.77a4.64,4.64,0,0,1,.11.76c0,3.47,0,7,0,10.42a5.52,5.52,0,0,1-5.68,5.75c-3.87.16-6.45-1.67-6.64-5.13C343.72,96.29,343.88,92.36,343.88,88.37Z"/><path d="M195.64,93.22H193c-.1-.33-.2-.71-.32-1.1a2.38,2.38,0,0,0-2.63-1.8,2.23,2.23,0,0,0-2.36,1.75,2.29,2.29,0,0,0,1.52,2.9c1.19.51,2.45.86,3.64,1.37,2.42,1,3.42,2.72,3.1,5a4.56,4.56,0,0,1-4.55,3.93,13.07,13.07,0,0,1-4.61-.61c-1.89-.64-2.62-2.25-2.41-4.42h2.56c.65,2.41,1.9,3.36,4.06,2.78a3.33,3.33,0,0,0,1.89-1.72,1.92,1.92,0,0,0-1-2.58c-1.46-.68-3-1.15-4.49-1.83a4.17,4.17,0,0,1-2.45-5.49,5.28,5.28,0,0,1,1.68-2.28,6.81,6.81,0,0,1,7.12-.11A4.48,4.48,0,0,1,195.64,93.22Z"/><path d="M384.86,95.21v2.28h-6v5.36h7.06V105h-10V88.41h10V90.5h-7.08v4.71Z"/><path d="M131.71,52.7c2.56,0,5.06-.15,7.54,0a4.28,4.28,0,0,1,3.94,3.42c.59,2.26.48,4.43-1.33,6.2a12.69,12.69,0,0,1-1.13.9c2.75,1.25,2.66,3.7,2.73,6.14a39.88,39.88,0,0,0,.5,4c-1.46.44-1.85.26-2.06-1.42-.17-1.33-.16-2.68-.22-4-.11-2.53-1.43-3.84-3.92-3.86-1.43,0-2.85,0-4.39,0v9.41l-1.66.08Zm1.7,1.4v8.35a5,5,0,0,0,.85.14c1.35,0,2.7,0,4-.11,2.38-.23,3.47-1.7,3.41-4.37-.06-2.44-1.25-3.85-3.54-4C136.63,54,135.1,54.1,133.41,54.1Z"/><path d="M193,73.56V56.9c2.09,0,4.13-.15,6.14,0a3.65,3.65,0,0,1,3.41,3,4.28,4.28,0,0,1-2,4.94,4.34,4.34,0,0,1,2.6,3.88,4.29,4.29,0,0,1-4.31,4.78H193Zm1.7-1.56a39.82,39.82,0,0,0,4.39,0c1.55-.18,2.28-1.26,2.31-2.95s-.78-3-2.29-3.14a40.41,40.41,0,0,0-4.41,0Zm0-13.44v5.89a36.68,36.68,0,0,0,4.32-.39,2.57,2.57,0,0,0,1.9-2.87c0-1.42-.71-2.44-2-2.59A36.38,36.38,0,0,0,194.71,58.56Z"/><path d="M342.05,60.52v13h-1.62V56.94c1.18-.46,1.83,0,2.43,1,2.27,4,4.64,8,7.22,11.93v-13h1.68V73.42a1.69,1.69,0,0,1-2.31-1c-2.06-3.67-4.23-7.29-6.37-10.92-.22-.38-.48-.75-.72-1.12Z"/><path d="M233.6,105h-2.68a6.17,6.17,0,0,1-.08-1.11,15.48,15.48,0,0,0-2.19-9.68c-1-1.84-1.82-3.83-2.8-5.94.85,0,1.49,0,2.12,0a1.29,1.29,0,0,1,1.52,1c.87,2.24,1.84,4.44,2.85,6.88.91-2.18,1.84-4.11,2.51-6.11.47-1.43,1.23-2,2.7-1.76.35.06.72,0,1.26.07-1.07,2.28-2,4.51-3.13,6.6a13.91,13.91,0,0,0-1.9,8.51,5.89,5.89,0,0,1,0,1.11A1.76,1.76,0,0,1,233.6,105Z"/><path d="M274.79,88.4v2.1h-7.3v5.09h6.18v2.2h-6.23V105h-2.85V88.4Z"/><path d="M294.54,52.67v1.4h-9.27v7.75h8.11l.1,1.6h-8.21v8.65h9.31v1.42h-11V52.67Z"/><path d="M258.73,65.15c-.1,1.25-.12,2.46-.31,3.64a5.59,5.59,0,0,1-5.41,5,5.27,5.27,0,0,1-5.71-4.61,29.91,29.91,0,0,1,0-8.13c.42-3,2.76-4.61,5.74-4.53a5.56,5.56,0,0,1,5.36,4.91C258.62,62.69,258.63,63.94,258.73,65.15Zm-1.8.58c-.08-1.72-.13-2.88-.21-4a3.94,3.94,0,0,0-.24-.94A3.78,3.78,0,0,0,252.74,58a3.4,3.4,0,0,0-3.62,2.84,44,44,0,0,0,0,8.66c.18,1.83,1.83,2.81,3.62,2.83a3.57,3.57,0,0,0,3.73-2.89A25.94,25.94,0,0,0,256.93,65.73Z"/><path d="M324.3,64.72a26.08,26.08,0,0,1,.33-3.58,5.48,5.48,0,0,1,6-4.58,5.56,5.56,0,0,1,5.2,5.24,39.91,39.91,0,0,1,0,6.65,5.6,5.6,0,0,1-5.67,5.37,5.73,5.73,0,0,1-5.72-5.35C324.35,67.37,324.37,66.26,324.3,64.72Zm10.08.42a34.36,34.36,0,0,0-.43-4.06A3.71,3.71,0,0,0,330.19,58a3.46,3.46,0,0,0-3.72,3.06,40,40,0,0,0,0,8.26,3.47,3.47,0,0,0,3.76,3,3.64,3.64,0,0,0,3.68-3A33.9,33.9,0,0,0,334.38,65.14Z"/><path d="M336.12,105h-2.93V90.62H329V88.4h11.28v2.11h-4.17Z"/><path d="M205.21,105h-3V90.54H198V88.41h11.39v2.08h-4.2Z"/><path d="M308.17,61.55h-1.44c-.94-3.08-2.38-4.06-4.85-3.39a2.73,2.73,0,0,0-2.16,2.42,2.54,2.54,0,0,0,1.5,2.86c1.3.6,2.68,1,4,1.59,2.77,1.2,3.78,3,3.1,5.56a4.67,4.67,0,0,1-.35.9c-1.08,1.93-4,2.81-6.84,2.09-2.42-.61-3.51-2-3.56-4.66.95-.38,1.58-.35,1.81.93.28,1.61,1.52,2.24,3,2.41s3-.05,3.93-1.48A2.64,2.64,0,0,0,305.27,67c-1.35-.69-2.82-1.15-4.22-1.76-2.59-1.13-3.51-2.76-3-5.24.4-2,2.26-3.37,4.8-3.42C306.32,56.47,308.19,58.18,308.17,61.55Z"/><path d="M186.8,56.84h1.59a5.28,5.28,0,0,1,.14.9c0,3.38,0,6.77,0,10.15-.07,4.37-3.44,6.85-7.66,5.67-2.11-.59-3.66-2-3.77-4.15-.2-4.15-.06-8.31-.06-12.55h1.61c0,2.18,0,4.3,0,6.42,0,1.62,0,3.24,0,4.86.09,2.58,1.69,4.19,4.05,4.19s4-1.69,4.07-4.33c0-3.2,0-6.4,0-9.6Z"/><path d="M164.49,67.19v6.26h-1.75V56.89a59.66,59.66,0,0,1,6.7.06c2.29.26,3.78,2.7,3.65,5.36s-1.76,4.68-4.22,4.86C167.45,67.28,166,67.19,164.49,67.19Zm0-1.43c1.41,0,2.65.06,3.89,0,1.69-.11,2.75-1.39,2.87-3.33.14-2.18-.81-3.89-2.48-4.09a35.86,35.86,0,0,0-4.28,0Z"/><path d="M375.38,73.43c-1.34.38-1.89,0-2.24-1.21-.89-3.07-1-3-4.16-3s-3.33,0-4.25,3.1c-.36,1.23-.94,1.56-2.2,1.13.71-2.14,1.41-4.29,2.13-6.44,1-3.11,2.08-6.24,3.19-9.33a1.43,1.43,0,0,1,1-.8,1.37,1.37,0,0,1,1.13.63C371.82,62.75,373.58,68.07,375.38,73.43Zm-9.16-5.8h5.44l-2.73-8.37Z"/><path d="M318.12,88.35h2.8v14.5h6.19c0,.73.06,1.35.09,2.12h-9.08Z"/><path d="M150.78,64.06h6.65l.06,1.42H150.8v6.57h7.61V73.5H149V56.88h9.4v1.34h-7.64Z"/><path d="M236.3,62.06h-1.48c-.12-.54-.22-1-.34-1.52a3.1,3.1,0,0,0-2.55-2.44,3.35,3.35,0,0,0-3.5,1.15c-1.85,2.18-1.86,9.61,0,11.8A3.43,3.43,0,0,0,232,72.2a3,3,0,0,0,2.47-2.51c.1-.44.19-.89.29-1.38h1.38c.71,3.37-2.57,6.2-6.24,5.4a5.56,5.56,0,0,1-4.36-5,38,38,0,0,1,0-7.07,5.43,5.43,0,0,1,6-5.07C234.6,56.72,236.47,58.84,236.3,62.06Z"/><path d="M264.75,73.49H263V56.86h9.45c0,.42,0,.81.07,1.37h-7.74v6.09h6.62v1.56h-6.66Z"/><path d="M180.46,105h-2.77V88.42h2.77Z"/><path d="M156.33,105.05h-2.72V88.38h2.72Z"/><path d="M207.37,56.86H209V72.07h6.65v1.41h-8.29Z"/><path d="M315.32,58.21H310.9V56.85h10.64V58.2h-4.47V73.49l-1.75.08Z"/><path d="M359,73.49h-1.57V56.86H359Z"/><path d="M221,73.51h-1.56V56.87H221Z"/><path class="estonia-class-1" d="M27.16,40.22,27,42.07H23.85l-.18-1.85Z"/><path class="estonia-class-1" d="M25.36,44.88a2.17,2.17,0,0,1-.86,0c-.34-.12-.86-.37-.87-.59s.31-.89.56-.93a7.37,7.37,0,0,1,2.39,0c.27,0,.43.68.65,1a4.52,4.52,0,0,1-1,.51A2.7,2.7,0,0,1,25.36,44.88Z"/><path class="estonia-class-1" d="M27.17,110.64,27,112.48H23.86l-.19-1.84Z"/><path class="estonia-class-1" d="M25.4,115.3a2.61,2.61,0,0,1-.87,0c-.34-.12-.87-.34-.9-.56s.27-.9.52-1a6,6,0,0,1,2.27-.1c.33.06.54.69.81,1.06a6.68,6.68,0,0,1-1.06.55A2.19,2.19,0,0,1,25.4,115.3Z"/><path class="estonia-class-1" d="M27.15,75.74,27,77.31H23.87l-.18-1.53a6.57,6.57,0,0,1,1.73-.59A5.92,5.92,0,0,1,27.15,75.74Z"/><path class="estonia-class-1" d="M25.2,80.44l-1.64-1c.62-.36,1.23-1,1.84-1s1.73.61,1.75,1C27.22,80.73,26.09,80,25.2,80.44Z"/></svg>
