<svg id="Layer_1" data-name="Layer 1" xmlns="http://www.w3.org/2000/svg" viewBox="0 0 538.64 157.47"><defs><style>.cls-1{fill:#fff;}.cls-2{fill:#113f8c;}</style></defs><title>eunic-logo</title><polygon class="cls-1" points="0 157.47 157.11 157.47 157.11 0 0 0 0 157.47 0 157.47"/><polygon class="cls-2" points="25.58 157.47 42.87 157.47 37.32 150.28 25.58 157.47 25.58 157.47"/><path class="cls-2" d="M19.83,75.51l.08-6.39,7.67-2L36.68,58l-3,8.27,5.5.52L29,75,23.76,84.1l-3-4-9.06,5.38,8.11-10Zm16.54-40,.09-6.39,7.66-2L53.22,18l-3,8.27,5.49.53-10.1,8.17-5.29,9.14-3-4-9,5.38,8.11-10ZM82.36,0l-1,2.61L85.54,3,77.93,9.17l-4,6.89-2.24-3-6.82,4L71,9.59l.07-4.81,5.77-1.53L80.06,0H0V126l9.28-11.45.13-9,10.72-2.84,12.74-12.7-4.24,11.56,7.69.73L22.17,113.79l-7.4,12.78L10.61,121,0,127.31v30.16H22.52l12.81-16.24V128.66l15-4.2L68,106.37,62.25,122.7l10.82.88L53.42,139.91l-9.85,17.56H157.13V87.06l-23.45,19.49-13.34,23.8-7.83-10.16L89.3,134.41l20.6-26.12V91.76l19.73-5.51,23.2-23.79-7.54,21.47,11.84,1V0Z"/><path class="cls-2" d="M244.48,85.69a26.69,26.69,0,0,1-.17,3.27,8.11,8.11,0,0,1-.51,2.13,2.66,2.66,0,0,1-.84,1.18,1.83,1.83,0,0,1-1.11.37H198a5.54,5.54,0,0,1-3.74-1.31c-1-.88-1.52-2.31-1.52-4.29V10.92c0-2,.5-3.41,1.52-4.29A5.54,5.54,0,0,1,198,5.32h43.59a1.81,1.81,0,0,1,1.09.34,2.65,2.65,0,0,1,.81,1.18A9.09,9.09,0,0,1,244,9a27.48,27.48,0,0,1,.17,3.34,26,26,0,0,1-.17,3.2,8.58,8.58,0,0,1-.5,2.13,3,3,0,0,1-.81,1.18,1.71,1.71,0,0,1-1.09.37H210.4V40.55h26.39a1.83,1.83,0,0,1,1.11.37,2.64,2.64,0,0,1,.84,1.14,7.68,7.68,0,0,1,.51,2.09,26.33,26.33,0,0,1,.17,3.21,25.93,25.93,0,0,1-.17,3.24,7.62,7.62,0,0,1-.51,2.06,2.37,2.37,0,0,1-.84,1.11,1.94,1.94,0,0,1-1.11.34H210.4V78.74h31.45a1.83,1.83,0,0,1,1.11.37,2.66,2.66,0,0,1,.84,1.18,8.11,8.11,0,0,1,.51,2.13,26.93,26.93,0,0,1,.17,3.27Z"/><path class="cls-2" d="M331.39,60.11A40.88,40.88,0,0,1,329,74.49a28.19,28.19,0,0,1-6.95,10.73,30.27,30.27,0,0,1-11.34,6.68,48.12,48.12,0,0,1-15.51,2.29,48.88,48.88,0,0,1-14.78-2.06,28.59,28.59,0,0,1-11.07-6.24,27.22,27.22,0,0,1-6.92-10.42,40.64,40.64,0,0,1-2.4-14.61V7.75a2,2,0,0,1,.41-1.22,2.81,2.81,0,0,1,1.45-.87,15,15,0,0,1,2.73-.55,38.91,38.91,0,0,1,4.32-.2,38.24,38.24,0,0,1,4.26.2,13.94,13.94,0,0,1,2.69.55,3.08,3.08,0,0,1,1.46.87,1.9,1.9,0,0,1,.43,1.22V59.31a28.24,28.24,0,0,0,1.29,9,16.42,16.42,0,0,0,3.67,6.3,15.15,15.15,0,0,0,5.74,3.75A21.21,21.21,0,0,0,296,79.62a20.73,20.73,0,0,0,7.5-1.28,15,15,0,0,0,5.6-3.75,16.83,16.83,0,0,0,3.54-6.07,25.09,25.09,0,0,0,1.25-8.2V7.75a1.93,1.93,0,0,1,.41-1.22,2.71,2.71,0,0,1,1.41-.87,14.27,14.27,0,0,1,2.73-.55,39.09,39.09,0,0,1,4.29-.2,37.21,37.21,0,0,1,4.22.2,13.9,13.9,0,0,1,2.66.55,2.79,2.79,0,0,1,1.42.87,2,2,0,0,1,.4,1.22V60.11Z"/><path class="cls-2" d="M422.36,86.43a6.74,6.74,0,0,1-.54,2.77,5.92,5.92,0,0,1-1.45,2,5.69,5.69,0,0,1-2.15,1.18,9.18,9.18,0,0,1-2.54.37h-7.56a15.78,15.78,0,0,1-4.08-.47,8.11,8.11,0,0,1-3.17-1.73,14.86,14.86,0,0,1-2.8-3.37q-1.35-2.13-3-5.5L373.31,40.88q-1.9-3.65-3.85-7.86T366,24.82h-.14q.27,4.86.41,9.69t.13,10V90.14a2.09,2.09,0,0,1-.37,1.22,2.78,2.78,0,0,1-1.28.91,10,10,0,0,1-2.46.57,31.17,31.17,0,0,1-4,.2,30.34,30.34,0,0,1-3.91-.2,9.46,9.46,0,0,1-2.43-.57,2.54,2.54,0,0,1-1.21-.91,2.22,2.22,0,0,1-.34-1.22V11.66a6,6,0,0,1,1.85-4.76,6.82,6.82,0,0,1,4.56-1.58h9.51a17.67,17.67,0,0,1,4.32.44,8.77,8.77,0,0,1,3.14,1.45,11.24,11.24,0,0,1,2.6,2.8,36.08,36.08,0,0,1,2.5,4.42l17,31.92q1.49,2.9,2.94,5.7c1,1.87,1.9,3.73,2.8,5.6s1.78,3.7,2.63,5.5,1.69,3.6,2.5,5.4h.07q-.21-4.72-.31-9.85t-.1-9.79V8a2,2,0,0,1,.41-1.21,3.14,3.14,0,0,1,1.34-1,9,9,0,0,1,2.5-.57,38.71,38.71,0,0,1,4-.17,37.33,37.33,0,0,1,3.85.17,7.53,7.53,0,0,1,2.39.57,2.76,2.76,0,0,1,1.19,1A2.27,2.27,0,0,1,422.36,8V86.43Z"/><path class="cls-2" d="M459.21,90.21a1.91,1.91,0,0,1-.44,1.22,3.13,3.13,0,0,1-1.45.88,14.26,14.26,0,0,1-2.7.53,46.32,46.32,0,0,1-8.6,0,14.44,14.44,0,0,1-2.74-.53,3.13,3.13,0,0,1-1.45-.88,1.91,1.91,0,0,1-.44-1.22V7.75a1.91,1.91,0,0,1,.44-1.22,3.06,3.06,0,0,1,1.48-.87,15.1,15.1,0,0,1,2.74-.55,37.92,37.92,0,0,1,4.25-.2,38.78,38.78,0,0,1,4.32.2,14.06,14.06,0,0,1,2.7.55,3,3,0,0,1,1.45.87,1.91,1.91,0,0,1,.44,1.22V90.21Z"/><path class="cls-2" d="M538.64,79.42c0,1.12,0,2.08-.1,2.86a13.46,13.46,0,0,1-.31,2,5.85,5.85,0,0,1-.54,1.45,6.65,6.65,0,0,1-1.08,1.38,13.45,13.45,0,0,1-2.87,2,33,33,0,0,1-5.19,2.33,46.15,46.15,0,0,1-7,1.86,46.67,46.67,0,0,1-8.54.74,44.82,44.82,0,0,1-16.19-2.77A31.82,31.82,0,0,1,484.52,83a36.82,36.82,0,0,1-7.77-13.73,61.79,61.79,0,0,1-2.7-19.16,60.61,60.61,0,0,1,3-19.77,41.07,41.07,0,0,1,8.31-14.51,34.57,34.57,0,0,1,12.78-8.91,43.08,43.08,0,0,1,16.44-3,39.07,39.07,0,0,1,7,.61,42.41,42.41,0,0,1,6.24,1.58A31.29,31.29,0,0,1,533,8.36a14.92,14.92,0,0,1,3.2,2.19,7,7,0,0,1,1.25,1.52,5.27,5.27,0,0,1,.54,1.55,18.47,18.47,0,0,1,.31,2.23c.06.85.1,1.91.1,3.17s0,2.5-.14,3.44a9,9,0,0,1-.47,2.29A3.14,3.14,0,0,1,537,26a1.55,1.55,0,0,1-1.08.41,4.64,4.64,0,0,1-2.56-1.18,42.9,42.9,0,0,0-4-2.63A32,32,0,0,0,523.42,20a24.82,24.82,0,0,0-8.13-1.18A19.19,19.19,0,0,0,499.06,27a28.68,28.68,0,0,0-4.36,9.55,49.79,49.79,0,0,0-1.48,12.62,49.44,49.44,0,0,0,1.59,13.33,25.54,25.54,0,0,0,4.52,9.28,18.32,18.32,0,0,0,7.08,5.43A23.48,23.48,0,0,0,515.76,79a26.66,26.66,0,0,0,8.16-1.11,34.74,34.74,0,0,0,5.91-2.47q2.46-1.35,4-2.43a5,5,0,0,1,2.46-1.08,1.84,1.84,0,0,1,1.08.28,1.9,1.9,0,0,1,.67,1.08,9.8,9.8,0,0,1,.41,2.25c.09,1,.14,2.26.14,3.89Z"/><path class="cls-2" d="M227.38,152.44a3.4,3.4,0,0,1-.23,1.2,2.8,2.8,0,0,1-.6.81,2.6,2.6,0,0,1-.83.46,3.6,3.6,0,0,1-.91.14h-1.95a7.21,7.21,0,0,1-1.6-.19,4.12,4.12,0,0,1-1.31-.71,7.45,7.45,0,0,1-1.23-1.39,25.81,25.81,0,0,1-1.36-2.26l-14.41-26s-1.13-2-2.28-4.22c0,0-1.15-2.21-2.13-4.29h-.08s.08,2.54.11,5.19c0,0,0,2.65,0,5.26V154a1,1,0,0,1-.15.47,1,1,0,0,1-.47.36,5.71,5.71,0,0,1-.89.21,9.34,9.34,0,0,1-1.39.09,10.78,10.78,0,0,1-1.39-.09,5.91,5.91,0,0,1-.87-.21,1.1,1.1,0,0,1-.46-.36,1,1,0,0,1-.14-.47V111.87a2.89,2.89,0,0,1,.78-2,3.07,3.07,0,0,1,1.69-.61h2.9a8.38,8.38,0,0,1,1.71.18,4.22,4.22,0,0,1,1.24.58,5.81,5.81,0,0,1,1.06,1.13s.51.73,1.11,1.82L214.42,133s1,1.83,2,3.58c0,0,1,1.75,1.84,3.44,0,0,.88,1.7,1.74,3.34,0,0,.87,1.64,1.72,3.3h0s-.07-2.79-.09-5.81c0,0,0-3,0-5.8V110.28a.93.93,0,0,1,.14-.46,1.22,1.22,0,0,1,.48-.37,3.09,3.09,0,0,1,.88-.23,12.53,12.53,0,0,1,1.43-.07s.77,0,1.34.07a3.44,3.44,0,0,1,.88.23,1.4,1.4,0,0,1,.46.37.93.93,0,0,1,.14.46v42.16Z"/><path class="cls-2" d="M265.67,152.44a9.3,9.3,0,0,1-.07,1.11,3,3,0,0,1-.24.8,1.48,1.48,0,0,1-.41.45,1,1,0,0,1-.51.15H242.51a2.78,2.78,0,0,1-1.53-.55,2.41,2.41,0,0,1-.73-1.93V111.73a2.78,2.78,0,0,1,.73-1.93,2.88,2.88,0,0,1,1.53-.55h21.68a1,1,0,0,1,.51.15,1.06,1.06,0,0,1,.37.46,3.19,3.19,0,0,1,.23.79,7.07,7.07,0,0,1,.09,1.18,7.18,7.18,0,0,1-.09,1.11,3.4,3.4,0,0,1-.23.78,1.16,1.16,0,0,1-.37.44,1,1,0,0,1-.51.14H246.33v14.34h15.32a1,1,0,0,1,.51.16,1.48,1.48,0,0,1,.39.44,2.36,2.36,0,0,1,.23.78,9.09,9.09,0,0,1,.07,1.16,9,9,0,0,1-.07,1.1,2.62,2.62,0,0,1-.23.74,1,1,0,0,1-.9.53H246.33V149.9h18.11a1.11,1.11,0,0,1,.51.14,1.37,1.37,0,0,1,.41.44,2.43,2.43,0,0,1,.24.78,8.85,8.85,0,0,1,.07,1.18Z"/><path class="cls-2" d="M320,153.6a2.26,2.26,0,0,1-.42.8,2,2,0,0,1-.78.46,6.24,6.24,0,0,1-1.22.23s-.72.07-1.78.07c0,0-1.09,0-1.85-.07a7.35,7.35,0,0,1-1.26-.23,1.88,1.88,0,0,1-.74-.46,2.57,2.57,0,0,1-.39-.8L302,119.11H302l-8.82,34.49a2.22,2.22,0,0,1-.36.8,1.65,1.65,0,0,1-.7.46,5.59,5.59,0,0,1-1.18.23s-.73.07-1.86.07c0,0-1.16,0-1.94-.07a7.24,7.24,0,0,1-1.27-.23,2,2,0,0,1-.76-.46,1.82,1.82,0,0,1-.37-.8l-12.08-42.19a8.3,8.3,0,0,1-.23-1.27,1,1,0,0,1,.29-.71,1.9,1.9,0,0,1,1-.32s.67-.07,1.8-.07c0,0,1.09,0,1.73.06a4.2,4.2,0,0,1,1,.19,1,1,0,0,1,.46.39,2.74,2.74,0,0,1,.19.63l10.28,38.28h0l9.75-38.21a3,3,0,0,1,.26-.65,1.12,1.12,0,0,1,.51-.4,4,4,0,0,1,1-.22s.65-.07,1.71-.07c0,0,1,0,1.57.07a4.3,4.3,0,0,1,.94.22,1.2,1.2,0,0,1,.51.4,3.09,3.09,0,0,1,.27.65l10.48,38.21h.07l10.07-38.24s.1-.35.21-.62a.8.8,0,0,1,.44-.4,3.58,3.58,0,0,1,1-.22,16.29,16.29,0,0,1,1.65-.07,15.22,15.22,0,0,1,1.67.09,2.15,2.15,0,0,1,.9.34.89.89,0,0,1,.27.7,8.17,8.17,0,0,1-.2,1.27L320,153.6Z"/><path class="cls-2" d="M373,137.18V154a1,1,0,0,1-.14.49,1,1,0,0,1-.49.34,5.94,5.94,0,0,1-.95.21,10.81,10.81,0,0,1-1.45.09,12.22,12.22,0,0,1-1.47-.09,7.71,7.71,0,0,1-.95-.21,1.21,1.21,0,0,1-.51-.34,1,1,0,0,1-.14-.49V137.18L354,111.41a7.61,7.61,0,0,1-.47-1.27.87.87,0,0,1,.17-.71,1.73,1.73,0,0,1,1-.32s.69-.07,1.85-.07c0,0,1.06,0,1.71.07a6.17,6.17,0,0,1,1,.2,1.5,1.5,0,0,1,.59.35,3.54,3.54,0,0,1,.37.58l6.32,13.14s.88,1.87,1.76,3.92c0,0,.89,2,1.81,4.13h.07s.81-2,1.67-4c0,0,.87-2,1.75-3.94l6.36-13.2a2,2,0,0,1,.3-.6,1.24,1.24,0,0,1,.53-.37,4.07,4.07,0,0,1,.93-.2,14.51,14.51,0,0,1,1.52-.07s1.27,0,2,.09a2.44,2.44,0,0,1,1,.34.76.76,0,0,1,.2.7,5.48,5.48,0,0,1-.48,1.24L373,137.18Z"/><path class="cls-2" d="M432.65,131.57a41.68,41.68,0,0,1-1.31,10,24.37,24.37,0,0,1-3.9,7.58,19.31,19.31,0,0,1-6.51,4.8,25.54,25.54,0,0,1-9.15,1.68,27.91,27.91,0,0,1-8.91-1.54,18.22,18.22,0,0,1-6.22-4.47,21.26,21.26,0,0,1-3.65-7.27,41.5,41.5,0,0,1-1.2-10,40.84,40.84,0,0,1,1.3-9.82A24,24,0,0,1,397,115a19.79,19.79,0,0,1,6.53-4.77,25.54,25.54,0,0,1,9.15-1.68,27.64,27.64,0,0,1,8.79,1.52,18.32,18.32,0,0,1,6.23,4.43,21.11,21.11,0,0,1,3.71,7.21,39.81,39.81,0,0,1,1.22,9.83Zm-6.39.42a41.75,41.75,0,0,0-.69-7.22,19.49,19.49,0,0,0-2.3-5.79,12.55,12.55,0,0,0-4.29-3.83,15.73,15.73,0,0,0-6.63-1.38,16.13,16.13,0,0,0-6.64,1.49,14.22,14.22,0,0,0-4.36,3.95A18.32,18.32,0,0,0,399,125a36.41,36.41,0,0,0-.73,6.94,45,45,0,0,0,.67,7.42,19.73,19.73,0,0,0,2.26,5.84,12.32,12.32,0,0,0,4.26,3.82,16,16,0,0,0,6.69,1.35,16.58,16.58,0,0,0,6.71-1.48,13.8,13.8,0,0,0,4.38-4,18.87,18.87,0,0,0,2.36-5.84,37.88,37.88,0,0,0,.71-7Z"/><path class="cls-2" d="M473.45,154a1.22,1.22,0,0,1-.11.49.87.87,0,0,1-.46.36,4.13,4.13,0,0,1-1,.21s-.63.07-1.69.07c0,0-.92,0-1.5-.07a4.08,4.08,0,0,1-.94-.23,1.49,1.49,0,0,1-.54-.44,3.11,3.11,0,0,1-.34-.71l-4.2-10.77s-.74-1.84-1.54-3.37a12.35,12.35,0,0,0-1.89-2.65,8.84,8.84,0,0,0-2.57-1.73,10.18,10.18,0,0,0-3.57-.62h-4.06V154a.91.91,0,0,1-.16.49,1.21,1.21,0,0,1-.49.34,5.64,5.64,0,0,1-.92.21,10.59,10.59,0,0,1-1.47.09,12,12,0,0,1-1.46-.09,7,7,0,0,1-.94-.21,1.19,1.19,0,0,1-.49-.34A1,1,0,0,1,443,154v-42.3a2.81,2.81,0,0,1,.72-1.93,2.89,2.89,0,0,1,1.54-.55H455s1.73,0,2.87.09c0,0,1.15.09,2.07.2a20.57,20.57,0,0,1,4.68,1.45,12.79,12.79,0,0,1,3.41,2.5A11.65,11.65,0,0,1,470,117a14.52,14.52,0,0,1,.69,4.33,15,15,0,0,1-.62,4.11,11.53,11.53,0,0,1-1.78,3.21,13.39,13.39,0,0,1-2.79,2.42,20.69,20.69,0,0,1-3.64,1.73A9.81,9.81,0,0,1,464,134a11.73,11.73,0,0,1,1.71,1.82,18.14,18.14,0,0,1,1.5,2.44s.71,1.38,1.42,3.11l4.09,10.06s.5,1.27.64,1.78a4.1,4.1,0,0,1,.14.8Zm-9.15-32.1a9.68,9.68,0,0,0-1.2-4.54,7.37,7.37,0,0,0-4-2.66,12.33,12.33,0,0,0-2-.35s-1.11-.11-2.91-.11h-5.12v15.39H455a15.84,15.84,0,0,0,4.15-.58,9.56,9.56,0,0,0,2.91-1.62,7.23,7.23,0,0,0,1.72-2.46,9.59,9.59,0,0,0,.54-3.07Z"/><path class="cls-2" d="M512.76,154a1.26,1.26,0,0,1-.12.51.92.92,0,0,1-.48.37,4.67,4.67,0,0,1-.95.23,11.54,11.54,0,0,1-1.55.09,18.53,18.53,0,0,1-2-.11,3.08,3.08,0,0,1-1.16-.39,3.19,3.19,0,0,1-.64-.63L489,131.18V154a1,1,0,0,1-.14.47,1.06,1.06,0,0,1-.5.36,6,6,0,0,1-.94.21,10.52,10.52,0,0,1-1.46.09,12.07,12.07,0,0,1-1.45-.09,7,7,0,0,1-.95-.21,1.18,1.18,0,0,1-.5-.36A1,1,0,0,1,483,154V110.17a1,1,0,0,1,.14-.49,1.11,1.11,0,0,1,.5-.34,5.94,5.94,0,0,1,.95-.21A10.81,10.81,0,0,1,486,109a12,12,0,0,1,1.46.09,7,7,0,0,1,.94.21,1.26,1.26,0,0,1,.5.34,1,1,0,0,1,.14.49v20.31l16.17-20.31a2.69,2.69,0,0,1,.49-.53,2.37,2.37,0,0,1,.69-.33,6,6,0,0,1,1-.2,13.85,13.85,0,0,1,1.5-.07,12.07,12.07,0,0,1,1.48.09,4.91,4.91,0,0,1,.9.23,1.1,1.1,0,0,1,.46.35,1,1,0,0,1,.13.46,2.29,2.29,0,0,1-.23.92,8.44,8.44,0,0,1-.87,1.27L495.6,130.48l16.32,21.68a10.21,10.21,0,0,1,.72,1.25,2.08,2.08,0,0,1,.12.55Z"/></svg>