<svg xmlns="http://www.w3.org/2000/svg" xmlns:xlink="http://www.w3.org/1999/xlink" viewBox="0 0 459.25 409.36"><defs><style>.cls-1{fill:none;}.cls-2{fill:#3dbca0;}.cls-3{isolation:isolate;}.cls-4{fill:url(#linear-gradient);}.cls-5{fill:url(#linear-gradient-2);}.cls-6{fill:url(#linear-gradient-3);}.cls-7,.cls-9{fill:url(#New_Pattern_Swatch_1);}.cls-8{fill:url(#linear-gradient-4);}.cls-9{mix-blend-mode:multiply;}.cls-10{fill:#fff;}</style><linearGradient id="linear-gradient" y1="284.37" x2="451.53" y2="284.37" gradientUnits="userSpaceOnUse"><stop offset="0" stop-color="#f1625f"/><stop offset="0.44" stop-color="#af597f"/><stop offset="0.81" stop-color="#7c5397"/><stop offset="1" stop-color="#6850a1"/></linearGradient><linearGradient id="linear-gradient-2" y1="96" x2="451.53" y2="96" xlink:href="#linear-gradient"/><linearGradient id="linear-gradient-3" y1="338.95" x2="451.53" y2="338.95" xlink:href="#linear-gradient"/><pattern id="New_Pattern_Swatch_1" data-name="New Pattern Swatch 1" width="28" height="28" patternTransform="translate(1.93 -203.8) scale(1.4)" patternUnits="userSpaceOnUse" viewBox="0 0 28 28"><rect class="cls-1" width="28" height="28"/><rect class="cls-2" width="28" height="28"/></pattern><linearGradient id="linear-gradient-4" y1="232.38" x2="451.53" y2="232.38" xlink:href="#linear-gradient"/></defs><g class="cls-3"><g id="Layer_1" data-name="Layer 1"><path class="cls-4" d="M81.91,360.37c9.34-8.06,21.25-12.5,28.5-23.05,9.28-13.52,8.14-32.69,6.53-49.86q-3.8-40.42-7.58-80.85c-18-.42-36-.92-53.19,2.19-25.93,4.68-50.8,20-55.4,45.69C-2.91,274.94,7.08,297.64,21.05,316c15.36,20.15,36,36,58.71,46.47C80.46,361.7,81.18,361,81.91,360.37Z"/><path class="cls-5" d="M261.84,146.13c31.63,28.94,77.1,22.67,115.27,37.7A103,103,0,0,1,393.28,192c7.19-11.41,18.77-20.84,37.31-19,43.42,4.4,10-52.37-16.7-36.83s-15.33,35.17-52.34,19.73l-67.89-51.4C279.91,94.12,265,82,261.3,66c-2.89-12.47,1.89-24.25,2.25-36.58S256.22,1.1,243.57.05c-37.21-1.82-45.92,43.19-35.28,78.14.93,3.08,1.85,6.21,2.73,9.35a55.21,55.21,0,0,1,9.82,7.65C236.12,110.28,246.08,131.71,261.84,146.13Z"/><path class="cls-6" d="M230.8,301c-32.83,3-57,35.79-75.63,67.24a95,95,0,0,1-6,8.92c16-.56,31.41-4,45.17-10.74,28.74-14,50.93-40.07,79.55-52.66C260.56,305,245.94,299.6,230.8,301Z"/><path class="cls-7" d="M79.76,362.43c-8.14,8.57-13.2,23.29-6,32.54,21.47,25.88,55.4,8.85,75.47-17.84C126.21,378,102,372.76,79.76,362.43Z"/><path class="cls-7" d="M393.28,192c-9.64,15.31-11.37,34.2-11.37,34.2h0a60.27,60.27,0,0,0,5.5,14.65c5.92,11.07,15.29,21.17,17.47,33,4,21.57-18.16,36.06-39.61,37.14s-44-6-65.25-4.16a82.19,82.19,0,0,0-26.11,6.88,148.22,148.22,0,0,1,24.32,20.38c18.83,19.21,35,42.11,56,58.07s49.08,23.92,71.11,10c17.56-11.11,27.56-33.8,31.63-56.48C467.72,285.92,439.47,220.5,393.28,192Z"/><path class="cls-7" d="M136.81,206.72c26.88-.91,54.75-7.36,70-27.34,18.23-23.9,13.3-59.28,4.23-91.84-14.88-9.06-33.65-10.6-44.32,3.53-7.27,9.62-8.39,23.35-12.56,35.19a60.9,60.9,0,0,1-7.09,14h0s-46,35-72.08,0-45.37,28-15.88,37.2S95.38,165,109,202.68c.12,1.31.24,2.62.37,3.93C118.54,206.83,127.73,207,136.81,206.72Z"/><path class="cls-8" d="M365.27,311c21.45-1.08,43.59-15.57,39.61-37.14-2.18-11.86-11.55-22-17.47-33a60.27,60.27,0,0,1-5.5-14.65h0s1.73-18.89,11.37-34.2a103,103,0,0,0-16.17-8.16c-38.17-15-83.64-8.76-115.27-37.7-15.76-14.42-25.72-35.85-41-50.94A55.21,55.21,0,0,0,211,87.54c9.07,32.56,14,67.94-4.23,91.84-15.23,20-43.1,26.43-70,27.34-9.08.31-18.27.11-27.45-.11q3.78,40.42,7.58,80.85c1.61,17.17,2.75,36.34-6.53,49.86-7.25,10.55-19.16,15-28.5,23.05-.73.63-1.45,1.33-2.15,2.06,22.27,10.33,46.45,15.52,69.43,14.7a95,95,0,0,0,6-8.92C173.76,336.76,198,303.93,230.8,301c15.14-1.37,29.76,4,43.11,12.76A82.19,82.19,0,0,1,300,306.85C321.29,305,343.83,312.09,365.27,311Z"/><path class="cls-9" d="M365.27,311c21.45-1.08,43.59-15.57,39.61-37.14-2.18-11.86-11.55-22-17.47-33a60.27,60.27,0,0,1-5.5-14.65h0s1.73-18.89,11.37-34.2a103,103,0,0,0-16.17-8.16c-38.17-15-83.64-8.76-115.27-37.7-15.76-14.42-25.72-35.85-41-50.94A55.21,55.21,0,0,0,211,87.54c9.07,32.56,14,67.94-4.23,91.84-15.23,20-43.1,26.43-70,27.34-9.08.31-18.27.11-27.45-.11q3.78,40.42,7.58,80.85c1.61,17.17,2.75,36.34-6.53,49.86-7.25,10.55-19.16,15-28.5,23.05-.73.63-1.45,1.33-2.15,2.06,22.27,10.33,46.45,15.52,69.43,14.7a95,95,0,0,0,6-8.92C173.76,336.76,198,303.93,230.8,301c15.14-1.37,29.76,4,43.11,12.76A82.19,82.19,0,0,1,300,306.85C321.29,305,343.83,312.09,365.27,311Z"/><path class="cls-10" d="M142.85,195.69l15.08-32.63a.88.88,0,0,1,.82-.53h.49a.82.82,0,0,1,.82.53L175,195.69a.86.86,0,0,1-.83,1.26H170a1.39,1.39,0,0,1-1.4-1l-2.38-5.23H151.68L149.3,196a1.45,1.45,0,0,1-1.41,1h-4.21A.86.86,0,0,1,142.85,195.69Zm21-10.32L159,174.7h-.15l-4.75,10.67Z"/><path class="cls-10" d="M180.62,163.94a.91.91,0,0,1,.92-.92H195.4A10.5,10.5,0,0,1,206,173.44c0,4.46-2.95,8.1-7.17,9.79l6.64,12.32a.91.91,0,0,1-.82,1.4h-5.09a.84.84,0,0,1-.78-.43l-6.45-12.85h-5.38V196a1,1,0,0,1-.92.92h-4.46a.91.91,0,0,1-.92-.92Zm14.25,14.54a4.94,4.94,0,0,0,4.8-4.94,4.83,4.83,0,0,0-4.8-4.71H187v9.65Z"/><path class="cls-10" d="M218.67,168.83h-7.42a.92.92,0,0,1-.92-.92v-4a.92.92,0,0,1,.92-.92h21.19a.92.92,0,0,1,.92.92v4a.92.92,0,0,1-.92.92H225V196a.94.94,0,0,1-.92.92h-4.51a1,1,0,0,1-.92-.92Z"/><path class="cls-10" d="M237.62,192.2l1.75-3a1.12,1.12,0,0,1,1.65-.34c.24.14,4.17,3,7.32,3,2.52,0,4.41-1.65,4.41-3.73,0-2.47-2.08-4.17-6.16-5.82-4.55-1.84-9.11-4.75-9.11-10.47,0-4.32,3.2-9.31,10.91-9.31a17,17,0,0,1,9.69,3.25,1.19,1.19,0,0,1,.29,1.6l-1.84,2.76a1.27,1.27,0,0,1-1.69.58c-.39-.24-4.08-2.66-6.74-2.66s-4.27,1.84-4.27,3.39c0,2.28,1.79,3.83,5.72,5.43,4.7,1.89,10.13,4.7,10.13,11,0,5-4.31,9.6-11.15,9.6a15.58,15.58,0,0,1-10.66-3.78C237.43,193.22,237.19,193,237.62,192.2Z"/><path class="cls-10" d="M162.29,207.24A16.42,16.42,0,0,1,174,211.75a.91.91,0,0,1,.05,1.36l-3,3a.77.77,0,0,1-1.21,0,11.52,11.52,0,0,0-7.47-2.86c-6.21,0-10.81,5.19-10.81,11.3a11,11,0,0,0,10.86,11.2,11.64,11.64,0,0,0,7.42-2.76.89.89,0,0,1,1.21,0l3,3.1a.92.92,0,0,1,0,1.31,16.65,16.65,0,0,1-11.79,4.7,17.46,17.46,0,1,1,0-34.91Z"/><path class="cls-10" d="M196.47,207.24a17.46,17.46,0,1,1-17.4,17.51A17.43,17.43,0,0,1,196.47,207.24Zm0,28.61a11.15,11.15,0,1,0-11.1-11.1A11.18,11.18,0,0,0,196.47,235.85Z"/><path class="cls-10" d="M221,208.65a.94.94,0,0,1,.92-.92h4.6a.92.92,0,0,1,.93.92v19.83c0,4.12,2.81,7.37,7,7.37a7,7,0,0,0,7.07-7.32V208.65a.92.92,0,0,1,.93-.92h4.6a.94.94,0,0,1,.92.92v20.17a13.5,13.5,0,0,1-27,0Z"/><path class="cls-10" d="M257.55,208.12a.92.92,0,0,1,.92-.88h1.21l20.17,21.43h0v-20a.92.92,0,0,1,.92-.92h4.46a.94.94,0,0,1,.92.92v32.63a.91.91,0,0,1-.92.87h-1.16L263.85,219.9h-.05v20.85a.92.92,0,0,1-.92.92h-4.41a1,1,0,0,1-.92-.92Z"/><path class="cls-10" d="M311.26,207.24A16.42,16.42,0,0,1,323,211.75a.91.91,0,0,1,.05,1.36l-3,3a.77.77,0,0,1-1.21,0,11.5,11.5,0,0,0-7.47-2.86c-6.21,0-10.81,5.19-10.81,11.3a11,11,0,0,0,10.86,11.2,11.64,11.64,0,0,0,7.42-2.76.89.89,0,0,1,1.21,0l3,3.1a.93.93,0,0,1,0,1.31,16.65,16.65,0,0,1-11.79,4.7,17.46,17.46,0,1,1,0-34.91Z"/><path class="cls-10" d="M330.6,208.65a1,1,0,0,1,.93-.92H336a1,1,0,0,1,.93.92v32.1a1,1,0,0,1-.93.92h-4.5a1,1,0,0,1-.93-.92Z"/><path class="cls-10" d="M347,208.65a.92.92,0,0,1,.92-.92h4.46a.94.94,0,0,1,.92.92v27.2h12.36a.92.92,0,0,1,.93.92v4a.93.93,0,0,1-.93.92H347.91a.92.92,0,0,1-.92-.92Z"/><path class="cls-10" d="M150.8,252.69a.82.82,0,0,1,.88-.73h.77a.89.89,0,0,1,.83.48l10.66,22.89h.15l10.66-22.89a.84.84,0,0,1,.83-.48h.77a.82.82,0,0,1,.88.73L183,285.27a.84.84,0,0,1-.88,1.11h-4.41a1.06,1.06,0,0,1-.92-.73l-2.86-18.37h-.14l-8.49,19.05a.82.82,0,0,1-.82.54h-.88a.87.87,0,0,1-.82-.54l-8.58-19.05H154l-2.81,18.37a.94.94,0,0,1-.87.73H146a.89.89,0,0,1-.93-1.11Z"/><path class="cls-10" d="M186.38,285.12l15.08-32.63a.88.88,0,0,1,.83-.53h.48a.83.83,0,0,1,.83.53l14.93,32.63a.86.86,0,0,1-.83,1.26h-4.21a1.4,1.4,0,0,1-1.41-1l-2.38-5.23H195.21l-2.38,5.23a1.45,1.45,0,0,1-1.4,1h-4.22A.86.86,0,0,1,186.38,285.12Zm21-10.32-4.85-10.67h-.14l-4.76,10.67Z"/><path class="cls-10" d="M224.15,253.37a.93.93,0,0,1,.92-.93h4.46a1,1,0,0,1,.92.93v27.19h12.36a.93.93,0,0,1,.93.92v4a.92.92,0,0,1-.93.92H225.07a.92.92,0,0,1-.92-.92Z"/><path class="cls-10" d="M252.46,258.26H245a.92.92,0,0,1-.92-.92v-4a.93.93,0,0,1,.92-.93h21.19a.93.93,0,0,1,.92.93v4a.92.92,0,0,1-.92.92h-7.42v27.2a1,1,0,0,1-.92.92h-4.51a1,1,0,0,1-.92-.92Z"/><path class="cls-10" d="M267.15,285.12l15.08-32.63a.85.85,0,0,1,.82-.53h.48a.83.83,0,0,1,.83.53l14.93,32.63a.86.86,0,0,1-.82,1.26h-4.22a1.4,1.4,0,0,1-1.41-1l-2.37-5.23H276l-2.37,5.23a1.46,1.46,0,0,1-1.41,1H268A.85.85,0,0,1,267.15,285.12Zm20.94-10.32-4.85-10.67h-.14l-4.75,10.67Z"/></g></g></svg>