<svg id="Layer_1" data-name="Layer 1" xmlns="http://www.w3.org/2000/svg" viewBox="0 0 83.46 90.48"><path d="M15.92,50.35c.34.26.56.53.08.88-.17.12,0,.22.09.3s.32.4.61.42c.12,0,.33.06.33.12,0,.22-.21.16-.33.25a2.59,2.59,0,0,1-.33.19,1.08,1.08,0,0,0-.5,1.56c.06.14.26.24.15.44-.5.94.39,1.54.59,2.31,0,.09.24.14.14.35a1,1,0,0,0,.09,1.09c.2.33-.29.59,0,1.06a5,5,0,0,1,.34,2,1.24,1.24,0,0,0,.43,1,.94.94,0,0,1,.24,1.26A1,1,0,0,0,18,64.82c.1.1.1.31.17.45.46.84.42,1.92,1.26,2.56-.07.43.21.59.54.75a.28.28,0,0,1,.12.42c-.08.13-.16.37-.1.47.63,1.08.81,2.46,2.09,3.09.51.25.53.85.91,1.18-.46.52.21.72.3,1.08s.62.3.72.66a2.46,2.46,0,0,0,.4.91c.41.53.59,1.29,1.09,1.68a5.25,5.25,0,0,0,1.87.65c.23.07.51.21.48.36-.16.74.37.81.83,1l.06,0c-.05-.1,0-.2.09-.2s.13.09.09.19l.06.07h.37c-.12.45.34.55.47.8.26.52.77.46,1.13.71a27.25,27.25,0,0,0,4.72,2.56,2.78,2.78,0,0,0,1.13.06.57.57,0,0,1,.36,0c.47.17,1.06.18,1.4.48s.8-.23,1.17,0a8,8,0,0,0,2,.67,2.65,2.65,0,0,0,1.7.14c.47-.11,1.1-.41,1.64.07a.42.42,0,0,0,.58-.09c.33-.57.89-.19,1.33-.33a2.11,2.11,0,0,1,1.5.07c.33.16.63.31.81-.2.07-.18.19,0,.25.06.25.53.86.15,1.22.49.18.16.39-.27.61-.36,1.07-.43,1.86-1.32,2.94-1.71,1.3-.48,2.55-1,3.81-1.61a3.15,3.15,0,0,0,1.71-1.49.7.7,0,0,1,.35-.35c.13,0,.31.16.45.13s-.06-.29,0-.36.33-.06.47-.14.57-.16.72-.47a11.16,11.16,0,0,0,1-2.15c.15-.67.33-1,1-1,.35,0,.68-.23.46-.67s.08-.48.15-.69c.21-.63.54-1.23.72-1.87s1.07-1,.59-1.76c.59-.51.73-1.39,1.33-1.82s.35-.82.65-1.14c-.25-.57.09-1.13,0-1.7a3.06,3.06,0,0,0-.2-.58l-.06,0c-.4-.06-.16-.42-.29-.61-.37-.5.21-.44.37-.53s.64-.31.6-.43a1,1,0,0,1,.11-.79,6.49,6.49,0,0,0,.44-1.69c.09-.57.5-1.18.11-1.81,0-.06.06-.24.14-.33s.38-.52.64-.61c.58-.22.33-.4.06-.66s-.56-.45-.22-.73.2-.54.13-.87-.46-.74,0-1.17a.65.65,0,0,0,0-.62.53.53,0,0,1,0-.68c.46-.71.11-1.6.52-2.32-.53-.94.11-1.88,0-2.83-.06-.46.13-.94-.17-1.38a.46.46,0,0,1,0-.35,5.78,5.78,0,0,0,0-3.37,1,1,0,0,1,.1-.86.71.71,0,0,0,.11-.48,4,4,0,0,1-.25-2.52c-.35-.63-.11-1.35-.28-2s0-1.37-1-1.42a.36.36,0,0,1-.2-.11.26.26,0,0,1,.28-.17.62.62,0,0,0,.55-.28c.29-.42-.18-1.14.54-1.4-.56-.25,0-.87-.36-1.17s-.31-.76-.33-1.18.16-.91-.1-1.25c-.57-.78-.53-1.74-.89-2.58a2.58,2.58,0,0,1-.31-1.34,2.55,2.55,0,0,0-.36-1.42,4.83,4.83,0,0,1-.67-2.54.69.69,0,0,0-.28-.76.77.77,0,0,1-.26-1.19c.15-.19,0-.47-.2-.68s-.61-.39-.48-.69-.06-.44-.28-.61a7.2,7.2,0,0,0-.74-.48c-.13-.08-.31-.34-.28-.39.36-.54-.21-.58-.42-.78-.56-.56-.91-1.33-1.67-1.69-.09,0-.21-.26-.18-.29.26-.34-.07-.48-.23-.61a5.12,5.12,0,0,1-.87-.87,2,2,0,0,0-1.22-.88c-.77-.11-1-1-1.73-1.07a1.85,1.85,0,0,0-1.68-1.17c-1-.86-2.42-1-3.44-1.84-.44-.38-1-.29-1.54-.51A11,11,0,0,0,46,7.46c-.22,0-.42-.15-.6-.15-.72,0-1.38-.56-2.09-.3a2.66,2.66,0,0,1-2.09,0,1.27,1.27,0,0,0-1,0,7.23,7.23,0,0,1-3.42.71,1,1,0,0,0-.61.15c-.87.57-2,.25-2.87.87-.07,0-.26,0-.36-.07s-.29-.13-.42,0c-.24.33-.59.31-.93.3a.49.49,0,0,0-.57.37c-.08.24-.33.34-.6.42a4.42,4.42,0,0,0-1.67.82c-.59.46-1.22.9-1.85,1.31s-1,.42-1,1.2c0,.28-.51.48-.26,1,.14.3-.47.53-.69.59-.78.22-1.18.59-1.06,1.43,0,.11-.08.31-.15.33-.65.12-.6.76-.85,1.16A10.82,10.82,0,0,0,21,21.37a2,2,0,0,1-.31.68,8.15,8.15,0,0,0-1,2.68,6.72,6.72,0,0,1-.79,2.48,31.62,31.62,0,0,0-1.45,3.54,3.19,3.19,0,0,0-.31,1.07c0,.45.32.77.28,1.23s-.46.75-.58,1.23c-.27,1.1-.08,2.29-.7,3.31-.06.09,0,.25,0,.38a61.45,61.45,0,0,1-.25,7.79c-.15,1.08.14,2.19-.24,3.29A1.12,1.12,0,0,0,15.92,50.35Zm4-5.67c0,.06-.1,0-.14,0a.18.18,0,0,1,.08-.06s.05,0,.07,0S19.91,44.66,19.89,44.68Zm.73-.48-.07,0,.08-.11.07.08Zm.12-4.26a1,1,0,0,1,.58-1l.1,0a.74.74,0,0,1,.08.22.36.36,0,0,1-.09.22c-.19.23-.39.46-.59.68C20.79,40,20.75,40,20.74,39.94Zm.18,23.78c0,.06-.1.05-.14,0a.19.19,0,0,1,.08-.07s.05,0,.07,0S20.94,63.71,20.92,63.72Zm.2,4.94a.18.18,0,0,1-.06-.08s0,0,0-.07h.08C21.23,68.57,21.21,68.62,21.12,68.66ZM21.28,58a.24.24,0,0,1,.1-.32s.14.07.2.13a.57.57,0,0,1,.2.56,2.12,2.12,0,0,0-.11.21.54.54,0,0,1-.16-.14A2.3,2.3,0,0,1,21.28,58Zm.25-7.1c0-.06.08-.12.12-.18l.11.19c0,.07,0,.18-.08.19S21.5,51,21.53,50.91Zm.16,11.79s-.16-.05-.16-.09,0-.32.23-.33c.07,0,.2.06.2.08A.38.38,0,0,1,21.69,62.7Zm.07-22.07c-.22,0-.24-.17-.24-.33s.13-.1.17-.08a.36.36,0,0,1,.27.33A.5.5,0,0,1,21.76,40.63Zm.57,29.6c-.2,0-.28-.08-.29-.22a.46.46,0,0,1,.34-.46c.13,0,.18.12.17.24S22.56,70.21,22.33,70.23Zm.5-19.36c.08-.08.12-.16.17-.17s.32,0,.3.26-.07.13-.1.2Zm.06-9.54c0-.14.09-.18.2-.15a.47.47,0,0,1,.18.12l-.19.11C23,41.39,22.9,41.37,22.89,41.33Zm.61,25c-.34,0-.09-.31-.23-.41.1-.17-.09-.5.27-.41a.56.56,0,0,1,.27.37A.38.38,0,0,1,23.5,66.29Zm-.23-7.89c-.12,0-.22-.14-.09-.25a8,8,0,0,1,.9-.74c.12-.09.2.07.25.18A1,1,0,0,1,23.27,58.4Zm.4-6.83c.32,0,.11.39.25.58a4.71,4.71,0,0,1,.38.74c-.11.17-.21.35-.38.3a.83.83,0,0,1-.49-1C23.5,52,23.61,51.56,23.67,51.57Zm-.11-5.88c0-.11.07-.31.11-.31.23,0,.15.2.18.33a2.23,2.23,0,0,1,0,.37c0,.07-.09.12-.14.17a.76.76,0,0,1-.12-.19A1.15,1.15,0,0,1,23.56,45.69Zm.77,4.66v-.57c0,.06,0-.07,0-.19s.06-.09.08-.09.16,0,.17.09c.05.25.35.42.25.68a.68.68,0,0,1-.35.34C24.38,50.64,24.33,50.47,24.33,50.35Zm1-5.74c.29.15.59.07.86.17a.55.55,0,0,1,.08,1c-.53.25-.15.23,0,.37.37.28.36.32.36.6s-.17.41-.42.38a1.63,1.63,0,0,1-.46-.18c-.45-.2-1.16.2-1.36-.44-.14-.44.19-.95.19-1.46A.47.47,0,0,1,25.34,44.61Zm-.68-2.82s.12-.07.19-.11a.48.48,0,0,1,.44.34c.05.15-.1.18-.21.16A.54.54,0,0,1,24.66,41.79Zm1.91,10.28a1.09,1.09,0,0,1-.08.14,1.45,1.45,0,0,1-.29-.11s0-.07.08-.08S26.49,51.92,26.57,52.07Zm-1.95.4c0-.14.08-.22.4-.21.12,0,.1.23.11.42s-.05.28-.17.24A.43.43,0,0,1,24.62,52.47Zm.51,5.68c-.1,0-.27,0-.18-.21s.12-.19.17-.18a1.51,1.51,0,0,0,1.14-.36c.22,0,.35,0,.38.15.08.28.34.49.29.83s-.32.54-.67.29A2.35,2.35,0,0,0,25.13,58.15Zm1.76,5c-.08.08-.12.17-.17.17s-.32-.05-.3-.26a.69.69,0,0,1,.1-.19Zm-.52,2.36c0,.13-.22.23-.35.35a1.37,1.37,0,0,1-.37-.75c0-.14.09-.23.29-.21S26.45,65.12,26.37,65.47Zm2,11.67-.08,0,.08-.1.07.07Zm1.32,2c-.09.09-.18,0-.22-.13l-.26-.25c-.1-.05-.22-.13-.13-.22s.17,0,.22.12l.26.26C29.63,79,29.75,79.08,29.67,79.17ZM29,77.85s0,0,0-.07.06,0,.07,0,.05.1,0,.14A.18.18,0,0,1,29,77.85Zm2.22-2.34c-.11.19-.22,0-.29,0a1.68,1.68,0,0,1-.24-.29c-.09,0-.21-.13-.13-.21s.17,0,.22.12a1.48,1.48,0,0,1,.36.1A.23.23,0,0,1,31.26,75.51Zm.38-3.31c-.52.49-.62,0-.86-.23a.78.78,0,0,0-.33-.15c-.59-.24-.57-.23-.78.44s-.29,1.26-1.2,1.12c-.31,0-.2.44-.47.52-.11.59-.05,1.09.64,1.3.14,0,.33.19.24.36s-.3.1-.47.11-.3,0-.35-.07c-.23-.32-.83,0-.9-.54s0-1,.63-1.19l.11-.07a.94.94,0,0,0,.1.1l-.1-.1c0-.28.08-.5-.27-.75A13,13,0,0,1,26,71.57c-.22-.22-.21-.4.12-.58s.84-.37,1.24.08a4.72,4.72,0,0,0,.52.35c.48.39.47.39,1-.1-.09,0-.21-.13-.13-.21s.17,0,.22.12a.56.56,0,0,0,.43-.42c.1-.3.22-.28.42-.09a2.33,2.33,0,0,0,1.47.56c.88.06,1.13.63.78,1.59a2.29,2.29,0,0,1-.24.93.25.25,0,0,0,.12,0c.34,0,.63-.46,1-.14a.12.12,0,0,1,0,.1c-.26.46-.68.37-1.08.29-.07,0-.11-.12-.17-.17-.34-.58-.34-.58.26-1.13C32.05,72.46,31.83,72,31.64,72.2ZM26,69.31a.43.43,0,0,1,.39-.34c.19,0,.27.09.27.24,0,.31-.25.26-.44.27S25.93,69.45,26,69.31Zm.95-.38c0-.06.08-.12.12-.18a.58.58,0,0,1,.11.18c0,.11,0,.23-.15.19S26.92,69,26.93,68.93Zm3.48-43.77c-.12,0-.13-.12,0-.15a1.76,1.76,0,0,1,.46-.06s.06.1.1.16A.45.45,0,0,1,30.41,25.16Zm.56.65a.19.19,0,0,1,0,.08c-.05.06-.1,0-.14-.05a.18.18,0,0,1,.08-.06S30.94,25.8,31,25.81Zm-.54,2.31c.1.09,0,.17-.12.22a.32.32,0,0,1-.41.19s-.09-.06-.08-.09c.06-.2.25-.15.4-.19S30.35,28,30.43,28.12Zm-.24,2a.24.24,0,0,1,.22,0c.13.17-.11.26-.11.41a2,2,0,0,1,0,.25.22.22,0,0,0,.16,0c.05-.09.13-.21.22-.13s0,.17-.12.22c-.11.22-.23.23-.35,0a.42.42,0,0,1-.23-.4C30,30.35,30,30.18,30.19,30.12Zm.53,39.38a.25.25,0,0,1,.22,0c.18.2,0,.37-.09.53s0,.08,0,.12a.6.6,0,0,1,.11.06c.1.13.2.26.31.38a.5.5,0,0,1-.21.1c-.31,0-.24-.27-.32-.44s-.18-.19-.2-.29S30.45,69.58,30.72,69.5Zm2,1.27c-.12,0-.25,0-.59,0,.1,0,0,0-.15,0s-.12-.14-.1-.17c.18-.27.35-.6.72-.58a.5.5,0,0,1,.46.5C33.09,70.73,32.91,70.75,32.74,70.77Zm.3,1.39,0,.08-.1-.08.07-.07Zm-.34,4.48a.18.18,0,0,1-.06-.08s0,0,0-.07h.08C32.81,76.55,32.79,76.6,32.7,76.64ZM32,75.7c-.45-.16-.35-.55-.39-.88s.21-.2.34-.2.38,0,.24.25a1,1,0,0,0-.09.73c.29,0,.14-.46.42-.51h0l.25-.42.09-.1-.09.1c-.09,0-.21-.13-.13-.22s.17,0,.22.12c.23.1.22.33.27.52.42.33.15.61-.14.74S32.3,76.09,32,75.7Zm2.18,3.88a1.31,1.31,0,0,1-.28.24s0,.08,0,.12,0,.29-.18.27-.13-.2-.08-.32.12-.11.18-.16c0-.28-.26-.17-.42-.17s-.13.21-.22.13,0-.17.12-.22c.05-.44.19-.54.66-.35S34.47,79.22,34.2,79.58Zm-.78-8.66.08-.1.07.07-.08.07Zm1.38,8.27-.1-.08.07-.07.07.07Zm1,.78c-.15-.16-.49-.07-.53-.38a.46.46,0,0,1,.21-.09c.21,0,.43,0,.45.3Zm1.84-.27-.1-.08.07-.07.07.08Zm-.12-.58a.18.18,0,0,1,.08-.06s0,0,.07,0,0,.06,0,.07S37.55,79.21,37.51,79.12ZM37.37,78a1.77,1.77,0,0,1,.31.15,2.92,2.92,0,0,1-.31.14,2.2,2.2,0,0,1-.36,0c.31.31-.12.62,0,.93.1,0,.22.13.13.21s-.17,0-.22-.12-.49.38-.48-.15a1.59,1.59,0,0,1,.47-1,.14.14,0,0,0,0-.15c-.1-.07-.2-.19-.3-.2a2.8,2.8,0,0,1-.63-.06l0-.05,0,.05-.25.25a.13.13,0,0,0,0,.16,1.12,1.12,0,0,1,.2.3c0,.16,0,.42-.12.44s-.15-.23-.16-.39l0-.25L35.36,78l-.08,0H35.2l-.25.26c0,.12-.05.25-.1.36a.23.23,0,0,1-.33.07c-.19-.1,0-.21,0-.29a1.63,1.63,0,0,1,.29-.23l.25-.26c.12-.21.24-.22.36,0a.18.18,0,0,0,.16,0l.26-.26h0a4.41,4.41,0,0,1,1.2-.67c.21-.13.53-.16.63.16s0,.59-.43.58c-.12,0-.26,0-.28.18S37.25,77.92,37.37,78Zm-1.23-1.58c0-.09.13-.21.21-.12s0,.17-.12.22-.13.22-.22.13S36,76.42,36.14,76.37Zm.73.13c.06,0,0,.1,0,.14a.18.18,0,0,1-.06-.08s0,0,0-.07ZM36.8,76,37,75.9c.39,0,.51.18.45.52a.59.59,0,0,1-.12.2Zm1.09,2.69-.1-.08.07-.07.07.08Zm1.57,3.66s-.12-.11-.11-.14a.45.45,0,0,1,.33-.31,1.17,1.17,0,0,1,.1.2C39.78,82.29,39.63,82.34,39.46,82.33Zm1.73-2.61c-.3.1-.58.14-.66-.29a.53.53,0,0,0,0-.12c-.17,0-.42-.16-.29.26s-.13.56-.42.46A1.76,1.76,0,0,1,39,79.3c-.09,0-.22-.13-.13-.22s.17,0,.22.13a1.29,1.29,0,0,1,1.55,0l.12,0c.22.06.55-.09.57.31C41.31,79.59,41.25,79.71,41.19,79.72Zm6.63-6.29c-.33.29-.44.26-.58-.18a1.55,1.55,0,0,1,0-.37c-.4.06-.94-.19-.92-.44s.22-.18.29-.12c.23.19.57.17.72.45a.17.17,0,0,0,.17,0c0-.42,0-.79.63-.52.08,0,.27-.15.4-.24s.13-.21.22-.13,0,.17-.12.22a.88.88,0,0,0,0,.37c.16.25,0,.47-.18.33a.6.6,0,0,0-.88.08C47.46,73.15,48.29,73,47.82,73.43Zm-1.48-1.55c0-.08.2-.09.31-.1a.25.25,0,0,1,.28.16.42.42,0,0,1-.43.11C46.41,72,46.24,72,46.34,71.88Zm2.27,4c-.16,0-.33,0-.31-.24a.43.43,0,0,1,.08-.2.46.46,0,0,1,.35.3S48.65,75.89,48.61,75.89Zm.62,2.5c0,.06-.1,0-.14,0a.19.19,0,0,1,.08-.07s0,0,.07,0S49.25,78.38,49.23,78.39Zm.39-4.24c.2.32.17.52-.26.52-.12.22-.23.21-.35,0h-.17c-.11.21-.23.22-.35,0s-.53-.32-.44-.68a.58.58,0,0,1,.35-.32c.1,0,.15.15.15.27s0,.42,0,.63a.12.12,0,0,0,.15,0c.13-.21.25-.2.36,0a.13.13,0,0,0,.16,0v-.41c-.09,0-.21-.12-.12-.21s.16,0,.21.12h.17c0-.09.13-.21.22-.13S49.7,74.1,49.62,74.15Zm-.49-1a.42.42,0,0,1,.33-.3s.07.12.1.19-.15.26-.32.25S49.12,73.21,49.13,73.18Zm1.11,5.27c-.1.09-.15.29-.35.18,0,0-.06-.14,0-.21s.19-.21.36-.16S50.33,78.37,50.24,78.45Zm.53-3.4a.77.77,0,0,1-.29.51c-.14.06-.13-.23-.23-.35a.23.23,0,0,0-.12,0c-.05.09-.13.21-.22.12s0-.17.12-.22a.38.38,0,0,1,.4-.22C50.57,74.88,50.81,74.81,50.77,75.05Zm-.36-.52.08-.11.07.08-.08.07Zm.4-.63-.13,0c-.11,0-.29,0-.26-.18s.2-.13.31-.07.12.11.17.17.22.13.13.22S50.86,74,50.81,73.9Zm.29,4.86c.22,0,.25.13.26.3s-.11.13-.15.12a.44.44,0,0,1-.3-.33A.3.3,0,0,1,51.1,78.76Zm0-11.48a.18.18,0,0,1,.08-.06s.05,0,.07,0,0,.06,0,.08S51.19,67.37,51.15,67.28Zm-.22,12.61c0-.15.24-.14.41-.13a.28.28,0,0,1,.27.32c0,.13-.13.21-.27.19A.43.43,0,0,1,50.93,79.89Zm.5-6.19.07-.07.07.08,0,.07Zm.93,7.38a2.88,2.88,0,0,1-.51,0c-.25,0-.68.19-.7-.28s.41-.18.57-.32a3.5,3.5,0,0,0,.37-.49v-.42c-.14,0-.32,0-.4-.18l.41-.18a.22.22,0,0,0,0-.16c-.09,0-.21-.12-.12-.21s.16,0,.22.12c.24,0,.13-.31.28-.36s.26.51.61.22c0,0,.12.23.05.32s-.18.43-.46.27a.68.68,0,0,0-.48-.1.22.22,0,0,0,0,.16c.23.1.21.33.27.52h.15c.1-.23.32-.22.51-.26s.13-.21.22-.13,0,.17-.12.22c-.1.23-.32.22-.51.27.11.33.75.21.63.63S52.73,81.07,52.36,81.08ZM52.07,73c-.27,0-.18-.21-.2-.35s0-.28.17-.26a.39.39,0,0,1,.31.37C52.26,72.83,52.17,73,52.07,73Zm.27,2,0,.07L52.2,75l.07-.07Zm-.29-1s.06.12.09.19l-.13.17c0-.06-.1-.11-.11-.17S51.9,73.91,52.05,74Zm-.11-.51.08-.07.07.08,0,.07Zm.54.49a.5.5,0,0,1,.46-.33c.06,0,.13.08.19.12s-.39.43-.56.37S52.46,74,52.48,73.93Zm.75-1.49s0,0,0-.07h.08c.06.05,0,.1-.05.14A.18.18,0,0,1,53.23,72.44Zm.6,9.31c0,.1-.22.1-.33,0s-.34-.2-.25-.37c.21-.36.62-.58.76-1,0,0,.08,0,.09,0s.07.15.14.27C54.11,81,54,81.38,53.83,81.75Zm-.26-8.21-.07,0,.08-.11.07.08Zm.08,5.59-.08.07-.07,0,.08-.11Zm-.06-9.73-.1-.07.07-.08.07.08Zm.41-.07.08-.08.06.08,0,.07Zm.64-16.42c0,.06-.1.05-.14,0a.19.19,0,0,1,.08-.07l.07,0S54.65,52.9,54.64,52.91Zm-.43-24.09c0-.07.06-.2.08-.2a.36.36,0,0,1,.34.27s-.05.16-.09.16S54.22,29,54.21,28.82Zm.69,24.86c0,.06-.1,0-.14,0s0,0,.07-.06.05,0,.07,0S54.91,53.67,54.9,53.68Zm.4,20.71c-.24,0-.41-.18-.26-.43s.28-.11.44,0l.22.11c.15-.17.24-.53.55-.35s.46.43.06.7a1.9,1.9,0,0,0,0,.25c0,.44-.16.48-.49.27-.12.22-.23.21-.35,0s-.22-.24,0-.35C55.45,74.47,55.4,74.42,55.3,74.39Zm1.18,1.88c0,.08-.16.12-.16,0,0-.44-.73-.08-.63-.6l-.12,0c-.11,0-.29,0-.26-.17s.19-.13.31-.08.11.11.17.17a.5.5,0,0,0,.12,0c.26-.12.69-.41.75-.35C57,75.59,56.36,75.87,56.48,76.27ZM55.6,53.74s-.15,0-.23,0-.09-.08-.09-.08c.29-.37.13-.82.22-1.23a.25.25,0,0,1,.28-.2c.56-.1.73.53,1.19.61-.06.11-.14.3-.19.29A1.09,1.09,0,0,0,55.6,53.74Zm1.19,20.79c.08-.17.17-.36.41-.34,0,0,.06.14.08.21a.59.59,0,0,1-.38.43C56.86,74.73,56.76,74.6,56.79,74.53ZM57,76.08c-.05.06-.1,0-.14,0s0,0,.07-.06,0,0,.07,0S57,76.06,57,76.08Zm.47,2.1-.33-.32s.08-.13.12-.13.32,0,.32.25ZM57.33,75a.18.18,0,0,1,.08-.06s0,0,.07,0a.19.19,0,0,1,0,.08C57.42,75.11,57.37,75.09,57.33,75ZM58,57.57l-.11-.08.08-.07.07.07Zm1-2s-.07-.05-.08-.09-.08-.21,0-.3.15.07.14.09A1.82,1.82,0,0,1,59,55.53Zm.21-4.76c.1-.09.17,0,.22.12s.22.14.13.23-.17,0-.22-.13S59.09,50.86,59.17,50.77Zm.27,5.48s-.09-.13-.08-.19.08-.12.12-.18a.58.58,0,0,1,.11.18C59.62,56.17,59.58,56.29,59.44,56.25Zm.19-.68c-.13,0-.21,0-.18-.17s.12,0,.19-.07l.17.12A.71.71,0,0,1,59.63,55.57Zm.1-5.18a.19.19,0,0,1-.07-.08s0-.05,0-.07.06,0,.07,0S59.82,50.35,59.73,50.39Zm0,1.54a.19.19,0,0,1-.07-.08s0,0,0-.07h.07C59.83,51.84,59.82,51.89,59.73,51.93Zm-.38-2.47a6.57,6.57,0,0,1,0-.77c0-.12,0-.24.17-.22s.1.13.1.2c0,.39.16.57.55.3.22-.15.42-.1.48.16s.47.21.56.47a4.43,4.43,0,0,1,.51.06s.09.1.14.15c-.18.1-.36.27-.55.28s-.15-.25-.21-.38a.52.52,0,0,1-.67,0c0,.1-.12.22-.21.13s0-.17.12-.22c-.06-.27-.23-.2-.37-.09C59.63,49.78,59.4,49.76,59.35,49.46Zm3.17-.24c-.33.33-.54-.06-.75-.16s-.11-.35.1-.48.24-.22.35,0l.29.23C62.68,48.94,62.66,49.07,62.52,49.22Zm0-3.34c0-.07.21-.09.32-.09a.82.82,0,0,1,.3.12.43.43,0,0,1-.45.15C62.62,46,62.46,46,62.55,45.88ZM60,53l-.07,0L60,52.8l.07.08Zm.81,9.23c-.09.09-.18,0-.22-.12s-.22-.13-.13-.22.17,0,.22.12S60.9,62.09,60.81,62.18Zm-.38-4.69.08-.07.07.07,0,.08Zm.26,3.34.08-.07.07.08,0,.07Zm.51-7.7s0-.07.08-.08.22-.08.3.05-.07.15-.09.14A1.45,1.45,0,0,1,61.2,53.13Zm.32,4.31s0,0,.07,0,0,.06,0,.08-.1,0-.14,0S61.49,57.45,61.52,57.44Zm0,3.5a.18.18,0,0,1-.06-.08s0,0,0-.07h.07C61.63,60.85,61.62,60.9,61.53,60.94Zm0,.74-.11-.08.08-.07.07.08Zm.52.78L62,62.38l.07-.07.07.07Zm0-9.27L62,53.11l.07-.07.07.08Zm.08-.6c-.11.16-.21,0-.31,0-.32,0-.6.22-1,.14s-.27-.27-.32-.47A1.06,1.06,0,0,1,60,51.16a.37.37,0,0,1,.2-.14s.14.07.16.12c.13.25-.17.6.21.78a1.3,1.3,0,0,1,.11-.35A.21.21,0,0,1,61,51.5c.19.1,0,.21,0,.28a1.68,1.68,0,0,1-.29.24.18.18,0,0,0,0,.16l.44.08,0-.06c0-.3.28-.39.43-.58s.17-.12.21-.09a.21.21,0,0,1,.06.32C61.51,52.29,62.4,52.22,62.17,52.59Zm.13,6.29a.18.18,0,0,1-.06-.08s0,0,0-.07h.08C62.41,58.79,62.39,58.84,62.3,58.88Zm.32-3.14c0,.06-.1,0-.14,0s0-.05.07-.07.05,0,.07,0S62.63,55.73,62.62,55.74Zm0-2.81-.11-.08.08-.07.07.08Zm-.14-.75a.2.2,0,0,1,.25-.19c.14,0,.22.07.22.2a.21.21,0,0,1-.19.27C62.54,52.49,62.43,52.39,62.46,52.18Zm.44,2.23,0,.07-.11-.08.08-.07Zm0,7.27-.11-.08.08-.07.07.08Zm-.11-2.39.08-.07.07.08,0,.07Zm.41-.58c-.09-.05-.21-.13-.13-.22s.17,0,.22.13a.49.49,0,0,0,.17,0c0-.1.13-.22.22-.13s0,.17-.13.22C63.4,58.93,63.28,58.93,63.16,58.71Zm.19.67-.07,0,.08-.1.07.07Zm.28,1.51c-.14,0-.18-.08-.15-.2s.08-.12.12-.18l.12.19C63.69,60.77,63.67,60.88,63.63,60.89Zm-.21-5.52c-.27,0-.13.43-.37.36s-.16-.28-.25-.42.07-.29.16-.41a.72.72,0,0,1,.2-.14l.26-.42c-.09-.05-.22-.13-.13-.22s.17,0,.22.12a1,1,0,0,1,.52,1l.12,0c.12,0,.29,0,.27.17s-.2.13-.31.08-.12-.11-.17-.17h-.17C63.65,55.58,63.54,55.58,63.42,55.37Zm-.15-1.74.07-.08.07.08,0,.07Zm.26-1.49.08-.11.07.08-.07.06Zm.87,4.65-.1-.08.07-.07.07.08Zm0,.45,0,.07-.1-.08.07-.07Zm-.08-1.19A.18.18,0,0,1,64.3,56s0,0,0-.07h.08C64.47,56,64.45,56,64.36,56.05Zm-.44.93,0,.07L63.78,57l.08-.07Zm0,2.5c-.09,0-.21-.13-.12-.21s.16,0,.22.12.21.13.12.22S64,59.58,63.93,59.48Zm.19,1.45-.07,0,.08-.11.07.08Zm.24-2.83c0-.06-.1-.11-.11-.18s0-.22.16-.19,0,.13.08.19Zm.26,3.09s-.07,0-.08-.09-.09-.21.06-.29.14.07.14.09S64.66,61.09,64.62,61.19Zm-.08-2.66s0-.05.07-.06,0,0,.07,0,0,.06,0,.07S64.58,58.62,64.54,58.53ZM64.87,55a.18.18,0,0,1-.06-.08l0-.07h.07C65,54.93,65,55,64.87,55Zm.22,7.42c-.09-.09,0-.17.13-.22s.13-.21.22-.13,0,.17-.12.22S65.18,62.53,65.09,62.44Zm.6-1.74c.12,0,.29,0,.27.17s-.2.13-.31.08-.12-.12-.17-.18-.22-.13-.13-.22.17,0,.22.12ZM65.58,56s0,0,0-.07h.07c.06,0,0,.1,0,.14A.19.19,0,0,1,65.58,56Zm.47,1.13h-.12a2.57,2.57,0,0,1,0-.73c0-.13.23-.22.35-.33s.13-.21.22-.12,0,.16-.12.22,0,.24,0,.37S66.41,57,66.05,57.1Zm.11,4.35s0,0-.06-.07,0-.05,0-.07.06,0,.08,0S66.25,61.41,66.16,61.45Zm-.24-4,.06.07,0,.08-.11-.08ZM66,63.16l0,.07-.11-.08.08-.07Zm-.59-1.71s0,0-.06-.07,0-.05,0-.07.06,0,.07,0S65.48,61.41,65.39,61.45Zm-.06-3.93s0-.05,0-.07.06,0,.07,0,0,.1,0,.14S65.34,57.55,65.33,57.52Zm.18-.81s-.07.09-.09.08c-.21-.06-.15-.25-.2-.39s-.21-.13-.13-.22.17,0,.22.12A.33.33,0,0,1,65.51,56.71Zm.18,9.09-.11-.08.08-.07.07.08Zm.51,0-.1-.08.07-.07.07.08Zm.25-.86c-.34.12-.79,0-1,.38-.06-.08-.15-.14-.15-.18a1.07,1.07,0,0,1,.71-.8.54.54,0,0,1,.67.21.47.47,0,0,1,.13.32C66.74,65.16,66.55,64.91,66.45,64.94Zm-.4-25.36a2.71,2.71,0,0,1,.43.69c-.5.35.42.85-.1,1.13s-.22.51.05.71c.09.07.24,0,.37.08s.29.12,0,.28-.38.5,0,.75.33.41,0,.51a2.18,2.18,0,0,0-1,.47c.09,0,.21.13.13.22s-.17,0-.22-.12c-.68.13-1.18-.42-1.82-.49a.29.29,0,0,1-.09-.51c.36-.25.62-.62,1.1-.73s.38-.42.11-.7a1.45,1.45,0,0,0-.6-.46c-.13,0-.25-.17-.18-.28.57-.86-.36-.66-.64-.9s-1.06-.24-1.54-.52c-.11-.07-.23,0-.35,0s-.34.71-.57.1c-.07-.21-.32-.45-.16-.69a2,2,0,0,1,.56-.52.34.34,0,0,1,.32.12c.3.6.81.41,1.21.27s.7-.28,1-.13C64.69,39.23,65.51,38.93,66.05,39.58Zm-4.59-1.4.08-.07.07.08,0,.07Zm3.89-1.29s.13,0,.19,0c.31.18.11.4,0,.6.09.05.22.13.13.22s-.17,0-.22-.12l.09-.1-.09.1a.66.66,0,0,1-.17-.16A.5.5,0,0,1,65.35,36.89Zm-.25-.81h.08c.06,0,0,.1-.05.14a.18.18,0,0,1-.06-.08S65.09,36.11,65.1,36.08Zm-2-8.5.07.08-.08.06-.07,0Zm-1.56,6.69c-.13-.22-.2-.39,0-.5s.22.09.29.18.41.22.27.49-.36.35-.42.62-.19.13-.28,0a.44.44,0,0,1-.15-.3C61.24,34.58,61.69,34.53,61.54,34.27Zm-.1-1.35a2.78,2.78,0,0,1-1-.78c0-.29.43-.41.4-.61-.15-.94.74-.94,1.17-1.33a.57.57,0,0,1,.88.16c.18.26.26.59-.1.75s-.24.38-.29.62A2,2,0,0,1,61.44,32.92Zm-.28-3.37a.71.71,0,0,1,.12-.18l.12.19c0,.06,0,.18-.08.19S61.13,29.66,61.16,29.55Zm1.29-3.12c0-.05.11-.13.14-.12a.45.45,0,0,1,.31.34,1.44,1.44,0,0,1-.2.09C62.49,26.74,62.44,26.6,62.45,26.43Zm-.1,1.92c.14,0,.32.2.26.36s-.28.11-.5.12c-.4.06-.61-.29-.86-.56a.26.26,0,0,1,0-.43.45.45,0,0,1,.47,0C62,27.91,62,28.3,62.35,28.35Zm-2-3.9c.05.15.13.15.26.07a.92.92,0,0,1,.85-.05c.19.07.54.22.24.54a1.05,1.05,0,0,0-.35.78s-.11.06-.16.1a1.38,1.38,0,0,1-.1-.22c0-.12-.07-.24-.1-.36,0,.11-.1.2-.13.31s0,.34-.28.34a.27.27,0,0,1-.26-.35c.1-.42-.28-.7-.27-1.08C60.11,24.35,60.14,24.34,60.4,24.45Zm-.31,10.12c.1.08.37.27.15.35-.47.18-.35.54-.36.85,0,.15-.42.34,0,.44.19,0,.46-.17.39-.36-.2-.53.24-.4.37-.34.45.21.81.59,1.38.54.15,0,.18.25.2.42s.06.35.17.17c.35-.54,1-.24,1.38-.54a.46.46,0,0,1,.59,0c.22.24-.14.31-.22.47s-.18.38.12.49a4.23,4.23,0,0,1,.57.27c.24.13.07.28,0,.4s0,.35-.29.29c-.86-.17-1.73-.29-2.6-.42-.28,0-.39-.31-.61-.43s-.54.42-.5.69.11.32,0,.47a.63.63,0,0,1-.66.29c-.29,0-.28-.26-.3-.47a4.3,4.3,0,0,0,0-.51c0-.1,0-.3-.2-.17s-.24.41-.5.28-.32-.69-.76-.81c-.06,0,0-.21,0-.34.36-.6.69-1.22,1.06-1.82C59.59,34.53,59.81,34.34,60.09,34.57ZM59.58,45.4a.66.66,0,0,1-.74.4c-.1,0-.31-.06-.16-.22s.26-.57.65-.44C59.43,45.17,59.5,45.31,59.58,45.4Zm-1.65-9.69a.94.94,0,0,1-.12-.18c0-.13,0-.22.16-.19s.06.13.08.2Zm0,2.06s-.06,0-.07-.07a.13.13,0,0,1,0-.07s.05,0,.07,0S58,37.74,57.93,37.77Zm-.1,6.66c.05-.19.24-.2.41-.19s.32.07.33.26-.28.28-.49.27A.25.25,0,0,1,57.83,44.43Zm1.75-14.54c-.4.33.06.71-.11,1s-.19.59-.51.69c-.16,0-.64-.61-.66-.86a1.57,1.57,0,0,1,0-.23c.22-.32,0-.79.43-1.05.27-.15.37.06.55.1S59.68,29.81,59.58,29.89Zm-3-5.8c.05-.21.59-.36.84-.26a1.65,1.65,0,0,1,.64.4c.18.19.26.1.28-.13,0-.38.16-.57.55-.32a.79.79,0,0,0,.35.11c.43,0,.37.21.19.46.2.43.16.69-.41.62-.25,0-.39.12-.38.38s0,.68-.52.65-.7-.12-.8-.75c0-.32-.08-.59-.38-.74S56.48,24.37,56.54,24.09Zm.69,7.41,0,.07-.1-.08.07-.07Zm-.52,13.39a2,2,0,0,0,.72,1.16c.17.18.08.36,0,.57s.11.34.32.39c0-.21,0-.42,0-.63a.43.43,0,0,1,.66-.28c.17.12.13.38.39.46s.58.41.88,0c.06-.09.24-.21.29-.18.43.27.61.16.6-.34,0-.27,0-.51.38-.52s.6.4.61.68,0,.31.26.32c.05-.09.13-.21.22-.13s0,.17-.12.22,0,.09-.06.11c-.22.18-.57.31-.63.52s.13.55.25.81.09.33-.15.32-.38.13-.41-.25-.11-.41-.51-.18c-.17.09-.26.18-.36-.07a.66.66,0,0,0-1-.4c-.46.19-.76-.46-1.24-.34a1.52,1.52,0,0,1-2.15.84c-.16-.07-.45-.06-.46-.36s.27-.26.46-.3.5-.3.83-.27c.1,0,.15-.09.1-.12a.42.42,0,0,0-.24-.07c-.42,0-.37-.16-.16-.44s.13-.7-.12-1.16c-.13-.25.07-.3.17-.39S56.69,44.72,56.71,44.89Zm-.44-9.57c0,.3-.1.48-.45.45-.14,0-.34,0-.31-.27A.51.51,0,0,1,56,35C56.19,35,56.25,35.14,56.27,35.32ZM53.4,22c.08,0,.15-.11.22-.12.4,0,.65-.76.93-.44s.81.85,1.16,1.32a.42.42,0,0,1,0,.14c-.16.36-.33.74-.49,1.12-.21.53-.6.66-.87.21s-1.21-.73-1-1.6c0-.05-.08-.13-.14-.19A.29.29,0,0,1,53.4,22Zm-.46,45c.78-.38.83-.36,1.16.43.06.16.08.33.13.48.26.83.21.9-.72.93A3.89,3.89,0,0,1,52,68.05c-.31-.22,0-.83.39-.9A2.13,2.13,0,0,0,52.94,67ZM51,22.44H51c.06.05,0,.1,0,.14a.19.19,0,0,1-.07-.08S50.94,22.47,51,22.44Zm-1.09-7.26a.66.66,0,0,1,.17.12l-.18.12c-.07,0-.18-.05-.19-.09S49.74,15.15,49.86,15.18Zm-2,3.16c.09-.09.17,0,.22.12l.26.26.25.26H49c0-.09.13-.21.22-.13s0,.17-.12.22c-.2.31-.41.31-.61,0l-.26-.26L48,18.56C47.88,18.51,47.76,18.43,47.85,18.34Zm-.47.22c0,.07.11.13.11.2,0,.31-.25.25-.43.29l-.23-.11C46.9,18.66,47.22,18.72,47.38,18.56Zm-.84-6.21c.05,0,.09.09.13.14a.5.5,0,0,1-.34.31.41.41,0,0,1-.09-.2C46.22,12.39,46.37,12.34,46.54,12.35ZM45,14.08c.1-.27.26-.05.38,0a.69.69,0,0,0,.8-.24c.07-.08.18-.23.29-.08a.54.54,0,0,1,.06.36c0,.38-.4.52-.6.79a5.81,5.81,0,0,0-.65-.47C45.07,14.35,44.89,14.27,45,14.08Zm1.51,6.08s-.07.09-.09.08c-.2,0-.15-.25-.2-.39s-.21-.13-.12-.22.16,0,.22.12A.34.34,0,0,1,46.46,20.16Zm-1.62-6.95s.06.12.09.19l-.13.17c0-.06-.1-.11-.11-.17S44.7,13.17,44.84,13.21Zm-.54,4.05.06.08,0,.07-.11-.07Zm-.56,0c.1-.08.21.15.15.23-.23.33-.12.53.2.68.1,0,.23.05.27.19a2.56,2.56,0,0,1-.93.89c-.41.05-.5-.06-.35-.42.07-.16.15-.3.21-.46.16-.38.12-.66-.38-.67a.25.25,0,0,1-.26-.34c.05-.2.24-.18.4-.2S43.45,17.53,43.74,17.31Zm-2.52-6.46.07.08-.08.06-.07,0Zm-1.16,2.77c.35,0,.62-.11.34-.53-.12-.19,0-.21.15-.25s.44-.19.41-.41-.27-.3-.48-.37a.22.22,0,0,1-.15-.3.24.24,0,0,1,.39-.14c.52.34.84.19,1.13-.33.21-.36.31-.24.58.1s-.06.53.1.81-.26.35-.5.45-.15.28-.21.44l0,.05c1,.22,1,1.09,1.26,1.79a.58.58,0,0,1-.39.72c-.24.1-.52.12-.64-.2s-.29-.32-.36-.19c-.37.66-.6.32-.66-.12-.08-.63-.44-.75-1-.74a.29.29,0,0,1-.33-.3C39.77,13.88,39.78,13.66,40.06,13.62Zm-1.79-1.87a.2.2,0,0,1,.27-.16c.29.06.2.3.24.46s-.05.3-.23.19A.44.44,0,0,1,38.27,11.75Zm-.66.1s.16,0,.24,0,.12.12,0,.21a3.09,3.09,0,0,1-.23.44c-.08.12-.22.09-.33,0a.23.23,0,0,1-.07-.33A1.5,1.5,0,0,1,37.61,11.85Zm.11,2.06-.13.18a1.74,1.74,0,0,1-.11-.18c0-.11,0-.23.16-.19S37.7,13.85,37.72,13.91ZM36.28,11a2.33,2.33,0,0,1,.37,0l.26-.25a.33.33,0,0,1,.41-.2s.09.07.08.09c-.06.21-.25.15-.4.2l-.25.26a3.81,3.81,0,0,1-.33.36c-.21.16-.31-.06-.38-.17S36.15,11.06,36.28,11Zm.63,9.41a.52.52,0,0,1-.19.11c-.12,0-.21,0-.18-.16s.13,0,.19-.08Zm-1.46,5.19c.34-.18.24-.58.1-.88s0-.35.27-.29a4.47,4.47,0,0,0,.46.19c.17,0,.4,0,.37-.23-.09-.76.35-.85.93-.79a.53.53,0,0,0,.25,0c.42-.14.54-.89,1.13-.62.43.19.82,0,1.19,0a2.61,2.61,0,0,0,.93-.09,1.59,1.59,0,0,1,.89,0c1.05.4,2.25.44,3.17,1.13a6.59,6.59,0,0,0,1.54.87,3.48,3.48,0,0,1,2.07,2.27,6.41,6.41,0,0,0,.6,1.39,7.29,7.29,0,0,1,1,3.35,4.69,4.69,0,0,0,.84,2.2c.28.41.64.79.26,1.36-.15.22.11.47.17.7s.25.67-.2.86l0,0c-.05,1,.37,1.9.32,2.89a12.65,12.65,0,0,0,0,2.82c.18,1.1.11,2.21.29,3.28.09.53-.34,1,.06,1.55s-.07,1,.36,1.45c-.37,1.25.19,2.5,0,3.76,0,.35-.13.44-.44.28a.71.71,0,0,0-.06.23,8,8,0,0,1,0,3.74c-.11.61-.17,1.24-.26,1.87s-.09,1.09-.59,1.46c-.15.1-.27.28-.17.43.35.5.16.64-.36.72-.32.05-.49.26-.23.64s-.27.64,0,1.06,0,.74-.19,1.08c0,.06,0,.18,0,.25-.3.52.79,1.12-.06,1.56-.6.32-.38,1.12-1,1.43-.42.22-.15,1-.71,1.13s-.71.53-1.06.81a4.66,4.66,0,0,0-.77,1l-.26.26-.26.26c.14.33.14.33-.25.67a.33.33,0,0,1,.18.41s-.06.09-.08.08c-.2,0-.15-.25-.21-.39-.55.32-1.2.3-1.78.58-.32.15-.84-.13-1.27.14s-.6-.63-1.09-.33c-1.12-1.1-2.67-1.46-3.91-2.31a5.22,5.22,0,0,1-1.86-2.3,1,1,0,0,1,0-.86.73.73,0,0,0-.18-1.11,1.26,1.26,0,0,1-.42-1c0-.66-.52-1.18-.67-1.84s.1-1.2-.27-1.72c.69-.52,0-.94-.08-1.41-.32-1.37-1.08-2.66-.62-4.19a2.4,2.4,0,0,0-.23-1.56,4.73,4.73,0,0,1-.14-2.14c0-.33.19-.61-.17-.86a.38.38,0,0,1-.11-.34c.59-1-.5-2.14.2-3.17.15-.22-.28-.5-.22-.83s0-.48.26-.51c.65-.07.64-.33.21-.68a1.38,1.38,0,0,1-.47-1.25c0-.86,0-1.71,0-2.57a1.31,1.31,0,0,1,.35-1.17.8.8,0,0,0,.13-1c-.61-1.06.06-1.87.49-2.67.23-.43.4-.7.12-1.14a.93.93,0,0,1,0-.62c.11-.74.52-1.46.06-2.21,0,0,.11-.22.17-.33a2.24,2.24,0,0,0,.28-1.34,4.48,4.48,0,0,0,0-.64c-.13-.43.63-.49.35-1s0-.77-.1-1.14c-.11-.52.36-.74.54-1.11.34-.7.39-.8-.25-1.24-.34-.23-.22-.51-.31-.77-.09-.05-.21-.13-.12-.21s.16,0,.21.12l.26.05C35.23,25.23,35.15,25.8,35.45,25.64Zm-1.24-8.58c.09-.1.17,0,.22.12s.21.13.13.22-.18,0-.23-.13S34.12,17.15,34.21,17.06Zm.22-.91a.43.43,0,0,0,.16,0c0-.09.13-.21.22-.13s0,.17-.12.22a.15.15,0,0,0,0,.16c.09.06.2.15.11.23s-.17,0-.22-.13l.11-.1-.11.1-.26-.26c-.09,0-.21-.12-.12-.21S34.37,16.06,34.43,16.15ZM34,15c.09-.1.17,0,.22.12s.22.13.13.22-.18,0-.22-.12S33.86,15.09,34,15Zm0,10.77c-.11.22-.23.21-.35,0s-.21-.24,0-.35l0-.39a.49.49,0,0,0,0-.12c0-.12-.11-.15-.16-.07a3.74,3.74,0,0,0-.22.45c-.07.2-.13.57-.18.57a2,2,0,0,1-.81-.19c-.26-.13.12-.26.06-.41h-.41a2.15,2.15,0,0,1-.11.36.23.23,0,0,1-.32.06c-.18-.11,0-.21.05-.29a3.11,3.11,0,0,1,.28-.23c.1-.23.32-.21.51-.27h0l.11-.35c.4.21.74-.08,1.12-.12a.38.38,0,0,1,.23.06A1.74,1.74,0,0,1,33.91,25.77Zm-2.3-2s0-.05,0-.07.06,0,.08,0,0,.1,0,.14A.18.18,0,0,1,31.61,23.8ZM32,15.43c.18-.06.45-.07.52.15s-.19.36-.43.41c0,.09-.13.21-.21.12s0-.16.12-.22S31.67,15.56,32,15.43Zm-.09,9s-.05,0-.06-.07,0-.05,0-.07.06,0,.08,0S32,24.35,31.93,24.39Zm1.44-9a.38.38,0,0,1,.12-.17l.11.18c0,.07,0,.18-.08.19S33.34,15.51,33.37,15.39Zm-.54.18a.88.88,0,0,1,.12-.33.28.28,0,0,1,.16.27c0,.22,0,.43,0,.64h0c.17.08.19.25.25.4s.4.45.07.6c-.16.07-.38-.26-.39-.54l0-.37C32.76,16.09,32.82,15.82,32.83,15.57Zm-.3-1c0-.09.13-.21.22-.12s0,.17-.12.22,0,.08,0,.12,0,.29-.18.27-.13-.2-.07-.31S32.47,14.66,32.53,14.6Zm-.24-1.22c.12,0,.23,0,.19.15s-.13.09-.19.08-.12-.08-.17-.12S32.23,13.39,32.29,13.38Zm-.86,0a.82.82,0,0,1,.11.17c0,.12,0,.23-.16.19s-.08-.12-.07-.19S31.38,13.48,31.43,13.42Zm-.18,1c.16,0,.33,0,.5-.06l0-.12c0-.11,0-.28.17-.26s.13.2.08.31-.11.11-.17.17l-.11-.1.11.1c-.05.14,0,.4-.2.39s-.36-.18-.55-.27C31.16,14.5,31.19,14.41,31.25,14.4Zm-.13,7c.09-.09.17,0,.22.12s.22.14.13.22-.18,0-.23-.12S31,21.52,31.12,21.43Zm.13.9c0-.1.13-.22.21-.13s0,.17-.12.22-.13.22-.22.13S31.15,22.37,31.25,22.33Zm-1-8.68c.29,0,.23.29.24.48l-.13.21-.33-.62C30.14,13.69,30.22,13.63,30.29,13.65Zm.1,7.91a.19.19,0,0,1-.07-.08.27.27,0,0,1,0-.07h.07C30.49,21.47,30.48,21.52,30.39,21.56Zm-.51-.43.07.07,0,.08-.1-.08ZM30,24.38l.26-.25c.11-.22.23-.22.35,0,.15,0,.25-.26.4-.1a.41.41,0,0,1,0,.55c-.15.16-.25-.14-.4-.1-.12.22-.24.22-.35,0l-.09,0-.07,0c-.06.09-.15.21-.23.12S29.86,24.43,30,24.38Zm-.09,4.49s0,0,.07,0a.19.19,0,0,1,0,.08c-.05.06-.1,0-.14-.05A.18.18,0,0,1,29.87,28.87Zm-.24-8.26.06.08,0,.07-.11-.08Zm0,5.92.06.08,0,.07-.11-.08Zm.09,15.94c.26,0,.36.17.51.35-.11.2-.24.57-.36.57s-.4-.27-.39-.55S29.5,42.49,29.72,42.47Zm-.37-15.4s0,0,.07,0,0,.06,0,.07-.1,0-.14,0S29.32,27.08,29.35,27.07Zm0,1.18s-.06,0-.07-.07,0-.05,0-.07h.07C29.46,28.16,29.45,28.21,29.36,28.25Zm.21,37.49c-.11.15,0,.26.19.39A2,2,0,0,1,30.54,68c-.08.52-.33.8-.85.71a1.82,1.82,0,0,1-1.22-.5c-.32-.45-.46-.16-.67.05s-.06.33-.29.38a2,2,0,0,0-.16-.33c-.22-.35-.44-.44-.82-.12a.57.57,0,0,1-.9-.35c0-.21.05-.47,0-.63-.34-.58.08-.58.44-.65.11,0,.2-.19.34-.09a.23.23,0,0,0,.39-.11c.18-1,.58-.77,1.13-.28.13.1.42,0,.63,0a1.55,1.55,0,0,0,.36-.08,1.58,1.58,0,0,0-.22-.29c-.16-.15-.6-.14-.42-.5s.23-.76.66-.89c.07,0,.16,0,.24.06C29,64.93,30.06,65.07,29.57,65.74Zm-1.79-6.39a2,2,0,0,1-.47-.41c-.16-.2,0-.23.17-.32s.39-.3.61-.42c0,0,.18.14.27.21A2.16,2.16,0,0,1,27.78,59.35Zm.4,4.28a.71.71,0,0,1-1,0,.29.29,0,0,1,0-.24c.11-.16.29-.13.47-.14s.33,0,.45.12A.32.32,0,0,1,28.18,63.63Zm-.27-19c-.13.19-.25.48-.57.22,0,0-.07,0-.11,0s-.23.16-.29,0,0-.23.12-.32.15,0,.23-.09.32-.28.55-.14A.23.23,0,0,1,27.91,44.64Zm-.81.81c-.05.06-.1,0-.14-.05a.18.18,0,0,1,.08-.06s0,0,.07,0S27.11,45.43,27.1,45.45Zm1.5-22.27c.07,0,.11.12.17.18s.21.13.12.21-.16,0-.22-.12l-.12,0c-.11,0-.29,0-.27-.17S28.48,23.13,28.6,23.18Zm.3,1.16c0,.06-.1.05-.14,0s0-.05.08-.07,0,0,.07,0S28.91,24.33,28.9,24.34Zm0,3.86c0,.06-.1.05-.14,0a.18.18,0,0,1,.08-.06s0,0,.07,0S28.91,28.19,28.9,28.2ZM27.32,17.54l.07.08-.07.07-.08,0Zm0,.5c.11-.05.21-.07.3.05s-.07.15-.09.15-.2-.08-.3-.12ZM27,24.45c.09-.14.22-.31.41-.25s.34.52.72.36c0,.08.06.2,0,.23a.77.77,0,0,1-.23.15.85.85,0,0,1-.68-.2C27.16,24.67,26.88,24.71,27,24.45Zm1,1.49a.18.18,0,0,1-.06-.08s0-.05,0-.07.06,0,.08,0S28.16,25.9,28.07,25.94Zm-.13-.6c-.12.11-.23.22-.35.31s-.14-.08-.14-.12,0-.33.25-.31A1.31,1.31,0,0,1,27.94,25.34Zm-.79,15.29c.27,0,.54,0,.55.37,0,.63.16,1.15.93,1.27.24,0,.38.31.36.61s-.24.29-.4.42c-.47.39-1.07.1-1.59.34-.24.11-.38-.5-.54-.78s.1-.46.29-.62.3-.4,0-.51c-.15-.06-.35,0-.49-.11s-.41-.24-.34-.48c.1-.4.3,0,.47,0C26.71,41.06,26.68,40.45,27.15,40.63ZM26.7,19.41s.05-.05.08-.07,0,0,.07,0,0,.06,0,.07S26.74,19.5,26.7,19.41Zm-.2-1.32s.13-.09.19-.08.12.08.18.12a.58.58,0,0,1-.18.11C26.58,18.27,26.46,18.24,26.5,18.09Zm0,4.58.07.08,0,.07-.11-.08Zm-.4-3.35-.13.17a.67.67,0,0,1-.11-.18c0-.12,0-.21.16-.18S26.11,19.25,26.14,19.32ZM26,23.13c-.17,0-.32-.05-.3-.26a.5.5,0,0,1,.1-.19l.37.28C26,23,26,23.13,26,23.13Zm.1,1s-.13.08-.19.07-.12-.08-.18-.12a.58.58,0,0,1,.18-.11C26,23.91,26.08,23.94,26.05,24.09ZM25.59,18c.11-.22.23-.21.34,0,.1.05.22.13.13.22s-.17,0-.22-.12l-.08,0-.08,0-.26.66a.32.32,0,0,1,.19.41s-.06.09-.09.08c-.2-.05-.14-.25-.2-.39C24.83,18.35,25.34,18.19,25.59,18ZM25,23s.12-.09.19-.08.11.08.17.12-.11.1-.17.11S24.92,23.13,25,23Zm0,2.78.07.08,0,.07-.1-.08Zm-.67-3.54a.39.39,0,0,1,.23.27c0,.19-.68.62-.87.61,0-.08-.11-.16-.09-.22C23.67,22.54,24.08,22.15,24.32,22.22Zm-1,5.7c0-.11.12-.12.15,0a1.68,1.68,0,0,1,.06.45s-.1.07-.16.11A.47.47,0,0,1,23.36,27.92Zm1,2.83c.08-.11.3-.07.27.05-.16.65.43.81.71,1.17a3.72,3.72,0,0,1,.38.64c.16.07.27-.3.42-.06a.42.42,0,0,1-.08.58.24.24,0,0,1-.38-.16,2.33,2.33,0,0,1-.07-.25l.11-.11-.11.11c-.15-.06-.35.32-.39.07-.14-.77-.41-.95-1.2-.66-.44.16-.79-.36-.93-.83a1.58,1.58,0,0,1,0-.38l-.13,0c-.11,0-.28,0-.26-.18s.2-.13.31-.08.12.12.17.18C23.5,30.68,23.94,31.31,24.32,30.75Zm0,5.48c-.25-.37-.13-.62.28-.73a.57.57,0,0,1,.72.35c.06.16-.17.38-.26.34a.57.57,0,0,0-.65.13c-.05.09-.13.21-.22.13S24.21,36.28,24.3,36.23Zm-.6-2.31c0-.06-.11-.11-.12-.17s-.07-.46.18-.55.57-.42.95-.25c.11.06.13.15,0,.18C24.3,33.25,24.1,33.68,23.7,33.92Zm-.44,1.7,0,.07-.11-.08.08-.07ZM22.46,28a.64.64,0,0,1,.3-.19c.11,0,.23,0,.22.21a2.54,2.54,0,0,1-.34.28.25.25,0,0,1-.22,0C22.25,28.14,22.4,28,22.46,28Zm-2,8.67c0-.16,0-.34.26-.36s.22.19.29.34c.19.45.49.56.68.23s.66-.37.62-.88c0-.26.35-.27.56,0a.64.64,0,0,1,.15.71c-.1.22-.31.41-.06.67a.86.86,0,0,0,.71.22H24c.55-.27,1.2.05,1.85,0a.66.66,0,0,1,.67.28c.1.18.36.51-.21.37-.26-.06-.37.19-.41.37s0,.5-.47.43c-.25,0-.31.33-.18.7.24.69-.11,1-.82,1-.18,0-.39-.06-.36-.26.06-.53-.4-.84-.5-1.26s-.34-.83-.92-.79a.75.75,0,0,1-.55-.27c-.32-.29-.65-.5-.88.09,0,0-.08.1-.09.09-.64-.41-1.1.08-1.62.31a.52.52,0,0,1-.47,0c-.18-.14.09-.26.09-.42a.51.51,0,0,1,.49-.59A1,1,0,0,0,20.47,36.65ZM18.28,34c0-.24.38-.28.6-.4l.25-.11c.1.12.25.23.3.37.13.4-.07.85.22,1.22a.43.43,0,0,1,0,.58c-.32.26-.39-.06-.52-.27,0-.05-.13-.08-.21-.1-.3-.09-.84.15-.89-.18S18.29,34.42,18.28,34ZM18,37.88c.18,0,.28.14.37.29a.39.39,0,0,1-.3.35.34.34,0,0,1-.35-.28A.34.34,0,0,1,18,37.88Zm-.65,13c.2,0,.45-.05.53.22a.44.44,0,0,1-.11.33c-.09.14-.22.28-.4.12s-.45-.07-.46-.36S17.16,51,17.35,50.92Z"/><path d="M28.94,9.71a.19.19,0,0,0,.24-.2c0-.14-.07-.25-.23-.2a.26.26,0,0,0-.17.13A.2.2,0,0,0,28.94,9.71Z"/><path d="M67.8,65.59c0-.11-.09-.16-.13-.1a1.8,1.8,0,0,0-.12.35l.06,0A.3.3,0,0,0,67.8,65.59Z"/><polygon points="25 13.18 24.95 13.26 25.03 13.27 25 13.18"/><polygon points="17.02 32.74 16.97 32.82 17.05 32.83 17.02 32.74"/><path d="M28.8,80l-.1,0c.1.21.2.2.3,0l-.1,0Z"/><polygon points="28.85 80.03 28.76 80 28.7 80.05 28.8 80.03 28.9 80.03 29 80.06 28.94 79.99 28.85 80.03"/><path d="M44.85,71.16c.09-.07.17-.16.26-.24-.07,0-.13-.11-.18-.11s-.23.08-.2.23S44.84,71.17,44.85,71.16Z"/><polygon points="46.17 70.65 46.16 70.66 46.17 70.66 46.17 70.65"/><path d="M46.17,70.65c0-.16.07-.22.25-.2,0-.18-.13-.19-.25-.15s-.19.23-.15.4l.14,0Z"/><path d="M46.16,70.66v0l0,0h0v0Z"/><path d="M46.13,70.72l0,0v0l-.14,0,.07,0Z"/><path d="M46.21,70.59l0,.06h0v0l.14-.15h0Z"/><path d="M46.17,70.65l0-.06.09-.06h0l.08-.08h0C46.24,70.43,46.16,70.49,46.17,70.65Z"/><path d="M46.17,70.66v0l0,0v0Z"/><path d="M51.34,37.07l0,0-.14-.16C51.12,37,51.29,37,51.34,37.07Z"/><path d="M45.68,71l0,0L45.9,71v-.14Z"/><path d="M45.91,70.82V71A.11.11,0,0,0,45.91,70.82Z"/><path d="M45.52,71.14c.14.13.15,0,.21-.09l0,0Z"/><path d="M24.05,38.11A1.8,1.8,0,0,1,24,37.9s-.08.06-.08.08a.32.32,0,0,0,0,.22C24,38.26,24,38.22,24.05,38.11Z"/><path d="M27.79,66.92a.83.83,0,0,0-.29.1c-.22.15-.4.34-.19.63s.32.21.52,0,.16,0,.23-.08.34-.19.29-.36S28.09,66.93,27.79,66.92Z"/><path d="M27.74,72.27c0,.15.06.23.2.24s.11-.06.17-.09l-.26-.32A.59.59,0,0,0,27.74,72.27Z"/><path d="M41.87,13.14l0-.05-.16.14C41.8,13.36,41.81,13.19,41.87,13.14Z"/><polygon points="25.29 45.91 25.2 45.89 25.24 45.98 25.29 45.91"/><path d="M52.17,80.44c0,.1,0,.24.13.22s.07-.14.07-.21a2.19,2.19,0,0,0,0-.36H52.2A2.19,2.19,0,0,0,52.17,80.44Z"/><path d="M52.2,80.08h.14A.11.11,0,0,0,52.2,80.08Z"/><path d="M32.75,25.34c0-.07,0-.16,0-.21s-.24-.16-.4-.13v.16Z"/><path d="M32.38,25.16V25A.15.15,0,0,0,32.38,25.16Z"/><path d="M33.8,25.66v-.11l-.12,0v.09Z"/><path d="M33.67,25.66h0l0,0Z"/><path d="M33.67,25.64l0,0h0l.07,0-.13,0Z"/><path d="M33.65,25.62h0v-.09S33.65,25.58,33.65,25.62Z"/><path d="M33.65,25.63l0,0v0Z"/><path d="M33.67,25.62h0Z"/><path d="M61.18,52.2l0,.06.14.15C61.4,52.27,61.23,52.27,61.18,52.2Z"/><polygon points="39.65 79.44 39.7 79.36 39.62 79.35 39.65 79.44"/><path d="M56.18,74.31c-.11-.08-.26-.07-.37-.15C55.85,74.43,56,74.32,56.18,74.31Z"/><path d="M55.81,74.16c.11.08.26.07.37.15C56.14,74,56,74.16,55.81,74.16Z"/><path d="M55.67,74.82v-.11l-.11,0v.1Z"/><path d="M55.54,74.82h0l0,0Z"/><path d="M55.54,74.8l0,0h0l.06,0-.13,0Z"/><path d="M55.55,74.68a.12.12,0,0,0,0,.1h0Z"/><path d="M55.53,74.79s0,0,0,0v0Z"/><path d="M55.54,74.8v0h0Z"/><path d="M32.64,75.19c.13.27.26.27.39,0A.37.37,0,0,1,32.64,75.19Z"/><path d="M33,75.2h-.39A.37.37,0,0,0,33,75.2Z"/><path d="M62.12,48.69H62C62,48.84,62.06,48.87,62.12,48.69Z"/><path d="M62,48.68h.14A.11.11,0,0,0,62,48.68Z"/><path d="M63.6,55.26a.06.06,0,0,0,0,0l0,0Z"/><path d="M63.59,55.22a.06.06,0,0,0,0,0,.56.56,0,0,0-.3-.32l.23.4h.05Z"/><path d="M63.63,55.12a.3.3,0,0,1,0,.1.06.06,0,0,1,0,0h.07c0-.22,0-.37-.15-.41A.34.34,0,0,1,63.63,55.12Z"/><path d="M63.28,54.86a.56.56,0,0,1,.3.32.06.06,0,0,1,0,0,.3.3,0,0,0,0-.1.34.34,0,0,0-.11-.27A.67.67,0,0,0,63.28,54.86Z"/><path d="M63.56,55.26h0l0,0h0l0,0Z"/><path d="M63.51,55.26h0Z"/><path d="M63.62,55.28l.05,0H63.6Z"/><path d="M30.41,24.23h-.05l0,.11.08,0Z"/><path d="M30.41,24.36l.05,0a.11.11,0,0,0,0-.14h-.06Z"/><path d="M30.33,24.34v0l.07,0h0v0Z"/><path d="M30.41,24.39h.05l-.05,0Z"/><path d="M30.36,24.23h0a.12.12,0,0,0,0,.1h0Z"/><path d="M30.33,24.34h0a.06.06,0,0,0,0,0Z"/><path d="M30.41,24.23h0Z"/><path d="M30.41,24.23h.06a.07.07,0,0,0-.06,0h0Z"/><path d="M30.37,24.22h0Z"/></svg>