<svg id="Layer_1" data-name="Layer 1" xmlns="http://www.w3.org/2000/svg" viewBox="0 0 83.46 90.48"><polygon points="37.52 86.38 37.44 86.41 37.51 86.46 37.52 86.38"/><polygon points="50.83 81.29 50.92 81.3 50.88 81.21 50.83 81.29"/><path d="M29,83.69a.79.79,0,0,0,.82.26,1.77,1.77,0,0,1,1.67.89c.14.2.27.47.58.2,1.27.58,2.71.54,4,1.08.12,0,.26.15.35.11,1.16-.46,2.37-.11,3.55-.21a2.16,2.16,0,0,1,.88,0,9.66,9.66,0,0,0,3.55.14,2.85,2.85,0,0,1,.92,0c.43.1,1,.26,1.34-.14s1-.5,1.58-.64a3.63,3.63,0,0,1,1.45.1c.78.1,1.25-.45,1.89-.62.31-.08.44-.57.48-1a.42.42,0,0,1,.19-.31c.74-.24,1.08-1,1.85-1.29a2.92,2.92,0,0,0,1.79-1.51c.33-.74.45-1.63,1.36-2,.09,0,.11-.23.2-.32.67-.7,1.07-1.66,1.9-2.21a1.21,1.21,0,0,0,.64-1,1.4,1.4,0,0,1,.59-1.07,2.71,2.71,0,0,0,.95-1.59,1.08,1.08,0,0,1,.58-1c.4-.22.62-.57.25-1-.09-.11,0-.33-.06-.5s-.21-.13-.13-.22.17,0,.22.12c.28,0,.68.19.69-.29s.14-.75.58-.84c.63-.14.43-.72.62-1.09-.41-.58.09-1.06.24-1.54a17,17,0,0,1,.93-2.21,7.33,7.33,0,0,0,.67-1.84,4.34,4.34,0,0,0,.09-2.32.64.64,0,0,1,.39-.85c.52-.2.58-.32.26-.87a1.54,1.54,0,0,1,.13-1.6,4.74,4.74,0,0,0,.73-3.24c-.47-.39.11-.85-.11-1.27s.15-.87.27-1.29c0-.2.19-.45.07-.6-.3-.34-.15-.61,0-.92a7.79,7.79,0,0,0,.64-1.77,1.39,1.39,0,0,0-.35-1.71c-.21-.17-.34-.36-.16-.66a2.94,2.94,0,0,0,0-2.62c-.11-.32.17-.78-.36-1s-.41-.48,0-.68c.17-.08.17-.2.07-.4-.43-.83-1-1.64-.61-2.66a.55.55,0,0,0,0-.38,6.53,6.53,0,0,1-.35-3.33c0-.41-.33-.62-.3-1a6.06,6.06,0,0,0-.43-2.51c-.07-.15-.19-.31-.17-.46a14.93,14.93,0,0,0-.26-2.13,1.44,1.44,0,0,0-.52-1.23,3.1,3.1,0,0,1-1-1.83c-.34-1.78-1.46-3.1-2.38-4.55-.59-.18-.6-.88-1-1.16s-.61-.89-1-1.1a2.73,2.73,0,0,1-1.08-1c-.53-.85-1.6-1.23-1.91-2.26a.61.61,0,0,0-.41-.29,10.65,10.65,0,0,1-2-1.17,19.85,19.85,0,0,1-2.32-1.54c-.19-.13-.32-.59-.44-.57-.74.11-1.18-.55-1.88-.63a14,14,0,0,1-3.55-.73,10,10,0,0,0-2.58-.48,6.52,6.52,0,0,1-2.89-.67.2.2,0,0,0-.31.07c-.28.38-.67.3-1.06.32s-.78-.12-1.13.09A2,2,0,0,1,37,9.34c-.54,0-1.11-.4-1.59.23-.09.13-.39,0-.6-.09-.39-.2-1-.32-1.16,0-.27.51-.83.22-1.07.59a3.44,3.44,0,0,0-2.06.87.72.72,0,0,1-.46.18,2.28,2.28,0,0,0-1.64.87c-.23.24-.45.7-.76.62-.55-.14-.79,0-.8.53a.26.26,0,0,1-.22.27c-.75.08-1.13.82-1.86,1-.54.14-.89.77-1.51.85-.29,0-.32.31-.36.48a2.57,2.57,0,0,1-1.18,1.69.66.66,0,0,0-.24.3,14.76,14.76,0,0,1-1.77,2.72,2,2,0,0,0-.34.66c-.1.4-.42.77-.46,1.16s-.66.64-.49,1c.31.62-.28.69-.45,1a.67.67,0,0,0-.1.23,7.37,7.37,0,0,1-1.3,2.81A5.43,5.43,0,0,0,16,28.81a5.69,5.69,0,0,1-.87,2.45c-.19.22,0,.4.13.55s.46.59.14.88a2.07,2.07,0,0,0-.62,1.55.88.88,0,0,1-.24.69,1.62,1.62,0,0,0-.43.48c-.1.23.42.07.3.38a5.74,5.74,0,0,0-.12,2.54c.09.88-.17,1.73,0,2.6a2.65,2.65,0,0,0,.09.49c.2.61.65,1.2-.05,1.81-.11.1,0,.41,0,.63a1.58,1.58,0,0,1-.12.74,3.87,3.87,0,0,0-.2,3.19.69.69,0,0,1,0,.61A.91.91,0,0,0,14,49.67c.17.15,0,.29,0,.43a5,5,0,0,1-.15,1.55.93.93,0,0,0,0,.8.87.87,0,0,1,0,.74c-.25.44-.13.72.09,1.15s.5.94.06,1.33-.31.91-.06,1.36a4.49,4.49,0,0,1,.74,2.26,10.64,10.64,0,0,0,.68,4.21c.14.4.52,1-.05,1.47a.28.28,0,0,0,0,.45c.57.36.62,1,.76,1.54a6.33,6.33,0,0,0,1.19,3,2.71,2.71,0,0,1,.44.78c.08.19.14.44.34.52.5.19.57.68.82,1.06a16.18,16.18,0,0,0,1.42,2.23c.37.41,1.06.62.84,1.4-.06.19.2.23.28.35.35.49,1.11.67,1.09,1.44,0,.1.23.25.38.3a2.82,2.82,0,0,1,1.69,1.84,2.18,2.18,0,0,0,.9,1.31c.43.25.38,1,1,1.17,0,0,0,.16,0,.24.08.58.48.64.95.61S28.63,83.13,29,83.69Zm6.85-3.59c-.11,0-.23,0-.19-.16s.13-.08.19-.07A.47.47,0,0,1,36,80,.58.58,0,0,1,35.85,80.1Zm4.62.92c0,.36-.25.4-.52.4a.56.56,0,0,0-.13,0c-1.11.26-1.11.26-1.74-.74-.22,0-.41,0-.43.26a1.14,1.14,0,0,1-.3.9c-.32.3-.35.32-.81-.14-.09,0-.21-.13-.12-.21s.16,0,.22.12a.64.64,0,0,0,.45-.67c0-.34,0-.68,0-1,0-.18,0-.31.29-.2s.77.34.8.86c.17,0,.38,0,.51.06.33.23.56.14.67-.2a.44.44,0,0,1,.59-.33C40.35,80.21,40.5,80.53,40.47,81Zm-1.22-2.36a.42.42,0,0,1,.45-.33c.14,0,.22.08.22.22,0,.31-.24.27-.39.28S39.21,78.79,39.25,78.66Zm1.19-.19c-.06-.22.11-.61-.25-.62s-.65-.49-1.06-.15c-.12.1-.36,0-.48.13-.45.33-.74.16-1-.24,0,0-.16,0-.25,0a3.1,3.1,0,0,1-.12.87,1.05,1.05,0,0,1-.53.53c-.21.09-.37-.18-.47-.34-.43-.7-1.08,0-1.61-.26-.21-.09-.53.45-.32.8s.16.54-.24.76-.82.54-.38,1.11c.06.08,0,.25-.15.3a.29.29,0,0,1-.24,0c-.33-.26-.69-.51-.64-1a2.83,2.83,0,0,0,0-.77.22.22,0,0,0-.39-.11,1.2,1.2,0,0,0-.31.4c-.09.21-.23.29-.27,0a.83.83,0,0,0-.67-.79,1,1,0,0,1-.48-1.55c.31-.42.46-1,1.1-1.16a.37.37,0,0,0,.19-.28.47.47,0,0,0-.26-.26,1,1,0,0,0-.5-.07c-.42.11-.72-.44-.88-.37-.65.31-.54-.38-.82-.52l-.09-.09c-.45-.46-.45-.45.13-.64a1.36,1.36,0,0,0,.4-.29.6.6,0,0,1,.91,0c.19.18.38.37.67.31.78-.18,1.36.39,2.05.53a.37.37,0,0,1,.28.58,2.57,2.57,0,0,0-.24,1c0,.31-.46.61-.12.92s.58.07.87.09a.58.58,0,0,1,.6.34c.16.31.54.22.81.11s.13-.37.13-.58-.18-.36-.42-.34a.73.73,0,0,1-.82-.46.25.25,0,0,1,.05-.23s.19-.11.21-.09c.49.54,1.14.47,1.77.51.28,0,.27.21.2.46-.12.47-.1.48.53.51,0-.62.7-.4.74-.36.56.5,1,.11,1.44-.15.26-.14.49-.34.79-.06a.2.2,0,0,0,.33,0c.11-.17,0-.31-.17-.37s-.13-.1-.19-.15.13-.11.21-.12c.59-.08.9,0,1,.51s.39.8.95.76c.21,0,.52,0,.57.16a1.21,1.21,0,0,1-.1.89c-.36.43-1,.29-1.48.73C41.24,79.45,40.54,78.83,40.44,78.47Zm-8.7-6.32c.1,0,.25.08.18.3,0,0-.05.15-.1.15-.21,0-.49.13-.61,0A1.7,1.7,0,0,0,30,72.08c-.14,0-.17-.25-.15-.43s.25-.3.47-.3a.72.72,0,0,1,.52.32A1.16,1.16,0,0,0,31.74,72.15ZM31,70.5a.69.69,0,0,1,.82-.43.7.7,0,0,1,.1.08.73.73,0,0,1-.06.21,1,1,0,0,1-.26.27c-.19.12-.25.49-.56.34C30.91,70.93,30.89,70.64,31,70.5Zm1.31-.56s0,0,.07-.06.05,0,.07,0,0,.06,0,.07S32.3,70,32.26,69.94Zm1.1,1.89c.14.17.24.44,0,.52s-.34-.23-.4-.47-.18-.29-.2-.45.17-.35.43-.34.34,0,.21.27S33.23,71.66,33.36,71.83Zm2.15,1.61c.18,0,.73.37.74.57s-.29.26-.44.32c-.41.14-.47-.21-.51-.49A.31.31,0,0,1,35.51,73.44Zm6.65,6.84c-.14,0-.18-.09-.15-.2s.08-.12.12-.18l.12.19C42.22,80.15,42.2,80.27,42.16,80.28ZM45.29,83a3.07,3.07,0,0,1-1.17,0,1,1,0,0,1-.93-.69c-.12-.26-.4-.44-.58-.67a.35.35,0,0,1,0-.34c0-.09.2-.12.28-.16s.25,0,.28,0c.28.38.41.9,1.12.6.47-.2-.7.91.33.52.42-.16.48.44.84.41,0,0,.07.11.1.16A.88.88,0,0,1,45.29,83ZM44.11,72s0,0,0-.07h.07c.06,0,.05.1,0,.14A.19.19,0,0,1,44.11,72Zm.76,1.27a.14.14,0,0,1,.08-.06s0,0,.07,0,0,0,0,.07S44.91,73.37,44.87,73.28Zm2.56,4.16-.58-.33A1.82,1.82,0,0,1,47.3,77c.17,0,.35,0,.34.26S47.63,77.56,47.43,77.44Zm2,0c-.16.3-.61,0-.75.37-.24-.11-.43-.18-.61-.28s-.08-.13-.1-.2.09-.24.21-.26a1.82,1.82,0,0,0,1-.24c.05,0,.28.06.3.13A.66.66,0,0,1,49.4,77.4Zm-.66-2.83c.06,0,.11-.1.18-.11s.22,0,.19.16-.13.08-.2.07S48.8,74.62,48.74,74.57Zm.29-1.5c-.37-.16-.93,0-1.08-.55-.09-.31-.34-.34-.53-.49s-.38-.39.1-.43c.26,0,.39-.14.37-.39,0-.45.15-.94-.29-1.31s-.26-.69-.12-1.05a.42.42,0,0,1,.28-.24c.14,0,.17.13.17.25a1,1,0,0,0,.25.82c.37.35.88.65.58,1.31.31.46.58,1,1.19,1.14a1,1,0,0,1,.24.13L50,72.4c-.14.09-.29.17-.42.27S49.27,73.18,49,73.07Zm.7-2a.94.94,0,0,1,.12-.18l.12.19c0,.07,0,.18-.09.19S49.7,71.19,49.73,71.07Zm1.82,11c-.34-.22-.39.2-.6.28-.52.2-1.24.1-1.39-.21s.33-.85.81-1.09a1,1,0,0,1,1.52.53C52.12,82,52.08,82.07,51.55,82.08Zm-1.78-5.21.08-.07.07.08,0,.07Zm.79,1.58s.09-.08.14-.13c.36,0,.3.34.45.5s0,.29-.13.39-.19.05-.19,0A7.35,7.35,0,0,1,50.56,78.45Zm2.68-2.29c-.1.1-.17,0-.22-.12l-.26-.25h-.42c-.58.9-1.52.47-2.3.64,0,0-.15-.09-.19-.16s-.41-.23-.3-.48a.57.57,0,0,1,.64-.32.42.42,0,0,1,.23.08c.56.7,1.2.37,1.83.14q.3-.47.6,0l.26.26C53.2,76,53.32,76.07,53.24,76.16Zm-1.45-3.89c0,.11.06.38-.24.28a2.48,2.48,0,0,0-.35-.13c-.19,0-.49,0-.43-.31s.3,0,.44,0C51.4,72.19,51.8,71.6,51.79,72.27Zm-.21-6,.07-.07.07.08,0,.07Zm-.37,5.05c-.52,0-.77-.28-.72-.78,0-.07.07-.14.11-.22a2.61,2.61,0,0,1,.63.37,1.51,1.51,0,0,1,.2.54A.46.46,0,0,1,51.21,71.37Zm.88-1.67a.13.13,0,0,1,0-.07h.07c.06.05,0,.1,0,.14S52.1,69.73,52.09,69.7Zm1.61,7.8a.18.18,0,0,1-.06-.08s0,0,0-.07.06,0,.08,0S53.79,77.46,53.7,77.5Zm1.57-3.08a.39.39,0,0,1-.27.23c-.18,0-.45-.4-.38-.55s.1-.13.18-.08C54.89,74.24,55.36,74,55.27,74.42Zm-.64-5.65c0-.07.06-.13.09-.2l.37.29c-.08.08-.12.16-.17.17S54.61,69,54.63,68.77Zm-.78-1.4a.48.48,0,0,1-.59.12c-.31-.16,0-.34,0-.51s0-.48-.27-.47-.53-.25-.83-.31c-.11,0-.13-.11-.07-.19l.25-.27a1.78,1.78,0,0,0,.73.2,1,1,0,0,0,.92-.32.9.9,0,0,1,.28-.27,2.36,2.36,0,0,1,1-.38c.61,0,.2.61.33.91a3.65,3.65,0,0,0,.14.35c.17.31.08.51-.26.5A1.74,1.74,0,0,0,53.85,67.37Zm.74-16.09a.88.88,0,0,1,.21.12,1.14,1.14,0,0,1-.16.15c-.16.12-.34.23-.5.36s-.3.08-.41-.07a.84.84,0,0,1-.13-.33c0-.14.1-.21.24-.23h.08A6.64,6.64,0,0,1,54.59,51.28Zm-.32,1.46c-.1.1-.17,0-.22-.12s-.22-.13-.13-.22.17,0,.22.12S54.35,52.65,54.27,52.74Zm-.57,1.09c-.19-.52.09-.81.6-.64.29.09.46.11.66-.1a1.13,1.13,0,0,1,1.34-.29c.42.15.57-.18.76-.49a.29.29,0,0,1,.56.07c.1.35.3.76-.2,1-.26.11-.19.48-.5.53a.21.21,0,0,0-.2.27.27.27,0,0,0,.28.19h.44a1.3,1.3,0,0,0,.44-.09c.45-.23.81-.32.88.36,0,.22.21.23.38.25a1.24,1.24,0,0,1,.9.82c.11.22.29.42,0,.64a.84.84,0,0,0-.26.56c-.19.87-.19.83-1,.62a2.37,2.37,0,0,1-.82-.31c-.64-.45-1.12-.12-1.59.27-.18.15-.18.32.07.49a.28.28,0,0,1-.09.5c-.39.06-.75-.32-1.17,0-.15.12-.23-.16-.31-.31-.23-.41-.52-.56-.88-.12-.2.24-.37.14-.5-.05s-.27-.57.09-.76c.2-.1.55,0,.53-.38s.12-.68-.17-1a2.74,2.74,0,0,1-.51-.57c-.17-.29-.47-.64.17-.83C53.79,54.4,53.8,54.14,53.7,53.83Zm1.73-8.52.63,0c.13,0,.23,0,.28.16a.87.87,0,0,1-.34.12c-.24,0-.51.07-.66-.22a2.11,2.11,0,0,1-.36-.09.23.23,0,0,1-.07-.33.24.24,0,0,1,.41,0,1,1,0,0,1,.11.35l-.09.1Zm.3,2.13c.41.42,1,.06,1.42.34.12.08.34.17.19.4-.05.06-.15.18-.18.17-.48-.27-1.08,0-1.55-.3a.36.36,0,0,1-.15-.29C55.48,47.65,55.62,47.57,55.73,47.44Zm-.33-.79a.34.34,0,0,1,.08-.19.45.45,0,0,1,.35.29s-.08.14-.12.14S55.38,46.87,55.4,46.65ZM58,49.13l.08-.1.07.07-.08.07Zm.51.24s0,0,0-.07h.08c.06.05,0,.1,0,.14S58.54,49.4,58.53,49.37ZM59.26,31c-.22,0-.48-.18-.44-.36s.29-.14.45,0,.21,0,.3-.09.24-.42.45-.08c.08.15.22.33.18.45s-.27.13-.44.13h-.5ZM53.94,64.14c.12,0,.25,0,.52,0a.66.66,0,0,1,.23,0c.15,0,.11.17,0,.27a.79.79,0,0,1-.79.24c-.16,0-.34,0-.33-.28S53.78,64.16,53.94,64.14Zm-.56-3.74a.33.33,0,0,1,.19-.09c.21,0,.25.14.26.31s-.11.12-.15.11A.42.42,0,0,1,53.38,60.4Zm1.55,2.12.08-.11.07.08-.07.06ZM56.2,75.75c-.11,0-.25,0-.2-.17s.19-.1.3-.15l.31.17C56.51,75.75,56.36,75.75,56.2,75.75Zm.72-2.81c-.13.38-.31,0-.47,0l-.25.26c-.05.09-.13.21-.22.13s0-.17.12-.22l.26-.26c0-.25,0-.5,0-.75,0-.06.09-.12.14-.18s.08,0,.09.09C56.72,72.33,57.05,72.57,56.92,72.94ZM60,72.32a4,4,0,0,0-.48.59c-.32.4-.61.39-.78-.1-.1-.32-.23-.47-.51-.38s-.47.18-.64-.2-.67-.64-.51-1.19c.06-.21-.14-.28-.25-.39s-.5-.47-.71-.74-.46-.62-.38-.74c.18-.3.51-.11.78,0s.41,0,.38-.29c-.07-.49.25-.66.6-.84s.72,0,1,.31a1.85,1.85,0,0,0,.51.37c.23.13.5.25.47.53-.06.47-.46.24-.72.28s-.39,0-.46.14.1.39.25.53.27.34.54.3c.78-.62.6.25.81.54s.08.43.17.6S60.24,72.11,60,72.32Zm-3.8-4.44a.18.18,0,0,1,.08-.06s0,0,.07,0,0,.06,0,.07S56.23,68,56.19,67.88Zm5.33.14c-.29,0-.49-.06-.49-.39a.35.35,0,0,1,.37-.4c.24,0,.39.09.42.26S61.81,68,61.52,68Zm.61-2.63c-.41.51-.32.52-1.07.37-.34-.07-.6-.32-1-.29a2.17,2.17,0,0,1-.53.21c-.28,0-.22-.14-.14-.3s0-.15-.11-.15-.19,0-.2.1a3.19,3.19,0,0,1-.35,1.2c-.16.24-.41.23-.61,0s-.06-.93-.39-1.3c0,0,0-.17.06-.22a1.69,1.69,0,0,1,1.67-.28c.24.16.55.29.68.1.41-.61,1.27-.22,1.67-.8.08-.12.27-.07.26.06C62,64.53,62.54,64.88,62.13,65.39Zm.2-3c-.08.31-.53.26-.58.62,0,.15-.2,0-.3,0s-.43-.27-.55-.21-.23.34-.31.54,0,.25-.06.37c-.07.27-.18.15-.35.07s-.28-.67-.79-.4c-.29.15-.65.12-.76.54,0,.1-.23.26-.27.24-.78-.41-.81.14-1,.66-.06.22-.31.4-.5.58a.33.33,0,0,1-.46,0c-.13-.11-.27-.21-.28-.4s.15-.24.32-.31c.63-.25.66-.29.52-1-.1-.51-.29-1,.41-1.24l0-.06c.1-.48-.12-1,.41-1.42.16-.12-.09-.38-.26-.5s-.5-.08-.75-.08c-.71,0-.77,0-.74.86,0,.37-.11.45-.44.33a5.18,5.18,0,0,1-1.17-.89c-.05-.1-.21-.2,0-.3a.29.29,0,0,1,.24,0c.14.09.26.22.39.32s.37.19.49-.11a1.34,1.34,0,0,1,.93-.89,1.52,1.52,0,0,0,.87-.9c.08-.2.32-.31.36-.23.32.72,1,.15,1.48.48.09.08.22.1.22.26s-.18.26-.35.27a1.19,1.19,0,0,1-.36-.09c-.08,0-.14-.11-.22-.12s-.26,0-.28.16a.31.31,0,0,0,.06.23,1.17,1.17,0,0,0,1.32.33c.08,0,.18,0,.24-.08.4-.32.68.2,1,.14a1.15,1.15,0,0,1-.31.76c-.3.48-.3.49.17.68.19.08.42,0,.52.27s.18.14.25,0a.27.27,0,0,1,.41-.15A.64.64,0,0,1,62.33,62.38Zm1-5.45s-.12-.1-.12-.14a.47.47,0,0,1,.34-.3s.06.12.1.19S63.46,56.94,63.29,56.93Zm.19-15.11s0,0,.07,0a.17.17,0,0,1,0,.07c0,.06-.1,0-.14,0A.18.18,0,0,1,63.48,41.82Zm-.84,2.1c.15-.21.3-.45.61-.31a.46.46,0,0,1,.19.16c.15.18.14.24,0,.29s-.38.19-.57.26a.3.3,0,0,1-.23-.07A.24.24,0,0,1,62.64,43.92Zm-.31-7.82a.49.49,0,0,1-.36.44c-.13,0-.17-.12-.14-.24a.53.53,0,0,1,.39-.4S62.29,36,62.33,36.1ZM62,40.62a.33.33,0,0,1-.35.3.38.38,0,0,1-.26-.25c0-.28.2-.16.32-.21S62,40.49,62,40.62Zm-.4-11.21a.43.43,0,0,1,.39.34c.06.22-.17.34-.35.41s-.56-.21-.56-.37S61.4,29.42,61.6,29.41Zm-.33,6.17c.08,0,.2.07.2.1,0,.22-.21.16-.39.18l-.24-.16A.42.42,0,0,1,61.27,35.58Zm-.35,4.16.07.08,0,.07-.11-.08ZM60.84,45c.3-.11.55-.5.91-.28s.63,0,.94,0,.1.61.43.8a1,1,0,0,1,.28.27c.32.39.31.39-.2.71a1.92,1.92,0,0,1-.33.14l-.06.07c.32.54.93.53,1.43.69.31.1.44.22.42.51s.09.85-.21,1.23c-.42.53-.2,1,.16,1.47s.36.57-.25.87a3,3,0,0,1-2.63-.08,6.07,6.07,0,0,0-.69-.31c-.23-.07-.59,0-.48-.4.07-.22.41.08.63-.12s.39.07.53.23a.68.68,0,0,0,.7.2.33.33,0,0,0,.18-.55c-.23-.25-.48-.49-.72-.72s-.37-.33-.14-.63c.11-.14-.06-.26-.21-.37a1.8,1.8,0,0,0-1.1-.24c-.24,0-.42-.08-.43-.35a.74.74,0,0,1,0-.26c.06-.15.2-.13.28,0a1.2,1.2,0,0,0,1.4.27.55.55,0,0,0,.31-.37c.06-.25-.15-.39-.33-.49a.6.6,0,0,0-.37-.05c-.92.25-1.36-.38-1.86-.94-.12-.13-.22-.25-.06-.42s.35-.32.54-.11.21.5.48.12S61.11,45.44,60.84,45ZM60.5,31.43a.2.2,0,0,1-.18.27c-.2,0-.31-.08-.28-.28a.2.2,0,0,1,.25-.19C60.42,31.24,60.51,31.3,60.5,31.43Zm-1.75-9.08c0-.11.11-.13.18-.06s.49.12.61.38c.22-.09.43-.28.63,0a1.24,1.24,0,0,1,.11.73.27.27,0,0,1-.21.27.21.21,0,0,1-.29-.15,1.43,1.43,0,0,0-.33-.8,4,4,0,0,1-.6-.11C58.71,22.62,58.73,22.46,58.75,22.35ZM57,21.25a2.4,2.4,0,0,1,1.33,0,.24.24,0,0,1,.06.08c0,.17-.55.59-.72.52a5,5,0,0,1-.63-.38A.21.21,0,0,1,57,21.25Zm1.08,19.8.07.07-.08.07-.07,0ZM58,27.47s0,0,.07-.06,0,0,.07,0,0,.06,0,.08S58,27.56,58,27.47Zm-.33,16a.49.49,0,0,1,.38.75s.08.13.12.2c.11.25.69.12.51.58-.1.26-.47.11-.69.26a7.15,7.15,0,0,1-.76.44c0,.09-.13.21-.22.13s0-.17.12-.22-.16-.3-.31-.38c-.79-.39-.79-.39-.55-1.15,0-.16.1-.32.14-.48s.11-.29.23-.24A2.25,2.25,0,0,0,57.67,43.44Zm-1.45-4.35.08-.1.07.07-.08.07Zm.07-.9c.07,0,.11.12.17.18s.21.13.12.22-.16,0-.22-.12l-.12,0c-.11,0-.29,0-.27-.17S56.17,38.14,56.29,38.19Zm-.74,1.27h-.48a2.42,2.42,0,0,1-.28,0s-.11-.13-.1-.17c.14-.25.37-.44.5-.72s.15.06.21.14a3.91,3.91,0,0,0,.3.41C55.92,39.33,55.84,39.43,55.55,39.46Zm-1-18.54a1.82,1.82,0,0,0,1-.21c0,.06.11.12.11.19s0,.19-.1.2a3.42,3.42,0,0,1-.53.1l-.46,0s-.09-.07-.08-.08S54.5,20.93,54.54,20.92Zm-1.12-2.49s.13-.08.19-.08.12.08.17.12a.66.66,0,0,1-.17.12C53.49,18.61,53.38,18.58,53.42,18.43Zm-.3,29.39a1.44,1.44,0,0,1,.53-.33,4.21,4.21,0,0,1,.61-.16c.29-.08.23-.62.52-.52s.13.53.2.81a1.68,1.68,0,0,0,.14.3c0,.29-.28.47-.26.75s-.13.29-.32.31-.43,0-.45-.31c0-.52-.32-.53-.7-.37-.1,0-.24.19-.3,0A.62.62,0,0,1,53.12,47.82Zm-.73,8.69s.15.08.14.09a1.11,1.11,0,0,1-.12.3s-.06,0-.07-.09S52.26,56.6,52.39,56.51Zm.13,7.26a.26.26,0,0,1,0,.24c0,.06-.14.14-.19.12a2.81,2.81,0,0,0-1.21-.23c-.26,0-.38-.14-.38-.39s.15-.42.66-.4A1.6,1.6,0,0,1,52.52,63.77Zm-4-48.52c.42,0,.87.08,1.17-.36a.2.2,0,0,1,.32,0,1.41,1.41,0,0,0,1.56.4s.11.08.18.14-.15.25-.25.27c-.58.12-1.15.19-1.44.84a.37.37,0,0,1-.57-.24c-.07-.61-.38-.57-.79-.34-.22.12-.42.16-.49-.13S48.14,15.28,48.5,15.25Zm0,2.3c.09-.52.43-.1.53-.07a1.81,1.81,0,0,1,.48-.15.55.55,0,0,1,.47.38c.08.16,0,.32-.15.44s-.34.26-.56.11a.71.71,0,0,0-.22-.13C48.72,18,48.4,17.89,48.47,17.55Zm-.22-1.11s.07-.14.12-.14.31,0,.31.25l-.11.2C48.46,16.65,48.35,16.55,48.25,16.44Zm-.71,2.92c.34-.3.32-.66.39-1s.19-.18.27,0,.09.19.15.2c.4.07.88,0,1.1.47a2.34,2.34,0,0,1,0,1.78,2.06,2.06,0,0,1-.17.33c.09.05.21.13.13.22s-.17,0-.22-.12c-.49-.37-.79-.95-1.43-1.16C47.45,20,47.22,19.64,47.54,19.36Zm-2.85-2.25s0,0,.07,0,0,.06,0,.07-.1.05-.14,0A.19.19,0,0,1,44.69,17.11Zm-1,2.34s.15.07.14.09a1.25,1.25,0,0,1-.12.3s-.06-.05-.07-.09S43.51,19.54,43.64,19.45ZM42,17.51a1.29,1.29,0,0,1,.1-.35.23.23,0,0,1,.33-.06c.17.1,0,.21-.05.28a2.31,2.31,0,0,1-.29.24.32.32,0,0,1-.4.19.16.16,0,0,1-.09-.09C41.61,17.52,41.81,17.57,42,17.51Zm-1.62.1a.5.5,0,0,1,.56.05c0,.06-.07.16-.1.16a1.75,1.75,0,0,1-.46-.05C40.21,17.74,40.22,17.67,40.33,17.61Zm-.24-2.82.07.08-.08.07-.07,0Zm-.54,2.57a.73.73,0,0,1,.09.08c0,.1.09.22-.06.3s-.14-.07-.14-.09S39.51,17.46,39.55,17.36ZM37.1,24.13c.88-.24,1.16-1,1.52-1.69.25-.49.47-.87,1.11-.81.18,0,.19-.23.16-.41s-.21-.13-.13-.22.17,0,.22.12c.61.34.91-.65,1.35-.39s.48.78,1,.95.77.36,1.17.47a3.71,3.71,0,0,1,3,2.64c.14.52.81.76.92,1.35a1.24,1.24,0,0,0,.77,1.05c.46.21.44.53,0,.87-.23.16-.52.25-.1.45A1.87,1.87,0,0,1,49,30a48.57,48.57,0,0,1,.8,5.21A62,62,0,0,1,50,41.58,3.26,3.26,0,0,0,50.36,43c.2.39.36.8-.17,1.09-.29.15-.2.45-.19.68a9.21,9.21,0,0,0,.15,2.67A29.39,29.39,0,0,0,50,52.16a1.66,1.66,0,0,1-.09.37,31.27,31.27,0,0,0-.7,3.94,34.82,34.82,0,0,0-.26,3.8,11.67,11.67,0,0,1-.84,3.27,7.39,7.39,0,0,0-.5,1.55,3.1,3.1,0,0,1-.89,1.69.89.89,0,0,0-.3.92c.14.4.24.7-.31.86a2.75,2.75,0,0,0-1.08.85,3.08,3.08,0,0,1-.93.54c-.09,0-1.3.83-1.4.86a9.88,9.88,0,0,0-1.86,1.24c-.29.17-.79.6-1.27.16a.49.49,0,0,0-.25,0,5.72,5.72,0,0,1-2-.66,3.63,3.63,0,0,0-1.75-.93c-.53,0-.78-.62-1.15-1s-.82-.66-.71-1.28c0-.19-.11-.32-.24-.43a5.19,5.19,0,0,1-1.65-3.17,16.3,16.3,0,0,1-.71-2.41c0-.23-.15-.4,0-.68a.82.82,0,0,0-.1-.85,3.62,3.62,0,0,1-.63-2.12,5.48,5.48,0,0,0-.24-2.51c.37-.84-.33-1.82.39-2.62.25-.28,0-.71-.08-1a5.87,5.87,0,0,1,0-1.57A1.93,1.93,0,0,1,31,49.5a.61.61,0,0,0,0-.82c-.12-.18-.29-.39-.27-.56.06-.5.59-.9.17-1.5s.09-1.11,0-1.69a2.13,2.13,0,0,1,.22-1.61c-.16-1.25.55-2.37.53-3.6,0-.13,0-.31.05-.37.69-.61.42-1.42.46-2.17,0-.38,0-.77.34-1s.18-.47.18-.72c0-.64,0-1.28,0-1.93a7.84,7.84,0,0,1,.88-3.77A5.93,5.93,0,0,0,34,28.16a3,3,0,0,1,1.34-2.43c.55-.31.87-1,1.45-1.35C36.93,24.32,37,24.15,37.1,24.13Zm-.65-7.53s0,0,.07,0,0,.06,0,.08-.1,0-.14-.05S36.42,16.61,36.45,16.6Zm-.4-3.67c.07,0,.2.07.19.1,0,.22-.2.16-.38.18l-.24-.16A.41.41,0,0,1,36.05,12.93Zm-1.66-1.48s0,0,.07,0,0,0,0,.07-.1,0-.14-.05S34.36,11.46,34.39,11.45Zm0,1.26c.07,0,.11.12.17.18s.21.13.13.22-.17,0-.22-.12l-.13,0c-.11,0-.29,0-.26-.17S34.29,12.66,34.41,12.71ZM34.08,14c.05,0,.13.11.12.14a.42.42,0,0,1-.34.3.41.41,0,0,1-.09-.19C33.76,14,33.91,14,34.08,14Zm-.7,2a3.89,3.89,0,0,0,.12-.49c.1-.25.23-.13.36,0a3.36,3.36,0,0,0,.29.24c.62-.82,1.14.38,1.75.1.07,0,.21.17.15.28-.16.27-.59.34-.5.78,0,.12-.14.16-.27.08a3.52,3.52,0,0,0-.67-.34c-.29-.08-.33-.2-.17-.42l-.18-.11a.66.66,0,0,0-.58.2c-.11.09-.2.34-.38.15S33.32,16.11,33.38,16Zm.5,4.4a.18.18,0,0,1-.06-.08s0,0,0-.07h.08C34,20.26,34,20.32,33.88,20.36ZM32.75,22.1a.54.54,0,0,1,.46-.39c.31,0,.3.23.31.43a.81.81,0,0,0,.16.6.54.54,0,0,0,.69.15c.21-.12.18-.37.08-.56a4,4,0,0,0-.32-.4c-.13-.16,0-.24.13-.24.32,0,.64-.13.85.32a2.31,2.31,0,0,1,.21,1.11c0,.33-.21.49-.49.27s-.39.17-.55,0c-.32-.32-.67.24-1.06-.12S32.57,22.58,32.75,22.1Zm-.94-2.17c-.21.27-.51.26-.61-.11s-.18-.43-.49-.44-.5.14-.57.5-.26.64-.72.44-.64-.34-.44-.95a4.21,4.21,0,0,1,.23-.71c.06-.13.18-.34.38-.23.62.31,1.34,0,2,.38.27.14.43.22.42.51A.9.9,0,0,1,31.81,19.93ZM32,24.25c0,.29-.25.28-.46.28s-.27,0-.22-.19a3.6,3.6,0,0,1,.29-.55A.61.61,0,0,1,32,24.25Zm-3.1-.61a.88.88,0,0,1-.48.11c-.1,0-.29,0-.18-.21.37-.6,1-.85,1.55-1.26,0,0,.16.09.15.12a1.35,1.35,0,0,0,.54,1.23A1.79,1.79,0,0,1,30,24c-.08,0-.31-.06-.31-.12C29.6,23,29.27,23.22,28.85,23.64ZM29.62,25a1.89,1.89,0,0,1-.09.21s-.07,0-.11.05c-.41.1-.69-.2-1-.36a1.3,1.3,0,0,1,.22-.29c.44-.34.64.22,1,.27A1,1,0,0,1,29.62,25Zm1.78-9.23c.17,0,.26.05.28.19s-.08.3-.28.28a.21.21,0,0,1-.2-.25C31.22,15.87,31.28,15.78,31.4,15.79Zm-1.36-2c.14.19.51.09.55.39,0,.08-.15.25-.24.25-.3,0-.41-.19-.44-.45C29.91,13.88,30,13.81,30,13.75Zm-1.84.46c.31,0,.85-.15.87.21,0,.65-.61.12-.8.36-.35-.07-.84.1-.85-.17S27.85,14.17,28.2,14.21Zm-1.36,3.24c.09-.19.33-.48.46-.37.46.41.92-.12,1.41.1s1.22-.22,1.09-.75.4-.74.64-1.06c.12-.17.21,0,.23.13a1.34,1.34,0,0,1,0,.33c0,.82,0,.82.82.78.21,0,.3.13.38.26a.43.43,0,0,1,0,.35.89.89,0,0,1-1.25.48c-.45-.21-.89-.6-1.31,0a.25.25,0,0,1-.23.07,2.49,2.49,0,0,0-2.07,0C26.84,17.87,26.78,17.6,26.84,17.45Zm-3,.88a2.5,2.5,0,0,1,.41,0,1.25,1.25,0,0,1,.33,0c.06,0,.12.11.15.18a.22.22,0,0,1-.15.29,1,1,0,0,1-.84-.08,1.73,1.73,0,0,1-.23-.29A3.24,3.24,0,0,1,23.84,18.33ZM22.27,21c.12-.2.08-.53.41-.58s.27.16.28.33c0,.34-.1.44-.47.43C22.37,21.18,22.19,21.12,22.27,21Zm1.07,3.3c-.11-.1-.19-.3-.4-.14s-.16.07-.23.12c-.34.23-.63.23-.78-.2a.37.37,0,0,0-.48-.29c0,.1-.13.22-.21.13s0-.17.12-.22c0-.33,0-.7.35-.9a1.06,1.06,0,0,1,.87,0,.39.39,0,0,1,.11.06c.39.32.67-.06.89-.22s.11-.54-.13-.77-.19-.36.17-.44a1.44,1.44,0,0,1,.94,0,4.26,4.26,0,0,0,1.34.34.33.33,0,0,1,.24.56.77.77,0,0,0,.25,1c.46.32.59,1.1,1.35,1a.34.34,0,0,1,.29.36c-.05.14-.22.25-.36.34s-.17,0-.25,0c-.25.06-.62-.17-.72.19-.05.18.87.61,1.05.45.64-.54,1.18-.16,1.72.12a1.31,1.31,0,0,0,1.64-.07,3.13,3.13,0,0,1,1.28.15s.07.08.06.1c-.39.59.16,1,.25,1.5.15.75-.78,1.44-1.62,1.39a2,2,0,0,0-1.34.61.33.33,0,0,0,0,.36A1.84,1.84,0,0,1,30,31.76c-.11.21.07.32.15.43a1,1,0,0,1-.28,1.44,3.27,3.27,0,0,0-.68.71c-.13.2-.3.45-.58.45s-.23-.37-.34-.57a.93.93,0,0,0-.34-.37,5,5,0,0,1-1.45-1.17.44.44,0,0,0-.45-.15c-.6.09-.64.11-.78-.22s-.31-.3-.58-.15a.7.7,0,0,1-.93-.39,2.43,2.43,0,0,1-.32-.95,1.06,1.06,0,0,1,.14-.33l.21.13a.81.81,0,0,0,.09.1c.16.13.09.63.48.38.22-.15.17-.52.07-.72s-.38-.6-.61-.62c-.77-.06-.88-.66-1.19-1.16-.18-.29.11-.68-.24-.86a1.12,1.12,0,0,1-.61-.6.37.37,0,0,0-.17-.18c-.32-.18-.8-.05-.94-.53l1.3-.74a1.87,1.87,0,0,0,1.41-1A.28.28,0,0,0,23.34,24.3Zm6,42.37c.05-.46-.29-.76-.45-1.14A.44.44,0,0,1,29,65a.56.56,0,0,1,.59.06.75.75,0,0,1,.31.78,1.7,1.7,0,0,1-.49,1c-.31.23-.79.68-1,.3s.38-.31.65-.37l.24,0,.1.11ZM28.5,60c-.11-.1-.23-.21-.33-.32s.08-.13.12-.13.32,0,.31.25Zm0,3.35a.19.19,0,0,1-.07-.08s0,0,0-.07h.07C28.58,63.25,28.57,63.3,28.48,63.34Zm-1-2c-.27-.25-.53-.42-.84,0a.31.31,0,0,1,.19.4.16.16,0,0,1-.09.09c-.2-.06-.14-.26-.2-.4-.21-.26-.64-.22-.76-.62s-.39-.39-.7-.47-.74-.32-.4-.81c.16-.24,0-.38-.1-.57s-.07-.28.27-.3a17.34,17.34,0,0,1,1.92.15c.36,0,.42.23.23.51s-.07.42.23.55a1.38,1.38,0,0,1,.92,1.09.61.61,0,0,1-.26.56C27.66,61.62,27.55,61.44,27.44,61.33Zm.13,1.11c0,.11-.1.13-.18.09l-.53-.31.26-.14C27.43,62.08,27.6,62.17,27.57,62.44ZM23,59.91c-.29.11-.29,0-.33-.15s-.25-.41-.2-.57.24,0,.38,0a1,1,0,0,0,1-.25c.11-.14.27-.24.34,0s.08.36-.1.46C23.75,59.67,23.14,59.36,23,59.91Zm.48,1c0,.34-.22.4-.5.39s-.44,0-.52-.22.3-.8.44-.72S23.52,60.52,23.48,61Zm.6-3.13a.69.69,0,0,0-.32.37c-.1.24-.23.37-.47.24s-.38-.31-.15-.6a.88.88,0,0,0,.05-.37c0-.59,0-.61-.67-.75-.3-.06-.51-.28-.84-.28a.57.57,0,0,1-.54-.61.63.63,0,0,1,.6-.69l.38,0,0-.12c0-.11,0-.28.17-.26s.13.2.08.31-.11.11-.17.17-.08.45.13.33c.62-.36,1.06.12,1.56.24a.39.39,0,0,1,.16.7c-.45.35-.16.55.09.78S24.56,57.67,24.08,57.82Zm2.56-16.59.38,0c.05-.09.13-.21.22-.13s0,.17-.12.22a2.17,2.17,0,0,1-.17.47c-.12.17-.29.34-.52.21s-.13-.21-.14-.33A.33.33,0,0,1,26.64,41.23Zm0-5.3a.92.92,0,0,1,.52-.52c.18-.07.36.17.39.39s-.11.29-.3.31H27C26.86,36.08,26.57,36.15,26.65,35.93Zm-1.43,2.5a1.41,1.41,0,0,0-1.22.51c-.07.09-.08.28-.25.14a1,1,0,0,1-.24-.27c.47-.48-.44-1.06.11-1.53a.81.81,0,0,0-.2-.28c-.15-.11-.22,0-.3.13-.62.67-.75.67-1.32,0-.16-.18-.15-.47-.47-.56s-.38-.45-.25-.72-.34-.43,0-.54.54-.05.55.32.19.42.49.43a1.85,1.85,0,0,1,1.8.85.36.36,0,0,0,.2.14c.71-.53.87.24,1.25.5s.91.22,1.06.75A2.78,2.78,0,0,1,25.22,38.43Zm1,4.22a.44.44,0,0,1-.45.15c-.1,0-.26,0-.17-.18s.21-.1.32-.09A.82.82,0,0,1,26.26,42.65Zm-1-1.37-.12.18a.76.76,0,0,1-.12-.19c0-.12,0-.21.16-.18S25.23,41.22,25.26,41.28ZM24.13,44.8l.31.17c-.1.16-.25.16-.41.15s-.25,0-.2-.17S24,44.86,24.13,44.8ZM24,42.9l.07-.07.07.08,0,.07Zm.3-.79s.12-.06.19-.08l.17.12a.71.71,0,0,1-.18.12C24.39,42.3,24.31,42.24,24.34,42.11Zm-.61.23c0,.38-.16.51-.52.46a1.43,1.43,0,0,1-.21-.11,1,1,0,0,1,.57-.59C23.68,42.05,23.73,42.21,23.73,42.34Zm-1.14,4.28c-.12.17-.26.32-.49.28s-.14-.17-.05-.27.27-.3.51-.2S22.68,46.54,22.59,46.62Zm-1.13,1c.15,0,.41,0,.38.17a.51.51,0,0,1-.56.38c-.16,0-.36,0-.36-.24C20.92,47.58,21.24,47.7,21.46,47.66ZM23.17,49c-.61,0-.73-.07-.93-.63a.65.65,0,0,1,.61-1c.25,0,.51,0,.77,0h.63c.21,0,.45,0,.5.26a.88.88,0,0,1-.25.93C23.92,48.28,23.67,49,23.17,49Zm-2.5-16.88a.27.27,0,0,1,.2-.11c.4,0,.25.35.31.56,0,0,0,.09,0,.13l.12,0c.12,0,.29.05.27.18s-.2.13-.32.08-.11-.12-.16-.18-.15-.09-.21-.14S20.58,32.36,20.67,32.12Zm-.3,3.2c0,.17-.09.25-.24.25-.31,0-.27-.25-.28-.45s0-.27.18-.22A.45.45,0,0,1,20.37,35.32Zm-2.4-6c.24-.29.46-.24.62.14.06.14,0,.57.31.2a1,1,0,0,1,.92-.29.3.3,0,0,1,.28.21.36.36,0,0,1-.21.42,1.54,1.54,0,0,0-1.05.79c0,.07-.22.13-.33.12C18.09,30.88,17.7,29.69,18,29.35Zm-1.44,3.19c-.05-.2-.06-.46.16-.53a.9.9,0,0,1,.72,0s.06.06.1.11l-.84.58A.41.41,0,0,1,16.53,32.54Zm1.21,5.09c.13,0,.24,0,.25.19-.21.15-.07.54-.43.57s-.27-.16-.28-.32C17.24,37.73,17.44,37.62,17.74,37.63Zm.05,22.45c0,.22-.2.33-.38.43a.66.66,0,0,1-.11-.2.45.45,0,0,1,.33-.45C17.78,59.81,17.81,60,17.79,60.08Zm.13-2.4a.32.32,0,0,1-.06-.08s0,0,0-.07.05,0,.07,0S18,57.64,17.92,57.68ZM19,52.5l-.11-.08.08-.07.06.08Zm-.56-19a.47.47,0,0,0-.53,0c-.25.09-.41-.08-.34-.36a2.41,2.41,0,0,1,1.88-1.69.61.61,0,0,1,.61.38s0,.09,0,.09c-.72.2-.61.79-.67,1.34S18.94,33.85,18.44,33.52Zm1.12,3,.09.09-.09-.09.25-.26c0-.15,0-.38.18-.4a.33.33,0,0,1,.32.32c0,.18-.26.14-.4.17l-.26.26c0,.1-.13.22-.22.13S19.46,36.61,19.56,36.57Zm.8,19.59c0,.16-.08.21-.19.26s-.26,0-.28-.17,0-.33.25-.31S20.34,56,20.36,56.16Zm-.25,10.3c-.27,0-.27-.27-.25-.48s.26-.33.47-.28a5,5,0,0,1,.93.3c.09,0,.13.2.15.26,0,.3-.1.55-.33.44A3,3,0,0,0,20.11,66.46ZM21,69S21,69,21,68.93s0-.05,0-.07.06,0,.08,0S21.1,69,21,69Zm.61,1a.21.21,0,0,1-.2-.25c0-.14.08-.22.23-.22a.21.21,0,0,1,.25.19C21.92,70,21.82,70.08,21.62,70.05Zm.82-1.13a.66.66,0,0,1-.22.12,1.86,1.86,0,0,1-1-.63.43.43,0,0,1,.13-.46.78.78,0,0,1,.82-.19,6.94,6.94,0,0,0,1.09.27.58.58,0,0,1,.5.75c0,.08-.08.32-.19.13C23.13,68.25,22.8,68.58,22.44,68.92Zm.68,1s.05.12.08.19l-.12.17A.71.71,0,0,1,23,70.1C22.93,70,23,69.89,23.12,69.92Zm.33,2.54s-.11.12-.15.11a.4.4,0,0,1-.29-.33s.13-.06.19-.09C23.43,72.14,23.46,72.3,23.45,72.46Zm.31-1.08-.24-.16A.43.43,0,0,1,24,71.1c.07,0,.19.07.19.1C24.13,71.42,23.94,71.36,23.76,71.38Zm3.95,1.54c-.1.14-.29.33-.42.22A9.17,9.17,0,0,0,26,72.46c-.09-.06-.2-.25-.17-.31.25-.47,0-.52-.39-.57a.5.5,0,0,1-.39-.45c0-.15.06-.23.25-.28a1,1,0,0,1,.29.15,2.18,2.18,0,0,0,1.23.61c.1,0,.31.06.18.21-.88,1,.7.3.55.79C27.68,72.66,27.87,72.7,27.71,72.92Zm.3-3.55c-.36.21-.4,0-.52-.22a.49.49,0,0,0-.63-.3c0,.36,0,.78-.59.74s-.92-.09-1-.68a1.28,1.28,0,0,0-.53-.92,1.24,1.24,0,0,1-.42-1.43c.2-.44.08-.67-.26-.81s-.59-.31-.41-.8c.11-.31-.36-.26-.52-.45-.51-.6-.52-.61-.81-.58-.59.06-1.2-.34-1.79.14-.11.1-.53-.12-.72-.37l-.12,0c-.12,0-.29,0-.27-.18s.2-.12.32-.07a.66.66,0,0,1,.16.17.56.56,0,0,0,.7-.55c0-.38,0-.77,0-1.16s.19-.33.44-.24.33,1,1,.52a.22.22,0,0,1,.08.1c.1.35,0,.93.69.62.41-.19.73.35,1.09.2.77-.32,1.34.27,2,.37.26,0,.44.56.74.4.48-.26.94.18,1.43-.09s.47,0,.52.35c.07.57-.49.77-.61,1.23,0,.13-.27.13-.33.06-.24-.31-.77,0-.95-.53-.1-.28-.43-.23-.65-.07s-.33.17-.16.38.12.12.18.19c.69.82.53,1.43-.53,1.89-.26.11-.34.2-.21.45a1,1,0,0,1,.15.47c0,.45.13.65.59.59.21,0,.42,0,.64,0,.16-.83.32-1,.88-.54.39.3.61.44.79-.13,0-.08.11-.13.17-.19a.39.39,0,0,1,.56,0c.2.17.22.35,0,.5s-.14.4,0,.6a1.86,1.86,0,0,1,.94.27c.14.1.3.14.27.35s-.32.21-.47.34-.31,0-.4-.11-.29-.5-.44-.75A1.2,1.2,0,0,0,28,69.37Z"/><polygon points="70.47 15.95 70.52 15.88 70.44 15.87 70.47 15.95"/><path d="M28.17,30.52c-.44.3-.57.84-.93,1.2-.12.12-.23.31,0,.42s.5.17.59-.19c.05-.16,0-.34.19-.45a5.49,5.49,0,0,0,.73-1c.17-.3.1-.42-.21-.57s0-.25.1-.37.77,0,.69-.37-.05-.58.42-.54c.3,0,.44-.07.32-.45-.25-.83-.22-.84.59-1.33.09-.06.3,0,.15-.23a.56.56,0,0,0-.86-.07c-.54.47-.79.43-1.25,0-.09-.1,0-.37-.23-.29-.05,0-.1.27,0,.34.28.38,0,.58-.2.85s-.77.13-.74.32a3.77,3.77,0,0,1,0,1c0,.36.1.69-.25,1-.2.17,0,.29.13.39s.49.07.74.13a1.06,1.06,0,0,1,.2.12A.93.93,0,0,1,28.17,30.52Z"/><path d="M23.62,29.29c.61-.39.95,0,1.29.38s.62.21,1,.24c.16-.1.51.15.58-.23s-.26-.4-.42-.59-.55-.17-.83-.17c-.56,0-1.12.06-1.35-.65-.07-.21-.28-.11-.38.05a1.58,1.58,0,0,0-.24.57C23.24,29.11,23.49,29.37,23.62,29.29Z"/><path d="M25,26.1c-.08.33.19.52.27.79,0,.07,0,.09,0,.1h.08s.1-.1.11-.16a6.15,6.15,0,0,0,0-.64c0,.14,0,0,0-.1s-.07-.23-.23-.22S25.07,26,25,26.1Z"/><path d="M24.82,22.51a.9.9,0,0,0,.38-.25c.06-.08,0-.22-.16-.27s-.34.16-.46.32a.29.29,0,0,0,0,.22C24.63,22.74,24.74,22.55,24.82,22.51Z"/><path d="M25.24,31c-.29.08-.2.31-.19.5s.08.14.15.09.34-.26.25-.5C25.43,31.05,25.31,31,25.24,31Z"/><path d="M26.64,28.58c.14,0,.14-.2.09-.31s-.14-.09-.21-.09-.18.12-.17.26A.23.23,0,0,0,26.64,28.58Z"/><polygon points="24.15 22.57 24.07 22.56 24.1 22.64 24.15 22.57"/><path d="M56.13,53.55a.48.48,0,0,0,.18-.08.84.84,0,0,0-.2-.08s-.07,0-.1,0S56.09,53.55,56.13,53.55Z"/><path d="M55.62,57.41c.06,0,.11,0,.17-.08a.7.7,0,0,0-.2-.08s-.06,0-.09,0S55.58,57.41,55.62,57.41Z"/><polygon points="56.27 56.62 56.32 56.54 56.24 56.53 56.27 56.62"/><polygon points="55.77 54.45 55.72 54.52 55.81 54.53 55.77 54.45"/><path d="M57.47,62.32l0,.06.14.16C57.69,62.4,57.52,62.39,57.47,62.32Z"/><path d="M63.2,48.62c.09.08.24.08.34.15.37.26.28-.07.31-.23,0-.5-.27-.75-.88-.83-.1,0-.31.08-.32.13C62.61,48.25,63,48.4,63.2,48.62Z"/><path d="M62.81,46.69l.06-.07-.18-.09Z"/><path d="M62.19,46.24a.13.13,0,0,0-.06.1c0,.49.47.19.68.35l-.12-.16.18.09C62.68,46.42,62.58,46.07,62.19,46.24Z"/><path d="M57.41,69.11a.17.17,0,0,0-.18.21.21.21,0,1,0,.39-.13A.25.25,0,0,0,57.41,69.11Z"/><polygon points="26.44 59.69 26.45 59.61 26.37 59.64 26.44 59.69"/><polygon points="23.07 48.12 23.12 48.05 23.04 48.04 23.07 48.12"/></svg>