<svg id="Layer_1" data-name="Layer 1" xmlns="http://www.w3.org/2000/svg" viewBox="0 0 36.64 36.64">
  <path d="M18.32,0A18.32,18.32,0,1,0,36.64,18.32,18.34,18.34,0,0,0,18.32,0Zm9.83,19.72h5.62a15.3,15.3,0,0,1-3.22,8.12,22.37,22.37,0,0,0-3.38-1.26A31.6,31.6,0,0,0,28.15,19.72Zm-1-9.66a22.38,22.38,0,0,0,3.38-1.27,15.37,15.37,0,0,1,3.22,8.13H28.15A31.6,31.6,0,0,0,27.17,10.06Zm1.35-3.42a21.18,21.18,0,0,1-2.21.75,18.28,18.28,0,0,0-1.63-3.22A15.73,15.73,0,0,1,28.52,6.64Zm-8.8,1.78V3.15c1.41.7,2.76,2.43,3.78,4.87A30.79,30.79,0,0,1,19.72,8.42Zm0,8.5v-5.7a34.16,34.16,0,0,0,4.69-.51,28.5,28.5,0,0,1,.93,6.21Zm0,8.49V19.72h5.62a28.69,28.69,0,0,1-.93,6.21A34.16,34.16,0,0,0,19.72,25.41Zm3.78,3.2c-1,2.44-2.37,4.17-3.78,4.87V28.22A30.8,30.8,0,0,1,23.5,28.61Zm1.18,3.86a18.39,18.39,0,0,0,1.63-3.23c.78.23,1.52.48,2.21.76A15.73,15.73,0,0,1,24.68,32.47ZM16.92,11.22v5.7H11.29a29.12,29.12,0,0,1,.94-6.21A33.82,33.82,0,0,0,16.92,11.22ZM8.12,6.64A15.68,15.68,0,0,1,12,4.17a18.27,18.27,0,0,0-1.62,3.22A20.41,20.41,0,0,1,8.12,6.64Zm8.8,13.08v5.69a33.81,33.81,0,0,0-4.69.52,29.31,29.31,0,0,1-.94-6.21Zm-6.59,9.52A18.37,18.37,0,0,0,12,32.47,15.68,15.68,0,0,1,8.12,30,22.81,22.81,0,0,1,10.33,29.24Zm6.59-1v5.26c-1.41-.7-2.76-2.43-3.78-4.87A30.6,30.6,0,0,1,16.92,28.22ZM13.14,8c1-2.44,2.37-4.17,3.78-4.87V8.42A30.59,30.59,0,0,1,13.14,8ZM2.87,16.92A15.35,15.35,0,0,1,6.08,8.79a22.51,22.51,0,0,0,3.39,1.27,31.6,31.6,0,0,0-1,6.86Zm5.62,2.8a31.6,31.6,0,0,0,1,6.86,22.5,22.5,0,0,0-3.39,1.26,15.29,15.29,0,0,1-3.21-8.12Z"/>
</svg>
