<svg id="Layer_1" data-name="Layer 1" xmlns="http://www.w3.org/2000/svg" viewBox="0 0 344.44 37.26"><defs><style>.cls-1{fill:#fff;}</style></defs><path class="cls-1" d="M167.58,11.36l.15-2.22h4.41c.37,1.29-.11,2.61-.11,3.93q0,7.14,0,14.27c0,5.88-3,9.17-8.86,9.83a17.48,17.48,0,0,1-7.5-.94c-1-.33-1.09-.79-.87-1.68.47-1.85.84-3.29,3.39-1.92a7,7,0,0,0,5.75.16,4.75,4.75,0,0,0,2.94-3.92c.21-1-.11-2.19,1.19-2.89-1-.13-1.77-.13-2.41-1.08-.05.48-.17.75-.08.89.58,1,.27,1.79-1,2.35-5,2.2-11-1.44-11.54-6.93-.4-4,.21-7.59,3.25-10.48A8,8,0,0,1,167.58,11.36Zm-5.5.33c-.15.49-.15,1.05-.36,1.15-3.61,1.6-3.76,4.65-3.38,7.93a4.61,4.61,0,0,0,4,4.05,3.83,3.83,0,0,0,4-2.16c.85-1.64.59-3.49.6-5.27a4.35,4.35,0,0,0-3.43-4.62A1.94,1.94,0,0,1,162.08,11.69Zm6.35,19.37c-.2-1,.72-1.95-.06-2.85,1.38-.69,1.81-1.24,1.92-2.4-2.14.12-2.69.76-2.17,2.78.23.87-.36.84-.89,1,.32.28.78-.1,1,.44.26.89-.87.44-.94,1.07Zm-.62-17.41a8.21,8.21,0,0,0-.87.47c-.32.25-.14.78.07.62.62-.47,1.77.09,2-1.08-.85-.06-1.12-.76-1.54-1.32-.16-.21-.37-.6-.75-.25a.53.53,0,0,0,0,.91A8.81,8.81,0,0,0,167.81,13.65Z"/><path class="cls-1" d="M207.45,3.21c-.88-.29-.82.79-1.4.92.3.24.59.11,1-.06-.21.88.29,1.14,1,1.23.6-.48-.19-1.19.47-1.75a20,20,0,0,1,3.06,5.33c1.81,5.06,1.22,9.77-.16,14.61a9.23,9.23,0,0,1-2.68,4c-.64.62-1.49.2-2.28.55-6.25,2.73-10.88-.11-12.31-7.45a22.19,22.19,0,0,1,1-12.57C197.17,2.57,202.74.69,207.45,3.21Zm-.59,2.85c-1-.15-1.44.48-2.14.32-2.45-.59-3.59.15-4.66,2.45-2.17,4.62-.4,9.51-1,14.26.24-.15.55-.35.86-.53,1.52,3.25,3.69,3.6,6,1,1.2-1.35.82-3.17,1.49-4.7l.19.56,1.08-.58c-2.43-3.67-.21-8.5-3.41-11.84Zm1.85,18.13c-.2-.74-.74-.81-1.4-.75a1.2,1.2,0,0,0-1.09.79c-.22,1.11,1.24.28,1.29,1.32C207.93,24.9,208.12,24.36,208.71,24.19Z"/><path class="cls-1" d="M102.12,28.92H96.7V24.37h.38c-.93-2.52-.3-5.16-.41-7.7-.12-2.72,0-5.44,0-8.16V.26h5.29c0,1.55.11,3.14,0,4.71-.08.8-1.13.7-1.72.91-.89.32-1.13.79-.92,1.62s-.18,1.12-1,1.12c1.16,1.4.27,2-.74,2.61l.67.75a1.4,1.4,0,0,1,1.77-.73A2.31,2.31,0,0,1,100,9.34c.61.34,1.27.6,1.89-.5v2.42c3.66-3.38,7.88-3.59,10.72-.45a7.23,7.23,0,0,1,2,4.65c.06,4.46,0,8.93,0,13.46H109.6c0-3.68,0-7.36,0-11s-2.53-6-5.41-4.55c-.72.36-1.16,1.21-2.08,1.11Zm9.57-5c.88,1.34,1.82-.39,2.7.38a1.55,1.55,0,0,0-1.63-1.56C113.17,23.78,112.24,23.54,111.69,23.91Z"/><path class="cls-1" d="M280.94,24.68h10.54v1.47l-1.17,0c.78.84,1.63,1.54,1.07,2.88-4.41-.15-9,.39-13.82-.6-.7,1-2.22.54-3.57.59-1.17-3.25,1.2-4.73,3.06-6.47,2.93-2.73,6-5.3,8-8.91,1.05-1.93,1.34-4.06-.11-5.78s-3.77-1.71-5.89-1c-1.15.39-2.24,1-3.51,1.56a30.57,30.57,0,0,1-1.18-3.54c-.11-.47.57,0,.88-.16-.3-.47,0-.69.38-.87C279.06,1.9,284.83,1,288.4,4a7.2,7.2,0,0,1,2.51,5.39c.42,6.43-4.28,9.71-8,13.62A25.5,25.5,0,0,1,280.94,24.68Z"/><path class="cls-1" d="M136,28.92H130.8V9.2c3.63-.79,4.42-.37,4.53,2.4,1.6-1.22,1.6-1.22,3.12-1.07.52-1.88,2.46-2.46,5.3-1.57a7.14,7.14,0,0,1,5,7.1c.07,4.24,0,8.48,0,12.81h-5.3c0-4,0-8.07,0-12.13a3.48,3.48,0,0,0-2.31-3.61A4,4,0,0,0,136,17C136,20.93,136,24.88,136,28.92Z"/><path class="cls-1" d="M316.9,24.65c2.53,0,4.79.05,7.05,0,.87,0,1.7.35,2.61.08.46-.14,1,.37,1,1,0,1,0,2.07,0,3.16H309.59V27.44a3.68,3.68,0,0,0,3.33-.62c-1.07-1.44-2.21.45-3.29-.1a1,1,0,0,1,.16-1.26c2.43-2.35,4.65-5,7.35-7,2.33-1.7,3.18-4.11,4.32-6.41a3.81,3.81,0,0,0-.94-4.56c-1.63-1.48-3.67-1.44-5.67-.71a9.53,9.53,0,0,0-3.14,1.76c-1.21-1,.08-3-1.68-3.61,4.05-4.14,12.72-3.78,15.64.65,1.63,2.48,1.54,7.38-.17,9.66-.81,1.08-2,.57-3.45.8,1,.32,1.78.39,2.22,1.12A65.32,65.32,0,0,1,316.9,24.65Zm-.58,2.92c.35,1.07,1.25,1,2.05,1,.34,0,.38-.59.23-.8C317.93,26.8,317.05,27.65,316.32,27.57ZM318.59,22c-1.23.21-1.3-2.39-3-1.22C316.64,21.24,317.25,22.46,318.59,22Z"/><path class="cls-1" d="M233.88,24.62v4.12H219.16l1.5-.27c.51-1.11,0-2.14-.19-3.22-1.47-.29-1.86,0-1.73,1.6.12,1.35-1.07,2.24-2.67,2-.64-2.29.27-3.79,2.06-5.28a64.36,64.36,0,0,0,7.43-7.43c.36-.41.62-1.16,1.46-.93.09,0,.41-.27.39-.37-.38-1.84,1.21-3.43.58-5.37A5.07,5.07,0,0,0,226.29,7c-.43-.33-.34-.6-.35-1.08-2.82.34-5.53.82-7.85,2.71-1-1-.92-2.53-1.64-3.68,3.18-3,9.31-3.74,13.1-1.64,4,2.22,5,7.94,2.1,12.48a39.87,39.87,0,0,1-8,8.52c-.68.59-1.08.15-1.44-.35s-.41-1-1-1.19l-.79.67c-.34-.42.25-.51.26-.88-.59.14-1.07.23-.9,1.05.37,1.89,1.44,0,2.08.44l.39,1.68C226,24,229.93,24.85,233.88,24.62Z"/><path class="cls-1" d="M21,16.09c.2-3.93-3.65-4.79-9-2.19-.35-1.06-.71-2.11-1-3.17a.55.55,0,0,1,.21-.47c3.13-1.78,10.24-2.81,13.33.75,0,0,0,.06,0,.13l-.93.18c2.55,1.07,2.62,3.19,2.67,5.29s0,4.07,0,6.11v6.12c-3.11.76-4.41.29-4.7-2-2.18,2.47-4.95,2.82-7.83,2.17A5.61,5.61,0,0,1,9.52,23.5,6.87,6.87,0,0,1,14.21,17a18.19,18.19,0,0,1,3.28-.85A29,29,0,0,1,21,16.09Zm.28,3.34a8.43,8.43,0,0,0-3.9.43c-1.31.46-2.47,1.06-2.56,2.72a2.42,2.42,0,0,0,1.52,2.76c1.56.55,3,0,4.46-.71.09.1.06.76.6.43s1.21-.85.78-1.41C21.2,22.37,21.25,20.94,21.27,19.43Z"/><path class="cls-1" d="M71.48,11.25C74.2,17,72.23,23,73,28.89h-5.2c0-3.34,0-6.67,0-10a13.91,13.91,0,0,0-.4-4.25c-.57-1.67-3.85-2.25-5.32-1.1a4.53,4.53,0,0,0-2,3.74c0,3.84,0,7.68,0,11.61H55V25.19c.58-.11.27,1,1,.55V23.8c-.33.42-.45.86-.76.82V9.05c1.18-.05,2.61.4,3.95-.09.86,1.18-.49,2.12-.07,3.39,1-.87,1.53-2,2.64-2.63a7.81,7.81,0,0,1,7.61-.18c.5.26.32.82.44,1.14C70.21,11.68,70.09,11.78,71.48,11.25Zm-6.88-1c.1,1.33,1.22.72,1.81,1.07.74.44.78-.41,1.32-.66-.83-.35-1.59-.52-1.81-1.39l-.1,1Z"/><path class="cls-1" d="M3.58,4.78c1-.31,1.44.48,2.09.9L4.23,7c.68.81,1.46,1.54,1.46,2.72,0,4.43.18,8.86-.07,13.27-.12,2,.24,4,0,6.12H0V0H5.63V4.63c-.69-.39-1.42-1-2,.18C3,5,2.21,5.51,2,4.26c-.73.75.21,1.23.1,1.77-.26.31-.81-.1-.89.46,0,.09.05.29.1.3.23,0,.61.11.66,0C2.37,6,3.76,6,3.58,4.78Z"/><path class="cls-1" d="M344.44,2.2c-.31,2,.28,3.47-.39,4.76v22c-.4,0-.37-.44-.48-.58-1.24,1.22-2.77.31-4.25.71V7.31c-1.72.69-3.13,1.7-5,2-.27-1-.56-2-.79-3.09,0-.18.08-.55.23-.6,2.51-1,4.66-3,7.59-3C342.33,2.54,343.26,3.19,344.44,2.2Z"/><path class="cls-1" d="M92.53,9.48c-2.13,0-2.72,2.28-4.35,3-.24.11-.48.37-.83.41-3.28.31-5,2.91-4.85,7.16a5.6,5.6,0,0,0,5.44,5.06c.48,0,1,0,1.43,0,3.33-.31,3.33-.31,3.46,3.36-1.27-.29-2.4.86-4.25.58-1,.58-2.58.12-4.58-.1.84-.24,1.06-.62.82-1s-.77-.68-.91-.6c-2.82,1.74-4.17-.64-5.17-2.25-3.56-5.73-1.53-14.56,6.38-16.18A13.66,13.66,0,0,1,92.53,9.48Z"/><path class="cls-1" d="M264.63,2.79V21.38c0,1.37,0,2.74,0,4.11.15,3-.81,3.92-3.78,3.4-.17-.19.35-.46-.21-.78a2.36,2.36,0,0,1-1.11-2.35c.13-2.42,0-4.84,0-7.44,1,.63.16,1.57.71,2.22.59-1-.25-2.3.91-3.06-.54-.36-1.14.07-1.39-.62.72.17,1.41-.49,2.11.12-.13.35-.81.15-.61.66a.5.5,0,0,0,.42.26,4.81,4.81,0,0,0,1.36-.41c-.1-.95.48-2.08-.68-2.87l1.08-.1c-.09-.26-.5-.29-.2-.74a6.63,6.63,0,0,1-3.62,1.36V7.2l-5.18,2.65c.32-1-.73-1.68.26-2.41-1,.11-.6-.83-.89-1.28-.18-.28.11-.57.44-.72C257.55,4,260.56,1.66,264.63,2.79Zm-3.46,7.92a8.84,8.84,0,0,0,.31-1.53c0-1.14-.61-.92-1.57-.49C261.53,8.89,259.21,10.68,261.17,10.71Z"/><path class="cls-1" d="M307.57,1.12c0,.7.12,1.32-.72,1.46a1.72,1.72,0,0,1,0,1.44c-.87,2.52-1.74,5-2.58,7.56-1.88,5.58-3.82,11.14-5.57,16.76-.53,1.71-1.29,2.42-3,2.09a8.52,8.52,0,0,0-1.44,0c1-3.2,2-6.32,3.1-9.41a43.79,43.79,0,0,0,1.9-5.59c.21-1,.45-2,2.51-1.44-2.3-1.44-1.08-2.15-.55-3.35.45-1,.48-2.43.88-3.64.14-.4.12-.67.79-.67s1.44-.48.93-1.51c-1.13-2.26-.22-3.69,2.34-3.69Z"/><path class="cls-1" d="M236.42,30.25c1.4-2.86,2-5.95,3.31-8.85a56.92,56.92,0,0,0,1.63-5.54c1.46-4.65,3.06-9.25,4.58-13.88a1.05,1.05,0,0,1,1.25-.88c.9.08,1.82,0,2.88,0-.71,2-1.38,4-2,5.87-.54.42-1.24.33-2.17.55A1.66,1.66,0,0,0,248.11,7c-1.46,3.21-1.73,6.28-3.46,8.93a1.4,1.4,0,0,1,0,1.11c-.6,1.82-1.28,3.61-1.85,5.44-.22.67-.49.69-.86.22-.75-.95-1.52-.09-2.25,0-.21,0-.49.59-.3,1.1a.73.73,0,0,0,.87.59,1.67,1.67,0,0,1,1.67.69C240.21,30.61,240.16,30.69,236.42,30.25Z"/><path class="cls-1" d="M44.34,9.06h2c-.81.43-.55,1-.54,1.58.87-.14.87-.14,1-1.53h2.61c-.26,3.34.65,6.71-.63,10l.67-1.77v11.6c-.5.27-.87-.06-1.17-.58-.84,1.21-2,.38-3,.66-.44-.84.18-1.83-.55-2.56-.53.45-.74,1.35-1.78,1.28A7.49,7.49,0,0,1,43.75,26C44.65,20.37,44.23,14.76,44.34,9.06Z"/><path class="cls-1" d="M124.42,24.43c.79.74.79.74.64,4.43h-2.89l-.44-1.28c-1-.07-.18,1.66-1.57,1.29V19.54c0-1.24,0-2.48,0-3.71,0-.44,0-.78.52-.93s.86-.14.67-.73c-.24-.76-.74.06-1.13-.19V11.21c.49.85,2.08-.58,1.72,1.39a3.41,3.41,0,0,0,1.34-1.68,1.33,1.33,0,0,0-1.8,0c-.17-.63-.24-1.42-1.25-.64l-.06-1.2h5.21c-.76.68-2.62,1.27-.25,2,.1,0,.09.52.09.79,0,3.76,0,7.51,0,11.27A1.16,1.16,0,0,1,124.42,24.43Zm-.12-4.94c-1.59.85-.78,3.39-3,3.15a1.8,1.8,0,0,1,1.83,1C123.12,22.13,124.09,21.22,124.3,19.49Z"/><path class="cls-1" d="M36.79,19a3.2,3.2,0,0,1-.56,3c-.26.35-.5-.17-.67-.45-.64,2.11,1,1,2.08,1.15-1.16.64-1.67,1.5-2.65,1.75a2.2,2.2,0,0,0,1.65,0c1.48-.72,2.49.51,3.63,1.14.21.12.37.56.51.55.76-.09,1.44-.38,1.42.91,0,1.51-.66,2.12-2.13,2.28-7.22.79-8.5-4.47-8.46-9.12,0-1.18,1.15-.85,1.71-1A6.1,6.1,0,0,1,36.79,19Z"/><path class="cls-1" d="M33.14,15c1.75.9,2.37.46,3.48-2.56.71,1.54.11,4.6-.95,4.74-.13-.25.51-.4.13-.6-.2-.1-.71,0-.75.05-.5,1.45-1.81,1.15-2.86,1.28-.41.05,0,.66-.52.39V9c1.56,0,3.11,0,4.65,0,.47,0,1,2.55.5,2.91A18.68,18.68,0,0,0,33.14,15Z"/><path class="cls-1" d="M119.92,3.79a2.66,2.66,0,0,1,2.83-2.9,2.86,2.86,0,0,1,2.91,2.84c.18,1.48-1.35,2.86-3,2.87A2.6,2.6,0,0,1,119.92,3.79Z"/><path class="cls-1" d="M92.26,11.58a2.91,2.91,0,0,1-.28,2c-.48-.35-1.51-.18-1.49-.75C90.51,11.93,91.75,12.2,92.26,11.58Z"/></svg>