<svg id="Layer_1" data-name="Layer 1" xmlns="http://www.w3.org/2000/svg" viewBox="0 0 167.47 145.56"><title>Artboard 1</title><path d="M3.48,102l-1.89-.82c-.37-3.9-.29-5,.49-7.4A30.18,30.18,0,0,1,.53,86.19c-.09-.81-.24-1.62-.36-2.43-.2-1.41-.43-2.78.65-4a2,2,0,0,0,.27-1.66,7.63,7.63,0,0,1,0-3.12,42.08,42.08,0,0,0-.13-6.64,4.62,4.62,0,0,1,.13-2.42c.13-.31.26-.8.11-1-1-1.43.05-3-.33-4.48A6.91,6.91,0,0,1,1,56.19c-.56-2,0-3.94.26-5.91a10.83,10.83,0,0,0-.43-3,4.48,4.48,0,0,1,1.37-.8,13.69,13.69,0,0,1,3.07-.15c1,.06,1.48-.61,2.13-1.1a4.53,4.53,0,0,0,3.11.28A33.78,33.78,0,0,1,21.79,45a7.49,7.49,0,0,0,7.4-3.23c1.63-2.36,3.83-4.11,5.88-6a15.32,15.32,0,0,0,1.67-1.84,99.93,99.93,0,0,1,9.78-10.27c.26-.25.62-.44.76-.74,1.35-2.86,3.88-4.73,5.79-7.11a6.53,6.53,0,0,0,1.1-1.34,3,3,0,0,1,1.73-1.65c1-.43,1.85-1.09,2.84-1.46a4,4,0,0,0,2.84-2.88c.2-.85,1-1.27,1.69-1.74,1-.65,1.93-1.35,2.86-2.07a2,2,0,0,0,.63-.83c.21-.54.17-1.25.51-1.65A18.4,18.4,0,0,1,69.74.22L72.19.5c.64,2.4,1.41,4.67,1.15,7.26a19.89,19.89,0,0,0,.51,7.06A21.14,21.14,0,0,1,74,19.05c0,.91-.38,1.92.54,2.67a.7.7,0,0,1,.11.66,2,2,0,0,0,0,2.3c.13.18-.08.67-.25.95a1.66,1.66,0,0,0,0,2c1.44,1.56.54,3.35.68,5-.52.44-.26,1.15-.5,1.62a7.32,7.32,0,0,0-.23,5.06c.62,3,.07,5.79-.3,8.66A8.45,8.45,0,0,0,74,51.48c.41,1.46-.4,3.08.5,4.51-.25,1.24-.5,2.48-.81,4C75.21,62.35,75,65.41,75,68.28a33.73,33.73,0,0,0,.86,7.92A8.32,8.32,0,0,1,76,79.7c-.17.93-.61,1.79.08,2.71.12.16-.17.62-.25,1a3.9,3.9,0,0,0-.26,1.36c.1.88.9,1.59.22,2.67-.48.74.44,1.74,0,2.72A2.41,2.41,0,0,0,76,91.79a1.45,1.45,0,0,1-.18,1.3,2.55,2.55,0,0,0,0,2.71c1,1,.59,2.2.56,3.23-.05,1.46.37,2.89-.12,4.45s.24,3.25,0,4.93a32.06,32.06,0,0,0-.09,4.6c0,3.8.06,7.59,0,11.38,0,4-.17,8.07-.11,12.09a30.76,30.76,0,0,0,.76,4.63l-1.13,1.47c-.26.92.74,1.73,0,2.48s-1.64.49-2.6.14c-1.54-.57-3.18-.9-4.92-1.36-.87-1.16-1.85-2.45-2.84-3.74l-1.75.24a14.6,14.6,0,0,1-1.32-2.09c-.58-1.32-1-2.68-2.84-2.69a6.82,6.82,0,0,0-3.36-2.42,1.32,1.32,0,0,1-.64-.82c-.46-1.71-1.89-2.67-3-3.88-1.39-1.57-2.88-3.07-4.49-4.77l-3-1.12a11.21,11.21,0,0,0-4.58-5.8,28.16,28.16,0,0,1-5.2-4.19,14.23,14.23,0,0,0-4.39-3c-.18-1.38-.33-2.89-1.27-3.91-1.42-1.54-2.71-3.31-5-4.18a4.28,4.28,0,0,1-3.92.11,2.88,2.88,0,0,0-1-.21c-3.56,0-7.12,0-10.68,0a3.14,3.14,0,0,0-.74.24l-1.28,1.54c-.79.06-1.09-.43-1.33-1a1.17,1.17,0,0,0-1.73-.64c-.17.07-.26.35-.38.54Zm61.3-22.84c.15-.09.38-.26.09.09l-.37.26Zm0,10c0,.32,0,.74.48.27l-.52-.23-.19-.54-.33.32ZM11.34,97a1,1,0,0,0,.09.26s.13,0,.19.06l-.37-.23c0-.23,0-.47-.05-.7a1.48,1.48,0,0,0-.14-.32c-.08.18-.26.4-.21.52S11.17,96.83,11.34,97ZM67.71,70.55a2.29,2.29,0,0,0,.08.28s.11.07.16.11l-.33-.3c.06-.44.11-.89.2-1.32s.86-.82.27-1.49c-1.21.64-1.26,1.69-1.07,2.84a.77.77,0,0,0-.27,0s-.07.11-.11.17l.3-.29ZM8.5,50.85c1.93-1,4.09-.29,4.95-2.6-1.85-1.21-3.34-.16-4.95.37Zm47.23,67.22c.82.64,1.53.93,2.38.48s.91-1.28.88-2.12a1,1,0,0,0-1.17-1C56.32,115.59,56,116.68,55.73,118.07ZM24.28,80a18.07,18.07,0,0,0,2,.48,1.54,1.54,0,0,0,.92-.34c.53-.35.68-1.26.27-1.49A3.52,3.52,0,0,0,26,78.08c-.35,0-.75.43-1,.74S24.1,79.29,24.28,80Zm23.51,33.3c.88-.47.72-1.31.67-2.09a.8.8,0,0,0-.42-.5c-.76-.37-1.91.57-1.83,1.45A1.76,1.76,0,0,0,47.79,113.29Zm16.83-37.8c1.21,0,1.6-.88,2-2a9.13,9.13,0,0,0-1.5,0C64.11,73.73,64,74.09,64.62,75.49ZM26.34,82.21c-.27-.32-.43-.71-.67-.76-1.07-.24-2,.14-2.94,1.34C24.11,82.53,25.19,82.88,26.34,82.21ZM39.39,96.76l-1.39-1c-1.14,1-1.14,1-.66,2.4ZM23.11,51.9c-.71.5-1.71-.17-2.3.75a.51.51,0,0,0-.08.33c0,.1.16.27.19.26C21.68,52.89,22.6,52.83,23.11,51.9Zm2.86,23c.5-.62,1-1.17.41-2.17l-1.27,1.79ZM11,80a12.85,12.85,0,0,0-1.13,1c-.05,0,.24.55.29.54A9.27,9.27,0,0,0,11.72,81a.64.64,0,0,0,0-.58C11.66,80.21,11.39,80.15,11,80Zm7.33-12.69A7.07,7.07,0,0,0,17,67.09c-.34,0-.86-.27-1,.42l1.39.87Zm.59-2.16a1,1,0,0,0-1.52,0,.74.74,0,0,0-.15.62.7.7,0,0,0,.52.36C18.42,66.12,18.9,65.86,18.93,65.11Zm15.32,9.26a4.86,4.86,0,0,0-1.46-.09c-.23.08-.37.42-.56.65.27.11.55.36.79.31S33.54,74.9,34.25,74.37ZM12,84.13c-.25-.27-.52-.58-.82-.88a.31.31,0,0,0-.29,0c-.11.19-.3.43-.25.59a2,2,0,0,0,.52.82c.1.08.39,0,.57-.06S11.84,84.39,12,84.13Zm.67-13h3L13,70ZM5.84,58.58c-.15-1.5-1-1.63-2.22-1.19Zm24.87-9.32-.8,1c.48.56.89,1,1.54.56C31.89,50.53,31.73,50.19,30.71,49.26Zm23.07,71c.77.79.77.79,1.51-.23A1.13,1.13,0,0,0,53.78,120.27Zm6.81,10.18a5.26,5.26,0,0,0,1.12-.52c.07-.07-.05-.37-.08-.56a.9.9,0,0,0-.24.12C61.21,129.69,61,129.91,60.59,130.45ZM29.67,62a6,6,0,0,0,.94,0c.12,0,.21-.24.32-.37-.1-.07-.2-.19-.29-.18a6,6,0,0,0-.93.15S29.69,61.74,29.67,62ZM10.15,87.64A4.63,4.63,0,0,0,10,88.76c0,.09.38.24.55.21s.39-.36.35-.43A6.31,6.31,0,0,0,10.15,87.64ZM19.91,77a2.37,2.37,0,0,0,.55-.59c.06-.13-.14-.37-.22-.56l-.89.74Zm9.6-9.8-1,.92C29.63,68.1,29.63,68.1,29.51,67.21ZM68,74.27a6,6,0,0,0,.27-1.12,2.6,2.6,0,0,0-.17-.65,2.56,2.56,0,0,0-.24.57A6.64,6.64,0,0,0,68,74.27ZM38.53,103.71l.49,0a8.88,8.88,0,0,0,.08-1.26c0-.1-.28-.21-.45-.27s-.24.14-.23.21C38.44,102.86,38.49,103.28,38.53,103.71Zm-6.8,5a1.27,1.27,0,0,0,0-.33c0-.08-.11-.14-.17-.21-.05.09-.14.18-.15.28a.9.9,0,0,0,.09.32Zm33.16,9.26c.51.3.8.64,1,.06ZM28.8,50.17c.06,0,.15-.08.17-.13a.9.9,0,0,0,0-.28c-.08.05-.2.09-.22.17S28.76,50.09,28.8,50.17Zm-17,22.31A7.44,7.44,0,0,0,13,72.8s.17-.28.21-.44-.15-.22-.22-.21C12.66,72.21,12.38,72.31,11.84,72.48Zm-2.28,0c-.07.08-.19.16-.19.23a3.58,3.58,0,0,0,.16.56c.07-.07.2-.15.19-.22A3,3,0,0,0,9.56,72.43ZM29.35,75.2c.14.13.26.35.4.36a1.92,1.92,0,0,0,.62-.19c-.13-.13-.25-.36-.39-.37A1.64,1.64,0,0,0,29.35,75.2ZM17.89,92.13l-.57.22c.08.06.17.2.24.19a3,3,0,0,0,.57-.2ZM5.3,90.73,5.05,91a3.57,3.57,0,0,0,.61.19c.08,0,.18-.12.26-.19Zm35.05.79c0,.06,0,.16.06.18a1.16,1.16,0,0,0,.28,0l-.07-.31ZM57.43,43.2c-.11-.13-.22-.36-.34-.37a1.58,1.58,0,0,0-.56.2c.11.14.21.38.33.39A1.46,1.46,0,0,0,57.43,43.2ZM36.64,103.6l-.13.21.23,0ZM7.55,93.75l-.17-.22,0,.41Zm29.75,8.11.13-.22-.21,0Zm22.92.4-.13.19.19,0Zm-25-55.66-.11.16.18,0ZM16.64,69.71l.12-.18-.19,0Zm23.8.55c-.06-.07-.13-.2-.2-.21s-.16.12-.23.18.13.21.2.21S40.37,70.33,40.44,70.26Z"/><path d="M162.27,102.89l-1.49.75c-.05.09-.17.23-.15.26,1.22,1.45-.21,2.69-.39,4a6.34,6.34,0,0,1-1.45,3.16,5.76,5.76,0,0,0-1.24,2.51c-.18,1.1-1.3,1.23-1.66,2.17a13.26,13.26,0,0,1-4,5.71c-.51.4-.54,1-.73,1.54a29.49,29.49,0,0,1-1.53,3.57,2.61,2.61,0,0,1-.83,1.07,8.53,8.53,0,0,0-2.83,3.6,10.15,10.15,0,0,1-2.75,3.59c-.36.3-.63.7-1,1a12.84,12.84,0,0,1-2.65,2.28,15.12,15.12,0,0,1-3.76.93,3.48,3.48,0,0,1-1.4-.06c-1.4-.35-3.94-3.56-4-5.08,0-1.17.1-2.36.15-3.55.2-.3.33-.69.6-.88,2.64-1.8,3.92-4.53,5.21-7.31a8.82,8.82,0,0,1,3.11-4.14c.25-3.25,2.1-5.73,3.55-8.37a6.84,6.84,0,0,0,.93-1.85,15.75,15.75,0,0,1,.88-2.3c0-.1.16-.19.18-.3.6-4,3-7.39,3.87-11.3a29.86,29.86,0,0,1,1.21-3.64,38.53,38.53,0,0,0,2.12-10.6c.06-1-.21-2.11.75-2.88a19,19,0,0,0-.23-2.74,2.15,2.15,0,0,1,.13-2,2.78,2.78,0,0,0,.32-2.73c-.83-2,0-4.11-.27-6.14.79-2-.13-3.37-1.8-4.51a48.41,48.41,0,0,0-1.65-11.75,20.19,20.19,0,0,0-1.31-3.26,21.8,21.8,0,0,1-1.86-4.51c-.29-1.66-1.43-2.69-2.09-4-1-2-1.8-4.11-2.77-6.13s-2.15-4.21-3.25-6.31a3.74,3.74,0,0,0-.64-.84c-1.35-1.43-3.63-1.92-4.18-4.16-1.5-1.34-3-2.68-4.53-4a4,4,0,0,0-1.16-.8c-1.93-.72-3-2.28-3.92-3.94-.41-.72-.8-1.44-1.19-2.16A4.57,4.57,0,0,1,123.2.93a12,12,0,0,1,1-.9c1,0,2.16-.08,3.32,0a2.91,2.91,0,0,1,1.92.7c1,1.36,2.45,1.31,3.82,1.61a15.06,15.06,0,0,0,4.81,3.53,11.64,11.64,0,0,1,4.25,4.15c.33.48.6,1.11,1.07,1.37,2.93,1.68,4.26,4.66,6.06,7.26.19.28.16.77.4,1,2,1.61,2.87,4,4.3,6A52.54,52.54,0,0,1,158.46,33c.52,1,.7,2.25,1.7,3.06a2.24,2.24,0,0,1,.61,1.25,21.79,21.79,0,0,0,1.92,5,13.69,13.69,0,0,1,.44,2.26c.17.69.53,1.33.65,2a19.9,19.9,0,0,1,.14,2.45,4.58,4.58,0,0,0,.16,1.76c1.08,2,1,4.31,1.67,6.43.18.61-.12,1.35,0,2a12.33,12.33,0,0,0,.84,2,1.54,1.54,0,0,1,.11.7,9.42,9.42,0,0,0,.1,3.77c.36,1.31-.14,2.84.15,4.18s-.2,2.54-.14,3.81c.11,2-.25,4,.45,6a4,4,0,0,1,.09,2.09,14.51,14.51,0,0,0-.68,4.53,4.08,4.08,0,0,0-.85,2.5c-.12.86.56,1.25.5,1.76a10.17,10.17,0,0,1-1,2.22c-.26.64-.42,1.32-.66,2A38.21,38.21,0,0,0,162.27,102.89Zm-3.34-37.22v-.8c.22-.19.45-.37.64-.57,0,0-.07-.19-.12-.28-.13.08-.35.14-.39.26a2.14,2.14,0,0,0,0,.67l-.53.34.53.29c.22.64.58.77,1.26.26Zm-5,29.86,1.95,1.23c0-1.54-.33-2-1.34-1.86-.2,0-.35.46-.53.7a1.69,1.69,0,0,0-.27.12s0,.13-.05.2Zm.92,14.46a17.82,17.82,0,0,0-.63-1.74,2.58,2.58,0,0,1,.21-3c.13-.17-.11-.61-.22-1.15l-2.75,1.65c-.4,1.6-.64,3.08.38,4.54Zm-11.43,16.18-3.77-.63-.15,2.51C141.24,128.6,142,127.26,143.42,126.17Zm12.46-82.35c.22.73-.78,1.16,0,1.7,1.52-.11,1.71-1.26,2-2.58-.82-.06-1.62-.14-2.42-.16-.12,0-.25.26-.38.42Zm10.16,26-1.57-1.18c-.54-.42-.85-.31-1.2.54-.14.32-.26.65-.44,1.1l2.38.79c.18-.15.29-.21.34-.31S165.76,70.41,166,69.86ZM156.56,51.3a1,1,0,0,0,.93-1.16c-.07-.7-.55-1-1.16-1a.73.73,0,0,0-.89.75A1.21,1.21,0,0,0,156.56,51.3Zm-20.82,85.29c-.62-1.25-.61-1.3-1.23-1.45a1,1,0,0,0-.86.23,1.08,1.08,0,0,0,.08.92C134.24,137.07,134.4,137.07,135.74,136.59ZM165.22,75.1c0-.72,0-1.44-.1-1.47a9.72,9.72,0,0,0-2.13,0Zm-5.1,25.25a2.09,2.09,0,0,0-.22-.44c-.33-.34-.69-.6-1.1-.17a.86.86,0,0,0-.12.53,6.09,6.09,0,0,0,.93.25C159.71,100.53,159.81,100.45,160.12,100.35ZM156,40.66a.63.63,0,1,0-.24.5C155.88,41.08,155.92,40.83,156,40.66Zm-21.1-28.38a5.5,5.5,0,0,0,1,.44c.07,0,.29-.33.28-.49s-.2-.39-.31-.58Zm24.47,75.89a2.76,2.76,0,0,0-.32-.49c-.23-.25-.53-.44-.63.09a.62.62,0,0,0,.29.53C158.87,88.36,159.13,88.22,159.36,88.17ZM153.58,103a2,2,0,0,0-.57-.1c-.35.08-.36.28,0,.39a1.31,1.31,0,0,0,.57-.08S153.57,103,153.58,103Zm3.13-10.14-.37.35a1.73,1.73,0,0,0,.59.18c.13,0,.25-.2.38-.32Zm-9.39,31-.18-.11,0,.17Zm11.1-33.54.21.11,0-.18Z"/><path d="M111.19,123.39c-2.16-1-2.18-3.18-3.5-4.27a46.81,46.81,0,0,1,.61-5.34,13.4,13.4,0,0,1,1.72-4.62,52.77,52.77,0,0,0,2.71-4.57,9.68,9.68,0,0,1,1.5-2.36c2.59-2.49,3.43-5.87,4.82-9,.43-1,.8-2,1.16-3s.73-2.25,1.09-3.38a1.34,1.34,0,0,0,0-.35c.19-2,1.44-3.75,1.23-5.87-.2-1.91.57-3.73.77-5.6.14-1.24.71-2.45.13-3.82-.28-.64.32-1.6.26-2.4a11.45,11.45,0,0,0-.72-2.34c.9-1.55-.16-2.68-.77-3.95a5.7,5.7,0,0,1-.29-1.73,24.52,24.52,0,0,0-2.11-8.19A33.6,33.6,0,0,1,118.45,49a7.62,7.62,0,0,0-.48-1.34c-2-3.44-3.84-7.06-6.72-10a17,17,0,0,1-2-2.86c-.58-.88-1.13-1.78-1.62-2.55a3.37,3.37,0,0,1,1.86-2.73,8.83,8.83,0,0,0-.83-1.06c-.42-.39-.92-.69-1.38-1,.49-1.19-1.15-2.44.12-3.57l-2.57-3.8c.84-2,.88-2.08,2.16-1.85,2,.35,3.9.85,5.85,1.29,1.93,1.81,4.9,2.52,5.69,5.59.27,1.06,2.07,2.47,3.65,3.59a5.09,5.09,0,0,1,.75.72l4.5,5a17,17,0,0,1,.22,2.11,5,5,0,0,0,.85,2.65c.82,1.42,1.81,2.79,1.93,4.53a1.39,1.39,0,0,0,.53.88,2.11,2.11,0,0,1,.86,1.84,6.43,6.43,0,0,0,2.19,4.79l-.6,1.34a6.73,6.73,0,0,1,1.89,4.69c0,.93.35,1.85.42,2.79.1,1.36.1,2.72.31,4.1a32.86,32.86,0,0,0,.92,5.21,3.87,3.87,0,0,1,0,1.36,39.67,39.67,0,0,0-.29,5c.27,4.18-.73,8.2-1.25,12.29a3,3,0,0,1-.31,1c-1.2,2.32-1.32,4.93-1.9,7.41A12.29,12.29,0,0,1,132.4,99c-1.57,3-3.2,6-4.86,9a18.41,18.41,0,0,1-1.5,2,6,6,0,0,0-1,1.45c-.43,1.34-.5,2.86-2,3.54a7.12,7.12,0,0,1-2.42,3c-1.11.89-1.85,2.1-2.94,3a8.49,8.49,0,0,1-5.1,2.2C112.07,123.28,111.6,123.35,111.19,123.39Zm11.45-23.46c-.88.66-.89.72-.43,1.15a2.52,2.52,0,0,0,3.13.56c0-.49,0-1-.68-.73-1.11.4-1.73-.08-2.11-1.07a1.17,1.17,0,0,0,.26-.1s0-.11.07-.17ZM124,41.4a8.72,8.72,0,0,0-2.71,3.45c-.06.14.13.4.25.74.39,0,1,.17,1.23,0s.29-.81.46-1.37c.64.73,1.13,1.37,1.71,1.91.16.15.59,0,1,0l-.79-2.36-1.4-.47.12-2c.36.06.71.11.42-.45Zm-1.5,6.48a1.37,1.37,0,0,0,0-.28c0-.05-.11-.08-.16-.12l.32.3c.89,1.63,2.45,2.89,2.55,5,.9.05,1.33.94,2.19.82l.81-1.35-1.33-1,.1.11-.75-2.23c-.16-.5-.33-1-.54-1.65ZM117,110.7c-.11,0-.29-.1-.33-.06-1.06,1.12-1.3,2.71-2.41,3.84l1.18,1.25c1-.73,2-1.14,2.25-2.51A2.82,2.82,0,0,0,117,110.7Zm9.33-47.38c-.15,2,1.2,3.19,1.31,4.79,0,.11.33.2.54.31A1.39,1.39,0,0,0,129,67a5,5,0,0,0-.18-1c-.23-.77-.5-1.52-.77-2.31Zm.28-4.5c.23.71.45,1.44.7,2.16,0,.08.18.11.28.16.9-.14.7-1.11,1.18-1.57C128.27,58.87,127.67,58.36,126.64,58.82Zm-6-26.36c-2.19-.57-2.68-.42-3.17.8Zm-1.57,70.21.72-.34-.49-.78c-.18.12-.5.24-.5.36A2.18,2.18,0,0,0,119.09,102.67Zm7.55-46.07a3.63,3.63,0,0,0-.58-.16c-.08,0-.18.12-.26.19.15.1.3.27.46.29S126.51,56.72,126.64,56.6Zm-5.78,53.58c-.07,0-.2,0-.21.1a.47.47,0,0,0,0,.31c.11.27.24.24.31-.11C121,110.39,120.89,110.29,120.86,110.18ZM124.46,93l.07-.34-.25.21Zm-10.52,24.41c-.08-.07-.16-.21-.25-.22s-.18.13-.27.2c.08.08.16.22.25.22S113.85,117.44,113.94,117.36Zm2.64-81.15.25-.22c-.08-.08-.16-.21-.24-.21s-.17.13-.25.2Zm10.85,41.87c-.08-.08-.19-.24-.24-.23-.35.11-.36.29,0,.43C127.22,78.3,127.34,78.15,127.43,78.08Zm-1,1.46.19.12,0-.18Z"/><path d="M105.84,89a8.44,8.44,0,0,0-1.59,1.39,8.66,8.66,0,0,0-.75,2c-.84,2.14-2.62,3.58-4,5.31-1.6,2-3.13,4.13-5.86,4.8-.4.1-.72.56-1,.83l-2.44-.78c-2.08-2.49-2.08-5.42-1.86-8,.63-1.39,1-2.51,1.6-3.51s.76-2.14,1.66-3.07c1.12-1.16,1.11-3.09,2.3-4.32a.59.59,0,0,0,.09-.34c0-1.88.63-3.68.83-5.51A24,24,0,0,1,96,71.9a17.62,17.62,0,0,1-1.2-6.9,3.23,3.23,0,0,0-.64-2c-1.6-2.22-2.45-4.84-3.86-7.15-.61-1-1-2.15-1.72-3.08a7.38,7.38,0,0,1-.52-8.89c.12-.2.26-.39.4-.59a6.6,6.6,0,0,1,6-1c.92.68,2.07,1.51,3.19,2.38a5.7,5.7,0,0,1,1.24,1.21c.5.78.68,1.91,1.35,2.38s1,1.26,1.59,1.82c.76.75,0,2,1.08,2.81.77.59.92,1.82,1.24,2.83a8.41,8.41,0,0,0,2.27,3.05,4,4,0,0,1,1.34,2.78,8.67,8.67,0,0,0,.58,2,3.67,3.67,0,0,1,.19,2.73,2.85,2.85,0,0,0,.06,2.09c.82,1.61.09,3.2.1,4.78,0,1.29-.42,2.58-.4,3.86a27.49,27.49,0,0,1-.62,3.79,17.82,17.82,0,0,1-.77,3.4A40,40,0,0,0,105.84,89ZM93,48.51a26,26,0,0,0-1,2.72.94.94,0,0,0,.46.79,1,1,0,0,0,1,0A1.59,1.59,0,0,0,94,50.82,12.34,12.34,0,0,0,93,48.51Zm7.7,12.16a3.66,3.66,0,0,0-.11,1.12c0,.27.33.49.53.72,0,0,.26-.07.27-.14.08-.31.23-.67.13-.92S101.08,61,100.73,60.67ZM104,76.76c-.21-.15-.4-.37-.48-.33a3.49,3.49,0,0,0-.68.48c.11.13.28.38.33.36A7.78,7.78,0,0,0,104,76.76ZM95.33,52.69l.59-.25c-.07-.08-.15-.24-.23-.24a3.37,3.37,0,0,0-.61.1C95.17,52.43,95.25,52.56,95.33,52.69Zm4,27.43-.13.17.23,0Z"/><path d="M3.39,102.05l.33.23L3.48,102Z"/><polygon points="152.2 108.21 152.12 108.02 152.32 108.05 152.2 108.21"/><path d="M126.86,51.32l-.33.36c0-.08,0-.2.11-.22a1.09,1.09,0,0,1,.32,0Z"/></svg>