<svg id="Layer_2" data-name="Layer 2" xmlns="http://www.w3.org/2000/svg" viewBox="0 0 167.47 145.56"><title>Artboard 1</title><path d="M32.47,109.65c-.2-3.94-2.75-6.15-5.67-8.2-1.48-.1-2.94.45-4.5,0a20.6,20.6,0,0,0-4.25-.23c-1.53-.07-3.08-.07-4.61-.24-1.87-.2-3.52,0-4.77,1.61-.12.15-.41.16-.76.27a5.71,5.71,0,0,0-1.34-1.39c-.46-.24-1.16,0-1.73-.07a12.39,12.39,0,0,1-1.76-.55c.19-2.31-.42-4.54.51-6.72a2.48,2.48,0,0,0-.1-1.36A29.75,29.75,0,0,1,2.2,85.13a15.4,15.4,0,0,0-.37-1.71A8.55,8.55,0,0,1,1.69,81C2.89,74.37,2.93,73.82,2.74,69c-.05-1.24-.8-2.54.16-3.74-.63-1.46-.12-3-.31-4.48a12.54,12.54,0,0,1,0-4.57,5.71,5.71,0,0,0-.08-1.36,7.7,7.7,0,0,1,0-2.8,7.1,7.1,0,0,0,0-4.77,4.28,4.28,0,0,1,3.93-1.18,3.25,3.25,0,0,0,2.6-1,8.43,8.43,0,0,0,3.37.13c2.68-.34,5.32-1.05,8-.87.83.06,1.66.07,2.47.21,3.05.55,5.58-.2,7.48-2.75.21-.27.64-.39.8-.68,1.36-2.42,3.65-3.94,5.58-5.81a13.89,13.89,0,0,0,2.35-2.63,18.58,18.58,0,0,1,3.29-3.67c.94-.9,1.79-1.88,2.68-2.83A9.34,9.34,0,0,1,46.35,25a18.94,18.94,0,0,0,4.81-5.58,8.09,8.09,0,0,1,1.19-1.3,17,17,0,0,1,2.49-2.52C56,14.82,56,13.22,57.3,12.66c1.19-.5,2.28-1.23,3.47-1.74a3.28,3.28,0,0,0,2.32-2.41,3.45,3.45,0,0,1,1.3-1.62C65,6.36,65.8,6,66.47,5.54S67.55,4.62,68.29,4c.1-.44.25-1.12.45-2L70.68,0l3.11.35c.74,2.51,1.5,4.81,1.21,7.4a19.43,19.43,0,0,0,.54,7.06A13.44,13.44,0,0,1,75.75,18c0,1.28-.3,2.54.54,3.77.28.42-.4,1.47-.13,1.94.6,1.06-.22,1.81-.32,2.68-.11,1.06,1.41,1.39.93,2.5C77.28,31,76.62,33,76.06,35A4.91,4.91,0,0,0,76,37.74a15.35,15.35,0,0,1,.38,3.46,10.13,10.13,0,0,1-.13,3.86c-.43,1.12.08,2.26-.51,3.33a3.41,3.41,0,0,0-.08,2.35c.39,1.82.13,3.73.45,5.62.19,1.06-.46,2.26-.74,3.45.53,1.55,1.42,3.14,1.12,5-.22,1.39.58,2.66.12,4.15-.35,1.13.13,2.53.31,3.8a25.36,25.36,0,0,0,.63,3.46,6.7,6.7,0,0,1,0,3.84,2.25,2.25,0,0,0-.07,1.35,1.7,1.7,0,0,1-.09,2,1.78,1.78,0,0,0-.19,1c0,.9,1,1.65.33,2.67-.6.85.19,1.74-.07,2.74-.36,1.37.38,2.92-.27,4.4a1.49,1.49,0,0,0,.24,1.35c1,.85.51,1.9.58,2.88a16.06,16.06,0,0,0,.16,2.09,2.62,2.62,0,0,1-.18,2,2.22,2.22,0,0,0-.18,1.38c.54,3.64,0,7.29.07,10.93s-.11,7.32-.15,11-.09,7.35,0,11a22.94,22.94,0,0,0,.77,3.79l-1.2,2.09.42,1.69a1.67,1.67,0,0,1-2,1.09c-2-.58-4-1.31-6-2L67,140H65.45c-.22-.19-.46-.3-.57-.49-.47-.81-.86-1.66-1.36-2.45a3.38,3.38,0,0,0-1.15-1.27,7.27,7.27,0,0,0-2-.43c.33-.95-.45-1.38-1-1.54a3.53,3.53,0,0,1-2.73-2.51c-.37-1.38-1.65-2-2.47-3-1.2-1.4-2.8-2.43-3.71-4.13a1.78,1.78,0,0,0-1.11-.79,5.4,5.4,0,0,1-4.1-3.5,7.3,7.3,0,0,0-3.41-3.46c-2.12-1-3.49-2.84-5.21-4.25C35.36,111.16,34.23,110,32.47,109.65ZM27.93,73a1.22,1.22,0,0,0-.09-.27s-.11-.06-.16-.09l.34.27,0,.79a.81.81,0,0,0-1,.68.58.58,0,0,0,.31.49.61.61,0,0,0,.54-.24,4.18,4.18,0,0,0,.09-1l.54-.32Zm-10-5.72c0-.27.1-.69-.41-.3l.5.22A8.82,8.82,0,0,0,19,68c.08,0,.41-.2.52-.38s-.15-.46-.24-.46A12.81,12.81,0,0,0,17.93,67.27Zm6.53-14.95c-.45,0-.91-.08-1.36-.07-.67,0-.72.17-.42,1.12l1.67-1.15.5-.29-.23-.16ZM10.17,50a5.52,5.52,0,0,0,4-.69c.45-.31,1-.65.85-1.47-1.72-1.26-3.18.15-4.82.41Zm47.37,68.23c1.87.3,2.23.27,2.57-.14a2.2,2.2,0,0,0,.13-2.89c-1.15-.33-1.8.36-2.49,1.08C57.69,116.88,57.62,117.47,57.54,118.27ZM29.39,78.21,26.66,78c.22.79-.89,1-.44,1.85a19.12,19.12,0,0,0,2,.32C28.92,80.22,29.23,79.71,29.39,78.21Zm20.06,35c.86-.49.75-1.31.68-2.09a1,1,0,0,0-1.32-.64,7.27,7.27,0,0,0-1.09,1C48.05,112.57,48.54,113.14,49.45,113.25ZM65.8,75.52a2.85,2.85,0,0,0,2.57-2.39c-2,.35-2.09.32-2.31.8A6.26,6.26,0,0,0,65.8,75.52ZM40.71,96.74c-.74-1-1.1-1.18-1.57-.76a1.67,1.67,0,0,0-.58.84c0,.3.24.63.41,1a6.75,6.75,0,0,0,1-.39A6.24,6.24,0,0,0,40.71,96.74ZM24,82.81c1.67-.31,2.54-.46,3.39-.65.15,0,.26-.29.38-.45C25.81,81.25,25.81,81.25,24,82.81ZM70.07,67.7c-1.26.81-1.28.81-1.64,2.88.21,0,.56,0,.6-.1C69.41,69.57,69.73,68.63,70.07,67.7ZM18.88,65c.07.19.09.48.24.57a1.07,1.07,0,0,0,1.51-.3.61.61,0,0,0,0-.6A1.08,1.08,0,0,0,18.88,65Zm13.7-16.2c-.36.39-.69.6-.78.9s.07.77.22.81a4.09,4.09,0,0,0,1.26,0,5.68,5.68,0,0,0-.14-.92A4.3,4.3,0,0,0,32.58,48.84Zm-19,31.52a1.22,1.22,0,0,0-2,.19c-.1.13.17.56.3.92a13.6,13.6,0,0,0,1.3-.57C13.34,80.8,13.42,80.55,13.54,80.36Zm3.64-10.08A9.79,9.79,0,0,0,15,70.07c-.55.06-.67.55-.18,1,.52-.1,1.09-.2,1.64-.34A3.87,3.87,0,0,0,17.18,70.28Zm17.76,3.59a4.26,4.26,0,0,0-.87.4c-.11.08-.1.37-.08.55s.18.18.27.17a3,3,0,0,0,1-.18.62.62,0,0,0,.26-.54C35.44,74.12,35.16,74,34.94,73.87ZM59.23,42.72a3,3,0,0,0-.78-.29c-.09,0-.21.29-.32.45l.7.46ZM5.73,57.27c.73.51,1.09.77,1.45,1s.7.08.72-.25a.91.91,0,0,0-.47-.73A7.22,7.22,0,0,0,5.73,57.27ZM40.52,101.8c-.42.76-.42.76,0,1.91C40.73,103.07,41.11,102.43,40.52,101.8Zm23.62,27.09c-1.1.13-1.07.17-1.37.42s-.31.36,0,.49c.1,0,.27.08.33,0C63.43,129.58,63.71,129.3,64.14,128.89ZM12.62,83.05c-.26,1-.26,1,.78,1.6C13.77,83.81,13.4,83.33,12.62,83.05Zm42.45,37.32c1.91.38,2,.36,1.63-.87ZM31.62,60.87l-.5.48.7.58c.12-.16.39-.39.35-.46A3.11,3.11,0,0,0,31.62,60.87ZM21.52,76.81l.59-.3a2.55,2.55,0,0,0-.48-.66c-.08-.06-.37.15-.56.24Zm-8,20c-.3-.24-.56-.46-.84-.66,0,0-.23.21-.21.24a3.07,3.07,0,0,0,.53.7S13.34,96.89,13.55,96.77Zm17.32-21.6a8.35,8.35,0,0,0,.78.4c.06,0,.18-.09.28-.14l-.52-.68Zm-18.17,13-.81-.54c-.11.18-.32.38-.31.56,0,.36.26.61.66.45C12.4,88.54,12.51,88.33,12.7,88.13ZM69.94,73l-.2-.55c-.08,0-.21.08-.22.14a3.47,3.47,0,0,0,0,.56ZM14.86,72.4c-.21-.08-.41-.23-.59-.21s-.23.25-.34.39c.19.08.39.23.57.21S14.74,72.54,14.86,72.4Zm-3.55.65-.12-.49a.5.5,0,0,0-.06.57Zm22,36c.06-.08.19-.17.18-.24a2.85,2.85,0,0,0-.18-.54,4,4,0,0,0-.18.56C33.08,108.92,33.2,109,33.27,109.08ZM66,89a2.86,2.86,0,0,0,.61.24c.06,0,.16-.15.24-.23a1.77,1.77,0,0,0-.49-.35C66.29,88.66,66.14,88.9,66,89ZM9.18,93.19a1.63,1.63,0,0,0-.6-.11c-.37.07-.38.28,0,.39a1.25,1.25,0,0,0,.6,0S9.17,93.27,9.18,93.19Zm33.18-2.31-.49.3c.09.07.18.2.26.19a3.33,3.33,0,0,0,.6-.16ZM7.47,91a1.39,1.39,0,0,0-.33-.1s-.07.13-.1.19a1.67,1.67,0,0,0,.32.08S7.44,91.09,7.47,91ZM31.41,67.45a4,4,0,0,0-.62-.1c-.1,0-.19.13-.28.2a1.54,1.54,0,0,0,.55.29C31.16,67.85,31.29,67.6,31.41,67.45Zm10.45,2.49.11-.21-.19,0ZM30.33,49.73l.2.14,0-.22ZM39,102c.07-.07.19-.13.19-.19s-.11-.14-.17-.21-.18.12-.18.19S39,101.89,39,102ZM19.69,91.66V92l.24-.17Z"/><path d="M109.28,71.16c-1.6-.75-2.44-2.3-3.9-2.16-1.51-1.84-2.8-3.54-4.23-5.09a8.78,8.78,0,0,0-2.32-1.27c-.34-.56-.15-1.66-1.32-2-1.69-.53-2.57-2.42-4.39-2.78-.77-1-1.54-2-2.24-3,.51-1.32,1-2.43.06-3.54a2.21,2.21,0,0,1-.26-.65L89.33,47,91,42.81l2.77-1.2c.85.19,1.78.36,2.69.62a6.06,6.06,0,0,1,1.6.71,28.94,28.94,0,0,0,2.9,2,24.09,24.09,0,0,0,3.48,1.12,5.91,5.91,0,0,0,3.36,3.34c.73.27,1.26,1,1.88,1.59,0,1.58,1.3,1.88,2.34,2.6A23.44,23.44,0,0,1,115.61,57c1.51,1.61,3.45,2,5,.61a24.22,24.22,0,0,0,4-4c1.74-2.43,4-4.41,5.84-6.68.07-.1.19-.16.25-.25,2-2.91,5-4.59,8-6.38a5.56,5.56,0,0,1,8.53,3.63c.61,2.43,0,4.65-.63,6.86-1,3.48-3.36,6.18-5.85,8.73-1,1-2,2-3,3A9.75,9.75,0,0,1,135,64.78c-2.08,1-2.33,3.13-2.72,5.08a1.61,1.61,0,0,0,1,1.71c.41.2,1.15.06,1.3.32.74,1.25,2.26,1.89,2.76,3.16.66,1.65,2,2.61,3.13,3.71a6.8,6.8,0,0,1,2.24,2.69,1.65,1.65,0,0,0,.6.82,8.77,8.77,0,0,1,3,4.29,7.27,7.27,0,0,0,1.21,2.14,7.27,7.27,0,0,1,1.87,4.85c0,1,.19,2.07.29,3.19l-1.54,2.59-4.31,1.94a16.16,16.16,0,0,1-2.37-.61,7.13,7.13,0,0,1-4.29-3.51,3.51,3.51,0,0,0-1-1.45c-2.37-1.63-3.92-4.06-6-6-1.43-1.35-2.91-2.79-3.25-4.87a14,14,0,0,0-6.36-3.28c-1,1.32-2,2.74-3.16,4-3.35,3.76-6.5,7.71-10.07,11.27a19.14,19.14,0,0,1-3.73,2.69c-1.41.85-3,1.39-4.16,2.67a3.79,3.79,0,0,1-2,.69c-1.14.23-2.3.36-3.6.56a11.35,11.35,0,0,0-1.78-3.23c-.71-1-.8-2.46-2-3.28.52-1.39.94-2.71,1.51-4a11,11,0,0,1,1.34-2c.9-1.22,1.84-2.43,2.79-3.62a11.75,11.75,0,0,1,1.38-1.6,29.66,29.66,0,0,0,4.64-5.77,13.9,13.9,0,0,1,1.55-1.89c1-1.13,2.15-2.19,3.14-3.35a2.62,2.62,0,0,0,.66-1.58C107.2,71.8,108.33,71.79,109.28,71.16Zm17.06,6.14a1,1,0,0,0,0-.3s-.11-.08-.18-.12l.33.32.21.16ZM93.51,51.45l2.08,1.16c0-1.75-.29-2-2.29-2.29.11.42.22.82.32,1.22-.2.11-.46.17-.58.33s0,.38,0,.57c.14-.1.36-.18.41-.32A2.14,2.14,0,0,0,93.51,51.45Zm14.37,12.18c-.1-.56-.48-.69-.95-.54a.58.58,0,0,0-.32.48c0,.36.22.57.62.4l.6-.28c.07.44,0,1.11.23,1.3.87.61-.1,1.51.53,2.22l2-.12C109.85,65.68,109.73,64,107.88,63.63Zm34.19,25,.06.05-1-.79c-.67,1-.67,1-2,.9-.48,1-1.75,1.71-1.82,3.08,1.41,1,1.63-.45,2.46-1,.18.57.35,1.1.57,1.81,1.08-1.08,2.34-1.9,2.32-3.61ZM111.38,61.92c.33-.3.8-.82,1.35-1.24a18.88,18.88,0,0,1,1.64-1c-.09-1-.12-1.83-1-2.12l-1.18.32-1.07-1.28c-2.64.59-4.78,1.33-6.61,3.13l1,1.59Zm-12.71-12,1.61-1.83-3.07.17.16-1.56-1.21-1.27c-2,.62-2,.62-2.54,2.18.75,1.63,2.21,1.94,3.89,1.94l-1,1.42c1.19.88,1.2.94,1.79.9.29,0,.57-.33.84-.5C99,50.82,98.84,50.4,98.67,49.88Zm15.72,30.36c-1.11,0-1.79,0-2.46,0a5.18,5.18,0,0,0-1,.2c.33,1.32-1.2.84-1.48,1.54a1.49,1.49,0,0,0,0,.67c0,.31.21.53.09.94-.34,1.16,0,1.44,1,1.17.66-.18,1.33-.34,2-.47a1.79,1.79,0,0,0,1.44-1.37A25.29,25.29,0,0,0,114.39,80.24Zm9.55-12.08-1.36,1.68,1.22,1.6c.49,0,1.06.1,1.62.08.19,0,.37-.24.55-.37C126.15,69.57,124.38,69.33,123.94,68.16Zm7.45,12.6L129,81.85c1,1.06,2.11,1.51,3.46.74.15-.08.19-.36.35-.67ZM102.65,52.34c-.64.95-.55,1.72.46,2.3l.86-.91,1,1.05C104.79,53,103.94,52.47,102.65,52.34Zm12,26.83a6.32,6.32,0,0,0,1-1.63c.09-.41-.36-.8-.91-.82-.63.41-1.49.61-1.5,1.65Zm7.78-.33c1.2-.9,1.83-1.43,1.8-2.36,0-.24-.37-.57-.63-.65s-.66-.08-.67.49A20.58,20.58,0,0,1,122.46,78.84Zm8.38-1.19a5.38,5.38,0,0,0-1.16-.69c-.11,0-.52.37-.53.6,0,.47.25.87.78.77C130.2,78.28,130.42,78,130.84,77.65Zm-8.27-5.93c-.07.09-.22.21-.2.27a2.36,2.36,0,0,0,.4.79c.07.08.4-.09.61-.15a1.93,1.93,0,0,0-.21-.57A2.34,2.34,0,0,0,122.57,71.72Zm2.26-7.1a2.67,2.67,0,0,0-.53-.16c-.08,0-.18.1-.27.16.14.1.27.28.4.28S124.7,64.72,124.83,64.62Zm-11.61,2.09-.2.15.41,0Zm17.31-5.54-.19-.24-.22.21.3.24Zm1.35-1.41-.16-.11,0,.16Z"/><path d="M96.12,48.1l.25.24c-.09.07-.22.22-.27.2C95.74,48.4,95.76,48.24,96.12,48.1Z"/><path d="M142.07,88.6l-.29.46c-.39-.57.17-.33.35-.41Z"/></svg>