<svg id="Layer_1" data-name="Layer 1" xmlns="http://www.w3.org/2000/svg" viewBox="0 0 83.46 90.48"><path d="M61.25,69.3a16.59,16.59,0,0,0-4.44-.82c-2.1.08-4.2,0-6.3,0a2.19,2.19,0,0,1-.77,0,4.49,4.49,0,0,0-2.26-.22A15.2,15.2,0,0,1,45.23,68c-1.49-.1-3,.21-4.46-.17-.09,0-.22.09-.33.14a5.5,5.5,0,0,1-2.51.28,22.59,22.59,0,0,1-2.47,0c-.37,0-.76-.12-.81.51,0,.31-1.23.37-1.48.1a.16.16,0,0,1,0-.12c.33-.54-.19-.57-.45-.73-.58-.36-.58-.34-.37-1.05a2.7,2.7,0,0,1,.12-.49c.09-.19.25-.41,0-.51s-.37-.41-.65-.08-.8.36-1.27.14c-.68-.33-1.37-.6-2.06-.9a.26.26,0,0,1-.11-.41s.07-.08.1-.08c.46.05.58-1.22,1.3-.33.11.14.35-.16.52-.28.35-.24.68-.4.89.18.06.15.23.25.33.39.25.32.44.16.56-.09s.18-.47.49-.16.4.59.84.49c0-.1.13-.22.21-.13s0,.17-.12.22a1,1,0,0,0,0,1.38,1.7,1.7,0,0,0,1.67.88,2.24,2.24,0,0,0,1-.18c.37-.22.68.34,1.08.17.1,0,.2,0,.27-.15.57-1.25.63-1.38,1.21-1.56s1.24-.29,1.32-1.1a.3.3,0,0,1,.18-.17c1-.25,1.06-1.58,2.13-1.71,0,0,.06-.24.14-.32.51-.53.22-1.6,1.21-1.81,0,0,.06-.15.07-.23a.65.65,0,0,1,.77-.66c.4,0,.42-.23.57-.51a1.36,1.36,0,0,1,.87-.78.72.72,0,0,0,.63-.54c.15-.5.64-.75.85-1.2s.88-.42,1.35-.55c.1,0,.27,0,.25-.17s-.22-.07-.34-.09-.3-.13-.14-.31c.61-.71,1.31-1.34,1.92-2.05s.8-1.81,1.8-2.22c.1,0,.16-.19.21-.31.64-1.4,1.83-2.41,2.62-3.72a8.79,8.79,0,0,0,1-2A4.88,4.88,0,0,1,57,43a10.24,10.24,0,0,0,1.45-2.52,1.77,1.77,0,0,0,.3-1.28c-.06-.21,0-.33.12-.42.51-.34.38-.7.15-1.16s-.23-.66.45-.79c.28-.06.58-.1.33-.45s-.05-.83.15-1.17.48-.57,0-.93a.55.55,0,0,1,.08-.7c.21-.2.69,0,.75-.37s-.53-.3-.58-.64,0-.43,0-.64.08-.54-.13-.73c-.41-.36-.48-.68,0-1,.21-.17.14-.36,0-.57s-.32-.53-.24-.66c.22-.37,0-.56-.19-.76s-.51-.54-.06-.89c.18-.14.22-.48,0-.58-.83-.49-.6-1.29-.73-2-.09-.52,0-1.27-.46-1.51-.63-.33-.64-.8-.72-1.33s-.14-.82-.66-1a1.77,1.77,0,0,1-.64-.61,3.51,3.51,0,0,0-1.87-1.13c-.36-.09-.75-.45-1.16-.1-.28-.41.06-.95-.3-1.34,0,0,.06-.15.1-.22a.35.35,0,0,0-.17-.53c-.47-.16-.61-.56-.77-.94a.75.75,0,0,0-.81-.5c-.21,0-.43,0-.64,0-1,0-1.33-.25-1.37-1.23,0-.63-.4-.8-.83-1a15.65,15.65,0,0,0-1.6-.29c-.2-.07-.45.12-.41-.26,0-.57-.07-1-.69-1.2-.22-.08-.37-.35-.57-.51a7.2,7.2,0,0,0-3-1.67,13.2,13.2,0,0,1-3.07-1.09c-.22-.12-.47-.36-.7-.21-.67.41-1.28.1-2,0A16.18,16.18,0,0,1,33,7.32a2.62,2.62,0,0,0-.75-.08c-.26,0-.57.08-.76,0a1.48,1.48,0,0,0-1.44,0A2.22,2.22,0,0,1,28,7.28a1.24,1.24,0,0,0-1,0c-1.13.56-2.4.39-3.55.76a3.53,3.53,0,0,1-1.36.25c-.29,0-.76-.09-.86.06-.39.59-1.16.47-1.58.94-.13.16-.37.35-.36.5.06.55-.43.32-.57.48-.37.41-.56.18-.82-.08a.23.23,0,0,0-.41.07.47.47,0,0,1-.47.34,1.39,1.39,0,0,0-1.31.81.93.93,0,0,1-1,.48,1,1,0,0,0-1.08.8c-.14.44-.14.75-.7.51-.66.45-1.49.7-1.89,1.44a1.93,1.93,0,0,1-.74.86c-1,.4-1,1.55-1.77,2.09a.23.23,0,0,0-.07.23c.24.52.33,1.12.86,1.51a1.41,1.41,0,0,0,1.43.09c.4-.13.51,0,.51.41a.51.51,0,0,1-.36.58.84.84,0,0,0-.54.9c.14.38-.24.91.33,1.18A.51.51,0,0,1,11,23c-.16.68.78,1.15.34,1.87.58.77.64,1.81,1.4,2.48a1.58,1.58,0,0,1,.58,1.36,1.08,1.08,0,0,0,.6,1.05,2.63,2.63,0,0,1,.63.41c.23.27.46.18.65,0a3.34,3.34,0,0,1,1.73-1,2,2,0,0,0,.95-.58c.37-.42.95-.65,1.09-1.26a.73.73,0,0,1,.69-.48c1.29.09,2.17-.66,3.19-1.28A22.67,22.67,0,0,1,26.69,24a2.14,2.14,0,0,1,.51,0,6.7,6.7,0,0,0,1.88-.21,2.42,2.42,0,0,1,1.62.13,3.24,3.24,0,0,0,1.85.34,1.25,1.25,0,0,1,.61.13c1.42.51,2.85,1,4.26,1.5A3.67,3.67,0,0,1,39.19,27a13,13,0,0,0,1.48,1.74,2,2,0,0,1,.31.55c.34.58.62,1.2,1,1.75a3.4,3.4,0,0,1,.62,2.87c-.22.84-.39,1.7-.67,2.54A37.24,37.24,0,0,1,40,40.57a2.25,2.25,0,0,0-.43,1.27.37.37,0,0,1-.25.39A3.53,3.53,0,0,0,37.16,44c-.18.24-.43.43-.63.65s-.45.38-.55.69a8,8,0,0,1-2.16,2.81,4.81,4.81,0,0,1-2,1.28,2.33,2.33,0,0,0-1.35,1,3.61,3.61,0,0,1-1.18,1c-.42.28-.31,1-.73,1.43-.06.05-.11.14-.18.18a3.82,3.82,0,0,0-1.23,1.5c-.07.1-.09.26-.18.33-.52.44-.91,1.17-1.79.85-.37-.13-.46.18-.47.39,0,.57-.12,1-.83,1.05-.26,0-.4.26-.5.51a1.37,1.37,0,0,1-.7.72c-.21.09-.47.18-.49.37-.06.63-.52.79-1,1a1.72,1.72,0,0,0-.85.68c-.5-.32-.64.12-.76.41A1.92,1.92,0,0,1,18.15,62c-.3.08-.46.16-.44.48a.7.7,0,0,1-.17.6c-.2.18-.4.34-.61,0-.07-.1-.14-.43-.22,0s0,.76-.44,1-1.1.17-.71,1c-.22.09-.39.32-.67.26a2.64,2.64,0,0,0-.48-.14c-.18,0-.45-.09-.52.2s.2.23.32.32.13.17.11.2c-.24.41-.09,1-.74,1.21-1.05.3-1.5,1.58-2.68,1.71a.14.14,0,0,0-.09.09,13.16,13.16,0,0,1-2,2.17c-.17.19-.42.34-.38.64a17.68,17.68,0,0,1-.3,3.15c0,1.16.38,2.26.31,3.41s0,2.15,0,3.22a1.51,1.51,0,0,0,1.1,1.37,4.36,4.36,0,0,0,1.65-.07,13.12,13.12,0,0,1,3.31-.16.51.51,0,0,1,.44.21c.36.43.74.34,1.13.06a1.09,1.09,0,0,1,1.41,0,1.12,1.12,0,0,0,1.2.21,2,2,0,0,1,1.94.1c.52.21.89.29,1.15-.27.08-.18.17-.3.36-.29a5.48,5.48,0,0,1,1.4.06c.49.13.94.64,1.51.21a3.53,3.53,0,0,0,1.61.23c1.07,0,2.15.06,3.21,0,.63,0,1.16.47,1.74.26a3.08,3.08,0,0,1,1.57,0,3.45,3.45,0,0,0,1.43,0c.51-.14,1.12.19,1.58.06s1,.18,1.57,0,1.18.13,1.73-.25c.06,0,.24,0,.35.09a1.88,1.88,0,0,0,1.8.43c.23-.08.63.36,1,.19s.66,0,1,.24c.51.45.76.43,1.2-.11a1,1,0,0,1,.9-.37,7.67,7.67,0,0,0,2.3,0,1.83,1.83,0,0,1,1.42.1c.84.43,1.8-.06,2.59.44.76-.55,1.61,0,2.42-.2a1.23,1.23,0,0,1,1.41.34c.18.23.48.14.73.14s.58.06.58.48c0,.27.11.31.23,0s.29-.26.5-.13c.41.24.89-.23,1.33-.11,1,.27,1.78.06,1.44-1a2.53,2.53,0,0,1,.08-1.43c.09-.5-.45-1,.11-1.51.17-.14-.13-.27-.12-.43s-.35-.36-.13-.56c.46-.43.17-1,.3-1.49s.55-1.23.31-1.85.21-1.18.28-1.77a.57.57,0,0,0,0-.13c-.4-.82,0-1.63.06-2.45a1.71,1.71,0,0,1,.35-1.45C62.27,70.21,61.9,69.45,61.25,69.3Zm-3.57-44h.07c.06.05,0,.1,0,.14s-.05,0-.06-.07S57.67,25.33,57.68,25.31Zm-1,1.27.07,0s0,.06,0,.07-.1,0-.14,0A.19.19,0,0,1,56.68,26.58Zm-1.29-6.43s0,0,.07,0,0,.06,0,.08-.1,0-.14-.05A.18.18,0,0,1,55.39,20.15Zm-1.2,14c-.06,0-.11.1-.18.11s-.22,0-.19-.15S54,34,54,34,54.13,34.08,54.19,34.12Zm-.49-14c.11,0,.22,0,.19.16s-.13.08-.19.07-.12-.07-.18-.12A1.08,1.08,0,0,1,53.7,20.1Zm-41.39-.54a.43.43,0,0,1-.45-.33c0-.14.09-.18.21-.16a.6.6,0,0,1,.43.39C12.44,19.49,12.37,19.56,12.31,19.56Zm9.89-7.15.07.08,0,.07-.1-.08ZM16,15.46a4.39,4.39,0,0,1,.3.36.25.25,0,0,1-.12.14c-.16,0-.32,0-.3-.26C15.91,15.63,16,15.57,16,15.46Zm-2.25,4.07c.05-.09.14-.22.23-.13s0,.18-.13.22-.13.22-.22.13S13.7,19.58,13.78,19.53ZM13.41,16s.06,0,.08,0,0,.1-.05.14a.18.18,0,0,1-.06-.08S13.4,16.07,13.41,16Zm-.13,4.85c-.18,0-.47,0-.45-.29s.43-.3.65-.46c.22.23.55.14.81.28s.19.44.07.71-.34.29-.57.1S13.51,20.92,13.28,20.89Zm2.81,5.27a.53.53,0,0,1-.21.11c-.43.07-.75-.35-1.2-.26a.25.25,0,0,1-.32-.28c0-.27.22-.42.55-.5l1.15.83S16.1,26.16,16.09,26.16Zm0-1.86c-.34-.08-.47.08-.65.24s-.34.05-.36-.19-.17-.46-.48-.25c-.15.09-.31.16-.46,0s-.23-.17-.25-.28.09-.27.16-.28a4.12,4.12,0,0,0,2.21-1.46c.16-.15.32-.31.55-.17s.39.25.33.49-.16.52-.5.36-.19,0-.18,0c-.14.46.19.66.2,1S16.5,24.4,16.11,24.3Zm1,2.38c-.13.07-.51-.53-.44-.73s.33-.21.52-.21c.38,0,.51.12.5.42S17.35,26.55,17.13,26.68Zm.57-4.55a.34.34,0,0,1-.11.2c-.13,0-.16-.14-.17-.27l0-.63-.26-.26a2.12,2.12,0,0,1-.36-.1.24.24,0,0,1-.07-.33c.11-.18.21,0,.29.05a2.31,2.31,0,0,1,.24.29l.25.25h0C17.82,21.52,17.7,21.84,17.7,22.13Zm-.33-4.58c-.47,0-.94,0-1.4,0a.43.43,0,0,1-.3-.17.39.39,0,0,1,.08-.34,1.86,1.86,0,0,1,.68-.56,1.25,1.25,0,0,0,.7-.69c-.09,0-.21-.13-.13-.21s.17,0,.22.12.43,0,.43.19c0,.51.28.63.73.63s.4.21.24.51C18.3,17.62,18.27,17.62,17.37,17.55Zm.66,2.1c0-.16.38-.34.81-.35a1,1,0,0,1,.77.2c.17.15.57-.12.56.28s-.63.64-.9.57a1.82,1.82,0,0,1-.68-.3C18.41,19.91,18.08,20,18,19.65Zm2.62,3.74a2,2,0,0,0-1.25.71c-.24.33-.79.13-1-.27-.49-1-.08-1.66,1-1.7.34,0,.68,0,1,0a.63.63,0,0,1,.63.6A.6.6,0,0,1,20.65,23.39Zm2.07-4.13-.07,0,.08-.1.07.07ZM23,16.9c-.22.28-.44-.13-.66-.11-.94.06-.7-1-1.28-1.32-.1-.05.12-.25.3-.28l.36-.11c-.12-.11-.24-.34-.35-.33A1.61,1.61,0,0,1,20,14c-.17-.2-.24-.37.11-.38s.65-.36,1,.1.61.15.88-.13.33-.33.53-.13.1.31.08.23a1.34,1.34,0,0,1-.16.84c-.11.27,0,.39.32.3.1,0,.2-.19.31-.06a.25.25,0,0,1,0,.35,3.09,3.09,0,0,0-.33.39c-.13.23-.17.51.12.65S23.22,16.64,23,16.9Zm4.08-5.26.07.07,0,.08-.1-.08Zm-2.61,5.95s.06,0,.07,0,.05.1,0,.14-.06,0-.07-.07S24.47,17.61,24.48,17.59Zm.68,5.6c-.13-.05-.43.12-.43-.18a.41.41,0,0,1,.45-.34.44.44,0,0,1,.42.38C25.6,23.21,25.35,23.2,25.16,23.19ZM26,21.62a2.68,2.68,0,0,1-.3-.12.34.34,0,0,1,.09-.08c.1,0,.21-.09.29.06A.75.75,0,0,1,26,21.62Zm.17-3.16a6.6,6.6,0,0,1-.62,2.39c-.12.17-.28.34-.5.08s-.36-.36-.54-.54-.22-.4,0-.55c.37-.29.34-.52,0-.79-.08-.06-.1-.32-.09-.33.42-.15.42-.57.61-.87.06-.1.3-.08.33-.09C26.15,17.74,26.31,17.84,26.19,18.46Zm.67-4.28c-.28,0-.57-.11-.58-.36s.36-.29.56-.36.35.2.36.4S27,14.16,26.86,14.18Zm.73-1.35c-.15-.17-.48-.08-.52-.38,0,0,.13-.08.21-.09s.4,0,.46.26Zm1.14,9.74c-.19.12-.19-.06-.24-.16l-.12-.22c-.09-.17-.37-.23-.27-.48,0-.06.22-.09.34-.08a.61.61,0,0,1,.58.52A.6.6,0,0,1,28.73,22.57Zm6.59,40.71a.71.71,0,0,1-.12-.18c0-.13,0-.22.17-.18s.05.12.07.19Zm1.07,3.33-.11-.08.08-.07.07.08ZM41.61,59s0,.08-.06.09-.16.09-.22.07a1.09,1.09,0,0,1-.66-.65,3.27,3.27,0,0,1,.41-.23c.2-.12.28,0,.32.16S41.67,58.79,41.61,59ZM41.26,58c-.07-.18-.13-.25-.12-.32,0-.29.27-.25.48-.24a.32.32,0,0,1,.19.11C41.7,57.77,41.37,57.67,41.26,58Zm3-37.21c-.08-.08-.36-.2-.11-.37a.52.52,0,0,1,.47,0c.33.27.91.45.51,1.07.45.18.4.65.57,1s-.06.23-.17.2c-.35-.11-.71-.23-1-.37-.58-.24-.61-.29-.23-.77C44.42,21.22,44.5,21,44.21,20.76ZM45,18c.28-.05.47,0,.52.37s.19.46.22.69-.19.35-.37.45c-.4-.19-.46-.6-.62-.92S44.63,18.1,45,18Zm1.26,20.2a.29.29,0,0,1,.2,0,.68.68,0,0,1,.07.36c-.09.28-.16.76-.48.68a1.24,1.24,0,0,0-.95.1l-.1-.21c0-.07.07-.2.11-.2A1.85,1.85,0,0,0,46.25,38.23ZM44,42.88c-.14-.23.1-.38.15-.57s0-.74.55-.4c0,0,.21-.13.32-.14.29,0,0-.7.57-.43a1.49,1.49,0,0,1,.67.86.51.51,0,0,1-.35.48c-.31.12-.67.1-.9.42A1.84,1.84,0,0,1,44,42.88Zm7.49,1.58c.07.17.2.32-.07.33s-.54.16-.51.55-.21,1,0,1.56c.13.29.32.51.69.42.05-.09.13-.21.22-.12s0,.17-.12.22c-.11.44,0,.9-.21,1.36a1,1,0,0,1-1.08.68c-.53,0-.53,0-.38-.67.11-.5,0-.64-.47-.62a3.73,3.73,0,0,0-1.87.18c-.36.22-.64-.07-.94-.19a.43.43,0,0,1-.22-.63c.08-.2.2-.46.56-.27s1.07-.28,1.61,0c0,0,.27-.21.31-.35s-.09-.29-.28-.31-.58.07-.74-.33-.31.11-.51.07-.54,0-.28-.4c.06-.1.05-.28-.09-.32a.42.42,0,0,0-.34.09c-.11.11-.17.29-.28.41s-1,.35-1.15.13-.37-.67.11-.93l.05-.06c-.12-.24.06-.59-.34-.75a.42.42,0,1,1,.58-.52,1.16,1.16,0,0,0,.2.32c.19.2.21.07.29-.12.24-.55.52-.69.87-.53a1.08,1.08,0,0,1,.55,1.08c0,.05-.15.06-.22.1a.21.21,0,0,0-.06.32c0,.06.14.08.21.1.34.09.57-.18.82-.29a.58.58,0,0,0,.26-1c-.39-.59-.59-1.39-1.47-1.5-.05,0-.09-.13-.12-.21s.06-.08.09-.08c.46.07.93.14,1.39.23a.59.59,0,0,1,.53.62c0,.45.45.59.56,1,.06.23.17,0,.17-.07,0-.74.37-.41.55-.12S51.28,43.93,51.49,44.46ZM49.71,16.74c.21,0,.42,0,.64,0h0a1,1,0,0,1,.25,0c.17.05.56-.09.44.2s.43.67-.11.84-.52.5-.59.89c0,.14-.22.16-.31.11s-.13-.2-.15-.31.09-.14.12-.22c.29-.67.29-.68-.4-1-.12-.05-.22-.09-.23-.25S49.54,16.75,49.71,16.74Zm-.43,21.8c.15-.17.26-.11.42,0s-.12.45.08.67-.1.18-.22.18c-.47,0-.94,0-1.41,0-.7,0-.72.06-.81.95.15.05.38,0,.39.18s-.2.32-.31.31-.13-.25-.19-.39c-.36-.19-.19-.61-.35-.91s.06-.57.21-.79.5-.12.79,0A1.17,1.17,0,0,0,49.28,38.54Zm-1-2.48a.83.83,0,0,1,.24.13c-.12.11-.23.21-.35.3s-.14-.08-.14-.12S48.12,36.05,48.33,36.06ZM47.66,21.7a.32.32,0,0,1,.22,0,1.13,1.13,0,0,0,.85.56s0,.06,0,.09-.34.39-.46.34a1.15,1.15,0,0,1-.74-.75S47.61,21.74,47.66,21.7Zm-.59,12a2.11,2.11,0,0,1,.33.18c.17.09.45.11.38.4s-.33.19-.59.23c-.1,0-.31,0-.4-.15s-.64.07-.7-.33C46.06,33.83,46.68,33.63,47.07,33.73ZM45.3,16.26c.24.16.7.1.7.55a.69.69,0,0,1-.8.44c-.37-.15-.22-.47-.22-.74S45.18,16.17,45.3,16.26Zm-1.51-3.88a3.78,3.78,0,0,0,1.16.68s0,.2,0,.22a4.53,4.53,0,0,0-1.09.57c-.14.12-.88-.64-.9-.91S43.43,12.38,43.79,12.38ZM41,44.88s.12-.05.19-.07l.17.12a.71.71,0,0,1-.18.12C41,45.08,40.93,45,41,44.88Zm-.6,1c.14,0,.22.08.22.21a.21.21,0,0,1-.19.27c-.2,0-.31-.08-.28-.28A.21.21,0,0,1,40.36,45.84Zm-2.22,1.59c.49-.15.64.25.71.66h0l.25.06c.2.06.27.22.16.38s-.26-.14-.41-.06a.52.52,0,0,0,.33.62c.39.19.85-.05,1.24.21.14.09.16-.15.12-.22s-.37-.52,0-.63.75-.42,1.17-.06c.21.17.12.25,0,.37s-.34.34-.18.66a13.29,13.29,0,0,1,.37,1.71c.08.23.4.72.05.84s-1.05.62-1.42.22-1.27-.16-1.27-1c0-.15-.48-.3-.74-.43s-.27-.29-.14-.39.5-.32.09-.58-.47-.88-.65-1.34A.69.69,0,0,1,38.14,47.43Zm-.55,7c.55-.29.94-.9,1.59-.88.33.07.55.24.86,0,.74-.5,1-.47,1.75,0,.15.09.26.25.44.19s.41-.34.55-.14-.21.37-.34.55a.58.58,0,0,1-.32.19c-.39.1,0,.66-.52.76s-.93-.44-1.41-.07c-.42-.65-1.2-.27-1.72-.61-.26-.17-.37,0-.45.23s-.19.11-.29,0S37.5,54.45,37.59,54.4Zm-1.31,2,.47-.15c.85-.27,1-.18,1,.75a1,1,0,0,0,.34.9c.06.05.07.14.1.21s-.17.12-.21.1c-.68-.35-1.52-.42-2-1.13A.44.44,0,0,1,36.28,56.37Zm-.55-3.32c.07,0,.17.06.2.12s-.22.49-.54.56a.14.14,0,0,1-.19-.1C35.11,53.43,35.43,53.08,35.73,53.05Zm-.66,11.86.07.08,0,.07L35,65Zm-.71-4c0,.06-.09.14-.14.2a.38.38,0,0,1-.57,0,1.45,1.45,0,0,1-.18-.17l-.26-.4.37-.12a2.17,2.17,0,0,1,.36,0A.54.54,0,0,1,34.36,60.91Zm-1-9.71c0-.06.08-.12.12-.18l.11.19c0,.07,0,.18-.08.19S33.38,51.32,33.41,51.2Zm-.7,2.5a1.3,1.3,0,0,1,.78-.62c.24,0,.46.3.43.65s-.4.33-.65.35S32.63,53.84,32.71,53.7ZM32.09,61c.08,0,.25,0,.16.2s-.14.08-.21.09h-.63c-.16,0-.36,0-.21-.27s-.13-.3,0-.43.3-.07.43,0S31.91,60.87,32.09,61Zm-.76-7.69c.29,0,.27.25.27.46s0,.27-.19.22a4.86,4.86,0,0,1-.55-.29C31,53.51,31.07,53.33,31.33,53.3Zm.17,5.5s-.07.14-.08.13a1.45,1.45,0,0,1-.29-.11s0-.07.08-.08S31.42,58.63,31.5,58.8Zm-1.1-3.62s.13-.08.19-.07.12.07.18.12-.11.1-.18.11S30.37,55.33,30.4,55.18Zm.68,4.66c.11.15.47,0,.38.33,0,.08-.29.08-.28.08a7.14,7.14,0,0,1-1.85-.36.26.26,0,0,1-.22-.36.63.63,0,0,1,.25-.25C29.85,59.75,30.65,59.24,31.08,59.84ZM29.91,54.9s0,0,.07,0S30,55,30,55s-.1,0-.14,0A.18.18,0,0,1,29.91,54.9Zm-.76,3.58c.1,0,.21-.11.29.07a1.05,1.05,0,0,1-.08.13l-.29-.11A.34.34,0,0,1,29.15,58.48Zm-16.69,20c-.09.09-.16,0-.22-.12s-.21-.14-.13-.23.18,0,.23.13S12.55,78.34,12.46,78.43Zm2.95-7.13c-.12,0-.23,0-.19-.16s.13-.08.19-.08.12.08.17.12A.88.88,0,0,1,15.41,71.3Zm2.8,3.54c0,.29-.23.39-.35.31a3.11,3.11,0,0,0-1.08-.57c-.18,0-.11-.29-.14-.45-.05-.4.22-.62.47-.84s.81-.15.77.18a1.64,1.64,0,0,0,.33,1.19C18.25,74.72,18.21,74.82,18.21,74.84Zm4.23-10.68s0,0,.07,0,0,0,0,.07-.1,0-.14,0S22.41,64.17,22.44,64.16Zm.07,3.16c-.27.12-.16-.18-.26-.27a.64.64,0,0,1-.14-.22c-.06-.17-.05-.34.16-.38s.31.07.32.28,0,.16,0,.31S22.58,67.29,22.51,67.32Zm.68,5.09h.08c.06,0,0,.1-.05.14s0,0-.06-.07S23.18,72.43,23.19,72.41Zm.07,2.43-.1-.08.07-.07.07.08Zm1,5.66-.1-.07.07-.08.07.08Zm4.85-11.71.07,0s0,.06,0,.07-.1,0-.14,0A.19.19,0,0,1,29.14,68.79Zm-1-8,.07.08,0,.07-.1-.07Zm-.81-.46s.13-.08.19-.08.12.08.18.13a1.08,1.08,0,0,1-.18.11C27.39,60.51,27.28,60.48,27.31,60.33Zm0,4.07c.1,0,.21-.11.29.06s-.07.14-.08.14l-.29-.11A.23.23,0,0,1,27.35,64.4Zm-.51-4.12.06.08,0,.07-.11-.08Zm-.72,4.35a.13.13,0,0,1,.12,0l.66.83s0,.1,0,.1-.15.08-.22.06c-.42-.12-.46-.54-.63-.85C26,64.76,26.07,64.67,26.12,64.63Zm.05,14.79c-.11-.14-.47,0-.4-.33,0-.14.16-.32.35-.23a.49.49,0,0,1,.32.48C26.38,79.5,26.26,79.52,26.17,79.42Zm-.31-11.15a1.53,1.53,0,0,1-1-1.21c0-.1.09-.22.13-.33.05.06.13.12.15.19.13.43.38.48.74.27.11-.06.28,0,.37-.06.4-.26.88-.39,1.18-.06s1,.73.84,1.28a5,5,0,0,1-.1.78c-.06.2-.15.46-.31.54s-.3-.24-.49-.31C26.78,69.15,26.44,68.55,25.86,68.27Zm2.38,10.48c-.15,0-.22-.07-.23-.21a.43.43,0,0,1,.33-.46c.13,0,.17.11.17.26S28.55,78.74,28.24,78.75Zm.06-1.41.08-.07.07.08,0,.07Zm1.14-1.21a5.08,5.08,0,0,1-.28.8l-.64-.56c.15-.27.31-.45.6-.44C29.25,75.94,29.5,75.87,29.44,76.13Zm.4-4.8c-.31,0-.23.16-.08.31s.32.3.3.53a2.42,2.42,0,0,1-.1.36,1.45,1.45,0,0,1-.22-.09.62.62,0,0,1-.18-.18,1.73,1.73,0,0,0-1.88-.94c-.12,0-.3,0-.35-.09s.09-.28.2-.38c.37-.32.62-.82,1.2-.89.45.15.9.26,1.31.44a.84.84,0,0,1,.42.75C30.45,71.46,30.06,71.29,29.84,71.33Zm3.33-1.93c.1-.14-.1-.12.11-.1a10.07,10.07,0,0,1,1.81,1c.15.13,0,.22-.08.31s-.38.25-.42.15c-.27-.65-.93-.78-1.42-1.13A.23.23,0,0,1,33.17,69.4Zm-1.52,1.89c-.17,0-.32-.05-.3-.26a.87.87,0,0,1,.1-.19l.37.28C31.74,71.2,31.7,71.29,31.65,71.29ZM33.78,78a.27.27,0,0,1-.39-.19c-.16-.52-.56-.55-1-.54-.24,0-.58,0-.49-.35s.31-.17.41-.11l.19.12c.3.16.51-.36.8-.12s.18.48.53.44c.17,0,.34,0,.33.28A.57.57,0,0,1,33.78,78Zm1.06-3.9-.1-.08.07-.07.07.08Zm.55-.69c.1-.21-.17-.4-.36-.46s-.59-.07-.78-.34-.3-.32-.26-.39.28-.11.42,0a.38.38,0,0,0,.46,0c.58-.36.77,0,.85.49.05.31.13.33.37.16a2.31,2.31,0,0,1,.45-.21c.15,0,.23.06.31.14s.13.23,0,.32c-.28.22-.35.44-.07.7a.34.34,0,0,1,.19.41.16.16,0,0,1-.09.09c-.2-.06-.15-.26-.21-.4a8.81,8.81,0,0,0-.89,0C35.37,73.93,35.15,73.88,35.39,73.38Zm1.14,4.9a1.62,1.62,0,0,1-.5-.1.59.59,0,0,1-.31-.75c.1-.31.43.11.62-.14,0,0,.28.14.43.16s.51.07.5.42S36.93,78.27,36.53,78.28Zm1.66-3.69-.11-.08.08-.07.07.07Zm.94-1.17c-.15.23-.3.37-.09.64.06.08,0,.26-.14.31s-.3,0-.32-.12c-.11-.63-.6-.92-1.06-1.25-.1-.07-.14-.2-.21-.3l.59-.33c.11.09.24.19.36.3a.65.65,0,0,0,.46.16C39.44,72.87,39.47,72.89,39.13,73.42Zm1.86.41c-.06,0-.36-.28-.38-.43a.22.22,0,0,1,.18-.26.25.25,0,0,1,.33.25A.42.42,0,0,1,41,73.83Zm3.08,7.22S44,81,44,81s0,0,0-.07.06,0,.07,0S44.16,81,44.07,81.05Zm1.08-5.61A2.1,2.1,0,0,1,43.09,75c-.07,0-.15-.14-.15-.2.08-.71-.32-1.06-.89-1.37a.34.34,0,0,1,0-.62c.5-.28,1.13-.25,1.57-.68a.26.26,0,0,1,.21.08c.12.29.24.46.49.11a.77.77,0,0,1,.18-.18c.41-.35,1.24-.1,1.11.33-.24.82.29.92.73,1.21.09.06.12.21.16.28s0,.14,0,.18S45.21,75.42,45.15,75.44Zm1.33,1.7c-.19.07-.22-.08-.22-.19,0-.39,0-.75-.49-.9a.39.39,0,0,1,0-.23c0-.11.09-.08.19,0,.42.15.9.19.89.82C46.87,76.8,46.68,77.14,46.48,77.14Zm1.41-2.76a1.48,1.48,0,0,1-.29-.12s0-.06.08-.08.22-.07.3.06S47.91,74.39,47.89,74.38Zm2.35,1.26s-.05,0-.06-.07a.13.13,0,0,1,0-.07s.05,0,.07,0S50.33,75.6,50.24,75.64Zm.26.77a1.74,1.74,0,0,1-.11-.18c0-.12,0-.23.16-.19s.05.12.08.19Zm.38-4.86c-.22,0-.23-.17-.23-.33s.12-.1.17-.08a.38.38,0,0,1,.27.33A.9.9,0,0,1,50.88,71.55Zm3.33,2.64c-.1.31-.46.3-.71.47-.31-.25-.63-.49-.92-.76s-.18-.55-.13-.84.23-.23.41-.22.51-.07.63.27a3.21,3.21,0,0,0,.35.66C54,73.92,54.3,73.9,54.21,74.19Z"/><path d="M42.86,48.73l.08.05-.06-.07Z"/><polygon points="24.18 53.98 24.25 54.03 24.26 53.95 24.18 53.98"/><polygon points="43.57 67.92 43.54 67.83 43.49 67.9 43.57 67.92"/><polygon points="26.49 58.35 26.57 58.41 26.58 58.32 26.49 58.35"/><polygon points="33.47 34.47 33.55 34.44 33.48 34.38 33.47 34.47"/><path d="M47.75,61.3l.06.05h0L48,61.2C47.81,61.07,47.82,61.26,47.75,61.3Z"/><path d="M47.6,61.44c.14.14.14,0,.21-.09l-.06-.05Z"/><polygon points="47.75 61.3 47.81 61.35 47.81 61.35 47.75 61.3"/><polygon points="23.68 28.03 23.77 28 23.7 27.95 23.68 28.03"/><path d="M49.62,45.59l-.06.06.18.1Z"/><path d="M50.24,46a.15.15,0,0,0,.06-.11c0-.49-.48-.18-.68-.34l.12.16-.18-.1C49.75,45.85,49.85,46.21,50.24,46Z"/><path d="M53.8,46c.05,0,.11.09.17.09s.09-.06.14-.1a1.11,1.11,0,0,0-.22-.07S53.83,46,53.8,46Z"/><path d="M53.8,45c.05,0,.11.09.17.09s.09-.06.14-.1a1.11,1.11,0,0,0-.22-.07S53.83,44.94,53.8,45Z"/><path d="M52.81,46.21c-.13.15,0,.15.1.21l.05-.05Z"/><path d="M53,46.37l-.05.05.14.16C53.18,46.44,53,46.43,53,46.37Z"/><path d="M42.33,48.41c0,.06-.12.17-.1.19s.31.08.47.08a.5.5,0,0,0,.13,0V48.5C42.67,48.45,42.55,48.13,42.33,48.41Z"/><path d="M42.84,48.5v.15A.13.13,0,0,0,42.84,48.5Z"/><polygon points="43.83 50.62 43.75 50.61 43.78 50.7 43.83 50.62"/><path d="M48.8,73.32a.49.49,0,0,1-.48.07h0l-.06.06c.36.79.4.8.85.28.12-.13.24-.27.12-.43S48.93,73.22,48.8,73.32Z"/><path d="M48.17,73.24c-.13.13,0,.14.09.21l.06-.06Z"/><polygon points="48.32 73.39 48.26 73.45 48.32 73.39 48.32 73.39"/></svg>