<svg id="Layer_1" data-name="Layer 1" xmlns="http://www.w3.org/2000/svg" viewBox="0 0 524.57 83.32"><path d="M297.07,46.34c.17-1-.32-2,0-2.93,0-.11,0-.26,0-.38.12-.67-.39-1.39.16-2,0,0,0-.15-.08-.2s-.39-.35-.12-.62c-.37-.93.29-2.08-.56-2.84a.56.56,0,0,1-.15-.69c.33-.52-.15-1.11.19-1.63.1-.14,0-.39-.13-.58-.44-.7.07-1.41-.3-2.15s0-1.33-.66-1.75a.61.61,0,0,1-.17-.9c.27-.4,0-.65-.17-1-.32-.6-.92-.88-1.27-1.44a3.89,3.89,0,0,0-1.25-1.55c-.64-.35-.68-1.09-1.19-1.51-.25-.21-.66-.41-.38-.93.15-.28-.19-.12-.29-.19-.33-.23-.87-.09-1.07-.51-.51-1.14-1.75-1.48-2.49-2.37a.38.38,0,0,0-.32-.14c-.69.21-1.08-.24-1.52-.65a1.1,1.1,0,0,0-.75-.37c-.86.12-1.57-.82-2.46-.3-.52-.45-1.15-.05-1.73-.21a2.16,2.16,0,0,0-1.86.46,3.15,3.15,0,0,1-2.56.57.67.67,0,0,0-.69.16,1.05,1.05,0,0,1-.52.31,15.75,15.75,0,0,0-2.67.88c-.36.16-.74.24-.94.68-.12.27-.38.22-.64.06s-.58,0-.54.35c0,.18,0,.35-.12.41-.82.32-1.11,1.19-1.73,1.73a11.56,11.56,0,0,0-1.74,1.54c-.12.17-.4.35-.26.52.48.62-.1.72-.41.88a2.33,2.33,0,0,0-.78.6,3.53,3.53,0,0,1-1.83,1,1.39,1.39,0,0,0-.68.24,1.18,1.18,0,0,1-1.86-.47c-.3-.77-1.13-1.1-1.34-1.89,0-.08-.2-.11-.3-.17a5.2,5.2,0,0,1-1.44-1.51,3,3,0,0,0-2.07-1.61,3.31,3.31,0,0,1-2.22-1.6c-.21-.36-.39-.73-.91-.65-.11,0-.22-.09-.34-.14a20.79,20.79,0,0,1-4-1.58,1.54,1.54,0,0,0-1.3-.27,8.09,8.09,0,0,1-3.27.49,3.44,3.44,0,0,0-1.6.52,9.84,9.84,0,0,0-1.59,1.19c-.41.3-.88.19-1.23.48a13.19,13.19,0,0,1-3,1.85.58.58,0,0,0-.42.71.57.57,0,0,1-.64.6c-.49,0-.92.35-1.45.27-.26,0-.36.17-.2.41s.21.4,0,.56,1.06.6.81.82-.26.63-.66.27-.1-.52.05-.77a3.13,3.13,0,0,1,.2-.3c.33-.4.33-.4-.15-.5a3.69,3.69,0,0,1-.37,0c-.14-.05-.13-.19-.13-.32s.59-.07.29-.5.08-.46.25-.63a.8.8,0,0,0,.14-.84c-.12-.36-.36-.67-.07-1,.06-.08,0-.19-.08-.15-.42.46-.91-.18-1.36.12a1.58,1.58,0,0,1-1.62.06,1.47,1.47,0,0,0-1.39.09,3.84,3.84,0,0,1-2.3.05c-.72-.15-1.47-.63-2.24-.1a1.91,1.91,0,0,0-1.79.25s-.08,0-.12,0a4.31,4.31,0,0,1-1.61,0c-.56-.25-1.11.2-1.61-.18a.36.36,0,0,0-.53.16c-.25.66-.8,1.17-.93,1.88s-.27,1.47-.34,2.21c-.13,1.39.19,2.79-.17,4.16,0,.09,0,.11.1.18.53.47.38,1,.16,1.57a5.66,5.66,0,0,0-.36,2.34c0,.67,0,1.36,0,2,0,.33-.36.52-.21.82.47,1-.09,1.88-.15,2.81-.07,1.1-.44,2.19-.41,3.32,0,.85,0,1.7,0,2.55a4.81,4.81,0,0,1,0,1.14,14.43,14.43,0,0,0-.48,4.34c0,.84,0,1.69,0,2.54s-.36,1.61,0,2.43a.47.47,0,0,1,0,.37A3.56,3.56,0,0,0,216,59c-.08,1.51.21,3-.24,4.53a.78.78,0,0,0,0,.5,4,4,0,0,1-.14,2.27.79.79,0,0,0,0,.46,4.49,4.49,0,0,1-.08,2.83c0,.17-.33.35-.1.54.53.43.28,1,.35,1.54a24.53,24.53,0,0,1-.26,3.63c0,.43.2.83.19,1.21s-.38.71-.6,1.06c-.1.18-.07.37.11.4a14.31,14.31,0,0,1,2.68.54c.54-.35,1-.12,1.47.17a1.11,1.11,0,0,0,1,0c.37-.15.66-.29,1,0s.69-.28,1,.21c.13.23.36,0,.55,0a1.52,1.52,0,0,1,1.69.06,1.35,1.35,0,0,0,.73.12c1.71.16,3.38-.42,5.09-.26a.52.52,0,0,0,.35-.08c.29-.28.5-.5.8,0,.11.18.45-.36.77-.1s.48,0,.53-.31.21-.33.44-.21.33.47.61.37,0-.41,0-.6a.66.66,0,0,1,.47-.38c.36-.14-.9-.43-.93-.81a2.64,2.64,0,0,1,.36-1.69c.35-.55-.07-1.27.36-1.82A.32.32,0,0,0,234,73c-.3-.1-.42-.27-.22-.56a1.6,1.6,0,0,0,.12-1c0-1.1,0-2.2,0-3.3a2.85,2.85,0,0,1,.36-1.57c.14-.23.35-.43.27-.77a22.88,22.88,0,0,1-.13-3.41,3.67,3.67,0,0,1,.77-2.58c.06-.09.2-.27.13-.27-.77-.06.15-1-.59-1.1q-.31,0-.15-.33a1.64,1.64,0,0,1,.61-.76c.28-.16.68-.58.37-.89a.84.84,0,0,1-.09-1.1,12,12,0,0,0,.42-1.94,1.44,1.44,0,0,0-.34-1.64c-.13-.11-.17-.38,0-.44.49-.18.05-.69.37-.93a.63.63,0,0,0,.16-.89,1.22,1.22,0,0,1,0-1.21c.37-.66-.1-1.45.37-2.08,0,0-.06-.26-.14-.32-.32-.22-.15-.46-.1-.75a1.12,1.12,0,0,1,.4-.75,1,1,0,0,0,.28-1.24,8.75,8.75,0,0,1,.59-2.94,1.48,1.48,0,0,0,.51-1.47,1.73,1.73,0,0,1,.7-1.54,12.32,12.32,0,0,0,1.95-1.73.61.61,0,0,1,.54-.26.84.84,0,0,0,.69-.22,1.17,1.17,0,0,1,1.49-.12c.74.37,1.48.75,2.23,1.11.2.09.43.23.43.42a1.39,1.39,0,0,0,.72,1.13c.5.34.13,1,.55,1.34s.17.4.06.64a.52.52,0,0,0,.14.58,2.23,2.23,0,0,1,.5.57c.47,1.1,1,2.2,1.32,3.34a8.34,8.34,0,0,1,.27,3,2.8,2.8,0,0,0,.53,1.88c.13.17.24.3.15.55-.19.54-.65,1.13-.37,1.66s-.16,1.1-.09,1.68c.11.87.1,1.74.25,2.61a16,16,0,0,1-.24,4.14c-.5.64.06,1.29,0,1.91s-.57,1.19-.46,1.91a4.82,4.82,0,0,1,0,.76,1.44,1.44,0,0,1,0,.51,4,4,0,0,0-.22,2.1,5.8,5.8,0,0,1-.33,2.09c-.2.89.19,1.78-.17,2.64a1.47,1.47,0,0,0,.07,1.11c.28.55.11.66.08,1.09-.11,1.41-.65,2.77-.47,4.21a.56.56,0,0,1-.09.36c-.33.41,0,.6.24.84.38.41.28-.23.47-.23a5.69,5.69,0,0,0,2.07-.17c.44-.2.15,0,.54,0,1.49.12,2.92-.5,4.45-.12.65.15,1.28-.3,1.86.13,1.16-.49,2.38-.15,3.58-.23a2.22,2.22,0,0,1,1,.1c.64.23,1.25-.12,1.2-.76-.06-.82.33-2,.2-2.88,0-.3-.25-.79.23-1.07.19-.11.08-.39.1-.6s-.08-.6.13-.86a2,2,0,0,0,.08-2.12c-.07-.19-.33-.43-.13-.56.57-.37.14-.9.28-1.31.09-.23-.18-.44.07-.66a1.14,1.14,0,0,0,.16-1.49c-.11-.24-.06-.39.19-.49s.06-.23,0-.34-.36-.31,0-.43a.29.29,0,0,0,.2-.4,1.22,1.22,0,0,1,0-1.16c-.52-.66,0-1.28.12-1.89a2,2,0,0,0,.15-.73,6.6,6.6,0,0,0-.19-2.11,2.69,2.69,0,0,1,.14-1.59c.11-.49-.39-1.14.48-1.38,0,0,.06-.15.05-.22a4.49,4.49,0,0,1,.37-2.28,3.07,3.07,0,0,0-.11-1.93c-.18-.6-.8-1.16,0-1.76.07,0,.05-.25,0-.37a3.46,3.46,0,0,1,.28-1.46c.07-.31.36-.58,0-.92-.1-.1,0-.34.21-.35.71,0,.76-.5.75-1.06a4.78,4.78,0,0,1,.23-2,4.24,4.24,0,0,0,.27-2c0-.17,0-.4.07-.49.43-.43.35-1.22.77-1.52a2,2,0,0,0,.75-1.57.34.34,0,0,1,.15-.2,10.82,10.82,0,0,0,1.39-1.4c.1-.1.17-.26.4-.16a6.67,6.67,0,0,0,2.23.13c.38,0,.75,0,1,.35.11.14.33.24.43.08.42-.67,1-.22,1.43-.15.74.1,1.47.32,1.68,1.21.05.22.23.35.34.52a9.84,9.84,0,0,1,1.15,3.13c.14.52.27,1,.45,1.54a2.61,2.61,0,0,1,.34,1.31.63.63,0,0,0,.25.56c.2.16.18.31.06.53a.6.6,0,0,0,.05.59,2.05,2.05,0,0,1,.15,1.76,1.66,1.66,0,0,0,0,.5,27.2,27.2,0,0,1-.21,4.41c-.21,1-.1,2.07-.25,3.12a16.84,16.84,0,0,0,0,3.55c.07,1.23-.37,2.4-.29,3.64a6.77,6.77,0,0,1,0,2.8,9,9,0,0,0-.33,4.07,2.52,2.52,0,0,1-.11,1.73.83.83,0,0,0,0,.85,1.57,1.57,0,0,1,.17.73c0,.5-.5.94-.39,1.26a4.55,4.55,0,0,1,.41,1.26c0,.45-.34.77-.28,1.21a8.8,8.8,0,0,1,.2,2.49c-.08.47-.24.84.18.68a1.51,1.51,0,0,1,1.47,0,.37.37,0,0,0,.38,0c.41-.39.64,0,.88.29s.36.32.58,0a.63.63,0,0,1,.56-.23,6,6,0,0,0,1.32-.21c.76-.14,1.56.43,2.33.18a1.11,1.11,0,0,1,1,.12,1.07,1.07,0,0,0,1.08,0,2.72,2.72,0,0,1,1.22-.17,20.29,20.29,0,0,0,3,0,1.14,1.14,0,0,1,1,.14c.25.19,1.14,0,1.42,0,.65,0,.87-1,.72-1.55-.24-1,.36-1.34-.06-2-.11,0,.31-1,.41-.89-.2-.23-.39-.41-.16-.76s.08-.82.1-1.24,0-1,0-1.52c0-.27-.75-.6-.32-.34.25.16.42,0,.31-.28s-.24-.42-.05-.68a1.88,1.88,0,0,0,.05-1.34c-.54-.71-.73-.9-.52-1.61a3.76,3.76,0,0,0-.14-2.34,1.54,1.54,0,0,1,.34-1.7c.26-.3.23-.51,0-.74a.3.3,0,0,1,0-.51c.15-.13.32-.27.21-.53a4.38,4.38,0,0,1-.06-2.46,1.47,1.47,0,0,0-.18-1.35c-.14-.15-.3-.38-.11-.56.81-.77.09-1.89.62-2.72a1.09,1.09,0,0,1-.08-1.19c.22-.45-.31-.84-.14-1.31,0-.11,0-.26,0-.38a2.42,2.42,0,0,0,.17-1.32,6.79,6.79,0,0,0-.15-1.39,2.61,2.61,0,0,1,0-1c0-.4.31-.68.43-1S297,46.88,297.07,46.34ZM232.64,25.62s.05,0,.07,0,0,.06,0,.07-.1.05-.14,0A.14.14,0,0,1,232.64,25.62Zm-1.32.58a.23.23,0,0,1,.4,0,1,1,0,0,1,.1.35c.09,0,.21.13.12.22s-.16,0-.21-.12a3.57,3.57,0,0,1-.35-.1A.23.23,0,0,1,231.32,26.2Zm.07,3.14a.18.18,0,0,1-.06-.08s0,0,0-.07h.08C231.49,29.24,231.48,29.3,231.39,29.34Zm-2.14,29.09c.22,0,.23.15.27.29s-.12.13-.16.13a.44.44,0,0,1-.29-.34A.33.33,0,0,1,229.25,58.43Zm-.43,1.46a1.91,1.91,0,0,1,.34.1.23.23,0,0,1,.06.33c-.1.17-.2,0-.28,0a2.26,2.26,0,0,1-.23-.29.31.31,0,0,1-.18-.4s.06-.09.08-.08C228.81,59.55,228.76,59.75,228.82,59.89Zm.31,9.94a.18.18,0,0,1-.06-.08s0,0,0-.07h.08S229.22,69.79,229.13,69.83Zm0,1a.18.18,0,0,1-.06-.08s0,0,0-.07h.08S229.22,70.81,229.13,70.85Zm-.45-24.58c.09.09,0,.16-.12.22s0,.08,0,.12,0,.29-.17.26-.13-.19-.08-.31.11-.11.17-.17S228.59,46.18,228.68,46.27Zm-.91-3.64a2.43,2.43,0,0,1,.5.36c.15.14.32.3.18.53s-.28.13-.45.12c-.29-.18-.48-.12-.58.23a2,2,0,0,0-.14.34c0,.26-.07.55-.43.39a.57.57,0,0,1-.34-.73c.16-.51.86-.62.91-1.23A.55.55,0,0,1,227.77,42.63ZM227,61.33c0-.07.11-.11.17-.17l.25-.25c0-.14,0-.38.17-.39s.31.2.31.31-.25.13-.39.17l-.25.26a.5.5,0,0,1,0,.12c0,.11,0,.29-.17.26S227,61.45,227,61.33Zm0-5.72c0-.22.15-.25.31-.24s.11.11.1.15a.43.43,0,0,1-.32.29A.72.72,0,0,1,227,55.61Zm.83,1.75a.24.24,0,0,1-.34-.23c0-.2-.06-.41.2-.48s.29.12.31.3S228,57.3,227.85,57.36ZM228,55.1c-.24.49-.22,0-.31-.1a.55.55,0,0,0-.44-.14c-.24,0-.56,0-.47-.35s.32-.18.56-.2.4.17.63.25C228.45,54.71,228.07,55,228,55.1Zm-5.43,1.33c-.17,0-.33,0-.5,0-.66-.09.15-.62-.25-.87-.15-.09.18-.17.31-.18a1.61,1.61,0,0,1,.62,0c.28.09.58.23.3.62C223.07,56.52,223.07,56.52,222.58,56.43Zm.55-2.92a2.83,2.83,0,0,1-.47-.83,1.9,1.9,0,0,0-.32-.38c-.11-.13,0-.23,0-.31s.2-.14.32-.23l.92.59a.12.12,0,0,1,0,.2C223.27,52.77,223.31,53.2,223.13,53.51Zm.45,0c-.12-.15.08-.17.17-.23a1.66,1.66,0,0,1,.93-.28c-.06-.1-.13-.2-.18-.3s-.43-.3,0-.42c.16,0,.33-.4.56,0s0,.59-.26.78c0,.08,0,.21,0,.23a1.94,1.94,0,0,0-1,1.09s-.13.07-.2.1-.09-.15-.08-.22C223.53,54.05,223.85,53.84,223.58,53.52Zm2.89-5.5c0,.09-.08.21-.37.16s0-.46-.21-.68.11-.41.24-.58a1.13,1.13,0,0,1,.29-.15c0,.12.12.25.08.34A1.2,1.2,0,0,0,226.47,48Zm-.66,3.59a.53.53,0,0,1,.26-.25c.19-.07.29.11.36.24.14.29.25.6.37.91.07.09.18.18.2.28s.06.42-.1.44-.15-.23-.17-.38a2.17,2.17,0,0,0,0-.25,4.15,4.15,0,0,0-.67-.52C225.8,52,225.69,51.84,225.81,51.61Zm1-3.7c0-.2.22-.22.38-.2s.34,0,.32.26-.17.25-.32.26S226.73,48.19,226.78,47.91Zm-1.77-4a4,4,0,0,0-.49,0c-.14,0-.25-.08-.25-.21a.57.57,0,0,1,.11-.33c.27-.36.73-.31,1.1-.44s.25.31.29.53C225.72,44,225.61,44,225,43.93Zm.7,2.14a1.55,1.55,0,0,1-.24.27c-.21.14-.29-.07-.37-.19s.06-.2.15-.22A.41.41,0,0,1,225.71,46.07ZM225,38.72c0,.17-.05.33-.29.32s-.23-.27-.22-.47a.24.24,0,0,1,.33-.25C225,38.37,225,38.56,225,38.72Zm-.32.72a.53.53,0,0,1-.43.37.21.21,0,0,1-.24-.2c0-.28.19-.31.44-.31A1,1,0,0,1,224.68,39.44Zm.32,20.2c0,.2-.14.33-.31.28a.51.51,0,0,1-.43-.52c0-.21.19-.23.34-.24C224.94,59.16,225,59.35,225,59.64Zm-1.42-.4h.07c.06,0,0,.1,0,.14a.18.18,0,0,1-.06-.08S223.57,59.27,223.58,59.24Zm.38,5.69c.3-.15.65.17,1-.05l.11.61c.4.22.59.61.44.9s-.18.1-.23,0-.21-.52-.31-.78l-.87,0c-.18,0-.48.09-.49-.18S223.79,65,224,64.93Zm.83-3.93c-.11.22-.23.22-.34,0-.09,0-.21-.13-.13-.21s.17,0,.22.11a.14.14,0,0,0,.15,0c.3-.32.75-.25,1.1-.45a.31.31,0,0,1,.42.14.58.58,0,0,1-.12.68c-.13.15-.24.13-.41.06S225.16,60.9,224.79,61Zm1.08,2c.19-.3.4-.6.62-.89a.28.28,0,0,1,.42-.05c.15.13.1.29,0,.43a1.85,1.85,0,0,0-.42.6c0,.17-.24.19-.41.18a.49.49,0,0,1-.21-.08A.19.19,0,0,1,225.87,63Zm1.27-24.2a2,2,0,0,0-.12.86c0,.41-.17.72-.68.53l0,.36c.09,0,.21.12.12.21s-.16,0-.21-.12-.09,0-.11-.06c-.82-1.09-.74-1.39.48-1.82.12,0,.21-.17.32-.18S227.3,38.52,227.14,38.79Zm-1.08-1.13s0,0,0-.06h.07c.06,0,.05.1,0,.14A.14.14,0,0,1,226.06,37.66Zm.26-1.5.07-.1.07.07-.07.07Zm-.59-5.75c.16,0,.21.08.25.19a.22.22,0,0,1-.16.28c-.16,0-.32,0-.3-.25A.21.21,0,0,1,225.73,30.41Zm-1.08,1.73c.48-.06.6-.83,1.24-.58.12.05.37-.29.56-.45s.13-.21.22-.12,0,.16-.12.22a1.79,1.79,0,0,1,.21,1.2c0,.25-.14.22-.32.14a1.34,1.34,0,0,0-1.2,0,.41.41,0,0,1-.45,0C224.6,32.52,224.49,32.16,224.65,32.14Zm-.57,2.33a.61.61,0,0,0-.3-.22c-.17-.06-.31-.15-.27-.35s.24-.2.4-.21c.4,0,.83.1,1.2-.2a.21.21,0,0,1,.33.07c.15.42.55.46.85.65s.11.21-.06.29c-.33.15-.57.33-.34.78.09.18-.57.35-.06.68s0,.5-.05.76-.22.24-.32,0a.73.73,0,0,0-.23-.29c-.19-.15-.44-.2-.44.12a1.43,1.43,0,0,1-.58,1.19c-.06.05-.15.16-.14.19.29.64-.19.62-.55.63s-.3-.08-.3-.7a1.36,1.36,0,0,1,.72-1.46.91.91,0,0,0,.35-.35,3.15,3.15,0,0,0,.42-.89C224.81,34.67,224.24,34.75,224.08,34.47Zm-.82,8.4c.26,0,.48,0,.51.35a.5.5,0,0,0,0,.12c.08,0,.2.13.12.21s-.16,0-.22-.12a.8.8,0,0,1-.19-.13c-.12-.16-.39-.1-.43-.32C223.06,43,223.19,42.88,223.26,42.87Zm-1.53,1.54c.06-.27.21-.29.45-.19.5.18.83.66,1.4.73.26,0,.31.56.14.9-.05.09-.25.18-.07.28.89.49-.11,1,0,1.49,0,.09-.29.1-.3,0-.16-.62-1.14-.75-.91-1.6a.26.26,0,0,0-.25-.35c-.59,0-.48-.44-.49-.86A2.38,2.38,0,0,1,221.73,44.41Zm.45,4.69,0,.07-.1-.07.07-.08ZM221.7,48c.11,0,.22,0,.19.15s-.13.09-.19.08-.11-.08-.17-.12S221.64,48,221.7,48Zm-1.22,4.82c-.2,0-.25-.15-.24-.31s.1-.13.14-.12a.44.44,0,0,1,.29.33Zm-.24-1.26a.25.25,0,0,1-.24-.33.21.21,0,0,1,.26-.17.56.56,0,0,1,.42.38A.5.5,0,0,1,220.24,51.54Zm1.12-.48c-.48-.34-.63-1.07-1.32-1.16a.32.32,0,0,1,0-.22c0-.06.12-.17.15-.16.63.22,1.27.43,1.9.68a.37.37,0,0,1,.19.39.63.63,0,0,1-.35.64C221.66,51.36,221.52,51.18,221.36,51.06Zm.53,9.8c-.14,0-.17-.08-.15-.19a.94.94,0,0,1,.12-.18l.12.19C222,60.74,221.93,60.86,221.89,60.86ZM222,58a.21.21,0,0,1,0-.32c.28-.14.61-.14.87-.41s.26.06.31.22.06.5-.16.57A1.11,1.11,0,0,1,222,58ZM223.6,75c-.22,0-.64-.75-.6-1.07a2.26,2.26,0,0,1,1.07-.4c.3.06.14.32.19.47C224.25,74.7,224.07,75,223.6,75Zm.65-2.15a.28.28,0,0,1-.18.31c-.24-.23-.58-.17-.59-.52s0-.41.28-.48.39-.4.55-.63.36-.08.52.08.15.27-.09.34C224.3,72.07,224.23,72.42,224.25,72.83ZM226,75.6c-.1.16-.28.14-.45.15s-.33,0-.44-.13a.26.26,0,0,1,0-.22c.13-.27.78-.28.95,0A.24.24,0,0,1,226,75.6Zm4.53-1c-.08.16-.27.17-.44.15a2,2,0,0,1-.24,0l-.06.06a.68.68,0,0,0,0,.12c-.52,0-.32.68-.61.82s-.54-.48-1-.44c-.24,0-.49-.08-.65.23-.26.48-.36,0-.47-.13s.22-.39,0-.32a1.8,1.8,0,0,1-1.47-.26s-.16,0-.23.06-.39.28-.49,0c0-.13.12-.44.27-.53a1.52,1.52,0,0,1,.9-.37c.19,0,.43,0,.48-.26a.54.54,0,0,0-.31-.63c-.33-.14-.95-.16-.86-.53a2.37,2.37,0,0,1,.83-1.69c.33-.21.58-.69,1.06-.23.06.07.24,0,.36,0s.36-.29.56-.18.11.34,0,.54.12.17.22.17c.32,0,.53.22.79.33s.16.28,0,.41a.61.61,0,0,1-.24.06c-.44.1-1.06,0-.91.81,0,.06-.19.14-.26.23-.28.35-.26.59,0,.84s.46,0,.63-.16.32-.27.34-.51,0-.37.18-.38.41.1.43.2c.1.6.66.79,1,1.17C230.46,74.26,230.57,74.41,230.48,74.57Zm.93-23.06a1.05,1.05,0,0,1-.27-.24c-.08-.12.33-.47.54-.43s.25.16.25.25C232,51.44,231.53,51.27,231.41,51.51Zm.48,26.72s0,0-.06-.07a.13.13,0,0,1,0-.07s0,0,.07,0S232,78.19,231.89,78.23ZM232,49.91c-.09.06-.16.07-.19,0a2.25,2.25,0,0,1-.06-.36c0-.21-.34-.4,0-.64a.62.62,0,0,1,.79,0,1.5,1.5,0,0,1,.24.3C232.29,49.2,232.31,49.71,232,49.91ZM232,36c-.31,0-.6-.16-.91-.22-.52-.1-.62-.15-.1-.46.13-.08,0-.29-.13-.43s-.36-.25-.2-.38c.62-.53,0-.75-.22-1.06s-.24-.5,0-.69a.46.46,0,0,1,.75.13c.23.67.81.75,1.31,1s.73.55.62,1.07C232.89,35.65,232.53,36,232,36Zm1.29,15.12a.27.27,0,0,1-.19.11c-.14,0-.21,0-.25-.17s.3-.42,0-.66c0,0,.09-.15.12-.14s.24.07.29.15a1.32,1.32,0,0,1,.05.37A2.05,2.05,0,0,1,233.24,51.14Zm5.9-22.93c0-.17.08-.33.25-.41s.13-.21.21-.12,0,.16-.11.21.13.22.17.33,0,.34-.18.38a.58.58,0,0,1-.37,0C238.87,28.47,239.1,28.34,239.14,28.21Zm-2.33,4.68-.07,0,.08-.1.07.07Zm4.84-1.33c-.15.23-.38.63-.6.51s-.35-.39-.67-.42-.2-.24-.21-.41a4.43,4.43,0,0,0,0-.63c0-.06-.09-.13-.16-.15s-.24.06-.25.19a8.82,8.82,0,0,1,0,.89,1.24,1.24,0,0,1-.75,1.05c-.3.12-.56.2-.8-.05s-.59-.48-1-.21c-.1.07-.19.07-.2,0,0-.41-.06-.83-.06-1.25a.55.55,0,0,1,.49-.62l.06-.07c.19-.28.44-.47.76-.33a.67.67,0,0,0,.88-.21.94.94,0,0,1,.94-.19c.49.07,1,.2.93.91,0,.34.23.52.53.62A.26.26,0,0,1,241.65,31.56Zm7.57-5.14c.33.25.71.11,1.08.13s.47.1.45.44-.26.37-.52.37h-.49v0a4.56,4.56,0,0,1-.74,0c-.23,0-.53-.57-.41-.75S248.94,26.22,249.22,26.42Zm-3.15,1.63a.37.37,0,0,1-.09-.19c0-.21.14-.25.3-.25s.13.1.12.14A.44.44,0,0,1,246.07,28.05Zm1-1.88c-.52.25-.65-.35-1-.49s0-.82.36-.87a2.08,2.08,0,0,1,1.1.08c.4.15.63.54,1,.67.05,0,.09.1.13.15s-.08.09-.1.09C248,25.63,247.7,26.68,247.05,26.17Zm4.4,3.32c-.12.24-.33.1-.53,0-.37-.19-.41.05-.38.35.08.05.2.13.12.22s-.17,0-.22-.12-.35,0-.43-.2-.2-.46-.43-.26c-.45.4-.76-.22-1.15-.11,0,0-.08-.1-.12-.15.27-.17.57-.3.68-.67s.25,0,.39,0a6.33,6.33,0,0,0,.87,0c.39,0,.72,0,.91.46C251.22,29.18,251.57,29.25,251.45,29.49Zm2.22,2.26a.54.54,0,0,1,.34.43,1.39,1.39,0,0,1-.13.21.6.6,0,0,1-.37-.43C253.49,31.84,253.52,31.7,253.67,31.75Zm-.59,40.14a1.19,1.19,0,0,1-.29-.12s.06-.06.09-.07.21-.08.29,0S253.1,71.9,253.08,71.89ZM254,41c-.09.17-.2.34-.3.51s-.12.09-.29-.09c0,0-.14-.14-.12-.18a3.32,3.32,0,0,1,.38-.46c.12-.13.28-.24.42-.15S254.08,40.86,254,41Zm-.89-4.71a.66.66,0,0,1-.58-.39s0-.07.05-.1c.2-.3.41-.61.62-.9,0-.05.18-.11.19-.09.28.35.54.7.8,1C254.19,36,253.45,36.28,253.12,36.27Zm1-2.38-.1-.07.07-.07.07.07Zm1.19,29.94h.07c.06.05.05.1,0,.14a.14.14,0,0,1-.06-.07S255.34,63.85,255.35,63.83Zm-.56-23.26c-.12,0-.22,0-.19-.15s.13-.09.19-.08.11.08.17.12S254.85,40.56,254.79,40.57Zm.38,35.09-.11-.08.08-.07.06.08Zm.11-3.49c-.09,0-.25,0-.16-.18s.2-.08.31-.09a.23.23,0,0,1,.27.15A.41.41,0,0,1,255.28,72.17ZM256.91,31,257,31l-.08.07-.07,0ZM256.4,39c.08-.09.26-.2.27-.14a.91.91,0,0,0,.78.78s0,.07.05.1,0,.19-.05.24c-.25.23-.43.47-.2.83,0,0-.06.14-.1.2s-.09,0-.11,0a12.33,12.33,0,0,1-.77-1.25A.64.64,0,0,1,256.4,39ZM257.19,65c-.09.09-.17,0-.22-.13l-.25-.25c-.09,0-.21-.13-.12-.22s.17,0,.21.12l.25.26C257.15,64.78,257.27,64.86,257.19,65Zm.05-12.16c-.21,0-.22-.19-.24-.34s0-.34.22-.39.55.24.48.41A.45.45,0,0,1,257.24,52.79Zm.95,11.71a3.47,3.47,0,0,1-.33.26.25.25,0,0,1-.22,0c-.15-.12,0-.21.06-.28a.85.85,0,0,1,.29-.17c.06,0,.14,0,.2.07A.66.66,0,0,1,258.19,64.5Zm.34-2.33a.32.32,0,0,1-.36.33.57.57,0,0,1-.6-.41c-.05-.17.41-.41.68-.37S258.54,62,258.53,62.17Zm.17.73c0,.06-.1.05-.14,0a.18.18,0,0,1,.08-.06s0,0,.07,0S258.71,62.89,258.7,62.9Zm.06-4.74a.39.39,0,0,1-.42-.11s.08-.14.13-.14.33-.08.44.06S258.85,58.14,258.76,58.16Zm.39-15.86a.78.78,0,0,1-.89.59c-.46.27-.61-.66-1.17-.37-.07,0,0-.34.1-.51s0-.46.38-.28.64.13.93.34S259.19,41.92,259.15,42.3Zm6.56-8.06c-.44.07-.71.92-1.34.29-.1-.11-.29.07-.42.19s-.21.27-.4.24a.31.31,0,0,1-.21-.11.27.27,0,0,1,0-.23,7.3,7.3,0,0,1,1.85-.93c.19,0,.41,0,.59.1s.22.18.22.28S265.83,34.21,265.71,34.24Zm.51,1.44-.11-.08.08-.07.06.08ZM266.8,32c0,.13-.1.19-.22.22-.36.09-.73,0-1.1.17s-.59-.46-.41-.71a1.31,1.31,0,0,1,1.07-.5c.49,0,.42.46.65.67C266.81,31.82,266.79,31.88,266.8,32Zm.44-.11c-.05.06-.1,0-.14-.05a.18.18,0,0,1,.08-.06s0,0,.07,0S267.25,31.82,267.24,31.84Zm1.14,3.23c-.2.2-.44.18-.74.18l-.26-.13a1.57,1.57,0,0,0,.26-.19c.1-.12.15-.28.25-.4s.31-.43.59-.23S268.59,34.85,268.38,35.07Zm1.44-6c0,.31-.13.67-.63.41s-.78.08-1.17.17a.56.56,0,0,1-.7-.53c0-.3-.17-.72.37-.76s.72-.69,1.33-.54c.35.08.28-.46.54-.6a.23.23,0,0,1,.31,0,1.86,1.86,0,0,1,.18.24C269.61,27.93,269.82,28.5,269.82,29.05Zm.59,1.27a.37.37,0,0,1-.26-.34s.12-.07.19-.07.23.16.23.32S270.46,30.29,270.41,30.32Zm2.18-1c0,.06,0,.19-.09.2-.45.14-1.16-.43-1.18-.94,0-.16,0-.37.13-.45s.34.07.43.28a.9.9,0,0,0,.56.46C272.6,29,272.62,29.16,272.59,29.35Zm.13-3.24.06.07,0,.07-.11-.07Zm.14,6.06c-.12,0-.21,0-.17-.16s.12,0,.18-.08l.17.12A.71.71,0,0,1,272.86,32.17Zm.35-5.39a.67.67,0,0,1-.11-.18c0-.12,0-.21.16-.18s.05.13.07.19Zm1.27,5.34-.07,0,.08-.11.07.08Zm.23-4.31a.18.18,0,0,1-.06-.08.27.27,0,0,1,0-.07h.07C274.82,27.72,274.8,27.77,274.71,27.81Zm-.14-1.35c-.15-.06-.32-.08-.47-.13a1.43,1.43,0,0,1-.21-.12,1.94,1.94,0,0,1,.21-.29,1.41,1.41,0,0,1,.27-.12c.31,0,.48.07.48.34S274.94,26.6,274.57,26.46Zm1,6.9c0,.06-.1,0-.14,0a.14.14,0,0,1,.07-.06s.05,0,.07,0S275.54,33.35,275.53,33.36Zm5.94-3.14s.15.07.14.09a1.45,1.45,0,0,1-.11.29.2.2,0,0,1-.08-.08C281.37,30.41,281.34,30.31,281.47,30.22Zm0,6c-.13-.09-.31-.19-.26-.35a.47.47,0,0,1,.45-.34c.14,0,.23.09.22.22A.45.45,0,0,1,281.45,36.19Zm1.93,4.8a2.28,2.28,0,0,1-.36.33c-.06-.09-.13-.15-.14-.22a1.83,1.83,0,0,0-.18-.59c-.13-.31,0-.49.33-.45.08,0,.2,0,.24,0,.28.39,1,0,1.06.41C284.4,41.16,283.63,40.65,283.38,41Zm5.09-6.91c.09-.16.27-.16.44-.12s.26,0,.15.23-.17.34-.38.18S288.44,34.12,288.47,34.08Zm-.19,31.7c.24,0,.39.11.39.37s.11.61-.22.66-.57-.09-.56-.41S287.84,65.78,288.28,65.78ZM288,69.57s0,0-.06-.07a.13.13,0,0,1,0-.07s.05,0,.07,0S288.11,69.53,288,69.57Zm-1-42.24a.57.57,0,0,1,.6.34c.07.12-.26.65-.39.67s-.5-.43-.53-.73S286.81,27.35,287,27.33Zm.63,20.27c-.07,0-.13.09-.2.09-.3,0-.25-.26-.31-.44s-.2-.13-.12-.21.16,0,.22.12.08,0,.1.06S287.51,47.47,287.61,47.6Zm-.76,23.15,0,.07-.11-.08.08-.07ZM286,37.06l.06.07,0,.07-.11-.07Zm3.09,37.66c-.24,0-.5,0-.72.14l-.1.06a2.82,2.82,0,0,0-.45-.18,1.09,1.09,0,0,0-.35.07c0,.07.05.16.11.2.43.28.26.77.38,1.15.22.67,0,1-.62,1.1-.17,0-.37,0-.43-.16a.66.66,0,0,1,0-.48.72.72,0,0,1,.34-.35c.58-.27.46-.41-.06-.54-.11,0-.27-.09-.3-.18-.18-.47-.39-.3-.64-.07a1.68,1.68,0,0,1-.29.24c-.68.4-.8.36-.85-.44a.68.68,0,0,0-.44-.65c-.53-.27-.05-.65,0-1s.34-.61.61-.47c.48.24,1.22,0,1.42.8a.65.65,0,0,0,.22.3c.22.23.65.2.7-.09.11-.72,1-.87,1.07-1.58,0-.27.17,0,.26.08.46.54,0,1.26.38,1.82C289.41,74.67,289.24,74.7,289.12,74.72Zm1.89-43a3.37,3.37,0,0,1,.21-.31c.41.36.85.19,1.24.28a.24.24,0,0,1,.18.37c-.09.15-.16.41-.45.29a2.76,2.76,0,0,0-1-.41C291.08,31.92,290.9,31.9,291,31.71Zm2.11,33.37c-.14,0-.26.17-.39.26h0c-.07.16,0,.44-.29.43s-.31-.33-.26-.53.3.05.45,0a.92.92,0,0,1,.5-.75c.05-.09.13-.21.21-.12s0,.16-.11.22S293.58,65,293.12,65.08Zm3.13-9.74c-.18,0-.3-.08-.41-.2s-.14-.21,0-.31.21-.31.37-.08a2.66,2.66,0,0,1,.2.45S296.3,55.33,296.25,55.34Z"/><path d="M139.35,48.43c.18-.1.17-.27.05-.43a.94.94,0,0,1-.11-1,1.45,1.45,0,0,0-.06-1.18,10.08,10.08,0,0,1-.24-2.62,6.68,6.68,0,0,1,0-2.56c.11-.35.36-.86-.15-1.21-.06,0-.06-.26,0-.33.36-.51.12-1-.1-1.42-.11-.23-.38-.51-.21-.69.6-.62.1-1.33.23-2a1.62,1.62,0,0,0-.3-1.2,3.21,3.21,0,0,1-.47-2,3.25,3.25,0,0,0-1.11-2.92c-.13-.1-.34-.26-.32-.37a2.49,2.49,0,0,0-.58-1.91c.5-.55-.12-.87-.25-1.3a2.22,2.22,0,0,0-1.5-1.53c-.14-.05-.28-.11-.28-.22,0-.47-.22-.55-.63-.55a2.29,2.29,0,0,1-1-.46,18.88,18.88,0,0,1-1.9-1.55l-.06-.07a1.09,1.09,0,0,1-.36,0,17.22,17.22,0,0,0-3.92-1.49,3.34,3.34,0,0,0-2.4-.82c-.43,0-.86-.39-1.36-.19-.47-.47-1.05.08-1.62-.2a3.18,3.18,0,0,0-2.77.09c-.21.08-.48.2-.6.08-.39-.41-.73-.08-1,.08a1.76,1.76,0,0,1-1,.21,4.87,4.87,0,0,0-2.4.58,14.48,14.48,0,0,0-2.76,1.37,2.13,2.13,0,0,1-1.05.37,2.49,2.49,0,0,0-1.78.74c-.12.1-.24.27-.42.24-.62-.12-.91.34-1.27.69-.19.17-.36.47-.56.5a2.51,2.51,0,0,0-1.42,1c-.35.35-.85.54-1.05,1-.64,0-.72.52-.95.94a.4.4,0,0,1-.31.18c-.5-.07-.75.22-1,.59,0,.06-.14.09-.21.13s-.11-.18-.09-.22a.64.64,0,0,0,0-.78c-.32-.37-.07-.68,0-1s.33-.47.13-.81a1.47,1.47,0,0,0-.5-.52,5.52,5.52,0,0,0,.53-.43.32.32,0,0,0,0-.45c-.17-.24-.29-.51-.46-.75-.7-1-1.82-.46-2.69-.79-.53.26-1,0-1.52-.13a2.46,2.46,0,0,0-.61-.14c-2.57.17-5.12-.41-7.7-.26a2.75,2.75,0,0,1-1.61-.2c-.36-.21-.71.06-.79.54a2.57,2.57,0,0,1-.23.84,1.32,1.32,0,0,0-.08,1.53.85.85,0,0,1,0,.73c-.35.61,0,1.3-.22,1.85s.13,1.28.11,1.93c0,.25.24.51,0,.78.33.56-.27,1.19,0,1.63s-.14.93.1,1.4a3.85,3.85,0,0,1,.1,1.63c0,.46,0,.93,0,1.4a7.55,7.55,0,0,0,.19,2,4.51,4.51,0,0,1,0,2,4.18,4.18,0,0,0,0,1.83c.32,1.19-.28,2.38.07,3.56a.65.65,0,0,1-.05.36c0,.12-.16.22-.17.34s-.09.47,0,.62c.55.81-.09,1.7.2,2.52-.52.39.12.88-.14,1.38s0,1.08-.11,1.62.37,1.19,0,1.67c-.48.68.18,1,.24,1.56a4.3,4.3,0,0,0,0,.51c.13.55-.31,1.07-.13,1.57a5.94,5.94,0,0,1,.12,1.62c0,.25.09.58,0,.75-.39.53-.12,1,.1,1.4.1.19.27.35.09.57-.35.42-1,.78-.24,1.4,0,0,0,.14-.06.21a10.29,10.29,0,0,0-.42,2.32c-.24,1.23-.26,2.48-.44,3.71a6.91,6.91,0,0,1-.23,2.11,1.41,1.41,0,0,0,.13,1.1,2.85,2.85,0,0,0,.5,1,5.33,5.33,0,0,0-.78.72c-.18.23-.44.49-.19.87.13.21-.09.38-.23.54-.87,1-.86,1,.28,1.48.45.21.88.59,1.3,0,0,0,.15,0,.21,0,1,.47,2.18.09,3.2.58.29.14.79.2,1,0s.43-.34.71,0a.53.53,0,0,0,.7,0,1,1,0,0,1,1.08,0,1,1,0,0,0,.61.1,17.92,17.92,0,0,1,4,.27c.38.08.93-.12,1.11.13.51.7,1.2.41,1.71.29a3.54,3.54,0,0,1,2.32,0c.59.25.81-.34,1.21-.5s0-.41,0-.62c-.11-.74.11-1.52-.27-2.23,0-.08,0-.24.09-.36a13.55,13.55,0,0,0,.4-2.11c-.48-.76.09-1.52,0-2.29a1.38,1.38,0,0,0-.2-.59c-.06-.1-.07-.28.06-.33.57-.22.72-.49.2-1a.51.51,0,0,1,0-.48c.33-.46.14-1,.22-1.47s-.41-1.22.21-1.72c0,0-.06-.15,0-.23,0-.65.06-1.3.08-2,0-.23.19-.39.22-.58a2.3,2.3,0,0,0,0-1c-.32-1.13.48-2.21.1-3.33.36-.81,0-1.69.2-2.5a11,11,0,0,0,.23-2.61,8,8,0,0,1,.19-1.61c.11-.48.43-.81.53-1.23s-.33-.93-.22-1.46-.08-.84.2-1.23a.54.54,0,0,0,0-.48,5.13,5.13,0,0,1-.16-2.49c0-.23,0-.45,0-.66a6.78,6.78,0,0,0-.34-2,16.07,16.07,0,0,0-.25-1.88c-.17-.44-.12-.65.34-.84.27-.11.74-.14.69-.6s.34-.73.57-1.07c.45-.67,1.25-1.15,1.25-2.09.45-.22.46-.89,1-1,.25-.05.42.38.67.13s.07-.48.25-.7a1.16,1.16,0,0,1,1.23-.45c.13,0,.23.28.39,0,.37-.56.87-.34,1.32-.16A17.7,17.7,0,0,0,115,33.24a.56.56,0,0,1,.34.35A3.21,3.21,0,0,0,117,35.51a1.64,1.64,0,0,1,.88,1.44,3.56,3.56,0,0,0,.8,2.17,3.31,3.31,0,0,1,.51,1.89,15.12,15.12,0,0,0,.43,3.21,1.65,1.65,0,0,1,0,1.1,2.53,2.53,0,0,0-.17,1.24,7.68,7.68,0,0,1,0,1.27c-.08.43-.38.85.17,1.21.16.1.07.29,0,.45a6.82,6.82,0,0,0-.65,3.14c0,.85-.46,1.7,0,2.56a.44.44,0,0,1,0,.25c-.2.74.28,1.54-.21,2.25.51.4,0,.91.17,1.38a1.77,1.77,0,0,1-.11,1.47c-.27.45.2.92,0,1.42-.17.34,0,.81-.24,1.21s.29.86.14,1.19a1.89,1.89,0,0,0-.15,1.34c.16.47-.09.92.18,1.39s-.28,1-.21,1.58c.14.94-.3,1.87,0,2.81a.46.46,0,0,1-.08.36A3.33,3.33,0,0,0,117.9,74c0,.33.13.71-.16,1-.59.52-.29,1.19-.32,1.8,0,.18.28.34.19.57s-.37-.17-.51.07-.24.16-.1.31a9.82,9.82,0,0,0,1.19,1.14c.2.15.59-.25.89.1a4.5,4.5,0,0,0,1.55-.3c.19-.13.26-.08.35.12s.46.33.72.45.45,0,.39-.1c-.23-.44.22-.47.33-.47.62,0,1.17-.52,1.82-.19.16.08.55.05.6,0,.25-.55.59-.32.86-.1s.71.62,1.22.22a.35.35,0,0,1,.34.05c.44.57,1.07.38,1.64.39,1.23,0,2.47,0,3.7,0a17.76,17.76,0,0,1,2.72.35,3.41,3.41,0,0,0,1.68-.06c.35-.11.51-.21.48-.58-.11-1.13.41-2.23.26-3.37,0-.15.13-.31.15-.47.12-.74.6-1.49.3-2.19a2.84,2.84,0,0,1,.29-2.5,2.32,2.32,0,0,0,.16-1.82,2.64,2.64,0,0,1,.57-2.66c.26-.32.4-.53,0-.83-.22-.18-.17-.38-.12-.66.15-.76.44-1.57-.24-2.26-.17-.16-.11-.39-.14-.6a3.6,3.6,0,0,1,.29-1.72,2.08,2.08,0,0,0,.11-1.31c-.1-.38-.08-.85-.15-1.27s.49-.43.4-.63a6.21,6.21,0,0,1-.29-1.85,8.26,8.26,0,0,1,0-2.89,3.93,3.93,0,0,0,0-2.07C138.94,49.24,138.77,48.72,139.35,48.43ZM86,73.09s-.12.08-.18.08-.12-.08-.18-.12.11-.1.18-.11S86,73,86,73.09Zm13.69-39.8s.13-.09.19-.08.12.08.18.12a.58.58,0,0,1-.18.11C99.72,33.46,99.61,33.43,99.64,33.29Zm-.73-.3c.1-.05.21-.1.3,0s-.07.14-.09.14l-.29-.11S98.88,33,98.91,33Zm-.81,2.84c.1-.09.17,0,.22.12s.29-.3.41-.08-.08.51-.31.56-.15-.24-.19-.38S98,35.92,98.1,35.83Zm-1,1.71a.54.54,0,0,0,.11-.47c-.09,0-.21-.13-.13-.22s.17,0,.22.12l.5,0c.25,0,.47,0,.32.4s-.1.58.42.62c.25,0,.51,0,.76,0,.07,0,.13.08.2.12s0,.08-.09.1a1.42,1.42,0,0,0-1,1.2s-.14.08-.21.07a.22.22,0,0,1-.19-.11.78.78,0,0,1,0-.37c0-.58-.11-1-.79-1C96.94,38,97,37.74,97.1,37.54ZM97.46,41l0,.07L97.31,41l.08-.07Zm-1.11-13s.05,0,.07,0,0,.06,0,.08-.1,0-.14-.05A.14.14,0,0,1,96.35,27.91Zm-2.58,2.57c.09-.09.18,0,.22.12s.21.13.13.22-.17,0-.22-.12S93.69,30.57,93.77,30.48Zm-.46,2.14a.9.9,0,0,1,1.06-.11c.42.26.62.06.81-.25s.19-.46.31-.68a.27.27,0,0,1,.42-.1c.15.11.42.25.18.47s-.28.37,0,.6c.1.07-.18.37-.47.25s-.62.1-.68.47-.09.56-.4.21-.79-.19-1.18-.29A.63.63,0,0,1,93,32.9C92.9,32.62,93.21,32.71,93.31,32.62ZM94,38c0,.06,0,.14-.08.21s-.08,0-.09,0a8.17,8.17,0,0,1-.5-.7c-.14-.21.08-.3.18-.39.3-.27.14-.64.25-.93s.18-.43.43-.34.29.2.19.48A3.68,3.68,0,0,0,94,38Zm.37-3.3c0-.07-.1-.13-.1-.2,0-.31.27-.24.44-.32A1.26,1.26,0,0,1,95,34c.16,0,.42-.05.43.11s-.22.16-.38.17l-.24,0a.54.54,0,0,1-.06.11Zm.92.73c0-.12.16-.18.29-.15s.18.12.21.26-.15.45-.22.68l.13,0c.11,0,.28.05.26.18s-.2.12-.31.08-.11-.12-.17-.18C95.06,36.07,95.21,35.72,95.24,35.41ZM93.1,38.9s.05.12.07.19l-.12.17c0-.06-.1-.11-.11-.18S93,38.87,93.1,38.9Zm-2.17-2.85a1.13,1.13,0,0,1,.66.84s-.11.12-.16.11c-.3,0-.74-.44-.71-.69S90.87,36.12,90.93,36.05Zm.49,17c0,.2,0,.42-.19.53a.24.24,0,0,1-.23,0,.45.45,0,0,1-.08-.56c.06-.13.22-.32.33-.32S91.4,52.86,91.42,53ZM90.55,42.2s0,.13.07.2-.18.23-.34.2a.1.1,0,0,1-.07-.17C90.29,42.3,90.37,42.16,90.55,42.2Zm0,10.21,0,.07-.1-.07.07-.07Zm-.27-19.1c.16.2,0,.38-.15.51s-.38,0-.46-.17a2.28,2.28,0,0,1-.13-.6l.17-.31a1.19,1.19,0,0,0,.18.29C90,33.14,90.22,33.18,90.31,33.31Zm-.77-6.45a.24.24,0,0,1,.22,0c.15.17-.13.25-.1.4s.21.13.13.22-.17,0-.22-.12-.14-.09-.17-.16A.25.25,0,0,1,89.54,26.86Zm0,15.62,0,.07-.1-.08.07-.07ZM89,38.86s0,0,.07,0,0,.06,0,.08-.1,0-.14,0A.18.18,0,0,1,89,38.86Zm-.36,24.86s.08-.12.13-.16.07,0,.11,0c.23.15.27.41.38.63s.56.26.16.53c-.13.08-.31.33-.54.15s-.36-.36-.16-.64a.41.41,0,0,0,.07-.11A3.39,3.39,0,0,1,88.61,63.72Zm.29,2.37c0,.15,0,.38-.18.4a.32.32,0,0,1-.31-.31c0-.18.25-.14.39-.18s.13-.21.22-.12S89,66,88.9,66.09Zm-.44-29.27a.13.13,0,0,1,.07,0s0,0,0,.07-.1,0-.14,0A.18.18,0,0,1,88.46,36.82Zm-.28,13.51h.07c.06.05,0,.1,0,.14s0,0-.06-.07S88.17,50.35,88.18,50.33Zm0,.52s.15.07.15.09-.08.19-.12.29l-.08-.08C88.08,51,88.06,50.93,88.18,50.85Zm3.55,18.58c-.21.23-.4.19-.66,0s-.7-.31-.71-.78c0-.17-.07-.35-.29-.3s-.17.26-.18.42l0,.63s-.06.09-.08.09a.54.54,0,0,1-.21-.08.55.55,0,0,1-.15-.19c-.13-.26,0-.69-.34-.76a1.79,1.79,0,0,0-.91.2,1,1,0,0,1-.59.14c-.12,0-.5-.59-.44-.67a.38.38,0,0,1,.46-.09.9.9,0,0,0,1.33-.18c.09-.1.32-.07.48-.12a.23.23,0,0,0,.15-.29c0-.15-.19-.14-.32-.11s-.07,0-.08,0-.25.11-.29,0a.26.26,0,0,1,.06-.23c.53-.45.84-.43,1.25.08a4.41,4.41,0,0,1,.25.43.52.52,0,0,0,.57.26c.36,0,.67.46.88.81A.59.59,0,0,1,91.73,69.43Zm.6-.67c-.14,0-.18-.08-.15-.2s.07-.11.12-.17l.11.18C92.38,68.64,92.37,68.75,92.33,68.76Zm-.66-37.59a.16.16,0,0,1,.09-.2.88.88,0,0,1,1.09.24.79.79,0,0,1,.06.22c0,.07-.06.17-.12.2A1.06,1.06,0,0,1,91.67,31.17Zm2.6,17.67c.1.2.24.37,0,.38s-.29-.22-.28-.42.06-.33.27-.31C94.61,48.54,94.23,48.78,94.27,48.84Zm1.86-4.14a1.6,1.6,0,0,1-1.36.49c-.39,0-.73,0-.39.55.24.35,0,.62-.14.93-.14.53,0,.71.61.77.16,0,.33,0,.49.06s.1.1,0,.2a.82.82,0,0,1-1.13.21c-.16-.14-.3-.35-.48-.4-.6-.17-.56-.52-.31-.92.13-.2.2-.36,0-.52a.58.58,0,0,1-.16-.19,3,3,0,0,1-.38-2.7c-.09,0-.21-.13-.13-.22s.17,0,.22.12c.28.35.46.65,1.08.4s1.34-.47,1.72.46c.12.29.29,0,.33-.1a4.92,4.92,0,0,0,.19-.58c0-.15.21-.12.32-.09a.21.21,0,0,1,.11.19C96.5,43.8,96.51,44.3,96.13,44.7Zm-1,1.86,0,.07L95,46.55l.08-.07Zm.34-5.69c0-.16.42-.5.73-.53s.26.15.27.32c0,.32-.1.63-.44.6C95.89,41.24,95.56,41.18,95.5,40.87Zm1-1.82c-.13-.37-.41-.45-.78-.5a1.17,1.17,0,0,1-1-1.08c0-.14.17-.27.24-.37l.16,0c.27.59,1.11.35,1.37.94a1.07,1.07,0,0,0,.51.52c.43.25,0,.5-.1.66S96.56,39.3,96.47,39.05Zm.87,14.25-.29-.11s0-.07.08-.08.21-.11.29.06A1.05,1.05,0,0,1,97.34,53.3Zm.26-4.6c-.14-.2-.26-.42-.39-.62s-.2-.18-.1-.3a.23.23,0,0,1,.33,0c.24.21.41.4.83.23s.51.34.74.58a.87.87,0,0,1-.15.21A1.23,1.23,0,0,1,97.6,48.7Zm.88,2.84c-.15,0-.36.06-.38-.16s.13-.23.24-.27.27.11.36.23S98.6,51.54,98.48,51.54Zm.46,21s-.12.09-.19.08-.11-.08-.17-.12.11-.1.18-.11S99,72.44,98.94,72.58Zm-.28-.9a1.54,1.54,0,0,1-.47-.05c-.17-.06-.19-.25-.18-.43s.08-.29.3-.19a2,2,0,0,0,.48.11c.19,0,.48-.05.47.26S98.91,71.63,98.66,71.68ZM99.22,52s-.12-.11-.11-.15a.44.44,0,0,1,.34-.29s0,.13.08.19C99.54,52,99.38,52,99.22,52Zm1.42-2.67c-.14.26.07.6-.17.83s-.85-.6-.94-.83a3,3,0,0,1-.22-.57.41.41,0,0,1,.52-.44c.56.12.94.44.94.79A2.53,2.53,0,0,1,100.64,49.36Zm.6-6.79c-.1.12-.25.46-.42.08s-.43-.51-.63-.77a.36.36,0,0,1,0-.21s.08-.06.1-.06c.35.12.69.24,1,.38,0,0,0,.15.07.27A.65.65,0,0,1,101.24,42.57Zm-.89-2.88a.19.19,0,0,1,.08-.07s0,0,.07,0a.17.17,0,0,1,0,.07C100.45,39.79,100.39,39.77,100.35,39.69Zm.94-2.9a1.66,1.66,0,0,0-.3.22c-.24.27-.37.27-.5-.11-.08-.23-.27-.43-.06-.68.08-.09.07-.16-.05-.18a.35.35,0,0,0-.24.06.64.64,0,0,0-.32.51c0,.23-.07.47-.35.37s-.17-.32,0-.55a4.62,4.62,0,0,1-.16-.52c0-.17,0-.42.21-.4.56.07.83-.24,1.07-.66a.28.28,0,0,1,.44,0,.29.29,0,0,1-.06.44c-.36.29-.33.52.09.71a1.16,1.16,0,0,1,.33.18C101.65,36.38,101.63,36.54,101.29,36.79Zm2-.38a.26.26,0,0,1-.21.08.63.63,0,0,1-.44-.86c0-.06.12-.08.2-.13.24,0,.36.16.47.33A.51.51,0,0,1,103.29,36.41Zm1.11-3.56a.59.59,0,0,0-.69.51c-.06.56-.28.52-.69.42a.31.31,0,0,0-.21.54c.08.08.07.24.1.36a.31.31,0,0,1,.18.4.12.12,0,0,1-.08.09c-.2-.06-.15-.26-.21-.39l-1.64-1.28c-.1-.08-.38,0-.22-.3a.4.4,0,0,1,.4-.24c.15,0,.29.1.44.11s.12-.11.18-.17.06-.15-.06-.17c-.28-.06-.49-.33-.81-.3-.14,0-.22-.08-.25-.22s.11-.3.22-.42a.39.39,0,0,1,.56,0c.16.12.33.12.42-.05.31-.57.71-.44,1-.05a1.34,1.34,0,0,0,1.41.75.2.2,0,0,1,.21.25C104.61,32.83,104.58,32.9,104.4,32.85ZM121,28.94s.06,0,.08,0,0,.1,0,.14,0,0-.06-.07S121,29,121,28.94Zm-1.51-7.51a.72.72,0,0,1-.09-.2c0-.22.15-.25.31-.24s.12.11.1.15A.43.43,0,0,1,119.52,21.43Zm1,7s.12-.08.19-.08.11.08.17.12-.11.1-.18.11S120.49,28.59,120.53,28.45Zm.64,1.49a.2.2,0,0,1-.25.18.21.21,0,0,1-.22-.22c0-.24.15-.27.31-.24S121.19,29.8,121.17,29.94Zm1.46-4.71-.11-.07.08-.07.07.07Zm.51,44.83L123,70l.08-.07.07.08Zm.53-12c0,.06-.1,0-.14,0s0-.05.07-.06.05,0,.07,0S123.68,58.05,123.67,58.07Zm1.24-8.41a.6.6,0,0,1-.13-.08,1.72,1.72,0,0,1,.11-.29s.07.05.08.08S125.08,49.58,124.91,49.66Zm4.6-5.16s.06.12.08.19l-.12.17c0-.06-.1-.11-.11-.17S129.36,44.46,129.51,44.5Zm-1-5.15.06.08,0,.07-.11-.08Zm-1.05-15.26a.46.46,0,0,1,.34.29c0,.05-.07.14-.12.14s-.32,0-.31-.24S127.39,24.09,127.41,24.09Zm-.31,16.84c-.25.17-.2.55-.51.65-.08,0-.2,0-.22-.07a3.5,3.5,0,0,1-.31-.91c0-.27.15-.66.37-.69s.51.22.73.4S127.32,40.77,127.1,40.93Zm.2,28.72-.12.17a.71.71,0,0,1-.12-.18c0-.12,0-.21.16-.18S127.27,69.58,127.3,69.65Zm-.13-46.33s0,0,.07,0,0,.06,0,.07-.1.05-.14,0S127.14,23.34,127.17,23.32Zm-.89,0c0-.07.08-.19.1-.19.22,0,.16.2.18.38l-.16.24A.43.43,0,0,1,126.28,23.29ZM126,38.56c.12,0,.23,0,.19.15s-.13.09-.19.08-.11-.08-.17-.12S125.94,38.57,126,38.56Zm-.34,11.9c-.12,0-.12-.1,0-.16a.49.49,0,0,1,.55.05c0,.06-.07.15-.1.16A1.68,1.68,0,0,1,125.66,50.46ZM129.76,72c-.16,0-.28.47-.39.73s-.78.51-.92.17a1.77,1.77,0,0,0-1.85-1c-.51,0-.56-.16-.35-.54-.1-.26-.32-.57.24-.53a1,1,0,0,0,1-.34c.13-.18.31-.1.39.06.2.4.59,0,.87.23s.46-.15.51-.41-.18-.47-.34-.44c-.6.12-.48-.53-.79-.7-.08,0,.1-.2.21-.17a9.52,9.52,0,0,1,1.08.29c.17.06.19.28.16.44a2.84,2.84,0,0,0,.35,1.44C130.1,71.64,130.57,71.89,129.76,72Zm-.36-8.65.08-.07.06.07,0,.07Zm1.34-3.73a7.71,7.71,0,0,1-.84.1c-.12.21-.23.21-.35,0s-.22-.23,0-.35.3-.41.42-.4a2.7,2.7,0,0,1,.87.35S130.89,59.6,130.74,59.63Zm.32-17.15c-.59-.12-.61-.15-.49-.82-.25,0-.5,0-.74-.06-.06,0-.12-.09-.18-.13a3.09,3.09,0,0,1,.63-.36c.17-.06.42-.11.53.12s-.08.21-.12.32l.41.34.06-.06s0-.11,0-.12a.78.78,0,0,1,.9,0,.24.24,0,0,1,.06.22,1.16,1.16,0,0,1-1,.61S131.1,42.49,131.06,42.48Zm1,3.1c-.12.05-.16-.08-.17-.2A.44.44,0,0,1,132,45l.17.31C132.14,45.38,132.12,45.55,132.05,45.58Zm.62-1.16c.07,0,.13.07.2.11-.19.14-.08.49-.38.54a.4.4,0,0,1-.1-.21C132.39,44.66,132.37,44.43,132.67,44.42Zm.15,4.24-.11-.07.08-.07.06.07Zm.06-1.07a.73.73,0,0,1-.18.17c0,.09-.13.21-.21.13s0-.17.12-.22a.5.5,0,0,1,0-.12c0-.12,0-.29.17-.27S132.93,47.48,132.88,47.59Zm.88-5.75a.29.29,0,0,1-.23,0c-.18-.32-.32-.54-.76-.25s-.5-.18-.67-.41a1,1,0,0,1-.73-.41c-.15-.18-.49-.49-.42-.53a1.08,1.08,0,0,0,.49-.77c.05-.16.2,0,.28.07a.48.48,0,0,1,.14.55l.06.06c.24,0,.57-.14.31.32a.86.86,0,0,0,0,.61c.24,0,.16-.27.26-.39.35-.41.63-.43.89,0s.33.67.5,1A.11.11,0,0,1,133.76,41.84Zm.63,6.23c-.15-.15-.4-.34-.38-.47s.33-.13.44-.15a3.15,3.15,0,0,1,.46,0,.62.62,0,0,1,.22.1c-.14.13-.32.23-.4.39S134.56,48.23,134.39,48.07Zm1.2,1.12c-.19-.35-.79.05-.88-.48a.22.22,0,0,1,0-.1c.29.06.59.11.88.19,0,0,.06.14.09.21Z"/><path d="M55.63,21.3a1.61,1.61,0,0,0,0-.38,1.05,1.05,0,0,0-.87-.94c-2.19-.12-4.34-.58-6.54-.52-1.49,0-3,0-4.46,0a2.39,2.39,0,0,1-1.46-.28,1,1,0,0,0-.45-.22,6.91,6.91,0,0,0-4,.74c-.26.15-.25.26-.14.48a1.19,1.19,0,0,1,.13.48,51.1,51.1,0,0,0,.25,6.18c.23,1.76-.36,3.5-.26,5.28.09,1.57,0,3.14,0,4.71a12.24,12.24,0,0,1-.44,3.07,5.19,5.19,0,0,0-.13,1.69,4.48,4.48,0,0,1,.08,1.51c-.09.49.06,1-.44,1.38-.06,0-.06.15-.08.23-.1.41.45.55.4.86s-.61.48-.24,1c.18.23.08.56,0,.85-.21,1-.91,1.79-.71,2.85,0,.22-.19.36-.33.51-.38.42-.18,1.07-.57,1.49.33.77-.14,1.32-.51,1.92a25.35,25.35,0,0,0-2.27,3.74,6.9,6.9,0,0,1-.95,1.46c-.31.4-.85.67-1,1.1-.62,1.38-1.95,1.42-3.11,1.76a1.88,1.88,0,0,0-.89.39.45.45,0,0,1-.68,0A2,2,0,0,0,24.05,62a1.34,1.34,0,0,1-1.11-.48c-.4-.4-.79-.76-.68-1.4a.5.5,0,0,0-.08-.36A16.28,16.28,0,0,1,21,57.2a7.08,7.08,0,0,1-.68-2c.45-.45.09-.87-.09-1.27a3.8,3.8,0,0,1-.28-3c0-.07.07-.18,0-.23-.44-.8-.14-1.67-.21-2.49,0-.42-.55-.95.22-1.24a.59.59,0,0,0,0-.35c-.65-.17,0-1-.55-1.16-.09,0-.13-.17-.05-.32a3.25,3.25,0,0,0,.17-1.75,2.81,2.81,0,0,1,.24-1.61.74.74,0,0,0,0-.91c-.34-.59.05-1.17.1-1.76.61-.25.39-.62.16-1s-.33-.6.09-.85c.15-.09,0-.21,0-.32a1.36,1.36,0,0,1,0-1.1c.21-.41-.23-.69-.09-1.07a5.47,5.47,0,0,1,.31-.54l-.06-.06c-.1,0-.19,0-.19-.09s.09-.13.19-.09l.06-.06A1.42,1.42,0,0,1,20,32.39a4,4,0,0,0,.19-1.73,8,8,0,0,1,.4-2.84,1,1,0,0,0,.11-.35c-.17-1.31.37-2.57.27-3.88a3.23,3.23,0,0,1,0-1.39c.26-.61-.11-.8-.47-1a3.34,3.34,0,0,0-1.78-.47,7.38,7.38,0,0,1-2.4-.06c-.73-.23-1.53,0-2.19-.44C12.59,20.41,11,20,9.42,20H2.55c-.27,0-.36.14-.37.4a1.14,1.14,0,0,0,.21.71c.22.32.09.67.09,1s-.55.69-.48.88c.28.77-.26,1.45-.08,2.19a1.39,1.39,0,0,1,0,.88c-.25.48-.09,1-.26,1.46a4.79,4.79,0,0,0-.11,1.54,10.64,10.64,0,0,0-.09,1.49c0,1.06-.44,2.06-.28,3.12a3.53,3.53,0,0,0-.23,2.1c0,.73-.41,1.36-.28,2.1A3.56,3.56,0,0,1,.33,40a1.52,1.52,0,0,0-.17.85A8.73,8.73,0,0,1,0,45.5c0,.07,0,.12.09.15a.55.55,0,0,1,.26.84c-.3.44.25.84-.09,1.3s0,.81.11,1.22a1.36,1.36,0,0,1,0,.87C.17,50.25,0,50.64.26,51s-.32.76-.09,1.18a2.47,2.47,0,0,1,.07,2.06c-.11.33-.11,1,.08,1.07.57.37.33.71.09,1-.48.67.13,1.44-.23,2.12,0,.08.1.21.25.21.62,0,.54.47.45.81a2,2,0,0,0-.05.92,8.15,8.15,0,0,1,.29,2,3.14,3.14,0,0,0,.33,2.06c.28.36.19.72.24,1.08s.67.35.73.78a.3.3,0,0,1,0,.13,1.2,1.2,0,0,0,.8,1.39c.29.15.4.6.77.75.18.08.2.25,0,.41-.31.31-.59.62.16.69a.3.3,0,0,1,.27.36c-.19,1,.55,1.48,1.06,2.09a8,8,0,0,1,.66.76c0,.06-.24.32.07.32.54,0,.68.39.88.77.1.17.12.5.34.49.69,0,1.07.54,1.61.75,1.24.49,2.32,1.29,3.58,1.74.93.33,1.77,1,2.83.86a1.1,1.1,0,0,1,.47.16,6.45,6.45,0,0,0,3,.6,11.11,11.11,0,0,0,2.36-.23c.63-.15,1.35.07,1.76-.67.12-.2.39-.12.59-.12a8.25,8.25,0,0,0,4.59-1A6.6,6.6,0,0,0,30,75.33c.34-.38.7-.74,1.06-1.1.14-.15.34-.39.52-.26.38.27.52,0,.71-.21a1.5,1.5,0,0,1,1.17-.63c.39,0,.61-.2.34-.66a.41.41,0,0,1,.27-.59,3.66,3.66,0,0,0,1.41-1c.52-.58,1.42-.71,1.8-1.47.44,0,.57-.17.58-.6s.53-.66.66-1.11c0-.11.53-.08.82-.12.08-.17.24-.2.39-.26s.45-.38.6-.07c.07.16-.25.38-.53.39l-.36,0a1,1,0,0,1,.15,1.41c-.19.31-.6.71-.4,1,.45.67-.2,1.36.2,2,.27.46-.25.94-.24,1.45,0,.81,0,1.61,0,2.42,0,.32-.16.72.13,1s.54,0,.8-.15a.34.34,0,0,1,.24,0c.42.32.9.17,1.35.17,1.28,0,2.55,0,3.82,0a2.11,2.11,0,0,1,1.33.28c.24.17.42.07.67,0,1.47-.43,2.95-1,4.47-.1a.82.82,0,0,0,.84,0c-.24-.36,0-.41.28-.39s.65.47.91.15c.11-.14-.12-.59-.12-.92,0-.85-.56-1.69,0-2.55a.14.14,0,0,0,0-.12c-.61-.61,0-1.36-.22-2-.13-.42.6-.27.38-.76-.12-.29-.45-.64-.17-1-.32-.22,0-.79-.5-.93a.31.31,0,0,1-.18-.42c.31-.48-.06-.74-.3-1l-.25-.25-.13,0c-.11,0-.28,0-.26-.17s.2-.13.31-.08.11.12.17.18l.25.25c.8-.46.82-.48.39-1.13a.53.53,0,0,1,0-.67A2.72,2.72,0,0,0,53.79,64c0-.47-.08-.86.29-1.21a.26.26,0,0,0,0-.24c-.54-.5-.08-1,0-1.48s.35-1.07.17-1.56a1.47,1.47,0,0,1,.11-1.31c.21-.37.44-.74.08-1.16a.36.36,0,0,1,0-.36c.28-.39-.11-.9,0-1.13.34-.52,0-.88-.06-1.31a1.63,1.63,0,0,1,.08-.61c.24-.78.22-.79-.25-1.65a.38.38,0,0,1,.06-.45c.17-.23.63-.46.5-.64-.46-.64.37-1.3-.11-1.89.23-.52-.12-1,0-1.56s-.08-1,.24-1.46c-.36-.48-.16-.92,0-1.41a1.49,1.49,0,0,0-.12-1A1.68,1.68,0,0,1,54.81,42a1.27,1.27,0,0,0,.08-1c-.07-.35-.19-.84.1-1.09a.6.6,0,0,0,0-1,1.44,1.44,0,0,1-.27-1.73,1.64,1.64,0,0,0,.09-.74,7.71,7.71,0,0,1,.27-2.14c.08-.32.27-.61-.13-.86-.14-.08-.19-.35,0-.42.47-.2.27-.41.18-.77a3.35,3.35,0,0,1,0-1.75,1.58,1.58,0,0,0,0-.68,10,10,0,0,1-.16-2.8,5.45,5.45,0,0,1,.53-2.16.66.66,0,0,0,0-.5A6.46,6.46,0,0,1,55.63,21.3Zm-47.12,2c.46,0,.24.41.3.67a2.28,2.28,0,0,1,0,.36.26.26,0,0,1-.5-.06,1.1,1.1,0,0,1,0-.25C8.31,23.77,8.09,23.35,8.51,23.31Zm0,1.65c-.05.06-.1,0-.14-.05a.32.32,0,0,1,.08-.06l.07,0S8.47,24.94,8.46,25Zm-.3,3.34-.07,0,.08-.11.07.08Zm-.35-1.84c0-.1-.07-.26.06-.32.29-.12.6-.22.9-.31a.25.25,0,0,1,.2.09.84.84,0,0,1,.06.71c-.07.25-.31.21-.54.22A.65.65,0,0,1,7.81,26.46Zm.74,27.42s0-.1,0-.12l.69-.49c.05-.09.13-.21.22-.13s0,.17-.12.22c0,.44-.37.5-.66.65C8.67,54,8.59,53.93,8.55,53.88Zm2.19,13.36c-.09.09-.16,0-.21-.12a.33.33,0,0,1-.19-.41s.06-.09.08-.08c.21.06.15.25.2.39S10.83,67.15,10.74,67.24Zm-.34-1c-.18-.1-.37-.24-.32-.48a.84.84,0,0,1,.27-.38c.2-.15.3.08.37.19a1,1,0,0,1,.13.38C10.78,66.29,10.61,66.36,10.4,66.24Zm.9-6.4c-.25,1-.47,1.11-1.29.45-.16-.12-.27-.32-.51-.33s-.5-.1-.47-.44a.62.62,0,0,1,.54-.6.86.86,0,0,1,.27,0,1.83,1.83,0,0,1,1.26.4A.44.44,0,0,1,11.3,59.84Zm.18-9.63-.08,0,.08-.11.07.08Zm.35-.64s-.11.12-.15.11a.41.41,0,0,1-.28-.34s.12-.05.19-.08C11.81,49.25,11.84,49.41,11.83,49.57Zm1.68-11,.06.08,0,.07-.11-.08Zm-.14,2.35c.08-.49.62-.78.63-1.31l.09,0a.23.23,0,0,1,.29.18c.09.38-.17.74,0,1.16.06.21-.31.46-.66.43A.33.33,0,0,1,13.37,40.93Zm.34,7.71c0-.12.11-.17.27-.17s.39,0,.39.28c0,.14-.08.21-.22.22A.43.43,0,0,1,13.71,48.64Zm1.12,11a.32.32,0,0,1-.34.28.33.33,0,0,1-.29-.35.39.39,0,0,1,.36-.29C14.7,59.31,14.86,59.42,14.83,59.59Zm1.7-1.88a4.08,4.08,0,0,1-.24.45,2.21,2.21,0,0,0-1.06-.62c-.1,0-.09-.21,0-.32s.23-.35.36-.27a1.94,1.94,0,0,0,1,.48C16.73,57.45,16.57,57.62,16.53,57.71Zm1-2.5c-.1.09-.22.13-.32,0a2.29,2.29,0,0,0-1.83-.9c-.14,0-.12-.17-.05-.28.25-.35.73-.16,1-.42a11.63,11.63,0,0,1,1.35.57C17.86,54.33,17.73,55,17.49,55.21Zm7.76,11.67a.48.48,0,0,1,.07.2c0,.22-.16.23-.32.23s-.1-.12-.08-.16A.38.38,0,0,1,25.25,66.88Zm.63,4a.35.35,0,0,1-.33.31c-.23,0-.57-.1-.66.21a2.68,2.68,0,0,0,0,.75c.09,0,.21.13.13.22s-.17,0-.22-.12l-.63,0c-.16,0-.36,0-.23-.27a1.15,1.15,0,0,0,.1-.23c.08-.32-.13-.72.16-1s.65,0,1-.1a1.54,1.54,0,0,0,.47-.16c.12-.06.26-.11.34,0S25.9,70.7,25.88,70.84Zm1.9-6.26.07.07-.08.07-.07,0Zm-1,0c.11,0,.22-.11.29.06s-.06.13-.08.13l-.29-.11S26.71,64.58,26.74,64.57Zm.58,3c-.31,0-.49-.1-.46-.43,0-.17.05-.35.29-.32s.28.37.4.57S27.44,67.59,27.32,67.59Zm.33-1.43a.37.37,0,0,1,0-.23c0-.11.09-.1.19,0,.25.14.51.26.76.38.1,0,.25,0,.18.21s-.13.07-.21.09a1.16,1.16,0,0,1-.19,0A.7.7,0,0,1,27.65,66.16Zm.94,4.23c-.23,0-.45,0-.42-.31s.21-.23.37-.22.33,0,.35.25S28.73,70.36,28.59,70.39Zm.14-7.17c-.17,0-.33,0-.31-.24a.2.2,0,0,1,.22-.22c.16,0,.21.07.25.19A.22.22,0,0,1,28.73,63.22Zm1.42,7.14a.38.38,0,0,1-.37-.27c-.06-.37.33-.25.49-.39s.17.1.18.26S30.46,70.36,30.15,70.36Zm.38-4.89s-.07-.13-.07-.2.16-.23.32-.23.06.11.09.16A.38.38,0,0,1,30.53,65.47Zm1.61-.53c0,.06-.1,0-.13,0s0-.05.07-.07.05,0,.07,0S32.16,64.93,32.14,64.94Zm3.38-5.48c0-.2.13-.29.32-.26s.2.11.17.4a.43.43,0,0,1-.36.27C35.5,59.87,35.51,59.62,35.52,59.46ZM35,67.05a.48.48,0,0,1-.46-.5c0-.33.38-.37.57-.4s.08.32.2.41C35.27,66.81,35.3,67.08,35,67.05Zm1.79-2.76c-.06.32-.27.23-.45.16s-.3,0-.44,0c-.4.14-.59-.09-.73-.43-.08-.19-.1-.3.14-.32a1.62,1.62,0,0,1,1.19.22C36.61,64.07,36.82,64.07,36.78,64.29Zm1.61-.7c-.08.08-.17.17-.31.06-.5-.37-.62-1.08-1.26-1.34-.15-.07,0-.78.12-.79a1.55,1.55,0,0,0,.22.12,1.75,1.75,0,0,1,1.08,1.14c.07.17-.2.46.22.53C38.62,63.33,38.46,63.51,38.39,63.59Zm1.12.59c-.14,0-.18-.09-.15-.2a.66.66,0,0,1,.12-.17l.12.18C39.57,64.05,39.55,64.17,39.51,64.18Zm2.55-9.66L42,54.44l.08-.07.07.08Zm.4,3.65c-.12,0-.29-.06-.22-.18s.08-.53.4-.58.23.18.28.26C43,58.07,42.77,58.19,42.46,58.17Zm.63-4.43c0,.06-.09,0-.13-.05s0,0,.07-.06,0,0,.07,0S43.11,53.72,43.09,53.74ZM43.34,52s-.1-.12-.09-.16a.4.4,0,0,1,.34-.27.68.68,0,0,1,.07.2C43.66,52,43.49,52,43.34,52ZM43.8,50s0,0-.06-.07,0,0,0-.07.06,0,.07,0S43.89,49.92,43.8,50Z"/><path d="M375.36,60.65a18.16,18.16,0,0,0-.23-3.89,2.17,2.17,0,0,1,.13-1.61.92.92,0,0,0,0-1,.59.59,0,0,1-.09-.6c.43-.72.13-1.5.21-2.24.06-.53-.16-1.12.4-1.52-.23-.4.26-.92-.07-1.18a.8.8,0,0,1-.32-.74c0-.37.09-.75-.13-1.11s0-.51.35-.54.24-.16.08-.29a1,1,0,0,1-.3-.92,8.64,8.64,0,0,0,0-1,6,6,0,0,1,.38-2.81.31.31,0,0,0,0-.32c-.8-1.36-.44-2.94-.85-4.38a1.47,1.47,0,0,1,0-.75c.14-.52.35-1,0-1.54.21-.78-.11-1.57.22-2.39a3.75,3.75,0,0,0-.06-2.77,1.75,1.75,0,0,1,.07-1.56c.39-.66.06-1.4.1-2.09a11.71,11.71,0,0,1-.1-1.27c.12-1-.37-1.49-1.36-1.52-.72,0-1.44,0-2.16,0a3.28,3.28,0,0,1-.77,0,39.22,39.22,0,0,0-4.46-.48c-1.43-.19-2.83.44-4.26.26-1.24-.24-2.41.31-3.63.25a.52.52,0,0,0-.58.41c-.08.62-.63,1.15-.31,1.87a1.2,1.2,0,0,1-.26,1.07.92.92,0,0,0-.06,1.05,2.5,2.5,0,0,1,.08,1.25c0,.34-.17.66,0,1a.72.72,0,0,1-.4,1s-.07.19,0,.22c.38.39.06.94.3,1.33s.11.87-.27,1.19-.24.31-.07.6a2.12,2.12,0,0,1,.28,2,3,3,0,0,0-.07,2.08,5.17,5.17,0,0,1,.21,1.44,9.74,9.74,0,0,0-.15,1.61c0,.55-.55,1.09-.05,1.67,0,0-.08.22-.13.33-.65,1.33-.36,2.74-.25,4.1a18.77,18.77,0,0,1,.2,2.27,7.43,7.43,0,0,0-.09,1.43,16.45,16.45,0,0,1-.22,4.64.75.75,0,0,1-.23.44c-.75.59-.16,1.58-.7,2.22.54.51-.27,1,0,1.54.35.69-.61.93-.57,1.52,0,.39-.41.34-.52.64-.74,1.92-2.64,2.24-4.23,3-.69-.4-1.62,0-2.24-.65-.14-.15-.33-.4-.52-.26-.38.29-.49-.1-.72-.2-.45-.17-.52-.61-.76-.93s-.81-.21-1-.63c0-.07-.13-.13-.15-.2-.09-.3-.15-.59.29-.67.1,0,.41.11.28-.21a.24.24,0,0,0-.39-.12.42.42,0,0,1-.68-.3c-.06-.47-.38-.72-.62-1.06a3.09,3.09,0,0,1-.73-2.21,2.62,2.62,0,0,0,0-1,12.07,12.07,0,0,1-.47-3.58c0-.72,0-1.44,0-2.16,0-.25.07-.52-.1-.74a2.94,2.94,0,0,1-.4-2.06c.05-.63.06-1.26.09-1.88s-.09-1.31-.09-2c0-4.92,0-9.84,0-14.76,0-.73-.43-1.52.15-2.22a6.79,6.79,0,0,1-.16-2.5c0-.31-.19-.57-.22-.83-.06-.45-.22-.55-.64-.57a5.55,5.55,0,0,1-2.49-.22c-.38-.18-.73.13-1.07.28s.17.31,0,.39a1.82,1.82,0,0,1-.62.07,2.83,2.83,0,0,1-1.13-.05.74.74,0,0,0-.67.05c-.22.09-.38.22-.68.07a1.17,1.17,0,0,0-1.1.06c-.34.22-.61.06-.93-.07s-.46-.46-.8-.22-1,.16-1.57.36a2.08,2.08,0,0,1-1.83-.19,1.19,1.19,0,0,0-.82-.26,14.4,14.4,0,0,0-2.76.19,5.84,5.84,0,0,1-1.7.34c-.53,0-1.19.65-1,1,.32.54-.14.87-.09,1.3s0,.94,0,1.4c0,.21-.32.35-.12.56.67.72.43,1.75.85,2.56a.73.73,0,0,1,0,.61c-.14.25-.56.24-.66.55s.56.33.48.77,0,.84-.08,1.26c0,.18-.39.41-.35.48.15.27.34,0,.52,0s.17.23.14.29c-.3.57-.11,1.25-.44,1.8a.46.46,0,0,0,0,.59c.54.38.35.79.1,1.2s-.35.51.13.67c.08,0,.11.2.16.3a3,3,0,0,1,0,2.55c-.13.32-.31.64-.18.95s.47.5.6.79-.42.59-.24,1c0,.08.1.16.1.23a3.44,3.44,0,0,1-.14,1.62c-.08.13-.14.37-.07.47a3.59,3.59,0,0,1,.22,2,16.89,16.89,0,0,0,.49,5.35.64.64,0,0,1-.09.48,1.15,1.15,0,0,0,.12,1.3,3.45,3.45,0,0,1,.59,1.75,9,9,0,0,0,.72,2.78c.2.63.77,1.12,0,1.74-.19.16,0,.5.09.65.28.89.21,1.82.47,2.69a1.08,1.08,0,0,1,0,.69,2.19,2.19,0,0,0,.37,2.13c.21.25.57.51.56,1a5.63,5.63,0,0,0,.56,2c.22.66.77,1.22.74,2,0,.07.08.15.14.21a8.31,8.31,0,0,1,1,1.75c.19.33.29.71.74.78s.1.66.42.88.78,0,1.06.3a1.07,1.07,0,0,0,.19.18,15.61,15.61,0,0,0,1.55,1.27,3.18,3.18,0,0,0,2,.64,6.38,6.38,0,0,1,3.6.89c1.18.62,2.52.45,3.78.63.07,0,.16,0,.23-.08a2.49,2.49,0,0,1,1.84,0,1,1,0,0,0,.73.08,3.64,3.64,0,0,1,2-.21,3.39,3.39,0,0,0,1.68-.43c.48-.24.91-.64,1.5-.6a2.64,2.64,0,0,0,2.32-1.2c.13-.16.27-.35.51-.32,1.08.15,1.52-1.21,2.58-1.09,0,0,.11-.12.13-.19a2.38,2.38,0,0,1,1.14-1.28,1.79,1.79,0,0,0,.81-1.09c.17-.67.43-1.17,1.2-1.24.2,0,.33-.23.42-.44.25-.6.86-.75,1.35-1a.35.35,0,0,1,.34.08c.09.15-.08.17-.18.21s-.22.17-.17.29.25,0,.28,0c.35.41,1,.6,1,1.29a1.19,1.19,0,0,0,.23.83.84.84,0,0,1,0,1c-.14.23-.31.61-.14.68.78.31.23,1.1.61,1.54.19.2.11.47,0,.7a4.76,4.76,0,0,0-.35.67c-.13.32,0,.48.39.49a9.54,9.54,0,0,1,2.08.12,6.17,6.17,0,0,0,3.33,0,2.25,2.25,0,0,1,1.49.07,3.69,3.69,0,0,0,2,.11c.52-.08,1-.35,1.54,0a1.85,1.85,0,0,1,1.68.07.52.52,0,0,0,.59-.1c.13-.15,0-.29-.09-.45-.18-.58.25-1.18-.07-1.76,0,0,0-.08.05-.11A1.25,1.25,0,0,0,375,75.6a.29.29,0,0,1-.06-.21,1.44,1.44,0,0,0,.07-1.08,6.53,6.53,0,0,1-.13-1.14c0-.76-.34-1.62.4-2.28.15-.13,0-.3-.08-.44s-.38-.23-.21-.5a.65.65,0,0,0-.17-.9c-.09-.08-.22-.18-.12-.31.32-.4.08-.89.26-1.34a3.05,3.05,0,0,0,.18-1.88,2.71,2.71,0,0,1,.54-2.37c.3-.38.34-1,.09-1.16C375.18,61.61,375.39,61.11,375.36,60.65Zm-48-18.22a.19.19,0,0,1-.07-.08s0-.05,0-.07.06,0,.07,0S327.46,42.39,327.37,42.43Zm.25-3.06a.18.18,0,0,1-.06-.08s0,0,0-.07h.08C327.73,39.28,327.71,39.33,327.62,39.37Zm3.09,5.57a.24.24,0,0,1-.22,0c-.24-.15-.44-.44-.34-.67a.76.76,0,0,1,.74-.54c.06,0,.11.1.17.18C331,44.27,330.84,44.61,330.71,44.94Zm.47-12.44c-.17-.12-.36-.23-.36-.46a.53.53,0,0,1,.45-.5c.19-.05.29.08.31.28A.62.62,0,0,1,331.18,32.5Zm.69-2.21c-.11.21-.22.21-.34,0-.09-.05-.21-.13-.13-.22s.17,0,.23.12a.12.12,0,0,0,.15,0c.05-.09.14-.2.23-.11S332,30.24,331.87,30.29ZM332.21,44s-.06,0-.07-.07a.13.13,0,0,1,0-.07s.05,0,.07,0S332.29,43.91,332.21,44Zm2.17-1.56c-.18.13-.25.42-.4.61a1,1,0,0,1-1.07.5c-.52,0-.56-.06-.6-.56-.06-.72.56-1.16.71-1.79.05-.2.33-.23.54-.23s.59,0,.67.25c.13.43.82,0,.79.52C335,42.05,334.67,42.2,334.38,42.39Zm1.28-.46a.71.71,0,0,1,.12-.18l.12.18c0,.07,0,.18-.09.19S335.64,42,335.66,41.93Zm.23,25.34s-.07.09-.09.08c-.21,0-.15-.25-.2-.39s-.21-.13-.12-.21.16,0,.21.12A.32.32,0,0,1,335.89,67.27Zm.18-24.62-.11-.08.08-.07.06.08Zm1.24-8,.07.08,0,.07-.11-.08Zm.49,33c-.45-.35-.3.37-.61.34s-.53.43-.55-.19a2.12,2.12,0,0,0-.24-.62c.25-.31.19-.75.33-1.12.08-.22.38-.21.55-.11a3.56,3.56,0,0,1,.65.58A.74.74,0,0,1,337.8,67.62Zm6.1,1.5c-.21-.11-.53-.09-.59-.39s.14-.26.24-.29c.39,0,.54.12.52.44C344.06,69,344,69.18,343.9,69.12Zm4.66,2.44c-.16-.15-.17-.27.08-.34s.23-.15,0-.19a11.29,11.29,0,0,0-1.63-.26c-.57,0-1.1,0-1.31-.69,0,0-.16-.06-.22-.11-.45-.38-.43-.54.06-.9.19-.14.37-.18.51.07,0,0,0,.1,0,.12.47.32.41,1.25,1.16,1.17.53-.06,1,.44,1.55.09.22-.14.58.18.84.43-.05.12-.08.26-.16.32s-.43.26-.64.39S348.64,71.64,348.56,71.56Zm2,3.32a5.66,5.66,0,0,0-.77.4c-.25.1-.38,0-.4-.3s-.06-.41,0-.49a1.92,1.92,0,0,0,.49-1.61c0-.45.43-.49.7-.58s.52.18.59.49-.07.6.21.81C351.15,74.07,351.26,74.71,350.56,74.88Zm2.33-1.18c0,.06-.1,0-.14,0a.19.19,0,0,1,.08-.07s0,0,.07,0S352.9,73.69,352.89,73.7ZM355,67.37a3.64,3.64,0,0,1,.45-.43.22.22,0,0,1,.31.09s-.06.14-.11.2a.76.76,0,0,1-.55.24.32.32,0,0,1-.4.19.16.16,0,0,1-.09-.09C354.62,67.37,354.82,67.43,355,67.37Zm3.28,2.41a.13.13,0,0,1-.08.19c-.49.17-.83.76-1.34.54a1.77,1.77,0,0,1-1.53-.68c-.09-.13-.1-.31-.31-.34s-.48,0-.44-.3.37-.23.59-.25c.39,0,.71.48,1.17.11s.1-.74.31-1c.11-.15.24-.41.47-.18a4,4,0,0,0,1.07.63.44.44,0,0,1,.19.43c0,.27-.31.28-.39.42S358.17,69.59,358.23,69.78Zm4.6-25.93c0,.1-.15.24-.23.36-.3-.08-.46-.24-.44-.51s.09-.21.24-.2A.46.46,0,0,1,362.83,43.85Zm0,16.56c-.06.05-.11.12-.17.14a2,2,0,0,1-.7.18.41.41,0,0,1-.33-.47c.05-.29.22-.11.35,0,.24-.23.44,0,.65.07A1.13,1.13,0,0,1,362.84,60.41Zm-.72-19.74c-.22,0-.23-.17-.23-.33s.12-.1.17-.08a.38.38,0,0,1,.27.33A.9.9,0,0,1,362.12,40.67ZM362,28.8c.1-.09.17,0,.22.12a.33.33,0,0,1,.19.41.17.17,0,0,1-.09.08c-.2-.06-.15-.25-.19-.39S361.88,28.89,362,28.8Zm.41,3.75c0,.22-.17.23-.32.23s-.1-.12-.09-.17a.4.4,0,0,1,.34-.27A.86.86,0,0,1,362.37,32.55ZM362.23,39a.61.61,0,0,1,.2.09.69.69,0,0,1,.17.2c-.17.25-.31.56-.67.56-.08,0-.25-.23-.23-.25C361.85,39.35,362.14,39.25,362.23,39Zm-.78,3.58c.1-.09.17,0,.22.12l.12,0c.12,0,.29,0,.27.18s-.2.12-.31.07-.12-.11-.17-.17S361.37,42.64,361.45,42.55Zm-.13,16.17c.05-.09.13-.21.22-.13s0,.17-.12.22-.13.21-.22.13S361.24,58.77,361.32,58.72Zm1.19,3.06c-.61.3-.32.72-.18,1.15a.8.8,0,0,1-.42.9l-.06.06c.16.23.45.43.15.76a6.11,6.11,0,0,0-.71.87c-.13.22-.5.32-.65-.11l-.07-.06c-.26.18-.45-.19-.68-.09s-.34-.09-.25-.28.36-.39.43-.61c.12-.4.69-.17.67-.39a3.69,3.69,0,0,1-.14-.84c0-.22.1-.27.3-.17.53.25.43-.17.45-.44a1.59,1.59,0,0,0-.08-.35,1.81,1.81,0,0,0-.29.19c-.16.13-.31.3-.53.14s-.13-.58.1-.78a4.14,4.14,0,0,1,1.95-.13C362.62,61.67,362.63,61.73,362.51,61.78Zm.26,3.3a.71.71,0,0,1-.12-.18c0-.12,0-.21.16-.18s.05.13.08.19ZM370.93,57l.06.08,0,.07-.11-.08Zm-1.72-10.74c.37,0,.17.22.16.4s.3.15.37.27a.59.59,0,0,1,0,.47c-.18.27-.32-.24-.41-.15-.63.43-.78.06-.82-.33S368.77,46.27,369.21,46.28Zm-5.89-3.14c-.14,0-.18-.08-.15-.2s.07-.11.12-.17l.11.18C363.37,43,363.36,43.13,363.32,43.14Zm.5,14-.1-.08.07-.07.07.08Zm-.22-15.55c-.2.09-.45-.22-.46-.57a.3.3,0,0,1,.27-.35.53.53,0,0,1,.49.44A.43.43,0,0,1,363.6,41.62Zm.46-1.25-.07,0,.07-.11.07.08Zm.78,16.54-.1-.07.07-.07.07.07Zm.06-5.07c0,.08-.23,0-.42.06s-.27,0-.23-.18a.45.45,0,0,1,.46-.33C364.84,51.41,364.93,51.48,364.9,51.84Zm1.2,20.92c-.08.09-.18.35-.36.12-.05-.06,0-.23.05-.33a1,1,0,0,1,1.28-.52c.11,0,.13.1.06.2s-.1.17-.14.16A.89.89,0,0,0,366.1,72.76Zm-.61-23,.34-.43.33.43a1.1,1.1,0,0,1-.33.12A1.06,1.06,0,0,1,365.49,49.74Zm1.62,24c-.11-.1-.22-.2-.32-.31s.07-.13.12-.13.31,0,.31.24Zm0-27.07a.65.65,0,0,0-.25-.27c-.16-.13-.38-.08-.38.1,0,.59-.64.88-.63,1.46,0,0-.14.08-.21.08s-.19-.06-.19-.11c-.07-.37-.23-.87.09-1.06.62-.37.19-.55,0-.83s-.7-.22-1-.44-.52-.51-.21-.88c.14-.16.26-.49.57-.37a.54.54,0,0,1,.31.51,1.67,1.67,0,0,0,.05.5.2.2,0,0,0,.31.09.89.89,0,0,0,.46-1.23c-.21-.63.08-.43.4-.25a1.79,1.79,0,0,0,.73,0c.53-.25.65-.06.6.43,0,.17,0,.34-.05.5s-.64.4-.36.83a1.48,1.48,0,0,0,.77.62.22.22,0,0,1,.09.32,1.91,1.91,0,0,1-.64.38C367.31,47.11,367.24,46.87,367.15,46.67Zm3.05,29.91s-.11-.13-.09-.16a.48.48,0,0,1,.45-.33c.07,0,.13.08.19.12S370.37,76.63,370.2,76.58Zm.49-12.27a.41.41,0,0,1-.33-.29s.07-.1.11-.15.32,0,.3.25A.34.34,0,0,1,370.69,64.31Zm.3-2.37c-.07.18-.29.19-.44.14-.47-.16-.94-.33-1.39-.53s-.56-.73-1.05-.28c-.26-.21-.57-.38-.63-.75a4.69,4.69,0,0,1,0-.69c0,.1,0,0,0-.07a1,1,0,0,1,.14-.17c0,.07.11.13.12.21a2.43,2.43,0,0,0,.08.61c.1.24.27.44.54.13s.52-.37.72.12.71.38,1.11.37a.76.76,0,0,1,.83.44A.64.64,0,0,1,371,61.94Zm.18-2.2s-.05,0-.06-.07,0-.05,0-.07h.07C371.27,59.65,371.26,59.7,371.17,59.74Z"/><path d="M524.11,44.35c-.36-.34-.36-.61,0-.94s.13-.57-.15-.69-.52-.37-.23-.75a.52.52,0,0,0,0-.37,4.7,4.7,0,0,0-.65-2.35c-.28-.35-.34-.86-.7-1.18-.17-.15-.08-.29.07-.41s.43-.2.47-.35c.09-.35-.35-.27-.5-.46a4.1,4.1,0,0,1-.52-.7,1.17,1.17,0,0,0-.62-.6c-.44-.13-1.2.06-.39-.74.15-.15-.08-.43-.27-.49-.43-.12-.8-.22-.71-.79,0-.13-.07-.22-.17-.31a20.15,20.15,0,0,0-2.08-1.94,6.57,6.57,0,0,1-1.42-1.37,5.09,5.09,0,0,0-3.7-2.12,2.3,2.3,0,0,1-1.69-.9,5.9,5.9,0,0,0-2.1-1.54c-1.2-.56-2.49-.89-3.7-1.46a2.22,2.22,0,0,0-1.4-.16,3.26,3.26,0,0,1-2-.06c-.55-.25-1-.52-1.64-.18a1.41,1.41,0,0,1-1.1,0c-.47-.23-.93-.07-1.37-.18s-1.12.46-1.61-.14a.24.24,0,0,0-.19.05,1,1,0,0,1-1.15.34c-.57-.16-.57.59-1,.53s-.74.16-1.07.11-.66-.19-1,0-.69-.19-1.05-.17c-.07,0-.18-.11-.21-.09-.55.45-1.37.22-1.86.61a5.39,5.39,0,0,1-1.63.54c-.41.16-.89,0-1.26.45s-.86.08-1.21.37c-.59.47-1.31.77-1.86,1.26-1,.87-2.14,1.45-3.16,2.25-.37.28-.65.7-1.06.87s-.43.64-.72.87a1.7,1.7,0,0,0-.74.91,9.05,9.05,0,0,1-.86,1.38c-.54.73-.92,1.58-1.4,2.37-.19.32,0,.4.23.55s.19.46-.08.44c-.8-.06-1.18.2-1.06,1.05,0,.18-.14.39-.25.57a21.85,21.85,0,0,0-1.52,4.45c-.31,1-.22,2.15-.76,3.12a2.68,2.68,0,0,0-.26,1.08,4.27,4.27,0,0,1-.74,2.34,1.08,1.08,0,0,0-.27.68c0,.43-.3.81,0,1.29a1.38,1.38,0,0,1,0,1c-.19.6-.47,1.07.19,1.66.49.45-.44,1.17-.07,1.78.22.36.12.73.18,1.1a8.76,8.76,0,0,1-.32,3c-.15.77-.14,1.16.62,1.38a.31.31,0,0,1,.17.17c.19.8.73,1.45.62,2.42a2.83,2.83,0,0,0,.85,2.52,2,2,0,0,1,.69,1.15,9,9,0,0,0,.43,1.3,1.74,1.74,0,0,0,.49.82,9.46,9.46,0,0,1,2.28,3.22c.3.57.41,1.24,1.27,1.13a.28.28,0,0,1,.21.11,1.64,1.64,0,0,0,1.16.85c.74.09.56.74.86,1.09a1.37,1.37,0,0,0,.43.24,10.55,10.55,0,0,1,2.56,2,1.35,1.35,0,0,0,.54.29c1,.44,2.25.57,3,1.62a.41.41,0,0,0,.32.14,3,3,0,0,1,1.59.31A33,33,0,0,1,492.58,82a1.15,1.15,0,0,0,1,0c.74-.46,1.26.06,1.85.29.14.06.26.33.41.23.57-.37,1,.15,1.51.14.66,0,1.25.61,1.93.16.05,0,.17,0,.23.06s-.17.31,0,.39.38-.12.52-.26a.74.74,0,0,1,.71-.2,2.93,2.93,0,0,0,1.71-.3c.5-.23.79-.22,1,.3.11.28.21.15.34,0s.25-.24.28-.22c.67.46,1.3,0,1.94-.06a16.42,16.42,0,0,0,2.69-.45,5.16,5.16,0,0,1,1.93-.1c1.18.24,2.14-.52,3.2-.86.18-.76.78-.64,1.33-.63a3.28,3.28,0,0,0,2.6-1.43,1,1,0,0,1,.61-.42c.43-.15.86-.32,1.29-.44a.8.8,0,0,0,.43-.24,2.12,2.12,0,0,0-.23-2.28c-.11-.11-.2-.2-.41-.11s-.54.48-.88.24a6.5,6.5,0,0,1,.31-.74c.14-.38-.18-.62-.3-.91s-.17-.5.2-.53.48-.17.43-.48a.89.89,0,0,1,.54-1,8.37,8.37,0,0,0,1-1c.22-.2.15-.33,0-.5s-.31-.39-.11-.65a1,1,0,0,0,.12-.73.85.85,0,0,1,.37-.77c.34-.26-.15-.51,0-.78a3.7,3.7,0,0,0,.4-1.48c.09-.65-.29-.74-.74-.91s-.64-.17-.91.13A1.84,1.84,0,0,1,519,66l-.06.06a1,1,0,0,1-1.05.48c-.52-.08-1-.37-1.54,0-.56-.46-1-.05-1.49.17-.26.12-.6.34-.81.26-.64-.25-1.18.22-1.81.13a3.06,3.06,0,0,0-2,.21.42.42,0,0,1-.36,0,2.89,2.89,0,0,0-1.74-.14c-.14,0-.24.17-.44.08a1.9,1.9,0,0,0-1.67.19c-.51.2-1,.67-1.61.21-.55.33-1.2,0-1.74.24a2.73,2.73,0,0,1-2.53-.08c-.33-.17-.65-.54-1-.4s-.86.24-1.13-.07-.74.07-1.15-.17a15,15,0,0,1-4-2.78c-.24-.28-.47-.61-.93-.59a.66.66,0,0,1-.5-.35c-.21-.33-.64-.43-.71-.95,0-.33-.57-.6-.88-.89a.28.28,0,0,1-.13-.31c.09-.41-.1-.65-.47-.86a1.64,1.64,0,0,1-.88-1.44,1.43,1.43,0,0,0-.55-1.21.57.57,0,0,1-.14-.79c.11-.18.27-.51.48,0,.14.33.37.57.78.27.22-.17.38,0,.55.13s.16.27.4.17a3.24,3.24,0,0,1,2.55.25,1.25,1.25,0,0,0,.86.1,3.36,3.36,0,0,1,2.12.22,1.7,1.7,0,0,0,1.17.1c.62-.2,1.34.09,2-.27.93.36,2,.22,2.88.66.27.12.86,0,.49.62-.06.1.1.19.24.21a.59.59,0,0,0,.56-.23c.46-.54.48-.59.72-.49s.41.19.63-.08a2.31,2.31,0,0,1,2.22-.6c.58.07,1.15.11,1.73.13a3.2,3.2,0,0,1,1.59.26.87.87,0,0,0,1.29-.25c.13-.18.31-.52.56-.41.74.33,1.55-.08,2.24.23,1.14.5,2.29.12,3.42.11.5,0,1.08-.29,1.59-.14a6.43,6.43,0,0,1,1.54.42,2.83,2.83,0,0,0,2.54.07c.26-.12.42-.16.45-.47a7.3,7.3,0,0,1,.12-1.27c.12-.45.19-.68-.29-.89s-.48-.5-.11-.81a1.17,1.17,0,0,0,.52-1.2c-.09-.46.55-.63.46-1a3.14,3.14,0,0,1-.2-1.09,1.08,1.08,0,0,1,.15-.47,1.84,1.84,0,0,0-.05-2,1.47,1.47,0,0,1,.17-1.69c.18-.22.16-.47.26-.69.21-.49-.15-1,0-1.42A1,1,0,0,0,524.11,44.35ZM514.3,76.67l-.1-.08.07-.07.07.08Zm2.42-.45c-.41.1-.94-.16-1.18.45,0,.14-.28,0-.44-.07a2,2,0,0,1-1.27-1.85c-.19,0-.4,0-.5-.26-.09,0-.21-.13-.13-.22s.17,0,.22.12.41,0,.51.26a2.69,2.69,0,0,1,.55.51,1.4,1.4,0,0,0,2.09.59.22.22,0,0,1,.35.2A.23.23,0,0,1,516.72,76.22ZM515.47,74l.08-.07.06.08,0,.07Zm.26,1s0,0,0-.07.06,0,.07,0,0,.1,0,.13S515.74,75.12,515.73,75.09Zm1.59-4.42c.11,0,.22-.1.3,0s-.07.14-.09.14l-.29-.11S517.29,70.68,517.32,70.67Zm-.26-2.54.07,0s0,.06,0,.07-.1.05-.14,0A.19.19,0,0,1,517.06,68.13Zm-.68.46c.15,0,.34-.08.44.07s-.06.17-.14.18a.41.41,0,0,1-.44-.11S516.33,68.6,516.38,68.59Zm-3.26,1c.22-.09.42-.25.66-.08a3.49,3.49,0,0,1,.2-.57.33.33,0,0,1,.45-.07c.22.2.35.42.75.28s.26.23.15.43-.22.3-.05.44a.77.77,0,0,0,.72,0c.19-.07.15-.26,0-.42s0-.19,0-.2a.87.87,0,0,1,.94,0c.23.14.16.31.06.52a1.79,1.79,0,0,0-.08.62.24.24,0,0,1-.23.25,4.33,4.33,0,0,0-1.46.27c-.15.06-.18,0-.17-.37s-.2-.45-.43-.37a.77.77,0,0,0-.51.51c0,.06-.09.11-.15.16s-.11-.15-.11-.21c0-.49-.1-.81-.68-.74-.17,0-.33-.06-.31-.29S513,69.64,513.12,69.58Zm-1.75,2.84c.06,0,.12.08.18.12l-.19.11c-.06,0-.18,0-.18-.08S511.26,72.39,511.37,72.42Zm-2-1.13c.08-.08.23-.17.31-.14a3.9,3.9,0,0,1,.62.37c-.12.16-.29.14-.45.14s-.35,0-.46-.14S509.29,71.31,509.33,71.29Zm-3.72-.37.07.07,0,.07-.1-.07Zm-3.23,6.79c0-.09.13-.22.22-.13s0,.17-.13.22-.13.21-.21.13S502.29,77.76,502.38,77.71Zm11.54-32.15c0-.06.12-.09.18-.13.36,0,.28.34.44.49a.29.29,0,0,1,0,.43.25.25,0,0,1-.22.06A.63.63,0,0,1,513.92,45.56Zm-.2-2.37h.08c.06.05,0,.1,0,.14s0,0-.06-.07S513.71,43.21,513.72,43.19Zm-.47-3.85c.06,0,.08.14.12.22a.59.59,0,0,1-.6.51,2.76,2.76,0,0,1-1.59-.53,1.66,1.66,0,0,1-.31-.38,1.55,1.55,0,0,0,.46-.15C512.09,38.43,512.63,39.12,513.25,39.34Zm.06,10.08a1.09,1.09,0,0,1-.35.07c-.16,0-.34,0-.33-.26s0-.29.2-.15S513.23,49.16,513.31,49.42Zm-1.52-3.21c-.25.17-.32.12-.54-.13a2.9,2.9,0,0,1-.53-1.35c-.14-.57-.1-.63.46-.61.19,0,.46,0,.28.33a1.29,1.29,0,0,0-.1.48c0,.71,0,.77.75.58a2.09,2.09,0,0,1,.23-.08.23.23,0,0,1,.25.32C512.45,46.08,512.34,46.57,511.79,46.21Zm.18,2.47a.14.14,0,0,1-.06-.08s0,0,0-.06H512C512.07,48.59,512.06,48.64,512,48.68Zm.19-7.72s0,0,0-.06h.07c.06.05,0,.1,0,.14A.14.14,0,0,1,512.16,41Zm.14-3.19c.2,0,.32.11.28.31s-.22.21-.39.22h-.25a.88.88,0,0,1-.61-.13c-.23-.18-.51.33-.64,0s.07-.55.18-.8.57-.26.8,0A.79.79,0,0,0,512.3,37.77Zm-1.88-7.88c.11-.11.22-.29.4-.25a1.08,1.08,0,0,1,.76.73c.05.15-.08.22-.23.27-.3-.17-.69-.21-.93-.53C510.35,30,510.34,30,510.42,29.89Zm-.62,9.71a.59.59,0,0,1-.2.3.58.58,0,0,1-.32.14c-.22,0-.23-.18-.25-.35v-.33c0-.22.11-.55.46-.47S509.88,39.29,509.8,39.6Zm-.43-4.87s.12.1.11.14a.44.44,0,0,1-.33.3.37.37,0,0,1-.09-.19C509.05,34.77,509.2,34.73,509.37,34.73Zm-1.05,2.15c0-.07.11-.12.17-.17l.1.09-.1-.09c.09-.07.17-.19.27-.21s.42-.07.51.18a.24.24,0,0,1,0,.23c-.2.18-.36.06-.52-.08a.42.42,0,0,0-.12,0s0,.08,0,.12-.05.29-.18.26S508.27,37,508.32,36.88Zm-1.55-7.76a.64.64,0,0,1,.45.36.4.4,0,0,1-.42.15c-.19,0-.3-.11-.27-.31A.2.2,0,0,1,506.77,29.12Zm-1.57,3.06a5.13,5.13,0,0,0,1.48.58.39.39,0,0,1,.27.59c-.32.48-.05.47.34.62a1,1,0,0,1,.62,1.51c-.11.19-.32.32-.48.05s-.35-.67-.53-1-.41-.28-.55,0-.05.33-.11.49-.2.18-.24,0c-.09-.35-.35-.32-.6-.31a.94.94,0,0,1-.9-.34c-.22-.28-.43-.08-.67,0-.08,0-.25-.18-.4-.31l.46-.48c.25-.28.55-.48.57-.94S504.83,32,505.2,32.18Zm-1.72-3.11c.28-.17.23-.4.12-.64s-.2-.32.11-.33.34.21.45.34a5.75,5.75,0,0,1-.3.83c-.08.17-.78.17-.8,0C503,29,503.34,29.16,503.48,29.07Zm-.56,3.37c.21,0,.25.14.26.3s-.11.13-.15.12a.46.46,0,0,1-.3-.33A.42.42,0,0,1,502.92,32.44ZM498.44,35h.08c.06.05,0,.1,0,.14s-.05,0-.06-.07S498.43,35.06,498.44,35Zm-4.8-4.87.07.08,0,.07-.1-.08Zm-.56,3.54s.11.11.1.15a.44.44,0,0,1-.33.3.64.64,0,0,1-.08-.2C492.75,33.73,492.91,33.71,493.08,33.71Zm-.83-2.31a.4.4,0,0,1,.43.11s-.08.14-.14.14-.33.08-.44-.06S492.17,31.42,492.25,31.4ZM488.71,30c.05-.12.13-.12.16,0a1.73,1.73,0,0,1,.05.45s-.09.07-.15.11A.47.47,0,0,1,488.71,30Zm.1,3,.11.18c0,.07,0,.18-.08.19s-.18-.08-.15-.19S488.76,33,488.81,33Zm-.08-1.18a.13.13,0,0,1,0-.07s.05,0,.07,0,0,.1,0,.14S488.74,31.83,488.73,31.8Zm-4.63-.43a.88.88,0,0,1,.12-.17l.12.18c0,.07,0,.18-.09.19S484.08,31.49,484.1,31.37Zm-1-.14c.09-.09.18,0,.22.13s.21.13.13.21-.17,0-.22-.12S483.07,31.32,483.15,31.23Zm-1.5,3.42a2.25,2.25,0,0,0,.3-.24c.48-.41.47-.49-.16-.71-.26-.09-.27-.28-.25-.5s.22-.33.34-.24c.28.19.44.09.62-.12a3.21,3.21,0,0,1,1.41-.75.84.84,0,0,1,.79.1c.86.5.87.93-.05,1.33-.57.25-.62.81-1,1.18a1.39,1.39,0,0,1-1.36.51.87.87,0,0,0-.47-.09c-.35.08-.53-.14-.76-.28C481.23,34.64,481.48,34.74,481.65,34.65Zm1.63,25c.05-.09.13-.21.21-.12s0,.17-.12.22a.5.5,0,0,1,0,.12c-.05.21.1.54-.3.57a.27.27,0,0,1-.2-.11c-.09-.23.07-.39.23-.53a1.49,1.49,0,0,1,.2-.15l.09.1Zm-.2-9.73c-.3.28-.79-.08-1.08.46s-.59.54-.89-.14c-.15-.34,0-.49.31-.48a3,3,0,0,0,1.68-.39.74.74,0,0,1,1,.61c0,.07-.08.22-.17.27s-.28,0-.32-.1S483.36,49.64,483.08,49.89Zm-.51-8.81a1.51,1.51,0,0,1,.49,0,.82.82,0,0,1,.2.12.54.54,0,0,1-.16.14,1.09,1.09,0,0,1-.43.19c-.09,0-.2-.14-.26-.24S482.47,41.11,482.57,41.08Zm1.35.94c-.09-.1,0-.17.12-.22l.25-.26h0c0-.09.14-.21.23-.12s0,.17-.13.22l-.25.25C484.09,42,484,42.1,483.92,42Zm.4,11a.72.72,0,0,1,0-.17c0-.17-.12-.43.19-.49s.6.39.6.64.05.53-.31.56a1,1,0,0,1-.59-.07C484,53.33,484.44,53.18,484.32,53Zm.65-1.54s-.05,0-.06-.07a.13.13,0,0,1,0-.07s.05,0,.07,0S485.06,51.44,485,51.48Zm-4.2-6.74c.08-.5.49-.75.85-1,.12-.1.17.09.19.2.14.47-.6.66-.38,1.18,0,.06-.3.09-.45,0A.32.32,0,0,1,480.77,44.74Zm.89,11.35c.29.33.52.71.81,1s.47.53-.16.55c0,0-.1,0-.11,0-.46.71-1,.95-1.63.24,0,0-.15,0-.23.05-.59.08-.6.07-.6-.47s.58-1,.81-1.54C480.68,55.68,481.39,55.78,481.66,56.09Zm.32,2.73c-.05.06-.1,0-.14,0a.14.14,0,0,1,.07-.06.13.13,0,0,1,.07,0S482,58.8,482,58.82Zm-1.55-10.31s.05.08,0,.11a.17.17,0,0,1-.09.08l-1-.31a.29.29,0,0,1,0-.19,2.81,2.81,0,0,0,.35-.5c.16-.39.35-.13.42,0a5.37,5.37,0,0,1,.27.8Zm-.61-12.28c.17,0,.36,0,.42.18s-.08.38-.29.52-.2-.28-.31-.41S479.62,36.24,479.82,36.23Zm-1,.59s.06,0,.08,0,0,.1-.05.14a.18.18,0,0,1-.06-.08S478.82,36.84,478.83,36.82Zm-2.27,5.86c.28-.14.88-.11.8-.45-.19-.78.43-.25.57-.43s.13-.21.22-.13,0,.17-.12.22-.15.14-.14.21a1,1,0,0,0,1.07,1c.28,0,.51-.17.8,0s.48.23.49.51-.4.21-.56.34-.65.17-.94.33-.28-.06-.27-.22c0-.36-.22-.41-.5-.4s-.76.05-.89-.47c-.06-.22-.28-.29-.5-.12,0-.05-.12-.11-.12-.17A.26.26,0,0,1,476.56,42.68Zm2.3,16.94c-.45,0-.9-.1-1.34-.15a.36.36,0,0,1-.07.1l-.37.31c0-.07-.1-.13-.1-.2,0-.31.27-.24.44-.32l.06-.11c.27-.25.26-.79.68-.82s.54.53.92.68a.18.18,0,0,1,.06.3C479.06,59.49,479,59.63,478.86,59.62Zm.05.9s-.05.16-.08.16-.32,0-.33-.23.06-.2.08-.2A.34.34,0,0,1,478.91,60.52Zm-1.71.19c-.17,0-.36,0-.44-.15s.39-.4.68-.38c.14,0,.25.07.25.2C477.73,60.78,477.41,60.68,477.2,60.71Zm.19,2.44c0,.06-.1,0-.13,0s0-.05.07-.06a.13.13,0,0,1,.07,0S477.41,63.13,477.39,63.15Zm-.57-9.89s-.05,0-.06-.07a.13.13,0,0,1,0-.07s.05,0,.07,0S476.91,53.22,476.82,53.26Zm-1.42-1.72c.11,0,.23,0,.19.15s-.13.08-.19.07-.12-.07-.17-.11A.45.45,0,0,1,475.4,51.54Zm-1.62,1,.07.08,0,.07-.1-.08Zm2,5.75c-.56-.4-.79,0-1.06.37s.08.64.19.95-.11.3-.23.41-.27-.05-.41-.11c-.44-.21-.23-.79-.61-1-.08,0-.27,0-.14-.21a.25.25,0,0,1,.22-.07,2.44,2.44,0,0,1,.46.14c.21.09.27-.15.42-.18a8.8,8.8,0,0,0-1.28-1.38.61.61,0,0,1-.06-.9,1,1,0,0,0,.36-.64c0-.44.39-.46.64-.31.72.45,1.34-.24,2-.13a.81.81,0,0,0,.11-.33c0-.23-.18-.36-.28-.54a.77.77,0,0,1-.63-.36c-.08-.15,0-.23.13-.31s.21-.14.3,0l.3.55c.66,0,1.28,0,1.31.93,0,.13.21.25.31.38.26.34,0,.55-.22.7s-.32.05-.48.11c-.36.14-.4.33-.16.61s.24.23.35.36a.23.23,0,0,1,0,.21c-.17.33-.59.38-.8.73S476,58.5,475.78,58.33Zm.54,2.32a.19.19,0,0,1-.07-.08s0,0,0-.07h.07C476.42,60.56,476.4,60.61,476.32,60.65Zm2,4.16c-.22.73-.16.75-.87.74-.39,0-.84,0-1-.53,0-.16-.2-.48.33-.4.33,0,.71-.34.44-.85a.25.25,0,0,1,.09-.21.23.23,0,0,1,.33,0c.11.12.18.33.3.37C478.45,64.11,478.41,64.37,478.28,64.81Zm.61.76c-.11,0-.27-.06-.3-.14s.08-.16.19-.17a.41.41,0,0,1,.42.15Zm1.79-1.64s-.14-.07-.14-.12,0-.32.25-.3.13.06.24.12C480.9,63.74,480.8,63.84,480.68,63.93Zm5.81,4.86a.23.23,0,0,1-.07-.33c.11-.23.31-.43,0-.66a1.31,1.31,0,0,0-.88-.41c-.31,0-.16.4-.16.64.09,0,.21.13.13.21s-.17,0-.22-.12-.35-.21-.36-.33c0-.28,0-.42-.38-.5s-.52-.29-.32-.83c.09-.23.06-.48.21-.71.44-.72.42-.73-.35-1.27l-.06.06c.07.3.11.59-.16.81a.68.68,0,0,1-.33.16c-.15,0-.21-.1-.24-.22s.09-.57-.17-.7a1.45,1.45,0,0,0-.75,0c-.6.07-.4-.25-.44-.63-.09-.9-.36-1-1.58-1.43a1.08,1.08,0,0,0-1.22.24c-.17.17-.22.35.06.49a3.09,3.09,0,0,0,.44.23c.27.08.35.18.17.42s-.2.37-.33.53-.26.31-.38.3-.17-.26-.15-.41c0-.4-.24-.6-.45-.86a3.18,3.18,0,0,1-.94-1.65c0-.36.06-.37.28-.27a6.07,6.07,0,0,0,2.73.44c.65,0,.86-.24.6-.83a6.12,6.12,0,0,0-.32-.94c-.38-.61-.32-.8.19-1.18a.32.32,0,0,1,.35,0,.22.22,0,0,1,.09.32c-.41.53-.16.82.33,1.06.17.09.21.24.06.41a1.11,1.11,0,0,0-.3.39c-.07.18.09.31.21.42s.37.19.44,0c.35-.84,1.06-.65,1.71-.64a.91.91,0,0,1,.33.13l-.3.19a.21.21,0,0,0-.06.32.25.25,0,0,0,.21.08c.23-.09.46-.31.48.18,0,.74.73,1.3.6,2.1,0,0,.06.06.08.1.57,1,.57,1,1.8.93,0-.09.13-.21.21-.12s0,.16-.12.21a1.11,1.11,0,0,1-1.09.32c-.24,0-.4-.06-.55.12s-.39.23-.31.47a.53.53,0,0,0,.38.28.87.87,0,0,1,.82.64c.11.26.41.43.58.67s.28.49.56.61l-.74.6A.32.32,0,0,1,486.49,68.79Zm-.6-15.22c0-.31.27-.23.39-.28.36,0,.64,0,.63.43s-.23.59-.39.54A.86.86,0,0,1,485.89,53.57Zm1.67,17.75-.1-.08.07-.07.07.08Zm3.18.82c-.11,0-.22,0-.19-.16s.13-.08.19-.07.12.08.18.12A.87.87,0,0,1,490.74,72.14Zm1.46,1.91c-.06.16-.26.17-.42.15s-.53-.21-.54-.55c0-.13.08-.22.31-.2a1.52,1.52,0,0,1,.25.13C492,73.69,492.33,73.69,492.2,74.05Zm3.33,4.6c-.66-.33-1.32-.67-2-1,0,0-.06-.17,0-.23s.2,0,.26,0c.3.14.43,0,.46-.22.05-.5.34-.51.71-.37a1.7,1.7,0,0,1,1.09,1.52A.42.42,0,0,1,495.53,78.65Zm-.39-3.1s.12-.08.19-.08.11.08.17.12-.11.1-.18.11S495.1,75.7,495.14,75.55Zm2.19,1.67c-.34,0-.35-.35-.4-.53s.33-.34.48-.36c.31,0,.13.28.2.43S497.65,77.22,497.33,77.22Zm-2.56-6.78c0-.12.07-.28.16-.24s.13.26.12.41-.09.2-.11.19C494.75,70.75,494.78,70.58,494.77,70.44Zm-.34,1.15a.41.41,0,0,1,.43-.18.28.28,0,0,1,.19.28c0,.13,0,.25,0,.38a2.3,2.3,0,0,1,0,.37c0,.06-.1.15-.15.15A1.78,1.78,0,0,1,494.43,71.59Zm-.08,2.68c.07-.18.2-.37.47-.21a.74.74,0,0,0,.35.1.46.46,0,0,0,.31-.15.21.21,0,0,0-.14-.29.4.4,0,0,1-.31-.47.39.39,0,0,1,.08-.22.17.17,0,0,1,.19,0c.37.53,1.23.19,1.55.85,0,.07.41,0,.59,0s.05-.28-.05-.66c0-.06.12-.22.42-.17a2.12,2.12,0,0,1,.71.23,1.24,1.24,0,0,1,.51.53c.09.2-.25.3-.31.48-.12.43-.71.7-.4,1.3a.35.35,0,0,1-.52.29c-.18-.1-.44-.16-.52-.31a1.06,1.06,0,0,0-1.1-.58,7.18,7.18,0,0,1-1.57-.32C494.47,74.59,494.29,74.45,494.35,74.27Zm-.76-4.07c.09-.09.18,0,.22.12s.22.13.13.22-.17,0-.22-.12S493.51,70.29,493.59,70.2Zm0,1.78c.27,0,.11.42.18.63.3.19.54.41.47.81a.26.26,0,0,1-.24.24.22.22,0,0,1-.26-.2c0-.25,0-.5-.07-.75-.26-.1-.53-.19-.79-.31s-.1-.22,0-.24S493.44,72,493.63,72Zm-5.74-2.14c.13,0,.26,0,.47,0,.53-.2,1,.38,1.63.26.15,0,.36,0,.41-.19a.42.42,0,0,0-.33-.48c-.56-.14-1.13-.23-1.7-.35a.21.21,0,0,1-.18-.27.34.34,0,0,1,.12-.2,2,2,0,0,1,.56-.2c.65-.06.65,0,.65-.62,0-.3.11-.44.43-.37.47.1.87.28,1,.8a1.6,1.6,0,0,0,1.6,1.36.54.54,0,0,1,.54.41c.1.23.18.38-.16.39s-.59,0-.88,0a.5.5,0,0,0-.23.09c.05.06.09.14.14.2s.25.23.36.36.23.2.05.29c-.72.38-.27.72,0,1.07s0,.31-.15.4-.43.17-.48-.11a8.53,8.53,0,0,1,0-1c0-.61-.17-.76-.74-.79s-.93,0-1.39,0a.52.52,0,0,0-.52.29c-.08.16.21.49-.25.47s-.58-.3-.79-.55,0-.21.14-.23.34,0,.5,0,.12-.08.17-.12a1.46,1.46,0,0,0-.16-.19.57.57,0,0,0-.7,0c-.23.14-.46.27-.57-.12S487.47,69.87,487.89,69.84Zm-.24-27.09c-.41.2-.84.34-1.26.51s-.47-.39-.83-.38c-.53,0-.54-.26-.28-.64.07-.1.09-.23.16-.34.29-.44.6-.34.92,0l.05,0c.12-.46.48-.24.72-.22s.57.35.74.63S487.83,42.66,487.65,42.75ZM488,29.49a.2.2,0,0,1,.08-.08c.1,0,.21-.11.29.06s-.07.14-.08.13A1.45,1.45,0,0,1,488,29.49Zm.54,8.27c-.16,0-.32,0-.32-.23s.05-.2.08-.2a.35.35,0,0,1,.33.27S488.54,37.76,488.5,37.76Zm0-3c.06-.2.09-.39.16-.58s.09-.11.14-.16c.14.24.36.45.34.75s-.21.24-.37.22S488.42,35,488.52,34.75Zm.33,1.4c0,.06-.1.05-.13,0s0,0,.07-.06,0,0,.07,0S488.87,36.14,488.85,36.15Zm1.54,19.18c-.31,0-.5-.5-.47-1a3.14,3.14,0,0,1,.19-.59c.08-.29.27-.71-.42-.52-.43.11-.84-.45-.77-.87,0-.15.12-.27.24-.25.59.09.93-.31,1.29-.66a.28.28,0,0,1,.44,0,.25.25,0,0,1,0,.34c-.57.65-.17,1.29,0,1.91a1.3,1.3,0,0,1,.13.63s.07.07.06.1C491.08,54.91,490.72,55.39,490.39,55.33ZM501.22,54c-.54.14.32.78-.34.8a1.9,1.9,0,0,0-.87.09c-.32.18-.46,0-.61-.18a5.33,5.33,0,0,1-.42-.6c-.35.48-.74-.21-1.14,0s-.22-.2-.3-.33a1.5,1.5,0,0,0-.79-.32.23.23,0,0,1-.17-.29c0-.16.15-.16.26-.08.27.2.83,0,.8.59a8.62,8.62,0,0,0,2-1c.27-.16.17-.43.15-.67a1.21,1.21,0,0,0-1.06-.28.68.68,0,0,1-.55-.26s-.06-.09-.05-.11a.52.52,0,0,1,.13-.15c.31.19.61,0,.92,0,.51-.09.56,0,.72.71.39.3.72.57.5,1.2-.15.41.43.4.67.6S501.49,54,501.22,54Zm2.11-.28-.07,0,.08-.1.07.07Zm1-3.3s-.05,0-.06-.07,0,0,0-.07h.07C504.43,50.37,504.42,50.42,504.33,50.46Zm1.28,2.11c-.25.58-.44.77-.74.71a.23.23,0,0,1-.12-.31c.09-.12.27-.18.37-.29s.14-.43.42-.38S505.67,52.45,505.61,52.57Zm.42-.89a4.16,4.16,0,0,0-1.2-.36c-.1,0-.4,0-.26-.27,0-.1.19-.26.25-.24.49.15,1.08,0,1.4.59,0,0,0,.08,0,.12S506.21,51.8,506,51.68Zm6.76,2.38c-.15,0-.26-.26-.43-.08a3.33,3.33,0,0,1-1.59.65c-.24.08-.12.38-.21.55-.31.59-.58.67-1.18.36a4.25,4.25,0,0,1-.56-.29c-.17-.12-.33-.26-.13-.5.05-.06.08-.21.05-.23-.65-.46-.33-1.14-.14-1.56s0-.68-.37-.8-.43-.37-.1-.66a.45.45,0,0,0,.08-.33c-.68-.42-.22-.65.11-1a.51.51,0,0,0-.3-.92c-.48-.07-.86-.11-1.1-.65a.93.93,0,0,0-.88-.39,4,4,0,0,1-1.81-.39c-.22-.08-.4-.16-.56,0-.3.41-.74.33-1.16.34a2.68,2.68,0,0,0-1,.09c-.33.15-.52.16-.77-.1a1.14,1.14,0,0,0-1.66-.1c-.22.16-.57.21-.67,0-.19-.45-.52-.41-.84-.36-.72.12-1.51-.15-2.18.43a1,1,0,0,1-.85.05c-.63-.23-1.3-.19-1.94-.42a5.5,5.5,0,0,0-2.87-.33,2.76,2.76,0,0,1-.76,0c-.28,0-.39-.21-.24-.43a1.64,1.64,0,0,0,.15-1.22c-.06-.42-.25-.77.35-1,.26-.08.21-.32-.07-.43s-.28-.38-.07-.59.44-.47.28-.77-.15-.39.18-.53a.54.54,0,0,0,.28-.84c-.3-.48,0-.7.34-.86.2-.09.49-.26.42-.38-.19-.32-.09-.67-.21-1s-.19,0-.3,0c-.69.08-.7.08-.76-.77a.47.47,0,0,0-.14-.3c-.15-.15-.34-.3-.22-.54a1.47,1.47,0,0,1,1.27-.37.72.72,0,0,1,.38.7c0,.12-.11.23-.13.35-.06.32.11.44.43.45s.92-.46,1.41,0c.1.09.29,0,.39-.21a1.1,1.1,0,0,1,1.31-.65c.54.18,1,.21,1.27-.39.21-.39.57-.4,1-.31a2.38,2.38,0,0,0,1.67.08c.41-.2.85.25,1.3.32.15,0,.33.23.45.09.64-.72,1.3-.19,1.92,0,.44.11.88.25,1.3.4a3.37,3.37,0,0,1,2.13,2.25c.06.19.11.39.25.47.64.38.59,1.2,1.08,1.65.05,0,.09.19.05.23-.5.66,0,.89.44,1.27s.84.75.4,1.4c-.1.14.06.3.18.43s.24.2.23.29c-.1.87.6,1.44.79,2.18s.39.57.79.33a.58.58,0,0,1,.48-.06l0-.06c-.12-.26-.54-.18-.59-.56,0-.18-.33-.4-.16-.53s.38.14.47.32c.24.48.64.2,1,.24,0-.09.13-.21.21-.12s0,.17-.12.22c0,1,0,1,1,1.22.27.07.26.27.31.46a2.21,2.21,0,0,1,.59.12.39.39,0,0,1,.08.55c-.16.24-.26,0-.36-.11a4.62,4.62,0,0,1-.41-.46l-.47-.15c-.6-.21-.6-.21-.74.49a2.26,2.26,0,0,1-.13.33c-.1-.07-.26-.13-.28-.22-.11-.52-.51-.56-.87-.45a1,1,0,0,0-.76.9c-.05.62,0,.74.7.79h0v-.41l.1-.1a.94.94,0,0,0-.1.1c-.09,0-.21-.13-.12-.22s.16,0,.22.12c.22.1.21.32.26.51a1.1,1.1,0,0,1,.68.33l.06-.06a.52.52,0,0,1,.62-.48,3.7,3.7,0,0,1,.8.34.82.82,0,0,0,.07.9c.13.24.2.23.33.06.28-.35.57-.23.64.09s.41.14.5.27C513.57,53.52,513.27,54,512.79,54.06Zm.94-3.08a.44.44,0,0,1,0-.66c.26-.19.46.06.57.26s0,.68.48.74c.05.19-.08.19-.18.21C514.16,51.6,514,51.25,513.73,51Zm1.32,3.77s-.13.08-.21.09a1.66,1.66,0,0,1-.32,0,.45.45,0,0,1-.18,0,.23.23,0,0,1-.18-.28c0-.14.11-.24.25-.2a3.68,3.68,0,0,1,.45.21C515,54.59,515.11,54.59,515.05,54.75Zm.14-1.44a2.47,2.47,0,0,0-.47.11c-.19.1-.42.25-.53,0s.17-.37.42-.41a.61.61,0,0,0,.21-.09c-.05-.13-.24-.29,0-.37s.29.09.34.27a.91.91,0,0,0,.11.22C515.41,53.2,515.31,53.27,515.19,53.31ZM517,51.1c.09-.09.18,0,.22.12s.21.13.13.22-.17,0-.22-.12S516.94,51.19,517,51.1ZM516.43,49c.22,0,.25.15.24.31s-.11.12-.15.11a.39.39,0,0,1-.28-.33S516.36,49,516.43,49Zm.7,7.28c-.17.07-.2-.09-.19-.2,0-.32-.23-.39-.41-.56a.6.6,0,0,1-.23-.63s.22-.05.22,0c.1.38.7-.24.71.37a3.62,3.62,0,0,0,.27.86A1.36,1.36,0,0,1,517.13,56.27ZM518.31,55s-.08-.13-.08-.2.17-.23.33-.23.06.11.09.16A.38.38,0,0,1,518.31,55Zm.61-5.14c-.13.19-.37.16-.57.09s-.21-.16-.32-.18c-.6-.11-.6-.11-.6-.5,0,0,0-.16,0-.28s.19-.35.32-.26c.29.19.64.15.92.32.11.07.33.18.2.38S519,49.8,518.92,49.88Zm.23-3.28c-.09.09-.16,0-.22-.12l-.12,0c-.11,0-.29,0-.26-.17s.19-.13.31-.08.11.11.17.17S519.24,46.51,519.15,46.6Zm.11-4.76c-.13,0-.21,0-.18-.16s.12-.06.19-.08l.17.12A.94.94,0,0,1,519.26,41.84Zm.21,6.88c0-.2,0-.44.15-.43a.42.42,0,0,1,.37.42.41.41,0,0,1-.34.44C519.36,49.14,519.54,48.84,519.47,48.72Zm.69,1.44s-.13.08-.19.08-.12-.08-.18-.12.11-.1.18-.11S520.19,50,520.16,50.16Zm.72,1.58a.18.18,0,0,1-.06-.08s0,0,0-.07.06,0,.08,0S521,51.7,520.88,51.74Zm.77-1.79a.48.48,0,0,1-.36-.46c0-.22.11-.27.49-.28.17,0,.42-.06.48.23C522.3,49.57,521.81,50,521.65,50Z"/><path d="M441.07,64.24a1.77,1.77,0,0,1-.76,0,1.71,1.71,0,0,0-1.2.29,3.39,3.39,0,0,1-2.55.43c-.25,0-.45-.11-.66,0-.41.28-.9.18-1.33.29-.86.21-1.51-.82-2.37-.33,0,0-.13-.11-.15-.18-.12-.5-.6-.57-.95-.75a1.61,1.61,0,0,1-.87-.87A2.11,2.11,0,0,0,429,62c-.6-.28-.63-.33-.42-1.05a.74.74,0,0,0-.15-.68,6.4,6.4,0,0,1-.77-3.63c.14-1.36-.35-2.66-.27-4a.4.4,0,0,0-.07-.24c-.26-.3-.15-.54.11-.75s.23-.26,0-.4c-.37-.27-.29-.66-.32-1,0-.54.16-1.1-.2-1.61a.58.58,0,0,1,0-.48c.37-.91.15-1.9.43-2.83.18-.62,0-1.31.16-2a5.24,5.24,0,0,0,0-1.93,1.3,1.3,0,0,1,.48-1.5c.1-.06.17-.25,0-.24-.77,0-.58-.71-.78-1.09s0-.58.48-.77c1.19-.49,2.42-.14,3.63-.22,1,.58,2.05.36,3.07.45a12.88,12.88,0,0,1,3.33.48.34.34,0,0,0,.44-.1c.31-.41.74-.36,1.16-.34a.64.64,0,0,0,.68-.4c.32-.57.91-1,.93-1.73a33.1,33.1,0,0,1,.23-5.54,11.12,11.12,0,0,0,0-2.16c0-.5-.09-1,.39-1.4a.43.43,0,0,0,.06-.59,1.92,1.92,0,0,1-.19-1.22,2.16,2.16,0,0,0-1-1.66.74.74,0,0,0-.91-.14,1.07,1.07,0,0,1-1.39-.23c-.15-.18-.37-.14-.58-.18-.64-.15-1.37.43-2-.22,0,0-.16,0-.22.06a1.17,1.17,0,0,1-.85.16c-1.7,0-3.4,0-5.1,0A1.46,1.46,0,0,1,428,21.15a21.68,21.68,0,0,0-.21-3.77,17.91,17.91,0,0,1-.24-3.12,30.31,30.31,0,0,1-.32-4.26.53.53,0,0,0,0-.25c0-.08-.08-.2-.12-.2-.43,0-.76-.45-1.2-.27a13.17,13.17,0,0,0-2.34.8,2.93,2.93,0,0,1-1.93.44,2.52,2.52,0,0,0-2,.59,1.47,1.47,0,0,1-1,.43c-1.6,0-3.1.55-4.66.74-.47.06-.63.63-1.1.52s-1,.3-1.47.27c-.25,0-.33.13-.45.34a1.39,1.39,0,0,0-.21.84,29.83,29.83,0,0,0,.2,3.25,22.1,22.1,0,0,1,0,4.07c0,.23-.21.46-.22.7,0,.41-.25.52-.58.47-1.15-.16-2.27.24-3.45.06a31.54,31.54,0,0,1-3.46-.46c-.61-.17-1.66.35-1.65.85,0,.69-.27,1.31-.3,2-.06,1.34-.05,2.67-.21,4a52.46,52.46,0,0,0-.05,5.47c0,.27,0,.56.27.66.5.19.88.6,1.58.43,1.25-.28,2.48.22,3.71.47a1.62,1.62,0,0,0,.79,0,4.89,4.89,0,0,1,1.27,0,1,1,0,0,1,1,1,5,5,0,0,0,.24,2.11c.05.11-.09.31-.13.47s-.15.39-.08.47c.34.41,0,.78,0,1.17a1.4,1.4,0,0,0,0,.5,8.15,8.15,0,0,1,.26,3.64c0,.07.08.16.07.23-.07.65.38,1.3.13,1.89a5.15,5.15,0,0,0-.22,1.73c0,.58.17,1.18-.21,1.73-.08.1,0,.35,0,.48a3.86,3.86,0,0,1,.23,1.87c0,.75-.28,1.55.18,2.26-.31.61.25,1.27-.13,1.9A1.25,1.25,0,0,0,410,59a1.61,1.61,0,0,1,.07,2.08c-.22.36-.15.49.21.64s.46.39,0,.56c0,0-.1.16-.07.21.26.49-.19,1,.08,1.54a1.82,1.82,0,0,1,.24,1.52c0,.08,0,.14.09.17.57.14.86,1,1.64.62.16-.08.21.11.17.21s-.23.45-.34.67c-.13-.1-.26-.2-.4-.29-.33-.19-.49-.12-.5.2a13.85,13.85,0,0,0,.74,1.88.61.61,0,0,0,.24.07l0-.06a3.81,3.81,0,0,0,1.14-1.25,2,2,0,0,1,.72-.7c.21-.16.41,0,.53.19s-.07.23-.2.31-.6.36-.3.67c.58.6,1,1.18.66,2.07,0,.08,0,.24.22.12s.4-.16.5.11a5.75,5.75,0,0,1,.2.71.45.45,0,0,1-.21.1.57.57,0,0,1-.57-.19c-.35-.43-.67-.34-.88.1s-.39.46-.63,0-.51-.57-.7-.89a.42.42,0,0,0-.5-.25.34.34,0,0,0-.23.5c.36,1,.51,2.18,1.61,2.79a2.38,2.38,0,0,1,.36.35,14.17,14.17,0,0,1,2.37,2.7,1,1,0,0,0,1,.47c.56-.07.75-.44.43-.89-.12-.17-.29-.3-.42-.46s-.3-.22-.13-.41a.66.66,0,0,1,.42-.26c.41-.06.59.26.84.47s.56.59.11,1a.61.61,0,0,0,.09,1c.11.07.25.16.18.28-.31.54.18.73.44,1s.73.64,1.11.47c.64-.28,1.21.08,1.8,0a1.15,1.15,0,0,1,1.1.48,3,3,0,0,0,2.69,1.06,5,5,0,0,1,1.89.07,7.45,7.45,0,0,0,1.86.17.7.7,0,0,0,.69-.23,1.08,1.08,0,0,1,1.55-.35.8.8,0,0,0,.84,0c.15-.08.31-.2.46-.08,1,.7,2-.43,3,.12,0,0,.16-.07.19-.14.31-.61.83-.36,1.29-.3.65.09,1.2-.31,1.83-.32.26-.66.83-.39,1.3-.45a3.74,3.74,0,0,0,.75-.06c.8-.24.9-.58.77-1.42s-.77-1.8-.19-2.77c-.3-.34.11-.75-.12-1.14a.85.85,0,0,1,.2-1.14c.08-.07.2-.15.09-.31-.32-.45-.11-1-.19-1.48s-.28-1,.2-1.4a.53.53,0,0,0,.08-.47c-.44-.76-.15-1.58-.23-2.36a.86.86,0,0,1,.26-.81c.35-.32.23-.6,0-1A1,1,0,0,0,441.07,64.24ZM438.53,29.3a.67.67,0,0,1-.11-.18c0-.11,0-.22.16-.19s.05.13.08.19Zm-.17-1c.05-.09.13-.21.22-.12s0,.17-.12.22-.13.21-.22.12S438.28,28.34,438.36,28.28Zm-1.89,1.41s.13-.08.19-.07.11.07.17.11-.11.1-.17.11S436.43,29.84,436.47,29.69Zm-5.31-1.32.06.07,0,.08-.11-.08Zm-21.37-2.15-.1-.07.07-.08.07.08Zm.73.28s0,0-.07-.07,0-.05,0-.07.06,0,.07,0S410.61,26.47,410.52,26.5Zm13.72,33.73s.06,0,.07,0,.05.1,0,.13,0,0-.06-.07S424.23,60.25,424.24,60.23Zm-1.77-19.65c.11,0,.13.1,0,.27,0,0-.1.16-.19.15a4.43,4.43,0,0,1-.69-.19c-.06,0-.11-.1-.16-.14s.13-.12.2-.12C421.9,40.55,422.19,40.56,422.47,40.58Zm-1.39-1.25c0-.22.11-.29.31-.17s.29.18.41.27c-.17.25-.33.42-.56.33S421.07,39.5,421.08,39.33Zm-.13,1s.05,0,.07,0,0,.06,0,.07-.1,0-.14,0A.14.14,0,0,1,421,40.36Zm-1.76-4.6c.1,0,.21-.09.29.06s-.07.14-.09.13a1.72,1.72,0,0,1-.29-.11S419.15,35.77,419.19,35.76Zm-.46,2.09s-.07.14-.11.14-.33,0-.31-.24a.34.34,0,0,1,.08-.19A.42.42,0,0,1,418.73,37.85Zm-.67-1.42a.21.21,0,0,1,.25-.19c.28,0,.24.27.25.46s0,.27-.2.2A.42.42,0,0,1,418.06,36.43Zm.22,3.59c.26-.14.52-.06.77-.13a1.3,1.3,0,0,0,.2-.15c0-.24-.28-.15-.36-.28a.38.38,0,0,1-.06-.23c0-.14.14-.25.25-.18.38.21.66.28.88-.22,0-.09.39-.07.59-.06s.37.24.22.43c-.27.35-.53.82-1.11.43,0,0-.2.13-.3.2,0,.68.73.87.9,1.43,0,.05.24,0,.37,0,.29,0,.71-.44.87.2,0,0,.15,0,.23,0,.66-.06,1,.08,1.13.53,0,.11,0,.21-.16.23a3,3,0,0,0-2.1,1.16c-.22.35-.39.35-.78.25-.66-.18-1-.4-.83-1.16a.62.62,0,0,0-.27-.53c-.71-.17-.88-.49-.48-1.13C418.38,40.62,417.71,40.31,418.28,40Zm4.47,20.91c-.24.19-.36.6-.79.44,0,0-.08,0-.08-.08-.06-.5.46-.38.66-.61,0,0,.08,0,.13,0s.09,0,.1,0S422.79,60.9,422.75,60.93ZM420.5,45.31c-.09.09-.16,0-.22-.12-.31-.11-.59.08-.9.09-.88,0-.89.07-.86-.76,0-.41.18-.38.45-.19s.45-.74.86-.21a6,6,0,0,1,.49.86l.06.11C420.47,45.14,420.59,45.22,420.5,45.31Zm-2.26,2.57c0-.26.1-.48.44-.47s.39.23.4.5,0,.33,0,.49a1,1,0,0,1,.21.29c0,.15.06.41-.11.43s-.15-.22-.17-.38a2,2,0,0,0,0-.24l-.66-.51-.06.1-.4.54c0-.07-.09-.13-.1-.2C417.7,48.06,417.92,47.92,418.24,47.88Zm1,1.7,0,.07-.11-.08.08-.07ZM419,50.91c-.05.05-.1,0-.14,0a.18.18,0,0,1,.08-.06s0,0,.07,0A.19.19,0,0,1,419,50.91Zm-.5-1.51a1.09,1.09,0,0,1-.35.07c-.16,0-.34,0-.33-.26s0-.29.2-.15S418.4,49.14,418.48,49.4Zm-2.41-13.87c.26-.16.57-.07,1-.1a4.05,4.05,0,0,1,.62.1c.15,0,.13.24.06.32a1.58,1.58,0,0,1-1.74.24.35.35,0,0,1-.17-.29A.5.5,0,0,1,416.07,35.53Zm.87,2.9c0,.06-.1,0-.14,0a.18.18,0,0,1,.08-.06s.05,0,.07,0S417,38.41,416.94,38.43Zm-.87-1.68s.12.11.11.15a.44.44,0,0,1-.33.29.88.88,0,0,1-.09-.2C415.75,36.77,415.91,36.74,416.07,36.75ZM413.7,48.61c0-.26-.3-.42-.13-.69s.58,0,.87-.21.57-.06.86,0c.53,0,.72.28.72.82,0,.21,0,.48-.3.46s-.57.42-.93.2c-.19-.12-.3-.13-.29.13a2.38,2.38,0,0,1,0,.38c0,.18.1.52-.19.47s-.61-.09-.61-.51S413.66,48.94,413.7,48.61Zm1.78,10.28-.1.21-.33-.31s.08-.14.12-.14S415.48,58.69,415.48,58.89Zm-.81,2.9c-.84-.35-.76-1.17-1-1.84-.06-.19.08-.2.29-.18a2.2,2.2,0,0,1,2,1.12L416,61h0l.37-.05a.74.74,0,0,1,.77.29c.1.16-.21.85-.48.92s-.8.45-1.26.09A3.51,3.51,0,0,0,414.67,61.79Zm2.67.44c.08.08.17.12.17.17s-.05.31-.25.29a.62.62,0,0,1-.2-.1Zm-1.71,4.24-.07,0,.08-.11.07.08Zm2.12-2.23a.84.84,0,0,0-.65.32c-.31.34-.63.75-1,0,0,0-.14,0-.22-.06-.25-.06-.69.13-.61-.36.05-.3.42-.22.64-.19a4.2,4.2,0,0,0,1.57-.27c.28,0,.47,0,.52.21A.25.25,0,0,1,417.75,64.24Zm-.19-11.44c-.31-.28.06-.78.52-1.09a4.68,4.68,0,0,1,1.2-.61c.22-.08.35-.45.63-.34a1.76,1.76,0,0,1,.56.5c.08.09.09.23.16.34.3.45.3.45.68-.05.06-.08.05-.24.2-.2s.09.13.1.21a1.44,1.44,0,0,1-.11.73c-.18.39-.27.51-.67.17s-.62-.23-.74.3a1.25,1.25,0,0,1-.11.48.7.7,0,0,0,.18,1c.27.25.54.45.28.95s-.58.39-1,.41a2.65,2.65,0,0,1-.53-.09c-.32-.1-.37-.43-.05-.71s.13-.57,0-.57C417.87,54.18,418,53.23,417.56,52.8Zm3,5.53a.41.41,0,0,1-.1.22s-.14,0-.2-.06c-.59-.41-.52-1.19-.9-1.72,0,0,.08-.21.15-.29a.54.54,0,0,1,.58-.13c.26.08.09.24,0,.37-.15.31.05.54.16.81S420.67,58,420.59,58.33Zm0,2c0,.16,0,.33-.29.32s-.24-.27-.23-.48a.25.25,0,0,1,.34-.24C420.59,60,420.61,60.17,420.59,60.34Zm-1.81,12.35c0,.12-.09.23-.22.19s-.24-.08-.25-.22.14-.27.31-.25A.23.23,0,0,1,418.78,72.69Zm-.43-10.89.07-.07.07.08,0,.07Zm.6-3.24c-.21,0-.67-.53-.67-.88a.39.39,0,0,1,.53-.32.76.76,0,0,1,.24,1.11A1,1,0,0,1,419,58.56Zm.57.83c.19,0,.3.11.27.31s-.09.21-.42.17a.39.39,0,0,1-.24-.34C419.13,59.37,419.36,59.38,419.52,59.39Zm-.2,5.63a2.91,2.91,0,0,1-.12-1,.47.47,0,0,1,.82-.19c.27.3.67.5.79.93l.06.07c.44-.15.67.22,1,.41.06,0,0,.24,0,.36s-.14.27-.26.19c-.54-.35-1.23-.08-1.77-.44C419.66,65.2,419.37,65.3,419.32,65Zm.88,8.09a.29.29,0,0,1-.24,0,.66.66,0,0,1-.32-.94.5.5,0,0,1,.28-.24c.13,0,.19.14.16.26-.06.28.25.43.23.69C420.28,73,420.26,73.07,420.2,73.11Zm.67-1.34a.29.29,0,0,1-.14-.49.41.41,0,0,0-.1-.63c-.15-.1-.47.09-.44-.22s.29-.05.43-.12a2.44,2.44,0,0,1,.62.09.62.62,0,0,1,.37.71C421.54,71.42,421.07,71.86,420.87,71.77ZM422,78.51c-.16,0-.35,0-.36-.24a.53.53,0,0,1,.44-.52c.17,0,.3.08.31.28S422.31,78.52,422,78.51Zm3.67-10.92a.23.23,0,0,1-.25.21,2.56,2.56,0,0,1-.62,0c-.74-.16-.74-.17-1.1.46a1.78,1.78,0,0,1-.24.43.76.76,0,0,0-.14,1c.19.43,0,.6-.55.51-.21,0-.42,0-.62-.08s-.34-.24-.2-.45c.33-.51,0-.64-.4-.8s-.59-.43-.32-.79.5-.55.71-.87.71-.05,1-.16a13.26,13.26,0,0,1,2.6.29A.21.21,0,0,1,425.65,67.59Zm8.56,1.53c.11-.05.21-.08.3,0s-.07.15-.09.14a1.45,1.45,0,0,1-.29-.11S434.18,69.13,434.21,69.12Zm-.8,1c.13-.16.26-.31.49-.28,0,.05.11.14.1.15a1.72,1.72,0,0,1-.33.33s-.15,0-.22,0S433.34,70.22,433.41,70.13Zm-.73,0c.1,0,.21-.11.29.06s-.06.13-.08.13l-.29-.11S432.65,70.15,432.68,70.14Zm-4.18.91a.54.54,0,0,1,.54-.44c.2,0,.48.36.44.53s-.54.47-.68.4S428.43,71.28,428.5,71.05Zm5.84,7.24c-.08.1-.13.21-.28.19s-.24-.11-.23-.24c.06-.52-.44-.39-.64-.58s-.31-.45-.77-.25-.75,0-.93-.9c-.09-.05-.22-.13-.13-.22s.17,0,.22.12c.51.1,1.11-.15,1.51.42a.39.39,0,0,0,.47.1c.35-.2.58-.17.78.22A1,1,0,0,1,434.34,78.29Zm-1.15-3.38c.14-.1,0-.48.32-.35.07,0,.07.31,0,.46s-.15.19-.39.12C433.1,75.12,433.09,75,433.19,74.91Zm1.29-1.57a.86.86,0,0,1-.36.07.28.28,0,0,1-.29-.2c-.2-.51-.5-.28-.62,0a1.32,1.32,0,0,1-.72.64c-.23.12-.3.15-.25.5s-.47.82-.72,1.25c0,0-.09.06-.1,0a.39.39,0,0,1-.14-.18c0-.21-.08-.48,0-.62.28-.38,0-.51-.22-.7s-.17-.22-.31-.08-.23.17-.15.29a.76.76,0,0,1,.05.83c-.19.37-.32.75-.8.33-.3.26-.48,0-.59-.18s.09-.46.3-.6a.87.87,0,0,1,.37-.08c.22,0,.27-.17.28-.35s0-.33-.26-.36-.64-.07-.39-.52c.16-.29-.1-.24-.23-.25a.62.62,0,0,1-.52-.3c-.07-.09-.12-.3-.07-.34a5.31,5.31,0,0,1,.91-.64c.24-.12.48,0,.71.17.49.29,1,.49,1.44-.09a.49.49,0,0,1,.6-.06c.19.09.36.24.58.2.71-.14,1.08.36,1.47.79C434.6,73,434.66,73.22,434.48,73.34Zm1.27.77-.07,0,.07-.11.08.08Zm1.49-2.91s.12,0,.19-.08l.17.12a.94.94,0,0,1-.18.12C437.29,71.39,437.2,71.33,437.24,71.2Zm-.45-.76s.06.13.09.19l-.13.18c0-.06-.1-.11-.11-.18S436.65,70.41,436.79,70.44Zm.27,8a.58.58,0,0,1-.61.34c-.07,0-.18,0-.22-.08s.06-.18.16-.2.38-.37.66-.16A.11.11,0,0,1,437.06,78.42Zm.59-.69c0,.1,0,.29-.23.15l-.25-.19a3,3,0,0,1,.56-1.14s.08,0,.09,0,.1.15.09.22C437.83,77.1,437.74,77.42,437.65,77.73Z"/><path d="M198.59.28c-.31.11-.59.47-.92.32-.95-.43-2-.07-2.94-.48-.33-.15-.66-.24-.83.27-.06.19-.29.26-.53.15a7.25,7.25,0,0,0-2.5-.17c-.18,0-.4.07-.43.22-.15.78-.92,1.28-.94,2.13a8.64,8.64,0,0,1-.07,1c-.05.36-.27.7-.1,1.07.29.63-.64.32-.56.77a2,2,0,0,1,0,.24,2.05,2.05,0,0,1-.25,1.26c-.12.3-.36.56-.32.94a1.68,1.68,0,0,1-.88,1.53,2.72,2.72,0,0,0-.32.35c.36.23-.11.66.15.83.5.32.15.51,0,.77a1.85,1.85,0,0,0-.4.89s0,.07.06.11c.11.41-.16.78-.14,1.19-.79.48-.63,1.39-.94,2.1-.13.31,0,.65-.4,1s-.15.94-.58,1.29c.49.66-.07,1-.44,1.37-.16.18-.09.4-.15.6a2.73,2.73,0,0,1-.48,1.25,2.14,2.14,0,0,0-.78,2c0,.28-.15.47-.24.7a8.11,8.11,0,0,0-.51,1.4,3.39,3.39,0,0,1-.92,2.24c-.06.05-.11.18-.08.22.36.63-.37,1-.3,1.62s-.42,1.18-.47,1.79-.61.61-.54,1.1-.27.8-.33,1.15a3.56,3.56,0,0,1-.24,1.11c-.16.28-.28.53-.09.82.07.11.12.23,0,.33-.7.62-.35,1.7-1,2.34-.29.28.3.53.11.8s-.58.23-.66.55a6.31,6.31,0,0,0-.05.88c0,.18.08.44-.25.47l-.06.06c.05.37.18.76-.16,1.07s-.33.83-.9.73c-.33.52.34.78.31,1.22,0,.15-.14.29-.19.45a4.26,4.26,0,0,0-.45,1.58,2,2,0,0,1-.77,1.69c.32.68-.77,1.08-.36,1.78-.24.62-.51,1.22-.71,1.85-.1.31,0,.67-.25,1a1.93,1.93,0,0,0-.59,1.39c0,.43-.43.78-.47,1.27a9.69,9.69,0,0,1-.48,2,3.11,3.11,0,0,1-.9,1.77c-.15.11,0,.32-.06.45-.11.61.07,1.27-.43,1.85-.31.37-.19,1-.58,1.43.43.6,0,.94-.4,1.27s.23.53,0,.78a6.06,6.06,0,0,0-.59.66s.1.21.13.32.08.46-.1.6c-.44.34-.37.81-.38,1.27a1.57,1.57,0,0,1-.1.74,7.94,7.94,0,0,0-.7,3c-.11,1.09-.75,2.08-.91,3.19a6.11,6.11,0,0,0-1,2.25c-.42,1-.37,2.19-.79,3.25-.12.3,0,.54.45.55a27.25,27.25,0,0,0,3-.37,1.33,1.33,0,0,1,.79.08c.66.32.68.3,1.12-.35.2-.29.31-.32.68-.12a2.37,2.37,0,0,0,2.48,0c.77-.43.75-1.07.9-1.78a6.77,6.77,0,0,1,.77-2.59,5.42,5.42,0,0,0,1.14-2.54,7.25,7.25,0,0,1,1-2.6,2.72,2.72,0,0,0,.34-1.43,4,4,0,0,1,.59-2.29,3.16,3.16,0,0,0,.44-2c-.11-.49-.12-.82.34-1.14.25-.17.62-.51.14-.9-.17-.13-.15-.24.08-.34a1.93,1.93,0,0,0,1-1c.17-.4.87-.71.31-1.29.37-.67,0-1.6.89-2.12a1.42,1.42,0,0,0,.55-1.44c-.11-.47.1-.5.33-.72.45-.42.34-.74-.26-1.08l-.2-.14c.07,0,.14-.11.21-.12s.4,0,.44-.17c.1-.39,0-.81.55-1,.31-.12.13-.69.45-1a.78.78,0,0,0,.15-1c-.26-.47.68-.39.67-.89,0-.33.11-.68-.11-1s-.46-.35-.34-.63a1.89,1.89,0,0,1,.49-.57c.24-.23.43-.53.78-.64.2-.06.21-.23.2-.4s-.13-.29-.32-.3h-.25c-.12,0-.33-.06-.34-.11A.36.36,0,0,1,185,46c1.06-.27,1.36-1,1.42-2a4,4,0,0,1,1-2.75,2.26,2.26,0,0,0,.51-1.5c0-.41,0-.75.44-1.07a.79.79,0,0,0,0-1.31c-.24-.19-.17-.35.08-.59a1.67,1.67,0,0,0,.76-1.48,1.37,1.37,0,0,1,.54-1.45.77.77,0,0,0,.22-.44c.36-1,.07-2,.47-2.93a.24.24,0,0,0-.09-.21c-.6-.2-.32-.7-.38-1.07s.12-.5.49-.56c.71-.11.71-.15.65-1,0-.13,0-.23.1-.27s.35-.24.18-.47a.41.41,0,0,1,.09-.65c.36-.3.25-.52,0-.84s-.26-.59.14-.57a.81.81,0,0,0,.88-.71,3.75,3.75,0,0,0,.3-1.72.7.7,0,0,1,.38-.86c.54-.2.77-.47.41-1,0-.06.06-.23.12-.33.66-1.06.59-2.43,1.54-3.36.19-.19.09-.49.08-.74a7.47,7.47,0,0,1,.46-2.3,4.64,4.64,0,0,0,.36-1.31c.73-.25.19-.73.22-1.11a3,3,0,0,1,.2-.45c.27-1,.63-2,.88-3a7.55,7.55,0,0,1,.74-2.36c.49-.79.7-1.7,1.14-2.51a2.74,2.74,0,0,0,.07-2.52C199.23.18,199,.13,198.59.28Zm-15.3,49.15-.11-.08.08-.07.06.08Zm.58-5.81a.21.21,0,0,1-.22-.22c0-.24.15-.28.31-.24s.2.13.18.16C184.09,43.56,184,43.63,183.87,43.62Zm.76-1.46c-.14.21-.09.62-.45.6a.37.37,0,0,1-.27-.49c.09-.22.25-.44.55-.4C184.6,41.93,184.69,42.07,184.63,42.16Zm.16,2.19-.07,0,.08-.1.07.07Zm.62-2.77a.38.38,0,0,1-.19-.08.41.41,0,0,1,.29-.33s.1.07.15.1S185.64,41.6,185.41,41.58Zm1.18-.56a.35.35,0,0,1-.33-.26s.05-.16.09-.16.32,0,.33.23C186.65,40.89,186.62,41,186.59,41Z"/><path d="M419.69,69.75c.09.09.2.26.26.24a5.53,5.53,0,0,0,.9-.28.29.29,0,0,0,0-.22c-.32-.28-.5.22-.79.14-.11,0-.24,0-.36,0l-.06.06A.41.41,0,0,0,419.69,69.75Z"/><path d="M188.5,39.63c-.32,0-.26.25-.24.44s.08.24.24.2.2-.22.2-.38S188.64,39.63,188.5,39.63Z"/><path d="M524.3,71.27c-.07-.06-.15,0-.15.08s-.11.43.18.5a.25.25,0,0,0,.21-.09C524.63,71.53,524.47,71.39,524.3,71.27Z"/><path d="M522.8,64a.21.21,0,0,0-.1.06c0,.3.26.36.49.42l.12,0,.06-.07C523.33,64.15,523.17,64,522.8,64Z"/><path d="M223.55,78.94a.37.37,0,0,0,0,.21c0,.07.1,0,.14-.06a1.72,1.72,0,0,1-.07-.21S223.55,78.92,223.55,78.94Z"/><path d="M221.57,79.09a.36.36,0,0,0-.21,0c-.06,0,0,.1.08.12l.21-.08S221.59,79.09,221.57,79.09Z"/><path d="M130.74,20.89s0-.08,0-.08c-.18-.11-.31,0-.41.13l.06.07Z"/><path d="M298,53.94s.11.09.16.09.09-.06.15-.1l-.22-.06S298,53.91,298,53.94Z"/><path d="M493.36,57a.37.37,0,0,0,0,.21c0,.07.1,0,.14-.06l-.08-.21S493.36,57,493.36,57Z"/><path d="M503.1,65.37c-.06,0,0,.11.09.13l.21-.08s-.06-.08-.09-.08A.49.49,0,0,0,503.1,65.37Z"/><path d="M20.26,34.14l0,.1c.2-.1.19-.2,0-.3l0,.1Z"/><path d="M20.22,34.18l.06.06,0-.1V34l0-.1-.06.06A.13.13,0,0,1,20.22,34.18Z"/><polygon points="353.22 34.13 353.23 34.05 353.14 34.08 353.22 34.13"/><path d="M177.15,40.66c-.13.13,0,.14.08.21l.06-.06Z"/><polygon points="265.14 77.86 265.22 77.87 265.19 77.79 265.14 77.86"/><polygon points="429.66 80.2 429.74 80.21 429.71 80.13 429.66 80.2"/><polygon points="375.86 81 375.91 80.93 375.82 80.92 375.86 81"/><polygon points="359.54 56.28 359.62 56.25 359.55 56.2 359.54 56.28"/><polygon points="513.07 63.91 513.04 63.83 512.99 63.9 513.07 63.91"/><polygon points="269.25 21.87 269.18 21.82 269.17 21.91 269.25 21.87"/><polygon points="266.98 22.61 266.9 22.6 266.93 22.68 266.98 22.61"/><path d="M226.59,71.46c-.17-.06-.31,0-.31.26s0,.33.31.42c0,0,.09-.12.12-.24S226.75,71.53,226.59,71.46Z"/><path d="M229.74,74.74l.06-.06-.18-.13Z"/><path d="M229.6,74.33c-.11.18,0,.31.14.41l-.12-.19.18.13-.12-.35S229.61,74.32,229.6,74.33Z"/><path d="M237.51,30.45c0-.06,0-.09,0-.09l-.06.07.09,0S237.51,30.47,237.51,30.45Z"/><path d="M237.51,31.27c.12.11.19,0,.26-.11a1.28,1.28,0,0,0,.26-.26q.3-.42-.21-.48l-.36-.06s0,0,0,.09,0,0,0,0l-.09,0c0,.2,0,.41,0,.61S237.46,31.23,237.51,31.27Z"/><polygon points="238.3 31.6 238.35 31.52 238.27 31.51 238.3 31.6"/><polygon points="93.58 44.32 93.59 44.24 93.51 44.27 93.58 44.32"/><path d="M102.87,32.47c-.2,0-.44,0-.48.24s0,.41.25.46a.6.6,0,0,0,.63-.32A.47.47,0,0,0,102.87,32.47Z"/><path d="M131.92,40.11l-.06-.06-.15.14C131.85,40.32,131.85,40.15,131.92,40.11Z"/><path d="M131.16,41.83l-.06.06.15.15C131.38,41.9,131.2,41.89,131.16,41.83Z"/><path d="M129.79,59.63l0-.11-.11,0,0,.13Z"/><path d="M129.64,59.6s0,0,0,0h0Z"/><path d="M129.64,59.6l0,0h0l0-.13A.11.11,0,0,0,129.64,59.6Z"/><path d="M129.7,59.64h0l.07,0h-.09Z"/><path d="M129.65,59.62l0,0v0Z"/><path d="M129.67,59.62v0h0v0Z"/><path d="M370.48,45.73a.47.47,0,0,0-.21,0c-.06,0,0,.11.08.13l.21-.08S370.51,45.73,370.48,45.73Z"/><path d="M365.53,64.71h0s0,0,0,0,0,.09,0,.09l.06-.07C365.53,64.72,365.52,64.71,365.53,64.71Z"/><path d="M365,64.31c-.06,0-.15.11-.15.16,0,.41.35.23.55.31l.12,0s0,0,0-.09,0,0,0,0h0s0,0,.05,0C365.53,64.41,365.37,64.2,365,64.31Z"/><path d="M365.53,64.71c.05,0,0,0,0,0Z"/><path d="M364.24,66.27l.07.06.09-.18Z"/><path d="M364.68,65.9a.2.2,0,0,0-.32,0,1.8,1.8,0,0,0-.12.35l.16-.12-.09.18c.09-.08.19-.15.28-.24A.39.39,0,0,0,364.68,65.9Z"/><path d="M337.08,42.74c-.33.23-.36.63-.53.94.07.06.13.15.19.15s.09.05.09.06,0,0,0,0a6.26,6.26,0,0,0,.38-1C337.26,42.73,337.17,42.69,337.08,42.74Z"/><path d="M514.8,50.63c.06-.06,0-.11-.08-.15l-.07.07C514.69,50.66,514.74,50.69,514.8,50.63Z"/><path d="M515.58,51.45s.08-.06.08-.09c0-.43-.38-.62-.7-.81a1,1,0,0,0-.24-.07c.11,0,.14.09.08.15s-.11,0-.15-.08a.28.28,0,0,1,0,.12C514.75,51.21,515.25,51.23,515.58,51.45Z"/><path d="M513.83,50.65l0-.33h-.14C513.72,50.44,513.6,50.6,513.83,50.65Z"/><path d="M513.72,50.32h.14A.11.11,0,0,0,513.72,50.32Z"/><path d="M514.21,47.17l-.06.06.21.12Z"/><path d="M514.45,47.42c.11,0,.16-.09.1-.13a1.7,1.7,0,0,0-.34-.12l.15.18-.21-.12A.31.31,0,0,0,514.45,47.42Z"/><polygon points="494.2 45.59 494.21 45.51 494.13 45.54 494.2 45.59"/><polygon points="488.42 63.02 488.49 62.96 488.41 62.92 488.42 63.02"/><path d="M487.85,62a.65.65,0,0,0-.28.24c-.12.2.1.15.17.21l.68.54v-.1l.08,0c-.11-.27-.22-.53-.34-.8A.23.23,0,0,0,487.85,62Z"/><path d="M486.36,60.49c-.15.09-.39.15-.33.4a.4.4,0,0,0,.38.27c.24,0,.23-.19.23-.35S486.61,60.48,486.36,60.49Z"/><path d="M487.39,60c-.11,0-.14.07-.07.18l.24.21a.6.6,0,0,0,.08-.21A.21.21,0,0,0,487.39,60Z"/><polygon points="483 61.38 483.01 61.3 482.92 61.33 483 61.38"/><path d="M479.09,54.55c0,.24.15.26.31.27a2,2,0,0,0,.39-.11,2.76,2.76,0,0,0-.44-.32A.19.19,0,0,0,479.09,54.55Z"/><path d="M495.22,69.09c.14,0,.34,0,.31-.27a.19.19,0,0,0-.25-.17.72.72,0,0,0-.35.31C494.9,69.06,495.09,69.08,495.22,69.09Z"/><path d="M487.38,32.38a.64.64,0,0,0,.24-.06l-.22-.26c-.07-.08-.16-.06-.18,0A.22.22,0,0,0,487.38,32.38Z"/><path d="M494.75,52.86c-.13,0-.14.1,0,.14s.14,0,.21,0,0-.06,0-.08A.56.56,0,0,0,494.75,52.86Z"/><polygon points="490.78 40.39 490.81 40.36 490.77 40.34 490.78 40.3 490.72 40.36 490.76 40.35 490.78 40.39"/><path d="M491,40.56l-.25-.26v0l0,0,0,0,0,0h0l.26.25Z"/><path d="M491.23,40.87l.06-.06-.26-.25,0,0Z"/><path d="M491.38,41c.13-.14-.05-.15-.09-.21l-.06.06Z"/><path d="M428.18,43s.06,0,.07-.08,0-.08,0-.17l-.84-.34s-.08.06-.08.09,0,.19.06.21A5.77,5.77,0,0,0,428.18,43Z"/><path d="M423.49,61.5l-.06-.07-.06.1S423.39,61.56,423.49,61.5Z"/><path d="M422.5,61.77c0,.14.16.17.29.18.35,0,.52-.22.7-.45h0q-.15.09-.12,0l.06-.1c-.25,0-.5,0-.75.08A.2.2,0,0,0,422.5,61.77Z"/><path d="M428.15,65.36c.07.11.11.07.15,0l0-.05-.06-.07C428.19,65.29,428.13,65.34,428.15,65.36Z"/><path d="M427.9,65.45s.08.15.14.18c.32.14.22-.12.26-.26,0,.06-.08.1-.15,0s0-.07.12-.11C428.15,65.33,427.94,65.25,427.9,65.45Z"/></svg>