<svg id="Layer_1" data-name="Layer 1" xmlns="http://www.w3.org/2000/svg" viewBox="0 0 91.86 90.48"><path d="M22.07,53.92A14.4,14.4,0,0,1,22,57a6.26,6.26,0,0,0,.39,2.89c.05.16.18.33.15.47a4.85,4.85,0,0,0,.56,2.7c.76,1.79.8,3.85,2,5.47,0,0,0,.09,0,.12.55.94,1.05,1.92,1.68,2.81s1.29,1.58,1.87,2.43c.25.36.17.76.35,1s.77.25,1.05.64.53.45.7.74a13.43,13.43,0,0,0,1.61,1.92.52.52,0,0,1,.19.44c-.17.7.31.86.81,1a9.18,9.18,0,0,1,1.32.39c.87.33,1.93.36,2.46,1.34.65.27,1.07.9,1.82,1.09a6.59,6.59,0,0,1,3,1.34.29.29,0,0,0,.24,0c.14-.07.12-.21.07-.33s-.1-.14-.13-.22-.09-.26,0-.34a.27.27,0,0,1,.21.08,2,2,0,0,0,2,.88c.1,0,.22.11.34.14a10,10,0,0,0,2.62.37,20.73,20.73,0,0,1,2.73,0c.46,0,.87.26,1.35.31.83.07,1.65-.07,2.47-.05s1.45.11,2.2.06c1.27-.08,2.43-.76,3.73-.58a.16.16,0,0,0,.12,0c.64-.56,1.55-.67,2.13-1.31a1.13,1.13,0,0,1,1.12-.45,1.63,1.63,0,0,0,1.77-1,1.89,1.89,0,0,1,1.31-1.1.25.25,0,0,0,.23-.25c0-.56.48-.78.78-1.12a8.27,8.27,0,0,0,.92-1.33c.38-.66.6-1.51,1.48-1.88,1.45-.6,1.88-2,2.2-3.34s1.23-2.48,1.66-3.79a.28.28,0,0,1,.16-.19c.56-.2.56-.64.54-1.13a1.46,1.46,0,0,1,.77-1.58l0-.06c-.09-.28-.35-.65-.25-.81.35-.57.75-1.09.49-1.81a1.8,1.8,0,0,0,.5-1.91c0-.18.11-.31.22-.44s.29-.19.14-.41c-.32-.48.23-.77.26-1.11s-.16-.8-.09-1.22c0-.07.07-.19.12-.2.48-.13.32-.36.17-.67-.3-.63.16-1.28,0-1.94-.08-.31.32-.48.52-.69s.18-.26,0-.41c-.75-.63.12-1.24,0-1.87,0,0,.21-.08.32-.14.42-.22.54-.55.2-.73-.73-.38-.4-.85-.22-1.3.31-.8.36-.8,1.32-.58a1,1,0,0,0,.24,0,1.17,1.17,0,0,0,0-.2c-.08-.1-.18-.18-.26-.29s-.2-.73-.51-.58c-.81.41-.58-.56-1-.66-.14,0-.05-.23,0-.31.57-.47.39-1.14.29-1.68-.13-.75-.64-1.44-.26-2.26-.45-.45-.06-.88.06-1.29a1.72,1.72,0,0,0,0-1.36.74.74,0,0,1,0-.26c.13-1.11-.42-2.17-.26-3.28a1.28,1.28,0,0,0-.18-.73c-.16-.31-.2-.87,0-1,.6-.35.2-.75.22-1.15a2.33,2.33,0,0,0-.53-1.63.52.52,0,0,1,0-.68,5.69,5.69,0,0,0,.39-1c.09-.23.47-.33.38-.63s-.43-.16-.66-.2-.3-.12-.28-.21c.12-.58-.92-.9-.34-1.58,0,0-.08-.22-.13-.33-.2-.55-.37-1.12-.61-1.65a16.05,16.05,0,0,0-1.11-2.09,2.69,2.69,0,0,1-.46-1c-.11-.51-.13-1.22-.69-1.42-.78-.28-1.11-1-1.66-1.46s-.51-.48-.86-1.37c-.06-.16-.14-.39-.26-.42-.63-.18-.68-.84-1.06-1.22-.17-.17,0-.51-.26-.69-.63-.47-1-1.19-1.79-1.54a7,7,0,0,1-2-1.77,8.4,8.4,0,0,0-2.22-1.8,13.13,13.13,0,0,0-3.35-1,3.59,3.59,0,0,1-2.39-1,.74.74,0,0,0-.68-.27A2,2,0,0,1,55,8.67c-.44-.4-1.13.05-1.56-.43,0,0-.1,0-.11,0a.68.68,0,0,0-.91-.46c-.54.15-.5-.55-.92-.53a14.63,14.63,0,0,0-2.3.07c-1.22.25-2.41.66-3.61,1-.19.06-.37.29-.58.12-.44-.37-.82-.08-1.17.11a8.7,8.7,0,0,1-2.45,1,6,6,0,0,1-2.38.3c-.37-.08-.66.18-.93.34-1.19.72-2.34,1.49-3.51,2.24a43.28,43.28,0,0,0-3.92,3.35.86.86,0,0,0-.35.51c-.14.84-.16.84-.79.9a.71.71,0,0,1-.2,0c.11.51-.58.6-.56,1s-.33.83-.69,1.14-.92.91-1.37,1.38.11.64,0,.76c-.55.43-.38,1-.44,1.56a2.38,2.38,0,0,1-.59,1.62c-.26.25-.05.36.08.51s.17.15.12.31a1.5,1.5,0,0,1-1.26,1.09c-.6.07-.61.08-.37.65.07.15.24.32.15.46-.43.68-.15,1.43-.21,2.14a2.87,2.87,0,0,1-.26.83c-.13.37-.62.3-.73.66s.46.56.47,1a4.63,4.63,0,0,1-.28,2c-.2.44-.4.85-.08,1.32.2.29,0,.47-.21.65a.39.39,0,0,0,0,.65c.21.2.4.43.61.65a1,1,0,0,0,.71-.08c.33-.17.45.13.5.34s-.17.31-.39.33a.86.86,0,0,1-.92-.48c-.18,0-.43,0-.41.16.05.59-.32.92-.63,1.33a1,1,0,0,0-.24,1.25c.21.4,0,1,.06,1.52A2.58,2.58,0,0,0,22.47,43a3.25,3.25,0,0,1,.11,1.64,5.9,5.9,0,0,0,0,1.68,3.88,3.88,0,0,1,0,1.66,2.6,2.6,0,0,1-.27.83c-.38.6.06,1.37-.4,1.95C22.33,51.79,22,52.87,22.07,53.92ZM65.46,24.36l-.1-.07.07-.08.07.08Zm1.29,29.32s-.13.09-.19.08-.12-.08-.18-.12.11-.1.18-.11S66.78,53.54,66.75,53.68ZM71.23,66c-.3.11-.43.09-.57-.22-.21-.47-.3-1-.93-1.22a1.6,1.6,0,0,0-.92,0c-.29.06-.49-.08-.37-.44a6.93,6.93,0,0,0,.46-1.42c0-.47.09-.46.55-.47,1-.09,1.16.54,1,1.42-.1.39-.29.56.27.67s.72.46.86,1S71.65,65.88,71.23,66Zm-2.53-8.8.08-.07.07.08,0,.07Zm3.79-23c.34-.54.77-.55,1.16,0,.15.19.21.4,0,.56a1.13,1.13,0,0,0-.38,1c0,.26,0,.52-.36.54a.63.63,0,0,1-.67-.48,1.77,1.77,0,0,1,0-.56A1.32,1.32,0,0,1,72.49,34.22Zm-.27,32.44c.11,0,.23,0,.19.15s-.13.08-.19.08-.12-.08-.18-.12A.58.58,0,0,1,72.22,66.66Zm-4-37.78h.08c.06.05,0,.1,0,.14s0,0-.06-.07S68.21,28.9,68.22,28.88Zm0,23.92c.18-.11.32,0,.45.1a.47.47,0,0,1,.2.43s-.13.12-.16.1a2.26,2.26,0,0,1-.55-.3A.21.21,0,0,1,68.24,52.8ZM68,55.34c.31-.12.57-.38,1-.31.14,0,.36.08.4-.18-.09-.05-.21-.13-.13-.22s.17,0,.22.12c.36.37.23,1.22,1.08,1.1l.73,1,.25.25c.15.15.35.27.41.45s-.11.29-.2.43c-.18.31-.33,0-.5,0s-.44-.08-.44-.13c0-.22.18-.34.38-.41s.25,0,.26-.21l-.26-.26c-.25.07-.49.4-.78.05A1.09,1.09,0,0,0,69,56.73c-.34.16-.53,0-.81-.07s-.59,0-.6-.47S67.66,55.48,68,55.34Zm-2.1-29.1a1.09,1.09,0,0,1,1.32-.46c.05,0,.07.13.13.26-.36.35-.19.84-.28,1.29,0,.15-.17.15-.27.05s-.36-.37-.57-.52S65.62,26.66,65.92,26.24ZM65.77,45c.29.11.63.17.79.49a.18.18,0,0,1-.18.25c-.39,0-.56-.32-.75-.59C65.62,45.17,65.72,45.08,65.77,45ZM65,16.52c0-.18.08-.33.3-.3s.23.29.23.44-.18.33-.35.28S65,16.69,65,16.52Zm-2,59.63a2.52,2.52,0,0,1-.29-.12s0-.06.08-.08.21-.09.29.06S63.08,76.15,63.07,76.15ZM63.33,43h.08c.06.05,0,.1,0,.14a.18.18,0,0,1-.06-.08S63.32,43.06,63.33,43Zm-.88,1.16c0-.41.22-.46.56-.48a1.68,1.68,0,0,1,.7.25c.21.07.44.16.47.37s-.3.19-.43.34-.52.44-.51.83a.24.24,0,0,1-.32.27,1,1,0,0,1-.36-.29C62.9,45,62.36,44.63,62.45,44.19Zm-26.19,26c-.2,0-.3-.08-.28-.28a.2.2,0,0,1,.25-.19c.14,0,.22.08.22.22S36.4,70.2,36.26,70.22Zm2.27,4.69c0-.11,0-.27.19-.2a.41.41,0,0,1,.3.47c0,.12-.08.24-.12.23C38.5,75.32,38.52,75.11,38.53,74.91Zm.08-49.28s.07-.11.11-.16.33,0,.31.25a.22.22,0,1,1-.42-.09ZM39,79.44l-.1-.08.07-.07.07.08ZM40.2,79s-.05,0-.06-.07,0,0,0-.07.06,0,.07,0S40.29,78.92,40.2,79Zm.29-1a.53.53,0,0,1-.26.25,1.55,1.55,0,0,1-.4.08c-.17,0-.31,0-.33,0-.21-.53-.74.37-.87-.17-.05-.23.78-.65,1.14-.6a1.16,1.16,0,0,1,.44.2C40.32,77.72,40.61,77.64,40.49,77.92ZM42.3,73c-.14,0-.18-.09-.15-.2s.08-.12.12-.18l.12.19C42.36,72.86,42.34,73,42.3,73Zm1,1.3-.11-.07.08-.07.07.07Zm.61,1.58c0,.19-.11.3-.31.27a.21.21,0,0,1-.2-.25.58.58,0,0,1,.37-.44C44,75.55,44,75.71,43.94,75.87Zm.68-.55-.11-.07.08-.08.06.08ZM39.74,34.24c.19-.16.47,0,.71.13s.43-.4.31-.56a.87.87,0,0,0-.5-.38c-.13,0-.23-.24-.15-.29.76-.48.18-1.11.13-1.62-.1-.84,0-1.09.9-1.3.39-.09.52-.28.38-.56s-.62-.46-.35-.72.19-.93.62-1.23a2.39,2.39,0,0,0,1.1-2.09.38.38,0,0,1,.36-.43c.53-.08,1-.3,1-.91a11.56,11.56,0,0,1,2-1.31c.22-.08.45-.17.61,0,.53.43.79,0,1-.33a3.37,3.37,0,0,1,.59-.81c.1-.07.28-.19.32-.16.43.31.84.49,1.24,0,.53.12,1.06.23,1.58.36a6.66,6.66,0,0,1,1.44.41c.72.37,1.58.61,1.75,1.65a1.36,1.36,0,0,0,.87,1c1,.43,1.44,1.49,2.06,2.32a.52.52,0,0,1,.06.48c-.48.7-.06,1.21.38,1.68a.72.72,0,0,1,.21.85,3,3,0,0,0,.32,2.21c.31.58.32,1.22.62,1.78a.59.59,0,0,1,0,.5c-.48.74-.06,1.5-.05,2.24,0,.35,0,.46-.35.49s-.33.06-.34.29,0,.37.19.41c.67.17,1,.45.44,1.1-.14.15,0,.22.08.3a1.66,1.66,0,0,1,.15,1.79,3.34,3.34,0,0,0-.15,1.67,3.55,3.55,0,0,1,.06,2.19c-.07.16,0,.41.06.62.07.54.31,1,0,1.63a.9.9,0,0,0,.13,1.08c.38.33.31.61.09,1-.39.65-.79,1.32-.29,2.12.09.16,0,.43,0,.64.06.59-.49,1-.51,1.54s.08,1-.4,1.42c-.27.23,0,.51.2.6a.67.67,0,0,1,.37,1c-.13.27-.1.59-.27.83a2.48,2.48,0,0,0-.41,1.82c.07.58-.35,1.05-.3,1.61s-.66,0-.61.52c0,.24.14.62-.08.72-.63.28-.13.61,0,.8.21.4.3.72-.12,1s-.13,1-.67,1.17-.54.8-.78,1.21-1,.87-.84,1.64c0,0-.22.1-.31.19a5.66,5.66,0,0,0-.83.79c-.38.5-.57,1.21-1.46,1-.16,0-.32.23-.41.44-.55,1.17-1,1.41-2.44,1.34a.6.6,0,0,0-.34.08.83.83,0,0,1-1.06-.08c-.32-.22-.53-.07-.86.09a1.89,1.89,0,0,1-1.93-.11,3.87,3.87,0,0,1-1.58-1.6c-.3-.69-1.06-1-1.3-1.77-.1-.29-.26-.58-.35-.91a2.14,2.14,0,0,0-.56-1.2c-.28-.25-.28-.83-.4-1.26a.13.13,0,0,1,0-.12c.91-.52.11-.89-.21-1a1.22,1.22,0,0,1-.73-1.08c-.12-.72-.65-1.36-.3-2.19.13-.3-.1-.8-.26-1.17a.48.48,0,0,1,.12-.67.85.85,0,0,0,.06-1.17,2.48,2.48,0,0,1-.21-2.2,3.34,3.34,0,0,0-.09-2.21c-.4-1-.41-2.13-.72-3.17a.48.48,0,0,1,.05-.35,1.43,1.43,0,0,0,0-1.35c-.08-.16-.16-.36,0-.45.47-.29.19-.65.15-1a2.79,2.79,0,0,1,0-1.57,2.72,2.72,0,0,0,0-1.27A5.9,5.9,0,0,1,39.28,42c.06-.15.22-.36.17-.44-.5-.72.46-1.43,0-2.19s0-1.24.35-1.74.79-.94.18-1.59a.9.9,0,0,1,0-1.08C40.11,34.64,39.4,34.55,39.74,34.24ZM38.47,20.59c.19-.05.31.09.43.2s.06.75.55.9c.12,0-.07.16-.17.17-.75.09-1-.16-1-.82C38.27,20.82,38.27,20.65,38.47,20.59Zm-.36,5.46s.06,0,.08,0,0,.1,0,.14,0,0-.06-.07S38.1,26.07,38.11,26.05Zm-.06,47.83c0,.18-.08.48-.17.38s-.45-.34-.55-.56.19-.36.42-.35C38.15,73.38,38,73.72,38.05,73.88ZM35.47,20c.13-.3.34,0,.5.07.41.13.66.7,1.22.47a.53.53,0,0,1,0-.12c.1-.28-.19-.71.3-.83a.26.26,0,0,1,.2.11.7.7,0,0,1-.31.87l-.11.07A4.09,4.09,0,0,1,37,21a1.2,1.2,0,0,1-1.71-.22C35,20.43,35.37,20.22,35.47,20Zm.37,28.17.06.08,0,.07-.11-.08Zm-.08-16.66.08-.07.06.08,0,.07Zm0,23.4s.13-.08.19-.07.12.07.18.12a.58.58,0,0,1-.18.11C35.88,55.07,35.76,55,35.8,54.89Zm-.23-22.78s-.06,0-.07-.07,0-.05,0-.07h.07C35.67,32,35.66,32.07,35.57,32.11Zm-.7,30.57c0,.06-.13.22-.23.25-.32.11-.39-.16-.46-.38s0-.22.18-.27A.47.47,0,0,1,34.87,62.68Zm-.66-17,.08-.08c.11,0,.22-.08.3.05s-.07.15-.09.15A2.52,2.52,0,0,1,34.21,45.66Zm.38-1.27c0,.14-.33.24-.52.29s-.18-.11-.18-.23,0-.41.23-.46S34.64,44.22,34.59,44.39ZM34.05,16s.06.13.09.19c0,.23-.15.25-.31.25s-.12-.11-.11-.15A.4.4,0,0,1,34.05,16ZM32.64,62.94c.09-.17.27-.18.45-.16a.26.26,0,0,1,.28.33.73.73,0,0,1-.18.32c-.13.17.13.6-.29.52-.26-.05-.33-.36-.29-.86C32.6,63.19,32.59,63,32.64,62.94Zm-.31,3.79a1.61,1.61,0,0,0,0-.38c0-1.14.19-1.27,1.24-.77a2.35,2.35,0,0,1,1.07.66,1,1,0,0,0,1.05.23c.18-.11.29-.3.52-.35a1,1,0,0,1,1.2.85c0,.18-.1.2-.22.19a1.54,1.54,0,0,0-1.38.48.26.26,0,0,1-.23,0c-.14-.48-.43-.31-.75-.22s-.67-.06-1,.16a.86.86,0,0,1-.86,0C32.63,67.47,32.21,67.29,32.33,66.73Zm0,5.29c.39-.19.76-.43,1.15,0a3.81,3.81,0,0,0,.46.44c.17.13.31.07.41-.11s-.06-.57.22-.44.81,0,1.06.31a.52.52,0,0,1,0,.47.79.79,0,0,1-.42.26,2.3,2.3,0,0,0-1.28.75.42.42,0,0,1-.38.18,1.2,1.2,0,0,1-1.2-1.12C32.37,72.52,31.85,72.26,32.36,72Zm-1.67-9.2.07.08,0,.07-.11-.08ZM29,58.25c.16.1.33.18.58.32a2,2,0,0,1-.45.1c-.17,0-.35,0-.34-.27S28.78,58.13,29,58.25Zm-1.42,4.33a.93.93,0,0,1,.64-.72c.3-.12.43-.53.78-.62a1.27,1.27,0,0,1,.77.42,2.46,2.46,0,0,1,.27.83c0,.2-.12.29-.31.3s-.36,0-.4.23,0,.51-.39.55-.4-.23-.54-.43a.24.24,0,0,0-.11-.06C28,63,27.5,63.07,27.56,62.58Zm-.47,4.87c.37-.17.78-.28,1.16-.46.17-.08.23,0,.32.09a3.62,3.62,0,0,0,2.14.93c.12,0,.52,0,.54.36-.22.42-.38,1-.86,1s-.47.09-.56.3-.2.33-.42.11-.37-.36-.53-.55-.23-.74-.71-.34a4.31,4.31,0,0,1-1.21-1A.32.32,0,0,1,27.09,67.45Zm-.44-4.64a.22.22,0,0,1,.28.16.46.46,0,0,1-.28.49c-.19.1-.2-.07-.21-.17S26.37,62.87,26.65,62.81ZM24.77,39.66l.07.08,0,.07-.11-.08Zm0,.77.07.08,0,.07-.11-.08Z"/></svg>