<svg id="Layer_1" data-name="Layer 1" xmlns="http://www.w3.org/2000/svg" viewBox="0 0 83.46 90.48"><path d="M34,85.48a1,1,0,0,0,1.06.31,3.79,3.79,0,0,1,2.12.22,2,2,0,0,0,1,.27,7.19,7.19,0,0,1,2.62.33,9,9,0,0,1,2.61.41,1.19,1.19,0,0,0,1.47-.23.76.76,0,0,1,.42-.24,5.12,5.12,0,0,0,1.36-.26c.39-.08.56-.83,1.11-.36.36-.64,1.13-.22,1.57-.61s1-.23,1.5-.54a.39.39,0,0,1,.63.35c0,.33.11.31.35.13.46-.35.62-.91,1-1.29.16-.15.42-.39.53-.2.26.47.4.29.69,0,.82-.76,1.53-1.75,2.85-1.67.07,0,.15-.08.21-.13.67-.65,1.49-1.12,2.12-1.83.35-.4.59-.77.34-1.25s.06-.57.24-.56c.83,0,1-.5,1.19-1.16A3.41,3.41,0,0,1,62.43,75c.12-.07.24-.13.22-.27-.07-.51.41-.67.58-1,.34-.62,1-1,1.25-1.6a2,2,0,0,1,.9-1c.42-.23.78-.49.65-1.08a.63.63,0,0,1,.44-.7c.24-.09.41-.25.3-.46a1,1,0,0,1,.29-1.22.86.86,0,0,0,.24-.83,1.88,1.88,0,0,1,.31-1.33,2.67,2.67,0,0,0,.33-1.32,9.28,9.28,0,0,1,.77-2.48c.18-.55,0-1.1.24-1.61a4.15,4.15,0,0,0,.42-2.22,1.13,1.13,0,0,1,.1-.62c.34-.69,0-1.51.36-2.2-.4-.36,0-.81-.1-1.15a1.72,1.72,0,0,1,.13-1.34,1.53,1.53,0,0,0,0-.64c-.11-.81.39-1.56.28-2.38,0-.13.18-.28.24-.43.39-1,.81-1.94.25-3a3.89,3.89,0,0,1-.16-1.86,1.66,1.66,0,0,1,.21-1c.34-.49-.32-.45-.3-.76,0-.6-.17-1.29.06-1.78s0-1.09-.12-1.56c-.17-.77-.86-1.43-.49-2.33-.4-.25-.58-.55-.25-1A13,13,0,0,1,69,32.64a15.43,15.43,0,0,1-.44-2.72.67.67,0,0,0-.2-.58c-.15-.14-.35-.31-.3-.53.21-.87-.55-1.72,0-2.57a1.08,1.08,0,0,0-.16-.74,8.86,8.86,0,0,1-1.83-3.14c-.06-.21-.27-.31-.38-.45a5,5,0,0,1-.91-1.29c-.2-.58-.69-.85-1-1.3,0,0-.06-.07-.06-.11,0-.93-1.11-1.07-1.27-1.87-.8-.36-1.25-1.12-1.93-1.64s-1-1.35-2-1.35c0,0-.07,0-.09-.08-.37-.85-1.27-1.07-1.91-1.59-.41-.33-.85-1-1.61-.52-.17.11-.4,0-.58-.18-.62-.47-1.26-.9-1.87-1.38a1,1,0,0,0-.71-.22,4.63,4.63,0,0,1-1.93-.49C48.6,9.45,47.47,8.61,46,8.78c-.36.05-.76,0-1.17,0a2.28,2.28,0,0,1-1.27,0,4,4,0,0,0-3.09.11,4,4,0,0,1-1.62.18,7,7,0,0,0-2.39.25C35,9.8,33.55,10.57,32,11.1s-2.89,1.13-4.36,1.62a2.44,2.44,0,0,0-.87.5,13.61,13.61,0,0,1-3.12,2.37c-.25.12-.33.37-.43.61a9.17,9.17,0,0,1-1.81,2.58,11.11,11.11,0,0,0-2,3.31c-.07.15-.21.28-.18.46a2.42,2.42,0,0,1-.8,2.21c-.25.26-.28.4-.05.58.43.33.22.64.06,1s-.59.52-.53,1a2.58,2.58,0,0,1-.18,1c-.07.28-.37.55-.15.93s-.39.55-.38.84c0,.81-.71,1.34-.68,2.12,0,.12-.12.33-.1.34.69.4.35.77,0,1.15,0,0,0,.17,0,.24.47.8.11,1.25-.62,1.6a.54.54,0,0,0-.36.57,6.57,6.57,0,0,1-.24,1.81,5.7,5.7,0,0,1-.31,1.88,1,1,0,0,0-.05.87c.67,1.17-.24,2.39.18,3.55-.52,1.26,0,2.56-.18,3.83.42.68.41,1.27-.38,1.68a5.7,5.7,0,0,0-.33,2.73,7.66,7.66,0,0,1,.19,2.26,3,3,0,0,0,.28,2.11,1,1,0,0,1,.12,1.08,1.74,1.74,0,0,0,.35,2c.12.17.35.34.19.55s0,.53,0,.8A14.16,14.16,0,0,0,15.65,63,5.27,5.27,0,0,0,17,66.13a.88.88,0,0,1,.21.58c.09.58,0,1.32.37,1.68.49.52.32,1.19.74,1.72a6.62,6.62,0,0,1,.65,1.74,2.87,2.87,0,0,0,1.66,2,1.12,1.12,0,0,1,.73.65c.18.42.52.77.71,1.19s.4.92,1.08.84c.22,0,.55.26.44.51s0,.63.1,1a2.16,2.16,0,0,0,.57.91c1.47,1.24,3.13,2.22,4.67,3.37a18.74,18.74,0,0,1,1.8,1.39,1.82,1.82,0,0,0,1,.53A4.47,4.47,0,0,1,34,85.48Zm29.9-31.33.06.08,0,.07-.11-.07Zm-.37.89c0-.11.11-.13.19-.06s.49.11.61.38c.09,0,.21.12.12.21s-.17,0-.22-.12a4.17,4.17,0,0,1-.6-.1C63.45,55.31,63.46,55.15,63.49,55Zm-.66-20.19.07.08,0,.07-.11-.08Zm0,20.36s.06.12.09.19-.16.25-.32.24-.12-.1-.11-.14A.41.41,0,0,1,62.85,55.21Zm-2.05,14-.11-.08.08-.07.07.08Zm.7-20c.11-.16.2-.35.31-.51s.16,0,.23,0,.13.11.05.18-.2.36-.32.53-.16,0-.23,0S61.44,49.35,61.5,49.25Zm-1.38-1.56c0-.14.09-.25.23-.24a1,1,0,0,1,.75.39.63.63,0,0,1,0,.72,1.05,1.05,0,0,1-.76.39c-.13,0-.21-.11-.22-.25s0-.34,0-.5h0Zm-.18,4.38a.2.2,0,0,1,.1.15.42.42,0,0,1-.33.3.88.88,0,0,1-.09-.2C59.61,52.09,59.77,52.07,59.94,52.07ZM58.59,41.71a.2.2,0,0,1,.26-.18c.07,0,.18.06.2.11s.05.32.08.5-.07.3-.14.31-.3-.11-.35-.26A1.11,1.11,0,0,1,58.59,41.71Zm0,26a.63.63,0,0,1,.73.53c0,.07-.1.2-.11.19s-.23-.12-.35-.16-.55.06-.53-.35C58.35,67.83,58.46,67.75,58.61,67.75ZM57.28,50.39c.44-.2.2.36.43.41.12.2-.07.22-.17.23s-.43,0-.49-.23A.36.36,0,0,1,57.28,50.39ZM54.69,66.62c-.27.15-.36-.12-.44-.27a.44.44,0,0,1,0-.57.25.25,0,0,1,.33,0c.17.12.33.25.34.39A.52.52,0,0,1,54.69,66.62Zm1.07-.16a.42.42,0,0,1-.45-.35c0-.23.32-.19.47-.31s.21.06.22.16S56.06,66.39,55.76,66.46Zm-.55-41.59a2.62,2.62,0,0,0,.93.31c.2,0,.37-.1.51.1s-.14.33-.2.5c-.2.5-.72.82-.74,1.42,0,.17-.27.16-.43.2a.34.34,0,0,1-.41.19s-.09-.07-.08-.09c.05-.2.25-.15.39-.21a4.13,4.13,0,0,1,0-.5c.05-.41-1,.12-.53-.61.22-.34.08-.68.1-1A.32.32,0,0,1,55.21,24.87ZM54,21.93c.25,0,.52-.06.73.15s.26.23.21.43-.23.21-.4.22H54c-.31,0-.29-.13-.2-.4S53.64,22,54,21.93ZM53,68.57c.11-.58.09-.58.67-.57a1.83,1.83,0,0,1,.28,0,.27.27,0,0,1,.26.22.31.31,0,0,1-.15.33,5.14,5.14,0,0,1-.64.38c-.11,0-.27.1-.35,0S53,68.75,53,68.57Zm-.23-53h.07c.06.05,0,.11,0,.14s-.05,0-.07-.07S52.74,15.6,52.75,15.58Zm-35.45,32a.36.36,0,0,1-.34-.27s.06-.16.09-.16.32,0,.33.23S17.33,47.61,17.3,47.61Zm.53-5.94c0,.06-.1,0-.14,0a.19.19,0,0,1,.08-.07s.05,0,.07,0S17.85,41.66,17.83,41.67Zm.5.8-.11-.08.08-.07.07.07Zm.47-10s-.05,0-.06-.07,0-.05,0-.07,0,0,.07,0S18.89,32.42,18.8,32.45ZM34.31,78.22c-.05.06-.1,0-.14,0s0,0,.07-.06a.13.13,0,0,1,.07,0S34.32,78.2,34.31,78.22Zm.23,1s-.14-.07-.14-.09.07-.19.11-.29a.73.73,0,0,1,.09.08C34.64,79.06,34.69,79.17,34.54,79.25Zm-.1-1.86.08-.07.06.08,0,.07Zm0-.45c-.1-.09,0-.17.12-.22s.13-.22.22-.13,0,.18-.12.22S34.56,77,34.47,76.94Zm.38,1.68c-.09-.05-.22-.14-.13-.23s.18,0,.23.13.21.13.12.22S34.9,78.7,34.85,78.62Zm.61.51-.26.26c-.05.09-.13.21-.22.12s0-.16.13-.22l.25-.26c0-.14,0-.37.18-.39a.32.32,0,0,1,.32.31c0,.18-.26.14-.4.18l-.1-.1Zm-.22-1.25c.09-.09.17,0,.22.12s.21.13.13.22-.17,0-.22-.12S35.15,78,35.24,77.88Zm.51,1.55c.1-.1.17,0,.22.12s.22.13.13.22-.17,0-.22-.13S35.66,79.51,35.75,79.43ZM36,78.14c.09-.09.17,0,.22.12s.22.13.13.22-.17,0-.22-.12S35.92,78.23,36,78.14Zm.31-.59c-.1.11-.21.28-.4.13a3.89,3.89,0,0,0-.39-.32c-.17-.12-.56,0-.53-.18,0-.31.4-.1.55-.18s.49,0,.65.15S36.48,77.37,36.32,77.55Zm-.08-.93.08-.07.07.08,0,.07Zm-1,3.71c-.07,0-.12-.11-.17-.17s-.22-.13-.13-.22.17,0,.22.12l.12,0c.12,0,.29,0,.27.18S35.39,80.39,35.28,80.33Zm.95,1.37c-.11.22-.23.22-.35,0-.09,0-.21-.13-.13-.22s.17,0,.22.12a.15.15,0,0,0,.16,0c.06-.09.15-.21.23-.12S36.33,81.66,36.23,81.7Zm.17-.77c-.16,0-.25.25-.41.1a.2.2,0,0,1,0-.31c.2-.17.36-.09.48.12.09,0,.21.12.13.21S36.45,81,36.4,80.93Zm.11-.91.08-.11.07.08-.08.07Zm.36,2.32c-.09.1-.16,0-.22-.12s-.21-.13-.13-.22.18,0,.23.12S37,82.25,36.87,82.34Zm.25-1L37,81.25l.08-.07.07.08Zm0-1.82c-.09.09-.17,0-.22-.12l-.08,0-.08,0c-.13.21-.25.2-.36,0-.09,0-.21-.13-.12-.22s.16,0,.22.12a.22.22,0,0,0,.16,0c.12-.21.23-.21.35,0C37.1,79.34,37.22,79.42,37.13,79.51Zm-.61-4.46c.09-.09.18,0,.23.12s.21.13.12.22-.16,0-.22-.12S36.44,75.14,36.52,75.05Zm.66,3.13c0,.07-.11.12-.17.18a.29.29,0,0,0,0,.16c.1,0,.22.13.13.22s-.17,0-.22-.12c-.21-.12-.22-.24,0-.36a.5.5,0,0,1,0-.12c0-.11,0-.29.17-.27S37.23,78.07,37.18,78.18Zm.22,4.16c0,.06-.11,0-.14,0s0-.05.07-.06.05,0,.07,0S37.41,82.32,37.4,82.34Zm.49-2.3-.1-.08.07-.07.07.08Zm-.26-1s-.09-.06-.09-.08c.06-.21.25-.16.4-.2s.13-.22.22-.13,0,.17-.13.22A.32.32,0,0,1,37.63,79.06Zm.66,2.9c0,.09-.13.21-.22.13s0-.17.12-.22.14-.22.23-.13S38.38,81.91,38.29,82Zm.89-1.4-.11-.08.08-.07.07.08Zm6.39-2.81s0,0-.06-.07,0-.05,0-.07.06,0,.08,0S45.66,77.71,45.57,77.75Zm4.9-62.42c.17,0,.13.25.19.39.35.08.41-.13.45-.41s.27-.38.52-.19.35.36.62.41a.18.18,0,0,1,.09.08c.16.49-.32.62-.53.89s-.44.47-.72.15a5.62,5.62,0,0,1-.54-.83c-.15,0-.38,0-.39-.18S50.36,15.32,50.47,15.33Zm.08,3.26c.12,0,.27,0,.22.18a.44.44,0,0,1-.46.33c-.13,0-.23-.08-.24,0C50.12,18.57,50.35,18.6,50.55,18.59Zm-17.6-2c.1-.19.26-.31.5-.12a.4.4,0,0,0,.35.06c.46-.23.69-.15.63.41a3.53,3.53,0,0,1-.13.6.42.42,0,0,1-.28.24c-.13,0-.17-.13-.16-.26,0-.48-.45-.42-.66-.64S32.8,16.84,33,16.56Zm-1.41,9.28-.12.17a.71.71,0,0,1-.12-.18c0-.13,0-.21.17-.18S31.52,25.77,31.54,25.84Zm-.37-5.14c.11-.05.21-.08.3.05s-.07.15-.09.15-.2-.08-.3-.12Zm-.51,1.8.06.08,0,.07-.11-.08ZM29.21,36.84a.23.23,0,0,1-.19.28c-.47.07-.85-.24-1.27-.37,0,0-.05-.14-.05-.22s.07-.1.08-.09c.41.26.89.08,1.31.21C29.15,36.67,29.17,36.78,29.21,36.84Zm0,11.45-.73-.72c-.11-.12-.28-.23-.12-.42a.6.6,0,0,1,.55-.25,2,2,0,0,1,.86,1.15,3,3,0,0,1-.24.28C29.38,48.46,29.27,48.38,29.18,48.29Zm-.11,12.16s-.09-.12-.08-.19.08-.12.12-.17.1.11.11.17S29.21,60.49,29.07,60.45ZM27.6,55.82a2.73,2.73,0,0,1-.9-.3s0-.18,0-.23.3-.12.45-.18c.58-.24.61-.34.24-.89-.15-.21-.35-.43,0-.6s.46-.39.76,0,.42.52.36.86S27.88,55.84,27.6,55.82Zm-.05,7.52a.32.32,0,0,1-.06-.08l0-.07h.07C27.66,63.25,27.64,63.3,27.55,63.34Zm-1.36-20c-.28,0-.57,0-.37.41-.43.24-.55-.16-.75-.37l-.08,0-.08,0a.34.34,0,0,1-.42.17.17.17,0,0,1-.08-.09c.07-.19.26-.15.4-.19l.26-.26c.19-.23.33-.67.71-.21.24.29.61-.06.83.21.05-.09.13-.21.22-.13s0,.17-.12.22C26.6,43.32,26.4,43.33,26.19,43.32Zm.47,1.82-.13.17a.45.45,0,0,1-.11-.17c0-.12,0-.23.15-.19S26.63,45.07,26.66,45.14Zm-.58,2.3c.17,0,.31,0,.32.25l-.11.2c-.11-.1-.23-.2-.33-.31S26,47.44,26.08,47.44Zm-.15-2.21a.18.18,0,0,1,.08-.06s0,0,.07,0a.19.19,0,0,1,0,.08C26,45.34,26,45.32,25.93,45.23Zm-1.3,4.53-.06,0c-.18.11-.3.31-.54.3s-.59.1-.67-.18.24-.34.47-.38c.06,0,.15-.11.14-.13a.7.7,0,0,0-.15-.2c-.3-.28-.77,0-1.06-.3-.05-.06-.14-.13-.14-.2s.14-.14.24-.19c.28-.13.52.41.79,0s.74-.48.65-1L24,47.21c-.09,0-.21-.12-.13-.21s.17,0,.22.12l.26.25a1.59,1.59,0,0,0,.21.15c.41.24,0,.62.15.85s.5.41.77.6c0,0,.07.1.06.11-.38.42,0,1-.33,1.44-.07.09-.22.19-.29.17s-.13-.24-.06-.32C25.31,49.93,24.47,50.07,24.63,49.76Zm-2.24-2.33c-.1-.24.05-.28.22-.24s.21.22.2.38,0,.35-.24.35C22,47.93,22.65,47.53,22.39,47.43Zm-.15-4.59a.32.32,0,0,1-.19-.41s.06-.09.08-.08c.21.06.16.25.2.39s.22.13.13.22S22.29,42.93,22.24,42.84Zm1.64-13,.25.25h.68a.39.39,0,0,1,.06-.11l.39-.31a1.24,1.24,0,0,1,.1.2c0,.32-.28.25-.45.33l-.1-.11.1.11-.51.5h0a.15.15,0,0,0,0,.16l.41.24c.24-.7.38-.78.87-.5l.13,0c.11,0,.28,0,.26.17s-.2.13-.31.08-.12-.12-.17-.18c-.27.12-.25.62-.68.52-.44.31-.44.31-.61-.26-.22-.12-.22-.23,0-.35L24,30.22,23.78,30a.6.6,0,0,1-.11-.06c-.19-.21-.61-.41-.52-.64s.53-.12.81-.13a1,1,0,0,1,.34.13l-.22.3-.2.31-.1.09Zm3.19.5a.22.22,0,0,1-.32,0c-.17-.2-.08-.36.12-.49s.13-.21.22-.12,0,.17-.12.22S27.22,30.21,27.07,30.38Zm-.23.48c0,.06-.1.05-.14,0a.19.19,0,0,1,.08-.07s0,0,.07,0S26.86,30.85,26.84,30.86Zm-.09.43c.06,0,.16.07.16.1a1.8,1.8,0,0,1-.05.46c0,.12-.1.11-.15,0A.47.47,0,0,1,26.75,31.29Zm.08,2.32c.1.09,0,.17-.12.22s-.13.22-.22.13,0-.18.12-.23S26.74,33.52,26.83,33.61Zm0,.9s-.05,0-.06-.07,0,0,0-.07h.08C26.89,34.42,26.87,34.47,26.78,34.51Zm-.17.28a4.36,4.36,0,0,0,.51,0l0-.12c0-.11,0-.29.17-.26s.13.19.08.31-.12.11-.18.17a.39.39,0,0,0,.15.43c.13.1.58-.21.39.3-.34-.17-.22.81-.72.28-.11-.12-.24-.32-.41-.23-.35.17-.53.18-.51-.29S26.2,34.77,26.61,34.79Zm.7-4.05s.07.05.08.08.09.22-.05.3-.15-.07-.14-.09A1.72,1.72,0,0,1,27.31,30.74Zm-.09-1.47s0-.05.07-.06.05,0,.07,0,0,.06,0,.08S27.26,29.36,27.22,29.27Zm.11,4.08c.08,0,.22.13.27.23s-.1.28-.22.38-.21-.1-.21-.22S27.12,33.38,27.33,33.35Zm.16-1,.08-.07.06.08,0,.07Zm-.65,3.92c0,.06-.1,0-.14-.05a.18.18,0,0,1,.08-.06s0,0,.07,0S26.86,36.25,26.84,36.27Zm-.65,1.84a.25.25,0,0,0,.17,0c0-.09.12-.21.21-.13s0,.17-.12.22c-.12.22-.23.23-.35,0L25.84,38l-.26-.26c-.09,0-.21-.13-.12-.22s.17,0,.22.13l-.1.09.1-.09.26.25h0Zm-1.53.16s.12-.09.19-.1.23.16.27.3-.12.14-.16.13A.42.42,0,0,1,24.66,38.27Zm.12,4.18c-.1.09-.17,0-.22-.12s-.22-.14-.13-.23.17,0,.22.13S24.86,42.36,24.78,42.45Zm.15-8.25.08-.1.07.07-.08.07Zm.1,7.58c.32,0,.53.21.79.34-.05.05-.08.14-.14.15A.59.59,0,0,1,25,42S25,41.78,25,41.78Zm.3-8.72c-.1-.05-.22-.13-.13-.22s.17,0,.22.12a.66.66,0,0,1,.17.16.25.25,0,0,1-.14.38.27.27,0,0,1-.22,0C25.08,33.3,25.36,33.21,25.33,33.06Zm.1,5.24a.13.13,0,0,1,0-.07h.07c.06.05.05.1,0,.14S25.44,38.33,25.43,38.3ZM25.65,34s.09-.09.13-.13a.5.5,0,0,1,.31.34.37.37,0,0,1-.19.09C25.68,34.3,25.63,34.14,25.65,34Zm.41-3.63c-.09.09-.17,0-.22-.12s-.21-.13-.13-.22.17,0,.22.12S26.15,30.26,26.06,30.35Zm-2,1c-.07,0-.13.1-.2.1-.32,0-.26-.27-.32-.45s-.21-.13-.12-.22.17,0,.22.12a.6.6,0,0,1,.11.06Zm-.59,10.7c.07,0,.11.12.17.18a.15.15,0,0,0,.16,0c0-.09.14-.21.23-.12s0,.18-.13.23c-.12.21-.24.21-.35,0l-.13,0c-.11,0-.29,0-.26-.17S23.33,42,23.45,42.05Zm-.31,5c.1-.1.17,0,.22.12s.14.09.17.16a.5.5,0,0,1,0,.56s-.13,0-.19,0c-.31-.17-.11-.39,0-.6C23.18,47.17,23.05,47.09,23.14,47Zm.23-3.81s0,0,0-.07h.07c.06.05.05.1,0,.14S23.38,43.22,23.37,43.19ZM23.3,46.4s0,.1,0,.11c-.2.08-.51,0-.58.33a.24.24,0,0,1-.17-.26c0-.3.11-.48.43-.45C23.13,46.14,23.3,46.16,23.3,46.4Zm1.92-.95s.12-.05.19-.08l.17.13c-.06,0-.11.1-.18.11S25.19,45.59,25.22,45.45Zm.12,12a.23.23,0,0,1,.29.24c0,.37-.08.55-.41.53-.17,0-.36,0-.34-.27A.51.51,0,0,1,25.34,57.48Zm2.53,5c0,.06-.1,0-.14-.05a.18.18,0,0,1,.08-.06s0,0,.07,0S27.89,62.5,27.87,62.52Zm.38.7c.08-.07.15,0,.19.05l.21.46c0,.15-.12.17-.24.18s-.41.05-.47.31c0,0-.1.07-.16.11s-.09-.14-.1-.22C27.62,63.66,28,63.46,28.25,63.22Zm-.19-1.7,0,0s0,0,0,0,0,0,0-.1,0-.2,0-.22c.2-.13.42-.25.63-.36l.11.2C28.65,61.42,28.29,61.39,28.06,61.52Zm.73-27.72s.12.11.11.15a.46.46,0,0,1-.33.3,1,1,0,0,1-.09-.21C28.46,33.82,28.63,33.79,28.79,33.8ZM27.06,18.15c0-.07.31-.08.46,0s.19.16.12.4c0,.06-.16.07-.23,0S26.93,18.47,27.06,18.15Zm.23,7.7.37.28c-.08.08-.12.17-.17.17s-.31,0-.3-.25A.75.75,0,0,1,27.29,25.85Zm-.07-.44.09-.08c.11,0,.21-.07.3.06s-.07.15-.09.14A1.25,1.25,0,0,1,27.22,25.41Zm0-5.42c.11.07.24.09.34.16s.06.11.08.17l-.25.1a1.07,1.07,0,0,1-.32-.1.25.25,0,0,1-.08-.21C27,20,27,19.9,27.17,20Zm-.89,2.76c.07,0,.11.12.17.18s.14-.06.2-.1.29-.18.42,0-.14.24-.11.4l.26.25c.23.1.23.32.26.52.09,0,.21.12.13.21s-.17,0-.22-.12c-.23-.1-.23-.32-.26-.51l-.26-.26c-.31.19-.51.17-.52-.25l-.12,0c-.11,0-.29,0-.26-.17S26.16,22.7,26.28,22.75Zm-2.15-.24c-.12-.55.71-.9.29-1.51,0-.07.22-.36.47-.33a.45.45,0,0,1,.42.39c0,.14-.12.3-.17.41.12.23.31.38-.05.52s-.25.29,0,.44a2.72,2.72,0,0,1,.42.27c.11.11,0,.29-.08.25a.66.66,0,0,0-.86.17c-.17.2-.4-.08-.54-.16C23.7,22.77,24.16,22.64,24.13,22.51Zm1.42,4.24c-.1.09-.17,0-.22-.12s-.22-.14-.13-.23.17,0,.22.13S25.64,26.66,25.55,26.75ZM23.78,26c0-.09.13-.21.22-.12s0,.17-.12.22-.13.21-.22.13S23.69,26.06,23.78,26Zm-.7-.82a.12.12,0,0,1,.08-.09c.21.06.16.26.2.4s.22.13.13.22-.17,0-.22-.12A.33.33,0,0,1,23.08,25.19Zm-.33,3.4c.07-.62.62-.61,1-.77.12-.22.24-.22.35,0a.47.47,0,0,1,.52.52c.22.12.21.23,0,.35a.15.15,0,0,0,0,.16l.25.26a.15.15,0,0,0,.16,0c0-.19,0-.4.26-.5.28-.35.47-.31.57.13,0,.13,0,.25.05.38.17,0,.18-.15.17-.27,0-.51.24-.37.51-.24a.65.65,0,0,0,.24,0l.1.09-.1-.09.26-.26c.05-.16-.3-.26-.08-.42s.88-.31.71-1c0-.11.27-.14.43-.12s.15.16.13.34c-.07.69-.7.87-1.1,1.26l-.25.25c-.07.17,0,.44-.29.44h0l0,0v0c-.41.61-.45.62-1.05.28l-.25-.26h-.17c-.12.22-.23.22-.35,0l-.26-.26c-.21-.11-.21-.23,0-.35a.13.13,0,0,0,0-.16l-.5-.51-.08,0-.08,0c-.12.25-.59.52,0,.73,0,0,.08.15.06.16a.36.36,0,0,1-.21.09.41.41,0,0,1-.48-.27c-.17-.38-.29.07-.44.05s-.13.22-.22.13S22.67,28.64,22.75,28.59Zm-.09.62s.05,0,.07,0,0,.06,0,.08-.11,0-.15-.05A.18.18,0,0,1,22.66,29.21Zm-.77,5.15s0,0,.07,0,0,.06,0,.08-.1,0-.14,0A.18.18,0,0,1,21.89,34.36ZM23,35.9a.38.38,0,0,1,0,.1c0,.23-.78.6-1,.46a5.9,5.9,0,0,1-.7-.5.29.29,0,0,1,0-.24C21.42,35.5,22.77,35.65,23,35.9Zm-1.32,4.53s-.06,0-.07-.07a.13.13,0,0,1,0-.07h.07C21.74,40.34,21.72,40.39,21.64,40.43ZM21.69,34a1.4,1.4,0,0,1-1,.59c-.05,0-.11-.11-.11-.16a.81.81,0,0,1,1-.6C21.63,33.8,21.66,33.89,21.69,34Zm-.89-2.86s0,0,0-.07.06,0,.08,0,0,.1-.05.14A.18.18,0,0,1,20.8,31.09Zm.51,0,.08-.07.07.08,0,.07ZM21.16,29c.09,0,.21.34.33.56-.11.1-.23.3-.35.3s-.36-.27-.34-.3C20.92,29.36,20.9,29,21.16,29Zm-1.42,2.34a3.58,3.58,0,0,1,.44-.43l.25-.26a2.15,2.15,0,0,1,.11-.36.22.22,0,0,1,.33-.06.24.24,0,0,1,0,.41,1,1,0,0,1-.36.1l-.25.26a.79.79,0,0,1-.25.56c-.07,0-.17.12-.21.1A.23.23,0,0,1,19.74,31.34Zm-.53,3c.05-.36-.25-.61-.28-.94,0-.16,0-.35.19-.4a.26.26,0,0,1,.34.25c0,.32-.06.66.26.89a2.27,2.27,0,0,1-.35.29S19.2,34.4,19.21,34.38Zm1,25.26c0,.12-.1.11-.19,0s-.31-.26-.28-.49c.05,0,.14-.12.16-.11a2.12,2.12,0,0,1,.33.34S20.21,59.57,20.19,59.64Zm.06-1.41c-.07,0-.18,0-.19-.09s.08-.18.2-.15a.94.94,0,0,1,.18.12Zm.61,3.31a.18.18,0,0,1-.06-.08s0,0,0-.07h.08C21,61.44,21,61.5,20.86,61.54Zm-.48-4.65c-.33.22-.52-.16-.71-.36a.49.49,0,0,1,.23-.86,8.66,8.66,0,0,1,1.14,0v0a1.19,1.19,0,0,0,.38,0c.31-.11.53-.22.79.18.11.18.64,0,.95.14a.48.48,0,0,1,.39.57c-.07.24-.39.55-.53.39s-.65.26-.78-.3-.39-.55-.58-.11C21.35,57.2,20.77,56.63,20.38,56.89ZM22,68.43c-.22.14-.3-.08-.38-.19s.07-.21.16-.23a.44.44,0,0,1,.47.14A1.67,1.67,0,0,1,22,68.43Zm.73-.25c-.05.06-.11,0-.15,0a.19.19,0,0,1,.08-.07s.05,0,.07,0S22.74,68.17,22.73,68.18Zm.76-1c-.1.09-.17,0-.22-.13-.35-.1-.63.23-1,.13-.11,0-.2,0-.23-.14a.22.22,0,0,1,.18-.27c.39,0,.83-.23,1.14.19C23.45,67,23.58,67.07,23.49,67.16ZM25,64.63a.18.18,0,0,1-.06-.08s0,0,0-.07.06,0,.08,0S25.07,64.59,25,64.63Zm0-1.32-.1-.08.07-.07.07.08Zm-.49-.4c-.25,0,.25.58-.25.44-.32-.09-.22-.43-.2-.67.06-.75.06-.82-.56-.8A12.19,12.19,0,0,1,22,61.55a.87.87,0,0,1-.68-1.22c.08-.26.2-.48.05-.72s0-.4.23-.31.59.34.91.44A1.26,1.26,0,0,0,24,59c.07-.18,0-.22-.11-.31a2.79,2.79,0,0,1-.68-.91.33.33,0,0,1,.12-.42.23.23,0,0,1,.4.11c0,.71.84.87,1,1.48.15.44.67.32,1,.46s.78.24.72.82c0,.18.12.38.19.58l.07.05h0c.65,0,.67,0,.56.57a.37.37,0,0,0,.14.41.59.59,0,0,1-.11.76.45.45,0,0,1-.53-.25c-.15-.25-.23-.56-.49-.72s0-.45-.31-.36c-.06,0,0,.31-.05.48,0,.4.41.52.54.83.24.09.21.35.32.51s.16.22,0,.3a.4.4,0,0,1-.24,0,2.06,2.06,0,0,1-.33-.17s0,.09-.06.11-.25.21-.38.31a.42.42,0,0,1-.1-.2c0-.31.27-.25.45-.32a.16.16,0,0,0,0-.15c-.33-.09-.69,0-1-.17S24.74,62.9,24.53,62.91Zm1.28,1.93c0,.06-.1,0-.14,0a.18.18,0,0,1,.08-.06s.05,0,.07,0S25.83,64.82,25.81,64.84Zm-.37-.51a1.28,1.28,0,0,1-.24-.26s.07-.17.1-.17c.53.06,1-.23,1.57,0,.05-.09.13-.21.22-.13s0,.17-.12.22C26.55,64.41,25.9,64,25.44,64.33ZM28.18,77c0,.16-.11.19-.22.27s-.67.16-.76.57c0,.2.07.57-.11.57s-.32-.39-.44-.63a1,1,0,0,1,.27-1.19,1.89,1.89,0,0,1,1.26.29S28.18,77,28.18,77ZM27,67.07c.09-.09.18,0,.22.12s.22.13.13.22-.17,0-.22-.12S26.91,67.16,27,67.07Zm2.8,5.05c-.14,0-.26,0-.28-.17s0-.33.25-.31.2.08.22.22S29.91,72.07,29.8,72.12Zm1,1c-.17,0-.32,0-.3-.25a.62.62,0,0,1,.1-.2L31,73C30.93,73.06,30.89,73.14,30.84,73.14ZM31,65.23c-.13.31-.18.87-.8.53-.09-.05-.29.11-.44.17l-.05,0c.13.41-.12.5-.44.54-.19.34-.53.25-.8.2s-.62-.15-.39-.59c0-.07,0-.14-.12-.13a.9.9,0,0,0-.23.08c-.18.09-.27.42-.48.27s-.07-.39-.11-.59,0-.19-.1-.22-.23.88-.4,0c0-.23-.07-.52.22-.67a.15.15,0,0,0,0-.16l-.12,0c-.11,0-.28,0-.26-.18s.2-.13.32-.08a1.49,1.49,0,0,1,.17.18.22.22,0,0,0,.16,0c.05-.09.13-.21.22-.13s0,.17-.13.22a.17.17,0,0,0,0,.17c.13.05.37,0,.38.21,0,.59,0,.59.52.3,0-.26-.44-.52,0-.77l.25-.26c.12-.21.24-.22.36,0a.14.14,0,0,0,.16,0,.47.47,0,0,1,.51-.5c0-.09.13-.21.22-.13s0,.17-.12.22a.15.15,0,0,0,0,.16h0l.5.52a.25.25,0,0,0,.17,0,.32.32,0,0,1,.4-.19.16.16,0,0,1,.09.09c-.06.2-.26.15-.4.21.08.19.17.41.43.32S31.1,65,31,65.23Zm-.89-38.85a.21.21,0,0,1,.31,0c.17.2.09.36-.12.48,0,.09-.13.22-.22.13s0-.17.12-.22S30,26.55,30.12,26.38Zm.87.76h-.16c0,.09-.13.21-.22.13s0-.17.12-.22,0-.42.26-.52a.18.18,0,0,0,0-.16c-.26-.14-.25-.8-.81-.37a.37.37,0,0,1-.57-.25c0-.28-.21-.67.13-.83a.6.6,0,0,1,.76.34l.06.06c.58.09.46.57.54.94.12,0,.24,0,.36,0a1.73,1.73,0,0,1,.31.14,1.73,1.73,0,0,1-.31.14,2.2,2.2,0,0,1-.36,0V27a.13.13,0,0,0,.16,0,.34.34,0,0,1,.42-.17s.09.06.08.08c-.06.2-.25.16-.4.2C31.22,27.35,31.11,27.36,31,27.14Zm.31,25.69c.73-.78.14-1.66.2-2.49a6,6,0,0,0-.14-2.52,2.47,2.47,0,0,1,.07-1.75,2.34,2.34,0,0,0,.11-2.29c.08-1.23,0-2.45.13-3.69a29.61,29.61,0,0,0,.64-3.46c0-.12,0-.31,0-.37.76-.69.39-1.6.46-2.42a3.14,3.14,0,0,1,.37-1.43,3.13,3.13,0,0,0,.74-1.49,1.25,1.25,0,0,1,1-1,.72.72,0,0,0,.68-.89c0-.46.08-.74.62-.69.33,0,.5-.12.29-.46s-.21-.71.29-.89c.13-.05.35-.16.24-.37-.34-.65.21-1,.57-1.05a7.34,7.34,0,0,0,2.88-1.87A1.48,1.48,0,0,1,42,23.37c1.09.26,2.19.5,3.26.86.84.28,1.56.64,1.78,1.6a.81.81,0,0,0,.29.4,10.65,10.65,0,0,1,2,3.3c.07.11.2.23.19.33a12.36,12.36,0,0,0,.51,2.84A9.52,9.52,0,0,0,50.73,35c.33.78.55,1.58.89,2.36a7.62,7.62,0,0,1,.31,1.85,43.18,43.18,0,0,1,.23,6c0,1-.06,1.84,0,2.65.13,1.46-.32,2.87-.26,4.31a6.74,6.74,0,0,0,.23,2.52c.24.57,0,1.21,0,1.82a2.12,2.12,0,0,1-.58,1.73.4.4,0,0,0-.1.47c.31.42,0,.54-.25.76a2.16,2.16,0,0,0-.28.57c-.15.34.49.68.12.91s-.33.54-.49.81,0,.37,0,.58c0,.76.2,1.59-.55,2.17.07.5-.53.75-.44,1.33,0,.29-.35.64-.56,1s-.28.46-.6.13-.6-.56-.34.19c-.65.56-1,1.55-2.13,1.42-.1,0-.3,0-.33.13-.27.81-1.11,1-1.63,1.55a.43.43,0,0,0-.09.1c-.38.82-1,.73-1.74.56-.41-.09-.7-.63-1-.49-.52.28-.66-.18-1-.29a8.38,8.38,0,0,1-2.47-1.18,8.5,8.5,0,0,1-1.4-1.27,1.21,1.21,0,0,0-.53-.5A1.1,1.1,0,0,1,34.84,66a.89.89,0,0,0-.33-.66c-1.18-.85-1-2-.77-3.18a.59.59,0,0,0-.16-.66c-.44-.46-1-.84-1.17-1.49s-.52-1.06-.6-1.61c-.24-1.66-.77-3.3-.54-5C31.29,53.16,31.21,52.92,31.3,52.83Zm.21,19.35c-.1-.05-.22-.13-.13-.22s.17,0,.22.12.21.13.13.22S31.56,72.27,31.51,72.18Z"/><polygon points="31.97 42.11 31.88 42.14 31.95 42.19 31.97 42.11"/><polygon points="40.67 24.86 40.66 24.94 40.74 24.91 40.67 24.86"/><path d="M26.7,60.84h0l-.07-.05-.12.2Z"/><path d="M26.44,61.09c0,.1.1.16.13.1a1.81,1.81,0,0,0,.13-.35l-.19.15.12-.2A.31.31,0,0,0,26.44,61.09Z"/><path d="M26.23,62.69l0,.11.13-.13Z"/><path d="M26.34,62.67l-.13.13.11,0Z"/><polygon points="25.79 62.44 25.7 62.47 25.78 62.52 25.79 62.44"/><path d="M24.57,49.71l.06,0,.12-.2Z"/><path d="M25,49.05s-.07,0-.1,0c-.31,0-.24.26-.27.45a2,2,0,0,0-.05.24l.18-.15-.12.2a1.86,1.86,0,0,0,.21-.28A2.19,2.19,0,0,0,25,49.05Z"/><path d="M28.62,65.47v0s0,0,0,0A0,0,0,0,0,28.62,65.47Z"/><path d="M29.08,64.49h0c0,.21-.07.28-.27.27l-.07-.08h0a.2.2,0,0,1,0,.16l0,.07a1,1,0,0,1,0,.17.82.82,0,0,1,.4-.4h0A.34.34,0,0,1,29.08,64.49Z"/><path d="M29.12,64.7a.82.82,0,0,0-.4.4.42.42,0,0,1-.1.33v0c.16.19.1.54.3.69a.15.15,0,0,0,0-.16c-.09,0-.21-.13-.13-.21s.17,0,.22.12c.37-.14.11-.32.05-.5s.15-.37.31-.46.34,0,.34.21l.06.06a.39.39,0,0,0,.17-.49A.9.9,0,0,1,29.12,64.7Z"/><path d="M28.61,66.07v-.18a2,2,0,0,1,0-.42,0,0,0,0,1,0,0,.5.5,0,0,1-.32,0,2.54,2.54,0,0,1,.19.57c0,.36.13.34.24.26l-.06-.08A1.36,1.36,0,0,1,28.61,66.07Z"/><path d="M28.6,65.89v.18a1.36,1.36,0,0,0,0,.17l.06.08a1.46,1.46,0,0,1,.21-.16c-.2-.15-.14-.5-.3-.69A2,2,0,0,0,28.6,65.89Z"/><path d="M28.62,65.43a1.15,1.15,0,0,1,.1-.33,1,1,0,0,0,0-.17l0-.07s-.09,0-.17,0l-.06,0a.5.5,0,0,1,0,.42.48.48,0,0,1,.19.09S28.62,65.44,28.62,65.43Z"/><path d="M28.72,65.1a1.15,1.15,0,0,0-.1.33A.42.42,0,0,0,28.72,65.1Z"/><path d="M28.6,65.45a.48.48,0,0,0-.19-.09.4.4,0,0,1-.13.13A.5.5,0,0,0,28.6,65.45Z"/><path d="M29.11,64.69h0a.65.65,0,0,1,.21-.07.38.38,0,0,1-.14-.16l-.11,0A.34.34,0,0,0,29.11,64.69Z"/><path d="M29.12,64.7a.9.9,0,0,0,.83,0c-.19-.08-.43,0-.62-.1A.65.65,0,0,0,29.12,64.7Z"/><path d="M29.08,64.49v0a.07.07,0,0,0-.06,0,0,0,0,0,1,0,0Z"/><path d="M29.19,64.47a.15.15,0,0,0-.11,0v0Z"/><path d="M28.76,64.77c.2,0,.31-.06.27-.27h0c-.06.1-.13.19-.27.15l0,0Z"/><path d="M29,64.5a0,0,0,0,0,0,0v0h0Z"/><path d="M29.57,65.3c.13.14.14,0,.21-.08l-.06-.06Z"/><path d="M29.72,66l.05,0-.14-.16C29.5,65.91,29.67,65.92,29.72,66Z"/><path d="M29.15,66.3l-.1,0,.12.13Z"/><path d="M29.17,66.41l-.12-.13v.1Z"/><path d="M27.11,65H27C27,65.14,27.06,65.17,27.11,65Z"/><path d="M27,65h.13A.09.09,0,0,0,27,65Z"/><path d="M30.55,25.32l-.06-.06-.13.18Z"/><path d="M30.14,25.46c.18.11.31,0,.41-.14l-.19.12.13-.18c-.12,0-.24.07-.36.12S30.12,25.45,30.14,25.46Z"/><path d="M26.62,35.29l.21-.08s0-.08-.08-.08a.3.3,0,0,0-.21,0C26.48,35.2,26.52,35.26,26.62,35.29Z"/><path d="M25.27,43.22c.05-.08,0-.12-.09-.11v.13S25.26,43.24,25.27,43.22Z"/><path d="M25.17,43.24v-.13A.09.09,0,0,0,25.17,43.24Z"/><path d="M25.69,29.26v.09l.11,0,0-.11-.13.05Z"/><path d="M25.7,29.26l.13-.05a.12.12,0,0,0-.14,0v.05Z"/><path d="M25.67,29.25a.13.13,0,0,0,0,.1v-.09Z"/><path d="M25.69,29.26v-.05s0,0,0,0Z"/><path d="M26.68,29.12h0l0,0Z"/><path d="M26.63,29.18v0l0,0L26.54,29C26.41,29.11,26.58,29.11,26.63,29.18Z"/><path d="M25.49,29.09h.08c0-.16.13-.35-.14-.4a.66.66,0,0,1,.07.3A.22.22,0,0,1,25.49,29.09Z"/><path d="M25.43,29v.07h0A.43.43,0,0,1,25.43,29Z"/><path d="M25.49,29.09a.22.22,0,0,0,0-.09.66.66,0,0,0-.07-.3V29a.43.43,0,0,0,0,.07Z"/><polygon points="25.48 29.11 25.48 29.11 25.48 29.11 25.48 29.11 25.48 29.11"/><path d="M25.48,29.11h0l.07,0h-.08Z"/><path d="M25.48,29.11v0h0l.05,0Z"/><path d="M25.47,29.09v0Z"/><path d="M28.46,64.82a.19.19,0,0,1,0-.08.28.28,0,0,1-.2,0c0,.13.08.18.17.22l0-.11Z"/><path d="M28.49,64.7l0-.06-.05,0,.1,0Z"/><path d="M28.47,64.74l0,0-.1,0-.12.06A.28.28,0,0,0,28.47,64.74Z"/><path d="M28.46,64.82h0l0,.11.06,0Z"/><path d="M29.43,64.22a.8.8,0,0,0-.13.13l.1,0Z"/><path d="M29.32,64.24l0,.11a.8.8,0,0,1,.13-.13Z"/><path d="M28.62,64.66h.05a.22.22,0,0,1,0-.14h-.11a.19.19,0,0,1,0,.15.06.06,0,0,1,.06,0Z"/><path d="M28.66,64.51v0a.12.12,0,0,0-.14,0l0,0Z"/><path d="M28.55,64.67a.19.19,0,0,0,0-.15H28.5a.75.75,0,0,0-.06.13l.07,0Z"/><path d="M28.55,64.52l0,0,0,0h.05Z"/><path d="M28.66,64.51a.22.22,0,0,0,0,.14h.07l-.06-.13h0Z"/><path d="M28.68,64.51h0a.08.08,0,0,0,0,0v0Z"/><path d="M28.61,64.67a.11.11,0,0,1,.07,0h0a.05.05,0,0,1,0,0h-.06Z"/><path d="M28.69,64.69l0,0h-.07A.05.05,0,0,0,28.69,64.69Z"/><path d="M28.51,64.69l-.07,0,0,.06Z"/></svg>