<svg xmlns="http://www.w3.org/2000/svg" viewBox="0 0 445.71 99.98"><defs><style>.cls-1{fill:#978b6a;}.cls-2{fill:#090909;}.cls-3{fill:#1f429b;}</style></defs><g id="Estonia"><path class="cls-1" d="M88.86,16.64c-7.17-2.07-10.12,3.9-10.6,9.92.33-1.19.59-2.41,1-3.58.9-2.61,2.22-4.88,5-5.94,2.52-.95,5,0,5.8,2.19a4.23,4.23,0,0,1-3.14,5.22,3.08,3.08,0,0,1-2.77-1.69,2.61,2.61,0,0,1-.3-1.72,9.8,9.8,0,0,0-3.47,3.79A21.77,21.77,0,0,0,77.53,35a42.91,42.91,0,0,0,4.25,20.71,18,18,0,0,0,4.76,5.75c1.44,1.2,1.54,2.79,1.74,4.44a36.27,36.27,0,0,1-6.76-9.18,18.62,18.62,0,0,0,2.76,5.35A47.6,47.6,0,0,0,87.87,67a1.59,1.59,0,0,1,.32,1.69c-1.59,5.41-3.82,10.48-7.6,14.73a22.33,22.33,0,0,1-8.57,6c-4.63,1.83-9.61,2.34-14.38,3.7A26.72,26.72,0,0,0,45.8,99.52c-.56.56-.9.65-1.51,0-3.82-3.76-8.54-5.74-13.69-7-3.93-.93-7.92-1.54-11.74-2.92a22.9,22.9,0,0,1-11-8.43A44.72,44.72,0,0,1,2.21,69.48,3.11,3.11,0,0,1,3,66a34.42,34.42,0,0,0,5.6-8.47,2.91,2.91,0,0,0,.28-1,34.56,34.56,0,0,1-7,9.56,5.78,5.78,0,0,1,2.27-4.94,23,23,0,0,0,5.66-8.3,40.47,40.47,0,0,0,2.61-10.73c.69-5.79.8-11.55-2.35-16.82C9.12,23.72,8.31,22,6.39,21.21A11,11,0,0,1,6,22.61a3.25,3.25,0,0,1-2.86,1.85,4.26,4.26,0,0,1-3.1-3.32c-.58-3.82,2.54-4.95,5.09-4.36,3.31.77,4.95,3.18,5.93,6.19.38,1.18.65,2.4,1,3.74.11-7.19-4.17-11.28-10.68-10.21a15.56,15.56,0,0,1,2.79-3.19c2.92-2.52,6-5,7.74-8.52.5-1,1-1.41,2.26-1a15.21,15.21,0,0,0,7.92-.12c3.44-.77,6.62-2.37,10.09-3s7-1.16,10.2.58a4.85,4.85,0,0,0,5.16.06c4.36-2.16,8.89-1.19,13.28.17a72,72,0,0,0,9.89,2.71c2,.33,3.89-.23,5.81-.54.71-.11,1,0,1.34.63a25.77,25.77,0,0,0,7.34,8.41A14.42,14.42,0,0,1,88.86,16.64Z"/><path class="cls-2" d="M115.4,54.73c0,4-.05,7.9,0,11.84,0,1.17-.51,1.13-1.35,1.17s-1.21-.2-1.2-1.17c0-5.11,0-10.22,0-15.33,0-.48-.45-1.36.41-1.41s2-.54,2.6.87c1.22,2.73,2.64,5.37,4,8,.69,1.34,1.43,2.65,2.31,4.26,0-.68.07-1.08.07-1.48,0-3.54.06-7.08,0-10.62,0-1.15.45-1.16,1.32-1.18s1.23.13,1.22,1.13c-.06,5.16,0,10.32,0,15.48,0,.44.4,1.29-.36,1.33s-2,.6-2.58-.7c-.31-.72-.72-1.4-1.07-2.09C119,61.46,117.17,58.13,115.4,54.73Z"/><path class="cls-2" d="M113,31.65c.07-2.17-.34-4.4.76-6.47,1.2-2.25,3.63-3.21,6.66-2.58a5.07,5.07,0,0,1,3.81,4.9c0,.67-.3.8-.8.68-.67-.15-1.79.57-1.86-.81-.08-1.8-.88-3-3.09-2.91a2.83,2.83,0,0,0-2.83,2.78,32.93,32.93,0,0,0,0,9,3.12,3.12,0,0,0,5,2.22,2.39,2.39,0,0,0,1-2.32c0-.29-.25-.82.31-.86a13.17,13.17,0,0,1,2.26.11,3.14,3.14,0,0,1,0,1c-.74,5.12-6.39,5.49-9.06,3.52A5.51,5.51,0,0,1,113,35.55C113,34.25,113,33,113,31.65Z"/><path class="cls-2" d="M152.84,53.29c-.45,0-.76.14-.83.66a52.61,52.61,0,0,1-.81,5.49c-.2.79.16,1.79-.72,2.47a3.91,3.91,0,0,1-.37-1c-.49-2.29-1.09-4.55-1.5-6.85-.19-1.08-.87-.68-1.45-.78s-.93.26-1,.86c-.45,2.19-.91,4.38-1.41,6.56a3,3,0,0,1-.65,1.77c-.41-2.36-.8-4.55-1.16-6.75-.42-2.53-.41-2.53-3.14-2.38.89,4.2,1.84,8.38,2.61,12.59.23,1.21.44,1.82,1.85,1.69.84-.07,1.17-.35,1.31-1.08.09-.51.18-1,.3-1.55.44-1.92.89-3.84,1.34-5.81a1.26,1.26,0,0,1,.61.83c.5,2.34,1,4.68,1.58,7,0,.19-.09.4.21.54a2,2,0,0,0,2.7-1.25c.88-4.31,1.76-8.63,2.65-13Z"/><path class="cls-2" d="M245.58,31.49q-2.09.09-4.17,0c-.89,0-.72.51-.77,1s.12.83.8.85c2.49.08,2.49.11,2.49,2.61,0,.14,0,.27,0,.41a2.07,2.07,0,0,1-1.33,2.18,3.59,3.59,0,0,1-5.18-2c-.54-1.61-.21-3.28-.26-4.92,0-1.26-.09-2.52,0-3.77.19-2.33,1.76-4.22,4.79-3.17a2.35,2.35,0,0,1,1.72,2.05,1.72,1.72,0,0,0,2.32.91c.71-.37.18-1,.07-1.48a4.44,4.44,0,0,0-1.85-2.81c-1.4-1.05-3.06-.81-4.65-.8a4.93,4.93,0,0,0-4.8,4.33,56.49,56.49,0,0,0-.1,8.33c.27,5.95,6.18,6.7,9.74,4.77,1-.51,2.05-1.19,2.05-2.59,0-1.66,0-3.32,0-5C246.48,31.78,246.34,31.46,245.58,31.49Z"/><path class="cls-2" d="M423.47,26.36c-.57,0-1.4-.4-1.37.83.07,2.56,0,5.11,0,7.67,0,.31.19.71-.28,1-.17-.27-.33-.52-.47-.77-1.49-2.67-3-5.32-4.43-8-.63-1.22-1.64-.65-2.46-.66s-.43.85-.43,1.29c0,4,0,8-.06,12,0,1,.45,1,1.16,1s1.51.28,1.45-1c-.1-2.68,0-5.36,0-8l.33-.08c1.23,2.24,2.53,4.45,3.67,6.73s1.34,2.48,3.26,2.44c.6,0,.87-.12.86-.81,0-4.22-.05-8.44,0-12.65C424.7,26.1,424,26.33,423.47,26.36Zm-1.34,9.83-.08-.06.1,0Z"/><path class="cls-2" d="M273,27.44c0-1-.26-1.24-1.19-1.16-.77.06-1.44-.13-1.39,1.11.11,2.69,0,5.38,0,8.07.08.19.23.45-.07.53s-.36-.18-.39-.41c-1.59-2.84-3.24-5.66-4.74-8.55-.64-1.23-1.63-.68-2.45-.68s-.42.85-.42,1.28c0,4,0,8,0,12,0,.33-.19.88.18,1a5.33,5.33,0,0,0,2,.07c.64-.11.33-.74.33-1.13,0-2.74,0-5.49,0-8.23a81.31,81.31,0,0,1,4.81,8.4c.69,1.4,1.78.95,2.75.92s.51-1,.51-1.45C273,35.24,272.94,31.34,273,27.44Z"/><path class="cls-2" d="M140.59,39.42c0,.93.12,1.34,1.21,1.3s1.37-.2,1.34-1.31c-.09-2.78,0-5.57,0-8.36a82.89,82.89,0,0,1,4.77,8.27,2.11,2.11,0,0,0,2.4,1.35c.78-.05.94-.27.94-1,0-4.12-.06-8.25,0-12.37,0-1.05-.46-1.05-1.19-1s-1.41-.26-1.36,1c.1,2.73,0,5.47,0,8.2,0,.2.21.47-.11.52s-.36-.22-.37-.46c-1.6-2.85-3.25-5.68-4.8-8.56-.64-1.21-1.65-.66-2.46-.61s-.34.88-.34,1.35C140.6,31.62,140.64,35.52,140.59,39.42Z"/><path class="cls-2" d="M374.37,38.76c-1.93.07-3.86,0-5.79,0-.78,0-1-.24-1-1,.05-1.53.05-3.06,0-4.58,0-.71.21-.94.91-.92,1.66,0,3.33,0,5,0,.82,0,.8-.39.81-1s-.07-1-.85-1c-1.62.06-3.23,0-4.85,0-.71,0-1.06-.12-1-.94.07-1.3.06-2.6,0-3.9,0-.71.19-.94.9-.92,1.93,0,3.86,0,5.79,0,.69,0,1.08-.07,1.06-.92s-.17-1.11-1-1.09q-4.11.07-8.22,0c-.91,0-1,.34-1,1.1,0,2.65,0,5.29,0,7.94s0,5.39,0,8.08c0,.75.19,1,1,1,2.79,0,5.57,0,8.35,0,.77,0,1-.22,1-1S375.21,38.73,374.37,38.76Z"/><path class="cls-2" d="M298.34,37.23a3.18,3.18,0,0,0-2.13-3.47,3.55,3.55,0,0,0,2.06-4.25,3.65,3.65,0,0,0-3.12-3.06,37,37,0,0,0-5.77-.15c-.69,0-.49.51-.49.86,0,4.22,0,8.43,0,12.65,0,1,.58.9,1.18.86s1.42.38,1.34-.84,0-2.69,0-4c0-.62.14-.91.81-.83a7,7,0,0,0,1.21,0c1.73,0,2.46.65,2.56,2.38,0,.49,0,1,0,1.48,0,1.94,0,1.89,1.95,1.83.77,0,.84-.41.66-.92A6,6,0,0,1,298.34,37.23Zm-3.54-4.56a6.5,6.5,0,0,1-3,.24c-.47,0-.39-.4-.39-.7,0-.58,0-1.16,0-1.85s-.38-1.72.23-2a4.33,4.33,0,0,1,2.89,0,2,2,0,0,1,1.37,2.08A2.09,2.09,0,0,1,294.8,32.67Z"/><path class="cls-2" d="M199.71,64.6a3.39,3.39,0,0,0-2-3.8,3.84,3.84,0,0,0,2-4.16,3.74,3.74,0,0,0-3.05-3.1c-1.9-.46-3.83-.14-5.74-.26-.57,0-.64.23-.64.72,0,4.3,0,8.6,0,12.91,0,.33-.12.68.43.81,1.48.35,2,0,2-1.51V63.65c0-1.8,0-1.81,1.76-1.78,2.08.05,2.79.8,2.81,2.89,0,.72,0,1.43.06,2.15,0,.34.06.68.54.8,1.53.41,2.09-.09,1.84-1.64A6,6,0,0,1,199.71,64.6Zm-2.52-6.33a1.93,1.93,0,0,1-1.81,1.7c-2.54.33-2.64.24-2.64-2.37a.53.53,0,0,1,0-.13c.17-.73-.49-1.9.38-2.14a3.65,3.65,0,0,1,3.35.36A2.54,2.54,0,0,1,197.19,58.27Z"/><path class="cls-2" d="M337.72,26.11a5.05,5.05,0,0,0-5.48,3.09c-.66,1.39-.34,2.78-.42,4.17v2.42A5.19,5.19,0,0,0,342,37.35a15.53,15.53,0,0,0,.24-7.11A5.2,5.2,0,0,0,337.72,26.11ZM339.6,37A2.52,2.52,0,0,1,337.15,39a2.33,2.33,0,0,1-2.48-1.86,14.37,14.37,0,0,1,0-7.28A2.35,2.35,0,0,1,337.06,28a2.52,2.52,0,0,1,2.47,1.74,10.32,10.32,0,0,1,.42,3.71A12.07,12.07,0,0,1,339.6,37Z"/><path class="cls-2" d="M181.75,53.16c-1.71,0-3.4.29-4.41,2.07-1.72,3-1.29,6.2-.58,9.32a4.23,4.23,0,0,0,4.06,3.29c2.36.16,4.28-.49,5.42-2.73a10.06,10.06,0,0,0,.76-4.53,10.15,10.15,0,0,0-.77-4.65A4.7,4.7,0,0,0,181.75,53.16Zm2.36,11A2.49,2.49,0,0,1,181.73,66a2.32,2.32,0,0,1-2.5-1.82,13.91,13.91,0,0,1,0-7.41,2.26,2.26,0,0,1,2.31-1.7,2.46,2.46,0,0,1,2.49,1.68,10,10,0,0,1,.41,3.84A10.31,10.31,0,0,1,184.11,64.15Z"/><path class="cls-2" d="M173.57,40.84c2.69-.5,3.86-1.68,4.31-4.37.51-3.06.06-6.16.24-9.24.08-1.16-.64-.92-1.28-.93s-1.33-.2-1.29.94c.08,2.6,0,5.2,0,7.8a5.53,5.53,0,0,1-.39,2.2A3.07,3.07,0,0,1,172.41,39a2.56,2.56,0,0,1-2.36-2.3,12.29,12.29,0,0,1-.11-1.6c0-2.65-.05-5.3,0-7.94,0-1.2-.76-.83-1.35-.86s-1.27-.22-1.22.85c.08,1.57,0,3.14,0,4.71,0,1.3.09,2.61,0,3.9C167.12,39.14,170.05,41.48,173.57,40.84Z"/><path class="cls-2" d="M132.88,26.14c-2-.18-3.74.19-5,2.12-1.08,1.65-.86,3.37-.91,5.11,0,.94,0,1.88,0,2.82a5,5,0,0,0,4.3,4.66c3,.24,5.33-1.23,5.91-3.81a16.47,16.47,0,0,0,0-7.26A5,5,0,0,0,132.88,26.14Zm1.87,10.78a2.62,2.62,0,0,1-2.52,2,2.54,2.54,0,0,1-2.57-2.14,16,16,0,0,1,0-6.67A2.57,2.57,0,0,1,132.19,28a2.72,2.72,0,0,1,2.59,2.15,11.68,11.68,0,0,1,.25,3.33A11.23,11.23,0,0,1,134.75,36.92Z"/><path class="cls-2" d="M405.6,26.17a4.78,4.78,0,0,0-4.55,2.08c-1.07,1.67-.85,3.46-.84,5.24a17.28,17.28,0,0,0,0,3.74A4.83,4.83,0,0,0,405,40.9c2.48.08,4.57-1.08,5.22-3.27a13.17,13.17,0,0,0-.13-8.48A4.61,4.61,0,0,0,405.6,26.17ZM408,37a2.59,2.59,0,0,1-2.65,2,2.44,2.44,0,0,1-2.43-2.11,15.71,15.71,0,0,1,0-6.79A2.51,2.51,0,0,1,405.39,28a2.69,2.69,0,0,1,2.6,2.13,11.38,11.38,0,0,1,.26,3.34A11.19,11.19,0,0,1,408,37Z"/><path class="cls-2" d="M209.58,61.17a1.63,1.63,0,0,1,0-2.14c1.29-1.79,2.41-3.69,3.73-5.75a8.34,8.34,0,0,1-1.13,0,2.42,2.42,0,0,0-3.07,1.85,27.12,27.12,0,0,1-2,3.79c-.18.34-.41.6-.81.55-.57-.08-.32-.56-.32-.85,0-1.48-.09-3,0-4.44.07-1.06-.55-1-1.16-.88s-1.38-.45-1.37.8q.07,6.39,0,12.79c0,1.11.7.82,1.26.8s1.31.37,1.26-.77c-.07-1.43,0-2.87,0-4.3,0-.34-.27-.85.32-1s.77.12,1,.6a27.83,27.83,0,0,1,1.6,2.85c.78,2.19,2.15,3.09,4.47,2.35-.13-.26-.27-.62-.47-1C211.76,64.69,210.7,62.91,209.58,61.17Z"/><path class="cls-2" d="M197.88,26.33c-2.09-.1-2.25,0-2.75,2.05-.1.43-.22.86-.36,1.28-1.21,3.63-2.42,7.26-3.65,11a6.78,6.78,0,0,1,1,0c1.2.2,2-.17,2.08-1.48.13-1.49,1-2,2.4-1.78a10.38,10.38,0,0,0,2,0c.67,0,1,0,1.19.91.51,2.47.69,2.5,3.22,2.28,0,0,.08,0,.21-.1-1.51-4.51-3-9-4.52-13.56C198.57,26.43,198.33,26.36,197.88,26.33Zm-2.46,9.14c.57-1.85,1.13-3.64,1.79-5.77.67,2.09,1.24,3.88,1.84,5.77Z"/><path class="cls-2" d="M308.62,27.45c-.41-1.38-1.25-1-2.09-1.13-1-.18-1.21.41-1.45,1.14-1.42,4.34-2.87,8.68-4.33,13.1,2.61.18,2.64.19,3.35-2.14.22-.75.51-1.13,1.36-1a10,10,0,0,0,2.56,0c1.17-.17,1.55.36,1.71,1.42.29,1.85.38,1.84,2.22,1.86.94,0,1-.2.68-1C311.23,35.57,309.82,31.54,308.62,27.45Zm-.52,8.06h-3l1.82-5.79c.64,2,1.16,3.65,1.67,5.29C308.73,35.46,308.46,35.51,308.1,35.51Z"/><path class="cls-2" d="M441.42,27.54c-.3-.94-.73-1.47-1.72-1.18-.52.16-1.22-.53-1.57.58-1.35,4.36-2.83,8.67-4.26,13-.08.22-.35.58.06.64a6.91,6.91,0,0,0,2.13,0c.5-.09.4-.7.52-1.12.57-2,.58-2,2.78-2,.62,0,1.25,0,1.88,0s.83,0,1,.78c.68,2.53.78,2.5,3.43,2.35C444.25,36.17,442.8,31.87,441.42,27.54Zm-.66,8c-.89,0-1.78,0-2.85,0,.58-1.89,1.14-3.68,1.79-5.78.62,1.93,1.13,3.53,1.66,5.12C441.55,35.48,441.25,35.57,440.76,35.55Z"/><path class="cls-2" d="M383.81,32.82a18.71,18.71,0,0,1-2.34-.87,2,2,0,0,1-1.14-2.32,1.84,1.84,0,0,1,2.06-1.44A2.22,2.22,0,0,1,384.76,30c.38,1.22,1.44.65,2.12.58s.37-.88.25-1.33a4.42,4.42,0,0,0-4.93-3.07c-1.43.16-3,.28-3.78,1.75a4.15,4.15,0,0,0,2.47,6.27,13.63,13.63,0,0,1,2.73,1c.58.34,1.09.68,1.2,1.39a2.12,2.12,0,0,1-1.54,2.4c-1.32.36-2.8-.06-3-1.17-.34-1.57-1.39-1.18-2.37-1.23-.57,0-.67.2-.53.72.67,2.43,1.79,3.66,4.66,3.6.41,0,.81,0,1.21,0,3.46-.2,5.39-3.27,3.75-6A5.64,5.64,0,0,0,383.81,32.82Z"/><path class="cls-2" d="M164.38,37.52a3.6,3.6,0,0,0-1.59-3.81c-1.25-.81-2.71-1-4-1.67-.63-.31-1.3-.53-1.41-1.41-.17-1.46.27-2.33,1.41-2.61a2.72,2.72,0,0,1,2.92,1.69c.09.26-.19.74.28.75.69,0,1.6.12,2-.25s.07-1.25-.22-1.86a3.24,3.24,0,0,0-1.53-1.59,6.36,6.36,0,0,0-5.36-.16,3.4,3.4,0,0,0-2.17,3.15,3.5,3.5,0,0,0,1.67,3.6c1.37.88,3,1.1,4.41,1.83a1.67,1.67,0,0,1,.95,2.06c-.21,1.28-1.14,1.69-2.27,1.76a2.31,2.31,0,0,1-2.6-2c-.22-1.28-1.11-.45-1.66-.64-.35-.12-.83-.12-.81.54A3.34,3.34,0,0,0,156,40.07a5.15,5.15,0,0,0,3,.79,7,7,0,0,0,3.11-.51A3.34,3.34,0,0,0,164.38,37.52Z"/><path class="cls-2" d="M173.27,49.78a.75.75,0,0,0-.89.53c-.92,2.22-1.9,4.42-2.84,6.63-.15.33-.09.88-.52.92-.58.06-.63-.58-.79-1-.74-1.64-1.4-3.32-2.1-5-1-2.31-1-2.31-3.7-2,.81,1.73,1.56,3.32,2.3,4.92.89,1.93,1.85,3.84,2.61,5.83s.25,4,.3,5.95c0,.83.18,1.13,1.11,1.17,1.18,0,1.62-.27,1.47-1.48-.1-.89.05-1.8,0-2.69a8.75,8.75,0,0,1,1.05-4.72c1.44-3,2.76-6,4.17-9.08C174.61,49.78,173.94,49.8,173.27,49.78Z"/><path class="cls-2" d="M224.35,38.73a10.3,10.3,0,0,1-1.47,0c-1.16,0-2.78.51-3.34-.21s-.16-2.3-.24-3.5c0-.69.15-1,.89-.91,1.16.06,2.33,0,3.49,0,.88,0,.88-.41.92-1.06s-.29-.92-.94-.86c-.45,0-.9,0-1.35,0-3.19,0-3.16,0-3-3.24,0-.68.26-.82.87-.81,1.48,0,3,0,4.44,0,.83,0,.92-.33.94-1s-.26-.9-.93-.89c-2.29,0-4.58.05-6.86,0-.91,0-1,.35-1,1.11,0,2,0,4,0,6s0,4.13,0,6.19c0,.82.19,1.09,1,1.07,2.2-.06,4.39,0,6.59,0,.67,0,1.17.07,1.18-.93S225.11,38.68,224.35,38.73Z"/><path class="cls-2" d="M136.23,65.8c-.49,0-1,0-1.48,0-3.72,0-3.7,0-3.57-3.75,0-.68.17-1,.9-.92,1.17,0,2.34,0,3.5,0,.72,0,.91-.22.9-.91s-.13-1.12-.95-1a10.14,10.14,0,0,1-1.35,0c-3.21,0-3.19,0-3-3.22,0-.67.26-.83.87-.82,1.44,0,2.88,0,4.31,0,.8,0,1.09-.17,1.08-1s-.31-1-1-.94c-1.12,0-2.24,0-3.36,0s-2.33,0-3.5,0c-.69,0-.93.17-.92.89q0,6.33,0,12.65c0,.73.26.92,1,.91q3.36,0,6.72,0c.75,0,1.13-.08,1.14-1S136.89,65.78,136.23,65.8Z"/><path class="cls-2" d="M280.07,28.18c1.48,0,3,0,4.44,0,.8,0,.95-.27,1-1s-.31-.94-1-.92c-2.25,0-4.49.06-6.73,0-.9,0-1,.31-1,1.08.05,2,0,4,0,6,0,2.16,0,4.31,0,6.46,0,.64.17.84.82.83,2.33,0,4.66,0,7,0,.86,0,.89-.36.92-1s-.26-1-1-1c-1.43.05-2.87,0-4.31,0-.79,0-1-.26-.94-1,.07-1.16-.36-2.66.22-3.38s2.18-.17,3.33-.26h.67c.68.06,1.16,0,1.16-.93s-.37-1-1.11-1c-.4,0-.81,0-1.21,0-3.23,0-3.21,0-3.07-3.2C279.26,28.4,279.42,28.17,280.07,28.18Z"/><path class="cls-2" d="M257.75,38.74c-.49,0-1,0-1.48,0-1.15-.06-2.73.51-3.33-.24s-.1-2.23-.2-3.39c-.08-.9.31-1,1.08-1,1.11.06,2.24,0,3.36,0,.78,0,.86-.38.89-1s-.16-1-.89-.93c-1.21.06-2.43,0-3.64,0-.56,0-.9-.15-.77-.75.25-1.09-.61-2.34.49-3.28.13-.11.44,0,.66,0,1.35,0,2.7,0,4,0,.71,0,1.05-.12,1-.94s-.18-1-1-1c-2.29,0-4.58,0-6.87,0-.67,0-.93.14-.93.88q.06,6.31,0,12.65c0,.76.29.89.94.87,1.12,0,2.24,0,3.37,0s2.15,0,3.23,0c.7,0,1.24.1,1.24-1S258.41,38.73,257.75,38.74Z"/><path class="cls-2" d="M353.21,26.28q-3.56.07-7.13,0c-.71,0-.91.2-.89.91,0,2.1,0,4.21,0,6.32s0,4.12,0,6.18c0,.33-.18.73.24,1a1.49,1.49,0,0,0,2.24-1.24v-.95c0-1.29-.43-3,.22-3.75s2.53-.18,3.85-.27a.82.82,0,0,1,.27,0c.69.09,1-.07,1-.9s-.25-1.12-1.06-1a7.77,7.77,0,0,1-1.08,0c-3.44,0-3.42,0-3.25-3.52,0-.66.23-.85.86-.84,1.57,0,3.14,0,4.71,0,.8,0,.83-.37.84-1S354,26.27,353.21,26.28Z"/><path class="cls-2" d="M212.92,26.29c-2.64,0-5.28,0-7.92,0-.71,0-1,.09-1,.91s.31,1.1,1.09,1c.44-.05.9,0,1.34,0,1-.14,1.35.15,1.29,1.21-.1,1.65,0,3.31,0,5s.08,3.5,0,5.24c-.06,1.09.47,1.1,1.27,1.08s1.34.08,1.31-1.06c-.09-2.86,0-5.73,0-8.59s0-2.78,2.68-2.82c.85,0,1-.35,1.06-1.12S213.5,26.29,212.92,26.29Z"/><path class="cls-2" d="M397.67,26.32c-2.64.06-5.28,0-7.93,0-.72,0-1.22-.06-1.2,1s.51.93,1.15.91,1.26,0,1.89,0,.83.19.81.83c0,1.79,0,3.58,0,5.37s.07,3.5,0,5.24c-.05,1,.43,1.14,1.27,1.12s1.33,0,1.3-1.09c-.08-2.82-.05-5.64,0-8.46,0-1-.42-2.22.22-2.83.47-.46,1.7-.21,2.58-.15s.88-.25.88-.92S398.53,26.3,397.67,26.32Z"/><path class="cls-2" d="M322.58,38.72c-1.16.06-2.34,0-3.5,0-.88.06-1.11-.23-1.1-1.11,0-3.5,0-7,0-10.5,0-1.06-.62-.87-1.2-.84s-1.38-.35-1.33.86c.08,2.1,0,4.21,0,6.32s0,4.22,0,6.33c0,.59.08.89.79.87q3.17-.06,6.33,0c.92,0,.68-.58.72-1.08S323.31,38.69,322.58,38.72Z"/><path class="cls-2" d="M188.37,38.73c-1,0-2.07-.06-3.09,0s-1.17-.31-1.16-1.21c0-3.41,0-6.82,0-10.23,0-1-.42-1.09-1.18-1s-1.43-.27-1.37,1c.11,2.06,0,4.12,0,6.19s0,4.22,0,6.32c0,.7.17.93.89.91,1.93,0,3.86,0,5.79,0,.76,0,1.21,0,1.2-1S189.05,38.71,188.37,38.73Z"/><path class="cls-2" d="M429.91,26.35c-.67,0-1.39-.26-1.37,1q.13,6.18,0,12.35c0,1.12.56,1,1.23,1s1.43.28,1.37-1c-.1-2,0-4.11,0-6.17s-.08-4.12,0-6.17C431.2,26.2,430.59,26.32,429.91,26.35Z"/><path class="cls-3" d="M20.4,27.86c-1.85.45-1.59,2.17-2.28,3.47,1.18-.24,2.22-.28,2.46-1.62a.8.8,0,0,1,1.11-.6c-.45,1.05-.89,2.08-1.34,3.11a17.18,17.18,0,0,0,2.16-.64c1.18-.7,1.72-.36,2.22.68.14.3.42.19.55,0,.6-.76,2.07-1.05,1.37-2.53A.54.54,0,0,1,27,29a.77.77,0,0,1,.86.18c1.35,1.22,1.36,1.22,2.51-.27.33-.43.74-1,1.3-.61s-.17.73-.29,1.11c-.05.16-.13.32-.2.49,1.25.48,1.69-.36,2.28-1.12s0-1.06-.37-1.52a1.67,1.67,0,0,1-.22-2c.19-.35.17-1,.81-.85s.48.7.31,1.13c-.48,1.21.17,1.7,1.29,2.07V26.15c0-.34.09-.65.51-.64s.5.31.52.65,0,.54,0,.81c0,.7,0,1.32.81,1.68a1.79,1.79,0,0,0,2.29-.48c-2.23-.21-1.69-1.78-1.75-3.07a.6.6,0,0,1,.47-.71c.43-.07.51.3.59.59a2,2,0,0,1,.17.91c-.21,1.06.65,1.25,1.26,1.64s1.26.29,2-.47c-2.64-.32-2-2.51-2.51-4A.89.89,0,0,1,40,21.86c.25-.14.4,0,.55.18s.13.75.56.6.51-.58.58-1c.11-.69-.32-1.19-.6-1.74s-.24-.81.17-1.08.59.23.78.47c1.28,1.7,1.21,2.75-.23,4.41-.46.52-1.15,1.09-.34,1.77a5.94,5.94,0,0,0,1.9,1c.48.16,1.23.17,1.07-.64-.21-1.1.55-1.33,1.23-1.62a57.64,57.64,0,0,0,6.58-3.05A24.4,24.4,0,0,1,57.17,19c1.14-.36,2.36-.55,3.22.66.35.05.54.19.28.54,1,.31.55,1,.42,1.6a3.34,3.34,0,0,0,1.65,3.76c.77.46,1.82.48,2.19,1.59.14.42.65,0,.94-.09s.71-.6,1.12-.68,1.24-.3,1.35.6-.33,1.16-1.09,1.16c-.41,0-.81,0-1.21,0a1.73,1.73,0,0,0-1.68.91,25.88,25.88,0,0,0-.9,2.48c1.09,0,1.26-1.06,2-1.48.4.83-.43,1.6,0,2.35,1.1-.54,2.25-.94,2.66-2.23,0,0,.16-.07.24-.1s.24-.16.28-.13.08.26-.06.37c-.2.82.27,1.44.71,2.19a2,2,0,0,1,1.49-.77c1.73-.18,1.91-.62,1.52-2.37-.19-.86-.51-1.9.18-2.66s.71-1-.16-1.3a15.49,15.49,0,0,0-1.7-.34.61.61,0,0,1-.52-.54c0-.4.36-.3.59-.37s.87.23.87-.29-.46-.84-1-.86c-.4,0-.81,0-1.21,0s-1-.24-.95-.76.61-.34,1-.42.63.18.83-.2a1.77,1.77,0,0,0-1.81-1.14,1.54,1.54,0,0,1-1.79-1.27c-.19-1,.82-.7,1.31-.93A3.05,3.05,0,0,0,70,15.35a3.12,3.12,0,0,0-2-3.08,12.15,12.15,0,0,0-1.9-.65c-.64-.17-1.11-.57-1-1.21.16-1.3-.54-.92-1.19-.71a1.76,1.76,0,0,0-1.32,1.52c-.18,1.23-1.05,1.65-2.19,1.67.42.81-.89.82-.72,1.49a2.59,2.59,0,0,0,3.08-1.29c.05-.12.13-.2.25-.11s-.06.17-.1.27c.08.41-.09.94.48,1.14.84.29.52-1,1.24-.91.27,1.67.26,1.64,1.68,1a.91.91,0,0,1,1.35.47.8.8,0,0,1-.56,1.16,2.77,2.77,0,0,1-1.73,0c-3.51-1.17-7-.74-10.44.25-3.72,1.06-7.51,1.8-11.39.78-.29-.07-.53-.12-.61.27s-.28.36-.46.14c-.56-.69-1.45-1.17-1.48-2.23.72-.21.84.72,1.44.59A3.37,3.37,0,0,0,42,13.58a2.7,2.7,0,0,1-.22-1.81,1.67,1.67,0,0,0-1.63-2.29,3.22,3.22,0,0,1-.85-.34c-1.54-.53-3-1.52-4.76-.88C33.15,8.8,31.8,9.58,30,9.53c2.13,1,2.2,1.17,1.3,2.21-.11-.21-.21-.41-.32-.6-.23-.38-.54-.87-1-.7s-.27.76-.18,1.1a3.14,3.14,0,0,1-.29,2.31,2.79,2.79,0,0,0-.2,2.09c.52,0,.67-.79,1.36-.51-.24,1.23-1.43,1.78-1.95,3a2,2,0,0,0-1-1.37,14.34,14.34,0,0,1-2.51-2,2,2,0,0,1-.44-2.55c.82-1.61.56-2.75-.84-4.21-.12.53,0,1.28-.56,1.39s-.87-.53-1.21-.93-.73-.79-1.36-.48c0,.38.57.58.33,1s.13.61.32.87c.07.1.21.24.19.28-.14.22-.27.08-.39-.05a5,5,0,0,1-.67,0c-.52-.08-1.12-.38-1.56-.23-1,.35.5.78.06,1.36a1.35,1.35,0,0,0,.22,1.85c1,.82.56,1.41-.25,1.79-.59.28-.43.53-.13.75.91.65,1.6,2,3.09,1a.71.71,0,0,1,1,.2.77.77,0,0,1-.06,1.1c-1.3,1-.1,1.15.52,1.39a11.11,11.11,0,0,0,1.46.25c.35.07.78.21.75.63s-.48.26-.76.31-.36,0-.36.19c.65,1.57,2.64.41,3.42,1.67-.36.51-.89.19-1.27.43.54,1,1.52,1,2.72,1.22-.9.58-1.57,1-2.22,1.44-1.59,1.11-3.21,1.91-5.24,1.05-.37-.15-1.65-.55-1.18.89C20.73,27.68,20.52,27.83,20.4,27.86Zm45.78,1.71s-.07-.05-.09-.09a.28.28,0,0,1,0-.09h.09ZM20.61,14.31c-.16,0-.38,0-.33-.31s.26-.33.5-.33a.31.31,0,0,1,.32.34A.37.37,0,0,1,20.61,14.31Zm2.92-4c-.05,0-.1-.14-.09-.2s.09-.13.15-.19.12.13.13.2S23.68,10.36,23.53,10.31Zm16.71-.09c.22-.17.65-.25.72,0,.23.67-.47,1-.61,1.73C39.7,11.17,39.67,10.67,40.24,10.22Zm-.71,2.31c-.49.75-1.18.86-1.27,1.55,0,.32-.56.38-.79.16a3.12,3.12,0,0,1-1-1.3c-.11-.44.48-.39.82-.4C38,12.52,38.62,12.53,39.53,12.53Zm-2.3-2.64c.77-.06,1,.53,1.3,1.07.08.18-.11.34-.3.33-.75-.06-.89-.74-1.24-1.26C37.15,9.93,37.19,9.89,37.23,9.89ZM35.62,9.6a2.44,2.44,0,0,1,1.11,1.6c.05.21-.19.32-.35.27-.76-.23-1-.93-1.3-1.56C35,9.66,35.28,9.59,35.62,9.6Zm-1,1.23c.08.17,0,.41-.19.4-.77,0-.92-.67-1.3-1.28A1.18,1.18,0,0,1,34.6,10.83Zm-.73,1.71c.41,0,1.11-.21,1.15.31a1.63,1.63,0,0,1-1,1.42c-.5.24-.83-.16-.93-.66s-.76-.31-.74-1.08C32.91,12.53,33.39,12.5,33.87,12.54Zm-2.29.16c0,1.48.41,2.4,1.71,2.76.43.12.4.67.58,1a.73.73,0,0,0,.94.32c.42-.12.54-.41.34-.83s-.35-.74.1-.92a1.36,1.36,0,0,1,1.3.05c.37.28.11.66-.09.95s-.18.59.2.72,1.06.17,1.15-.33c.15-.9.81-1.1,1.44-1.41.87-.43.58-1.43,1-2.1A1.62,1.62,0,0,1,40,15.59,4.53,4.53,0,0,0,37.85,20c.1,1.76,0,1.89-1.84,1.87l-.94,0c-1.08.1-1.54-.51-1.39-1.46a4.51,4.51,0,0,0-2.14-4.94C30.48,14.8,30.51,14,31.58,12.7ZM29,20.89a10,10,0,0,1,.75-1.71c.14-.26.14-.85.66-.61a.77.77,0,0,1,.34,1c-.24.72-.78,1.32-.72,2.14,0,.41,0,.87.43,1.06s.44-.36.61-.6.34-.31.55-.12a1.27,1.27,0,0,1,.58,1.15c-.14.73-.34,1.46-.61,2.54a8.5,8.5,0,0,0-2.18-2.27C28.54,22.92,28.64,21.83,29,20.89Z"/><path class="cls-3" d="M60.39,12.89h0Z"/><polygon class="cls-3" points="60.4 19.62 60.39 19.61 60.39 19.61 60.4 19.62 60.4 19.62"/><path class="cls-3" d="M60.12,71.87h0v0h0Z"/><path class="cls-3" d="M61.74,64.61Z"/><polygon class="cls-3" points="26.44 75.38 26.45 75.38 26.44 75.38 26.44 75.38"/><path class="cls-3" d="M71.57,77.59a1.59,1.59,0,0,1-1.71-1.1l1.74-.19c-.41-1.29-1.41-1-2.26-1.08-.43,0-.9-.11-.91-.6s.57-.37.92-.46.61.18.83-.14A1.88,1.88,0,0,0,68,72.77c-.91.07-1.31-.61-1.48-1.3-.21-.84.63-.66,1.07-.81a3.13,3.13,0,0,0,.25-6c-.53-.22-1.09-.38-1.65-.55S65.05,63.63,65.1,63c.09-1.44-.68-1-1.4-.72a1.56,1.56,0,0,0-1.1,1.53c0,.54-.14,1-.86.85a.57.57,0,0,1-.8.54c-.11.82-1.2.91-1.39,1.73,2.16-.12,2.16-.12,3.15-1.33.1,0,.24-.15.27-.12s.09.25,0,.35c.5,3,1.2-.46,1.81.07a1.42,1.42,0,0,1,0,.36c0,.56,0,1.11.54,1.4.76.37.54-.51.86-.71a.93.93,0,0,1,1-.09,1,1,0,0,1,.55.86.75.75,0,0,1-.61.78,3.12,3.12,0,0,1-1.84,0c-3.51-1.13-7-.68-10.42.3s-6.78,1.77-10.32,1c-.4-.09-1-.38-1.15-.22-1.21,1.12-1.35-.41-1.93-.75-.29-.17-.76-.63-.37-1s.64.27,1,.45l.41.15A2.8,2.8,0,0,0,42.4,67a6.56,6.56,0,0,1-.53-3.49c.13-.83-.18-1.88-1.54-1.54-.4.1-.66-.2-1-.34-1.6-.64-3.15-1.54-5-.83-1.3.49-2.48,1.27-4,1.3.22.42.55.28.77.39.43.21.78.5.71,1,0,.2-.16.5-.32.55-.61.21-.48-.47-.73-.7s-.48-.51-.79-.43-.3.56-.23.81a4.37,4.37,0,0,1-.42,3,2.83,2.83,0,0,0-.1,1.75c.58,0,.7-.75,1.35-.5-.16,1.26-1.47,1.74-1.92,2.88-.07-.75-.61-1-1.1-1.33a17.09,17.09,0,0,1-2.37-2,2,2,0,0,1-.44-2.76c.73-1.41.45-2.59-.78-3.92-.54,1.6-.57,1.6-1.89.34a2.36,2.36,0,0,0-.63-.47c-.18-.08-.61,0-.51.17.31.56-.26,1.36.5,1.76.05.1.16.25.13.29s-.27.06-.37-.08c-.88.2-1.71-.54-2.78-.14.69.46.55,1,.42,1.58a1.44,1.44,0,0,0,1.33,1.89c.32,0,.85-.26.84.3s-.5.27-.83.29c-.64,0-1.61,1.14-1.37,1.52a2.68,2.68,0,0,0,3.08,1c.38-.13.7-.17,1,.15a.82.82,0,0,1,0,1.11,4.57,4.57,0,0,1-.67.59c.64,1.56,2.67.32,3.38,1.71-.35.5-.93.06-1.32.34a2.36,2.36,0,0,0,1.94,1.12c1.29.12,1.3.2,1.68,1.08H26.45a2.62,2.62,0,0,0,1.77,1.08c.24,0,.6.06.61.39s-.3.41-.53.55c-.76.46-1.55.89-2.29,1.39a3.5,3.5,0,0,1-3.3.53,4,4,0,0,0-1.19-.2c-.55,0-.66.13-.53.77,0,.23,0,.36-.23.37-2.21.19-2,2.11-2.72,3.58,1.71-.66,2.13-.5,2.55.83a2.54,2.54,0,0,1,.46-.24c1.22-.28,2.36-.64,2.65-2.09.05-.12.13-.22.26-.12s-.06.18-.1.28a3.57,3.57,0,0,0,0,.8A2.24,2.24,0,0,0,25,84.8c.45.25,1.81-1.76,1.64-2.43-.12-.46-.1-.81.35-1s.65.06.88.38c.74,1,1.44,1,2.22-.08.33-.46.62-1.27,1.27-.9s-.14.95-.21,1.46c0,.06.06.14.1.22,1.24.25,1.71-.63,2.27-1.47s-.37-1-.64-1.49a1.83,1.83,0,0,1,0-2c.17-.29.09-.94.73-.68a.73.73,0,0,1,.34,1c-.53,1.24.11,1.79,1.25,2.3,0-.54,0-.93,0-1.33s0-.78.48-.81.52.38.54.75c0,.22,0,.45,0,.67,0,.72.05,1.37.81,1.67a2,2,0,0,0,2.29-.45c-1.9-.24-1.76-1.5-1.75-2.72,0-.47,0-1,.49-1.12s.5.6.71.93a.79.79,0,0,1,0,.53c-.21,1,.44,1.32,1.16,1.68a1.57,1.57,0,0,0,2-.4c-1.61-.48-2.54-1.36-2.21-3.07a1.13,1.13,0,0,0-.13-.51c-.21-.56-.47-1.18.18-1.57.81-.48.57.73,1.11.79a1.28,1.28,0,0,0,.29-.23,1.93,1.93,0,0,0-.17-2.47.92.92,0,0,1,0-1.23c.18-.21.35-.19.57,0a3.48,3.48,0,0,1,.7,4.05c-.31.49-.77.88-1.07,1.37s-.58,1.05.18,1.34,1.55,1.35,2.66.79c.28-.14.16-.48.14-.74a1,1,0,0,1,.73-1.15c4-1.48,7.62-3.78,11.57-5.36,1.08-.44,2.39-.78,3.41.36.23-.05.35,0,.28.27.25-.07.32,0,.27.28.8.39.6,1,.46,1.7a3.14,3.14,0,0,0,1.8,3.9c.32.16.76.21,1,.46a1.92,1.92,0,0,0,3.08.35.84.84,0,0,1,1.36.55c.11.76-.29,1.18-1.08,1.19a2.67,2.67,0,0,1-.4,0c-2.67-.27-2.53.77-3.21,3.31.54-.25,1.14-.37,1.26-1.08,0-.23.14-.47.42-.38s.15.41.1.65A3.77,3.77,0,0,0,65.5,85c.46-1.13,1.77-.55,2.09-1.61.11-.36.22-.78.62-.77.55,0,.23.54.34.83.19.49.36,1.33,1,1.07A15.6,15.6,0,0,1,71.41,84c1-.3,1.32-.78,1.07-1.89s-1.16-2.32.52-3.14c.29-.14,0-.67-.2-.94A1.56,1.56,0,0,0,71.57,77.59Zm-48-14.92a1.17,1.17,0,0,1-.14-.3s.09-.11.17-.21a2.28,2.28,0,0,1,.13.35C23.72,62.56,23.62,62.62,23.56,62.67ZM21.13,82.2c0,.51.1,1.09-.55,1.34a.34.34,0,0,1-.3-.16A1.12,1.12,0,0,1,20.9,82c.1-.24.27-.57.53-.33S21.33,82.05,21.13,82.2Zm18-16.69c-.88-.08-.49,1.41-1.39,1.23-.64-.12-.8-1-1.27-1.4.62-.66,1.42-.23,2.13-.32C38.83,65,39.15,65,39.12,65.51Zm-1.55-3.13c.59.12.76.64,1,1.06,0,.3-.21.36-.35.31a1.47,1.47,0,0,1-1-1.11C37.17,62.41,37.41,62.34,37.57,62.38ZM35.44,62a2.48,2.48,0,0,1,1.27,1.43c.06.36-.15.5-.38.44-.75-.18-.93-.9-1.24-1.47A.29.29,0,0,1,35.44,62Zm-1.75,2.87c.55.11,1.44-.15,1.33.63-.05.33-.32,1.44-1.19,1.32a2,2,0,0,1-1.36-1.55C32.34,64.55,33.28,65,33.69,64.83ZM31.6,78.11A13.65,13.65,0,0,0,29.4,76c-.92-.69-.76-1.84-.41-2.85.3-.83.71-1.63,1.1-2.53a1.34,1.34,0,0,1,.42,1.93A3,3,0,0,0,30,74.19c0,.4,0,.88.41,1s.47-.36.63-.64c.32-.56.57-.18.78.1C32.63,75.83,31.7,76.77,31.6,78.11ZM40.05,68A4.55,4.55,0,0,0,38,72.83c.16,1-.32,1.65-1.48,1.54-.45,0-.9,0-1.34,0-1.15,0-1.62-.57-1.45-1.7a4.18,4.18,0,0,0-2-4.6c-1.09-.68-1.16-1.75-.12-2.93-.66,2.28,2,2.28,2.39,3.86.08.31.59.32,1,.18s.39-.43.24-.75-.32-.72.12-.92a1.39,1.39,0,0,1,1.18,0c.46.26.14.62,0,.93s-.32.53.1.63,1.14.25,1.26-.35c.15-.78.67-.92,1.24-1.17.94-.43.94-1.42,1.12-2.66C41.08,66.28,41.06,67.24,40.05,68Zm.44-3.76c-.66-.32-.77-.73-.56-1.15a1.22,1.22,0,0,1,1.64-.56C41.26,63.11,40.5,63.35,40.49,64.19ZM68.66,82.35l-.14-.1s.07-.08.1-.08.06.06.09.09Z"/><path class="cls-3" d="M60.4,72.15h0Z"/><path class="cls-3" d="M72.14,51.44c-.49-.08-1-.14-1.46-.25-.32-.06-.62-.24-.58-.62s.38-.27.62-.34.86.25.83-.34a.94.94,0,0,0-.94-.81c-.49,0-1,0-1.48,0a.75.75,0,0,1-.78-.77c0-.39.42-.36.73-.42s.86.22.88-.29a1,1,0,0,0-.88-.89,6.46,6.46,0,0,0-1.08,0c-.9,0-1.26-.67-1.46-1.36-.27-.94.66-.64,1-.8C69.13,43.84,70,42.9,70,41.57a3.28,3.28,0,0,0-2.36-3.24,11,11,0,0,0-1.41-.44c-.79-.21-1.3-.62-1.15-1.52.1-.61-.19-.71-.69-.59-.91.22-1.79.53-1.79,1.67a1.33,1.33,0,0,1-.83,1.24,7.67,7.67,0,0,0-2.39,2c1.45,0,2.76-.07,3.56-1.55,0,.65-.13,1.16.39,1.47s.5-.57.95-.45c.52.69.82,2.19,2,.51.19-.28.67-.19,1,0a.88.88,0,0,1,.4.93.75.75,0,0,1-.69.71,3.7,3.7,0,0,1-1.87,0c-3.53-1.2-7-.59-10.43.36s-7.15,1.8-10.86.81c-.17,0-.43-.11-.52,0-.81.71-1.21,0-1.63-.47s-1-.7-.65-1.16.74.33,1.15.46c.07,0,.16,0,.27-.06a4.17,4.17,0,0,0,0-1.06c-.34-1.27-1-2.48-.56-3.88.08-.21,0-.52-.27-.54s-.64.25-.87.53-.15.69-.56.65c-.13,0-.3-.32-.35-.51a.83.83,0,0,1,.45-1c.31-.17.76-.1,1.06-.67a4.25,4.25,0,0,1-3-.69c-2-1.18-3.87-.57-5.76.23-.44.19-.81.58-1.37.44a1.05,1.05,0,0,0-1.37,1.18c.19,1.65-.43,3.13-.66,4.68,0,.19-.1.46.23.61l.4-.28c.23-.18.46-.61.76-.38s0,.66-.18.92c-.54.68-1.12,1.33-1.83,2.17,0-.82-.53-1-.93-1.26a28,28,0,0,1-2.4-1.95,2.12,2.12,0,0,1-.45-2.88,3,3,0,0,0-.89-3.84c-.39.59-.07,1.28-.24,2.05-.71-.77-1.31-1.46-1.95-2.11a.63.63,0,0,0-.74-.19c-.45.23.06.42,0,.62-.05.65.19,1.55-.81,1.62s-1.14.18-1.24,1c0,.18-.12.34-.14.52a1.43,1.43,0,0,0,.49,1.46c1.13.65.32,1.12-.09,1.61-.18.21-.64.17-.51.64.19.67,2.09,1.69,2.74,1.42s1.13-.6,1.5.14-.19,1.19-.85,1.45a2.39,2.39,0,0,0,2.15,1.06c.48,0,1.14,0,1.14.65s-.75.16-1.11.49a2.56,2.56,0,0,0,2.18,1.07c.52,0,1.25.09,1.27.71s-.79.07-1.11.46a2,2,0,0,0,1.78,1c.35,0,.64.14.33.59-.84,1.2-4.67,2.59-6.16,2.22-.74-.18-1.48-.45-2.11.32l.41.09c.16,0,.37,0,.27.32-2.08.61-2.85,1.65-2.84,3.7,1.61.31,1.88-1.41,3-2.22.07,1.32-.66,2.18-.78,3.22.85-1.05,3.07-.11,2.94-2.37.49.39.26.75.38,1,.26.59.62,1.37,1.2,1.43.75.07,1.76-1.65,1.62-2.49-.06-.39-.06-.73.32-.92s.72,0,1,.39c.65.89,1.42.86,2.09-.06.37-.49.68-1.33,1.39-.92s-.33.95-.23,1.5c1,.33,1.57-.16,2.11-.94s.16-1.31-.37-1.84a2,2,0,0,1-.2-.35c-.48-.88.18-1.54.44-2.27a.31.31,0,0,1,.46-.1c.75.49.28,1.1.16,1.68a.92.92,0,0,0,.05.52,1.36,1.36,0,0,0,1.09.9c.46,0,.24-.48.29-.75.09-.47-.22-1.27.61-1.21.67.06.35.79.43,1.24a2.67,2.67,0,0,1,0,.4,1.44,1.44,0,0,0,1,1.57,1.73,1.73,0,0,0,1.93-.36c-1.65-1.17-1.76-1.42-1.59-3.19,0-.39.12-.75.55-.81s.44.36.54.63a2.85,2.85,0,0,1,.17.78A1.88,1.88,0,0,0,42,53.48a8.14,8.14,0,0,1-2.16-3.65.56.56,0,0,0,0-.12c-.27-.62-.43-1.31.31-1.64s.43.84,1,.93a1.78,1.78,0,0,0,.19-2.49c-.39-.52-.59-1.19.06-1.51s.72.52,1,.87c1,1.54.88,2.5-.5,4.09-.38.45-1,1-.54,1.47a3.29,3.29,0,0,0,2.85,1.2c.16,0,.71,0,.41-.54-.44-.84.17-1.24.83-1.51,2.87-1.17,5.63-2.55,8.38-4C55.36,45.78,57,44.78,59,45A2.21,2.21,0,0,1,61.1,47.9,3.33,3.33,0,0,0,63.16,52c.4.19,1,.26,1.18.57.71,1.31,1.43.93,2.28.19a1.09,1.09,0,0,1,1.48,0,.91.91,0,0,1,.17,1.12,1,1,0,0,1-1.24.59c-2.74-.5-2.8.8-3.37,3.24,1.33.12,1-1.95,2.51-1.91-.42.95-1.08,1.75-.79,2.66,1.54-.1,2.22-1.22,3-2.23.11-.15.25-.25.38-.06s-.09.19-.14.29A1.93,1.93,0,0,0,69,58.14c.13.14.23.53.45.3.67-.71,1.61-.46,2.36-.79A1.13,1.13,0,0,0,72.48,56c-.48-.87-.19-1.76-.31-2.64a.58.58,0,0,1,.22-.59c.23-.17.85.38.73-.37A1.12,1.12,0,0,0,72.14,51.44ZM20.71,40.62a.4.4,0,1,1,0-.8c.26,0,.4.14.43.39S21,40.63,20.71,40.62Zm16.81-4.53a1.23,1.23,0,0,1,.86.85c.07.33-.06.51-.33.46a1.15,1.15,0,0,1-.87-.9A.29.29,0,0,1,37.52,36.09Zm2.16,2.83c-1,.47-1.16,1.5-1.88,1.65s-.68-1-1.34-1.37c-.13-.06.37-.51.74-.5A6.61,6.61,0,0,1,39.68,38.92Zm-4.29-3.14a2.51,2.51,0,0,1,1.36,1.43c0,.32-.19.51-.42.43-.73-.26-1-1-1.26-1.58C35,35.85,35.23,35.73,35.39,35.78Zm-1.83.27c.56,0,.82.44,1,.9.1.22,0,.43-.29.47-.51-.09-.76-.52-1-.93C33.14,36.25,33.29,36,33.56,36.05Zm.12,2.6c.55.16,1.32-.28,1.59.62-.74.19-.6,1.47-1.41,1.33A2.08,2.08,0,0,1,32.47,39C32.35,38.46,33.26,38.84,33.68,38.65Zm-3.56-2.33c.7-.15,1.18-.16,1.54.25a.8.8,0,0,1,0,1.19c-.46.39-.52-.16-.69-.41S30.46,36.75,30.12,36.32ZM31.65,52a10,10,0,0,0-2.3-2.28c-.88-.62-.7-1.77-.37-2.72s.71-1.69,1.1-2.58a1.33,1.33,0,0,1,.44,1.91A3,3,0,0,0,30,48c0,.4-.05.88.38,1.06s.49-.33.65-.6c.32-.55.57-.2.78.09C32.62,49.65,31.64,50.59,31.65,52ZM40,41.81a4.48,4.48,0,0,0-2,4.77c.19,1.13-.45,1.79-1.54,1.51-.81-.21-1.68.59-2.41-.27s0-1.55-.15-2.31a4.9,4.9,0,0,0-2.17-3.72C30.49,41,30.47,40,31.59,39a2.32,2.32,0,0,0,1.74,2.72.65.65,0,0,1,.3.41c.18.66.56,1.06,1.26.84s.12-.72.12-1.1,0-.57.29-.67a1.56,1.56,0,0,1,1.18,0c.36.2.27.53.1.82s-.5.75.15.92c.44.11.91.11,1.15-.41.13-.28,0-.74.36-.82,1.45-.3,1.75-1.46,1.95-2.79C41.11,40.13,41,41.08,40,41.81Z"/><path class="cls-3" d="M60.4,19.62h0l0,0,0,0Z"/><path class="cls-3" d="M60.66,20.16h0Z"/><path class="cls-3" d="M60.37,19.64c-.44.36-.79-.12-1.19-.14-.87-.06-2-.44-2.41.53a2.1,2.1,0,0,1-2,1.29c-2.45.27-4.21,1.39-4.91,3.86-.07.24-.37.41-.23.73L50.7,26C49.77,28,49,28.32,47.09,27.75c-2.33-.69-4.27.62-4.72,3.29,1.3-1,1.56-.3,1.34.89a3.34,3.34,0,0,0,2-1.43c.09-.17.18-.48.43-.26s0,.37-.19.5V32.3c1.19-1.11,3.59,0,3.75-2.45.4.18.55.36.55.59,0,1.33.69.79,1.25.46a1.41,1.41,0,0,0,.62-.68c.3-.88,1-1.25,1.76-1.73.18.44.32.8.48,1.18.61-.49,1-1,.75-1.77-.23-.64-.51-1.57.28-1.73s.6,1,.91,1.51a1.45,1.45,0,0,0,.66-1.84c-.23-.6-.4-1.47.32-1.63s.61.78.79,1.28c0,.1-.07.31.2.23a1.87,1.87,0,0,0,.66-1.79,1.72,1.72,0,0,1,.76-1.75,2.26,2.26,0,0,0,1-2C60.27,20.13,60.12,20,60.37,19.64Zm-16.28,11c-.21,0-.27-.15-.23-.34a.57.57,0,0,1,.37-.47c.25-.08.28.09.31.25S44.38,30.56,44.09,30.59Zm1-1.19c-.15.19-.35.49-.55.23s.12-.38.35-.45.27-.21.4,0C45.33,29.17,45.19,29.31,45.12,29.4Z"/><path class="cls-3" d="M60,48c.35-.24.64-.51.54-1a1.76,1.76,0,0,0-1.53-1.32c-.82-.21-2-.29-2.2.39-.43,1.37-1.47,1.36-2.42,1.49a5.28,5.28,0,0,0-4.77,4.5l1.25.07c-1.29,2-2,2.33-3.69,1.82-2.51-.74-4.31.44-4.87,3.3,1.44-1.11,1.62-.37,1.31,1a5.5,5.5,0,0,0,2.2-1.68c0,.75.06,1.27.09,1.8,1.37-.69,3.47-.05,3.8-2.47,1.1,2,1.24,1.92,2.61,0a7.6,7.6,0,0,1,1.28-1.18s.15,0,.24,0c.16.34.31.69.47,1.06.65-.5,1-1,.69-1.77-.23-.62-.46-1.55.36-1.72.62-.14.55.85.76,1.35a1.09,1.09,0,0,0,.15.18A1.49,1.49,0,0,0,56.94,52c-.23-.58-.43-1.45.35-1.58.62-.11.65.79.76,1.34a.72.72,0,0,0,.15.19,1.63,1.63,0,0,0,.71-1.52A2.35,2.35,0,0,1,60,48ZM44.89,55.83a.77.77,0,0,1-.49.61c-.08.21-.21.46-.43.31s0-.42.13-.6a.64.64,0,0,1,.54-.6c.14-.13.3-.21.42,0C45.09,55.58,45,55.73,44.89,55.83Zm.58-.46-.12-.08s.06-.07.09-.07.05.05.08.08Z"/><path class="cls-3" d="M60.38,72.16c-.26.08-.38,0-.27-.27-.51.33-1,0-1.51-.06-.67,0-1.6-.12-1.79.54-.37,1.29-1.38,1.33-2.3,1.43a5.09,5.09,0,0,0-4.77,4.32c.33.35.88-.06,1.2.34-1.54,2-2,2.25-3.89,1.7-2.35-.7-4.31.65-4.65,3.21L43.53,83c.5-.83.94-1.73,2.46-1.65-1.06.57-1.31,1.59-2.21,2,.07.36-.4.72,0,1.07a4.12,4.12,0,0,0,2-1.53c.09-.06.23-.2.26-.18.21.14.09.26-.05.38,0,.48,0,1-.08,1.77.78-.83,1.64-.49,2.37-.72a2.7,2.7,0,0,0,1.51-1.77C50.9,84,51.21,84,52.32,82.18a.6.6,0,0,1,.06-.11c.75-1.11,1.34-1.14,2.12-.11A1.39,1.39,0,0,0,55,80.2c-.21-.54-.4-1.36.26-1.53s.68.72.88,1.21c0,.12.07.17.35,0A1.31,1.31,0,0,0,57,78.24c-.21-.58-.5-1.44.31-1.59.66-.12.68.77.8,1.32,0,0,.12,0,.19.08a1.71,1.71,0,0,0,.65-1.79,1.44,1.44,0,0,1,.59-1.54,2.47,2.47,0,0,0,1.16-2.3C60.37,72.53,60.29,72.43,60.38,72.16Z"/><path class="cls-3" d="M60.66,72.42h0Z"/><path class="cls-3" d="M60.38,72.16h0Z"/><path class="cls-3" d="M49.15,37.85c1.26,1.23,2.13,1,4.5-1.19a12,12,0,0,1-4.72-.37,4.78,4.78,0,0,0-3.63.57A2.82,2.82,0,0,0,45,41.75a6.42,6.42,0,0,0,5,.78c2.12-.36,4.11-1.28,6.22-1.66,2.29-.42,3.77-2,5.92-3.3a35.21,35.21,0,0,0-6.34,1.64C53.31,40,50.8,41,48.05,41a2,2,0,0,1-2-1.08.79.79,0,0,1,.28-1.07c.31-.2.7-.14.8.19.19.66.53.87,1.17.63s.78-.89.62-1.56c-.16-.09-.47-.14-.26-.4S49,37.66,49.15,37.85Z"/><path class="cls-3" d="M61.82,11.49c-.25-.23-.5-.05-.74,0-2.82.58-5.47,1.73-8.25,2.45-1.8.47-3.59,1.19-5.53.72a1.54,1.54,0,0,1-1.28-1c-.12-.41-.12-.84.36-1a.59.59,0,0,1,.85.4c.11.43.27.66.73.52s.86-.24,1-.76c.1-.32-.19-.72.21-1,1.17,1.07,3,.5,4.09-1.23a19.28,19.28,0,0,1-2,0,13.46,13.46,0,0,1-2-.39A5.8,5.8,0,0,0,47,10a3.6,3.6,0,0,0-3.25,2.61c-.3,1.69,1,3.26,3,3.66,2.3.47,4.46-.16,6.59-.82,2.39-.74,4.89-1.2,7-2.61C60.49,12,61.54,12.16,61.82,11.49Z"/><polygon class="cls-3" points="60.39 12.89 60.4 12.88 60.39 12.88 60.39 12.89"/><path class="cls-3" d="M61.75,64.6h0Z"/><path class="cls-3" d="M60.93,65.13v0h0Z"/><path class="cls-3" d="M61.74,64.6c0-.56-.08-.89-.78-.67-1.36.42-2.74.78-4.11,1.18-2.9.86-5.71,2.1-8.82,2a2.23,2.23,0,0,1-1.72-.57c-.39-.43-.59-1-.07-1.41s.94-.19,1,.47c.07.42.34.3.6.28,1.07-.08,1.28-.51.85-1.78a2.55,2.55,0,0,1-.21-.23c.13-.17.27-.11.39,0,1.54,1,1.54,1,2.37.66a8.24,8.24,0,0,0,2.41-1.77,6.58,6.58,0,0,1-3.9-.15,6.59,6.59,0,0,0-3.18-.14,3.52,3.52,0,0,0-2.84,2.56,2.79,2.79,0,0,0,1.51,3,5.36,5.36,0,0,0,2.42.71A10.86,10.86,0,0,0,52,68.29c2.78-1,5.93-1.07,8.3-3.17.18-.16.46-.3.68,0C60.82,64.38,61.21,64.39,61.74,64.6Z"/><polygon class="cls-3" points="26.44 75.38 26.44 75.38 26.41 75.35 26.44 75.38"/><path class="cls-3" d="M35.7,21.09c.49-.13,1.32.38,1.34-.55,0-.6-.65-.6-1.14-.59s-1.2-.11-1.26.62S35.29,21,35.7,21.09Z"/><path class="cls-3" d="M35.92,71.48c.24-.17,1,.4.94-.51a.94.94,0,0,0-1-.86c-.48,0-1.14.13-1.19.73C34.61,71.67,35.3,71.49,35.92,71.48Z"/><path class="cls-3" d="M35.74,72.28c-.52,0-1.1.16-1.08.72,0,.79.75.27,1.13.45.43-.16,1.18.32,1.23-.37S36.32,72.3,35.74,72.28Z"/><path class="cls-3" d="M35.89,19c.18-.34.94.71,1-.33a.84.84,0,0,0-1.06-.85c-.37.07-1.14-.13-1.16.65S35.29,19.12,35.89,19Z"/><path class="cls-3" d="M35.91,46.09c-.54,0-1.21,0-1.26.67-.07.84.68.4,1.1.53.43-.15,1.22.35,1.26-.5C37,46.24,36.44,46.08,35.91,46.09Z"/></g></svg>