<svg xmlns="http://www.w3.org/2000/svg" viewBox="0 0 386.78 210.3"><g id="Flanders"><polygon points="110.41 45.2 123.76 45.2 123.76 39.83 110.41 39.83 110.41 32.07 124.23 32.07 124.23 26.69 104.82 26.69 104.82 58.17 110.41 58.17 110.41 45.2"/><polygon points="133.25 23.59 132.54 23.59 127.67 24.07 127.67 58.17 133.25 58.17 133.25 23.59"/><path d="M146.61,43.84c-3.32,0-5.49.64-6.83,1.81s-1.86,2.92-1.86,5.09a8.42,8.42,0,0,0,1.36,5,6.38,6.38,0,0,0,3.18,2.32,11.19,11.19,0,0,0,3.63.6,8.83,8.83,0,0,0,3.82-.77A14.39,14.39,0,0,0,152.78,56a7.78,7.78,0,0,0,2.79,2.06,7,7,0,0,0,2.77.55L160.87,54a5.54,5.54,0,0,1-2.63-1.13,3.24,3.24,0,0,1-1.05-2.58V41.05a7.52,7.52,0,0,0-2.77-6.36A10.68,10.68,0,0,0,148,32.88a21.9,21.9,0,0,0-9,2.1l1.31,4.87a18.1,18.1,0,0,1,3.28-1.19,13.13,13.13,0,0,1,3.36-.5,5.3,5.3,0,0,1,3.42,1,4.43,4.43,0,0,1,1.43,3.63V44C149.5,43.84,148,43.84,146.61,43.84Zm5.07,5.8a3.94,3.94,0,0,1-1.82,3.68,5.65,5.65,0,0,1-2.86.76c-2,0-3.49-1.12-3.49-3.15a2.37,2.37,0,0,1,2.15-2.5,29.41,29.41,0,0,1,6-.29Z"/><path d="M169.68,39.8a10.51,10.51,0,0,1,5.4-1.52A6.37,6.37,0,0,1,179,39.42a4.76,4.76,0,0,1,1.7,3.94V58.17h5.58V41.71A8.54,8.54,0,0,0,183.55,35a9.54,9.54,0,0,0-6.28-2.08,14.53,14.53,0,0,0-7.9,2.41l-.55-1.93h-4.73V58.17h5.59Z"/><path d="M201.23,58.65a10.54,10.54,0,0,0,6.66-2.34l1,1.86h4.22V23.59h-.86l-4.73.48v9.07a27.85,27.85,0,0,0-3.65-.24,13.15,13.15,0,0,0-9.46,3.42c-2.34,2.31-3.74,5.8-3.74,10.48a13.2,13.2,0,0,0,2.6,8.22A9.76,9.76,0,0,0,201.23,58.65ZM198.41,40a6.9,6.9,0,0,1,5.16-1.91,17.41,17.41,0,0,1,4,.52V51.74a9.94,9.94,0,0,1-5.08,1.53A5.3,5.3,0,0,1,198,50.93a8.91,8.91,0,0,1-1.53-5.13A8,8,0,0,1,198.41,40Z"/><path d="M232.53,33.5a11.63,11.63,0,0,0-3.65-.6,10.64,10.64,0,0,0-7.67,3.3,13.45,13.45,0,0,0-3.48,9.57c0,4.3,1.48,7.55,3.81,9.68a13.25,13.25,0,0,0,9,3.2,18.83,18.83,0,0,0,3.51-.36,14.32,14.32,0,0,0,3.54-1.13V51.74l-.22-.07a13.42,13.42,0,0,1-6.23,1.63,8.23,8.23,0,0,1-4.51-1.22,6.47,6.47,0,0,1-2.82-4.23h15V44.13a12.52,12.52,0,0,0-2-7.53A8.7,8.7,0,0,0,232.53,33.5Zm-8.83,9.93a6.56,6.56,0,0,1,2.07-3.94A5,5,0,0,1,229,38.28a4.29,4.29,0,0,1,3,1.19,6.26,6.26,0,0,1,1.62,4Z"/><path d="M249,40.11a8.21,8.21,0,0,1,5-1.81,7.92,7.92,0,0,1,4.2,1.24l1.8-5.66a8.34,8.34,0,0,0-2.44-.76A14.59,14.59,0,0,0,255,32.9a9.69,9.69,0,0,0-6.3,2.51l-.58-2H243.4V58.17H249Z"/><path d="M274.64,56.64a7.5,7.5,0,0,0,2.92-6.28,8,8,0,0,0-.43-2.75,6.32,6.32,0,0,0-2.84-3.27,21.53,21.53,0,0,0-3.78-1.57,16.47,16.47,0,0,1-1.65-.63c-1-.45-1.62-1-1.62-1.88a1.85,1.85,0,0,1,1.2-1.67,6.29,6.29,0,0,1,2.74-.53,9.31,9.31,0,0,1,4.27,1l.29-.21v-5a17.18,17.18,0,0,0-5.51-.93,9.86,9.86,0,0,0-6,1.72,6.77,6.77,0,0,0-2.61,5.66,6.68,6.68,0,0,0,.46,2.65,5.56,5.56,0,0,0,2.86,3,27.43,27.43,0,0,0,3.82,1.43,10,10,0,0,1,1.67.67,2.63,2.63,0,0,1,1.63,2.41,2.48,2.48,0,0,1-1.29,2.25,5.75,5.75,0,0,1-2.82.64,10.73,10.73,0,0,1-3.41-.6,16.64,16.64,0,0,1-2.72-1.14l-.2.14V57A11.85,11.85,0,0,0,268,58.7,10.83,10.83,0,0,0,274.64,56.64Z"/><path d="M30.77,64.17c.46,1.25,1.29,3.92,1.84,5.1,1.58,3.45,5.76,8.67,6,13.38.16,2.73.47,5,.54,7a22.48,22.48,0,0,0,.69,4.15c1,2.87,9.27,12.14,18,12.14V99c-8.65,0-16.84-4.91-17-5.43a19.38,19.38,0,0,1,1-5c1.14-2.86,3.29-5.48,7.07-5.75,4.21-.31,6.75.92,9,.92V61.23c-3.2-2.45-4.7,0-6.71-.15-1.7-.14-3.3-2.88-4.61-2.23-2.52,1.28,1,5.8,2.53,6.72a35.62,35.62,0,0,0,3.49,1.76,5.13,5.13,0,0,1,3.08,4.61,9.72,9.72,0,0,1-.14,2.22c-.91,3.91-7.77,7.47-11.7,4.78a8.88,8.88,0,0,1-4.13-5.82c-1.06-5.14-4.77-8.91-6-14-.73-3-1.26-6.28-2.06-9.36s-1.62-6.3-2.27-9.19a83.31,83.31,0,0,0-2.81-9.15c-3.76-9.81-5.45-9.09-5.45-9.09s1.36,2.72,6.34,26.77C27.63,50.09,29.44,60.68,30.77,64.17Z"/><path d="M5.93,61.18A22.48,22.48,0,0,0,7.76,75c2.69,6.46-.37,8.83,1.73,7.52,2.61-2.12,2.21-7.08,2-10.17A43.14,43.14,0,0,1,11.58,64c.72-5.59,4.11-11.61,7-15.8,3.44-5,2.19-10.2,1.53-12.52-.32,5.26-8.46,12.45-11,17.06A34.83,34.83,0,0,0,5.93,61.18Z"/><path d="M26.62,90.8c-3-3.34-5.79-10.69-3.39-21.2,3.45-15.21-1.48-19-1.48-19s.87,4.17-2.8,14.88c-9.62,28,8.74,30.68,14,37.27C32.92,102.79,35,99.94,26.62,90.8Z"/><path d="M10.49,24.78c6.31-4,3.56-10.9,3.56-10.9-.35,1.86-3,3.69-3,3.69-1.49,1-7.47,3.65-7.91,10.24a13.44,13.44,0,0,0,.47,4.46A17.89,17.89,0,0,1,10.49,24.78Z"/><path d="M4.35,52.93s-3.16-6,7-14.36,7.67-12,7.33-12.67A3.09,3.09,0,0,0,15.9,24S18.45,26.1,6,36.49,4.35,52.93,4.35,52.93Z"/><path d="M38.76,36c3,.87,6.15.39,6.85,2.19-1.37.73-.29,3.13,1.09,2.74,1.14-3.2,1.7-15.55-14.87-11.82C33.58,29.34,34.7,34.81,38.76,36Zm-1.47-4.43c.15-.39.36-.07.81-.36a5,5,0,0,1,1.73-1.42,3.06,3.06,0,0,1,1.82.11c.35.08.14,1-.12,1.19-.55.41-2.17-.26-2.17,1,.07,2,2.69-.07,4.07,0C44.09,36.9,36.1,35.56,37.29,31.57Z"/><rect x="77.41" y="-3.54" width="0.6" height="131.79" transform="translate(-16.14 28.91) rotate(-19.13)"/><path d="M111.71,93.47a5.36,5.36,0,0,0,2.2-4.49,4.54,4.54,0,0,0-.7-2.56,6,6,0,0,0-1.77-1.56,30.93,30.93,0,0,0-3.1-1.68,12.56,12.56,0,0,1-2.43-1.42,2.54,2.54,0,0,1-.86-2.07,2.61,2.61,0,0,1,1.25-2.42,5.39,5.39,0,0,1,2.76-.6,18.05,18.05,0,0,1,3.43.41h0v-2a12.37,12.37,0,0,0-3.47-.53,7,7,0,0,0-4.23,1.17,4.86,4.86,0,0,0-1.89,4.16,4.61,4.61,0,0,0,1.56,3.78,17.35,17.35,0,0,0,2.62,1.49A29.67,29.67,0,0,1,110,86.7a3.06,3.06,0,0,1,1.73,2.8,2.75,2.75,0,0,1-1.35,2.5,6.29,6.29,0,0,1-3.13.71,12.87,12.87,0,0,1-2.4-.26,9.16,9.16,0,0,1-2-.57h0V94a9.36,9.36,0,0,0,4,.87A8.23,8.23,0,0,0,111.71,93.47Z"/><path d="M126.3,94l-.63-2.13a6,6,0,0,1-2.93.93,2.41,2.41,0,0,1-2-.9,4.77,4.77,0,0,1-.81-3V81.2h4.32V79h-4.32V75.85h-.15l-2.17.4V79h-1.73v2.2h1.73v7.65A6.68,6.68,0,0,0,119,93.51a4.4,4.4,0,0,0,3.43,1.4A9.59,9.59,0,0,0,126.3,94Z"/><path d="M139.4,91.16a6.12,6.12,0,0,1-.34-2.36v-5a4.43,4.43,0,0,0-3.67-5.08,4.59,4.59,0,0,0-1.17,0,11.63,11.63,0,0,0-3,.3,18.72,18.72,0,0,0-2.7.93l.6,2a11,11,0,0,1,2.37-.87,10,10,0,0,1,2.31-.24,3.19,3.19,0,0,1,2.09.6,3,3,0,0,1,.85,2.36v1.94c-1.38-.12-2.29-.18-3.13-.18a7.26,7.26,0,0,0-4.56,1.15A4,4,0,0,0,127.67,90a4.39,4.39,0,0,0,1.76,4,5.78,5.78,0,0,0,3.3,1,6.39,6.39,0,0,0,2.78-.63,6.57,6.57,0,0,0,2-1.55A4,4,0,0,0,139.86,95l1.32-2.18A2.64,2.64,0,0,1,139.4,91.16ZM136.75,89a3.36,3.36,0,0,1-1.48,3.09,5.07,5.07,0,0,1-2.72.65,3,3,0,0,1-1.45-.47,2.4,2.4,0,0,1-1.1-2.16A2,2,0,0,1,131.76,88a24.59,24.59,0,0,1,5-.24Z"/><path d="M145.57,93.51a4.4,4.4,0,0,0,3.43,1.4,9.47,9.47,0,0,0,3.84-1l-.63-2.13a6,6,0,0,1-2.93.93,2.41,2.41,0,0,1-2-.9,4.77,4.77,0,0,1-.81-3V81.2h4.32V79h-4.32V75.85h-.15l-2.17.4V79h-1.73v2.2h1.73v7.65A6.69,6.69,0,0,0,145.57,93.51Z"/><path d="M155.82,81a9.14,9.14,0,0,0-1.6,5.62,8.65,8.65,0,0,0,2.16,6.28,7,7,0,0,0,5.07,2,9.78,9.78,0,0,0,4.46-1.11V91.65h0a9.2,9.2,0,0,1-4.2,1.11,5,5,0,0,1-3.48-1.32,6,6,0,0,1-1.66-4h9.7v-2.1a12.1,12.1,0,0,0-.32-3,4.62,4.62,0,0,0-1.5-2.51,5.37,5.37,0,0,0-3.5-1A6.07,6.07,0,0,0,155.82,81ZM158,82.15a3.72,3.72,0,0,1,2.85-1.25,2.62,2.62,0,0,1,2.45,1.31,6.65,6.65,0,0,1,.64,3.1h-7.32A6,6,0,0,1,158,82.15Z"/><path d="M179.48,81.11a9.21,9.21,0,0,0-.07,11.43,6.6,6.6,0,0,0,5.13,2.37,6.75,6.75,0,0,0,5.2-2.37,9.31,9.31,0,0,0,.06-11.43,6.8,6.8,0,0,0-9.59-.73,6.29,6.29,0,0,0-.73.73Zm8.73,1.56a7.27,7.27,0,0,1,1.2,4.24,6.88,6.88,0,0,1-1.2,4.17,4.26,4.26,0,0,1-3.54,1.67A4.38,4.38,0,0,1,181,91a7,7,0,0,1-1.23-4.21A6.87,6.87,0,0,1,181,82.58a4.63,4.63,0,0,1,7.21.09Z"/><path d="M196.08,94.61h2.32V81.19h3.53V79H198.4a5.33,5.33,0,0,1,.72-3.1A2.18,2.18,0,0,1,201,75a9.15,9.15,0,0,1,2.74.55l.63-2a12.51,12.51,0,0,0-3.64-.66,4.22,4.22,0,0,0-3.33,1.32A7.13,7.13,0,0,0,196.08,79h-2.52v2.15h2.52Z"/><path d="M212.23,81.2H214v7.65a6.76,6.76,0,0,0,1.4,4.66,4.42,4.42,0,0,0,3.44,1.4,9.47,9.47,0,0,0,3.84-1L222,91.83a6,6,0,0,1-2.93.93,2.41,2.41,0,0,1-2-.9,4.71,4.71,0,0,1-.81-3V81.2h4.32V79h-4.32V75.85h-.15l-2.17.4V79h-1.73Z"/><path d="M227.39,72.89l-2.18.3V94.61h2.33V82.39a13.83,13.83,0,0,1,2-1,5.93,5.93,0,0,1,2.16-.46,3.33,3.33,0,0,1,2.41.81,4.19,4.19,0,0,1,1,3.07v9.84h2.33v-10a5.94,5.94,0,0,0-1.64-4.6,5.57,5.57,0,0,0-3.87-1.31,6.62,6.62,0,0,0-2.2.48,12.92,12.92,0,0,0-2.13,1V72.89Z"/><path d="M248.08,94.91a9.79,9.79,0,0,0,4.47-1.11V91.65h0a9.2,9.2,0,0,1-4.2,1.11,4.92,4.92,0,0,1-3.48-1.32,6,6,0,0,1-1.67-4h9.71v-2.1a12.1,12.1,0,0,0-.32-3,4.62,4.62,0,0,0-1.5-2.51,5.38,5.38,0,0,0-3.51-1A6,6,0,0,0,242.46,81a9.07,9.07,0,0,0-1.61,5.62A8.63,8.63,0,0,0,243,92.91,7,7,0,0,0,248.08,94.91Zm-3.43-12.76a3.72,3.72,0,0,1,2.85-1.25,2.59,2.59,0,0,1,2.44,1.31,6.51,6.51,0,0,1,.65,3.1h-7.32a5.88,5.88,0,0,1,1.38-3.16Z"/><path d="M270.06,74.84l-6.79,19.77h2.4L267.26,90H276l1.59,4.61H280l-6.81-19.77Zm-2.07,13,3.63-10.51,3.63,10.51Z"/><path d="M285.13,83a4,4,0,0,1,3.23-2.08,5.43,5.43,0,0,1,2.14.48l.81-2.09a6.25,6.25,0,0,0-1.27-.4,7.19,7.19,0,0,0-1.31-.14,5,5,0,0,0-3.82,2.07L284.37,79h-1.56V94.61h2.32Z"/><path d="M294.17,88.85a6.7,6.7,0,0,0,1.41,4.66,4.42,4.42,0,0,0,3.44,1.4,9.47,9.47,0,0,0,3.84-1l-.63-2.13a6,6,0,0,1-2.93.93,2.41,2.41,0,0,1-2-.9,4.71,4.71,0,0,1-.81-3V81.2h4.32V79H296.5V75.85h-.15l-2.18.4V79h-1.72v2.2h1.72Z"/><polygon points="2.83 158.23 14.68 158.23 14.68 155.6 2.83 155.6 2.83 147.63 14.68 147.63 14.68 145 0 145 0 169.01 2.83 169.01 2.83 158.23"/><polygon points="18.33 145 18.33 169.01 32.43 169.01 32.43 166.39 21.15 166.39 21.15 145 18.33 145"/><path d="M51.17,169h2.92l-8.27-24H42.05L33.8,169h2.91l1.93-5.59h10.6Zm-11.64-8.2L43.94,148l4.41,12.77Z"/><polygon points="72 163.57 60.39 145 57.46 145 57.46 169.01 60.28 169.01 60.28 150.29 72 169.01 74.82 169.01 74.82 145 72 145 72 163.57"/><path d="M96.17,148.41A12.43,12.43,0,0,0,87.26,145H80.47v24h7.08a12,12,0,0,0,8.71-3.36,12.29,12.29,0,0,0-.09-17.24Zm-1.79,15.47a9.28,9.28,0,0,1-6.83,2.51H83.29V147.63h4a9.54,9.54,0,0,1,6.84,2.71A9.12,9.12,0,0,1,97,157.21,8.89,8.89,0,0,1,94.38,163.88Z"/><polygon points="118.58 147.63 118.58 145 104.11 145 104.11 169.01 118.58 169.01 118.58 166.39 106.94 166.39 106.94 158.32 118.58 158.32 118.58 155.7 106.94 155.7 106.94 147.63 118.58 147.63"/><path d="M136.43,162.61a17.09,17.09,0,0,1-1.51-2.75c2.74-1.24,4.12-3.58,4.12-7,0-2.72-.81-4.71-2.41-6s-4.39-1.88-8.32-1.88h-5.9v24h2.82v-7.86H127a28.51,28.51,0,0,0,5.22-.42,27.35,27.35,0,0,0,4.52,6.84,5.46,5.46,0,0,0,2.77,1.81l1.55-2.3a7.28,7.28,0,0,1-2.35-1.68A18.28,18.28,0,0,1,136.43,162.61Zm-8.78-4.09h-2.42V147.63h2.88a12.53,12.53,0,0,1,6,1.18c1.38.78,2.06,2.18,2.06,4.2a4.51,4.51,0,0,1-2.18,4.27A13.22,13.22,0,0,1,127.65,158.52Z"/><path d="M156.25,166.14a6.18,6.18,0,0,0,1.24-3.77,5,5,0,0,0-.76-3.1,10.6,10.6,0,0,0-2.4-2.08,37,37,0,0,0-3.52-2,21.31,21.31,0,0,1-3.23-1.89,3.12,3.12,0,0,1-1-2.42q0-3.66,4.86-3.66a23.14,23.14,0,0,1,4.23.49h.06v-2.44a15,15,0,0,0-4.1-.64,12.35,12.35,0,0,0-3.2.38,5.81,5.81,0,0,0-4.67,6.12,5.28,5.28,0,0,0,2.08,4.58,36.73,36.73,0,0,0,3.5,2q2.88,1.48,3.6,1.95a3.54,3.54,0,0,1,1.77,3.18,3.21,3.21,0,0,1-1.62,3,8.16,8.16,0,0,1-4,.91,15.15,15.15,0,0,1-2.85-.3,13.06,13.06,0,0,1-2.59-.7h-.06v2.55a11.65,11.65,0,0,0,5.06,1.06C152.11,169.37,154.65,168.29,156.25,166.14Z"/><path d="M187.42,167.76l1.72,1.29h1.11V155.82H182.3v2.63h5.12v6.18a6.53,6.53,0,0,1-5.24,2.13,7.38,7.38,0,0,1-5.85-2.88,10.71,10.71,0,0,1-2.42-7.12,9.7,9.7,0,0,1,2.38-6.85c1.6-1.77,3.91-2.65,6.91-2.65a17.24,17.24,0,0,1,5.29.77l.15-.07v-2.58a20.42,20.42,0,0,0-5.66-.74q-5.82,0-8.86,3.44a12.84,12.84,0,0,0-3,8.83,13.16,13.16,0,0,0,3.06,8.93,10,10,0,0,0,8,3.54A9.09,9.09,0,0,0,187.42,167.76Z"/><path d="M205.43,144.64a10.39,10.39,0,0,0-8.1,3.53,12.79,12.79,0,0,0-3.15,8.84,13,13,0,0,0,3.07,8.83,10.06,10.06,0,0,0,8,3.54,10.32,10.32,0,0,0,8.1-3.55,14.19,14.19,0,0,0,.08-17.69A10.08,10.08,0,0,0,205.43,144.64Zm6.06,19.46a8.21,8.21,0,0,1-11.6.49,7.62,7.62,0,0,1-.63-.64,11,11,0,0,1-2.26-7.1,10.35,10.35,0,0,1,2.26-6.93,7.62,7.62,0,0,1,6.15-2.66,7.28,7.28,0,0,1,6.06,2.77,11.19,11.19,0,0,1,2.18,7.11,10.52,10.52,0,0,1-2.16,7Z"/><polygon points="227.43 166.01 220.2 145 217.28 145 225.53 169.01 229.31 169.01 237.57 145 234.66 145 227.43 166.01"/><polygon points="254.86 166.39 243.22 166.39 243.22 158.32 254.86 158.32 254.86 155.7 243.22 155.7 243.22 147.63 254.86 147.63 254.86 145 240.4 145 240.4 169.01 254.86 169.01 254.86 166.39"/><path d="M275.78,169.38l1.55-2.3A7.05,7.05,0,0,1,275,165.4a16.83,16.83,0,0,1-2.26-2.79,16.35,16.35,0,0,1-1.51-2.75q4.11-1.86,4.11-7,0-4.08-2.41-6T264.59,145h-5.9v24h2.82v-7.86h1.75a28.69,28.69,0,0,0,5.23-.42,26.91,26.91,0,0,0,4.52,6.84A5.41,5.41,0,0,0,275.78,169.38Zm-11.84-10.86h-2.43V147.63h2.88a12.63,12.63,0,0,1,6.05,1.18q2.06,1.17,2.06,4.2a4.5,4.5,0,0,1-2.19,4.27A13.1,13.1,0,0,1,263.94,158.52Z"/><polygon points="283.98 150.29 295.69 169.01 298.51 169.01 298.51 145 295.69 145 295.69 163.57 284.08 145 281.15 145 281.15 169.01 283.98 169.01 283.98 150.29"/><polygon points="324.24 169.01 324.24 145 320.49 145 314.35 157.1 314.28 157.1 308.15 145 304.25 145 304.25 169.01 307.08 169.01 307.08 148.76 313.99 162.09 314.65 162.09 321.41 148.92 321.41 169.01 324.24 169.01"/><polygon points="329.9 169.01 344.37 169.01 344.37 166.39 332.73 166.39 332.73 158.32 344.37 158.32 344.37 155.7 332.73 155.7 332.73 147.63 344.37 147.63 344.37 145 329.9 145 329.9 169.01"/><polygon points="351.01 150.29 362.73 169.01 365.56 169.01 365.56 145 362.73 145 362.73 163.57 351.13 145 348.19 145 348.19 169.01 351.01 169.01 351.01 150.29"/><polygon points="369.13 145 369.13 147.63 376.54 147.63 376.54 169.01 379.36 169.01 379.36 147.63 386.78 147.63 386.78 145 369.13 145"/><path d="M6.8,185.92H0v24H7.09a12,12,0,0,0,8.7-3.37,12.27,12.27,0,0,0-.09-17.24A12.4,12.4,0,0,0,6.8,185.92Zm7.12,18.88a9.28,9.28,0,0,1-6.83,2.51H2.83V188.55h4a9.5,9.5,0,0,1,6.83,2.71,9.12,9.12,0,0,1,2.82,6.87A8.88,8.88,0,0,1,13.92,204.8Z"/><polygon points="23.65 209.94 38.11 209.94 38.11 207.31 26.47 207.31 26.47 199.24 38.11 199.24 38.11 196.62 26.47 196.62 26.47 188.55 38.11 188.55 38.11 185.92 23.65 185.92 23.65 209.94"/><polygon points="44.58 185.92 41.76 185.92 41.76 209.94 55.86 209.94 55.86 207.31 44.58 207.31 44.58 185.92"/><polygon points="59.68 209.94 74.15 209.94 74.15 207.31 62.5 207.31 62.5 199.24 74.15 199.24 74.15 196.62 62.5 196.62 62.5 188.55 74.15 188.55 74.15 185.92 59.68 185.92 59.68 209.94"/><path d="M87.74,199.37h5.11v6.18a6.53,6.53,0,0,1-5.24,2.13,7.37,7.37,0,0,1-5.85-2.89,10.58,10.58,0,0,1-2.42-7.11,9.7,9.7,0,0,1,2.38-6.85,8.88,8.88,0,0,1,6.91-2.64,17.54,17.54,0,0,1,5.29.76l.15-.07V186.3a20.42,20.42,0,0,0-5.66-.74q-5.82,0-8.85,3.44a12.84,12.84,0,0,0-3,8.83,13.17,13.17,0,0,0,3.06,8.94,10.1,10.1,0,0,0,8,3.53,9,9,0,0,0,5.3-1.62L94.57,210h1.11V196.75H87.74Z"/><path d="M106.87,185.92l-8.26,24h2.92l1.93-5.6h10.6l1.93,5.6h2.92l-8.27-24Zm-2.52,15.8L108.76,189l4.41,12.77Z"/><polygon points="120.2 188.55 127.61 188.55 127.61 209.94 130.44 209.94 130.44 188.55 137.85 188.55 137.85 185.92 120.2 185.92 120.2 188.55"/><rect x="141.59" y="185.92" width="2.83" height="24.01"/><path d="M160,185.56a10.33,10.33,0,0,0-8.09,3.54,12.71,12.71,0,0,0-3.16,8.83,13,13,0,0,0,3.06,8.84,10.14,10.14,0,0,0,8,3.53,10.32,10.32,0,0,0,8.1-3.55,14.22,14.22,0,0,0,.09-17.69A10.08,10.08,0,0,0,160,185.56ZM166.07,205a8.21,8.21,0,0,1-11.6.49,7.62,7.62,0,0,1-.63-.64,11,11,0,0,1-2.25-7.1,10.39,10.39,0,0,1,2.25-6.93,7.68,7.68,0,0,1,6.16-2.65,7.3,7.3,0,0,1,6.06,2.76,11.25,11.25,0,0,1,2.18,7.11A10.53,10.53,0,0,1,166.07,205Z"/><polygon points="189.96 204.49 178.35 185.92 175.41 185.92 175.41 209.94 178.24 209.94 178.24 191.21 189.96 209.94 192.78 209.94 192.78 185.92 189.96 185.92 189.96 204.49"/><rect x="208.81" y="185.92" width="4.26" height="24.01"/><polygon points="232.05 201.9 222.07 185.92 217.81 185.92 217.81 209.94 222.07 209.94 222.07 193.98 232.05 209.94 236.32 209.94 236.32 185.92 232.05 185.92 232.05 201.9"/><polygon points="249.43 190.03 256.72 190.03 256.72 209.94 260.98 209.94 260.98 190.03 268.27 190.03 268.27 185.92 249.43 185.92 249.43 190.03"/><polygon points="285.63 195.94 275.63 195.94 275.63 185.92 271.37 185.92 271.37 209.94 275.63 209.94 275.63 200.04 285.63 200.04 285.63 209.94 289.89 209.94 289.89 185.92 285.63 185.92 285.63 195.94"/><polygon points="294.63 209.94 308.89 209.94 308.89 205.84 298.89 205.84 298.89 200.04 308.62 200.04 308.62 195.94 298.89 195.94 298.89 190.03 308.89 190.03 308.89 185.92 294.63 185.92 294.63 209.94"/><path d="M337.72,199.44c0,2.6-.47,4.38-1.41,5.32a6.92,6.92,0,0,1-8.45,0c-.94-.94-1.4-2.72-1.4-5.32V185.92h-4.27v14.74a10.47,10.47,0,0,0,1.7,6.27c1.58,2.25,4.24,3.37,8,3.37h.4c3.71,0,6.39-1.12,8-3.37a10.61,10.61,0,0,0,1.68-6.27V185.92h-4.26Z"/><path d="M357.89,198a12.35,12.35,0,0,0-2.95-1.64c-1-.38-1.65-.63-1.88-.74a13.15,13.15,0,0,1-3-1.67,2.67,2.67,0,0,1-1.23-2.09,1.74,1.74,0,0,1,1.15-1.69,9.3,9.3,0,0,1,3.55-.51,19.29,19.29,0,0,1,4.22.4l.05-3.92a15.82,15.82,0,0,0-4.27-.58,11.61,11.61,0,0,0-6.1,1.47,5.54,5.54,0,0,0-2.86,5,5.7,5.7,0,0,0,.39,2.16,6,6,0,0,0,2.19,2.87,14.81,14.81,0,0,0,3.06,1.65c1,.41,1.63.64,1.75.67a13.19,13.19,0,0,1,3,1.68,2.64,2.64,0,0,1,1.17,2.16,2.56,2.56,0,0,1-1.55,2.13,7.12,7.12,0,0,1-3.5.86,15.76,15.76,0,0,1-6-1.06H345v4.06a13.66,13.66,0,0,0,5.75,1.08,11.58,11.58,0,0,0,6.34-1.82,6.28,6.28,0,0,0,2.94-7.59A6.63,6.63,0,0,0,357.89,198Z"/><path d="M369.22,185.56l-8.4,24.38h4.52l1.71-5h9.32l1.72,5h4.51l-8.39-24.38Zm-.77,15.3,3.26-9.43,3.24,9.43Z"/></g></svg>
