<svg id="Layer_1" data-name="Layer 1" xmlns="http://www.w3.org/2000/svg" viewBox="0 0 80.78 501.09"><defs><style>.cls-1{fill:#fff;}</style></defs><path class="cls-1" d="M31.92,64.83h24V58.06H54.57c-5,0-10.07,0-15.11,0a7.26,7.26,0,0,1-2.22-.35,2.54,2.54,0,0,1-1.7-2.84c.14-1.1.85-1.65,2.32-1.8l.72,0,16-.08h1.35V46.15H54.46c-5.11,0-10.23,0-15.35,0a5.68,5.68,0,0,1-2.19-.45,2.56,2.56,0,0,1-1.37-2.81c.2-1.18,1.06-1.5,2.07-1.62.6-.07,1.2-.13,1.79-.14H54.64c.42,0,.84,0,1.28-.07V34.35H37.79c-4.72,0-7.32,3.33-6.31,8a6.9,6.9,0,0,0,3.35,4.25A6,6,0,0,0,31.35,52a6.34,6.34,0,0,0,2.8,6,5,5,0,0,0-1.44.12c-.32.14-.75.5-.76.77C31.89,60.93,31.92,62.93,31.92,64.83Zm0,388.76H46.67a27.43,27.43,0,0,1,2.87.08,2.75,2.75,0,0,1,2.76,2.86c-.06,1.35-.86,2-2.86,2-5.35.06-10.7.06-16,.09H32v6.76c6.33,0,12.55.05,18.78,0a5.31,5.31,0,0,0,4.93-2.87A6.82,6.82,0,0,0,54.05,454c-.1-.08-.13-.23-.23-.41a6.41,6.41,0,0,0,1.4-.13c.27-.09.64-.41.64-.63,0-2,0-4.06,0-6H32Zm0-177.21h1.37c5.15,0,10.31,0,15.46,0a5.24,5.24,0,0,1,2.28.54,2.4,2.4,0,0,1,1.13,2.8c-.22,1.11-1.12,1.36-2.07,1.48a17.15,17.15,0,0,1-2,.11H33.26c-.42,0-.84,0-1.24.06v6.72c6.37,0,12.65.07,18.92,0A5.17,5.17,0,0,0,56.2,284c.73-2.94.28-5.56-2.5-7.6l2.11-.35v-6.55H32Zm23.93,59.78H37.6c-2.29,0-4.34.58-5.43,2.78a7.11,7.11,0,0,0,.22,7.31A14.71,14.71,0,0,0,33.94,348l-1.95.29v6.56h23.9V348H54.5c-5.16,0-10.31,0-15.46,0a5.24,5.24,0,0,1-2.18-.47,2.41,2.41,0,0,1-1.3-2.72c.16-1.17,1-1.54,2-1.66a17.18,17.18,0,0,1,2-.16h15c.43,0,.85,0,1.32-.06ZM32,225.8h1.37c5,0,10.07,0,15.1,0a6.7,6.7,0,0,1,2.43.48,2.51,2.51,0,0,1,1.38,2.8c-.19,1.12-1,1.45-2,1.58a17.19,17.19,0,0,1-2.27.15H32v6.75h3.92c4.83,0,9.67,0,14.5,0,3.61,0,5.71-2,6-5.61a6.13,6.13,0,0,0-2.82-6.1l2.19-.35V219H32ZM32,88.45h9.85c3.15,0,6.31,0,9.46-.12A4.94,4.94,0,0,0,56,85c1-2.55.87-6.12-2-8.06-.07,0-.07-.18-.1-.26l2-.3V69.81H32v6.8h1.37c5.07,0,10.14,0,15.22,0a6.12,6.12,0,0,1,2.31.48,2.42,2.42,0,0,1,1.39,2.67c-.1,1.19-1,1.57-2,1.73a10,10,0,0,1-1.55.1c-5.15,0-10.3,0-15.45,0H32Zm13.32,20.06c-3.63,0-6.47.06-9.16,1.14a6.46,6.46,0,0,0-4.28,4.8,20.39,20.39,0,0,0-.37,5.93C32,125,34,127.17,38.57,128a28.41,28.41,0,0,0,12.24-.36,6.76,6.76,0,0,0,5.41-6.14,26.21,26.21,0,0,0,.05-5.6c-.4-3.87-2.25-5.89-6.05-6.72C48.35,108.78,46.43,108.66,45.31,108.51ZM56,358.89c-2.18.1-4.25.26-6.31.28-3.84.05-7.68,0-11.52,0s-6,1.87-6.5,5.53a29.1,29.1,0,0,0,0,6.79,9.62,9.62,0,0,0,1.52,3.84,4.62,4.62,0,0,0,4.94,2v-6a12.39,12.39,0,0,1-1.71-.45A2.76,2.76,0,0,1,34.87,368a2,2,0,0,1,1.48-2.2c1.28-.29,2.62-.36,4.08-.54a15.8,15.8,0,0,0,0,1.73,53.87,53.87,0,0,0,1,6.25,6.17,6.17,0,0,0,5.66,4.79,13.21,13.21,0,0,0,3.92-.17c3.55-.69,5.41-3.34,5.1-7a8.73,8.73,0,0,0-2.68-5.66,16.69,16.69,0,0,0,1.89-.4c.26-.09.62-.43.63-.67C56,362.4,56,360.61,56,358.89ZM40.35,186.62c0,.69,0,1.17.09,1.64a50.85,50.85,0,0,0,.77,5.67c.68,2.79,2.33,4.92,5.34,5.29a16.07,16.07,0,0,0,5.31-.31,5.19,5.19,0,0,0,4.06-4.14,8.4,8.4,0,0,0-1.83-7.51c-.19-.22-.37-.45-.61-.75a13.34,13.34,0,0,0,1.76-.35c.28-.09.69-.39.7-.61.06-1.82,0-3.64,0-5.39-2.09.1-4,.26-6,.28-4,.05-7.91,0-11.86,0-3.64,0-5.68,1.67-6.44,5.18a17.27,17.27,0,0,0,.21,8.3,8.6,8.6,0,0,0,1.35,2.77,5,5,0,0,0,4.89,2v-6.16c-.41-.06-.73-.08-1-.15a2.75,2.75,0,0,1-2.23-3.08c0-1.47.62-2.17,2.25-2.44C38.14,186.72,39.18,186.71,40.35,186.62ZM55.92,469.37c-1.92.13-3.78.33-5.64.36-4.12,0-8.23,0-12.35,0-2.55,0-4.71.89-5.66,3.42a15.23,15.23,0,0,0,.26,11.67,4.93,4.93,0,0,0,5.65,3v-6l-.73-.13a2.85,2.85,0,0,1-2.57-3.41c.09-1.41,1-2.15,2.85-2.28.85-.06,1.72,0,2.59,0,.12,1.65.2,3.16.36,4.67.61,5.62,3.39,8.2,8.59,8s7.88-3.83,6.55-8.68a25.91,25.91,0,0,0-2-4.29l2.1-.51ZM48,442.67c4.14.59,7.25-1.56,8-5.52a16.41,16.41,0,0,0-.48-8c-.77-2.44-2.24-4.19-4.91-4.68a6.25,6.25,0,0,0-6.81,2.67c-1.27,1.88-2.32,3.9-3.51,5.84a19.9,19.9,0,0,1-1.89,2.74,1.77,1.77,0,0,1-2.58.24,2.41,2.41,0,0,1-.86-2.58,2,2,0,0,1,1.78-1.7c.55-.09,1.1-.12,1.71-.19v-6.16c-2.8-.37-5.11.67-6.12,3a12.79,12.79,0,0,0,.11,11c2,4.08,8.15,4.8,10.58.55,1-1.73,1.91-3.5,2.91-5.22a23.74,23.74,0,0,1,2-3,2.28,2.28,0,0,1,2.91-.67,2.68,2.68,0,0,1,1.45,2.8c0,1.24-.91,1.81-2,2.11a21.63,21.63,0,0,1-2.28.39Zm-1-144.57a30.1,30.1,0,0,1,3.31.68,2.49,2.49,0,0,1,1.84,2.63,2.28,2.28,0,0,1-1.95,2.38,17.1,17.1,0,0,1-4,.58,80.21,80.21,0,0,1-8.35-.41,2.34,2.34,0,0,1-2.31-2.57A2.72,2.72,0,0,1,38,298.53c.77-.18,1.56-.23,2.37-.34v-6.56a7.74,7.74,0,0,0-8.09,4.59,13.32,13.32,0,0,0-.82,7.17c.62,4.49,2.76,6.79,7.23,7.51a31.16,31.16,0,0,0,11.43-.21c3.28-.67,5.57-2.56,6-6a23,23,0,0,0,0-6.53,7.75,7.75,0,0,0-9.08-6.48Zm8.83-156.76V134.6h-20v-4.19h-4v4.19c-1.34,0-2.5.07-3.64,0-1.63-.12-2.26-.81-2.4-2.44-.05-.54,0-1.1,0-1.78-1.46,0-2.81,0-4.16,0-.23,0-.6.48-.62.76-.08,1.19-.09,2.39-.06,3.59.14,5.16,1.6,6.57,6.76,6.6H32v3.3h4v-3.31Zm-24,267.45V413h-7c1,2.22,1.86,4.26,2.81,6.27.1.21.58.33.88.35,1.07,0,2.14,0,3.35,0v3H36.1v-3h1.39c4.31,0,8.63,0,12.94,0,2.22,0,4.27-.58,5.21-2.88,1.07-2.63.46-5.31.14-7.95H51.84c0,.51,0,.94.06,1.37.09,2.22-.44,2.79-2.65,2.8H36v-4.18Zm4.19-167.74h-4.2v4.25H24.93c1,2.22,1.86,4.26,2.81,6.27.1.22.57.35.88.36,1.07,0,2.14,0,3.35,0v3h4.14v-3H37.5c4,0,8.07,0,12.1,0a12.55,12.55,0,0,0,2.74-.27,4.33,4.33,0,0,0,3.48-3.1c.76-2.52.27-5-.06-7.61H51.82c0,.52,0,.83.07,1.15.16,2.59-.34,3.16-2.9,3.17H36.08Zm19.81,23.58V258H21.57v6.62ZM21.52,175.54h34.4V169H21.52Zm34.4,222.31H54.34c-4.12,0-8.23,0-12.35-.05-3.2-.08-4.64-1.63-4.72-4.79,0-.31-.06-.61-.09-.92H31.41c-.23,2.65.53,4.17,3.11,6.21l-2.59.46v5.78h24Zm0-190.64h-3c-3.83,0-7.67,0-11.5-.13-2.61-.11-3.94-1.64-4.11-4.25,0-.47-.08-.94-.13-1.41H31.33c-.06,2.68.77,4.82,3.35,6.24l-2.74.45v5.83h24ZM31.34,91.63c-.06,2.67.72,4.82,3.4,6.26a16.77,16.77,0,0,0-2.1.34c-.31.09-.75.42-.76.65-.07,1.74,0,3.49,0,5.22H55.91V97.45H54.56c-3.88,0-7.75,0-11.63,0a11,11,0,0,1-2.14-.2,4,4,0,0,1-3.51-4.06c0-.5-.1-1-.15-1.55ZM32,382.25v6.59H55.92v-6.59ZM20,31.65H31.91V28.31c-2.68,0-5.27,0-7.86,0-.39,0-.9.08-1.15-.13a2.33,2.33,0,0,1-.9-1.32c0-.28.68-.87,1.08-.9,1.75-.12,3.51-.1,5.26-.12,1.19,0,2.37,0,3.59,0V22.57c-3.33,0-6.6-.13-9.85.05-2,.12-3,2.92-1.81,4.81a8.46,8.46,0,0,0,.54.71C19.37,29.15,20.4,30.54,20,31.65Zm.09-10.51C23.89,20.06,27.57,19,31.26,18a4,4,0,0,1,1.85,0c1.07.23,2.11.6,3.28,1a21.78,21.78,0,0,1,0-2.31c.1-.88-.26-1.25-1.09-1.48-2.61-.73-5.2-1.56-7.8-2.34L20.1,10.62v3.26l7.9,2,0,.17-7.9,1.7Zm4.19-21A3.69,3.69,0,0,0,20.05,3c-.69,2.83-.23,5.88,2.94,6.56A13.75,13.75,0,0,0,29.4,9.4c2-.52,2.81-1.88,2.84-4.42S31.33.87,29.48.31A13.51,13.51,0,0,0,27.61,0V3.26a5.76,5.76,0,0,1,1.68.47,1.72,1.72,0,0,1,.76,1.2A1.33,1.33,0,0,1,29.28,6a12.22,12.22,0,0,1-6.49,0A1.43,1.43,0,0,1,22,4.89a1.74,1.74,0,0,1,.74-1.2,4.68,4.68,0,0,1,1.53-.41ZM27.14,388.9v-6.64H21.57v6.64ZM40.75,501.09c-1.13-.66-39.87-.62-40.75,0Zm-.27-177.34c.07.24.08.35.12.37a1.1,1.1,0,0,0,.44.15H80.36c.13,0,.27-.13.39-.21a.18.18,0,0,0,0-.11s0-.08,0-.19ZM80.76,18.38H40.41C41.21,19,79.81,19.08,80.76,18.38ZM40.32,156.64C39,156,.74,156.1.09,156.64Z"/><path d="M31.92,64.83c0-1.9,0-3.9,0-5.89,0-.27.44-.63.76-.77a5,5,0,0,1,1.44-.12,6.34,6.34,0,0,1-2.8-6,6,6,0,0,1,3.48-5.48,6.9,6.9,0,0,1-3.35-4.25c-1-4.63,1.59-8,6.31-8H55.92V41c-.44,0-.86.06-1.28.07H39.41c-.59,0-1.19.07-1.79.14-1,.12-1.87.44-2.07,1.62a2.56,2.56,0,0,0,1.37,2.81,5.68,5.68,0,0,0,2.19.45c5.12,0,10.24,0,15.35,0h1.42v6.79H54.53l-16,.08-.72,0c-1.47.15-2.18.7-2.32,1.8a2.54,2.54,0,0,0,1.7,2.84,7.26,7.26,0,0,0,2.22.35c5,0,10.08,0,15.11,0h1.35v6.77Z"/><path d="M32,453.59v-6.82H55.89c0,2,0,4,0,6,0,.22-.37.54-.64.63a6.41,6.41,0,0,1-1.4.13c.1.18.13.33.23.41a6.82,6.82,0,0,1,1.68,8.54,5.31,5.31,0,0,1-4.93,2.87c-6.23.08-12.45,0-18.78,0v-6.76h1.37c5.35,0,10.7,0,16-.09,2,0,2.8-.66,2.86-2a2.75,2.75,0,0,0-2.76-2.86,27.43,27.43,0,0,0-2.87-.08H32Z"/><path d="M32,276.38v-6.9H55.81V276l-2.11.35c2.78,2,3.23,4.66,2.5,7.6a5.17,5.17,0,0,1-5.26,4.1c-6.27.11-12.55,0-18.92,0V281.4c.4,0,.82-.06,1.24-.06H48.13a17.15,17.15,0,0,0,2-.11c1-.12,1.85-.37,2.07-1.48a2.4,2.4,0,0,0-1.13-2.8,5.24,5.24,0,0,0-2.28-.54c-5.15,0-10.31,0-15.46,0Z"/><path d="M55.92,336.16v6.69c-.47,0-.89.06-1.32.06h-15a17.18,17.18,0,0,0-2,.16c-1,.12-1.88.49-2,1.66a2.41,2.41,0,0,0,1.3,2.72,5.24,5.24,0,0,0,2.18.47c5.15,0,10.3,0,15.46,0h1.39v6.86H32v-6.56l1.95-.29a14.71,14.71,0,0,1-1.55-1.71,7.11,7.11,0,0,1-.22-7.31c1.09-2.2,3.14-2.78,5.43-2.78H55.92Z"/><path d="M32,225.8V219H55.83v6.51l-2.19.35a6.13,6.13,0,0,1,2.82,6.1c-.32,3.59-2.42,5.59-6,5.61-4.83,0-9.67,0-14.5,0H32v-6.75H48a17.19,17.19,0,0,0,2.27-.15c1-.13,1.79-.46,2-1.58a2.51,2.51,0,0,0-1.38-2.8,6.7,6.7,0,0,0-2.43-.48c-5,0-10.06,0-15.1,0Z"/><path d="M32,88.45V81.61H33.3c5.15,0,10.3,0,15.45,0a10,10,0,0,0,1.55-.1c1-.16,1.88-.54,2-1.73a2.42,2.42,0,0,0-1.39-2.67,6.12,6.12,0,0,0-2.31-.48c-5.08,0-10.15,0-15.22,0H32v-6.8H55.8v6.53l-2,.3c0,.08,0,.22.1.26,2.9,1.94,3,5.51,2,8.06a4.94,4.94,0,0,1-4.67,3.37c-3.15.15-6.31.1-9.46.12Z"/><path d="M45.31,108.51c1.12.15,3,.27,4.91.68,3.8.83,5.65,2.85,6.05,6.72a26.21,26.21,0,0,1-.05,5.6,6.76,6.76,0,0,1-5.41,6.14,28.41,28.41,0,0,1-12.24.36c-4.56-.84-6.62-3-7.07-7.63a20.39,20.39,0,0,1,.37-5.93,6.46,6.46,0,0,1,4.28-4.8C38.84,108.57,41.68,108.54,45.31,108.51ZM43.72,121.7c2-.18,4-.26,5.93-.56s2.65-1.31,2.57-2.87c-.06-1.3-.79-2.16-2.49-2.46a34.58,34.58,0,0,0-11.66-.07,2.57,2.57,0,0,0-2.46,2.75c0,1.49.74,2.4,2.5,2.68S41.83,121.53,43.72,121.7Z"/><path d="M56,358.89c0,1.72,0,3.51,0,5.3,0,.24-.37.58-.63.67a16.69,16.69,0,0,1-1.89.4,8.73,8.73,0,0,1,2.68,5.66c.31,3.63-1.55,6.28-5.1,7a13.21,13.21,0,0,1-3.92.17,6.17,6.17,0,0,1-5.66-4.79,53.87,53.87,0,0,1-1-6.25,15.8,15.8,0,0,1,0-1.73c-1.46.18-2.8.25-4.08.54a2,2,0,0,0-1.48,2.2,2.76,2.76,0,0,0,1.55,2.86,12.39,12.39,0,0,0,1.71.45v6a4.62,4.62,0,0,1-4.94-2,9.62,9.62,0,0,1-1.52-3.84,29.1,29.1,0,0,1,0-6.79c.46-3.66,2.76-5.49,6.5-5.53s7.68,0,11.52,0C51.73,359.15,53.8,359,56,358.89Zm-12,6.34c.09,1.09.14,1.8.2,2.51.27,3.3,2.25,4.61,6,3.71a2.49,2.49,0,0,0,1.27-4.22,4.11,4.11,0,0,0-2.06-1.31C47.7,365.56,46,365.46,44,365.23Z"/><path d="M40.35,186.62c-1.17.09-2.21.1-3.23.27-1.63.27-2.23,1-2.25,2.44a2.75,2.75,0,0,0,2.23,3.08c.31.07.63.09,1,.15v6.16a5,5,0,0,1-4.89-2A8.6,8.6,0,0,1,31.9,194a17.27,17.27,0,0,1-.21-8.3c.76-3.51,2.8-5.15,6.44-5.18,3.95,0,7.91,0,11.86,0,1.95,0,3.89-.18,6-.28,0,1.75,0,3.57,0,5.39,0,.22-.42.52-.7.61a13.34,13.34,0,0,1-1.76.35c.24.3.42.53.61.75a8.4,8.4,0,0,1,1.83,7.51,5.19,5.19,0,0,1-4.06,4.14,16.07,16.07,0,0,1-5.31.31c-3-.37-4.66-2.5-5.34-5.29a50.85,50.85,0,0,1-.77-5.67C40.38,187.79,40.39,187.31,40.35,186.62ZM44,186.5c.07,1,.11,1.72.17,2.43.26,3.27,2.09,4.74,6,3.77a2.45,2.45,0,0,0,1.32-4.06,4.28,4.28,0,0,0-2.12-1.43C47.7,186.83,45.92,186.74,44,186.5Z"/><path d="M55.92,469.37v5.84l-2.1.51a25.91,25.91,0,0,1,2,4.29c1.33,4.85-1.49,8.49-6.55,8.68s-8-2.38-8.59-8c-.16-1.51-.24-3-.36-4.67-.87,0-1.74,0-2.59,0-1.88.13-2.76.87-2.85,2.28a2.85,2.85,0,0,0,2.57,3.41l.73.13v6a4.93,4.93,0,0,1-5.65-3,15.23,15.23,0,0,1-.26-11.67c.95-2.53,3.11-3.41,5.66-3.42,4.12,0,8.23,0,12.35,0C52.14,469.7,54,469.5,55.92,469.37ZM44,475.75c.09,1.13.14,1.8.19,2.48.31,4,3.18,4.46,6,3.76a2.4,2.4,0,0,0,1.58-3.74,3.85,3.85,0,0,0-2-1.68A50.54,50.54,0,0,0,44,475.75Z"/><path d="M48,442.67v-6.39a21.63,21.63,0,0,0,2.28-.39c1.06-.3,1.93-.87,2-2.11a2.68,2.68,0,0,0-1.45-2.8,2.28,2.28,0,0,0-2.91.67,23.74,23.74,0,0,0-2,3c-1,1.72-1.92,3.49-2.91,5.22-2.43,4.25-8.61,3.53-10.58-.55a12.79,12.79,0,0,1-.11-11c1-2.35,3.32-3.39,6.12-3v6.16c-.61.07-1.16.1-1.71.19a2,2,0,0,0-1.78,1.7,2.41,2.41,0,0,0,.86,2.58,1.77,1.77,0,0,0,2.58-.24,19.9,19.9,0,0,0,1.89-2.74c1.19-1.94,2.24-4,3.51-5.84a6.25,6.25,0,0,1,6.81-2.67c2.67.49,4.14,2.24,4.91,4.68a16.41,16.41,0,0,1,.48,8C55.29,441.11,52.18,443.26,48,442.67Z"/><path d="M47.08,298.1v-6.39a7.75,7.75,0,0,1,9.08,6.48,23,23,0,0,1,0,6.53c-.46,3.41-2.75,5.3-6,6a31.16,31.16,0,0,1-11.43.21c-4.47-.72-6.61-3-7.23-7.51a13.32,13.32,0,0,1,.82-7.17,7.74,7.74,0,0,1,8.09-4.59v6.56c-.81.11-1.6.16-2.37.34a2.72,2.72,0,0,0-2.38,2.86A2.34,2.34,0,0,0,37.93,304a80.21,80.21,0,0,0,8.35.41,17.1,17.1,0,0,0,4-.58,2.28,2.28,0,0,0,1.95-2.38,2.49,2.49,0,0,0-1.84-2.63A30.1,30.1,0,0,0,47.08,298.1Z"/><path d="M55.91,141.34h-20v3.31H32v-3.3H27.77c-5.16,0-6.62-1.44-6.76-6.6,0-1.2,0-2.4.06-3.59,0-.28.39-.75.62-.76,1.35-.08,2.7,0,4.16,0,0,.68,0,1.24,0,1.78.14,1.63.77,2.32,2.4,2.44,1.14.09,2.3,0,3.64,0v-4.19h4v4.19h20Z"/><path d="M31.89,408.79H36V413H49.25c2.21,0,2.74-.58,2.65-2.8,0-.43,0-.86-.06-1.37h3.94c.32,2.64.93,5.32-.14,7.95-.94,2.3-3,2.86-5.21,2.88-4.31,0-8.63,0-12.94,0H36.1v3H32v-3c-1.21,0-2.28,0-3.35,0-.3,0-.78-.14-.88-.35-.95-2-1.83-4-2.81-6.27h7Z"/><path d="M36.08,241.05v4.22H49c2.56,0,3.06-.58,2.9-3.17,0-.32,0-.63-.07-1.15h3.94c.33,2.58.82,5.09.06,7.61a4.33,4.33,0,0,1-3.48,3.1,12.55,12.55,0,0,1-2.74.27c-4,0-8.06,0-12.1,0H36.11v3H32v-3c-1.21,0-2.28,0-3.35,0-.31,0-.78-.14-.88-.36-.95-2-1.83-4-2.81-6.27h7v-4.25Z"/><path d="M55.89,264.63H21.57V258H55.89Z"/><path d="M21.52,175.54V169h34.4v6.54Z"/><path d="M55.92,397.85v6.69h-24v-5.78l2.59-.46c-2.58-2-3.34-3.56-3.11-6.21h5.77c0,.31.08.61.09.92.08,3.16,1.52,4.71,4.72,4.79,4.12.09,8.23,0,12.35.05Z"/><path d="M55.91,207.21v6.72h-24V208.1l2.74-.45c-2.58-1.42-3.41-3.56-3.35-6.24h5.81c0,.47.1.94.13,1.41.17,2.61,1.5,4.14,4.11,4.25,3.83.16,7.67.1,11.5.13Z"/><path d="M31.34,91.63h5.79c0,.54.11,1.05.15,1.55a4,4,0,0,0,3.51,4.06,11,11,0,0,0,2.14.2c3.88,0,7.75,0,11.63,0h1.35v6.65H31.84c0-1.73,0-3.48,0-5.22,0-.23.45-.56.76-.65a16.77,16.77,0,0,1,2.1-.34C32.06,96.45,31.28,94.3,31.34,91.63Z"/><path d="M32,382.25H55.92v6.59H32Z"/><path d="M20,31.65c.41-1.11-.62-2.5.82-3.51a8.46,8.46,0,0,1-.54-.71c-1.2-1.89-.24-4.69,1.81-4.81,3.25-.18,6.52-.05,9.85-.05v3.26c-1.22,0-2.4,0-3.59,0-1.75,0-3.51,0-5.26.12-.4,0-1.1.62-1.08.9a2.33,2.33,0,0,0,.9,1.32c.25.21.76.13,1.15.13,2.59,0,5.18,0,7.86,0v3.34Z"/><path d="M20.08,21.14V17.76l7.9-1.7,0-.17-7.9-2V10.62l7.42,2.21c2.6.78,5.19,1.61,7.8,2.34.83.23,1.19.6,1.09,1.48a21.78,21.78,0,0,0,0,2.31c-1.17-.36-2.21-.73-3.28-1a4,4,0,0,0-1.85,0C27.57,19,23.89,20.06,20.08,21.14Z"/><path d="M24.27.13V3.28a4.68,4.68,0,0,0-1.53.41A1.74,1.74,0,0,0,22,4.89,1.43,1.43,0,0,0,22.79,6a12.22,12.22,0,0,0,6.49,0,1.33,1.33,0,0,0,.77-1.05,1.72,1.72,0,0,0-.76-1.2,5.76,5.76,0,0,0-1.68-.47V0a13.51,13.51,0,0,1,1.87.31C31.33.87,32.26,2.48,32.24,5s-.85,3.9-2.84,4.42A13.75,13.75,0,0,1,23,9.52C19.82,8.84,19.36,5.79,20.05,3A3.69,3.69,0,0,1,24.27.13Z"/><path d="M27.14,388.9H21.57v-6.64h5.57Z"/><path d="M40.75,501.09H0C.88,500.47,39.62,500.43,40.75,501.09Z"/><path d="M40.48,323.75H80.74c0,.11,0,.15,0,.19a.18.18,0,0,1,0,.11c-.12.08-.26.21-.39.21H41a1.1,1.1,0,0,1-.44-.15S40.55,324,40.48,323.75Z"/><path d="M80.76,18.38c-1,.7-39.55.63-40.35,0Z"/><path d="M40.32,156.64H.09C.74,156.1,39,156,40.32,156.64Z"/><path class="cls-1" d="M43.72,121.7c-1.89-.17-3.77-.24-5.61-.53s-2.5-1.19-2.5-2.68a2.57,2.57,0,0,1,2.46-2.75,34.58,34.58,0,0,1,11.66.07c1.7.3,2.43,1.16,2.49,2.46.08,1.56-.71,2.57-2.57,2.87S45.69,121.52,43.72,121.7Z"/><path class="cls-1" d="M44,365.23c2,.23,3.7.33,5.38.69a4.11,4.11,0,0,1,2.06,1.31,2.49,2.49,0,0,1-1.27,4.22c-3.72.9-5.7-.41-6-3.71C44.14,367,44.09,366.32,44,365.23Z"/><path class="cls-1" d="M44,186.5c1.91.24,3.69.33,5.41.71a4.28,4.28,0,0,1,2.12,1.43,2.45,2.45,0,0,1-1.32,4.06c-3.95,1-5.78-.5-6-3.77C44.12,188.22,44.08,187.52,44,186.5Z"/><path class="cls-1" d="M44,475.75a50.54,50.54,0,0,1,5.71.82,3.85,3.85,0,0,1,2,1.68A2.4,2.4,0,0,1,50.16,482c-2.79.7-5.66.23-6-3.76C44.14,477.55,44.09,476.88,44,475.75Z"/></svg>