<svg xmlns="http://www.w3.org/2000/svg" viewBox="0 0 456.78 93.93"><defs><style>.czech-red{fill:#e03a3e;}.czech-blue{fill:#004b85;}.czech-gray{fill:#77787b;}</style></defs><g id="Czech"><path class="czech-red" d="M452.41,51.33A4.38,4.38,0,0,0,456.78,47a4.33,4.33,0,0,0-4.37-4.42A4.4,4.4,0,0,0,448,47a4.46,4.46,0,0,0,4.37,4.32Z"/><path class="czech-blue" d="M93.93,44.78V0H0V93.93H4.37V4.37H89.56V44.78H79V15H15v79h79V49.15h343.5V44.78ZM89.56,89.55H19.33V19.33H74.59V44.78H64.05V29.86H29.87V79H79V49.15H89.56ZM44.77,44.78V64.06H64.05V49.15H74.59V74.59H34.24V34.24H59.68V44.78Zm14.91,4.37V59.68H49.15V49.15Z"/><path class="czech-gray" d="M128.16,29.4a10.47,10.47,0,0,1-4.29.76c-5.28,0-8.49-3.33-8.49-8.39,0-5.47,3.8-8.78,8.88-8.78a9.59,9.59,0,0,1,4,.74l-.67,2.42a8.16,8.16,0,0,0-3.26-.64c-3.38,0-5.82,2.12-5.82,6.12,0,3.65,2.15,6,5.8,6a8.73,8.73,0,0,0,3.31-.61Z"/><polygon class="czech-gray" points="131.12 28.21 139.63 15.85 139.63 15.78 131.88 15.78 131.88 13.27 143.58 13.27 143.58 15.04 135.19 27.28 135.19 27.38 143.7 27.38 143.7 29.89 131.12 29.89 131.12 28.21"/><polygon class="czech-gray" points="156.97 22.52 150.71 22.52 150.71 27.4 157.71 27.4 157.71 29.89 147.67 29.89 147.67 13.27 157.34 13.27 157.34 15.76 150.71 15.76 150.71 20.05 156.97 20.05 156.97 22.52"/><path class="czech-gray" d="M173.77,29.4a10.43,10.43,0,0,1-4.29.76c-5.28,0-8.49-3.33-8.49-8.39,0-5.47,3.8-8.78,8.88-8.78a9.59,9.59,0,0,1,4,.74l-.67,2.42a8.15,8.15,0,0,0-3.25-.64c-3.38,0-5.83,2.12-5.83,6.12,0,3.65,2.15,6,5.8,6a8.69,8.69,0,0,0,3.31-.61Z"/><polygon class="czech-gray" points="180.87 13.27 180.87 19.93 187.9 19.93 187.9 13.27 190.94 13.27 190.94 29.89 187.9 29.89 187.9 22.57 180.87 22.57 180.87 29.89 177.84 29.89 177.84 13.27 180.87 13.27"/><path class="czech-gray" d="M214.4,29.4a10.43,10.43,0,0,1-4.29.76c-5.28,0-8.49-3.33-8.49-8.39,0-5.47,3.8-8.78,8.88-8.78a9.59,9.59,0,0,1,4.05.74l-.67,2.42a8.16,8.16,0,0,0-3.26-.64c-3.38,0-5.82,2.12-5.82,6.12,0,3.65,2.15,6,5.8,6a8.73,8.73,0,0,0,3.31-.61Z"/><polygon class="czech-gray" points="227.77 22.52 221.5 22.52 221.5 27.4 228.51 27.4 228.51 29.89 218.47 29.89 218.47 13.27 228.14 13.27 228.14 15.76 221.5 15.76 221.5 20.05 227.77 20.05 227.77 22.52"/><path class="czech-gray" d="M232.65,29.89V13.26h3.46l4.29,7.13A46.64,46.64,0,0,1,243.24,26h0c-.2-2.22-.27-4.37-.27-6.91v-5.8h2.81V29.89h-3.14l-4.34-7.33a50.21,50.21,0,0,1-3-5.72l-.08,0c.13,2.14.15,4.34.15,7.08v5.94Z"/><polygon class="czech-gray" points="253.99 15.8 249.25 15.8 249.25 13.27 261.81 13.27 261.81 15.8 257.03 15.8 257.03 29.89 253.99 29.89 253.99 15.8"/><polygon class="czech-gray" points="274.54 22.52 268.27 22.52 268.27 27.4 275.28 27.4 275.28 29.89 265.24 29.89 265.24 13.27 274.91 13.27 274.91 15.76 268.27 15.76 268.27 20.05 274.54 20.05 274.54 22.52"/><path class="czech-gray" d="M289.88,25.25c-.41-1.6-1.13-2.76-2.31-3.2V22a4.43,4.43,0,0,0,3-4.17,4.21,4.21,0,0,0-1.44-3.33c-1.11-.93-2.73-1.33-5.13-1.33a28.28,28.28,0,0,0-4.58.35v16.4h3V23.06H284c1.73,0,2.5.74,3,2.91a22.58,22.58,0,0,0,1.11,3.92h3.13A33.81,33.81,0,0,1,289.88,25.25Zm-5.64-4.41h-1.81V15.58a9.07,9.07,0,0,1,1.88-.15c2,0,3.26.84,3.26,2.67C287.57,19.75,286.28,20.84,284.24,20.84Z"/><path class="czech-gray" d="M128.16,81.26a10.43,10.43,0,0,1-4.29.77c-5.28,0-8.49-3.33-8.49-8.39,0-5.48,3.8-8.78,8.88-8.78a9.59,9.59,0,0,1,4,.74L127.64,68a8,8,0,0,0-3.26-.64c-3.38,0-5.82,2.12-5.82,6.11,0,3.65,2.15,6,5.8,6a8.53,8.53,0,0,0,3.31-.62Z"/><polygon class="czech-gray" points="122.02 64.24 119.5 61.23 121.72 61.23 123.13 62.94 123.18 62.94 124.56 61.23 126.73 61.23 124.24 64.24 122.02 64.24"/><polygon class="czech-gray" points="141.53 74.38 135.26 74.38 135.26 79.27 142.27 79.27 142.27 81.76 132.23 81.76 132.23 65.13 141.9 65.13 141.9 67.62 135.26 67.62 135.26 71.92 141.53 71.92 141.53 74.38"/><path class="czech-gray" d="M146.34,78.45a8.39,8.39,0,0,0,4,1.06c1.95,0,3-.91,3-2.27s-.83-2-3-2.76c-2.73-1-4.49-2.44-4.49-4.83,0-2.72,2.27-4.79,5.88-4.79a8.66,8.66,0,0,1,4,.84l-.74,2.44a7,7,0,0,0-3.3-.79c-1.93,0-2.77,1-2.77,2,0,1.28,1,1.87,3.19,2.74,2.88,1.08,4.29,2.54,4.29,4.93,0,2.67-2,5-6.32,5A9.92,9.92,0,0,1,145.67,81Z"/><path class="czech-gray" d="M160.7,65.13h3v7.65h.07c.39-.64.79-1.24,1.21-1.8l4.34-5.85h3.75l-5.72,7.08,6.09,9.55H169.9l-4.71-7.63-1.48,1.78v5.85h-3Z"/><polygon class="czech-gray" points="185.83 74.38 179.57 74.38 179.57 79.27 186.57 79.27 186.57 81.76 176.53 81.76 176.53 65.13 186.2 65.13 186.2 67.62 179.57 67.62 179.57 71.92 185.83 71.92 185.83 74.38"/><polygon class="czech-gray" points="185.46 61.23 182.33 64.24 179.91 64.24 182.13 61.23 185.46 61.23"/><path class="czech-gray" d="M209.22,81.26a10.43,10.43,0,0,1-4.29.77c-5.28,0-8.49-3.33-8.49-8.39,0-5.48,3.8-8.78,8.88-8.78a9.59,9.59,0,0,1,4.05.74L208.7,68a8,8,0,0,0-3.26-.64c-3.38,0-5.82,2.12-5.82,6.11,0,3.65,2.15,6,5.8,6a8.44,8.44,0,0,0,3.3-.62Z"/><polygon class="czech-gray" points="222.59 74.38 216.32 74.38 216.32 79.27 223.33 79.27 223.33 81.76 213.29 81.76 213.29 65.13 222.96 65.13 222.96 67.62 216.32 67.62 216.32 71.92 222.59 71.92 222.59 74.38"/><path class="czech-gray" d="M227.47,81.76V65.13h3.46l4.29,7.13a46.53,46.53,0,0,1,2.84,5.57h0c-.19-2.21-.27-4.36-.27-6.9v-5.8h2.82V81.76h-3.14l-4.34-7.33a51.07,51.07,0,0,1-3-5.72l-.08,0c.13,2.15.15,4.34.15,7.08v6Z"/><polygon class="czech-gray" points="248.81 67.67 244.07 67.67 244.07 65.13 256.63 65.13 256.63 67.67 251.85 67.67 251.85 81.76 248.81 81.76 248.81 67.67"/><path class="czech-gray" d="M270.52,77.12c-.42-1.6-1.14-2.76-2.32-3.21v-.07a4.43,4.43,0,0,0,3-4.17,4.2,4.2,0,0,0-1.43-3.33C268.67,65.4,267,65,264.65,65a29.87,29.87,0,0,0-4.59.34V81.76h3V74.92h1.53c1.73,0,2.49.74,3,2.91a23.5,23.5,0,0,0,1.11,3.93h3.14A32.81,32.81,0,0,1,270.52,77.12Zm-5.65-4.42h-1.8V67.45a9,9,0,0,1,1.87-.15c2,0,3.26.84,3.26,2.67C268.2,71.62,266.92,72.7,264.87,72.7Z"/><path class="czech-gray" d="M278.58,65.13v9.7c0,3.25,1.36,4.76,3.41,4.76s3.5-1.51,3.5-4.76v-9.7h3v9.5c0,5.13-2.64,7.4-6.64,7.4-3.85,0-6.34-2.15-6.34-7.38V65.13Z"/><path class="czech-gray" d="M307.52,75c-.1-2.14-.22-4.73-.2-7h-.07c-.54,2-1.26,4.27-2,6.37l-2.42,7.2h-2.35l-2.22-7.1c-.64-2.13-1.23-4.4-1.67-6.47h-.05c-.08,2.17-.17,4.81-.3,7.08l-.37,6.69h-2.84l1.11-16.63h4l2.17,6.69c.62,1.94,1.11,3.92,1.53,5.77H302c.44-1.8,1-3.85,1.65-5.8l2.29-6.66h3.95l1,16.63h-3Z"/></g></svg>
