<svg xmlns="http://www.w3.org/2000/svg" viewBox="0 0 385.9 157.68"><defs><style>.estonia-blue{fill:#0f6eb6;}</style></defs><g id="Estonia"><path class="estonia-blue" d="M104.05,0h2.45V157.68h-2.45Z"/><path d="M131.7,84.17h3.7q2.41,8.35,4.82,16.73h.25q2.42-8.36,4.82-16.71H149V105h-2.75V89.57c-.2.52-.35.86-.46,1.22q-2.07,6.55-4.12,13.12c-.21.69-.35,1.24-1.33,1.24s-1.16-.46-1.38-1.19c-1.32-4.3-2.67-8.58-4-12.87a2.6,2.6,0,0,0-.55-1V105H131.7Z"/><path d="M163.64,94v11H160.9V88.5c2.42-.55,2.68-.44,3.82,1.63,1.73,3.11,3.45,6.22,5.44,9.3v-11h2.89v16.52c-2.6.51-2.66.48-3.9-1.76L164.63,95c-.22-.39-.46-.76-.69-1.14Z"/><path d="M195.64,93.22H193c-.1-.33-.2-.71-.32-1.1a2.38,2.38,0,0,0-2.63-1.8,2.23,2.23,0,0,0-2.36,1.75,2.29,2.29,0,0,0,1.52,2.9c1.19.51,2.45.86,3.64,1.37,2.42,1,3.42,2.72,3.1,5a4.56,4.56,0,0,1-4.55,3.93,13.07,13.07,0,0,1-4.61-.61c-1.89-.64-2.62-2.25-2.41-4.42h2.56c.65,2.41,1.9,3.36,4.06,2.78a3.33,3.33,0,0,0,1.89-1.72,1.92,1.92,0,0,0-1-2.58c-1.46-.68-3-1.15-4.49-1.83a4.17,4.17,0,0,1-2.45-5.49,5.28,5.28,0,0,1,1.68-2.28,6.81,6.81,0,0,1,7.12-.11A4.48,4.48,0,0,1,195.64,93.22Z"/><path d="M384.86,95.21v2.28h-6v5.36h7.06V105h-10V88.41h10V90.5h-7.08v4.71Z"/><path d="M342.05,60.52v13h-1.62V56.94c1.18-.46,1.83,0,2.43,1,2.27,4,4.64,8,7.22,11.93v-13h1.68V73.42a1.69,1.69,0,0,1-2.31-1c-2.06-3.67-4.23-7.29-6.37-10.92-.22-.38-.48-.75-.72-1.12Z"/><path d="M294.54,52.67v1.4h-9.27v7.75h8.11l.1,1.6h-8.21v8.65h9.31v1.42h-11V52.67Z"/><path d="M205.21,105h-3V90.54H198V88.41h11.39v2.08h-4.2Z"/><path d="M308.17,61.55h-1.44c-.94-3.08-2.38-4.06-4.85-3.39a2.73,2.73,0,0,0-2.16,2.42,2.54,2.54,0,0,0,1.5,2.86c1.3.6,2.68,1,4,1.59,2.77,1.2,3.78,3,3.1,5.56a4.67,4.67,0,0,1-.35.9c-1.08,1.93-4,2.81-6.84,2.09-2.42-.61-3.51-2-3.56-4.66.95-.38,1.58-.35,1.81.93.28,1.61,1.52,2.24,3,2.41s3-.05,3.93-1.48A2.64,2.64,0,0,0,305.27,67c-1.35-.69-2.82-1.15-4.22-1.76-2.59-1.13-3.51-2.76-3-5.24.4-2,2.26-3.37,4.8-3.42C306.32,56.47,308.19,58.18,308.17,61.55Z"/><path d="M186.8,56.84h1.59a5.28,5.28,0,0,1,.14.9c0,3.38,0,6.77,0,10.15-.07,4.37-3.44,6.85-7.66,5.67-2.11-.59-3.66-2-3.77-4.15-.2-4.15-.06-8.31-.06-12.55h1.61c0,2.18,0,4.3,0,6.42,0,1.62,0,3.24,0,4.86.09,2.58,1.69,4.19,4.05,4.19s4-1.69,4.07-4.33c0-3.2,0-6.4,0-9.6Z"/><path d="M200.57,64.89a4.28,4.28,0,0,0,2-4.94,3.65,3.65,0,0,0-3.41-3c-2-.19-4,0-6.14,0V73.56h5.87a4.29,4.29,0,0,0,4.31-4.78A4.34,4.34,0,0,0,200.57,64.89Zm-5.86-6.33a36.38,36.38,0,0,1,4.19,0c1.32.15,2,1.17,2,2.59a2.57,2.57,0,0,1-1.9,2.87,36.68,36.68,0,0,1-4.32.39ZM199.08,72a39.82,39.82,0,0,1-4.39,0V65.83a40.41,40.41,0,0,1,4.41,0c1.51.17,2.31,1.42,2.29,3.14S200.63,71.78,199.08,72Z"/><path d="M258.41,61.46a5.56,5.56,0,0,0-5.36-4.91c-3-.08-5.32,1.51-5.74,4.53a29.91,29.91,0,0,0,0,8.13A5.27,5.27,0,0,0,253,73.82a5.59,5.59,0,0,0,5.41-5c.19-1.18.21-2.39.31-3.64C258.63,63.94,258.62,62.69,258.41,61.46Zm-1.93,8a3.57,3.57,0,0,1-3.73,2.89c-1.79,0-3.44-1-3.62-2.83a44,44,0,0,1,0-8.66A3.4,3.4,0,0,1,252.74,58a3.78,3.78,0,0,1,3.74,2.77,3.94,3.94,0,0,1,.24.94c.08,1.15.13,2.31.21,4A25.94,25.94,0,0,1,256.48,69.43Z"/><path d="M335.86,61.8a5.56,5.56,0,0,0-5.2-5.24,5.48,5.48,0,0,0-6,4.58,26.08,26.08,0,0,0-.33,3.58c.07,1.54.05,2.65.18,3.75a5.73,5.73,0,0,0,5.72,5.35,5.6,5.6,0,0,0,5.67-5.37A39.91,39.91,0,0,0,335.86,61.8Zm-1.94,7.54a3.64,3.64,0,0,1-3.68,3,3.47,3.47,0,0,1-3.76-3,40,40,0,0,1,0-8.26A3.46,3.46,0,0,1,330.19,58,3.71,3.71,0,0,1,334,61.08a34.36,34.36,0,0,1,.43,4.06A33.9,33.9,0,0,1,333.92,69.34Z"/><path d="M370,57.46a1.37,1.37,0,0,0-1.13-.63,1.43,1.43,0,0,0-1,.8c-1.11,3.09-2.14,6.22-3.19,9.33-.72,2.15-1.42,4.3-2.13,6.44,1.26.43,1.84.1,2.2-1.13.92-3.12,1-3.1,4.25-3.1s3.27,0,4.16,3c.35,1.2.9,1.59,2.24,1.21C373.58,68.07,371.82,62.75,370,57.46Zm-3.77,10.17,2.71-8.37,2.73,8.37Z"/><path d="M288.39,88.23a3.35,3.35,0,0,1,3.8-2.14c1.55.17,2.41,1,2.81,2.81.12.52.21,1,.3,1.53h2.64c.09-3.48-1.5-5.73-4.46-6.42-3.37-.8-6.38.51-7.76,3.38-1.23,2.54-1.22,12,0,14.5a6.68,6.68,0,0,0,8.07,3.28,5.68,5.68,0,0,0,4.09-6.36h-2.61c-.09.55-.17,1-.28,1.55a3.27,3.27,0,0,1-4.58,2.63A3.63,3.63,0,0,1,288,99.55c-.14-3.28-.06-6.57,0-9.86A3.87,3.87,0,0,1,288.39,88.23Z"/><path d="M313.86,88.37h-2.94v1.54c0,3.3,0,6.59-.06,9.88a3.07,3.07,0,0,1-3.3,3.32c-1.93,0-3.11-1.29-3.19-3.45,0-1.3,0-2.6,0-3.9V88.37h-2.92c0,4-.18,7.9.05,11.78.21,3.54,2.82,5.37,6.75,5.18a5.58,5.58,0,0,0,5.62-5.84c0-1.39,0-2.78,0-4.17Z"/><path d="M356.13,88.4h-2.77c0,.82,0,1.55,0,2.29,0,3.06.06,6.12-.09,9.17a3,3,0,0,1-3.36,3.25c-1.89,0-3.1-1.35-3.14-3.51,0-2.73,0-5.46,0-8.2v-3h-2.87c0,4-.16,7.92,0,11.83.18,3.46,2.77,5.29,6.64,5.13a5.52,5.52,0,0,0,5.68-5.75c0-3.47,0-7,0-10.42A4.64,4.64,0,0,0,356.13,88.4Z"/><path d="M234.85,90.07c-.67,2-1.6,3.93-2.51,6.11-1-2.44-2-4.64-2.85-6.88a1.29,1.29,0,0,0-1.52-1c-.63.06-1.27,0-2.12,0,1,2.11,1.76,4.1,2.8,5.94a15.48,15.48,0,0,1,2.19,9.68,6.17,6.17,0,0,0,.08,1.11h2.68a1.76,1.76,0,0,0,.15-.44,5.89,5.89,0,0,0,0-1.11,13.91,13.91,0,0,1,1.9-8.51c1.15-2.09,2.06-4.32,3.13-6.6-.54,0-.91,0-1.27-.07C236.08,88,235.32,88.64,234.85,90.07Z"/><path d="M264.59,105h2.85V97.79h6.23v-2.2h-6.18V90.5h7.3V88.4h-10.2Z"/><path d="M329,90.62h4.18V105h2.93V90.51h4.17V88.4H329Z"/><path d="M221.46,97.1c2.08-1.68,2.66-3.31,2-5.51a4.57,4.57,0,0,0-4.42-3.23c-2.08-.1-4.17,0-6.38,0V105h2.87V98.33h1.84c2.85,0,3.43.58,3.45,3.4v.7c0,2.93,0,2.93,3,2.61.07,0,.14-.1.23-.17C223.27,102.25,225,98.83,221.46,97.1ZM215.63,96V90.62c3.94-.29,5.14.38,5.12,2.77S219.58,96.31,215.63,96Z"/><path d="M369.32,97.1c2.11-1.74,2.68-3.44,1.95-5.66-.64-1.93-2.4-3.07-4.93-3.11-1.9,0-3.8,0-5.83,0V105h2.91V98.33h1.93c2.65,0,3.35.7,3.37,3.37,0,1.1,0,2.19,0,3.3H372C371,102.28,372.87,98.83,369.32,97.1Zm-1.19-2c-1.16,1.7-3,.84-4.66,1V90.52c1.58.26,3.38-.66,4.59,1A3,3,0,0,1,368.13,95.06Z"/><path d="M260.61,94a6.15,6.15,0,0,0-6-5.93,5.9,5.9,0,0,0-6.22,5.64,32.09,32.09,0,0,0,.06,6.5,6.09,6.09,0,0,0,12,.43,31,31,0,0,0,.39-3.86h-.14C260.62,95.85,260.69,94.92,260.61,94Zm-3.33,6.89a2.55,2.55,0,0,1-2.79,2.22,2.85,2.85,0,0,1-3-2.25,31.72,31.72,0,0,1-.51-4,36.36,36.36,0,0,1,.45-4.08,2.93,2.93,0,0,1,3-2.44,2.7,2.7,0,0,1,2.86,2.35A48.13,48.13,0,0,1,257.28,100.89Z"/><path d="M320.92,102.85V88.35h-2.8V105h9.08c0-.77-.06-1.39-.09-2.12Z"/><path d="M140.73,63.27a12.69,12.69,0,0,0,1.13-.9c1.81-1.77,1.92-3.94,1.33-6.2a4.28,4.28,0,0,0-3.94-3.42c-2.48-.2-5,0-7.54,0V73.57l1.66-.08V64.08c1.54,0,3,0,4.39,0,2.49,0,3.81,1.33,3.92,3.86.06,1.34,0,2.69.22,4,.21,1.68.6,1.86,2.06,1.42a39.88,39.88,0,0,1-.5-4C143.39,67,143.48,64.52,140.73,63.27Zm-2.44-.79c-1.33.14-2.68.09-4,.11a5,5,0,0,1-.85-.14V54.1c1.69,0,3.22-.07,4.75,0,2.29.14,3.48,1.55,3.54,4C141.76,60.78,140.67,62.25,138.29,62.48Z"/><path d="M169.44,57a59.66,59.66,0,0,0-6.7-.06V73.45h1.75V67.19c1.53,0,3,.09,4.38,0,2.46-.18,4.08-2.12,4.22-4.86S171.73,57.21,169.44,57Zm1.83,5.47c-.12,1.94-1.18,3.22-2.87,3.33-1.24.07-2.48,0-3.89,0V58.3a35.86,35.86,0,0,1,4.28,0C170.46,58.53,171.41,60.24,171.27,62.42Z"/><path d="M149,73.5h9.39V72.05H150.8V65.48h6.69c0-.52,0-.91-.06-1.42h-6.65V58.22h7.64V56.88H149Z"/><path d="M236.3,62.06h-1.48c-.12-.54-.22-1-.34-1.52a3.1,3.1,0,0,0-2.55-2.44,3.35,3.35,0,0,0-3.5,1.15c-1.85,2.18-1.86,9.61,0,11.8A3.43,3.43,0,0,0,232,72.2a3,3,0,0,0,2.47-2.51c.1-.44.19-.89.29-1.38h1.38c.71,3.37-2.57,6.2-6.24,5.4a5.56,5.56,0,0,1-4.36-5,38,38,0,0,1,0-7.07,5.43,5.43,0,0,1,6-5.07C234.6,56.72,236.47,58.84,236.3,62.06Z"/><path d="M264.75,73.49H263V56.86h9.45c0,.42,0,.81.07,1.37h-7.74v6.09h6.62v1.56h-6.66Z"/><path d="M180.46,105h-2.77V88.42h2.77Z"/><path d="M156.33,105.05h-2.72V88.38h2.72Z"/><path d="M207.37,56.86H209V72.07h6.65v1.41h-8.29Z"/><path d="M315.32,58.21H310.9V56.85h10.64V58.2h-4.47V73.49l-1.75.08Z"/><path d="M359,73.49h-1.57V56.86H359Z"/><path d="M221,73.51h-1.56V56.87H221Z"/><path class="estonia-blue" d="M42.1,89.25a5.63,5.63,0,0,0-2-.51,6.24,6.24,0,0,0-3,.92,11.7,11.7,0,0,0-2.32,3c-.23.35-.12.93-.17,1.41l.32.19,4.25-3.47c-.83,1.93-3.08,2.57-2.55,5.19l3.68-3.4c-.25.94-.54,2-.86,3.28A15.24,15.24,0,0,1,41.6,95c.83-.18,1.87.07,2.5-.35s.9-1.44,1.46-2.44c.22.79.41,1.48.61,2.18a3.11,3.11,0,0,0,2.73-1.59A28,28,0,0,1,51,90.16c.26,1,.41,1.55.58,2.17a2.36,2.36,0,0,0,1.29-3.15c-.35-1-.32-2,1-2.54.22.94.43,1.82.64,2.74a2.2,2.2,0,0,0,1.16-2.94c-.34-1.06-.38-2.08.95-2.65l.65,2.78c1-.64,1.6-1.38,1.23-2.65s.37-2.21,1.39-2.91S61,79.38,60,78.47a4.65,4.65,0,0,0-4.6-.56c-.16.08-.43.2-.43.31-.06,1.86-1.59,1.78-2.73,1.88-4.16.37-6.32,2.82-7.32,6.76l2.21-.17a13.29,13.29,0,0,0-1,1.09C45,89.4,44,89.78,42.1,89.25Z"/><path class="estonia-blue" d="M60,113.73a7.91,7.91,0,0,0-3.24-.9c-.86-.09-1.87,0-2,1.36,0,.31-.7.7-1.15.83-1,.28-2,.39-3,.61a6.25,6.25,0,0,0-4.87,4.11c-.27.73-.61,1.44-.94,2.2a2.38,2.38,0,0,0,.56.07c.59-.05,1.18-.12,1.84-.2a12.13,12.13,0,0,0-1.07,1.1c-1.32,1.77-2.19,2.08-4.28,1.49a19.9,19.9,0,0,0-2-.51,3.38,3.38,0,0,0-3.51,1.71c-.39.64-1,1.15-1.33,1.8a8.18,8.18,0,0,0-.53,1.74l.46.2,4-3.24c-2.43,2.53-2.86,3.3-2.17,4.83l3.36-3.11L39.46,131a7.23,7.23,0,0,1,2.16-.84c2.86,0,3,0,3.94-2.62l.6,2a2.71,2.71,0,0,0,2.64-1.37c.63-.89,1.33-1.73,2.2-2.84.3,1,.46,1.62.64,2.23a2.41,2.41,0,0,0,1.25-3.24,1.81,1.81,0,0,1,1-2.51c.22.94.43,1.86.66,2.81a2.27,2.27,0,0,0,1.16-3c-.45-1.64-.33-1.79,1-2.58.21.9.41,1.77.63,2.7A2.19,2.19,0,0,0,58.48,119c-.35-1.24.41-2.12,1.38-2.79S61.15,114.42,60,113.73Z"/><path class="estonia-blue" d="M42.52,54.18c-.71-.22-1.42-.45-2.14-.61a3.38,3.38,0,0,0-3.72,1.25,23.51,23.51,0,0,0-1.74,2.36,5.72,5.72,0,0,0-.42,1.59l.4.23,4.38-3.53c-.92,2-3.2,2.6-2.69,5.28l3.64-3.37c-.22.91-.47,2-.76,3.19a7.55,7.55,0,0,1,2.2-.81c2.73.07,2.89,0,3.9-2.63.19.63.38,1.27.6,2a2.64,2.64,0,0,0,2.6-1.3c.65-.91,1.34-1.78,2.21-2.91l.65,2.24A2.36,2.36,0,0,0,52.9,54a1.8,1.8,0,0,1,1-2.55c.23,1,.45,1.86.67,2.8a2.25,2.25,0,0,0,1.12-3,1.86,1.86,0,0,1,1-2.61c.21.91.41,1.8.62,2.69l.51.18c.27-.8.86-1.65.74-2.38a2.9,2.9,0,0,1,1.6-3.35c.82-.46.8-1.06.47-1.76-.73-1.52-4-2.22-5.34-1.13-.16.12-.17.4-.3.56-.4.43-.76,1-1.26,1.21a18.77,18.77,0,0,1-2.72.58,6.28,6.28,0,0,0-4.73,3.29c-.48,1-.88,2-1.4,3.18l2.39-.21c-.48.58-1,1.24-1.53,1.82A3,3,0,0,1,42.52,54.18Z"/><path class="estonia-blue" d="M39.81,108.11a10,10,0,0,0,4.38.38c4.56-1,9.07-2.22,13.59-3.37a2.13,2.13,0,0,0,.59-.36c1.28-.9,2.57-1.81,3.84-2.73a4.62,4.62,0,0,0,.6-.73,4.16,4.16,0,0,0-1,0c-3.17.89-6.31,1.85-9.49,2.67-2.9.76-5.82,1.49-8.78,2a6.5,6.5,0,0,1-3.25-.81c-.31-.13-.37-1-.39-1.57,0-.16.77-.52.82-.46a7.92,7.92,0,0,1,.81,1.23,3.76,3.76,0,0,0,.45.37c.59-.28,1.59-.45,1.92-1s0-1.49-.14-2.48c.54.64,1,1.24,1.62,1.93a9.38,9.38,0,0,0,5.39-2.79c-2.77-.36-5.48-.79-8.21-1a7.49,7.49,0,0,0-3,.46A4.54,4.54,0,0,0,36.37,104,4.49,4.49,0,0,0,39.81,108.11Z"/><path class="estonia-blue" d="M50.78,65.16c-2.3-.31-4.58-.58-6.85-.92a7.69,7.69,0,0,0-4.89.58,4.31,4.31,0,0,0-2.65,3.94,4,4,0,0,0,2.84,3.92,9.74,9.74,0,0,0,4.34.62c6-.85,12-1.75,17.06-5.5.45-.33,1-.57,1.42-.88a4.36,4.36,0,0,0,.64-.58,1.91,1.91,0,0,0-1.4-.13c-4.36,1.27-8.69,2.65-13.08,3.8a31.33,31.33,0,0,1-5.9.74,2.18,2.18,0,0,1-2.42-1.48c-.11-.38.32-.91.5-1.37a12.2,12.2,0,0,1,1.15.85c.1.09,0,.39,0,.58,2.57,0,3.21-.93,2.44-3.15.43.56.86,1.13,1.39,1.81A9.67,9.67,0,0,0,50.78,65.16Z"/><path class="estonia-blue" d="M40.63,37.91a19.46,19.46,0,0,0,6.6-.3c4.87-1.27,10.05-1.86,14.07-5.42a9.33,9.33,0,0,1,1.44-.87c-.08-.17-.16-.35-.23-.53-1,.21-2,.35-2.92.63-4,1.16-7.87,2.51-11.86,3.51a24.42,24.42,0,0,1-6.17.44c-.59,0-1.26-.8-1.69-1.39-.14-.19.37-.86.59-1.31a11,11,0,0,1,1.08.82c.11.11,0,.41.08,1.07,1-.56,2-.81,2.41-1.44.29-.43-.21-1.39-.4-2.35l1.82,1.95a7.89,7.89,0,0,0,5.2-2.78c-2-.27-4.21-.6-6.4-.83a14.85,14.85,0,0,0-3.46-.06,4.91,4.91,0,0,0-4.42,4.47A4.58,4.58,0,0,0,40.63,37.91Z"/><path class="estonia-blue" d="M77.66,50.45a6,6,0,0,0-2.06-.2c-1,0-1.6-.41-1.86-1.55h3.05c-.43-1.76-1.69-1.78-3-1.67a1.9,1.9,0,0,1-2.33-1.68h3.19c-.66-1-1-2.06-2.33-1.82-1.9.36-2.58-.9-3.22-2.19a24.59,24.59,0,0,0,3.43-1.57c2.48-1.63,2.76-4.55.5-6.46a12.08,12.08,0,0,0-4-2c-1.84-.59-2.2-1.11-1.29-2.91-2.6-.5-3.95.48-4.25,2.9,0,.34-.45.69-.77.94-1.35,1.06-2.73,2.09-4.1,3.13.08.09.15.19.22.28l3.84-.5,1.74-2.36a9.91,9.91,0,0,0-.07,2.32c.06.25.79.35,1,.44.53-.85.92-1.48,1.3-2.11l.35.21c-.9,1.76-.51,2.67,1.32,3,.07-.14.1-.35.23-.45.46-.35,1-.67,1.42-1,.31.45,1,1,.86,1.34a2.07,2.07,0,0,1-1.25,1.15,3.27,3.27,0,0,1-1.77-.13,23.8,23.8,0,0,0-13.71,0c-4.5,1.31-9.08,2.38-13.84,2-1.31-.09-2.61-.32-3.77-.47.19,1.06.36,2.07.56,3.25a28.43,28.43,0,0,0-2.44-2.8,1.64,1.64,0,0,1-.49-2.3l1.33.43a33.91,33.91,0,0,1-1.18-4.14,28.61,28.61,0,0,1,0-3.93l-.35,0-2,2.52c-1.09-1.38-1-1.85.65-2.56a9.89,9.89,0,0,0,1.38-1,35.67,35.67,0,0,1-4.78-1.4c-1.62-.73-3.26-1.32-5-.87-2.34.62-4.6,1.54-7.07,2.39a9.13,9.13,0,0,0,1.3.85c1.59.69,1.71,1.3.61,2.47l-2.24-2.6a4.45,4.45,0,0,0-.13,1.32,5.6,5.6,0,0,1-.54,4.1,11.81,11.81,0,0,0-.47,2.94l1.11-.59.39.21a7.81,7.81,0,0,1-.75,2c-.7,1-1.58,1.81-2.6,3,.18-1.1.33-2,.47-2.94-.88-.73-1.85-1.45-2.72-2.27-1.61-1.52-1.64-1.9-.59-3.82a5.15,5.15,0,0,0-1.28-5.85,1.35,1.35,0,0,0-.45-.13C9.11,28.44,9,29.55,8.93,31c-1.06-2.95-2.7-4.16-4-3.54.13.78.24,1.48.37,2.27l1.34,1c-1.88,0-3.48-1.41-5.42-.35l1.3.86c-1,3-.55,3.74,2.35,4.09.21,0,.38.36.57.54-.22.09-.5.32-.65.25a1.31,1.31,0,0,0-2,.78c-.1.23-.68.25-1.38.48.78.77,1.43,1.39,2.05,2a2.36,2.36,0,0,0,2.79.66c.75-.31,1.58-.8,1.94.31s-.63,1.32-1.46,1.49c-.07,0-.13.11-.23.21.81,1.07,1.62,1.89,3.21,1.42.55-.17,1.3.38,2,.6l-.12.36-2,.51c.8,1.2,1.64,1.79,3.09,1.35.53-.16,1.27.39,1.91.61,0,.13-.08.26-.13.38l-1.83.47-.15.33,2.65,1.5c-.85.52-2,1.1-2.94,1.83-1.92,1.4-3.9,2-6.25,1.08a2.39,2.39,0,0,0-3,.86l1.51.19A8.39,8.39,0,0,0,2,54.81,7,7,0,0,0,.84,57.22c-.59,1.54-.67,2-.58,2.13.65-.18,1.33-.59,1.87-.46.92.23,1-.16,1.15-.85.32-1.56.8-2,2.11-2.12-1.45,1.41-2.37,3.93-2,4.56l4.05-1.11c-.25-1.62.07-2.22,1.52-2.53-.73.81-1.38,1.61-.37,2.65.4.42.71.92,1.18,1.53.58-.48,1.26-1.08,2-1.62a1.77,1.77,0,0,0,.73-2.4c-.13-.29.24-.8.38-1.22a4.67,4.67,0,0,1,1.23.59c.19.18.11.65.13.9,1.76.61,2.73-.2,3.57-1.6.31-.52,1.12-.74,1.71-1.1l.32.42c-.49.75-1,1.5-1.49,2.3,2.61.3,2.8.19,4.13-2.51-1.64-1.71-1.8-3.62-.49-5.87a1.88,1.88,0,0,1,.94,2.23c-.32,1.62.17,2.3,1.78,2.76.58-.86-.63-2.46,1.12-3,.2,1.6.05,3.1.62,4.25.65,1.32,1.81,1.2,3.65.07L27.71,53.6a9.62,9.62,0,0,0,.2-2.49c-.25-1.13.21-1.74,1.27-2.39.16,1.33.28,2.52.45,3.69a1.15,1.15,0,0,0,.35.67c1.69,1.54,2.4,1.57,4.49.22-1.86-.71-3.1-1.79-2.74-4a2.08,2.08,0,0,0-.35-1.19,1.86,1.86,0,0,1,.39-2.48c.33.51.63,1,.95,1.51,1.55-1.47,1.59-2,.7-3.66a7,7,0,0,1-.25-2.12c2.47,2,2.88,3.65,1.64,5.77a18.22,18.22,0,0,0-1.13,1.57,2.57,2.57,0,0,0-.21,1.78c.63,1.47,3.44,2.07,4.81,1.14-.91-1-.83-1.44.25-1.95,4.06-1.92,8.09-3.89,12.16-5.78a27.47,27.47,0,0,1,5.4-2.17,7.58,7.58,0,0,1,4,.47,2.38,2.38,0,0,1,1.46,3c-.73,3.28.35,5.15,3.49,6.38a10.65,10.65,0,0,1,2.13,1.54l-.21.35c1.75.35,2.78-2.22,4.71-1.17.43,1.65,0,2.16-1.57,2.12-.33,0-.65,0-1-.07a2.6,2.6,0,0,0-2.82,1.08,32.72,32.72,0,0,0-1.55,4l.61.33c.63-.77,1.22-1.57,1.89-2.29a19.18,19.18,0,0,1,1.59-1.4c.08.1.16.19.23.29-1.32.94-2,3.22-1.43,4.28l2.91-1.37,1.56-2.57.51.18c-1.47,1.65.13,2.72.42,3.67a15.86,15.86,0,0,1,2.75-.92c1.69-.27,2.57-1.14,2.32-2.48-.3-1.56-.54-3.12-.85-4.91l1.64.5A1.87,1.87,0,0,0,77.66,50.45ZM30.12,30.88c-1.83.28-2.09-1.19-3-2.13C29,28.49,29.18,30,30.12,30.88Zm.58,1.89-.83,1c-.24.29-.45.62-.72.89s-.64.77-.95.76-.67-.48-.95-.8a12.52,12.52,0,0,1-.89-1.28C27.44,32.11,29.25,33.36,30.7,32.77Zm-3.22-1.62c-2.57.29-2.51-1.92-3.89-3C26,28.05,26.11,30.1,27.48,31.15Zm-3.76-.36c-1.57.31-1.85-1.13-2.92-2C22.81,28.46,22.91,30.07,23.72,30.79Zm.75,2.44a10.09,10.09,0,0,0-.9,1.44c-.31.79-.93,1.09-1.48.56a17.83,17.83,0,0,1-1.86-2.5C21.62,33.35,23.38,32.16,24.47,33.23ZM19.52,48.07a23.6,23.6,0,0,0-.74,3.54,13.7,13.7,0,0,1-1-1.34A25,25,0,0,0,16.56,48c-1.85-2.46-1.64-4.4,1.19-6.54a5.88,5.88,0,0,1-.3,1.88c-.88,1.62-.83,2.29.65,3.83.31-.5.62-1,1-1.51A1.93,1.93,0,0,1,19.52,48.07Zm11.11-10.4a6.4,6.4,0,0,0-2.45,5.62c.44,2.19-.09,2.77-2.33,2.57a8,8,0,0,0-1.38.08c-1.47.14-2.31-.63-1.92-2,.63-2.25-.56-3.94-1.49-5.72-.14-.27-.62-.35-.94-.54a2.84,2.84,0,0,1-.95-4.2c.43,2.69.61,2.91,2.75,3.45.66,2.34,1.44,2.75,3,1.55-.24-.6-.47-1.21-.77-2h2.49c-.27.69-.5,1.29-.75,1.91,1.1,1.13,2.26.9,2.76-.57.11-.35.3-.9.54-.95,1.88-.38,2.43-1.66,2.37-3.44A2.76,2.76,0,0,1,30.63,37.67Z"/><path class="estonia-blue" d="M76.39,120.64c-1.09,0-2.3.22-2.6-1.47h3.06c-.48-1.7-1.65-2-3.06-1.8a1.92,1.92,0,0,1-2.37-1.74h3l.18-.54c-.73-.39-1.49-1.15-2.19-1.09-2,.17-2.71-1-3.27-2.26A23.47,23.47,0,0,0,72.76,110a3.73,3.73,0,0,0,.46-6.1,17.45,17.45,0,0,0-3.8-2.17c-.64-.33-1.59-.39-1.92-.88s-.07-1.39-.07-2.15c-2.18-.32-3.88.66-3.91,2.56,0,.82-.37,1.06-.92,1.45-1.37,1-2.68,2-4,3.06l.21.24,3.89-.48,1.7-2.41a10.38,10.38,0,0,0-.06,2.38c.06.24.8.32,1,.41.51-.84.89-1.44,1.26-2l.31.2c-.79,1.84-.35,2.74,1.44,2.9.06-.15.08-.39.2-.47a4.18,4.18,0,0,1,1.49-.83c.22,0,.87.78.79,1A2.38,2.38,0,0,1,69.76,108a2.47,2.47,0,0,1-1.63,0c-5.09-1.64-10.11-1.26-15.19.22-4.73,1.38-9.56,2.37-14.55,1.57l-1.91-.31c.2,1.09.37,2.07.6,3.3A27.1,27.1,0,0,0,34.69,110c-.85-.73-1.13-1.41-.54-2.39l.9.43c.42-2.87-2.12-5.21-.62-8l-.51,0-2.08,2.46c-1.09-1.25-1-1.78.62-2.49a10,10,0,0,0,1.36-.9l-.15-.35A12.81,12.81,0,0,1,31,98.41c-1.25-.41-2.4-1.33-3.66-1.51a15.53,15.53,0,0,0-4.6.29c-1.68.3-3.07,1.67-4.94,1.39-.22,0-.47.14-1.11.33A16,16,0,0,0,18.46,100c1.49.66,1.61,1.27.54,2.41l-2.38-2.7a8,8,0,0,0,0,1.77,4.76,4.76,0,0,1-.41,3.44,15.26,15.26,0,0,0-.68,3.3l1.6-.83a7.77,7.77,0,0,1-.62,2.24c-.76,1-1.7,1.91-2.79,3.1.2-1.13.35-2,.51-3-.78-.62-1.62-1.21-2.36-1.9C10,106,9.7,105.52,11,103.36c1.06-1.7,0-4.76-1.85-5.7C9.11,98.8,9,99.93,9,101.35c-1.17-2.93-2.82-4.13-4-3.49.14.81.26,1.51.4,2.3l1.28,1c-1.84,0-3.43-1.34-5.38-.34l1.32.88c-1,2.91-.56,3.69,2.36,4,.21,0,.38.3.57.46a2.6,2.6,0,0,1-.68.39,10.78,10.78,0,0,0-1.73.3,7.24,7.24,0,0,0-1.42,1.22,12.09,12.09,0,0,1,1.56,1.45,2.48,2.48,0,0,0,3.42.79c.71-.36,1.41-.3,1.53.49.06.42-.53,1-.91,1.38-.14.16-.5.13-.88.22.9,1.09,1.68,2,3.29,1.54.56-.16,1.3.32,2,.52l-.11.42-1.89.54a2.54,2.54,0,0,0,3.1,1.34c.54-.14,1.26.39,1.89.62l-.13.37-1.93.48c.8,1.11,1.63,2,3.16,1.38-1.31.9-2.66,1.62-3.9,2.5a5.69,5.69,0,0,1-5.63.89,2.48,2.48,0,0,0-3.21.84l1.56.17a7.92,7.92,0,0,0-3.35,2.18A11.87,11.87,0,0,0,0,129.64a18.38,18.38,0,0,0,2.47-.33,1.31,1.31,0,0,0,.76-.83,2.63,2.63,0,0,1,2-2.31c-.87,1.66-1.89,3.14-1.81,5.09,1.07-1.52,2.64-1.22,4.08-1.19-.34-1.93,0-2.51,1.48-2.91-1.13,1.33-1.18,2-.29,2.8a10.57,10.57,0,0,1,1.07,1.41c.51-.41,1.17-1,1.89-1.52.88-.65,1.34-1.34.8-2.49-.13-.26.28-.78.44-1.18a4.83,4.83,0,0,1,1.22.62c.19.19.1.65.13.88a2.6,2.6,0,0,0,3.47-1.6,1.49,1.49,0,0,1,2.13-.78l-1.48,2.37c2.51.35,2.72.22,4.09-2.5-1.63-1.75-1.75-2.94-.58-5.87a1.79,1.79,0,0,1,1,2.25c-.31,1.61.21,2.31,1.93,2.77,0-.76-.05-1.5,0-2.23,0-.27.36-.5.56-.74.2.23.54.45.57.7a20.34,20.34,0,0,0,.07,2.22,3.54,3.54,0,0,0,.9,1.67c1.1,1.09,2.07.28,3.19-.33L27.68,124a8.51,8.51,0,0,0,.24-2.4,2,2,0,0,1,1.16-2.37,13.33,13.33,0,0,1,.55,3,1.79,1.79,0,0,0,.87,1.65c1.35,1.17,2.58.89,3.87,0-.91-1.06-3.1-1.08-2.55-3.35.35-1.43-1.7-2.87-.06-4.42.3.5.61,1,.92,1.5,1.55-1.3,1.64-2,.8-3.57a5.59,5.59,0,0,1-.27-1.91c2.6,2,2.87,3.75,1.27,6-.26.37-.74.67-.85,1.08a2.79,2.79,0,0,0,0,1.89,3.64,3.64,0,0,0,4.68,1.07c-1-1.15-.84-1.52.46-2.1q4.63-2.09,9.2-4.27c2.3-1.09,4.54-2.34,6.9-3.28a8.55,8.55,0,0,1,3.8-.44,3,3,0,0,1,2.88,3.63c-.71,3.1.32,5.07,3.36,6.17,1.06.39,2,.78,2.06,2.17l4.58-1.76c.66,2.19.21,2.7-1.94,2.52-1.42-.11-2.82-.1-3.49,1.36A23.21,23.21,0,0,0,65,129.86s.11.12.38.39a28.16,28.16,0,0,1,2-2.52,12.47,12.47,0,0,1,1.9-1.38c-1.53,1.59-2.18,3.28-1.64,4.73l3.28-1.55c.26-1.69.51-2,1.89-2.32-1.71,1.58-.08,2.75.23,3.75a18.56,18.56,0,0,1,2.78-.89c1.76-.31,2.61-1.25,2.3-2.63s-.53-3-.82-4.73l1.58.42C79,121.36,78.28,120.66,76.39,120.64ZM30.73,103.27l-1.08.92a3.48,3.48,0,0,0-.48.46c-.35.4-.68.8-1,1.2L27,104.53l.24-.32H26c1.42-1.83,3.27-.52,4.56-1.29Zm-.39-1.94c-2,.15-2.33-1.18-3.19-2.19C29,98.89,29.15,100.48,30.34,101.33Zm-2.87.23c-2.5.23-2.48-1.9-3.49-2.89C26,98.53,26.15,100.47,27.47,101.56ZM24,101.31c-1.84.22-2.15-1.17-3-2.2C22.8,98.94,23,100.43,24,101.31Zm.41,2.26c-.4.72-.66,1.12-.85,1.54-.34.76-1.34,1-1.43.49-.23-1.27-1.64-1.38-2-2.72C21.62,103.58,23.32,102.52,24.4,103.57Zm-5.24,18.18-.4.2a15,15,0,0,1-1-1.37,19.94,19.94,0,0,0-1-2c-2-2.52-1.83-4.41,1-6.69a5.6,5.6,0,0,1-.29,1.87c-.89,1.64-.84,2.33.65,3.83l1-1.54C20.77,118.07,18.08,119.87,19.16,121.75Zm11.5-13.7a6.4,6.4,0,0,0-2.49,5.61c.45,2.21-.05,2.76-2.3,2.57a6.4,6.4,0,0,0-1.38.08c-1.49.16-2.34-.6-1.94-2,.64-2.26-.55-4-1.48-5.73-.14-.27-.62-.36-.94-.54a2.9,2.9,0,0,1-.8-4.42c-.21,2,.44,3.24,2.33,3.63.19,0,.38.43.45.69.47,1.62,1.19,1.9,2.85,1-.26-.7-.5-1.31-.79-2.08h2.51c-.29.73-.55,1.36-.8,2,1.4,1.08,2.32.8,2.84-.86a1.39,1.39,0,0,1,.45-.73c2.11-1.13,2.11-1.12,2.54-3.43A2.92,2.92,0,0,1,30.66,108.05Z"/><path class="estonia-blue" d="M2,94c.94.25,1.15,0,1.26-.85A2.3,2.3,0,0,1,5.33,91c-1.39,1.7-2.21,4-1.73,5.23C4.47,94.51,6,94.8,7.48,94.9c-.28-2,0-2.5,1.52-2.88-.85.9-1.41,1.74-.3,2.74a10.27,10.27,0,0,1,1.09,1.4c.49-.4,1.12-1,1.81-1.45.92-.67,1.46-1.37.84-2.58-.13-.24.21-1,.37-1.06a1.93,1.93,0,0,1,1.26.41c.21.18.16.67.23,1,1.51.38,2.66,0,3.33-1.44a1.58,1.58,0,0,1,2.21-.94l-1.42,2.35c2.58.32,2.86.13,4-2.53-2-1.74-1.27-3.77-.62-5.87a1.94,1.94,0,0,1,1.06,2.47c-.3,1.44.39,2.28,1.89,2.53C25,86.16,25,86.16,26,86.28A25.23,25.23,0,0,1,26,89a1.82,1.82,0,0,0,1.62,2.08,8.53,8.53,0,0,0,2.84-.51l-2.77-1.8a9,9,0,0,0,.24-2.36A2,2,0,0,1,29.11,84c.2,1.11.39,2.15.56,3.19,0,.3-.07.69.08.91a2.89,2.89,0,0,0,4.56.34c-1.67-.71-3-1.65-2.55-3.76a2.28,2.28,0,0,0-.38-1.32,1.86,1.86,0,0,1,.39-2.47l1,1.54c1.55-1.57,1.57-2,.68-3.7a6.78,6.78,0,0,1-.24-2.12c2.4,2,2.83,3.48,1.75,5.53-.32.61-.9,1.09-1.16,1.71a2.86,2.86,0,0,0-.3,1.88c.58,1.42,3.39,2.06,4.69,1.2-.8-1.16-.67-1.51.5-2,3.25-1.48,6.47-3,9.7-4.52,2.34-1.1,4.66-2.28,7-3.27a5,5,0,0,1,4.81.37,2.6,2.6,0,0,1,1.3,3.07c-.77,3,.36,5,3.39,6.19a12.77,12.77,0,0,1,2.3,1.56l-.15.47,4.46-1.65c.63,2,.1,2.68-1.64,2.56a6.73,6.73,0,0,0-2.33.06c-1.53.45-2.91,3.52-2.31,5.49.78-1,1.37-1.85,2.08-2.61a12.83,12.83,0,0,1,1.74-1.35l.21.29c-1.59,1.25-2.21,3-1.64,4.34l3.31-1.54a2.36,2.36,0,0,1,2-2.49c-1.95,1.79-.29,2.92,0,3.87,1.09-.33,2.07-.71,3.09-.92,1.5-.3,2.26-1.18,2-2.43-.31-1.56-.55-3.13-.85-4.88l1.57.46c.16-1.71-.5-2.42-2.29-2.45-1.13,0-2.38.24-2.76-1.46l3-.13c-.44-1.86-1.72-1.82-3-1.69a1.94,1.94,0,0,1-2.33-1.69c.59,0,1.1,0,1.61,0l1.42-.06.18-.46c-.68-.42-1.39-1.23-2-1.18a3.09,3.09,0,0,1-3.47-2.32,24.3,24.3,0,0,0,3.29-1.45c2.67-1.68,2.91-4.77.45-6.74a21.53,21.53,0,0,0-3.81-1.91c-.59-.29-1.41-.48-1.68-1s.13-1.22.23-1.86c-2.08-.59-4,.51-4.08,2.52,0,.84-.43,1-1,1.42-1.32.93-2.57,1.95-3.85,2.94l.24.31,3.74-.42,1.48-2.15.3.21c-.13.34-.43.74-.35,1a5.15,5.15,0,0,0,.79,1.29c.29-.29.62-.56.89-.88s.63-.86,1-1.29c-.61,2.07-.27,2.89,1.55,3.29a1,1,0,0,1,.2-.31c.47-.41,1-.8,1.42-1.2.33.44,1,1.09.92,1.28a2.88,2.88,0,0,1-1.47,1.29,3.69,3.69,0,0,1-1.9-.27,23,23,0,0,0-12.89,0c-6,1.67-12,3.18-18.18,1.58.22,1.07.44,2.11.73,3.45a29.08,29.08,0,0,0-2.54-2.89,1.66,1.66,0,0,1-.45-2.33l1,.48c.19-2.9-2-5.31-.74-8.15h-.45l-2.06,2.5c-1.1-1.31-1-1.82.64-2.54a8.75,8.75,0,0,0,1.33-.88l-.17-.48c-.58,0-1.17,0-1.75,0a3.56,3.56,0,0,1-1-.21,20.14,20.14,0,0,0-3.81-1.51,9.59,9.59,0,0,0-3.95.2c-1.81.48-3.41,1.73-5.43,1.54-.19,0-.39.17-.87.4a13.07,13.07,0,0,0,1.52.94c1.62.72,1.75,1.24.67,2.53l-2.39-2.77a8.38,8.38,0,0,0,0,1.81,4.75,4.75,0,0,1-.42,3.44A15.43,15.43,0,0,0,15.56,73l1.13-.67a1.78,1.78,0,0,1-.63,2.53,19.28,19.28,0,0,0-2.31,2.76c.18-1.23.32-2.14.46-3.08-1-.81-2-1.63-3-2.56-1.35-1.31-1.37-1.72-.42-3.4a4.92,4.92,0,0,0-1.29-6.05c-.09-.06-.24,0-.32-.06-.08.58-.18,1.11-.22,1.65s0,1.09,0,2c-1.28-3-2.79-4.07-4.54-3.33,1,.48,1.32,1.12.59,1.83l1.73,1.56c-1.68-1-4.21-1.4-5.28-.51l.8.61a12,12,0,0,0,.05,3.15c.37,1.19,1.52,1.16,2.59,1,.16,0,.36.29.54.45-.25.12-.57.4-.74.33A1.27,1.27,0,0,0,2.83,72c-.12.26-.69.3-1.09.45a1.53,1.53,0,0,0,.05.52,4.26,4.26,0,0,0,4.92,2.13,1.61,1.61,0,0,1,1.45.45c.39.69-.06,1.2-.84,1.39a6.8,6.8,0,0,0-.84.32c.91,1.21,1.81,1.94,3.38,1.39.45-.16,1.16.39,1.75.61l-.09.35-1.89.62a2.56,2.56,0,0,0,3.16,1.27c.5-.15,1.19.38,1.8.61l-.12.39-1.8.52c-.05.14-.09.28-.13.42l2.74,1.31c-1,.62-2.36,1.35-3.62,2.22a5.37,5.37,0,0,1-5.36.83A2.65,2.65,0,0,0,3,88.54l1.19.27a10,10,0,0,0-2.86,1.86A11.37,11.37,0,0,0,0,94.15c0,.16.11.4.15.51C.84,94.42,1.51,93.91,2,94ZM30.17,66.1c-1.88.12-2.19-1.26-3.11-2.2C28.86,63.67,29.13,65.08,30.17,66.1Zm.55,1.82c-.24.31-.42.76-.74.9-.54.25-.87.46-.9,1.14,0,.24-.63.69-.88.64s-.67-.5-1-.82a14.49,14.49,0,0,1-.87-1.27C27.44,67.19,29.29,68.63,30.72,67.92ZM27.35,66.3c-2.5.27-2.4-2-3.84-3C26,63.24,26.11,65.18,27.35,66.3Zm-3.46-.22c-1.82.17-2.1-1.24-3-2.19C22.7,63.7,23,65.09,23.89,66.08Zm.6,2.37a12.46,12.46,0,0,0-.93,1.41c-.32.78-1.12,1.09-1.6.5-.63-.77-1.15-1.62-2-2.82C21.6,68.49,23.31,67.32,24.49,68.45Zm-5.23-.06c-.08,2.07.53,3.47,2.75,3.63.17,1.28.39,2.42,2,2.16.79-.13,1.25-.41.64-1.29a5.5,5.5,0,0,1-.46-1.23h2.49c-.28.69-.51,1.28-.76,1.89,1.09,1.11,2.28.87,2.76-.58.11-.33.25-.88.44-.91,2-.34,2.54-1.67,2.49-3.56a2.91,2.91,0,0,1-1,4.36,6.39,6.39,0,0,0-2.47,5.63c.43,2.13-.05,2.68-2.22,2.58-.55,0-1.11,0-1.66,0-1.36,0-2.13-.66-1.76-1.94.64-2.25-.49-4-1.44-5.75-.14-.28-.61-.38-.92-.57A3,3,0,0,1,19.26,68.39Zm-1.53,8a6.71,6.71,0,0,1-.24,2.11c-.94,1.74-.89,2.43.63,3.88.32-.5.62-1,1-1.57,1.7,2-1.07,3.83.13,5.73l-.51.19c-.35-.47-.72-.92-1-1.42a21.29,21.29,0,0,0-1.14-2.11C14.68,80.77,14.93,78.61,17.73,76.41Z"/><path class="estonia-blue" d="M27,42.07c0-.6.09-1.13.14-1.85H23.67c.08.84.14,1.36.18,1.85Z"/><path class="estonia-blue" d="M26.58,43.38a7.37,7.37,0,0,0-2.39,0c-.25,0-.58.62-.56.93s.53.47.87.59a2.17,2.17,0,0,0,.86,0,2.7,2.7,0,0,0,.9,0,4.52,4.52,0,0,0,1-.51C27,44.06,26.85,43.43,26.58,43.38Z"/><path class="estonia-blue" d="M27,112.48c0-.59.1-1.12.16-1.84h-3.5c.08.81.13,1.3.19,1.84Z"/><path class="estonia-blue" d="M26.42,113.71a6,6,0,0,0-2.27.1c-.25.06-.55.65-.52,1s.56.44.9.56a2.61,2.61,0,0,0,.87,0,2.19,2.19,0,0,0,.77,0,6.68,6.68,0,0,0,1.06-.55C27,114.4,26.75,113.77,26.42,113.71Z"/><path class="estonia-blue" d="M27,77.31c0-.6.1-1.14.14-1.57a5.92,5.92,0,0,0-1.73-.55,6.57,6.57,0,0,0-1.73.59c.06.54.12,1.07.18,1.53Z"/><path class="estonia-blue" d="M27.15,79.38c0-.38-1.13-1-1.75-1s-1.22.64-1.84,1l1.64,1C26.09,80,27.22,80.73,27.15,79.38Z"/></g></svg>
