<svg id="Layer_1" data-name="Layer 1" xmlns="http://www.w3.org/2000/svg" viewBox="0 0 374.13 21.28"><path d="M243.09,6.8a9.64,9.64,0,0,0-5.53-3.07,9,9,0,0,0-5.71.85A6.86,6.86,0,0,0,230.62,16a8.52,8.52,0,0,0,11-.36,16.81,16.81,0,0,0,1.51-2.11l-.2-.23h-6.13V9.85h8.06c.64,5.58-2.29,10.63-7.67,11.32a9.18,9.18,0,0,1-8.52-3.47,10.34,10.34,0,0,1-2-10.6A10,10,0,0,1,234.83.16a8.93,8.93,0,0,1,7.7,2.16,1.86,1.86,0,0,1,.54,1.2C243.14,4.52,243.09,5.53,243.09,6.8Z"/><path d="M30.39,0A10.57,10.57,0,0,1,40.51,11.63c-.64,5.4-4.76,9.46-9.77,9.62A10.52,10.52,0,0,1,20.15,9.43,10.5,10.5,0,0,1,28.8.15C29.32.06,29.86.05,30.39,0ZM22.18,11.48a6,6,0,0,0,3.73,5.17,9.94,9.94,0,0,0,8,.35,6.44,6.44,0,0,0,4.52-6.25,6.51,6.51,0,0,0-4.41-6.44A10.26,10.26,0,0,0,27.42,4C24.09,5,22.17,7.43,22.18,11.48Z"/><path d="M342.93,0A10.54,10.54,0,0,1,353.08,11.6c-.62,5.4-4.73,9.47-9.74,9.65a10.5,10.5,0,0,1-10.6-11.87A10.48,10.48,0,0,1,341.43.14,14.92,14.92,0,0,1,342.93,0ZM334.75,11.4a6,6,0,0,0,3.76,5.27,10,10,0,0,0,7.95.35A6.46,6.46,0,0,0,351,10.71a6.53,6.53,0,0,0-4.54-6.44,10.16,10.16,0,0,0-7.38.06C336.33,5.42,334.76,7.7,334.75,11.4Z"/><path d="M61.14.41h13V3.79H63.21v5h9.73v3.38H63.2v5.26h11v3.46h-13Z"/><path d="M118.38,17.38v3.47h-13V.45h13V3.82H107.41V8.74h9.72v3.38H107.4v5.26Z"/><path d="M220,15.69V.45H222V20.83a2.7,2.7,0,0,1-3-.95c-3.64-4.61-7.41-9.12-11.13-13.67-.16-.2-.34-.4-.68-.79V20.87h-2V.45a2.85,2.85,0,0,1,3.06,1c3.65,4.64,7.43,9.18,11.17,13.75l.45.54Z"/><path d="M372.13.42h2V20.83a2.67,2.67,0,0,1-2.95-.94c-3.67-4.63-7.45-9.17-11.19-13.74l-.63-.73V20.86h-2V.46a2.78,2.78,0,0,1,3.05,1c3.65,4.64,7.44,9.18,11.17,13.75l.59.72Z"/><path d="M88.23.55a68.2,68.2,0,0,1,7.84.06,5.75,5.75,0,0,1,5.07,5.77,6.06,6.06,0,0,1-4.4,6.17c-.17,0-.33.12-.58.21l4.77,8.14c-1.19,0-2.24,0-3.28,0-.21,0-.44-.35-.58-.58-1.3-2.2-2.61-4.39-3.86-6.61a1.32,1.32,0,0,0-1.46-.82,12.47,12.47,0,0,1-1.51,0v8h-2Zm2,8.88a1.24,1.24,0,0,0,.25.07c1.18,0,2.37,0,3.55,0a14.58,14.58,0,0,0,2.65-.17,2.61,2.61,0,0,0,2.32-2.71A2.56,2.56,0,0,0,96.61,4c-2.08-.15-4.18,0-6.33,0Z"/><path d="M307.75,20.91c-1.05,0-2,0-2.93,0-.23,0-.53-.32-.64-.56-.73-1.59-1.43-3.2-2.1-4.81a.87.87,0,0,0-1-.67c-2.58,0-5.17,0-7.75,0a.89.89,0,0,0-1,.65c-.62,1.51-1.34,3-1.92,4.5-.28.73-.65,1.05-1.43.93a8.51,8.51,0,0,0-1.25,0c.13-.34.22-.61.33-.87,2.77-6.29,5.56-12.58,8.29-18.88a1.18,1.18,0,0,1,1.35-.79c.62,0,1.06,0,1.37.76,2.74,6.34,5.53,12.65,8.31,19C307.54,20.34,307.62,20.58,307.75,20.91ZM297.22,4.42l-3,6.89h5.92a3.45,3.45,0,0,0-.14-.49Z"/><path d="M2,12.24v8.61H0V.43H2V8.72h12V.44h2V20.85H14c0-2.41,0-4.78,0-7.14,0-1.69.22-1.46-1.46-1.46-3.15,0-6.3,0-9.44,0Z"/><path d="M138.27,6.26A9.11,9.11,0,0,0,133,3.72a9,9,0,0,0-5.27.9,6.4,6.4,0,0,0-3.74,6.18,6.24,6.24,0,0,0,3.92,6,9,9,0,0,0,9.85-1.23l.55-.43c0,1.36.05,2.56,0,3.75,0,.31-.48.64-.81.86a9.78,9.78,0,0,1-12.33-1.41,10.19,10.19,0,0,1-2.69-10.89A10,10,0,0,1,130.81.15a9,9,0,0,1,6.83,1.63,1.71,1.71,0,0,1,.6,1.15C138.32,4,138.27,5,138.27,6.26Z"/><path d="M177.29,15.1c0,1.33.06,2.48,0,3.62,0,.34-.45.73-.78,1a9.73,9.73,0,0,1-12-1.05A10.2,10.2,0,0,1,161.32,7.7,10,10,0,0,1,169.79.16a9.34,9.34,0,0,1,6.87,1.57A1.29,1.29,0,0,1,177.31,3c-.05,1,0,2,0,3.29A9.3,9.3,0,0,0,166.74,4.6,6.39,6.39,0,0,0,163,11,6.34,6.34,0,0,0,167.34,17,9.21,9.21,0,0,0,177.29,15.1Z"/><path d="M258.18,15.78c1.41.62,2.74,1.32,4.15,1.78a5,5,0,0,0,3.66-.21,2.18,2.18,0,0,0,1.46-1.86,1.91,1.91,0,0,0-1.27-2c-.9-.45-1.85-.8-2.76-1.21s-1.65-.7-2.41-1.14a5.84,5.84,0,0,1-2.89-6.9A5.91,5.91,0,0,1,264,0a7.34,7.34,0,0,1,4.16,1.09c.25.16.59.45.6.69.07,1.12,0,2.23,0,3.51-.44-.28-.72-.47-1-.65a7.16,7.16,0,0,0-6-.88,4,4,0,0,0-1.19.57,1.6,1.6,0,0,0-.12,2.71,7.7,7.7,0,0,0,1.78,1c1.08.48,2.22.84,3.29,1.33,3.37,1.57,4.66,4.57,3.48,8-1,3-4,4.44-7.46,3.65a7.79,7.79,0,0,1-.94-.28c-2.26-.79-2.47-1.09-2.47-3.47Z"/><path d="M46.73,13.43v7.44h-2V.38c1.06,0,2.12,0,3.17,0a29.51,29.51,0,0,1,4.52.2,6.33,6.33,0,0,1,5.21,6.75,6.45,6.45,0,0,1-6.21,6.07C49.92,13.49,48.41,13.43,46.73,13.43Zm0-9.42c0,1.81,0,3.7,0,5.59,0,.13.3.37.46.37,1.89,0,3.79,0,5.67-.15A2.85,2.85,0,0,0,55.57,7,2.75,2.75,0,0,0,53,4.06C51,3.86,48.92,4,46.74,4Z"/><path d="M279.55,3.84h-7.22V.45H288.7V3.83h-7.14v17h-2Z"/><path d="M306.7,3.88V.45h16.4V3.82H316v17h-2v-17Z"/><path d="M151.37,9.32l.67-.9c1.68-2.37,3.39-4.72,5-7.12a1.7,1.7,0,0,1,1.8-.93,12.33,12.33,0,0,0,1.51,0c-.26.38-.42.64-.6.89-2.48,3.51-5,7-7.43,10.54a2.84,2.84,0,0,0-.47,1.46c-.05,2.2,0,4.39,0,6.59v1h-2a40.06,40.06,0,0,1,0-4.52,8.65,8.65,0,0,0-2.32-7c-2.18-2.54-4.07-5.32-6.09-8L140.77.4c1.34,0,2.53,0,3.72,0,.24,0,.49.38.68.63C147.22,3.78,149.27,6.51,151.37,9.32Z"/><path d="M182.32.42h2v17H194.6v3.48H182.32Z"/><path d="M199.93,20.88H198V.42h1.92Z"/><path d="M326.67.43h1.93V20.86h-1.93Z"/></svg>