<svg id="Layer_1" data-name="Layer 1" xmlns="http://www.w3.org/2000/svg" viewBox="0 0 437.98 215.48"><defs><style>.polish-red{fill:#ed1c24;fill-rule:evenodd;}</style></defs><path d="M162.18,204.64l-4.75-27.13.22,27.13h-4.51V153.92h4.51l4.83,27.59-.3-27.59h4.52v50.72Z"/><path d="M172.61,204.64v-44.1h9.62v3.66h-5.7v16.19h5.7v3.74h-5.7V200.9h5.7v3.74Z"/><path d="M204.39,204.64h-3.94L197,182.88l-3.47,21.76h-3.93l-3.74-44.1h3.93l2.43,27.91,3.27-20.51h3l3.27,20.51,2.43-27.91h3.93Z"/><path d="M229.9,182.56v22.08h-4.52V182.56l-6.25-28.64h4.52l4,20.57,4-20.57h4.52Z"/><path d="M245.1,204.64h-2.36c-3,0-4.72-1.57-4.72-4.39V164.86c0-2.75,1.71-4.32,4.72-4.32h2.36c3,0,4.72,1.57,4.72,4.32v35.39C249.82,203.07,248.11,204.64,245.1,204.64Zm.78-40.44H242v36.7h3.93Z"/><path d="M263.19,204.64l-3.35-20.51h-.92v20.51H255v-44.1h7.08c3,0,4.72,1.57,4.72,4.32v14.87a4.12,4.12,0,0,1-3.6,4.33l3.92,20.58Zm-.34-40.44h-3.93v16.19h3.93Z"/><path d="M280,204.64l-4.86-21v21h-3.92v-44.1h3.92v21l4.4-21h3.93l-4.4,21.82L284,204.64Z"/><path class="polish-red" d="M120.73.26S111.79.41,111,.6h-3.12a17.69,17.69,0,0,0-3.26.13c-.87.19-2-.11-2.79.07s-2-.11-2.79.06H96.1c-.79.18-1.91-.13-2.79.07A12,12,0,0,1,91.12,1a19.64,19.64,0,0,0-3.52.14c-.87.19-2-.11-2.79.07L77,1.33l-5.18.26H69.54c-.72.17-1.53-.06-2.39.14a18.18,18.18,0,0,1-2.33.06c-1.63.16-3.64,0-5.25.33-.5.1-1.49-.07-2,0-1.79.26-4.09-.06-5.84.33-1,.23-2.24-.08-3.19.14s-2.23-.08-3.19.14l-4.78.12a9.51,9.51,0,0,1-1.53.06,28.48,28.48,0,0,0-4.71.28h-1.6a10,10,0,0,1-1.83,0c-.52,0-1.1.15-1.55.18H28c-.95.21-2.18-.1-3.18.13a7.89,7.89,0,0,1-1.3,0c-.66,0-1.27,0-1.9.09-.8.05-1,.05-1.71.07-.83,0-1.76.14-2.4.13a9.72,9.72,0,0,1-.2,2.06V7.23c-.17.78-.11,1.91-.33,2.6-.13.37.11,1,0,1.53-.29,1.28-.12,2.84-.41,4.11,0,.58,0,1.15-.06,1.73-.44,2.05-.14,4.46-.59,6.51-.16,2.21-.32,4.42-.47,6.65-.74,3.33-.61,7-1.4,10.36-.28,1.19-.2,2.47-.46,3.58,0,.35-.05.71-.07,1.06-.33,1.47-.24,3.14-.59,4.65-.21.91-.17,1.93-.4,2.92-.83,3.54-.76,7.49-1.6,11-.3,1.3-.24,2.65-.53,3.86s-.15,2.66-.46,4c-.76,3.23-.63,6.87-1.39,10.1-.29,1.19-.21,2.48-.47,3.59,0,.34,0,.7-.07,1.06-.26,1.13-.27,2.46-.53,3.58-.12.51,0,1.14-.2,1.53a.68.68,0,0,0,.07.26c9.56,0,19.23-.06,28.69-.06h8.16a14,14,0,0,0,2.53.06,40,40,0,0,0,4.12-.06,15.11,15.11,0,0,1-1.06,3.45c-.14.47-.27.93-.4,1.4-.36,1-.74,2-1.06,3-2,5.9-3.92,11.56-6.18,17.14-.56,1.38-.69,2.78-1.2,4.19-1,2.75-1.73,5.73-2.65,8.54,0,.21,0,.43-.07.65-.25.84-.48,1.82-.73,2.67-.43,1.4-.61,3-1,4.37-.06.4-.13.8-.2,1.2s-.39.69-.53,1c-.77,1.77-1.51,3.52-2.26,5.25-3,6.86-5.9,13.61-8.76,20.52-.73,1.75-1,3.57-1.73,5.32-.64,1.55-1,3.29-1.66,4.91-1.3,3.18-2.23,6.72-3.32,10-.62,1.89-.76,4-1.26,6.11-.2.8,0,1.87-.4,2.53A6.83,6.83,0,0,0,18.46,196a.91.91,0,0,0,.07.47v.66l-1,.27c-1.13.46-2.33.84-3.52,1.33-4.58,1.9-9.47,4-14,5.9v4.64H9.29l17.21-.53c.27-.13.16-.62.27-.93.19-.54.46-1.33.66-1.86.14-.37.07-.69.2-1.06,1.15-3.15,1.85-7.31,3-10.48.3-.82.3-1.56.6-2.39,1.19-3.34,1.92-7,3.12-10.37.39-1.07.57-2.18.92-3.18.05-.26.1-.53.14-.8a7.5,7.5,0,0,1,.8-1.19c.56-.91,1.1-1.79,1.65-2.66,1.83-2.89,3.65-5.68,5.39-8.63,1-1.66,2.2-3.31,3.25-4.92,1.5-2.29,2.82-4.61,4.32-6.9.64-1,1.35-2,2-3,.19-.3.21-.64.4-.93a3.86,3.86,0,0,0,.66-1.2h.2a12,12,0,0,0,.46,2.46c.22.78.2,1.61.41,2.26s.13,1.15.2,1.72c.41,1.34.5,3,.86,4.39.07.53.13,1.06.2,1.59.42,1.7.57,3.61,1,5.31.22.88.12,1.82.4,2.67a10.45,10.45,0,0,0,1.13,2c.91,1.39,1.76,2.77,2.66,4.12,2.5,3.78,4.82,7.58,7.3,11.36,1.67,2.54,3.3,5.13,5,7.7.49.73,1,1.51,1.47,2.26a5.31,5.31,0,0,1,.79,1.2,12.08,12.08,0,0,1,2.39.33c1.16.26,2.39.25,3.39.53-.1.92-1.86,2.45-2.39,3.19-1.55,2.12-3.33,4.13-5,6.11-.63.72-1.36,1.68-1.92,2.45a4.28,4.28,0,0,1-.8,1.06,9.22,9.22,0,0,0,.46,2.4,12.55,12.55,0,0,0,.53,2.19,5.34,5.34,0,0,0,2.13-1.06c1.59-.88,3-1.89,4.45-2.86,3.71-2.47,7.24-5,10.76-7.64,1.4-1,2.69-2.26,4.12-3.32a13.17,13.17,0,0,1,1.86-1.53c0-1.09-.75-1.69-1.2-2.39-1.16-1.78-2.11-3.68-3.25-5.44-.39-.6-.54-1.26-.93-1.86-.81-1.25-1.5-2.59-2.33-3.85-.93-1.42-2.12-2.73-3-4.12s-1.78-2.62-2.73-3.92c-1.36-1.87-2.74-3.74-4.11-5.64-.23-.32-.58-.61-.8-.94s-.25-.59-.46-.86-.61-.49-.73-.8c0-.53-.09-1.06-.14-1.59-.31-1.34-.28-2.92-.6-4.25l-.06-1.06c-.5-2.15-.67-4.52-1.2-6.65l-.2-1.92c-.76-2.85-1.21-5.84-2-8.77-.55-2-.83-4.28-1.46-6.37A11.76,11.76,0,0,1,70,136c.2-.94.2-2.1.4-3v-.66c.21-.9.21-2,.4-2.91v-.91c.66-3,.46-6.32,1.13-9.3l.06-1.52c.28-1.24.12-2.75.4-4,0-.58,0-1.15.07-1.72.33-1.51.14-3.29.46-4.79,0-.58,0-1.15.07-1.72.46-2.06.14-4.44.6-6.51,0-.53,0-1.07.06-1.6s.1-1.64.27-2.39v-.8a7,7,0,0,0,.13-2.45l.14-.14c1,0,1.75-.08,2.85-.06,2.91,0,5.92,0,8.9,0h4.45a12.79,12.79,0,0,0,2.26-.07l24.84.07c.39-2.15.63-4.57,1.13-6.71,0-.66.09-1.33.13-2,.45-2,.45-4.35.93-6.38,0-.53.09-1.06.13-1.59.23-1.55.44-3.1.67-4.65.06-.71.13-1.42.2-2.13.57-2.51.54-5.42,1.12-7.9.21-.87,0-1.62.21-2.46.5-2.22.44-4.84,1-7,.2-.81.12-1.66.33-2.39v-.93c.18-.79.22-1.83.4-2.59V43.9c.4-1.76.23-4.15.8-5.78v-1c.18-.81.2-1.85.4-2.6v-.86c.15-.69.09-1.5.26-2.26.3-1.27.28-2.64.6-4,.83-3.51,1-7.39,1.79-10.9,0-.3,0-.61.07-.92.33-1.35.32-2.82.66-4.25.5-2.12.53-4.48,1.07-6.65.19-.75-.17-3.62,0-4.45h-8.69ZM113.17,17.8c-.2.88-.14,1.79-.33,2.58-.31,1.33-.24,2.75-.53,4L112,27.56c-.73,3.07-.74,6.52-1.46,9.63-.38,1.61-.21,3.25-.6,4.85-.36,1.44-.3,3.05-.67,4.58-1,4.24-.94,9-2,13.22-.22.87-.12,1.63-.33,2.52-.49,2.07-.61,4.38-1.13,6.44l-.27,2c-.28,1.15-.29,2.43-.59,3.65a13.47,13.47,0,0,0-.47,2.65l-30.22.21V73a4,4,0,0,1,.47-.73c.44-.73.77-1.5,1.19-2.19s.6-1.34,1-2c1.12-1.84,2.2-3.8,3.32-5.64,1-1.68,1.73-3.48,2.66-5.25s2-3.83,2.83-5.86c.63-1.52,1.13-3.1,1.68-4.76.18-.87.36-1.73.53-2.59a9.52,9.52,0,0,0-.07-2.4,8,8,0,0,0-.54-2.6,8.77,8.77,0,0,0-1.91-3.24,15.59,15.59,0,0,0-2-2.38,14.38,14.38,0,0,0-1.65-1.27,22.19,22.19,0,0,0-4.54-2.17,18.67,18.67,0,0,0-2.34-.56,21.73,21.73,0,0,0-6-.08c-.27,0-.79.17-1,.17a11.39,11.39,0,0,0-1.64.47,29.37,29.37,0,0,0-3.52,1.84,1.46,1.46,0,0,0,.86,1.06,3.94,3.94,0,0,1-.51.88A9.14,9.14,0,0,0,62.36,35a40.3,40.3,0,0,1-2.59,5.84,14.66,14.66,0,0,1-3.65,3.72c-.37.28-.69.72-1.06,1l-1.14.81c-1.17.82-1.51,1.24-2.69,2-.68.48-1.78.93-1.82,2.06.26.27.37.71.67.93A61,61,0,0,1,55,55.19a3,3,0,0,1-1.59,2.12c0,.54-.11,1.48.13,1.8a3.38,3.38,0,0,0,2,.79,10,10,0,0,0,1.06.14v1.32L54.2,63.69c0,.29-.05.58-.07.87a2.44,2.44,0,0,0,1.26.79v2.32a1.77,1.77,0,0,0-.63.41s-.14.19-.16.19v2.39a4.6,4.6,0,0,0,.57.39l.55.34c.29.19.59.44.9.63s.69.39,1.07.63.82.53,1.22.74v1.86c-.09.29-.22.43-.34.73s-.37.85-.57,1.32-.4.84-.52,1.19c-.36,0-1,0-1.55,0H45.29l-24-.06A7.85,7.85,0,0,1,21.52,77c.26-1.12.22-2.27.47-3.32l.06-1.06c.43-1.81.43-3.9.86-5.71.28-1.19.12-2.27.4-3.46.68-2.89.64-6.14,1.33-9v-.53c.35-1.48.3-3.09.66-4.65.25-1,.2-2.19.47-3.31.8-3.42.78-7.22,1.6-10.64.34-1.44.19-2.81.53-4.25.48-2.06.5-4.43,1-6.5,0-.49.09-1,.14-1.47.27-1.17.23-2.46.53-3.71A15,15,0,0,0,30,16.14l.07-.07a25.8,25.8,0,0,0,4.44-.2c1.06-.23,2.22.08,3.2-.13s2.3.08,3.32-.13h1.72c1.53-.33,3.39.07,4.91-.27h1.6c.46-.1,1.19.05,1.72-.07a14.93,14.93,0,0,1,1.51-.09c1.24-.08,2.2-.11,3.4-.16.66,0,1.27-.09,2.2-.14h18c12.75,0,24.82-.07,37.46-.07A16.84,16.84,0,0,1,113.17,17.8Z"/><path d="M162.54,39.5h-4.65V69.75H152.1v-65h10.44c4.44,0,7,2.32,7,6.38V33C169.49,37.09,167,39.5,162.54,39.5Zm1.16-29.38h-5.81V34h5.81Z"/><path d="M184.68,69.75h-3.07c-3.92,0-6.13-2-6.13-5.7v-46c0-3.58,2.21-5.62,6.13-5.62h3.07c3.92,0,6.13,2,6.13,5.62v46C190.81,67.71,188.6,69.75,184.68,69.75Zm1-52.56h-5.12V64.9h5.12Z"/><path d="M197.54,69.75V12.43h5.11V64.9h7.41v4.85Z"/><path d="M215.6,69.75V12.43h5.11V69.75Z"/><path d="M235.44,69.75h-3.06c-3.92,0-6.13-2-6.13-5.7V56.12h5.11V64.9h5.09V50.67A8.49,8.49,0,0,0,235.19,46l-7.41-12.27-.26-.34a8.21,8.21,0,0,1-1.27-4.69V18.05c0-3.58,2.21-5.62,6.13-5.62h3.06c3.92,0,6.14,2,6.14,5.62v5.7h-5.13V17.19h-5.09V27.42A8.06,8.06,0,0,0,232.64,32l.25.35,7.15,12,.26.34a7.92,7.92,0,0,1,1.28,4.6V64.05C241.58,67.88,239.36,69.75,235.44,69.75Z"/><path d="M257.16,69.75V43.09h-5.1V69.75h-5.12V12.43h5.12V38.24h5.1V12.43h5.11V69.75Z"/><path d="M290.47,69.75H287c-4.44,0-7-2.32-7-6.48V11.09c0-4.06,2.52-6.38,7-6.38h3.48c4.45,0,7,2.32,7,6.38v6.47h-5.8V10.12h-5.81V64.24h5.81V54.29h5.8v9C297.43,67.43,294.92,69.75,290.47,69.75Z"/><path d="M313.36,69.75h-3c-3.91,0-6.22-2-6.22-5.7V12.43h5.12V64.9h5.11V12.43h5.11V64.05C319.5,67.71,317.28,69.75,313.36,69.75Z"/><path d="M326.48,69.75V12.43h5.11V64.9H339v4.85Z"/><path d="M349.48,17.19V69.75h-5.11V17.19H339.6V12.43h14.73v4.76Z"/><path d="M368.65,69.75h-3c-3.91,0-6.21-2-6.21-5.7V12.43h5.11V64.9h5.11V12.43h5.11V64.05C374.78,67.71,372.57,69.75,368.65,69.75Z"/><path d="M392.42,69.75l-4.35-26.66h-1.2V69.75h-5.1V12.43H391c3.92,0,6.14,2,6.14,5.62V37.38A5.37,5.37,0,0,1,392.42,43l5.11,26.74ZM392,17.19h-5.12V38.24H392Z"/><path d="M415,69.75l-1.44-13.63h-6.13l-1.53,13.63h-5.12l7.16-57.32H413l7.07,57.32Zm-4.51-40.89-2.55,22.41H413Z"/><path d="M425.46,69.75V12.43h5.11V64.9H438v4.85Z"/><path d="M152.29,143.47v-65h5.8v65Z"/><path d="M176,143.47l-5.38-30.67.26,30.67h-5.11V86.14h5.11l5.45,31.18L176,86.14h5.1v57.33Z"/><path d="M195.77,143.47h-3.06c-3.92,0-6.13-2-6.13-5.7v-7.93h5.11v8.77h5.11V124.39a8.46,8.46,0,0,0-1.28-4.69l-7.41-12.26-.26-.34a8.29,8.29,0,0,1-1.27-4.69V91.77c0-3.59,2.21-5.63,6.13-5.63h3.06c3.92,0,6.14,2,6.14,5.63v5.7H196.8V90.91h-5.11v10.22a8,8,0,0,0,1.28,4.6l.25.35,7.16,12,.26.34a8,8,0,0,1,1.27,4.6v14.74C201.91,141.6,199.69,143.47,195.77,143.47Z"/><path d="M215.37,90.91v52.56h-5.12V90.91h-4.77V86.14h14.74v4.77Z"/><path d="M225.5,143.47V86.14h5.11v57.33Z"/><path d="M245.77,90.91v52.56h-5.12V90.91h-4.76V86.14h14.74v4.77Z"/><path d="M264.94,143.47h-3c-3.92,0-6.22-2-6.22-5.7V86.14h5.11v52.47H266V86.14h5.12v51.63C271.08,141.43,268.85,143.47,264.94,143.47Z"/><path d="M286.15,90.91v52.56H281V90.91h-4.77V86.14H291v4.77Z"/><path d="M296.11,143.47V86.14h12.53v4.77h-7.41v21h7.41v4.86h-7.41v21.8h7.41v4.86Z"/></svg>
