<svg id="Layer_1" data-name="Layer 1" xmlns="http://www.w3.org/2000/svg" viewBox="0 0 379.49 212.67"><defs><style>.cls-1{fill:#fff;}</style></defs><title>wallonia-logo</title><path class="cls-1" d="M195.59,83.11a13.89,13.89,0,1,0,13.83,14A13.86,13.86,0,0,0,195.59,83.11Zm-20.83-13.8a13.9,13.9,0,1,0-13.87-13.84A13.85,13.85,0,0,0,174.76,69.31Zm55.43-13.83a13.89,13.89,0,1,0-13.88,13.83A13.89,13.89,0,0,0,230.19,55.48ZM119.36,55.4a13.89,13.89,0,1,0,27.78,0,13.89,13.89,0,1,0-27.78,0ZM154,83.11A13.89,13.89,0,1,0,167.88,97,13.82,13.82,0,0,0,154,83.11ZM244,55.42a13.89,13.89,0,1,0,13.91-13.91A13.86,13.86,0,0,0,244,55.42ZM237,110.89A13.9,13.9,0,1,0,223.15,97,13.89,13.89,0,0,0,237,110.89Zm-11.31,41.2.75-.5a6.65,6.65,0,0,0-3.41-12.14c-4.19-.3-8.4-.22-12.6-.22a2.17,2.17,0,0,0-2,2.41q0,11,0,22a2.35,2.35,0,0,0,2.52,2.51c3.56,0,7.13,0,10.7,0a12.2,12.2,0,0,0,5.55-1.3,6.51,6.51,0,0,0,3.69-6.16,6.13,6.13,0,0,0-3.72-5.92ZM95.64,145.35a10.63,10.63,0,0,0-10.83,10.84c0,5.9,4.82,10.45,11,10.42a10.63,10.63,0,1,0-.14-21.26Zm54,12.27h12.59a2,2,0,0,0,2.2-2.1,9.67,9.67,0,0,0-.22-2.4c-.8-3.48-2.7-6.13-6.2-7.24a9.41,9.41,0,0,0-9.67,1.92A10.72,10.72,0,0,0,145,157.88a9.43,9.43,0,0,0,6.51,8.06,10.67,10.67,0,0,0,10.89-1.87,2,2,0,0,0,.4-2.88,1.91,1.91,0,0,0-2.82-.1,7.44,7.44,0,0,1-5.3,1.58A5.51,5.51,0,0,1,149.64,157.62Zm195.65,0,.58,0h12a2,2,0,0,0,2.17-2.13,12,12,0,0,0-.18-2.24,9.58,9.58,0,0,0-15.43-5.86c-3.39,2.75-4.43,6.43-3.79,10.63a9.38,9.38,0,0,0,6.45,7.92A10.74,10.74,0,0,0,358,164.15a2,2,0,0,0,.49-2.93c-.7-.89-1.76-.89-2.89-.12a10.14,10.14,0,0,1-2.34,1.25C349.37,163.67,345.73,161.5,345.29,157.65Zm-45.17,0h12.53a2.08,2.08,0,0,0,2.27-2.29,11,11,0,0,0-.18-2.07c-1.6-7.68-9.06-9.43-14.08-6.77-4.36,2.32-6.4,7.88-4.84,12.94a10,10,0,0,0,9.6,7.18,10.59,10.59,0,0,0,7.48-2.53,2,2,0,0,0,.4-2.88,1.93,1.93,0,0,0-2.83-.13,8.73,8.73,0,0,1-1.62,1C305,163.73,300.68,162.1,300.12,157.62ZM53.68,163.93a7.55,7.55,0,0,0,.68,1.6,2.27,2.27,0,0,0,2.65.64,2.2,2.2,0,0,0,1.48-2.2c0-3.46,0-6.91,0-10.37a8.4,8.4,0,0,0-1.62-5.17,7.4,7.4,0,0,0-5.23-2.78,17.12,17.12,0,0,0-8.61,1,2.06,2.06,0,0,0-1.33,2.1,1.93,1.93,0,0,0,1.68,1.72,3.66,3.66,0,0,0,1.38-.22,12.14,12.14,0,0,1,5.67-.54,3.86,3.86,0,0,1,3.37,4.62l-.72-.18A16.47,16.47,0,0,0,45.3,154c-3.32.74-5.19,3-5.21,6.21a6,6,0,0,0,5.13,6.15A8.6,8.6,0,0,0,53.68,163.93Zm9.23,30.76c-.06-.44-.08-.71-.13-1a2.41,2.41,0,0,0-2.52-2.08,2.33,2.33,0,0,0-2.18,2.42c0,5.35,0,10.7,0,16a2.31,2.31,0,0,0,3.13,2.22,2.49,2.49,0,0,0,1.62-2.64c0-3.21,0-6.41,0-9.62a4.3,4.3,0,0,1,4.48-4.3,4,4,0,0,1,4.22,4.29c.07,3.32,0,6.63,0,9.95A2.36,2.36,0,0,0,74,212.46a2.32,2.32,0,0,0,2.42-2.34c0-4,.12-8.09-.14-12.11-.36-5.72-5.34-7.27-9.13-6.3A7.9,7.9,0,0,0,62.91,194.69ZM264.74,163.4l0,.29c.06,1.68,1,2.66,2.45,2.63a2.39,2.39,0,0,0,2.34-2.69q0-7.73,0-15.47a2.38,2.38,0,0,0-2.43-2.59,2.33,2.33,0,0,0-2.36,2.63c0,3,0,5.91,0,8.87a8.33,8.33,0,0,1-.18,1.73,4.15,4.15,0,0,1-3.59,3.35c-2.33.22-3.91-.53-4.58-2.33a7.69,7.69,0,0,1-.45-2.52c-.05-3.09,0-6.19,0-9.28a2.26,2.26,0,0,0-2.45-2.45,2.3,2.3,0,0,0-2.26,2.55c0,2.87,0,5.74,0,8.61a28.73,28.73,0,0,0,.16,3.83,7.12,7.12,0,0,0,11.51,4.53C263.54,164.58,264.11,164,264.74,163.4ZM140.91,194.77c0-.41,0-.62,0-.83a2.39,2.39,0,0,0-2.46-2.31,2.35,2.35,0,0,0-2.25,2.51q0,8,0,15.89a2.35,2.35,0,1,0,4.7.13c0-.89,0-1.79,0-2.68,0-2.59,0-5.18.12-7.76a4.18,4.18,0,0,1,4.2-4c2.44-.07,3.9,1.14,4.38,3.65a7.38,7.38,0,0,1,.11,1.41q0,4.55,0,9.11a2.36,2.36,0,0,0,2.33,2.53,2.31,2.31,0,0,0,2.38-2.45c0-3.92.06-7.86-.07-11.78a6.4,6.4,0,0,0-3.83-6.08,7.35,7.35,0,0,0-7.81.8A20.74,20.74,0,0,0,140.91,194.77Zm98.12.11c0-.38,0-.54,0-.7a2.35,2.35,0,1,0-4.68.06c0,5.25,0,10.49,0,15.73a2.33,2.33,0,0,0,2.34,2.49A2.36,2.36,0,0,0,239,210c0-2.9,0-5.8,0-8.7a11.37,11.37,0,0,1,.16-1.74,4.26,4.26,0,0,1,4.4-3.75,3.94,3.94,0,0,1,4.17,3.7,8.31,8.31,0,0,1,.13,1.41c0,3.09,0,6.19,0,9.28a2.32,2.32,0,0,0,2.36,2.31,2.28,2.28,0,0,0,2.31-2.34c0-3.85,0-7.7,0-11.55a6.83,6.83,0,0,0-6.86-7.12A7.42,7.42,0,0,0,239,194.88ZM115.92,148.44a.24.24,0,0,1,0-.13,2.46,2.46,0,0,0-2.44-2.76c-1.46.09-2.29,1-2.29,2.79v15.3c0,1.71.89,2.69,2.39,2.68s2.33-1,2.33-2.66c0-3,0-5.91,0-8.86a7.79,7.79,0,0,1,.18-1.74,4.31,4.31,0,0,1,4.36-3.42,3.91,3.91,0,0,1,4.08,3.23,8.57,8.57,0,0,1,.19,1.9c0,3.09,0,6.19,0,9.28a2.23,2.23,0,0,0,2.46,2.27,2.26,2.26,0,0,0,2.24-2.4c0-3.79,0-7.58,0-11.37a7.17,7.17,0,0,0-10.88-6.26A20.13,20.13,0,0,0,115.92,148.44Zm167.39,10.48,1.88,2.41c1.13,1.45,2.23,2.93,3.43,4.32a2.24,2.24,0,1,0,3.44-2.88c-.21-.29-.44-.57-.68-.84l-5.23-6.21c1.78-2.13,3.56-4.2,5.26-6.34a3.91,3.91,0,0,0,.81-1.92,1.71,1.71,0,0,0-1.27-1.77,2.1,2.1,0,0,0-2.4.44c-.68.73-1.28,1.54-1.91,2.32-1.08,1.37-2.14,2.74-3.25,4.16-1.42-1.87-2.78-3.67-4.16-5.45a6.58,6.58,0,0,0-1.07-1.16,2.38,2.38,0,0,0-3,.09,2.16,2.16,0,0,0-.26,2.89,14.25,14.25,0,0,0,1.08,1.38l4.58,5.44-.74.89c-1.69,2-3.39,4.07-5.08,6.1a2.17,2.17,0,0,0-.4,2.35,2.07,2.07,0,0,0,1.83,1.26,2.75,2.75,0,0,0,2.42-1.38C280.15,163,281.69,161,283.31,158.92Zm88.79,7.58a8.06,8.06,0,0,0,4.39-1.11,5.79,5.79,0,0,0,2.84-5.72,4.78,4.78,0,0,0-2.95-4.22c-1.36-.67-2.84-1.1-4.25-1.68a17.35,17.35,0,0,1-2.93-1.35,1.57,1.57,0,0,1,.19-2.75,3.83,3.83,0,0,1,1.42-.42,9.51,9.51,0,0,1,5.1,1.27,2,2,0,0,0,2.82-.75,1.9,1.9,0,0,0-1-2.7,21.24,21.24,0,0,0-4-1.4A8.82,8.82,0,0,0,366.4,147c-2.77,2-3.49,7.3.55,9.38a31.09,31.09,0,0,0,3.16,1.27c1.3.48,2.62.9,3.89,1.44a1.59,1.59,0,0,1,1,1.76,1.74,1.74,0,0,1-1.28,1.6,8.14,8.14,0,0,1-2.45.29,10.37,10.37,0,0,1-5-1.82,1.95,1.95,0,1,0-2.08,3.28A13.66,13.66,0,0,0,372.1,166.5Zm-36.47-14.31V140.4a2.39,2.39,0,1,0-4.77-.13c0,.19,0,.39,0,.58v22.49a5.56,5.56,0,0,0,.05.91,2.36,2.36,0,0,0,4.71-.36C335.64,160,335.63,156.09,335.63,152.19Zm-54.7,46c0,3.84,0,7.69,0,11.53a3.77,3.77,0,0,0,.24,1.46,2.25,2.25,0,0,0,2.57,1.22,2.3,2.3,0,0,0,1.9-2.48V186.5a3.25,3.25,0,0,0-.09-.83,2.39,2.39,0,0,0-2.52-1.75,2.29,2.29,0,0,0-2.11,2.38C280.92,190.25,280.93,194.21,280.93,198.17Zm-201-46.06c0-3.93,0-7.86,0-11.79a2.33,2.33,0,0,0-2.34-2.49c-1.46,0-2.38,1-2.38,2.69q0,11.58,0,23.15a3.66,3.66,0,0,0,.16,1.14,2.36,2.36,0,0,0,4.56-.84C80,160,79.94,156.06,79.94,152.11Zm240-.1v11.86a2.22,2.22,0,0,0,2.25,2.45,2.29,2.29,0,0,0,2.43-2.48V140.28a2.31,2.31,0,0,0-2.38-2.45,2.24,2.24,0,0,0-2.3,2.48Zm-255.71.1c0,3.87,0,7.74,0,11.61a2.32,2.32,0,0,0,2.3,2.6A2.29,2.29,0,0,0,69,163.75q0-11.7,0-23.4a2.36,2.36,0,1,0-4.71.06C64.23,144.31,64.24,148.21,64.24,152.11ZM125,195.42a7.47,7.47,0,0,0,0-1.49,3.31,3.31,0,0,0-.54-1.44,2.25,2.25,0,0,0-2.63-.7,2.43,2.43,0,0,0-1.52,2.45q0,7.81,0,15.63a2.36,2.36,0,0,0,2.35,2.58,2.43,2.43,0,0,0,2.39-2.56c-.05-2.39,0-4.79.09-7.18a6.57,6.57,0,0,1,4.94-6.38c.29-.08.6-.12.88-.22a2.25,2.25,0,0,0,1.53-2.25,2.19,2.19,0,0,0-1.73-2.18,3.32,3.32,0,0,0-3,.8C126.71,193.36,125.9,194.41,125,195.42Zm-73.47,3.36v-11a3.62,3.62,0,0,0-.1-1,2.41,2.41,0,0,0-4.7.9q0,11.08,0,22.17a2.44,2.44,0,0,0,2.42,2.64,2.39,2.39,0,0,0,2.39-2.64Zm188.81-49.55c0-.3,0-.74,0-1.17a2.33,2.33,0,0,0-2.35-2.49,2.23,2.23,0,0,0-2.36,2.43q0,8,0,15.89a2.91,2.91,0,0,0,.25,1.21,2.33,2.33,0,0,0,2.62,1.18,2.37,2.37,0,0,0,1.84-2.3c0-2.2,0-4.4,0-6.61a8.53,8.53,0,0,1,1.27-4.52,6.41,6.41,0,0,1,4.38-2.78,2.21,2.21,0,0,0,1.7-2.74,2,2,0,0,0-2.25-1.77,4.73,4.73,0,0,0-2.38.8A27.51,27.51,0,0,0,240.32,149.23ZM203,202.1v-8a2.34,2.34,0,1,0-4.68-.07q0,8,0,16.05a2.34,2.34,0,0,0,2.36,2.4A2.31,2.31,0,0,0,203,210ZM135.25,156c0,2.62,0,5.23,0,7.85a2.27,2.27,0,0,0,2.37,2.52,2.33,2.33,0,0,0,2.34-2.57q0-7.77,0-15.55a2.33,2.33,0,0,0-2.36-2.63c-1.48,0-2.35,1-2.35,2.61Q135.25,152.07,135.25,156Zm50.31.66h3.76a2.06,2.06,0,0,0,1.86-1.07,2.33,2.33,0,0,0-2.12-3.56c-2.28,0-4.56,0-6.85,0a3.07,3.07,0,0,0-.9.14,2.31,2.31,0,0,0-1.57,2.54,2.2,2.2,0,0,0,2.23,2Zm105.62,53a2.67,2.67,0,0,0,2.75,2.89,2.9,2.9,0,0,0,0-5.8A2.68,2.68,0,0,0,291.18,209.57Zm-90.49-25.4c-1.68,0-2.66.89-2.67,2.4a2.68,2.68,0,0,0,5.35,0C203.37,185.07,202.37,184.17,200.69,184.17Zm-63.11-41.28c1.69,0,2.72-.93,2.7-2.46s-1.07-2.38-2.72-2.38a2.35,2.35,0,0,0-2.64,2.44C134.93,142,135.9,142.89,137.58,142.89Z"/><path d="M0,140.55A2.73,2.73,0,0,1,2,139a2.42,2.42,0,0,1,2.8,1.81c1,2.84,1.9,5.69,2.85,8.54,1.06,3.16,2.12,6.31,3.25,9.69l1.27-3.82q2.35-7.12,4.7-14.24a2.55,2.55,0,0,1,2.72-2.11c1.35,0,2.1.62,2.61,2.14l3.69,11.24c.73,2.18,1.46,4.37,2.23,6.7.13-.32.22-.52.29-.73q2.85-8.49,5.68-17c.36-1.08.82-2,2.09-2.23a2.34,2.34,0,0,1,2.65,3.17c-1.27,3.33-2.41,6.7-3.6,10q-2.16,6.09-4.34,12.17c-.54,1.49-1.3,2.07-2.67,2.07a2.51,2.51,0,0,1-2.83-2q-2.85-8.31-5.69-16.63c0-.15-.12-.3-.25-.61-.5,1.44-1,2.74-1.41,4.05l-4.41,13c-.63,1.85-1.65,2.5-3.57,2.19A2.69,2.69,0,0,1,8,164.38q-1.18-3.28-2.35-6.59L.29,142.64a4.48,4.48,0,0,0-.29-.58Z"/><path d="M239,0a29,29,0,0,1,2.93.85c5.29,2.15,8.35,6.05,8.95,11.74a13.88,13.88,0,1,1-16-12.45.86.86,0,0,0,.29-.14Zm-1.95,22.1a8.27,8.27,0,1,0-8.25-8.29A8.26,8.26,0,0,0,237.05,22.1Z"/><path d="M312.25,212.67a9.12,9.12,0,0,1-4-1.87c-.47-.43-.91-.89-1.46-1.43,0,.31-.06.53-.08.76a2.43,2.43,0,0,1-2.29,2.33,2.39,2.39,0,0,1-2.41-2,3.8,3.8,0,0,1-.06-.75q0-11.53,0-23.08c0-2,1.48-3.18,3.21-2.56a2.29,2.29,0,0,1,1.55,2.33c0,2.5,0,5,0,7.52v1a2.23,2.23,0,0,0,.38-.3c3.91-5.17,11.73-3.76,14.63,1.73,2.14,4,1.63,9.86-1.23,13.12a9,9,0,0,1-5.18,3,2,2,0,0,0-.36.17Zm.22-4.15a5.35,5.35,0,0,0,4.85-2.84,7.74,7.74,0,0,0,.79-4.84,5.67,5.67,0,0,0-9-4.17,6.47,6.47,0,0,0-2.57,5.85A6,6,0,0,0,312.47,208.52Z"/><path d="M216.92,212.67a33.29,33.29,0,0,1-3.26-1.18A10.38,10.38,0,0,1,208,201.28a10.53,10.53,0,0,1,8.25-9.53c6-1.3,11.61,1.94,13.08,7.57a10.58,10.58,0,0,1-8.41,13.18,3,3,0,0,0-.47.17ZM212.7,202a6.18,6.18,0,0,0,7.88,6.29c2.42-.65,4.06-2.69,4.32-5.64a6.29,6.29,0,0,0-6.35-7.08C215.17,195.65,212.72,198.37,212.7,202Z"/><path d="M104.7,212.67a22.75,22.75,0,0,1-3.42-1.23A9.79,9.79,0,0,1,96,202.66a10.48,10.48,0,0,1,3.53-8.82,9.44,9.44,0,0,1,9.68-1.85c3.48,1.16,5.37,3.82,6.15,7.3a10.32,10.32,0,0,1,.19,2.08,2.14,2.14,0,0,1-2.36,2.39c-3.81,0-7.63,0-11.44,0h-.91a5.32,5.32,0,0,0,4.2,4.9,6.82,6.82,0,0,0,6-1.42,2,2,0,1,1,2.39,3.09,11.85,11.85,0,0,1-5.18,2.34Zm6.19-12.09a5.13,5.13,0,0,0-5-5.26,5.39,5.39,0,0,0-5.2,5.26Z"/><path d="M335.33,212.67a24.12,24.12,0,0,1-3.7-1.4,9.68,9.68,0,0,1-5-8.45,10.54,10.54,0,0,1,3.47-8.93,9.42,9.42,0,0,1,9.74-1.89c3.49,1.15,5.36,3.81,6.15,7.3a10.22,10.22,0,0,1,.19,2.07,2.15,2.15,0,0,1-2.37,2.39H331.47a5.35,5.35,0,0,0,4.21,4.9,7.18,7.18,0,0,0,6.1-1.5,1.9,1.9,0,0,1,3.18.92,1.94,1.94,0,0,1-.68,2,10.13,10.13,0,0,1-4.8,2.38c-.21,0-.42.12-.63.18Zm6.2-12.09a5.14,5.14,0,0,0-4.95-5.26,5.39,5.39,0,0,0-5.2,5.26Z"/><path d="M262.58,212.67c-.52-.17-1.05-.32-1.57-.5a5.94,5.94,0,0,1-4.27-5.75,5.88,5.88,0,0,1,4.07-6,15.1,15.1,0,0,1,8.63-.22c.35.07.7.17,1,.26a3.74,3.74,0,0,0-2-4.17,9.43,9.43,0,0,0-6.29-.12,13.58,13.58,0,0,1-1.61.41,1.92,1.92,0,0,1-2.12-1.38,2,2,0,0,1,1.13-2.36,15.64,15.64,0,0,1,10.53-.68,7.06,7.06,0,0,1,5,7c0,3.65,0,7.3,0,11a2.21,2.21,0,0,1-2.26,2.28,2.16,2.16,0,0,1-2.3-2.12c0-.1,0-.21-.06-.42a6.52,6.52,0,0,1-1.17,1c-1.28.62-2.6,1.16-3.91,1.74Zm3.56-10.06a21.78,21.78,0,0,0-3.13.84,2.73,2.73,0,0,0-1.61,3,2.55,2.55,0,0,0,1.94,2.35,8.72,8.72,0,0,0,2.78.32,4.52,4.52,0,0,0,4.54-5,.73.73,0,0,0-.67-.85Z"/><path d="M164.57,212.67c-.53-.15-1.07-.27-1.59-.45a6.25,6.25,0,0,1,.58-12.08,16,16,0,0,1,7.68.07c.38.08.74.18,1.12.27a4,4,0,0,0-4.12-4.72,13.33,13.33,0,0,0-5.09.69,2,2,0,1,1-1.31-3.77,16.08,16.08,0,0,1,9.67-.63,7,7,0,0,1,5.42,6.8c.09,3.76,0,7.52.07,11.29a2.32,2.32,0,0,1-3.72,1.84,7,7,0,0,1-1.1-1.86,11.12,11.12,0,0,1-1.78,1.33c-1,.5-2.1.82-3.15,1.22Zm2.47-3.4c.72-.11,1.25-.15,1.77-.27a4.33,4.33,0,0,0,3.65-5c0-.18-.15-.46-.29-.5-2.38-.75-4.79-1.12-7.17-.11a2.82,2.82,0,0,0-1.78,2.79,2.67,2.67,0,0,0,1.75,2.61A14.23,14.23,0,0,0,167,209.27Z"/><path d="M88.14,212.67c-.48-.1-1-.19-1.45-.31A4.5,4.5,0,0,1,83,208.09c-.14-2-.12-4.06-.15-6.09s0-3.95,0-5.69a13.85,13.85,0,0,1-2.35-1.25c-.3-.24-.35-.92-.34-1.39,0-1.11.72-1.57,2.69-1.84,0-1,0-2,0-3.05a2.4,2.4,0,1,1,4.77,0v3.18h3.47a2,2,0,0,1,2.21,2,2.06,2.06,0,0,1-2.18,2l-3.26,0s-.1,0-.24.1v2.53c0,2.39,0,4.79,0,7.19,0,1.89.76,2.61,2.67,2.56l.75-.05a2,2,0,0,1,.71,3.84c-.79.23-1.61.37-2.42.55Z"/><path d="M188.66,212.67c-.44-.08-.87-.14-1.3-.23a4.74,4.74,0,0,1-4-4.82c-.07-3.54,0-7.08-.07-10.62v-1c-2.07-.33-2.81-.92-2.77-2.17s.81-1.82,2.8-2c0-1.17-.06-2.36,0-3.55a2.34,2.34,0,0,1,4.68.07c0,1.14,0,2.28,0,3.54h3.51a2,2,0,0,1,2.17,2,2,2,0,0,1-2.17,2l-3.26,0a1.21,1.21,0,0,0-.25.08v1.86c0,2.6,0,5.19,0,7.78,0,2,.79,2.72,2.76,2.66l.75-.05a1.94,1.94,0,0,1,.82,3.76c-.86.28-1.76.42-2.65.63Z"/><path d="M195.59,83.11a13.89,13.89,0,1,1-14,13.68A13.89,13.89,0,0,1,195.59,83.11Z"/><path d="M174.76,69.31A13.9,13.9,0,1,1,188.64,55.4,13.84,13.84,0,0,1,174.76,69.31Z"/><path d="M230.19,55.48a13.89,13.89,0,1,1-13.85-14A13.84,13.84,0,0,1,230.19,55.48Z"/><path d="M119.36,55.4a13.89,13.89,0,1,1,13.86,13.91A13.84,13.84,0,0,1,119.36,55.4Z"/><path d="M154,83.11A13.89,13.89,0,1,1,140.1,97,13.84,13.84,0,0,1,154,83.11Z"/><path d="M244,55.42a13.89,13.89,0,1,1,13.9,13.9A13.89,13.89,0,0,1,244,55.42Zm13.88-8.25a8.27,8.27,0,1,0,8.26,8.27A8.22,8.22,0,0,0,257.84,47.17Z"/><path d="M237,110.89A13.9,13.9,0,1,1,251,97,14,14,0,0,1,237,110.89Zm0-5.63A8.29,8.29,0,1,0,228.8,97,8.33,8.33,0,0,0,237.07,105.26Z"/><path d="M225.71,152.09l1.43.66a6.13,6.13,0,0,1,3.72,5.92,6.51,6.51,0,0,1-3.69,6.16,12.2,12.2,0,0,1-5.55,1.3c-3.57,0-7.14,0-10.7,0a2.35,2.35,0,0,1-2.52-2.51q0-11,0-22a2.17,2.17,0,0,1,2-2.41c4.2,0,8.41-.08,12.6.22a6.65,6.65,0,0,1,3.41,12.14Zm-12.55,9.71c3.1,0,6.11,0,9.11,0a4.89,4.89,0,0,0,1.76-.49,3.2,3.2,0,0,0,2-3.15,3,3,0,0,0-2.13-3,9.84,9.84,0,0,0-2.84-.53c-2.4-.07-4.79,0-7.19,0-.24,0-.48,0-.75.05Zm0-11.47c2.74,0,5.43.1,8.11,0a3.35,3.35,0,0,0,0-6.7c-2.66-.19-5.34-.12-8-.16,0,0-.08.07-.13.11Z"/><path d="M95.64,145.35a10.63,10.63,0,1,1,.14,21.26c-6.15,0-10.94-4.52-11-10.42A10.63,10.63,0,0,1,95.64,145.35Zm0,4.2c-3.54,0-6.09,2.72-6.06,6.45a6.3,6.3,0,0,0,6.17,6.47,6.12,6.12,0,0,0,6.1-6.38A6.19,6.19,0,0,0,95.59,149.55Z"/><path d="M149.64,157.62a5.51,5.51,0,0,0,5,5,7.44,7.44,0,0,0,5.3-1.58,1.91,1.91,0,0,1,2.82.1,2,2,0,0,1-.4,2.88,10.67,10.67,0,0,1-10.89,1.87,9.43,9.43,0,0,1-6.51-8.06,10.72,10.72,0,0,1,3.34-10.09,9.41,9.41,0,0,1,9.67-1.92c3.5,1.11,5.4,3.76,6.2,7.24a9.67,9.67,0,0,1,.22,2.4,2,2,0,0,1-2.2,2.1H149.64Zm10.13-3.18c-.19-3.07-2.24-5.19-5-5.2a5.3,5.3,0,0,0-5.17,5.2Z"/><path d="M345.29,157.65c.44,3.85,4.08,6,7.95,4.7a10.14,10.14,0,0,0,2.34-1.25c1.13-.77,2.19-.77,2.89.12a2,2,0,0,1-.49,2.93,10.74,10.74,0,0,1-10.85,1.78,9.38,9.38,0,0,1-6.45-7.92c-.64-4.2.4-7.88,3.79-10.63a9.58,9.58,0,0,1,15.43,5.86,12,12,0,0,1,.18,2.24,2,2,0,0,1-2.17,2.13h-12Zm-.05-3.25h10.17a5.14,5.14,0,0,0-4.58-5.15C347.91,149.07,345.74,151.05,345.24,154.4Z"/><path d="M300.12,157.62c.56,4.48,4.85,6.11,8.73,4.45a8.73,8.73,0,0,0,1.62-1,1.93,1.93,0,0,1,2.83.13,2,2,0,0,1-.4,2.88,10.59,10.59,0,0,1-7.48,2.53,10,10,0,0,1-9.6-7.18c-1.56-5.06.48-10.62,4.84-12.94,5-2.66,12.48-.91,14.08,6.77a11,11,0,0,1,.18,2.07,2.08,2.08,0,0,1-2.27,2.29H300.12Zm0-3.2h10.14a5.11,5.11,0,0,0-4.4-5.17C302.89,149,300.51,151.07,300.08,154.42Z"/><path d="M53.68,163.93a8.6,8.6,0,0,1-8.46,2.38,6,6,0,0,1-5.13-6.15c0-3.24,1.89-5.47,5.21-6.21a16.47,16.47,0,0,1,7.77.24l.72.18a3.86,3.86,0,0,0-3.37-4.62,12.14,12.14,0,0,0-5.67.54,3.66,3.66,0,0,1-1.38.22,1.93,1.93,0,0,1-1.68-1.72,2.06,2.06,0,0,1,1.33-2.1,17.12,17.12,0,0,1,8.61-1,7.4,7.4,0,0,1,5.23,2.78,8.4,8.4,0,0,1,1.62,5.17c.06,3.46,0,6.91,0,10.37a2.2,2.2,0,0,1-1.48,2.2,2.27,2.27,0,0,1-2.65-.64A7.55,7.55,0,0,1,53.68,163.93Zm-4.22-7.45a22.15,22.15,0,0,0-3.08.84,2.92,2.92,0,0,0,.23,5.4,5.54,5.54,0,0,0,1.79.36C51,163.16,54.22,162,54,158c0-.45-.17-.66-.58-.74Z"/><path d="M62.91,194.69a7.9,7.9,0,0,1,4.19-3c3.79-1,8.77.58,9.13,6.3.26,4,.15,8.07.14,12.11A2.32,2.32,0,0,1,74,212.46,2.36,2.36,0,0,1,71.63,210c0-3.32,0-6.63,0-9.95a4,4,0,0,0-4.22-4.29,4.3,4.3,0,0,0-4.48,4.3c-.08,3.21,0,6.41,0,9.62a2.49,2.49,0,0,1-1.62,2.64,2.31,2.31,0,0,1-3.13-2.22c0-5.35,0-10.7,0-16a2.33,2.33,0,0,1,2.18-2.42,2.41,2.41,0,0,1,2.52,2.08C62.83,194,62.85,194.25,62.91,194.69Z"/><path d="M264.74,163.4c-.63.58-1.2,1.18-1.84,1.69a7.12,7.12,0,0,1-11.51-4.53,28.73,28.73,0,0,1-.16-3.83c0-2.87,0-5.74,0-8.61a2.3,2.3,0,0,1,2.26-2.55,2.26,2.26,0,0,1,2.45,2.45c0,3.09,0,6.19,0,9.28a7.69,7.69,0,0,0,.45,2.52c.67,1.8,2.25,2.55,4.58,2.33a4.15,4.15,0,0,0,3.59-3.35,8.33,8.33,0,0,0,.18-1.73c0-3,0-5.91,0-8.87a2.33,2.33,0,0,1,2.36-2.63,2.38,2.38,0,0,1,2.43,2.59q0,7.74,0,15.47a2.39,2.39,0,0,1-2.34,2.69c-1.48,0-2.39-.95-2.45-2.63Z"/><path d="M140.91,194.77A20.74,20.74,0,0,1,142.7,193a7.35,7.35,0,0,1,7.81-.8,6.4,6.4,0,0,1,3.83,6.08c.13,3.92.08,7.86.07,11.78a2.31,2.31,0,0,1-2.38,2.45,2.36,2.36,0,0,1-2.33-2.53q0-4.56,0-9.11a7.38,7.38,0,0,0-.11-1.41c-.48-2.51-1.94-3.72-4.38-3.65a4.18,4.18,0,0,0-4.2,4c-.17,2.58-.1,5.17-.12,7.76,0,.89,0,1.79,0,2.68a2.35,2.35,0,1,1-4.7-.13q0-8,0-15.89a2.35,2.35,0,0,1,2.25-2.51,2.39,2.39,0,0,1,2.46,2.31C140.88,194.15,140.89,194.36,140.91,194.77Z"/><path d="M239,194.88a7.42,7.42,0,0,1,6.65-3.43,6.83,6.83,0,0,1,6.86,7.12c0,3.85,0,7.7,0,11.55a2.28,2.28,0,0,1-2.31,2.34,2.32,2.32,0,0,1-2.36-2.31c0-3.09,0-6.19,0-9.28a8.31,8.31,0,0,0-.13-1.41,3.94,3.94,0,0,0-4.17-3.7,4.26,4.26,0,0,0-4.4,3.75,11.37,11.37,0,0,0-.16,1.74c0,2.9,0,5.8,0,8.7a2.36,2.36,0,0,1-2.34,2.51,2.33,2.33,0,0,1-2.34-2.49c0-5.24,0-10.48,0-15.73a2.35,2.35,0,1,1,4.68-.06C239,194.34,239,194.5,239,194.88Z"/><path d="M115.92,148.44a20.13,20.13,0,0,1,2.63-2.15,7.17,7.17,0,0,1,10.88,6.26c0,3.79,0,7.58,0,11.37a2.26,2.26,0,0,1-2.24,2.4,2.23,2.23,0,0,1-2.46-2.27c0-3.09,0-6.19,0-9.28a8.57,8.57,0,0,0-.19-1.9,3.91,3.91,0,0,0-4.08-3.23,4.31,4.31,0,0,0-4.36,3.42,7.79,7.79,0,0,0-.18,1.74c0,2.95,0,5.9,0,8.86,0,1.62-.9,2.65-2.33,2.66s-2.39-1-2.39-2.68v-15.3c0-1.77.83-2.7,2.29-2.79a2.46,2.46,0,0,1,2.44,2.76A.24.24,0,0,0,115.92,148.44Z"/><path d="M283.31,158.92c-1.62,2.1-3.16,4.1-4.72,6.1a2.75,2.75,0,0,1-2.42,1.38,2.07,2.07,0,0,1-1.83-1.26,2.17,2.17,0,0,1,.4-2.35c1.69-2,3.39-4.06,5.08-6.1l.74-.89L276,150.36A14.25,14.25,0,0,1,274.9,149a2.16,2.16,0,0,1,.26-2.89,2.38,2.38,0,0,1,3-.09,6.58,6.58,0,0,1,1.07,1.16c1.38,1.78,2.74,3.58,4.16,5.45,1.11-1.42,2.17-2.79,3.25-4.16.63-.78,1.23-1.59,1.91-2.32a2.1,2.1,0,0,1,2.4-.44,1.71,1.71,0,0,1,1.27,1.77,3.91,3.91,0,0,1-.81,1.92c-1.7,2.14-3.48,4.21-5.26,6.34l5.23,6.21c.24.27.47.55.68.84a2.24,2.24,0,1,1-3.44,2.88c-1.2-1.39-2.3-2.87-3.43-4.32Z"/><path d="M372.1,166.5a13.66,13.66,0,0,1-8-2.34,1.95,1.95,0,1,1,2.08-3.28,10.37,10.37,0,0,0,5,1.82,8.14,8.14,0,0,0,2.45-.29,1.74,1.74,0,0,0,1.28-1.6,1.59,1.59,0,0,0-1-1.76c-1.27-.54-2.59-1-3.89-1.44a31.09,31.09,0,0,1-3.16-1.27c-4-2.08-3.32-7.38-.55-9.38a8.82,8.82,0,0,1,7.33-1.29,21.24,21.24,0,0,1,4,1.4,1.9,1.9,0,0,1,1,2.7,2,2,0,0,1-2.82.75,9.51,9.51,0,0,0-5.1-1.27,3.83,3.83,0,0,0-1.42.42,1.57,1.57,0,0,0-.19,2.75,17.35,17.35,0,0,0,2.93,1.35c1.41.58,2.89,1,4.25,1.68a4.78,4.78,0,0,1,2.95,4.22,5.79,5.79,0,0,1-2.84,5.72A8.06,8.06,0,0,1,372.1,166.5Z"/><path d="M335.63,152.19c0,3.9,0,7.8,0,11.7a2.36,2.36,0,0,1-4.71.36,5.56,5.56,0,0,1-.05-.91V140.85c0-.19,0-.39,0-.58a2.39,2.39,0,1,1,4.77.13Z"/><path d="M280.93,198.17c0-4,0-7.92,0-11.87a2.29,2.29,0,0,1,2.11-2.38,2.39,2.39,0,0,1,2.52,1.75,3.25,3.25,0,0,1,.09.83v23.4a2.3,2.3,0,0,1-1.9,2.48,2.25,2.25,0,0,1-2.57-1.22,3.77,3.77,0,0,1-.24-1.46C280.92,205.86,280.93,202,280.93,198.17Z"/><path d="M79.94,152.11c0,3.95,0,7.91,0,11.86a2.36,2.36,0,0,1-4.56.84,3.66,3.66,0,0,1-.16-1.14q0-11.58,0-23.15c0-1.71.92-2.72,2.38-2.69a2.33,2.33,0,0,1,2.34,2.49C80,144.25,79.94,148.18,79.94,152.11Z"/><path d="M320,152v-11.7a2.24,2.24,0,0,1,2.3-2.48,2.31,2.31,0,0,1,2.38,2.45v23.56a2.29,2.29,0,0,1-2.43,2.48,2.22,2.22,0,0,1-2.25-2.45Z"/><path d="M64.24,152.11c0-3.9,0-7.8,0-11.7a2.36,2.36,0,1,1,4.71-.06q0,11.7,0,23.4a2.29,2.29,0,0,1-2.41,2.57,2.32,2.32,0,0,1-2.3-2.6C64.23,159.85,64.24,156,64.24,152.11Z"/><path d="M125,195.42c.92-1,1.73-2.06,2.71-2.94a3.32,3.32,0,0,1,3-.8,2.19,2.19,0,0,1,1.73,2.18,2.25,2.25,0,0,1-1.53,2.25c-.28.1-.59.14-.88.22a6.57,6.57,0,0,0-4.94,6.38c-.1,2.39-.14,4.79-.09,7.18a2.43,2.43,0,0,1-2.39,2.56,2.36,2.36,0,0,1-2.35-2.58q0-7.81,0-15.63a2.43,2.43,0,0,1,1.52-2.45,2.25,2.25,0,0,1,2.63.7,3.31,3.31,0,0,1,.54,1.44A7.47,7.47,0,0,1,125,195.42Z"/><path d="M51.51,198.78v11a2.39,2.39,0,0,1-2.39,2.64,2.44,2.44,0,0,1-2.42-2.64q0-11.08,0-22.17a2.41,2.41,0,0,1,4.7-.9,3.62,3.62,0,0,1,.1,1Z"/><path d="M240.32,149.23a27.51,27.51,0,0,1,2.73-2.87,4.73,4.73,0,0,1,2.38-.8,2,2,0,0,1,2.25,1.77,2.21,2.21,0,0,1-1.7,2.74,6.41,6.41,0,0,0-4.38,2.78,8.53,8.53,0,0,0-1.27,4.52c0,2.21,0,4.41,0,6.61a2.37,2.37,0,0,1-1.84,2.3,2.33,2.33,0,0,1-2.62-1.18,2.91,2.91,0,0,1-.25-1.21q0-7.95,0-15.89a2.23,2.23,0,0,1,2.36-2.43,2.33,2.33,0,0,1,2.35,2.49C240.33,148.49,240.32,148.93,240.32,149.23Z"/><path d="M203,202.1V210a2.31,2.31,0,0,1-2.32,2.42,2.34,2.34,0,0,1-2.36-2.4q0-8,0-16.05a2.34,2.34,0,1,1,4.68.07Z"/><path d="M135.25,156q0-3.88,0-7.77c0-1.66.87-2.62,2.35-2.61A2.33,2.33,0,0,1,140,148.2q0,7.78,0,15.55a2.33,2.33,0,0,1-2.34,2.57,2.27,2.27,0,0,1-2.37-2.52C135.24,161.18,135.25,158.57,135.25,156Z"/><path d="M185.56,156.61H182a2.2,2.2,0,0,1-2.23-2,2.31,2.31,0,0,1,1.57-2.54,3.07,3.07,0,0,1,.9-.14c2.29,0,4.57,0,6.85,0a2.33,2.33,0,0,1,2.12,3.56,2.06,2.06,0,0,1-1.86,1.07Z"/><path d="M291.18,209.57a2.68,2.68,0,0,1,2.72-2.91,2.9,2.9,0,0,1,0,5.8A2.67,2.67,0,0,1,291.18,209.57Z"/><path d="M200.69,184.17c1.68,0,2.68.9,2.68,2.4a2.68,2.68,0,0,1-5.35,0C198,185.06,199,184.17,200.69,184.17Z"/><path d="M137.58,142.89c-1.68,0-2.65-.87-2.66-2.4a2.35,2.35,0,0,1,2.64-2.44c1.65,0,2.71.92,2.72,2.38S139.27,142.89,137.58,142.89Z"/><path class="cls-1" d="M237.05,22.1a8.27,8.27,0,1,1,8.31-8.24A8.27,8.27,0,0,1,237.05,22.1Z"/><path class="cls-1" d="M312.47,208.52a6,6,0,0,1-5.9-6,6.47,6.47,0,0,1,2.57-5.85,5.67,5.67,0,0,1,9,4.17,7.74,7.74,0,0,1-.79,4.84A5.35,5.35,0,0,1,312.47,208.52Z"/><path class="cls-1" d="M212.7,202c0-3.66,2.47-6.38,5.85-6.43a6.29,6.29,0,0,1,6.35,7.08c-.26,2.95-1.9,5-4.32,5.64A6.18,6.18,0,0,1,212.7,202Z"/><path class="cls-1" d="M110.89,200.58H100.74a5.39,5.39,0,0,1,5.2-5.26A5.13,5.13,0,0,1,110.89,200.58Z"/><path class="cls-1" d="M341.53,200.58H331.38a5.39,5.39,0,0,1,5.2-5.26A5.14,5.14,0,0,1,341.53,200.58Z"/><path class="cls-1" d="M266.14,202.61l3.85.71a.73.73,0,0,1,.67.85,4.52,4.52,0,0,1-4.54,5,8.72,8.72,0,0,1-2.78-.32,2.55,2.55,0,0,1-1.94-2.35,2.73,2.73,0,0,1,1.61-3A21.78,21.78,0,0,1,266.14,202.61Z"/><path class="cls-1" d="M167,209.27a14.23,14.23,0,0,1-2.07-.52,2.67,2.67,0,0,1-1.75-2.61,2.82,2.82,0,0,1,1.78-2.79c2.38-1,4.79-.64,7.17.11.14,0,.27.32.29.5a4.33,4.33,0,0,1-3.65,5C168.29,209.12,167.76,209.16,167,209.27Z"/><path class="cls-1" d="M257.84,47.17a8.27,8.27,0,1,1-8.25,8.28A8.23,8.23,0,0,1,257.84,47.17Z"/><path class="cls-1" d="M237.07,105.26A8.29,8.29,0,1,1,245.36,97,8.31,8.31,0,0,1,237.07,105.26Z"/><path class="cls-1" d="M213.16,161.8v-7.15c.27,0,.51-.05.75-.05,2.4,0,4.79,0,7.19,0a9.84,9.84,0,0,1,2.84.53,3,3,0,0,1,2.13,3,3.2,3.2,0,0,1-2,3.15,4.89,4.89,0,0,1-1.76.49C219.27,161.83,216.26,161.8,213.16,161.8Z"/><path class="cls-1" d="M213.17,150.33v-6.79c.05,0,.09-.11.13-.11,2.67,0,5.35,0,8,.16a3.35,3.35,0,0,1,0,6.7C218.6,150.43,215.91,150.33,213.17,150.33Z"/><path class="cls-1" d="M95.59,149.55a6.19,6.19,0,0,1,6.21,6.54,6.12,6.12,0,0,1-6.1,6.38A6.3,6.3,0,0,1,89.53,156C89.5,152.27,92.05,149.55,95.59,149.55Z"/><path class="cls-1" d="M159.77,154.44H149.62a5.3,5.3,0,0,1,5.17-5.2C157.53,149.25,159.58,151.37,159.77,154.44Z"/><path class="cls-1" d="M345.24,154.4c.5-3.35,2.67-5.33,5.59-5.15a5.14,5.14,0,0,1,4.58,5.15Z"/><path class="cls-1" d="M300.08,154.42c.43-3.35,2.81-5.46,5.74-5.17a5.11,5.11,0,0,1,4.4,5.17Z"/><path class="cls-1" d="M49.46,156.48l4,.79c.41.08.55.29.58.74.18,3.94-3,5.15-5.64,5.07a5.54,5.54,0,0,1-1.79-.36,2.92,2.92,0,0,1-.23-5.4A22.15,22.15,0,0,1,49.46,156.48Z"/></svg>